%TF.GenerationSoftware,KiCad,Pcbnew,7.0.5*%
%TF.CreationDate,2023-06-26T08:29:16+05:30*%
%TF.ProjectId,Power supply pcb,506f7765-7220-4737-9570-706c79207063,rev?*%
%TF.SameCoordinates,Original*%
%TF.FileFunction,Copper,L2,Bot*%
%TF.FilePolarity,Positive*%
%FSLAX46Y46*%
G04 Gerber Fmt 4.6, Leading zero omitted, Abs format (unit mm)*
G04 Created by KiCad (PCBNEW 7.0.5) date 2023-06-26 08:29:16*
%MOMM*%
%LPD*%
G01*
G04 APERTURE LIST*
G04 Aperture macros list*
%AMRoundRect*
0 Rectangle with rounded corners*
0 $1 Rounding radius*
0 $2 $3 $4 $5 $6 $7 $8 $9 X,Y pos of 4 corners*
0 Add a 4 corners polygon primitive as box body*
4,1,4,$2,$3,$4,$5,$6,$7,$8,$9,$2,$3,0*
0 Add four circle primitives for the rounded corners*
1,1,$1+$1,$2,$3*
1,1,$1+$1,$4,$5*
1,1,$1+$1,$6,$7*
1,1,$1+$1,$8,$9*
0 Add four rect primitives between the rounded corners*
20,1,$1+$1,$2,$3,$4,$5,0*
20,1,$1+$1,$4,$5,$6,$7,0*
20,1,$1+$1,$6,$7,$8,$9,0*
20,1,$1+$1,$8,$9,$2,$3,0*%
G04 Aperture macros list end*
%TA.AperFunction,ComponentPad*%
%ADD10R,1.905000X2.000000*%
%TD*%
%TA.AperFunction,ComponentPad*%
%ADD11O,1.905000X2.000000*%
%TD*%
%TA.AperFunction,ComponentPad*%
%ADD12R,1.800000X1.800000*%
%TD*%
%TA.AperFunction,ComponentPad*%
%ADD13C,1.800000*%
%TD*%
%TA.AperFunction,ComponentPad*%
%ADD14C,1.600000*%
%TD*%
%TA.AperFunction,ComponentPad*%
%ADD15R,1.700000X1.700000*%
%TD*%
%TA.AperFunction,ComponentPad*%
%ADD16O,1.700000X1.700000*%
%TD*%
%TA.AperFunction,ComponentPad*%
%ADD17R,3.000000X3.000000*%
%TD*%
%TA.AperFunction,ComponentPad*%
%ADD18C,3.000000*%
%TD*%
%TA.AperFunction,ComponentPad*%
%ADD19R,3.500000X3.500000*%
%TD*%
%TA.AperFunction,ComponentPad*%
%ADD20RoundRect,0.750000X-0.750000X-1.000000X0.750000X-1.000000X0.750000X1.000000X-0.750000X1.000000X0*%
%TD*%
%TA.AperFunction,ComponentPad*%
%ADD21RoundRect,0.875000X-0.875000X-0.875000X0.875000X-0.875000X0.875000X0.875000X-0.875000X0.875000X0*%
%TD*%
%TA.AperFunction,ComponentPad*%
%ADD22R,1.524000X1.524000*%
%TD*%
%TA.AperFunction,ComponentPad*%
%ADD23C,1.397000*%
%TD*%
%TA.AperFunction,ComponentPad*%
%ADD24C,1.400000*%
%TD*%
%TA.AperFunction,ComponentPad*%
%ADD25O,1.400000X1.400000*%
%TD*%
%TA.AperFunction,ViaPad*%
%ADD26C,0.800000*%
%TD*%
%TA.AperFunction,Conductor*%
%ADD27C,0.350000*%
%TD*%
%TA.AperFunction,Conductor*%
%ADD28C,0.250000*%
%TD*%
G04 APERTURE END LIST*
D10*
%TO.P,U2,1,VI*%
%TO.N,/12V*%
X105638600Y-84099400D03*
D11*
%TO.P,U2,2,GND*%
%TO.N,GND*%
X103098600Y-84099400D03*
%TO.P,U2,3,VO*%
%TO.N,/5V*%
X100558600Y-84099400D03*
%TD*%
D12*
%TO.P,D1,1,K*%
%TO.N,GND*%
X117842000Y-95763000D03*
D13*
%TO.P,D1,2,A*%
%TO.N,Net-(D1-A)*%
X117842000Y-93223000D03*
%TD*%
D14*
%TO.P,C1,1*%
%TO.N,/12V*%
X106654600Y-79070200D03*
%TO.P,C1,2*%
%TO.N,GND*%
X104154600Y-79070200D03*
%TD*%
D15*
%TO.P,J3,1,Pin_1*%
%TO.N,GND*%
X124282200Y-71018400D03*
D16*
%TO.P,J3,2,Pin_2*%
%TO.N,/PWR_OUT_TOP*%
X124282200Y-73558400D03*
%TD*%
D15*
%TO.P,J5,1,Pin_1*%
%TO.N,/3.3V*%
X101219000Y-119202200D03*
D16*
%TO.P,J5,2,Pin_2*%
%TO.N,/PWR_OUT_BOT*%
X103759000Y-119202200D03*
%TO.P,J5,3,Pin_3*%
%TO.N,/5V*%
X106299000Y-119202200D03*
%TD*%
D14*
%TO.P,C2,1*%
%TO.N,/3.3V*%
X101640000Y-112776000D03*
%TO.P,C2,2*%
%TO.N,GND*%
X104140000Y-112776000D03*
%TD*%
D17*
%TO.P,J4,1,Pin_1*%
%TO.N,GND*%
X111887000Y-73380600D03*
D18*
%TO.P,J4,2,Pin_2*%
%TO.N,/PWR_OUT_TOP*%
X116967000Y-73380600D03*
%TD*%
D15*
%TO.P,J6,1,Pin_1*%
%TO.N,GND*%
X124282200Y-117043200D03*
D16*
%TO.P,J6,2,Pin_2*%
%TO.N,/PWR_OUT_BOT*%
X124282200Y-119583200D03*
%TD*%
D19*
%TO.P,J1,1*%
%TO.N,/PWR_input*%
X111556800Y-94716600D03*
D20*
%TO.P,J1,2*%
%TO.N,GND*%
X105556800Y-94716600D03*
D21*
%TO.P,J1,3*%
X108556800Y-99416600D03*
%TD*%
D22*
%TO.P,S1,1*%
%TO.N,/12V*%
X117652800Y-82702400D03*
D23*
%TO.P,S1,2*%
%TO.N,/PWR_input*%
X115072800Y-82702400D03*
%TO.P,S1,3*%
%TO.N,unconnected-(S1-Pad3)*%
X112572800Y-82702400D03*
%TD*%
D24*
%TO.P,R2,1*%
%TO.N,Net-(U1-ADJ)*%
X118364000Y-107721400D03*
D25*
%TO.P,R2,2*%
%TO.N,/3.3V*%
X110744000Y-107721400D03*
%TD*%
D10*
%TO.P,U1,1,ADJ*%
%TO.N,Net-(U1-ADJ)*%
X100558600Y-105892600D03*
D11*
%TO.P,U1,2,VO*%
%TO.N,/3.3V*%
X103098600Y-105892600D03*
%TO.P,U1,3,VI*%
%TO.N,/12V*%
X105638600Y-105892600D03*
%TD*%
D24*
%TO.P,R1,1*%
%TO.N,Net-(D1-A)*%
X111760000Y-88544400D03*
D25*
%TO.P,R1,2*%
%TO.N,/12V*%
X119380000Y-88544400D03*
%TD*%
D24*
%TO.P,R3,1*%
%TO.N,GND*%
X110617000Y-103251000D03*
D25*
%TO.P,R3,2*%
%TO.N,Net-(U1-ADJ)*%
X118237000Y-103251000D03*
%TD*%
D17*
%TO.P,J7,1,Pin_1*%
%TO.N,GND*%
X111887000Y-117094000D03*
D18*
%TO.P,J7,2,Pin_2*%
%TO.N,/PWR_OUT_BOT*%
X116967000Y-117094000D03*
%TD*%
D15*
%TO.P,J2,1,Pin_1*%
%TO.N,/3.3V*%
X101219000Y-71247000D03*
D16*
%TO.P,J2,2,Pin_2*%
%TO.N,/PWR_OUT_TOP*%
X103759000Y-71247000D03*
%TO.P,J2,3,Pin_3*%
%TO.N,/5V*%
X106299000Y-71247000D03*
%TD*%
D14*
%TO.P,C3,1*%
%TO.N,/5V*%
X101549200Y-79044800D03*
%TO.P,C3,2*%
%TO.N,GND*%
X99049200Y-79044800D03*
%TD*%
D26*
%TO.N,/3.3V*%
X109118400Y-110617000D03*
%TO.N,Net-(U1-ADJ)*%
X98145600Y-115189000D03*
%TD*%
D27*
%TO.N,/12V*%
X101269800Y-88061800D02*
X101828600Y-87503000D01*
X103078600Y-100310000D02*
X101269800Y-98501200D01*
X101269800Y-98501200D02*
X101269800Y-88061800D01*
X103078600Y-103332600D02*
X103078600Y-100310000D01*
X101828600Y-87503000D02*
X104013000Y-87503000D01*
X104013000Y-87503000D02*
X105638600Y-85877400D01*
X105638600Y-85877400D02*
X105638600Y-84099400D01*
X105638600Y-105892600D02*
X103078600Y-103332600D01*
%TO.N,/3.3V*%
X109118400Y-110617000D02*
X106624000Y-110617000D01*
X106624000Y-110617000D02*
X103098600Y-107091600D01*
X103098600Y-107091600D02*
X103098600Y-105892600D01*
D28*
%TO.N,Net-(U1-ADJ)*%
X111277400Y-110718600D02*
X117398800Y-110718600D01*
X118338600Y-109778800D02*
X118338600Y-107721400D01*
X98145600Y-115189000D02*
X99009200Y-116052600D01*
X117398800Y-110718600D02*
X118338600Y-109778800D01*
X109499400Y-112496600D02*
X111277400Y-110718600D01*
X109499400Y-114376200D02*
X109499400Y-112496600D01*
X99009200Y-116052600D02*
X107823000Y-116052600D01*
X107823000Y-116052600D02*
X109499400Y-114376200D01*
%TD*%
%TA.AperFunction,Conductor*%
%TO.N,GND*%
G36*
X125678361Y-69208978D02*
G01*
X125687772Y-69215483D01*
X125772482Y-69280024D01*
X126139235Y-69559455D01*
X126180631Y-69615742D01*
X126188073Y-69656292D01*
X126262458Y-74788853D01*
X126243747Y-74856171D01*
X126210545Y-74891553D01*
X125584101Y-75339013D01*
X125518107Y-75361961D01*
X125512996Y-75362106D01*
X122301000Y-75387200D01*
X122300999Y-75387200D01*
X121386601Y-76301598D01*
X121386600Y-76301600D01*
X121412000Y-114249200D01*
X122152214Y-115108804D01*
X122199400Y-115163600D01*
X125607178Y-115188657D01*
X125674071Y-115208834D01*
X125688646Y-115219974D01*
X126055619Y-115546172D01*
X126070463Y-115559367D01*
X126107491Y-115618618D01*
X126112058Y-115649627D01*
X126211533Y-120747736D01*
X126193160Y-120815147D01*
X126172962Y-120840055D01*
X125740495Y-121250900D01*
X125678334Y-121282802D01*
X125655090Y-121285000D01*
X97773139Y-121285000D01*
X97706100Y-121265315D01*
X97676578Y-121238793D01*
X97004589Y-120404600D01*
X96977864Y-120340046D01*
X96977156Y-120326938D01*
X96976927Y-120100070D01*
X99868500Y-120100070D01*
X99868501Y-120100076D01*
X99874908Y-120159683D01*
X99925202Y-120294528D01*
X99925206Y-120294535D01*
X100011452Y-120409744D01*
X100011455Y-120409747D01*
X100126664Y-120495993D01*
X100126671Y-120495997D01*
X100261517Y-120546291D01*
X100261516Y-120546291D01*
X100268444Y-120547035D01*
X100321127Y-120552700D01*
X102116872Y-120552699D01*
X102176483Y-120546291D01*
X102311331Y-120495996D01*
X102426546Y-120409746D01*
X102512796Y-120294531D01*
X102561810Y-120163116D01*
X102603681Y-120107184D01*
X102669145Y-120082766D01*
X102737418Y-120097617D01*
X102765672Y-120118768D01*
X102887599Y-120240695D01*
X102984384Y-120308464D01*
X103081165Y-120376232D01*
X103081167Y-120376233D01*
X103081170Y-120376235D01*
X103295337Y-120476103D01*
X103523592Y-120537263D01*
X103700034Y-120552700D01*
X103758999Y-120557859D01*
X103759000Y-120557859D01*
X103759001Y-120557859D01*
X103817966Y-120552700D01*
X103994408Y-120537263D01*
X104222663Y-120476103D01*
X104436830Y-120376235D01*
X104630401Y-120240695D01*
X104797495Y-120073601D01*
X104927424Y-119888042D01*
X104982002Y-119844417D01*
X105051500Y-119837223D01*
X105113855Y-119868746D01*
X105130575Y-119888042D01*
X105260500Y-120073595D01*
X105260505Y-120073601D01*
X105427599Y-120240695D01*
X105524384Y-120308464D01*
X105621165Y-120376232D01*
X105621167Y-120376233D01*
X105621170Y-120376235D01*
X105835337Y-120476103D01*
X106063592Y-120537263D01*
X106240034Y-120552700D01*
X106298999Y-120557859D01*
X106299000Y-120557859D01*
X106299001Y-120557859D01*
X106357966Y-120552700D01*
X106534408Y-120537263D01*
X106762663Y-120476103D01*
X106976830Y-120376235D01*
X107170401Y-120240695D01*
X107337495Y-120073601D01*
X107473035Y-119880030D01*
X107572903Y-119665863D01*
X107633925Y-119438123D01*
X114674449Y-119438123D01*
X114674449Y-120161000D01*
X116176449Y-120161000D01*
X117174449Y-120161000D01*
X118676449Y-120161000D01*
X118676448Y-119559912D01*
X118634252Y-119591501D01*
X118632458Y-119592794D01*
X118608662Y-119609318D01*
X118606823Y-119610546D01*
X118574985Y-119631010D01*
X118573100Y-119632175D01*
X118548150Y-119646979D01*
X118546225Y-119648075D01*
X118261834Y-119803365D01*
X118259872Y-119804391D01*
X118233927Y-119817378D01*
X118231929Y-119818334D01*
X118197499Y-119834055D01*
X118195471Y-119834938D01*
X118168706Y-119846024D01*
X118166648Y-119846833D01*
X117863096Y-119960052D01*
X117861012Y-119960787D01*
X117833536Y-119969934D01*
X117831425Y-119970595D01*
X117795111Y-119981261D01*
X117792974Y-119981847D01*
X117764851Y-119989026D01*
X117762695Y-119989536D01*
X117446062Y-120058415D01*
X117443888Y-120058847D01*
X117415329Y-120063998D01*
X117413142Y-120064353D01*
X117375678Y-120069736D01*
X117373485Y-120070012D01*
X117344690Y-120073107D01*
X117342486Y-120073304D01*
X117174449Y-120085322D01*
X117174449Y-120161000D01*
X116176449Y-120161000D01*
X116176449Y-119990654D01*
X116171305Y-119989536D01*
X116169149Y-119989026D01*
X116141026Y-119981847D01*
X116138889Y-119981261D01*
X116102575Y-119970595D01*
X116100464Y-119969934D01*
X116072988Y-119960787D01*
X116070904Y-119960052D01*
X115767352Y-119846833D01*
X115765294Y-119846024D01*
X115738529Y-119834938D01*
X115736501Y-119834055D01*
X115702071Y-119818334D01*
X115700073Y-119817378D01*
X115674128Y-119804391D01*
X115672166Y-119803365D01*
X115387775Y-119648075D01*
X115385850Y-119646979D01*
X115360900Y-119632175D01*
X115359015Y-119631010D01*
X115327177Y-119610546D01*
X115325338Y-119609318D01*
X115301542Y-119592794D01*
X115299748Y-119591501D01*
X115094859Y-119438123D01*
X119674449Y-119438123D01*
X119674449Y-120161000D01*
X121176449Y-120161000D01*
X121176449Y-119583200D01*
X122926541Y-119583200D01*
X122947136Y-119818603D01*
X122947138Y-119818613D01*
X123008294Y-120046855D01*
X123008296Y-120046859D01*
X123008297Y-120046863D01*
X123098682Y-120240693D01*
X123108165Y-120261030D01*
X123108167Y-120261034D01*
X123188830Y-120376232D01*
X123243705Y-120454601D01*
X123410799Y-120621695D01*
X123433131Y-120637332D01*
X123604365Y-120757232D01*
X123604367Y-120757233D01*
X123604370Y-120757235D01*
X123818537Y-120857103D01*
X124046792Y-120918263D01*
X124235118Y-120934739D01*
X124282199Y-120938859D01*
X124282200Y-120938859D01*
X124282201Y-120938859D01*
X124324867Y-120935126D01*
X124517608Y-120918263D01*
X124745863Y-120857103D01*
X124960030Y-120757235D01*
X125153601Y-120621695D01*
X125320695Y-120454601D01*
X125456235Y-120261030D01*
X125556103Y-120046863D01*
X125617263Y-119818608D01*
X125637859Y-119583200D01*
X125617263Y-119347792D01*
X125556103Y-119119537D01*
X125456235Y-118905371D01*
X125407726Y-118836093D01*
X125320696Y-118711800D01*
X125310268Y-118701372D01*
X125198379Y-118589483D01*
X125164896Y-118528163D01*
X125169880Y-118458471D01*
X125211751Y-118402537D01*
X125242729Y-118385622D01*
X125374286Y-118336554D01*
X125374293Y-118336550D01*
X125489387Y-118250390D01*
X125489390Y-118250387D01*
X125575550Y-118135293D01*
X125575554Y-118135286D01*
X125625796Y-118000579D01*
X125625798Y-118000572D01*
X125632199Y-117941044D01*
X125632200Y-117941027D01*
X125632200Y-117293200D01*
X124715886Y-117293200D01*
X124741693Y-117253044D01*
X124782200Y-117115089D01*
X124782200Y-116971311D01*
X124741693Y-116833356D01*
X124715886Y-116793200D01*
X125632200Y-116793200D01*
X125632200Y-116145372D01*
X125632199Y-116145355D01*
X125625798Y-116085827D01*
X125625796Y-116085820D01*
X125575554Y-115951113D01*
X125575550Y-115951106D01*
X125489390Y-115836012D01*
X125489387Y-115836009D01*
X125374293Y-115749849D01*
X125374286Y-115749845D01*
X125239579Y-115699603D01*
X125239572Y-115699601D01*
X125180044Y-115693200D01*
X124532200Y-115693200D01*
X124532200Y-116607698D01*
X124424515Y-116558520D01*
X124317963Y-116543200D01*
X124246437Y-116543200D01*
X124139885Y-116558520D01*
X124032200Y-116607698D01*
X124032200Y-115693200D01*
X123384355Y-115693200D01*
X123324827Y-115699601D01*
X123324820Y-115699603D01*
X123190113Y-115749845D01*
X123190106Y-115749849D01*
X123075012Y-115836009D01*
X123075009Y-115836012D01*
X122988849Y-115951106D01*
X122988845Y-115951113D01*
X122938603Y-116085820D01*
X122938601Y-116085827D01*
X122932200Y-116145355D01*
X122932200Y-116793200D01*
X123848514Y-116793200D01*
X123822707Y-116833356D01*
X123782200Y-116971311D01*
X123782200Y-117115089D01*
X123822707Y-117253044D01*
X123848514Y-117293200D01*
X122932200Y-117293200D01*
X122932200Y-117941044D01*
X122938601Y-118000572D01*
X122938603Y-118000579D01*
X122988845Y-118135286D01*
X122988849Y-118135293D01*
X123075009Y-118250387D01*
X123075012Y-118250390D01*
X123190106Y-118336550D01*
X123190113Y-118336554D01*
X123321670Y-118385621D01*
X123377603Y-118427492D01*
X123402021Y-118492956D01*
X123387170Y-118561229D01*
X123366019Y-118589484D01*
X123243703Y-118711800D01*
X123108165Y-118905369D01*
X123108164Y-118905371D01*
X123008298Y-119119535D01*
X123008294Y-119119544D01*
X122947138Y-119347786D01*
X122947136Y-119347796D01*
X122926541Y-119583199D01*
X122926541Y-119583200D01*
X121176449Y-119583200D01*
X121176449Y-119438123D01*
X119674449Y-119438123D01*
X115094859Y-119438123D01*
X114674449Y-119438123D01*
X107633925Y-119438123D01*
X107634063Y-119437608D01*
X107654659Y-119202200D01*
X107634063Y-118966792D01*
X107572903Y-118738537D01*
X107527814Y-118641844D01*
X109887000Y-118641844D01*
X109893401Y-118701372D01*
X109893403Y-118701379D01*
X109943645Y-118836086D01*
X109943649Y-118836093D01*
X110029809Y-118951187D01*
X110029812Y-118951190D01*
X110144906Y-119037350D01*
X110144913Y-119037354D01*
X110279620Y-119087596D01*
X110279627Y-119087598D01*
X110339155Y-119093999D01*
X110339172Y-119094000D01*
X111637000Y-119094000D01*
X111637000Y-117815802D01*
X111798169Y-117854000D01*
X111931267Y-117854000D01*
X112063461Y-117838549D01*
X112137000Y-117811782D01*
X112137000Y-119094000D01*
X113434828Y-119094000D01*
X113434844Y-119093999D01*
X113494372Y-119087598D01*
X113494379Y-119087596D01*
X113629086Y-119037354D01*
X113629093Y-119037350D01*
X113744187Y-118951190D01*
X113744190Y-118951187D01*
X113830350Y-118836093D01*
X113830354Y-118836086D01*
X113880596Y-118701379D01*
X113880598Y-118701372D01*
X113886999Y-118641844D01*
X113887000Y-118641827D01*
X113887000Y-117344000D01*
X112605483Y-117344000D01*
X112640549Y-117226871D01*
X112648288Y-117094001D01*
X114961390Y-117094001D01*
X114981804Y-117379433D01*
X115042628Y-117659037D01*
X115042630Y-117659043D01*
X115042631Y-117659046D01*
X115142633Y-117927161D01*
X115142635Y-117927166D01*
X115279770Y-118178309D01*
X115279775Y-118178317D01*
X115451254Y-118407387D01*
X115451270Y-118407405D01*
X115653594Y-118609729D01*
X115653612Y-118609745D01*
X115882682Y-118781224D01*
X115882690Y-118781229D01*
X116133833Y-118918364D01*
X116133832Y-118918364D01*
X116133836Y-118918365D01*
X116133839Y-118918367D01*
X116401954Y-119018369D01*
X116401960Y-119018370D01*
X116401962Y-119018371D01*
X116681566Y-119079195D01*
X116681568Y-119079195D01*
X116681572Y-119079196D01*
X116935220Y-119097337D01*
X116966999Y-119099610D01*
X116967000Y-119099610D01*
X116967001Y-119099610D01*
X116995595Y-119097564D01*
X117252428Y-119079196D01*
X117532046Y-119018369D01*
X117800161Y-118918367D01*
X118051315Y-118781226D01*
X118280395Y-118609739D01*
X118450011Y-118440123D01*
X119674449Y-118440123D01*
X121176449Y-118440123D01*
X121176449Y-116938123D01*
X119962010Y-116938123D01*
X119969417Y-117041679D01*
X119969535Y-117043888D01*
X119970570Y-117072861D01*
X119970610Y-117075075D01*
X119970610Y-117112925D01*
X119970570Y-117115139D01*
X119969535Y-117144112D01*
X119969417Y-117146321D01*
X119946304Y-117469486D01*
X119946107Y-117471690D01*
X119943012Y-117500485D01*
X119942736Y-117502678D01*
X119937353Y-117540142D01*
X119936998Y-117542329D01*
X119931847Y-117570888D01*
X119931415Y-117573062D01*
X119862536Y-117889695D01*
X119862026Y-117891851D01*
X119854847Y-117919974D01*
X119854261Y-117922111D01*
X119843595Y-117958425D01*
X119842934Y-117960536D01*
X119833787Y-117988012D01*
X119833052Y-117990096D01*
X119719833Y-118293648D01*
X119719024Y-118295706D01*
X119707938Y-118322471D01*
X119707055Y-118324499D01*
X119691334Y-118358929D01*
X119690378Y-118360927D01*
X119677391Y-118386872D01*
X119676365Y-118388835D01*
X119674449Y-118392343D01*
X119674449Y-118440123D01*
X118450011Y-118440123D01*
X118482739Y-118407395D01*
X118654226Y-118178315D01*
X118791367Y-117927161D01*
X118891369Y-117659046D01*
X118931060Y-117476587D01*
X118952195Y-117379433D01*
X118952195Y-117379432D01*
X118952196Y-117379428D01*
X118972610Y-117094000D01*
X118971256Y-117075075D01*
X118963107Y-116961129D01*
X118952196Y-116808572D01*
X118948358Y-116790930D01*
X118891371Y-116528962D01*
X118891370Y-116528960D01*
X118891369Y-116528954D01*
X118791367Y-116260839D01*
X118708557Y-116109185D01*
X118654229Y-116009690D01*
X118654224Y-116009682D01*
X118482745Y-115780612D01*
X118482729Y-115780594D01*
X118280405Y-115578270D01*
X118280387Y-115578254D01*
X118051317Y-115406775D01*
X118051309Y-115406770D01*
X117800166Y-115269635D01*
X117800167Y-115269635D01*
X117583973Y-115188999D01*
X117532046Y-115169631D01*
X117532043Y-115169630D01*
X117532037Y-115169628D01*
X117252433Y-115108804D01*
X116967001Y-115088390D01*
X116966999Y-115088390D01*
X116681566Y-115108804D01*
X116401962Y-115169628D01*
X116133833Y-115269635D01*
X115882690Y-115406770D01*
X115882682Y-115406775D01*
X115653612Y-115578254D01*
X115653594Y-115578270D01*
X115451270Y-115780594D01*
X115451254Y-115780612D01*
X115279775Y-116009682D01*
X115279770Y-116009690D01*
X115142635Y-116260833D01*
X115042628Y-116528962D01*
X114981804Y-116808566D01*
X114961390Y-117093998D01*
X114961390Y-117094001D01*
X112648288Y-117094001D01*
X112650879Y-117049509D01*
X112620029Y-116874546D01*
X112606853Y-116844000D01*
X113887000Y-116844000D01*
X113887000Y-115546172D01*
X113886999Y-115546155D01*
X113880598Y-115486627D01*
X113880596Y-115486620D01*
X113830354Y-115351913D01*
X113830350Y-115351906D01*
X113744190Y-115236812D01*
X113744187Y-115236809D01*
X113629093Y-115150649D01*
X113629086Y-115150645D01*
X113494379Y-115100403D01*
X113494372Y-115100401D01*
X113434844Y-115094000D01*
X112137000Y-115094000D01*
X112137000Y-116372197D01*
X111975831Y-116334000D01*
X111842733Y-116334000D01*
X111710539Y-116349451D01*
X111637000Y-116376217D01*
X111637000Y-115094000D01*
X110339155Y-115094000D01*
X110279627Y-115100401D01*
X110279620Y-115100403D01*
X110144913Y-115150645D01*
X110144906Y-115150649D01*
X110029812Y-115236809D01*
X110029809Y-115236812D01*
X109943649Y-115351906D01*
X109943645Y-115351913D01*
X109893403Y-115486620D01*
X109893401Y-115486627D01*
X109887000Y-115546155D01*
X109887000Y-116844000D01*
X111168517Y-116844000D01*
X111133451Y-116961129D01*
X111123121Y-117138491D01*
X111153971Y-117313454D01*
X111167147Y-117344000D01*
X109887000Y-117344000D01*
X109887000Y-118641844D01*
X107527814Y-118641844D01*
X107473035Y-118524371D01*
X107467425Y-118516358D01*
X107337494Y-118330797D01*
X107170402Y-118163706D01*
X107170395Y-118163701D01*
X106976834Y-118028167D01*
X106976830Y-118028165D01*
X106976828Y-118028164D01*
X106762663Y-117928297D01*
X106762659Y-117928296D01*
X106762655Y-117928294D01*
X106534413Y-117867138D01*
X106534403Y-117867136D01*
X106299001Y-117846541D01*
X106298999Y-117846541D01*
X106063596Y-117867136D01*
X106063586Y-117867138D01*
X105835344Y-117928294D01*
X105835335Y-117928298D01*
X105621171Y-118028164D01*
X105621169Y-118028165D01*
X105427597Y-118163705D01*
X105260505Y-118330797D01*
X105130575Y-118516358D01*
X105075998Y-118559983D01*
X105006500Y-118567177D01*
X104944145Y-118535654D01*
X104927425Y-118516358D01*
X104797494Y-118330797D01*
X104630402Y-118163706D01*
X104630395Y-118163701D01*
X104436834Y-118028167D01*
X104436830Y-118028165D01*
X104436829Y-118028164D01*
X104222663Y-117928297D01*
X104222659Y-117928296D01*
X104222655Y-117928294D01*
X103994413Y-117867138D01*
X103994403Y-117867136D01*
X103759001Y-117846541D01*
X103758999Y-117846541D01*
X103523596Y-117867136D01*
X103523586Y-117867138D01*
X103295344Y-117928294D01*
X103295335Y-117928298D01*
X103081171Y-118028164D01*
X103081169Y-118028165D01*
X102887600Y-118163703D01*
X102765673Y-118285630D01*
X102704350Y-118319114D01*
X102634658Y-118314130D01*
X102578725Y-118272258D01*
X102561810Y-118241281D01*
X102512797Y-118109871D01*
X102512793Y-118109864D01*
X102426547Y-117994655D01*
X102426544Y-117994652D01*
X102311335Y-117908406D01*
X102311328Y-117908402D01*
X102176482Y-117858108D01*
X102176483Y-117858108D01*
X102116883Y-117851701D01*
X102116881Y-117851700D01*
X102116873Y-117851700D01*
X102116864Y-117851700D01*
X100321129Y-117851700D01*
X100321123Y-117851701D01*
X100261516Y-117858108D01*
X100126671Y-117908402D01*
X100126664Y-117908406D01*
X100011455Y-117994652D01*
X100011452Y-117994655D01*
X99925206Y-118109864D01*
X99925202Y-118109871D01*
X99874908Y-118244717D01*
X99868501Y-118304316D01*
X99868500Y-118304335D01*
X99868500Y-120100070D01*
X96976927Y-120100070D01*
X96974806Y-117994652D01*
X96974209Y-117402002D01*
X98098208Y-117402002D01*
X98099255Y-118440123D01*
X98676449Y-118440123D01*
X98676449Y-117643634D01*
X98644283Y-117638541D01*
X98640454Y-117637811D01*
X98590618Y-117626670D01*
X98586843Y-117625701D01*
X98522840Y-117607104D01*
X98519136Y-117605900D01*
X98481950Y-117592511D01*
X98444377Y-117580304D01*
X98440712Y-117578984D01*
X98378747Y-117554452D01*
X98375170Y-117552904D01*
X98328990Y-117531173D01*
X98325519Y-117529405D01*
X98294159Y-117512165D01*
X98261323Y-117497955D01*
X98257798Y-117496296D01*
X98212333Y-117473130D01*
X98208920Y-117471254D01*
X98151561Y-117437332D01*
X98148270Y-117435244D01*
X98115575Y-117413024D01*
X98098208Y-117402002D01*
X96974209Y-117402002D01*
X96971979Y-115189000D01*
X97240140Y-115189000D01*
X97259926Y-115377256D01*
X97259927Y-115377259D01*
X97318418Y-115557277D01*
X97318421Y-115557284D01*
X97413067Y-115721216D01*
X97516430Y-115836012D01*
X97539729Y-115861888D01*
X97692865Y-115973148D01*
X97692870Y-115973151D01*
X97865792Y-116050142D01*
X97865797Y-116050144D01*
X98050954Y-116089500D01*
X98110147Y-116089500D01*
X98177186Y-116109185D01*
X98197828Y-116125819D01*
X98508397Y-116436388D01*
X98518222Y-116448651D01*
X98518443Y-116448469D01*
X98523411Y-116454474D01*
X98573132Y-116501166D01*
X98574532Y-116502523D01*
X98594723Y-116522715D01*
X98594727Y-116522718D01*
X98594729Y-116522720D01*
X98600211Y-116526973D01*
X98604643Y-116530757D01*
X98638618Y-116562662D01*
X98656176Y-116572314D01*
X98672433Y-116582993D01*
X98688264Y-116595273D01*
X98707937Y-116603786D01*
X98731033Y-116613782D01*
X98736277Y-116616350D01*
X98777108Y-116638797D01*
X98789723Y-116642035D01*
X98796505Y-116643777D01*
X98814919Y-116650081D01*
X98833304Y-116658038D01*
X98879357Y-116665332D01*
X98885026Y-116666506D01*
X98930181Y-116678100D01*
X98950216Y-116678100D01*
X98969613Y-116679626D01*
X98989396Y-116682760D01*
X99035783Y-116678375D01*
X99041622Y-116678100D01*
X107740257Y-116678100D01*
X107755877Y-116679824D01*
X107755904Y-116679539D01*
X107763666Y-116680273D01*
X107763666Y-116680272D01*
X107763667Y-116680273D01*
X107766999Y-116680168D01*
X107831847Y-116678131D01*
X107833794Y-116678100D01*
X107862347Y-116678100D01*
X107862350Y-116678100D01*
X107869228Y-116677230D01*
X107875041Y-116676772D01*
X107921627Y-116675309D01*
X107940869Y-116669717D01*
X107959912Y-116665774D01*
X107979792Y-116663264D01*
X108023122Y-116646107D01*
X108028646Y-116644217D01*
X108032396Y-116643127D01*
X108073390Y-116631218D01*
X108090629Y-116621022D01*
X108108103Y-116612462D01*
X108126727Y-116605088D01*
X108126727Y-116605087D01*
X108126732Y-116605086D01*
X108164449Y-116577682D01*
X108169305Y-116574492D01*
X108209420Y-116550770D01*
X108223589Y-116536599D01*
X108238379Y-116523968D01*
X108254587Y-116512194D01*
X108284299Y-116476276D01*
X108288212Y-116471976D01*
X109883186Y-114877002D01*
X109895448Y-114867180D01*
X109895265Y-114866959D01*
X109901273Y-114861988D01*
X109901277Y-114861986D01*
X109948049Y-114812177D01*
X109949291Y-114810897D01*
X109969520Y-114790670D01*
X109973773Y-114785186D01*
X109977550Y-114780763D01*
X110009462Y-114746782D01*
X110019114Y-114729223D01*
X110029789Y-114712972D01*
X110042074Y-114697136D01*
X110060586Y-114654352D01*
X110063142Y-114649135D01*
X110085597Y-114608292D01*
X110090580Y-114588880D01*
X110096877Y-114570491D01*
X110104838Y-114552095D01*
X110112129Y-114506053D01*
X110113308Y-114500362D01*
X110124900Y-114455219D01*
X110124900Y-114438123D01*
X119674449Y-114438123D01*
X119674449Y-115795657D01*
X119676365Y-115799166D01*
X119677391Y-115801128D01*
X119690378Y-115827073D01*
X119691334Y-115829071D01*
X119707055Y-115863501D01*
X119707938Y-115865529D01*
X119719024Y-115892294D01*
X119719833Y-115894352D01*
X119736905Y-115940123D01*
X121176449Y-115940123D01*
X121176448Y-115698199D01*
X120443173Y-114846655D01*
X120420902Y-114808935D01*
X120295886Y-114472512D01*
X120289691Y-114438123D01*
X119674449Y-114438123D01*
X110124900Y-114438123D01*
X110124900Y-114435183D01*
X110126427Y-114415782D01*
X110129560Y-114396004D01*
X110125175Y-114349615D01*
X110124900Y-114343777D01*
X110124900Y-112807051D01*
X110144585Y-112740012D01*
X110161214Y-112719375D01*
X110538489Y-112342100D01*
X112174449Y-112342100D01*
X112174449Y-113440123D01*
X113676449Y-113440123D01*
X113676449Y-112342100D01*
X114674449Y-112342100D01*
X114674449Y-113440123D01*
X116176449Y-113440123D01*
X117174449Y-113440123D01*
X118676449Y-113440123D01*
X118676449Y-111938123D01*
X119674449Y-111938123D01*
X119674449Y-113440123D01*
X120287458Y-113440123D01*
X120286453Y-111938123D01*
X119674449Y-111938123D01*
X118676449Y-111938123D01*
X118477854Y-111938123D01*
X118455875Y-111956303D01*
X118426244Y-111982430D01*
X118423239Y-111984916D01*
X118370565Y-112025773D01*
X118367413Y-112028063D01*
X118325195Y-112056753D01*
X118321904Y-112058842D01*
X118291130Y-112077039D01*
X118262212Y-112098052D01*
X118258990Y-112100242D01*
X118215902Y-112127589D01*
X118212547Y-112129573D01*
X118154141Y-112161684D01*
X118150668Y-112163453D01*
X118114845Y-112180309D01*
X118079652Y-112198244D01*
X118076123Y-112199905D01*
X118014954Y-112226374D01*
X118011332Y-112227808D01*
X117963315Y-112245095D01*
X117959609Y-112246299D01*
X117925266Y-112256275D01*
X117892006Y-112269445D01*
X117888340Y-112270765D01*
X117839796Y-112286538D01*
X117836053Y-112287625D01*
X117771490Y-112304201D01*
X117767685Y-112305052D01*
X117728823Y-112312462D01*
X117690340Y-112321069D01*
X117686511Y-112321799D01*
X117620672Y-112332231D01*
X117616803Y-112332720D01*
X117565964Y-112337526D01*
X117562073Y-112337771D01*
X117514644Y-112339259D01*
X117484232Y-112341175D01*
X117482282Y-112341267D01*
X117456761Y-112342069D01*
X117454813Y-112342100D01*
X117424301Y-112342100D01*
X117337503Y-112344827D01*
X117333606Y-112344827D01*
X117282582Y-112343223D01*
X117278693Y-112342978D01*
X117269411Y-112342100D01*
X117174449Y-112342100D01*
X117174449Y-113440123D01*
X116176449Y-113440123D01*
X116176449Y-112342100D01*
X114674449Y-112342100D01*
X113676449Y-112342100D01*
X112174449Y-112342100D01*
X110538489Y-112342100D01*
X111500170Y-111380418D01*
X111561494Y-111346934D01*
X111587852Y-111344100D01*
X117316057Y-111344100D01*
X117331677Y-111345824D01*
X117331704Y-111345539D01*
X117339466Y-111346273D01*
X117339466Y-111346272D01*
X117339467Y-111346273D01*
X117342799Y-111346168D01*
X117407647Y-111344131D01*
X117409594Y-111344100D01*
X117438147Y-111344100D01*
X117438150Y-111344100D01*
X117445028Y-111343230D01*
X117450841Y-111342772D01*
X117497427Y-111341309D01*
X117516669Y-111335717D01*
X117535712Y-111331774D01*
X117555592Y-111329264D01*
X117598922Y-111312107D01*
X117604446Y-111310217D01*
X117608196Y-111309127D01*
X117649190Y-111297218D01*
X117666429Y-111287022D01*
X117683903Y-111278462D01*
X117702527Y-111271088D01*
X117702527Y-111271087D01*
X117702532Y-111271086D01*
X117740249Y-111243682D01*
X117745105Y-111240492D01*
X117785220Y-111216770D01*
X117799389Y-111202599D01*
X117814179Y-111189968D01*
X117830387Y-111178194D01*
X117860099Y-111142276D01*
X117864012Y-111137976D01*
X118061865Y-110940123D01*
X119674449Y-110940123D01*
X120285785Y-110940123D01*
X120284779Y-109438123D01*
X119962099Y-109438123D01*
X119962099Y-109702235D01*
X119965466Y-109737842D01*
X119965711Y-109741731D01*
X119967314Y-109792745D01*
X119967314Y-109796640D01*
X119965222Y-109863254D01*
X119964977Y-109867144D01*
X119961255Y-109906513D01*
X119958772Y-109945984D01*
X119958405Y-109949864D01*
X119950051Y-110015979D01*
X119949441Y-110019827D01*
X119939878Y-110069953D01*
X119939028Y-110073756D01*
X119930135Y-110108381D01*
X119924543Y-110143708D01*
X119923812Y-110147538D01*
X119912676Y-110197360D01*
X119911707Y-110201134D01*
X119893109Y-110265146D01*
X119891905Y-110268854D01*
X119878498Y-110306083D01*
X119866317Y-110343585D01*
X119864997Y-110347252D01*
X119840462Y-110409229D01*
X119838915Y-110412807D01*
X119817173Y-110459013D01*
X119815402Y-110462488D01*
X119798163Y-110493843D01*
X119783961Y-110526664D01*
X119782302Y-110530189D01*
X119759128Y-110575673D01*
X119757250Y-110579089D01*
X119723317Y-110636463D01*
X119721228Y-110639754D01*
X119699042Y-110672394D01*
X119677858Y-110705781D01*
X119675666Y-110709006D01*
X119674449Y-110710681D01*
X119674449Y-110940123D01*
X118061865Y-110940123D01*
X118722387Y-110279602D01*
X118734642Y-110269786D01*
X118734459Y-110269564D01*
X118740468Y-110264591D01*
X118740477Y-110264586D01*
X118787207Y-110214822D01*
X118788446Y-110213543D01*
X118808720Y-110193271D01*
X118812979Y-110187778D01*
X118816752Y-110183361D01*
X118848662Y-110149382D01*
X118858315Y-110131820D01*
X118868989Y-110115570D01*
X118881273Y-110099736D01*
X118899780Y-110056967D01*
X118902349Y-110051724D01*
X118910920Y-110036134D01*
X118924797Y-110010892D01*
X118929777Y-109991491D01*
X118936078Y-109973088D01*
X118944038Y-109954696D01*
X118951330Y-109908649D01*
X118952511Y-109902952D01*
X118964100Y-109857819D01*
X118964100Y-109837782D01*
X118965627Y-109818382D01*
X118968760Y-109798603D01*
X118968760Y-109798600D01*
X118967622Y-109786568D01*
X118964372Y-109752194D01*
X118964099Y-109746399D01*
X118964099Y-108830892D01*
X118983784Y-108763854D01*
X119022822Y-108725466D01*
X119023689Y-108724929D01*
X119090562Y-108683524D01*
X119254981Y-108533636D01*
X119389058Y-108356089D01*
X119488229Y-108156928D01*
X119549115Y-107942936D01*
X119569643Y-107721400D01*
X119567910Y-107702703D01*
X119549115Y-107499864D01*
X119549114Y-107499862D01*
X119547850Y-107495421D01*
X119488229Y-107285872D01*
X119488224Y-107285861D01*
X119389061Y-107086716D01*
X119389056Y-107086708D01*
X119254979Y-106909161D01*
X119090562Y-106759276D01*
X119090560Y-106759274D01*
X118901404Y-106642154D01*
X118901398Y-106642152D01*
X118693940Y-106561782D01*
X118475243Y-106520900D01*
X118252757Y-106520900D01*
X118034060Y-106561782D01*
X117902864Y-106612607D01*
X117826601Y-106642152D01*
X117826595Y-106642154D01*
X117637439Y-106759274D01*
X117637437Y-106759276D01*
X117473020Y-106909161D01*
X117338943Y-107086708D01*
X117338938Y-107086716D01*
X117239775Y-107285861D01*
X117239769Y-107285876D01*
X117178885Y-107499862D01*
X117178884Y-107499864D01*
X117158357Y-107721399D01*
X117158357Y-107721400D01*
X117178884Y-107942935D01*
X117178885Y-107942937D01*
X117239769Y-108156923D01*
X117239775Y-108156938D01*
X117338938Y-108356083D01*
X117338943Y-108356091D01*
X117473020Y-108533638D01*
X117558707Y-108611751D01*
X117637438Y-108683524D01*
X117637440Y-108683525D01*
X117654377Y-108694012D01*
X117701013Y-108746040D01*
X117713100Y-108799439D01*
X117713099Y-109468347D01*
X117693414Y-109535387D01*
X117676780Y-109556028D01*
X117176028Y-110056781D01*
X117114705Y-110090266D01*
X117088347Y-110093100D01*
X111360143Y-110093100D01*
X111344522Y-110091375D01*
X111344495Y-110091661D01*
X111336733Y-110090926D01*
X111268540Y-110093069D01*
X111266593Y-110093100D01*
X111238049Y-110093100D01*
X111231178Y-110093967D01*
X111225359Y-110094425D01*
X111178774Y-110095889D01*
X111178768Y-110095890D01*
X111159526Y-110101480D01*
X111140487Y-110105423D01*
X111120617Y-110107934D01*
X111120603Y-110107937D01*
X111077283Y-110125088D01*
X111071758Y-110126980D01*
X111027013Y-110139980D01*
X111027010Y-110139981D01*
X111009766Y-110150179D01*
X110992305Y-110158733D01*
X110973674Y-110166110D01*
X110973662Y-110166117D01*
X110935970Y-110193502D01*
X110931087Y-110196709D01*
X110890980Y-110220429D01*
X110876814Y-110234595D01*
X110862024Y-110247227D01*
X110845814Y-110259004D01*
X110845811Y-110259007D01*
X110816110Y-110294909D01*
X110812177Y-110299231D01*
X110216198Y-110895210D01*
X110154875Y-110928695D01*
X110085183Y-110923711D01*
X110029250Y-110881839D01*
X110004833Y-110816375D01*
X110005195Y-110794583D01*
X110023860Y-110617000D01*
X110004074Y-110428744D01*
X109945579Y-110248716D01*
X109850933Y-110084784D01*
X109724271Y-109944112D01*
X109693582Y-109921815D01*
X109571134Y-109832851D01*
X109571129Y-109832848D01*
X109398207Y-109755857D01*
X109398202Y-109755855D01*
X109252401Y-109724865D01*
X109213046Y-109716500D01*
X109023754Y-109716500D01*
X108991297Y-109723398D01*
X108838597Y-109755855D01*
X108838592Y-109755857D01*
X108665670Y-109832848D01*
X108665665Y-109832851D01*
X108548719Y-109917818D01*
X108482913Y-109941298D01*
X108475834Y-109941500D01*
X106955164Y-109941500D01*
X106888125Y-109921815D01*
X106867483Y-109905181D01*
X105402424Y-108440123D01*
X107174449Y-108440123D01*
X108662737Y-108440123D01*
X108592282Y-108192499D01*
X108591562Y-108189727D01*
X108582973Y-108153211D01*
X108582382Y-108150409D01*
X108573380Y-108102257D01*
X108572918Y-108099428D01*
X108567733Y-108062257D01*
X108567403Y-108059412D01*
X108542354Y-107789094D01*
X108542155Y-107786235D01*
X108540423Y-107748756D01*
X108540357Y-107745893D01*
X108540357Y-107721400D01*
X109538357Y-107721400D01*
X109558884Y-107942935D01*
X109558885Y-107942937D01*
X109619769Y-108156923D01*
X109619775Y-108156938D01*
X109718938Y-108356083D01*
X109718943Y-108356091D01*
X109853020Y-108533638D01*
X110017437Y-108683523D01*
X110017439Y-108683525D01*
X110206595Y-108800645D01*
X110206596Y-108800645D01*
X110206599Y-108800647D01*
X110414060Y-108881018D01*
X110632757Y-108921900D01*
X110632759Y-108921900D01*
X110855241Y-108921900D01*
X110855243Y-108921900D01*
X111073940Y-108881018D01*
X111281401Y-108800647D01*
X111470562Y-108683524D01*
X111634981Y-108533636D01*
X111769058Y-108356089D01*
X111868229Y-108156928D01*
X111929115Y-107942936D01*
X111949643Y-107721400D01*
X111947910Y-107702703D01*
X111929115Y-107499864D01*
X111929114Y-107499862D01*
X111927850Y-107495421D01*
X111868229Y-107285872D01*
X111868224Y-107285861D01*
X111769061Y-107086716D01*
X111769056Y-107086708D01*
X111656850Y-106938123D01*
X112803781Y-106938123D01*
X112807703Y-106948249D01*
X112808674Y-106950939D01*
X112820586Y-106986480D01*
X112821433Y-106989215D01*
X112895718Y-107250301D01*
X112896438Y-107253073D01*
X112905027Y-107289589D01*
X112905618Y-107292391D01*
X112914620Y-107340543D01*
X112915082Y-107343372D01*
X112920267Y-107380543D01*
X112920597Y-107383388D01*
X112945646Y-107653706D01*
X112945845Y-107656565D01*
X112947577Y-107694044D01*
X112947643Y-107696907D01*
X112947643Y-107745893D01*
X112947577Y-107748756D01*
X112945845Y-107786235D01*
X112945646Y-107789094D01*
X112920597Y-108059412D01*
X112920267Y-108062257D01*
X112915082Y-108099428D01*
X112914620Y-108102257D01*
X112905618Y-108150409D01*
X112905027Y-108153211D01*
X112896438Y-108189727D01*
X112895718Y-108192499D01*
X112825263Y-108440123D01*
X113676449Y-108440123D01*
X113676449Y-106938123D01*
X114674449Y-106938123D01*
X114674449Y-108440123D01*
X116176449Y-108440123D01*
X116176449Y-107941201D01*
X116162354Y-107789094D01*
X116162155Y-107786235D01*
X116160423Y-107748756D01*
X116160357Y-107745893D01*
X116160357Y-107696907D01*
X116160423Y-107694044D01*
X116162155Y-107656565D01*
X116162354Y-107653706D01*
X116176449Y-107501597D01*
X116176449Y-106938123D01*
X114674449Y-106938123D01*
X113676449Y-106938123D01*
X112803781Y-106938123D01*
X111656850Y-106938123D01*
X111634979Y-106909161D01*
X111470562Y-106759276D01*
X111470560Y-106759274D01*
X111281404Y-106642154D01*
X111281398Y-106642152D01*
X111073940Y-106561782D01*
X110855243Y-106520900D01*
X110632757Y-106520900D01*
X110414060Y-106561782D01*
X110282864Y-106612607D01*
X110206601Y-106642152D01*
X110206595Y-106642154D01*
X110017439Y-106759274D01*
X110017437Y-106759276D01*
X109853020Y-106909161D01*
X109718943Y-107086708D01*
X109718938Y-107086716D01*
X109619775Y-107285861D01*
X109619769Y-107285876D01*
X109558885Y-107499862D01*
X109558884Y-107499864D01*
X109538357Y-107721399D01*
X109538357Y-107721400D01*
X108540357Y-107721400D01*
X108540357Y-107696907D01*
X108540423Y-107694044D01*
X108542155Y-107656565D01*
X108542354Y-107653706D01*
X108567403Y-107383388D01*
X108567733Y-107380543D01*
X108572918Y-107343372D01*
X108573380Y-107340543D01*
X108582382Y-107292391D01*
X108582973Y-107289589D01*
X108591562Y-107253073D01*
X108592282Y-107250301D01*
X108666567Y-106989215D01*
X108667414Y-106986480D01*
X108676448Y-106959523D01*
X108676448Y-106938123D01*
X107877254Y-106938123D01*
X107825994Y-107054985D01*
X107824915Y-107057312D01*
X107810170Y-107087472D01*
X107808998Y-107089748D01*
X107788139Y-107128293D01*
X107786872Y-107130523D01*
X107769689Y-107159359D01*
X107768332Y-107161532D01*
X107612654Y-107399815D01*
X107611207Y-107401933D01*
X107591693Y-107429263D01*
X107590162Y-107431316D01*
X107563241Y-107465903D01*
X107561625Y-107467893D01*
X107539936Y-107493500D01*
X107538240Y-107495421D01*
X107345468Y-107704826D01*
X107343693Y-107706677D01*
X107319945Y-107730424D01*
X107318094Y-107732199D01*
X107285848Y-107761881D01*
X107283928Y-107763577D01*
X107258322Y-107785263D01*
X107256334Y-107786877D01*
X107174449Y-107850610D01*
X107174449Y-108440123D01*
X105402424Y-108440123D01*
X104116992Y-107154691D01*
X104083507Y-107093368D01*
X104088491Y-107023676D01*
X104113440Y-106983031D01*
X104249151Y-106835610D01*
X104264790Y-106811671D01*
X104317936Y-106766314D01*
X104387167Y-106756890D01*
X104450504Y-106786391D01*
X104472405Y-106811666D01*
X104488049Y-106835610D01*
X104651137Y-107012771D01*
X104768720Y-107104289D01*
X104833476Y-107154691D01*
X104841161Y-107160672D01*
X104908938Y-107197351D01*
X105028095Y-107261836D01*
X105052936Y-107275279D01*
X105166114Y-107314133D01*
X105280683Y-107353465D01*
X105280685Y-107353465D01*
X105280687Y-107353466D01*
X105518201Y-107393100D01*
X105518202Y-107393100D01*
X105758998Y-107393100D01*
X105758999Y-107393100D01*
X105996513Y-107353466D01*
X106224264Y-107275279D01*
X106436039Y-107160672D01*
X106626063Y-107012771D01*
X106789151Y-106835610D01*
X106920855Y-106634022D01*
X107017583Y-106413505D01*
X107076695Y-106180076D01*
X107091600Y-106000200D01*
X107091600Y-105785000D01*
X107076695Y-105605124D01*
X107017583Y-105371695D01*
X106920855Y-105151178D01*
X106789151Y-104949590D01*
X106626063Y-104772429D01*
X106474775Y-104654677D01*
X106436041Y-104624529D01*
X106224265Y-104509921D01*
X106224256Y-104509918D01*
X106015126Y-104438123D01*
X107647109Y-104438123D01*
X107768332Y-104623668D01*
X107769689Y-104625841D01*
X107786872Y-104654677D01*
X107788139Y-104656907D01*
X107808998Y-104695452D01*
X107810170Y-104697728D01*
X107824915Y-104727888D01*
X107825994Y-104730215D01*
X107940326Y-104990866D01*
X107941307Y-104993234D01*
X107953505Y-105024497D01*
X107954386Y-105026901D01*
X107968618Y-105068353D01*
X107969401Y-105070795D01*
X107978983Y-105102982D01*
X107979664Y-105105453D01*
X108049537Y-105381378D01*
X108050115Y-105383874D01*
X108057006Y-105416738D01*
X108057481Y-105419260D01*
X108064692Y-105462491D01*
X108065062Y-105465025D01*
X108069212Y-105498328D01*
X108069477Y-105500876D01*
X108087095Y-105713498D01*
X108087188Y-105714776D01*
X108088227Y-105731514D01*
X108088293Y-105732793D01*
X108089199Y-105754684D01*
X108089239Y-105755965D01*
X108089587Y-105772757D01*
X108089600Y-105774039D01*
X108089600Y-105940123D01*
X108676449Y-105940123D01*
X112174449Y-105940123D01*
X113676449Y-105940123D01*
X113676449Y-104438123D01*
X114674449Y-104438123D01*
X114674449Y-105940123D01*
X116176449Y-105940123D01*
X119674449Y-105940123D01*
X120282438Y-105940123D01*
X120281433Y-104438123D01*
X120093494Y-104438123D01*
X120074910Y-104465251D01*
X120073237Y-104467576D01*
X119909643Y-104684210D01*
X119907865Y-104686455D01*
X119883897Y-104715318D01*
X119882017Y-104717479D01*
X119849016Y-104753680D01*
X119847037Y-104755752D01*
X119820503Y-104782286D01*
X119818432Y-104784264D01*
X119674449Y-104915521D01*
X119674449Y-105940123D01*
X116176449Y-105940123D01*
X116176449Y-104438123D01*
X114674449Y-104438123D01*
X113676449Y-104438123D01*
X112472887Y-104438123D01*
X112454473Y-104465002D01*
X112452800Y-104467327D01*
X112290158Y-104682688D01*
X112250287Y-104716980D01*
X112174449Y-104758078D01*
X112174449Y-105940123D01*
X108676449Y-105940123D01*
X108676449Y-104438123D01*
X107647109Y-104438123D01*
X106015126Y-104438123D01*
X105996516Y-104431734D01*
X105797400Y-104398508D01*
X105758999Y-104392100D01*
X105518201Y-104392100D01*
X105484235Y-104397767D01*
X105280687Y-104431733D01*
X105243975Y-104444336D01*
X105174176Y-104447483D01*
X105116035Y-104414734D01*
X104959181Y-104257880D01*
X109963672Y-104257880D01*
X110079821Y-104329797D01*
X110079822Y-104329798D01*
X110287195Y-104410134D01*
X110505807Y-104451000D01*
X110728193Y-104451000D01*
X110946809Y-104410133D01*
X111154168Y-104329801D01*
X111154181Y-104329795D01*
X111270326Y-104257879D01*
X110617001Y-103604553D01*
X110617000Y-103604553D01*
X109963672Y-104257879D01*
X109963672Y-104257880D01*
X104959181Y-104257880D01*
X103790419Y-103089117D01*
X103756934Y-103027794D01*
X103754100Y-103001436D01*
X103754100Y-102639414D01*
X104752099Y-102639414D01*
X105506785Y-103394100D01*
X105780912Y-103394100D01*
X105783474Y-103394153D01*
X105817015Y-103395540D01*
X105819574Y-103395699D01*
X105863252Y-103399318D01*
X105865800Y-103399583D01*
X105899111Y-103403735D01*
X105901648Y-103404104D01*
X106117500Y-103440123D01*
X106176449Y-103440123D01*
X106176448Y-102610449D01*
X107174449Y-102610449D01*
X107174449Y-103440123D01*
X108427109Y-103440123D01*
X108415857Y-103318696D01*
X108415659Y-103315840D01*
X108413925Y-103278358D01*
X108413859Y-103275494D01*
X108413859Y-103251000D01*
X109411859Y-103251000D01*
X109432378Y-103472439D01*
X109493240Y-103686350D01*
X109592369Y-103885428D01*
X109608137Y-103906308D01*
X109608138Y-103906308D01*
X110234145Y-103280302D01*
X110263372Y-103280302D01*
X110292047Y-103393538D01*
X110355936Y-103491327D01*
X110448115Y-103563072D01*
X110558595Y-103601000D01*
X110646005Y-103601000D01*
X110732216Y-103586614D01*
X110834947Y-103531019D01*
X110914060Y-103445079D01*
X110960982Y-103338108D01*
X110968200Y-103250999D01*
X110970553Y-103250999D01*
X111625860Y-103906308D01*
X111641631Y-103885425D01*
X111641633Y-103885422D01*
X111740759Y-103686350D01*
X111801621Y-103472439D01*
X111822141Y-103251000D01*
X111822141Y-103250999D01*
X111801621Y-103029560D01*
X111740759Y-102815649D01*
X111641635Y-102616580D01*
X111641630Y-102616572D01*
X111625860Y-102595690D01*
X110970553Y-103250998D01*
X110970553Y-103250999D01*
X110968200Y-103250999D01*
X110970628Y-103221698D01*
X110941953Y-103108462D01*
X110878064Y-103010673D01*
X110785885Y-102938928D01*
X110675405Y-102901000D01*
X110587995Y-102901000D01*
X110501784Y-102915386D01*
X110399053Y-102970981D01*
X110319940Y-103056921D01*
X110273018Y-103163892D01*
X110263372Y-103280302D01*
X110234145Y-103280302D01*
X110263447Y-103251000D01*
X110263447Y-103250998D01*
X109608138Y-102595690D01*
X109608137Y-102595691D01*
X109592368Y-102616574D01*
X109493240Y-102815649D01*
X109432378Y-103029560D01*
X109411859Y-103250999D01*
X109411859Y-103251000D01*
X108413859Y-103251000D01*
X108413859Y-103226506D01*
X108413925Y-103223642D01*
X108415659Y-103186160D01*
X108415857Y-103183303D01*
X108440897Y-102913079D01*
X108441227Y-102910233D01*
X108446412Y-102873063D01*
X108446874Y-102870234D01*
X108455876Y-102822083D01*
X108456467Y-102819283D01*
X108465055Y-102782770D01*
X108465775Y-102779998D01*
X108498608Y-102664599D01*
X107580791Y-102664600D01*
X107569235Y-102664447D01*
X107554352Y-102664054D01*
X107542721Y-102663591D01*
X107464430Y-102659432D01*
X107462299Y-102659282D01*
X107434442Y-102656837D01*
X107432320Y-102656614D01*
X107396025Y-102652166D01*
X107393903Y-102651868D01*
X107366191Y-102647496D01*
X107364082Y-102647125D01*
X107174449Y-102610449D01*
X106176448Y-102610449D01*
X106176448Y-102244119D01*
X109963671Y-102244119D01*
X110617000Y-102897446D01*
X110617001Y-102897446D01*
X111270327Y-102244119D01*
X111154178Y-102172202D01*
X111154177Y-102172201D01*
X110946804Y-102091865D01*
X110728193Y-102051000D01*
X110505807Y-102051000D01*
X110287195Y-102091865D01*
X110079824Y-102172200D01*
X110079823Y-102172201D01*
X109963671Y-102244119D01*
X106176448Y-102244119D01*
X106176448Y-102126280D01*
X106045503Y-102015878D01*
X106043527Y-102014138D01*
X106018134Y-101990815D01*
X106016234Y-101988994D01*
X105984406Y-101957166D01*
X105982585Y-101955266D01*
X105966839Y-101938123D01*
X112379888Y-101938123D01*
X112452809Y-102034685D01*
X112454482Y-102037010D01*
X112475682Y-102067959D01*
X112477245Y-102070357D01*
X112503035Y-102112006D01*
X112504487Y-102114477D01*
X112522750Y-102147263D01*
X112524086Y-102149798D01*
X112645053Y-102392733D01*
X112646271Y-102395327D01*
X112661426Y-102429653D01*
X112662522Y-102432299D01*
X112680219Y-102477978D01*
X112681192Y-102480673D01*
X112693115Y-102516249D01*
X112693963Y-102518985D01*
X112768225Y-102779998D01*
X112768945Y-102782770D01*
X112777533Y-102819283D01*
X112778124Y-102822083D01*
X112787126Y-102870234D01*
X112787588Y-102873063D01*
X112792773Y-102910233D01*
X112793103Y-102913079D01*
X112818143Y-103183303D01*
X112818341Y-103186160D01*
X112820075Y-103223642D01*
X112820141Y-103226506D01*
X112820141Y-103275494D01*
X112820075Y-103278358D01*
X112818341Y-103315840D01*
X112818143Y-103318696D01*
X112806891Y-103440123D01*
X113676449Y-103440123D01*
X113676449Y-101938123D01*
X114674449Y-101938123D01*
X114674449Y-103440123D01*
X116046606Y-103440123D01*
X116035354Y-103318694D01*
X116035155Y-103315835D01*
X116033423Y-103278356D01*
X116033357Y-103275493D01*
X116033357Y-103251000D01*
X117031357Y-103251000D01*
X117051884Y-103472535D01*
X117051885Y-103472537D01*
X117112769Y-103686523D01*
X117112775Y-103686538D01*
X117211938Y-103885683D01*
X117211943Y-103885691D01*
X117346020Y-104063238D01*
X117510437Y-104213123D01*
X117510439Y-104213125D01*
X117699595Y-104330245D01*
X117699596Y-104330245D01*
X117699599Y-104330247D01*
X117907060Y-104410618D01*
X118125757Y-104451500D01*
X118125759Y-104451500D01*
X118348241Y-104451500D01*
X118348243Y-104451500D01*
X118566940Y-104410618D01*
X118774401Y-104330247D01*
X118963562Y-104213124D01*
X119127981Y-104063236D01*
X119262058Y-103885689D01*
X119361229Y-103686528D01*
X119422115Y-103472536D01*
X119442643Y-103251000D01*
X119440373Y-103226507D01*
X119422115Y-103029464D01*
X119422114Y-103029462D01*
X119421639Y-103027794D01*
X119361229Y-102815472D01*
X119361224Y-102815461D01*
X119262061Y-102616316D01*
X119262056Y-102616308D01*
X119127979Y-102438761D01*
X118963562Y-102288876D01*
X118963560Y-102288874D01*
X118774404Y-102171754D01*
X118774398Y-102171752D01*
X118566940Y-102091382D01*
X118348243Y-102050500D01*
X118125757Y-102050500D01*
X117907060Y-102091382D01*
X117816978Y-102126280D01*
X117699601Y-102171752D01*
X117699595Y-102171754D01*
X117510439Y-102288874D01*
X117510437Y-102288876D01*
X117346020Y-102438761D01*
X117211943Y-102616308D01*
X117211938Y-102616316D01*
X117112775Y-102815461D01*
X117112769Y-102815476D01*
X117051885Y-103029462D01*
X117051884Y-103029464D01*
X117031357Y-103250999D01*
X117031357Y-103251000D01*
X116033357Y-103251000D01*
X116033357Y-103226507D01*
X116033423Y-103223644D01*
X116035155Y-103186165D01*
X116035354Y-103183306D01*
X116060403Y-102912988D01*
X116060733Y-102910143D01*
X116065918Y-102872972D01*
X116066380Y-102870143D01*
X116075382Y-102821991D01*
X116075973Y-102819189D01*
X116084562Y-102782673D01*
X116085282Y-102779901D01*
X116159567Y-102518815D01*
X116160414Y-102516080D01*
X116172325Y-102480540D01*
X116173295Y-102477852D01*
X116176448Y-102469709D01*
X116176449Y-101938123D01*
X114674449Y-101938123D01*
X113676449Y-101938123D01*
X112379888Y-101938123D01*
X105966839Y-101938123D01*
X104752100Y-101938123D01*
X104752099Y-102639414D01*
X103754100Y-102639414D01*
X103754100Y-100332272D01*
X103754213Y-100328527D01*
X103757819Y-100268915D01*
X103753321Y-100244370D01*
X103747051Y-100210158D01*
X103746489Y-100206463D01*
X103739288Y-100147157D01*
X103739288Y-100147155D01*
X103735963Y-100138389D01*
X103729938Y-100116776D01*
X103728250Y-100107561D01*
X103703726Y-100053072D01*
X103702299Y-100049624D01*
X103681117Y-99993772D01*
X103675797Y-99986065D01*
X103664766Y-99966506D01*
X103660925Y-99957972D01*
X103660925Y-99957971D01*
X103624083Y-99910946D01*
X103621863Y-99907929D01*
X103587933Y-99858772D01*
X103543233Y-99819171D01*
X103540521Y-99816619D01*
X103162025Y-99438123D01*
X104674449Y-99438123D01*
X104674449Y-99789433D01*
X104690597Y-99841257D01*
X104691604Y-99844868D01*
X104695170Y-99859344D01*
X104699605Y-99873569D01*
X104700611Y-99877177D01*
X104715949Y-99939391D01*
X104716736Y-99943056D01*
X104725586Y-99991349D01*
X104726150Y-99995054D01*
X104733804Y-100058100D01*
X104745245Y-100120521D01*
X104745809Y-100124226D01*
X104751724Y-100172937D01*
X104752063Y-100176666D01*
X104755933Y-100240624D01*
X104756046Y-100244370D01*
X104756046Y-100293450D01*
X104755933Y-100297195D01*
X104752100Y-100360554D01*
X104752100Y-100940123D01*
X105393970Y-100940123D01*
X105387659Y-100917835D01*
X105386996Y-100915287D01*
X105379022Y-100881756D01*
X105378468Y-100879185D01*
X105326278Y-100609336D01*
X105325908Y-100607229D01*
X105321540Y-100579552D01*
X105321242Y-100577433D01*
X105316790Y-100541129D01*
X105316566Y-100539002D01*
X105314117Y-100511096D01*
X105313967Y-100508963D01*
X105309810Y-100430661D01*
X105309347Y-100419049D01*
X105308954Y-100404169D01*
X105308801Y-100392610D01*
X105308801Y-99466054D01*
X105314357Y-99438123D01*
X104674449Y-99438123D01*
X103162025Y-99438123D01*
X102890502Y-99166600D01*
X106306800Y-99166600D01*
X107123114Y-99166600D01*
X107097307Y-99206756D01*
X107056800Y-99344711D01*
X107056800Y-99488489D01*
X107097307Y-99626444D01*
X107123114Y-99666600D01*
X106306801Y-99666600D01*
X106306801Y-100385188D01*
X106309594Y-100437791D01*
X106354037Y-100667587D01*
X106436679Y-100886575D01*
X106555139Y-101088441D01*
X106555144Y-101088448D01*
X106706011Y-101267386D01*
X106706013Y-101267388D01*
X106884951Y-101418255D01*
X106884958Y-101418260D01*
X107086824Y-101536720D01*
X107305812Y-101619362D01*
X107535609Y-101663805D01*
X107588182Y-101666598D01*
X107588221Y-101666599D01*
X108306799Y-101666599D01*
X108306800Y-101666598D01*
X108306800Y-99916600D01*
X108806800Y-99916600D01*
X108806800Y-101666599D01*
X109525376Y-101666599D01*
X109525388Y-101666598D01*
X109577991Y-101663805D01*
X109807787Y-101619362D01*
X110026775Y-101536720D01*
X110228641Y-101418260D01*
X110228648Y-101418255D01*
X110407586Y-101267388D01*
X110407588Y-101267386D01*
X110558455Y-101088448D01*
X110558460Y-101088441D01*
X110676920Y-100886575D01*
X110759562Y-100667587D01*
X110804005Y-100437791D01*
X110804005Y-100437790D01*
X110806798Y-100385217D01*
X110806800Y-100385178D01*
X110806800Y-99666600D01*
X109990486Y-99666600D01*
X110016293Y-99626444D01*
X110056800Y-99488489D01*
X110056800Y-99438123D01*
X112174449Y-99438123D01*
X112174449Y-100940123D01*
X113676449Y-100940123D01*
X113676449Y-99438123D01*
X114674449Y-99438123D01*
X114674449Y-100940123D01*
X116176449Y-100940123D01*
X116176449Y-99438123D01*
X117174449Y-99438123D01*
X117174449Y-100940123D01*
X118676449Y-100940123D01*
X118676449Y-99438123D01*
X119674449Y-99438123D01*
X119674449Y-100940123D01*
X120279091Y-100940123D01*
X120278086Y-99438123D01*
X119674449Y-99438123D01*
X118676449Y-99438123D01*
X117174449Y-99438123D01*
X116176449Y-99438123D01*
X114674449Y-99438123D01*
X113676449Y-99438123D01*
X112174449Y-99438123D01*
X110056800Y-99438123D01*
X110056800Y-99344711D01*
X110016293Y-99206756D01*
X109990486Y-99166600D01*
X110806799Y-99166600D01*
X110806799Y-98448023D01*
X110806798Y-98448011D01*
X110806379Y-98440123D01*
X112174449Y-98440123D01*
X113676449Y-98440123D01*
X113676448Y-97924211D01*
X113676036Y-97924323D01*
X113611551Y-97939562D01*
X113607755Y-97940335D01*
X113557731Y-97948899D01*
X113553893Y-97949434D01*
X113447219Y-97960900D01*
X113445567Y-97961056D01*
X113423870Y-97962802D01*
X113422209Y-97962913D01*
X113393867Y-97964430D01*
X113392211Y-97964497D01*
X113370506Y-97965077D01*
X113368849Y-97965099D01*
X112174449Y-97965099D01*
X112174449Y-98440123D01*
X110806379Y-98440123D01*
X110804005Y-98395408D01*
X110759562Y-98165612D01*
X110676920Y-97946624D01*
X110558460Y-97744758D01*
X110558455Y-97744751D01*
X110407588Y-97565813D01*
X110407586Y-97565811D01*
X110228648Y-97414944D01*
X110228641Y-97414939D01*
X110026775Y-97296479D01*
X109807784Y-97213836D01*
X109802640Y-97212841D01*
X109740560Y-97180780D01*
X109705669Y-97120246D01*
X109707239Y-97087786D01*
X114674448Y-97087786D01*
X114674449Y-98440123D01*
X116176449Y-98440123D01*
X117174449Y-98440123D01*
X118676449Y-98440123D01*
X119674449Y-98440123D01*
X120277418Y-98440123D01*
X120276413Y-96938123D01*
X120219645Y-96938123D01*
X120215245Y-96963824D01*
X120214473Y-96967617D01*
X120199239Y-97032098D01*
X120198231Y-97035841D01*
X120183496Y-97084418D01*
X120182256Y-97088089D01*
X120107196Y-97289336D01*
X120105501Y-97293427D01*
X120081404Y-97346191D01*
X120079423Y-97350149D01*
X120043124Y-97416625D01*
X120040864Y-97420433D01*
X120009507Y-97469224D01*
X120006982Y-97472861D01*
X119875431Y-97648588D01*
X119872654Y-97652035D01*
X119834675Y-97695865D01*
X119831658Y-97699106D01*
X119778106Y-97752658D01*
X119774865Y-97755675D01*
X119731035Y-97793654D01*
X119727588Y-97796431D01*
X119674449Y-97836210D01*
X119674449Y-98440123D01*
X118676449Y-98440123D01*
X118676449Y-98161000D01*
X117891454Y-98161000D01*
X117844000Y-98151561D01*
X117842000Y-98150732D01*
X117840000Y-98151561D01*
X117792546Y-98161000D01*
X117174449Y-98161000D01*
X117174449Y-98440123D01*
X116176449Y-98440123D01*
X116176449Y-97956646D01*
X116135776Y-97930507D01*
X116132139Y-97927982D01*
X115956412Y-97796431D01*
X115952965Y-97793654D01*
X115909135Y-97755675D01*
X115905894Y-97752658D01*
X115852342Y-97699106D01*
X115849325Y-97695865D01*
X115811346Y-97652035D01*
X115808569Y-97648588D01*
X115677018Y-97472861D01*
X115674493Y-97469224D01*
X115643136Y-97420433D01*
X115640876Y-97416625D01*
X115604577Y-97350149D01*
X115602596Y-97346191D01*
X115578499Y-97293427D01*
X115576804Y-97289336D01*
X115501744Y-97088089D01*
X115500504Y-97084418D01*
X115485769Y-97035841D01*
X115484761Y-97032098D01*
X115469527Y-96967617D01*
X115468755Y-96963824D01*
X115464355Y-96938123D01*
X114730269Y-96938123D01*
X114674448Y-97087786D01*
X109707239Y-97087786D01*
X109709044Y-97050458D01*
X109749614Y-96993573D01*
X109814497Y-96967652D01*
X109826174Y-96967099D01*
X113354672Y-96967099D01*
X113414283Y-96960691D01*
X113549131Y-96910396D01*
X113664346Y-96824146D01*
X113750596Y-96708931D01*
X113800891Y-96574083D01*
X113807300Y-96514473D01*
X113807299Y-94438123D01*
X114805299Y-94438123D01*
X114805300Y-95940123D01*
X115444000Y-95940123D01*
X115444000Y-95812454D01*
X115453439Y-95765002D01*
X115454268Y-95763000D01*
X115453439Y-95760998D01*
X115444000Y-95713546D01*
X115444000Y-94800994D01*
X115444022Y-94799337D01*
X115444602Y-94777631D01*
X115444669Y-94775973D01*
X115446187Y-94747629D01*
X115446298Y-94745972D01*
X115448044Y-94724266D01*
X115448200Y-94722610D01*
X115459662Y-94616006D01*
X115460196Y-94612170D01*
X115468755Y-94562176D01*
X115469527Y-94558383D01*
X115484761Y-94493902D01*
X115485769Y-94490159D01*
X115500504Y-94441582D01*
X115501672Y-94438123D01*
X114805299Y-94438123D01*
X113807299Y-94438123D01*
X113807299Y-92918728D01*
X113800891Y-92859117D01*
X113798089Y-92851605D01*
X113750597Y-92724271D01*
X113750593Y-92724264D01*
X113664347Y-92609055D01*
X113664344Y-92609052D01*
X113549135Y-92522806D01*
X113549128Y-92522802D01*
X113414282Y-92472508D01*
X113414283Y-92472508D01*
X113354683Y-92466101D01*
X113354681Y-92466100D01*
X113354673Y-92466100D01*
X113354664Y-92466100D01*
X109758929Y-92466100D01*
X109758923Y-92466101D01*
X109699316Y-92472508D01*
X109564471Y-92522802D01*
X109564464Y-92522806D01*
X109449255Y-92609052D01*
X109449252Y-92609055D01*
X109363006Y-92724264D01*
X109363002Y-92724271D01*
X109312708Y-92859117D01*
X109306301Y-92918716D01*
X109306301Y-92918723D01*
X109306300Y-92918735D01*
X109306300Y-96514470D01*
X109306301Y-96514476D01*
X109312708Y-96574083D01*
X109363002Y-96708928D01*
X109363006Y-96708935D01*
X109449252Y-96824144D01*
X109449255Y-96824147D01*
X109564464Y-96910393D01*
X109564473Y-96910398D01*
X109613306Y-96928611D01*
X109669240Y-96970481D01*
X109693658Y-97035945D01*
X109678807Y-97104218D01*
X109629403Y-97153624D01*
X109563398Y-97168618D01*
X109525425Y-97166601D01*
X109525379Y-97166600D01*
X108806800Y-97166600D01*
X108806800Y-98916600D01*
X108306800Y-98916600D01*
X108306800Y-97166600D01*
X107588223Y-97166600D01*
X107588211Y-97166601D01*
X107535608Y-97169394D01*
X107305812Y-97213837D01*
X107086824Y-97296479D01*
X106884958Y-97414939D01*
X106884951Y-97414944D01*
X106706013Y-97565811D01*
X106706011Y-97565813D01*
X106555144Y-97744751D01*
X106555139Y-97744758D01*
X106436679Y-97946624D01*
X106354037Y-98165612D01*
X106309594Y-98395408D01*
X106309594Y-98395409D01*
X106306801Y-98447982D01*
X106306800Y-98448021D01*
X106306800Y-99166600D01*
X102890502Y-99166600D01*
X101981618Y-98257716D01*
X101948134Y-98196394D01*
X101945300Y-98170036D01*
X101945300Y-96974226D01*
X102943300Y-96974226D01*
X102943300Y-97808014D01*
X103575409Y-98440123D01*
X103676449Y-98440123D01*
X103676449Y-97665702D01*
X103674210Y-97664432D01*
X103671820Y-97663004D01*
X103640959Y-97643612D01*
X103638637Y-97642080D01*
X103414557Y-97486838D01*
X103412304Y-97485201D01*
X103383287Y-97463106D01*
X103381110Y-97461370D01*
X103344582Y-97430871D01*
X103342488Y-97429041D01*
X103315601Y-97404464D01*
X103313592Y-97402542D01*
X103120858Y-97209808D01*
X103118936Y-97207799D01*
X103094359Y-97180912D01*
X103092529Y-97178818D01*
X103062030Y-97142290D01*
X103060294Y-97140113D01*
X103038199Y-97111096D01*
X103036562Y-97108843D01*
X102943300Y-96974226D01*
X101945300Y-96974226D01*
X101945300Y-94466600D01*
X103556799Y-94466600D01*
X105056800Y-94466600D01*
X105056800Y-94966600D01*
X103556801Y-94966600D01*
X103556801Y-95780797D01*
X103567200Y-95912932D01*
X103622177Y-96131119D01*
X103715228Y-96335974D01*
X103715231Y-96335980D01*
X103843359Y-96520923D01*
X103843369Y-96520935D01*
X104002464Y-96680030D01*
X104002476Y-96680040D01*
X104187419Y-96808168D01*
X104187425Y-96808171D01*
X104392280Y-96901222D01*
X104610467Y-96956199D01*
X104742610Y-96966599D01*
X105306799Y-96966599D01*
X105306800Y-96966598D01*
X105306800Y-96150286D01*
X105346956Y-96176093D01*
X105484911Y-96216600D01*
X105628689Y-96216600D01*
X105766644Y-96176093D01*
X105806800Y-96150286D01*
X105806800Y-96966599D01*
X106370982Y-96966599D01*
X106370997Y-96966598D01*
X106503132Y-96956199D01*
X106721319Y-96901222D01*
X106926174Y-96808171D01*
X106926180Y-96808168D01*
X107111123Y-96680040D01*
X107111135Y-96680030D01*
X107270230Y-96520935D01*
X107270240Y-96520923D01*
X107398368Y-96335980D01*
X107398371Y-96335974D01*
X107491422Y-96131119D01*
X107546399Y-95912932D01*
X107556799Y-95780796D01*
X107556800Y-95780784D01*
X107556800Y-94966600D01*
X106056800Y-94966600D01*
X106056800Y-94466600D01*
X107556799Y-94466600D01*
X107556799Y-93652417D01*
X107556798Y-93652402D01*
X107546399Y-93520267D01*
X107491422Y-93302080D01*
X107398371Y-93097225D01*
X107398368Y-93097219D01*
X107270240Y-92912276D01*
X107270230Y-92912264D01*
X107111135Y-92753169D01*
X107111123Y-92753159D01*
X106926180Y-92625031D01*
X106926174Y-92625028D01*
X106721319Y-92531977D01*
X106503132Y-92477000D01*
X106370996Y-92466600D01*
X105806800Y-92466600D01*
X105806800Y-93282913D01*
X105766644Y-93257107D01*
X105628689Y-93216600D01*
X105484911Y-93216600D01*
X105346956Y-93257107D01*
X105306800Y-93282913D01*
X105306800Y-92466600D01*
X104742617Y-92466600D01*
X104742602Y-92466601D01*
X104610467Y-92477000D01*
X104392280Y-92531977D01*
X104187425Y-92625028D01*
X104187419Y-92625031D01*
X104002476Y-92753159D01*
X104002464Y-92753169D01*
X103843369Y-92912264D01*
X103843359Y-92912276D01*
X103715231Y-93097219D01*
X103715228Y-93097225D01*
X103622177Y-93302080D01*
X103567200Y-93520267D01*
X103556800Y-93652403D01*
X103556800Y-93652415D01*
X103556799Y-94466600D01*
X101945300Y-94466600D01*
X101945300Y-92345410D01*
X114674448Y-92345410D01*
X114747546Y-92541397D01*
X114748786Y-92545067D01*
X114763515Y-92593625D01*
X114764523Y-92597364D01*
X114779762Y-92661849D01*
X114780535Y-92665645D01*
X114789099Y-92715669D01*
X114789634Y-92719507D01*
X114801100Y-92826181D01*
X114801256Y-92827833D01*
X114803002Y-92849530D01*
X114803113Y-92851191D01*
X114804630Y-92879533D01*
X114804697Y-92881189D01*
X114805277Y-92902894D01*
X114805299Y-92904551D01*
X114805299Y-93440123D01*
X115453270Y-93440123D01*
X115440299Y-93283574D01*
X115440140Y-93281016D01*
X115438753Y-93247475D01*
X115438700Y-93244913D01*
X115438700Y-93223006D01*
X116436700Y-93223006D01*
X116455864Y-93454297D01*
X116455866Y-93454308D01*
X116512842Y-93679300D01*
X116606075Y-93891848D01*
X116733018Y-94086150D01*
X116828167Y-94189510D01*
X116859089Y-94252164D01*
X116851228Y-94321590D01*
X116807081Y-94375746D01*
X116780271Y-94389674D01*
X116699911Y-94419646D01*
X116699906Y-94419649D01*
X116584812Y-94505809D01*
X116584809Y-94505812D01*
X116498649Y-94620906D01*
X116498645Y-94620913D01*
X116448403Y-94755620D01*
X116448401Y-94755627D01*
X116442000Y-94815155D01*
X116442000Y-95513000D01*
X117466722Y-95513000D01*
X117418375Y-95596740D01*
X117388190Y-95728992D01*
X117398327Y-95864265D01*
X117447887Y-95990541D01*
X117465797Y-96013000D01*
X116442000Y-96013000D01*
X116442000Y-96710844D01*
X116448401Y-96770372D01*
X116448403Y-96770379D01*
X116498645Y-96905086D01*
X116498649Y-96905093D01*
X116584809Y-97020187D01*
X116584812Y-97020190D01*
X116699906Y-97106350D01*
X116699913Y-97106354D01*
X116834620Y-97156596D01*
X116834627Y-97156598D01*
X116894155Y-97162999D01*
X116894172Y-97163000D01*
X117592000Y-97163000D01*
X117592000Y-96137189D01*
X117644547Y-96173016D01*
X117774173Y-96213000D01*
X117875724Y-96213000D01*
X117976138Y-96197865D01*
X118092000Y-96142068D01*
X118092000Y-97163000D01*
X118789828Y-97163000D01*
X118789844Y-97162999D01*
X118849372Y-97156598D01*
X118849379Y-97156596D01*
X118984086Y-97106354D01*
X118984093Y-97106350D01*
X119099187Y-97020190D01*
X119099190Y-97020187D01*
X119185350Y-96905093D01*
X119185354Y-96905086D01*
X119235596Y-96770379D01*
X119235598Y-96770372D01*
X119241999Y-96710844D01*
X119242000Y-96710827D01*
X119242000Y-96013000D01*
X118217278Y-96013000D01*
X118265625Y-95929260D01*
X118295810Y-95797008D01*
X118285673Y-95661735D01*
X118236113Y-95535459D01*
X118218203Y-95513000D01*
X119242000Y-95513000D01*
X119242000Y-94815172D01*
X119241999Y-94815155D01*
X119235598Y-94755627D01*
X119235596Y-94755620D01*
X119185354Y-94620913D01*
X119185350Y-94620906D01*
X119099190Y-94505812D01*
X119099187Y-94505809D01*
X118984093Y-94419649D01*
X118984086Y-94419645D01*
X118903729Y-94389674D01*
X118847795Y-94347803D01*
X118823378Y-94282338D01*
X118838230Y-94214065D01*
X118855826Y-94189516D01*
X118950979Y-94086153D01*
X119077924Y-93891849D01*
X119171157Y-93679300D01*
X119228134Y-93454305D01*
X119228135Y-93454297D01*
X119247300Y-93223006D01*
X119247300Y-93222993D01*
X119228135Y-92991702D01*
X119228133Y-92991691D01*
X119171157Y-92766699D01*
X119077924Y-92554151D01*
X118950983Y-92359852D01*
X118950980Y-92359849D01*
X118950979Y-92359847D01*
X118793784Y-92189087D01*
X118793779Y-92189083D01*
X118793777Y-92189081D01*
X118610634Y-92046535D01*
X118610628Y-92046531D01*
X118406504Y-91936064D01*
X118406495Y-91936061D01*
X118186984Y-91860702D01*
X118015282Y-91832050D01*
X117958049Y-91822500D01*
X117725951Y-91822500D01*
X117680164Y-91830140D01*
X117497015Y-91860702D01*
X117277504Y-91936061D01*
X117277495Y-91936064D01*
X117073371Y-92046531D01*
X117073365Y-92046535D01*
X116890222Y-92189081D01*
X116890219Y-92189084D01*
X116733016Y-92359852D01*
X116606075Y-92554151D01*
X116512842Y-92766699D01*
X116455866Y-92991691D01*
X116455864Y-92991702D01*
X116436700Y-93222993D01*
X116436700Y-93223006D01*
X115438700Y-93223006D01*
X115438700Y-93201087D01*
X115438753Y-93198525D01*
X115440140Y-93164984D01*
X115440299Y-93162426D01*
X115463083Y-92887451D01*
X115463348Y-92884903D01*
X115467497Y-92851605D01*
X115467867Y-92849069D01*
X115475079Y-92805839D01*
X115475553Y-92803321D01*
X115482444Y-92770450D01*
X115483023Y-92767950D01*
X115550762Y-92500454D01*
X115551443Y-92497981D01*
X115561026Y-92465798D01*
X115561808Y-92463358D01*
X115576040Y-92421905D01*
X115576922Y-92419500D01*
X115589121Y-92388237D01*
X115590101Y-92385870D01*
X115700937Y-92133189D01*
X115702016Y-92130861D01*
X115716761Y-92100701D01*
X115717933Y-92098425D01*
X115738792Y-92059880D01*
X115740059Y-92057650D01*
X115757242Y-92028814D01*
X115758599Y-92026641D01*
X115816431Y-91938123D01*
X114674449Y-91938123D01*
X114674448Y-92345410D01*
X101945300Y-92345410D01*
X101945300Y-89438123D01*
X102943300Y-89438123D01*
X102943300Y-90940123D01*
X103676449Y-90940123D01*
X103676449Y-89438123D01*
X104674449Y-89438123D01*
X104674449Y-90940123D01*
X106176449Y-90940123D01*
X106176449Y-89438123D01*
X107174449Y-89438123D01*
X107174449Y-90940123D01*
X108676449Y-90940123D01*
X108676449Y-89438123D01*
X109674449Y-89438123D01*
X109674449Y-90940123D01*
X111176449Y-90940123D01*
X112174449Y-90940123D01*
X113676449Y-90940123D01*
X113676449Y-89627917D01*
X113667511Y-89645867D01*
X113666175Y-89648402D01*
X113647912Y-89681188D01*
X113646461Y-89683658D01*
X113620673Y-89725305D01*
X113619109Y-89727705D01*
X113597910Y-89758651D01*
X113596237Y-89760976D01*
X113432643Y-89977610D01*
X113430865Y-89979855D01*
X113406897Y-90008718D01*
X113405017Y-90010879D01*
X113372016Y-90047080D01*
X113370037Y-90049152D01*
X113343504Y-90075686D01*
X113341432Y-90077664D01*
X113140813Y-90260553D01*
X113138651Y-90262434D01*
X113109790Y-90286400D01*
X113107546Y-90288177D01*
X113068455Y-90317699D01*
X113066129Y-90319372D01*
X113035168Y-90340581D01*
X113032768Y-90342146D01*
X112801962Y-90485054D01*
X112799494Y-90486504D01*
X112766734Y-90504752D01*
X112764201Y-90506087D01*
X112720352Y-90527924D01*
X112717758Y-90529142D01*
X112683415Y-90544307D01*
X112680767Y-90545404D01*
X112427622Y-90643472D01*
X112424929Y-90644444D01*
X112389363Y-90656365D01*
X112386626Y-90657213D01*
X112339511Y-90670619D01*
X112336740Y-90671339D01*
X112300209Y-90679932D01*
X112297404Y-90680523D01*
X112174449Y-90703507D01*
X112174449Y-90940123D01*
X111176449Y-90940123D01*
X111176448Y-90669469D01*
X111133374Y-90657213D01*
X111130637Y-90656365D01*
X111095071Y-90644444D01*
X111092378Y-90643472D01*
X110839233Y-90545404D01*
X110836585Y-90544307D01*
X110802242Y-90529142D01*
X110799648Y-90527924D01*
X110755799Y-90506087D01*
X110753266Y-90504752D01*
X110720506Y-90486504D01*
X110718038Y-90485054D01*
X110487232Y-90342146D01*
X110484832Y-90340581D01*
X110453871Y-90319372D01*
X110451545Y-90317699D01*
X110412454Y-90288177D01*
X110410210Y-90286400D01*
X110381349Y-90262434D01*
X110379187Y-90260553D01*
X110178568Y-90077664D01*
X110176496Y-90075686D01*
X110149963Y-90049152D01*
X110147984Y-90047080D01*
X110114983Y-90010879D01*
X110113103Y-90008718D01*
X110089135Y-89979855D01*
X110087357Y-89977610D01*
X109923763Y-89760976D01*
X109922090Y-89758651D01*
X109900891Y-89727705D01*
X109899327Y-89725305D01*
X109873539Y-89683658D01*
X109872088Y-89681188D01*
X109853825Y-89648402D01*
X109852489Y-89645867D01*
X109749044Y-89438123D01*
X109674449Y-89438123D01*
X108676449Y-89438123D01*
X107174449Y-89438123D01*
X106176449Y-89438123D01*
X104674449Y-89438123D01*
X103676449Y-89438123D01*
X102943300Y-89438123D01*
X101945300Y-89438123D01*
X101945300Y-88544400D01*
X110554357Y-88544400D01*
X110574884Y-88765935D01*
X110574885Y-88765937D01*
X110635769Y-88979923D01*
X110635775Y-88979938D01*
X110734938Y-89179083D01*
X110734943Y-89179091D01*
X110869020Y-89356638D01*
X111033437Y-89506523D01*
X111033439Y-89506525D01*
X111222595Y-89623645D01*
X111222596Y-89623645D01*
X111222599Y-89623647D01*
X111430060Y-89704018D01*
X111648757Y-89744900D01*
X111648759Y-89744900D01*
X111871241Y-89744900D01*
X111871243Y-89744900D01*
X112089940Y-89704018D01*
X112297401Y-89623647D01*
X112486562Y-89506524D01*
X112561594Y-89438123D01*
X114674449Y-89438123D01*
X114674449Y-90940123D01*
X116176449Y-90940123D01*
X116176449Y-89438123D01*
X117174449Y-89438123D01*
X117174449Y-90916267D01*
X117193697Y-90909660D01*
X117196139Y-90908877D01*
X117228320Y-90899297D01*
X117230792Y-90898616D01*
X117273279Y-90887858D01*
X117275774Y-90887281D01*
X117308623Y-90880393D01*
X117311142Y-90879919D01*
X117583302Y-90834504D01*
X117585839Y-90834135D01*
X117619150Y-90829983D01*
X117621698Y-90829718D01*
X117665376Y-90826099D01*
X117667935Y-90825940D01*
X117701476Y-90824553D01*
X117704038Y-90824500D01*
X117979962Y-90824500D01*
X117982524Y-90824553D01*
X118016065Y-90825940D01*
X118018624Y-90826099D01*
X118062302Y-90829718D01*
X118064850Y-90829983D01*
X118098161Y-90834135D01*
X118100698Y-90834504D01*
X118372858Y-90879919D01*
X118375377Y-90880393D01*
X118408226Y-90887281D01*
X118410721Y-90887858D01*
X118453208Y-90898616D01*
X118455680Y-90899297D01*
X118487861Y-90908877D01*
X118490303Y-90909660D01*
X118579038Y-90940123D01*
X118676449Y-90940123D01*
X118676449Y-90629553D01*
X118459233Y-90545404D01*
X118456585Y-90544307D01*
X118422242Y-90529142D01*
X118419648Y-90527924D01*
X118375799Y-90506087D01*
X118373266Y-90504752D01*
X118340506Y-90486504D01*
X118338038Y-90485054D01*
X118107232Y-90342146D01*
X118104832Y-90340581D01*
X118073871Y-90319372D01*
X118071545Y-90317699D01*
X118032454Y-90288177D01*
X118030210Y-90286400D01*
X118001349Y-90262434D01*
X117999187Y-90260553D01*
X117798568Y-90077664D01*
X117796496Y-90075686D01*
X117769963Y-90049152D01*
X117767984Y-90047080D01*
X117734983Y-90010879D01*
X117733103Y-90008718D01*
X117709135Y-89979855D01*
X117707357Y-89977610D01*
X117543763Y-89760976D01*
X117542090Y-89758651D01*
X117520891Y-89727705D01*
X117519327Y-89725305D01*
X117493539Y-89683658D01*
X117492088Y-89681188D01*
X117473825Y-89648402D01*
X117472489Y-89645867D01*
X117369044Y-89438123D01*
X117174449Y-89438123D01*
X116176449Y-89438123D01*
X114674449Y-89438123D01*
X112561594Y-89438123D01*
X112650981Y-89356636D01*
X112785058Y-89179089D01*
X112884229Y-88979928D01*
X112945115Y-88765936D01*
X112965643Y-88544400D01*
X118174357Y-88544400D01*
X118194884Y-88765935D01*
X118194885Y-88765937D01*
X118255769Y-88979923D01*
X118255775Y-88979938D01*
X118354938Y-89179083D01*
X118354943Y-89179091D01*
X118489020Y-89356638D01*
X118653437Y-89506523D01*
X118653439Y-89506525D01*
X118842595Y-89623645D01*
X118842596Y-89623645D01*
X118842599Y-89623647D01*
X119050060Y-89704018D01*
X119268757Y-89744900D01*
X119268759Y-89744900D01*
X119491241Y-89744900D01*
X119491243Y-89744900D01*
X119709940Y-89704018D01*
X119917401Y-89623647D01*
X120106562Y-89506524D01*
X120270981Y-89356636D01*
X120405058Y-89179089D01*
X120504229Y-88979928D01*
X120565115Y-88765936D01*
X120585643Y-88544400D01*
X120575980Y-88440123D01*
X120565115Y-88322864D01*
X120565114Y-88322862D01*
X120521938Y-88171115D01*
X120504229Y-88108872D01*
X120502559Y-88105518D01*
X120405061Y-87909716D01*
X120405056Y-87909708D01*
X120270979Y-87732161D01*
X120106562Y-87582276D01*
X120106560Y-87582274D01*
X119917404Y-87465154D01*
X119917398Y-87465152D01*
X119709940Y-87384782D01*
X119491243Y-87343900D01*
X119268757Y-87343900D01*
X119050060Y-87384782D01*
X118918864Y-87435607D01*
X118842601Y-87465152D01*
X118842595Y-87465154D01*
X118653439Y-87582274D01*
X118653437Y-87582276D01*
X118489020Y-87732161D01*
X118354943Y-87909708D01*
X118354938Y-87909716D01*
X118255775Y-88108861D01*
X118255769Y-88108876D01*
X118194885Y-88322862D01*
X118194884Y-88322864D01*
X118174357Y-88544399D01*
X118174357Y-88544400D01*
X112965643Y-88544400D01*
X112955980Y-88440123D01*
X112945115Y-88322864D01*
X112945114Y-88322862D01*
X112901938Y-88171115D01*
X112884229Y-88108872D01*
X112882559Y-88105518D01*
X112785061Y-87909716D01*
X112785056Y-87909708D01*
X112650979Y-87732161D01*
X112486562Y-87582276D01*
X112486560Y-87582274D01*
X112297404Y-87465154D01*
X112297398Y-87465152D01*
X112089940Y-87384782D01*
X111871243Y-87343900D01*
X111648757Y-87343900D01*
X111430060Y-87384782D01*
X111298864Y-87435607D01*
X111222601Y-87465152D01*
X111222595Y-87465154D01*
X111033439Y-87582274D01*
X111033437Y-87582276D01*
X110869020Y-87732161D01*
X110734943Y-87909708D01*
X110734938Y-87909716D01*
X110635775Y-88108861D01*
X110635769Y-88108876D01*
X110574885Y-88322862D01*
X110574884Y-88322864D01*
X110554357Y-88544399D01*
X110554357Y-88544400D01*
X101945300Y-88544400D01*
X101945300Y-88392963D01*
X101964985Y-88325924D01*
X101981619Y-88305281D01*
X102072083Y-88214818D01*
X102133407Y-88181334D01*
X102159764Y-88178500D01*
X103990722Y-88178500D01*
X103994466Y-88178613D01*
X104054082Y-88182219D01*
X104054082Y-88182218D01*
X104054085Y-88182219D01*
X104090327Y-88175577D01*
X104112836Y-88171453D01*
X104116540Y-88170889D01*
X104137888Y-88168296D01*
X104175845Y-88163688D01*
X104184605Y-88160365D01*
X104206221Y-88154338D01*
X104215439Y-88152650D01*
X104269916Y-88128132D01*
X104273358Y-88126705D01*
X104329226Y-88105518D01*
X104336933Y-88100197D01*
X104356480Y-88089172D01*
X104365028Y-88085326D01*
X104412066Y-88048472D01*
X104415059Y-88046269D01*
X104464229Y-88012332D01*
X104503852Y-87967605D01*
X104506386Y-87964913D01*
X105533176Y-86938123D01*
X107174449Y-86938123D01*
X107174449Y-88440123D01*
X108676449Y-88440123D01*
X108676449Y-86938123D01*
X114674449Y-86938123D01*
X114674449Y-88440123D01*
X116176449Y-88440123D01*
X116176449Y-86938123D01*
X114674449Y-86938123D01*
X108676449Y-86938123D01*
X107174449Y-86938123D01*
X105533176Y-86938123D01*
X106100513Y-86370786D01*
X106103205Y-86368252D01*
X106147932Y-86328629D01*
X106181869Y-86279459D01*
X106184072Y-86276466D01*
X106220926Y-86229428D01*
X106224772Y-86220880D01*
X106235797Y-86201335D01*
X106241117Y-86193627D01*
X106241116Y-86193627D01*
X106241118Y-86193626D01*
X106262305Y-86137758D01*
X106263732Y-86134315D01*
X106288250Y-86079838D01*
X106289936Y-86070632D01*
X106295969Y-86048994D01*
X106299288Y-86040245D01*
X106306489Y-85980927D01*
X106307044Y-85977276D01*
X106313854Y-85940123D01*
X107833603Y-85940123D01*
X108676449Y-85940123D01*
X108676449Y-84438123D01*
X109674449Y-84438123D01*
X109674449Y-85940123D01*
X111176449Y-85940123D01*
X112174449Y-85940123D01*
X113676449Y-85940123D01*
X114674449Y-85940123D01*
X116176449Y-85940123D01*
X117174449Y-85940123D01*
X118676449Y-85940123D01*
X118676449Y-84944864D01*
X118665731Y-84946699D01*
X118661893Y-84947234D01*
X118555219Y-84958701D01*
X118553564Y-84958856D01*
X118531872Y-84960601D01*
X118530215Y-84960712D01*
X118501876Y-84962230D01*
X118500216Y-84962297D01*
X118478507Y-84962877D01*
X118476851Y-84962899D01*
X117174449Y-84962899D01*
X117174449Y-85940123D01*
X116176449Y-85940123D01*
X116176448Y-84787543D01*
X116136933Y-84765967D01*
X116133125Y-84763707D01*
X116084334Y-84732349D01*
X116080697Y-84729825D01*
X116024851Y-84688018D01*
X115995546Y-84700959D01*
X115992897Y-84702056D01*
X115740011Y-84800024D01*
X115737317Y-84800996D01*
X115701750Y-84812918D01*
X115699014Y-84813765D01*
X115651897Y-84827171D01*
X115649125Y-84827891D01*
X115612593Y-84836484D01*
X115609789Y-84837075D01*
X115343211Y-84886908D01*
X115340383Y-84887369D01*
X115303227Y-84892552D01*
X115300383Y-84892882D01*
X115251609Y-84897402D01*
X115248751Y-84897600D01*
X115211265Y-84899334D01*
X115208400Y-84899400D01*
X114937200Y-84899400D01*
X114934335Y-84899334D01*
X114896849Y-84897600D01*
X114893991Y-84897402D01*
X114845217Y-84892882D01*
X114842373Y-84892552D01*
X114805217Y-84887369D01*
X114802389Y-84886908D01*
X114674449Y-84862991D01*
X114674449Y-85940123D01*
X113676449Y-85940123D01*
X113676449Y-84603095D01*
X113614091Y-84641706D01*
X113611623Y-84643156D01*
X113578863Y-84661404D01*
X113576330Y-84662739D01*
X113532481Y-84684576D01*
X113529888Y-84685794D01*
X113495546Y-84700959D01*
X113492897Y-84702056D01*
X113240011Y-84800024D01*
X113237317Y-84800996D01*
X113201750Y-84812918D01*
X113199014Y-84813765D01*
X113151897Y-84827171D01*
X113149125Y-84827891D01*
X113112593Y-84836484D01*
X113109789Y-84837075D01*
X112843211Y-84886908D01*
X112840383Y-84887369D01*
X112803227Y-84892552D01*
X112800383Y-84892882D01*
X112751609Y-84897402D01*
X112748751Y-84897600D01*
X112711265Y-84899334D01*
X112708400Y-84899400D01*
X112437200Y-84899400D01*
X112434335Y-84899334D01*
X112396849Y-84897600D01*
X112393991Y-84897402D01*
X112345217Y-84892882D01*
X112342373Y-84892552D01*
X112305217Y-84887369D01*
X112302389Y-84886908D01*
X112174449Y-84862991D01*
X112174449Y-85940123D01*
X111176449Y-85940123D01*
X111176449Y-84438123D01*
X119674449Y-84438123D01*
X119674449Y-85940123D01*
X120269051Y-85940123D01*
X120268046Y-84438123D01*
X119674449Y-84438123D01*
X111176449Y-84438123D01*
X109674449Y-84438123D01*
X108676449Y-84438123D01*
X108089600Y-84438123D01*
X108089600Y-85161479D01*
X108089578Y-85163141D01*
X108088994Y-85184904D01*
X108088927Y-85186565D01*
X108087406Y-85214908D01*
X108087295Y-85216563D01*
X108085552Y-85238209D01*
X108085397Y-85239860D01*
X108073931Y-85346500D01*
X108073398Y-85350335D01*
X108064837Y-85400338D01*
X108064064Y-85404134D01*
X108048829Y-85468615D01*
X108047821Y-85472355D01*
X108033088Y-85520926D01*
X108031848Y-85524596D01*
X107956739Y-85725976D01*
X107955045Y-85730067D01*
X107930947Y-85782832D01*
X107928966Y-85786791D01*
X107892667Y-85853267D01*
X107890407Y-85857075D01*
X107859050Y-85905866D01*
X107856525Y-85909503D01*
X107833603Y-85940123D01*
X106313854Y-85940123D01*
X106317820Y-85918485D01*
X106314211Y-85858825D01*
X106314100Y-85855143D01*
X106314100Y-85723898D01*
X106333785Y-85656859D01*
X106386589Y-85611104D01*
X106438100Y-85599899D01*
X106638971Y-85599899D01*
X106638972Y-85599899D01*
X106698583Y-85593491D01*
X106833431Y-85543196D01*
X106948646Y-85456946D01*
X107034896Y-85341731D01*
X107085191Y-85206883D01*
X107091600Y-85147273D01*
X107091599Y-83051528D01*
X107085191Y-82991917D01*
X107081615Y-82982330D01*
X107034897Y-82857071D01*
X107034893Y-82857064D01*
X106948647Y-82741855D01*
X106948644Y-82741852D01*
X106833435Y-82655606D01*
X106833428Y-82655602D01*
X106698582Y-82605308D01*
X106698583Y-82605308D01*
X106638983Y-82598901D01*
X106638981Y-82598900D01*
X106638973Y-82598900D01*
X106638964Y-82598900D01*
X104638229Y-82598900D01*
X104638223Y-82598901D01*
X104578616Y-82605308D01*
X104443771Y-82655602D01*
X104443764Y-82655606D01*
X104328555Y-82741852D01*
X104328552Y-82741855D01*
X104242306Y-82857064D01*
X104242302Y-82857071D01*
X104230691Y-82888204D01*
X104188820Y-82944138D01*
X104123356Y-82968555D01*
X104055083Y-82953703D01*
X104038347Y-82942724D01*
X103895768Y-82831750D01*
X103895759Y-82831744D01*
X103684068Y-82717184D01*
X103684054Y-82717178D01*
X103456391Y-82639019D01*
X103348600Y-82621033D01*
X103348599Y-83607716D01*
X103319781Y-83590191D01*
X103174196Y-83549400D01*
X103060978Y-83549400D01*
X102948817Y-83564816D01*
X102848600Y-83608346D01*
X102848600Y-82621033D01*
X102848599Y-82621033D01*
X102740808Y-82639019D01*
X102513145Y-82717178D01*
X102513131Y-82717184D01*
X102301440Y-82831744D01*
X102301431Y-82831750D01*
X102111483Y-82979593D01*
X102111473Y-82979602D01*
X101948451Y-83156689D01*
X101948446Y-83156697D01*
X101932704Y-83180790D01*
X101879555Y-83226145D01*
X101810324Y-83235565D01*
X101746989Y-83206060D01*
X101725089Y-83180784D01*
X101709155Y-83156394D01*
X101634782Y-83075604D01*
X101546063Y-82979229D01*
X101378062Y-82848469D01*
X101356041Y-82831329D01*
X101144265Y-82716721D01*
X101144256Y-82716718D01*
X100916516Y-82638534D01*
X100717400Y-82605308D01*
X100678999Y-82598900D01*
X100438201Y-82598900D01*
X100399800Y-82605308D01*
X100200683Y-82638534D01*
X99972943Y-82716718D01*
X99972934Y-82716721D01*
X99761158Y-82831329D01*
X99627056Y-82935705D01*
X99571137Y-82979229D01*
X99571134Y-82979231D01*
X99571134Y-82979232D01*
X99408049Y-83156390D01*
X99276343Y-83357981D01*
X99179617Y-83578494D01*
X99120504Y-83811927D01*
X99105600Y-83991789D01*
X99105600Y-84207010D01*
X99120504Y-84386872D01*
X99179617Y-84620305D01*
X99264476Y-84813765D01*
X99276345Y-84840822D01*
X99408049Y-85042410D01*
X99571137Y-85219571D01*
X99719560Y-85335093D01*
X99760622Y-85367053D01*
X99761161Y-85367472D01*
X99926491Y-85456944D01*
X99972078Y-85481615D01*
X99972936Y-85482079D01*
X100091198Y-85522678D01*
X100200683Y-85560265D01*
X100200685Y-85560265D01*
X100200687Y-85560266D01*
X100438201Y-85599900D01*
X100438202Y-85599900D01*
X100678998Y-85599900D01*
X100678999Y-85599900D01*
X100916513Y-85560266D01*
X101144264Y-85482079D01*
X101356039Y-85367472D01*
X101546063Y-85219571D01*
X101709151Y-85042410D01*
X101725089Y-85018013D01*
X101778231Y-84972658D01*
X101847462Y-84963231D01*
X101910799Y-84992730D01*
X101932706Y-85018011D01*
X101948447Y-85042104D01*
X101948451Y-85042110D01*
X102111473Y-85219197D01*
X102111483Y-85219206D01*
X102301431Y-85367049D01*
X102301440Y-85367055D01*
X102513131Y-85481615D01*
X102513145Y-85481621D01*
X102740807Y-85559779D01*
X102848600Y-85577766D01*
X102848600Y-84591083D01*
X102877419Y-84608609D01*
X103023004Y-84649400D01*
X103136222Y-84649400D01*
X103248383Y-84633984D01*
X103348600Y-84590453D01*
X103348600Y-85577765D01*
X103456392Y-85559779D01*
X103684054Y-85481621D01*
X103684068Y-85481615D01*
X103895759Y-85367055D01*
X103895762Y-85367053D01*
X104038346Y-85256075D01*
X104103340Y-85230432D01*
X104171880Y-85243998D01*
X104222205Y-85292466D01*
X104230691Y-85310596D01*
X104242301Y-85341726D01*
X104242306Y-85341735D01*
X104328552Y-85456944D01*
X104328555Y-85456947D01*
X104443764Y-85543193D01*
X104443771Y-85543197D01*
X104488230Y-85559779D01*
X104578617Y-85593491D01*
X104638227Y-85599900D01*
X104661434Y-85599899D01*
X104728472Y-85619581D01*
X104774228Y-85672383D01*
X104784175Y-85741541D01*
X104755152Y-85805098D01*
X104749117Y-85811580D01*
X103769518Y-86791181D01*
X103708195Y-86824666D01*
X103681837Y-86827500D01*
X101850889Y-86827500D01*
X101847144Y-86827387D01*
X101787516Y-86823780D01*
X101787513Y-86823780D01*
X101728755Y-86834548D01*
X101725053Y-86835111D01*
X101665754Y-86842312D01*
X101656983Y-86845638D01*
X101635377Y-86851660D01*
X101632275Y-86852229D01*
X101626160Y-86853350D01*
X101571675Y-86877869D01*
X101568218Y-86879301D01*
X101512374Y-86900481D01*
X101512370Y-86900484D01*
X101504656Y-86905808D01*
X101485125Y-86916824D01*
X101476570Y-86920674D01*
X101429543Y-86957517D01*
X101426528Y-86959736D01*
X101377372Y-86993667D01*
X101377369Y-86993670D01*
X101337764Y-87038373D01*
X101335197Y-87041100D01*
X100807900Y-87568397D01*
X100805173Y-87570964D01*
X100760470Y-87610569D01*
X100760467Y-87610572D01*
X100726536Y-87659728D01*
X100724317Y-87662743D01*
X100687474Y-87709770D01*
X100683624Y-87718325D01*
X100672608Y-87737856D01*
X100667284Y-87745570D01*
X100667281Y-87745574D01*
X100646101Y-87801418D01*
X100644669Y-87804875D01*
X100620150Y-87859360D01*
X100618461Y-87868577D01*
X100612439Y-87890181D01*
X100609111Y-87898956D01*
X100601908Y-87958270D01*
X100601345Y-87961971D01*
X100590581Y-88020709D01*
X100590581Y-88020715D01*
X100594187Y-88080333D01*
X100594300Y-88084077D01*
X100594300Y-98478922D01*
X100594187Y-98482666D01*
X100590581Y-98542282D01*
X100590581Y-98542285D01*
X100601345Y-98601028D01*
X100601908Y-98604729D01*
X100609111Y-98664045D01*
X100612437Y-98672814D01*
X100618461Y-98694423D01*
X100620150Y-98703640D01*
X100644663Y-98758107D01*
X100646096Y-98761566D01*
X100667281Y-98817424D01*
X100667281Y-98817425D01*
X100672605Y-98825138D01*
X100683624Y-98844676D01*
X100687471Y-98853223D01*
X100687472Y-98853225D01*
X100724315Y-98900251D01*
X100726530Y-98903261D01*
X100760468Y-98952429D01*
X100805192Y-98992051D01*
X100807884Y-98994585D01*
X101602732Y-99789433D01*
X102366781Y-100553482D01*
X102400266Y-100614805D01*
X102403100Y-100641163D01*
X102403099Y-103310322D01*
X102402986Y-103314065D01*
X102399380Y-103373680D01*
X102399381Y-103373685D01*
X102410145Y-103432428D01*
X102410708Y-103436129D01*
X102417911Y-103495445D01*
X102421237Y-103504214D01*
X102427261Y-103525823D01*
X102428950Y-103535040D01*
X102453463Y-103589507D01*
X102454896Y-103592966D01*
X102476081Y-103648824D01*
X102476081Y-103648825D01*
X102481405Y-103656538D01*
X102492424Y-103676076D01*
X102496271Y-103684623D01*
X102496272Y-103684625D01*
X102496273Y-103684626D01*
X102496274Y-103684628D01*
X102533115Y-103731651D01*
X102535330Y-103734661D01*
X102569268Y-103783829D01*
X102613992Y-103823451D01*
X102616684Y-103825985D01*
X102853935Y-104063236D01*
X102983200Y-104192501D01*
X103016685Y-104253824D01*
X103011701Y-104323516D01*
X102969829Y-104379449D01*
X102915929Y-104402491D01*
X102740683Y-104431734D01*
X102512943Y-104509918D01*
X102512934Y-104509921D01*
X102301159Y-104624529D01*
X102158669Y-104735433D01*
X102093675Y-104761075D01*
X102025135Y-104747508D01*
X101974810Y-104699040D01*
X101966325Y-104680911D01*
X101954898Y-104650273D01*
X101954893Y-104650264D01*
X101868647Y-104535055D01*
X101868644Y-104535052D01*
X101753435Y-104448806D01*
X101753428Y-104448802D01*
X101618582Y-104398508D01*
X101618583Y-104398508D01*
X101558983Y-104392101D01*
X101558981Y-104392100D01*
X101558973Y-104392100D01*
X101558964Y-104392100D01*
X99558229Y-104392100D01*
X99558223Y-104392101D01*
X99498616Y-104398508D01*
X99363771Y-104448802D01*
X99363764Y-104448806D01*
X99248555Y-104535052D01*
X99248552Y-104535055D01*
X99162306Y-104650264D01*
X99162302Y-104650271D01*
X99112008Y-104785117D01*
X99105601Y-104844716D01*
X99105600Y-104844735D01*
X99105600Y-106940470D01*
X99105601Y-106940476D01*
X99112008Y-107000083D01*
X99162302Y-107134928D01*
X99162306Y-107134935D01*
X99248552Y-107250144D01*
X99248555Y-107250147D01*
X99363764Y-107336393D01*
X99363771Y-107336397D01*
X99498617Y-107386691D01*
X99498616Y-107386691D01*
X99505544Y-107387435D01*
X99558227Y-107393100D01*
X101558972Y-107393099D01*
X101618583Y-107386691D01*
X101753431Y-107336396D01*
X101868646Y-107250146D01*
X101954896Y-107134931D01*
X101966325Y-107104287D01*
X102008194Y-107048355D01*
X102073658Y-107023936D01*
X102141931Y-107038786D01*
X102158669Y-107049767D01*
X102301152Y-107160666D01*
X102301162Y-107160673D01*
X102354618Y-107189601D01*
X102368938Y-107197351D01*
X102385845Y-107206500D01*
X102435436Y-107255719D01*
X102446561Y-107286931D01*
X102446720Y-107286882D01*
X102447940Y-107290797D01*
X102448795Y-107293196D01*
X102448948Y-107294034D01*
X102448950Y-107294040D01*
X102473463Y-107348507D01*
X102474896Y-107351966D01*
X102496081Y-107407824D01*
X102496081Y-107407825D01*
X102501405Y-107415538D01*
X102512424Y-107435076D01*
X102516271Y-107443623D01*
X102516272Y-107443625D01*
X102553115Y-107490651D01*
X102555330Y-107493661D01*
X102589268Y-107542829D01*
X102633992Y-107582451D01*
X102636684Y-107584985D01*
X106130619Y-111078921D01*
X106133171Y-111081633D01*
X106172772Y-111126333D01*
X106221929Y-111160263D01*
X106224946Y-111162483D01*
X106244999Y-111178194D01*
X106271971Y-111199325D01*
X106279277Y-111202613D01*
X106280506Y-111203166D01*
X106300065Y-111214197D01*
X106307772Y-111219517D01*
X106307771Y-111219517D01*
X106307774Y-111219518D01*
X106363631Y-111240702D01*
X106367072Y-111242126D01*
X106421561Y-111266650D01*
X106430776Y-111268338D01*
X106452389Y-111274363D01*
X106461155Y-111277688D01*
X106520471Y-111284890D01*
X106524158Y-111285451D01*
X106582915Y-111296219D01*
X106638889Y-111292833D01*
X106642527Y-111292613D01*
X106646272Y-111292500D01*
X108475834Y-111292500D01*
X108542873Y-111312185D01*
X108548719Y-111316182D01*
X108665665Y-111401148D01*
X108665670Y-111401151D01*
X108838592Y-111478142D01*
X108838597Y-111478144D01*
X109023754Y-111517500D01*
X109023755Y-111517500D01*
X109213044Y-111517500D01*
X109213046Y-111517500D01*
X109287247Y-111501728D01*
X109356913Y-111507044D01*
X109412647Y-111549181D01*
X109436752Y-111614761D01*
X109421575Y-111682962D01*
X109400708Y-111710699D01*
X109115608Y-111995799D01*
X109103351Y-112005620D01*
X109103534Y-112005841D01*
X109097522Y-112010814D01*
X109050832Y-112060532D01*
X109049479Y-112061929D01*
X109029289Y-112082119D01*
X109029277Y-112082132D01*
X109025021Y-112087617D01*
X109021237Y-112092047D01*
X108989337Y-112126018D01*
X108989336Y-112126020D01*
X108979684Y-112143576D01*
X108969010Y-112159826D01*
X108956729Y-112175661D01*
X108956724Y-112175668D01*
X108938215Y-112218438D01*
X108935645Y-112223684D01*
X108913203Y-112264506D01*
X108908222Y-112283907D01*
X108901921Y-112302310D01*
X108893962Y-112320702D01*
X108893961Y-112320705D01*
X108886671Y-112366727D01*
X108885487Y-112372446D01*
X108873901Y-112417572D01*
X108873900Y-112417582D01*
X108873900Y-112437616D01*
X108872373Y-112457013D01*
X108869240Y-112476796D01*
X108873231Y-112519015D01*
X108873625Y-112523183D01*
X108873900Y-112529021D01*
X108873900Y-114065747D01*
X108854215Y-114132786D01*
X108837581Y-114153428D01*
X107600228Y-115390781D01*
X107538905Y-115424266D01*
X107512547Y-115427100D01*
X99319652Y-115427100D01*
X99252613Y-115407415D01*
X99231971Y-115390781D01*
X99193096Y-115351906D01*
X99084558Y-115243368D01*
X99051075Y-115182047D01*
X99048923Y-115168671D01*
X99031274Y-115000744D01*
X98972779Y-114820716D01*
X98878133Y-114656784D01*
X98751471Y-114516112D01*
X98737655Y-114506074D01*
X98598334Y-114404851D01*
X98598329Y-114404848D01*
X98425407Y-114327857D01*
X98425402Y-114327855D01*
X98279600Y-114296865D01*
X98240246Y-114288500D01*
X98050954Y-114288500D01*
X98018497Y-114295398D01*
X97865797Y-114327855D01*
X97865792Y-114327857D01*
X97692870Y-114404848D01*
X97692865Y-114404851D01*
X97539729Y-114516111D01*
X97413066Y-114656785D01*
X97318421Y-114820715D01*
X97318418Y-114820722D01*
X97259927Y-115000740D01*
X97259926Y-115000744D01*
X97240140Y-115189000D01*
X96971979Y-115189000D01*
X96968704Y-111938123D01*
X98092704Y-111938123D01*
X98094066Y-113290500D01*
X98268016Y-113290500D01*
X98271262Y-113290585D01*
X98313746Y-113292812D01*
X98316985Y-113293067D01*
X98372201Y-113298874D01*
X98375416Y-113299297D01*
X98417400Y-113305947D01*
X98420592Y-113306538D01*
X98660047Y-113357435D01*
X98663204Y-113358193D01*
X98676449Y-113361741D01*
X98676449Y-112776001D01*
X100334532Y-112776001D01*
X100354364Y-113002686D01*
X100354366Y-113002697D01*
X100413258Y-113222488D01*
X100413261Y-113222497D01*
X100509431Y-113428732D01*
X100509432Y-113428734D01*
X100639954Y-113615141D01*
X100800858Y-113776045D01*
X100800861Y-113776047D01*
X100987266Y-113906568D01*
X101193504Y-114002739D01*
X101413308Y-114061635D01*
X101575230Y-114075801D01*
X101639998Y-114081468D01*
X101640000Y-114081468D01*
X101640002Y-114081468D01*
X101696672Y-114076509D01*
X101866692Y-114061635D01*
X102086496Y-114002739D01*
X102292734Y-113906568D01*
X102479139Y-113776047D01*
X102640047Y-113615139D01*
X102770568Y-113428734D01*
X102777893Y-113413023D01*
X102824062Y-113360586D01*
X102891254Y-113341432D01*
X102958136Y-113361645D01*
X103002657Y-113413023D01*
X103009865Y-113428481D01*
X103009866Y-113428483D01*
X103060973Y-113501471D01*
X103060974Y-113501472D01*
X103742046Y-112820399D01*
X103754835Y-112901148D01*
X103812359Y-113014045D01*
X103901955Y-113103641D01*
X104014852Y-113161165D01*
X104095599Y-113173953D01*
X103414526Y-113855025D01*
X103414526Y-113855026D01*
X103487512Y-113906131D01*
X103487516Y-113906133D01*
X103693673Y-114002265D01*
X103693682Y-114002269D01*
X103913389Y-114061139D01*
X103913400Y-114061141D01*
X104139998Y-114080966D01*
X104140002Y-114080966D01*
X104366599Y-114061141D01*
X104366610Y-114061139D01*
X104586317Y-114002269D01*
X104586331Y-114002264D01*
X104792478Y-113906136D01*
X104865472Y-113855025D01*
X104184401Y-113173953D01*
X104265148Y-113161165D01*
X104378045Y-113103641D01*
X104467641Y-113014045D01*
X104525165Y-112901148D01*
X104537953Y-112820400D01*
X105219025Y-113501472D01*
X105270136Y-113428478D01*
X105366264Y-113222331D01*
X105366269Y-113222317D01*
X105425139Y-113002610D01*
X105425141Y-113002599D01*
X105444966Y-112776002D01*
X105444966Y-112775997D01*
X105425141Y-112549400D01*
X105425139Y-112549389D01*
X105366269Y-112329682D01*
X105366265Y-112329673D01*
X105347998Y-112290500D01*
X107174449Y-112290500D01*
X107174449Y-113440123D01*
X107875900Y-113440123D01*
X107875900Y-112573157D01*
X107872534Y-112537547D01*
X107872289Y-112533659D01*
X107870686Y-112482651D01*
X107870686Y-112478756D01*
X107872778Y-112412149D01*
X107873023Y-112408260D01*
X107876746Y-112368868D01*
X107879226Y-112329450D01*
X107879592Y-112325574D01*
X107884022Y-112290500D01*
X107174449Y-112290500D01*
X105347998Y-112290500D01*
X105270133Y-112123516D01*
X105270131Y-112123512D01*
X105219026Y-112050526D01*
X105219025Y-112050526D01*
X104537953Y-112731598D01*
X104525165Y-112650852D01*
X104467641Y-112537955D01*
X104378045Y-112448359D01*
X104265148Y-112390835D01*
X104184400Y-112378046D01*
X104865472Y-111696974D01*
X104865471Y-111696973D01*
X104792483Y-111645866D01*
X104792481Y-111645865D01*
X104586326Y-111549734D01*
X104586317Y-111549730D01*
X104366610Y-111490860D01*
X104366599Y-111490858D01*
X104140002Y-111471034D01*
X104139998Y-111471034D01*
X103913400Y-111490858D01*
X103913389Y-111490860D01*
X103693682Y-111549730D01*
X103693673Y-111549734D01*
X103487513Y-111645868D01*
X103414527Y-111696972D01*
X103414526Y-111696973D01*
X104095600Y-112378046D01*
X104014852Y-112390835D01*
X103901955Y-112448359D01*
X103812359Y-112537955D01*
X103754835Y-112650852D01*
X103742046Y-112731599D01*
X103060973Y-112050526D01*
X103060972Y-112050527D01*
X103009868Y-112123512D01*
X103002656Y-112138979D01*
X102956482Y-112191417D01*
X102889288Y-112210567D01*
X102822407Y-112190350D01*
X102777893Y-112138976D01*
X102770568Y-112123266D01*
X102640047Y-111936861D01*
X102640045Y-111936858D01*
X102479141Y-111775954D01*
X102292734Y-111645432D01*
X102292732Y-111645431D01*
X102086497Y-111549261D01*
X102086488Y-111549258D01*
X101866697Y-111490366D01*
X101866693Y-111490365D01*
X101866692Y-111490365D01*
X101866691Y-111490364D01*
X101866686Y-111490364D01*
X101640002Y-111470532D01*
X101639998Y-111470532D01*
X101413313Y-111490364D01*
X101413302Y-111490366D01*
X101193511Y-111549258D01*
X101193502Y-111549261D01*
X100987267Y-111645431D01*
X100987265Y-111645432D01*
X100800858Y-111775954D01*
X100639954Y-111936858D01*
X100509432Y-112123265D01*
X100509431Y-112123267D01*
X100413261Y-112329502D01*
X100413258Y-112329511D01*
X100354366Y-112549302D01*
X100354364Y-112549313D01*
X100334532Y-112775998D01*
X100334532Y-112776001D01*
X98676449Y-112776001D01*
X98676449Y-111938123D01*
X98092704Y-111938123D01*
X96968704Y-111938123D01*
X96966185Y-109438123D01*
X98090185Y-109438123D01*
X98091698Y-110940123D01*
X98676449Y-110940123D01*
X98676449Y-109438123D01*
X99674449Y-109438123D01*
X99674449Y-110940123D01*
X100254591Y-110940123D01*
X100433787Y-110814650D01*
X100436035Y-110813148D01*
X100465913Y-110794113D01*
X100468227Y-110792708D01*
X100508291Y-110769578D01*
X100510662Y-110768277D01*
X100542097Y-110751912D01*
X100544525Y-110750715D01*
X100792684Y-110634996D01*
X100795159Y-110633907D01*
X100827878Y-110620353D01*
X100830397Y-110619373D01*
X100873871Y-110603547D01*
X100876436Y-110602676D01*
X100910253Y-110592013D01*
X100912852Y-110591255D01*
X101176449Y-110520626D01*
X101176449Y-109438123D01*
X102174449Y-109438123D01*
X102174449Y-110539622D01*
X102367148Y-110591255D01*
X102369747Y-110592013D01*
X102403564Y-110602676D01*
X102406129Y-110603547D01*
X102449603Y-110619373D01*
X102452122Y-110620353D01*
X102484841Y-110633907D01*
X102487316Y-110634996D01*
X102735475Y-110750715D01*
X102737903Y-110751912D01*
X102769338Y-110768277D01*
X102771709Y-110769578D01*
X102811773Y-110792708D01*
X102814087Y-110794113D01*
X102843965Y-110813148D01*
X102846214Y-110814650D01*
X102890434Y-110845613D01*
X102934050Y-110815074D01*
X102936301Y-110813570D01*
X102966208Y-110794519D01*
X102968523Y-110793114D01*
X103008588Y-110769986D01*
X103010958Y-110768687D01*
X103042365Y-110752337D01*
X103044791Y-110751141D01*
X103292857Y-110635466D01*
X103295332Y-110634377D01*
X103328050Y-110620824D01*
X103330570Y-110619845D01*
X103374042Y-110604019D01*
X103376605Y-110603149D01*
X103410421Y-110592486D01*
X103413020Y-110591729D01*
X103676449Y-110521142D01*
X103676449Y-110036134D01*
X103078438Y-109438123D01*
X102174449Y-109438123D01*
X101176449Y-109438123D01*
X99674449Y-109438123D01*
X98676449Y-109438123D01*
X98090185Y-109438123D01*
X96966185Y-109438123D01*
X96963666Y-106938123D01*
X98087666Y-106938123D01*
X98089179Y-108440123D01*
X98676449Y-108440123D01*
X98676449Y-108068529D01*
X98620155Y-108026388D01*
X98616709Y-108023611D01*
X98572878Y-107985632D01*
X98569637Y-107982615D01*
X98516085Y-107929063D01*
X98513068Y-107925822D01*
X98475089Y-107881992D01*
X98472312Y-107878545D01*
X98340675Y-107702703D01*
X98338150Y-107699066D01*
X98306793Y-107650275D01*
X98304533Y-107646467D01*
X98268234Y-107579991D01*
X98266253Y-107576032D01*
X98242155Y-107523267D01*
X98240461Y-107519176D01*
X98165354Y-107317803D01*
X98164114Y-107314133D01*
X98149385Y-107265575D01*
X98148377Y-107261836D01*
X98133138Y-107197351D01*
X98132365Y-107193555D01*
X98123801Y-107143531D01*
X98123266Y-107139693D01*
X98111800Y-107033019D01*
X98111644Y-107031367D01*
X98109898Y-107009670D01*
X98109787Y-107008009D01*
X98108270Y-106979667D01*
X98108203Y-106978011D01*
X98107623Y-106956306D01*
X98107601Y-106954649D01*
X98107601Y-106938123D01*
X98087666Y-106938123D01*
X96963666Y-106938123D01*
X96958629Y-101938123D01*
X98082628Y-101938123D01*
X98084141Y-103440123D01*
X98676449Y-103440123D01*
X98676449Y-101938123D01*
X99674449Y-101938123D01*
X99674449Y-103394100D01*
X101176449Y-103394100D01*
X101176449Y-101938123D01*
X99674449Y-101938123D01*
X98676449Y-101938123D01*
X98082628Y-101938123D01*
X96958629Y-101938123D01*
X96956110Y-99438123D01*
X98080109Y-99438123D01*
X98081622Y-100940123D01*
X98676449Y-100940123D01*
X98676449Y-99438123D01*
X99674449Y-99438123D01*
X99674449Y-100940123D01*
X101176449Y-100940123D01*
X101176449Y-100774534D01*
X100122211Y-99720296D01*
X100074693Y-99678199D01*
X100071965Y-99675632D01*
X100037263Y-99640930D01*
X100034695Y-99638202D01*
X99992206Y-99590241D01*
X99989808Y-99587363D01*
X99959544Y-99548733D01*
X99957323Y-99545716D01*
X99921258Y-99493465D01*
X99882123Y-99443514D01*
X99879905Y-99440499D01*
X99878265Y-99438123D01*
X99674449Y-99438123D01*
X98676449Y-99438123D01*
X98080109Y-99438123D01*
X96956110Y-99438123D01*
X96953591Y-96938123D01*
X98077590Y-96938123D01*
X98079104Y-98440123D01*
X98676449Y-98440123D01*
X98676449Y-96938123D01*
X98077590Y-96938123D01*
X96953591Y-96938123D01*
X96951072Y-94438123D01*
X98075071Y-94438123D01*
X98076585Y-95940123D01*
X98676449Y-95940123D01*
X98676449Y-94438123D01*
X98075071Y-94438123D01*
X96951072Y-94438123D01*
X96948553Y-91938123D01*
X98072553Y-91938123D01*
X98074066Y-93440123D01*
X98676449Y-93440123D01*
X98676449Y-91938123D01*
X98072553Y-91938123D01*
X96948553Y-91938123D01*
X96946034Y-89438123D01*
X98070034Y-89438123D01*
X98071547Y-90940123D01*
X98676449Y-90940123D01*
X98676449Y-89438123D01*
X98070034Y-89438123D01*
X96946034Y-89438123D01*
X96943515Y-86938123D01*
X98067515Y-86938123D01*
X98069028Y-88440123D01*
X98676449Y-88440123D01*
X98676449Y-86938123D01*
X98067515Y-86938123D01*
X96943515Y-86938123D01*
X96940996Y-84438123D01*
X98064996Y-84438123D01*
X98066509Y-85940123D01*
X98676449Y-85940123D01*
X98676449Y-85721218D01*
X98658960Y-85702221D01*
X98657264Y-85700301D01*
X98635575Y-85674693D01*
X98633959Y-85672703D01*
X98607038Y-85638116D01*
X98605507Y-85636063D01*
X98585993Y-85608733D01*
X98584546Y-85606615D01*
X98428868Y-85368332D01*
X98427511Y-85366159D01*
X98410328Y-85337323D01*
X98409061Y-85335093D01*
X98388202Y-85296548D01*
X98387030Y-85294272D01*
X98372285Y-85264112D01*
X98371206Y-85261785D01*
X98256874Y-85001134D01*
X98255893Y-84998766D01*
X98243695Y-84967503D01*
X98242814Y-84965099D01*
X98228582Y-84923647D01*
X98227799Y-84921205D01*
X98218217Y-84889018D01*
X98217536Y-84886547D01*
X98147663Y-84610622D01*
X98147085Y-84608126D01*
X98140194Y-84575262D01*
X98139719Y-84572740D01*
X98132508Y-84529509D01*
X98132138Y-84526975D01*
X98127988Y-84493672D01*
X98127723Y-84491124D01*
X98123331Y-84438123D01*
X98064996Y-84438123D01*
X96940996Y-84438123D01*
X96938477Y-81938123D01*
X98062477Y-81938123D01*
X98063990Y-83440123D01*
X98185155Y-83440123D01*
X98217536Y-83312253D01*
X98218217Y-83309782D01*
X98227799Y-83277595D01*
X98228582Y-83275153D01*
X98242814Y-83233701D01*
X98243695Y-83231297D01*
X98255893Y-83200034D01*
X98256874Y-83197666D01*
X98371206Y-82937015D01*
X98372285Y-82934688D01*
X98387030Y-82904528D01*
X98388202Y-82902252D01*
X98409061Y-82863707D01*
X98410328Y-82861477D01*
X98427511Y-82832641D01*
X98428868Y-82830468D01*
X98584546Y-82592185D01*
X98585993Y-82590067D01*
X98605507Y-82562737D01*
X98607038Y-82560684D01*
X98633959Y-82526097D01*
X98635575Y-82524107D01*
X98657264Y-82498500D01*
X98658960Y-82496579D01*
X98676449Y-82477580D01*
X98676449Y-81938123D01*
X107540325Y-81938123D01*
X107577045Y-81965612D01*
X107580492Y-81968389D01*
X107624322Y-82006368D01*
X107627563Y-82009385D01*
X107681115Y-82062937D01*
X107684132Y-82066178D01*
X107722111Y-82110008D01*
X107724888Y-82113455D01*
X107856525Y-82289297D01*
X107859050Y-82292934D01*
X107890407Y-82341725D01*
X107892667Y-82345533D01*
X107928966Y-82412009D01*
X107930947Y-82415968D01*
X107955045Y-82468733D01*
X107956739Y-82472824D01*
X108031846Y-82674197D01*
X108033086Y-82677867D01*
X108047815Y-82726425D01*
X108048823Y-82730164D01*
X108064062Y-82794649D01*
X108064835Y-82798445D01*
X108073399Y-82848469D01*
X108073934Y-82852307D01*
X108085400Y-82958981D01*
X108085556Y-82960633D01*
X108087302Y-82982330D01*
X108087413Y-82983991D01*
X108088930Y-83012333D01*
X108088997Y-83013989D01*
X108089577Y-83035694D01*
X108089599Y-83037351D01*
X108089599Y-83440123D01*
X108676449Y-83440123D01*
X108676449Y-81938123D01*
X109674449Y-81938123D01*
X109674449Y-83440123D01*
X110498742Y-83440123D01*
X110497620Y-83436776D01*
X110496773Y-83434042D01*
X110422563Y-83173223D01*
X110421843Y-83170451D01*
X110413254Y-83133935D01*
X110412663Y-83131133D01*
X110403661Y-83082981D01*
X110403199Y-83080152D01*
X110398014Y-83042983D01*
X110397684Y-83040137D01*
X110372661Y-82770097D01*
X110372463Y-82767240D01*
X110370729Y-82729758D01*
X110370663Y-82726894D01*
X110370663Y-82702400D01*
X111368663Y-82702400D01*
X111389165Y-82923659D01*
X111389166Y-82923661D01*
X111449974Y-83137379D01*
X111449980Y-83137394D01*
X111549022Y-83336296D01*
X111682933Y-83513624D01*
X111847144Y-83663321D01*
X111847146Y-83663323D01*
X112036066Y-83780297D01*
X112036072Y-83780300D01*
X112065006Y-83791509D01*
X112243272Y-83860570D01*
X112461696Y-83901400D01*
X112461699Y-83901400D01*
X112683901Y-83901400D01*
X112683904Y-83901400D01*
X112902328Y-83860570D01*
X113109530Y-83780299D01*
X113298455Y-83663322D01*
X113462668Y-83513622D01*
X113596578Y-83336296D01*
X113695624Y-83137384D01*
X113703534Y-83109582D01*
X113740813Y-83050489D01*
X113804123Y-83020932D01*
X113873362Y-83030294D01*
X113926549Y-83075604D01*
X113942066Y-83109583D01*
X113949974Y-83137379D01*
X113949980Y-83137394D01*
X114049022Y-83336296D01*
X114182933Y-83513624D01*
X114347144Y-83663321D01*
X114347146Y-83663323D01*
X114536066Y-83780297D01*
X114536072Y-83780300D01*
X114565006Y-83791509D01*
X114743272Y-83860570D01*
X114961696Y-83901400D01*
X114961699Y-83901400D01*
X115183901Y-83901400D01*
X115183904Y-83901400D01*
X115402328Y-83860570D01*
X115609530Y-83780299D01*
X115798455Y-83663322D01*
X115962668Y-83513622D01*
X116096578Y-83336296D01*
X116155302Y-83218361D01*
X116202802Y-83167128D01*
X116270465Y-83149706D01*
X116336805Y-83171631D01*
X116380761Y-83225942D01*
X116390300Y-83273635D01*
X116390300Y-83512269D01*
X116390301Y-83512276D01*
X116396708Y-83571883D01*
X116447002Y-83706728D01*
X116447006Y-83706735D01*
X116533252Y-83821944D01*
X116533255Y-83821947D01*
X116648464Y-83908193D01*
X116648471Y-83908197D01*
X116783317Y-83958491D01*
X116783316Y-83958491D01*
X116790244Y-83959235D01*
X116842927Y-83964900D01*
X118462672Y-83964899D01*
X118522283Y-83958491D01*
X118657131Y-83908196D01*
X118772346Y-83821946D01*
X118858596Y-83706731D01*
X118908891Y-83571883D01*
X118915300Y-83512273D01*
X118915299Y-81938123D01*
X119913299Y-81938123D01*
X119913300Y-83440123D01*
X120267378Y-83440123D01*
X120266373Y-81938123D01*
X119913299Y-81938123D01*
X118915299Y-81938123D01*
X118915299Y-81892528D01*
X118908891Y-81832917D01*
X118874786Y-81741478D01*
X118858597Y-81698071D01*
X118858593Y-81698064D01*
X118772347Y-81582855D01*
X118772344Y-81582852D01*
X118657135Y-81496606D01*
X118657128Y-81496602D01*
X118522282Y-81446308D01*
X118522283Y-81446308D01*
X118462683Y-81439901D01*
X118462681Y-81439900D01*
X118462673Y-81439900D01*
X118462664Y-81439900D01*
X116842929Y-81439900D01*
X116842923Y-81439901D01*
X116783316Y-81446308D01*
X116648471Y-81496602D01*
X116648464Y-81496606D01*
X116533255Y-81582852D01*
X116533252Y-81582855D01*
X116447006Y-81698064D01*
X116447002Y-81698071D01*
X116396708Y-81832917D01*
X116390445Y-81891175D01*
X116390301Y-81892523D01*
X116390300Y-81892535D01*
X116390300Y-82131161D01*
X116370615Y-82198200D01*
X116317811Y-82243955D01*
X116248653Y-82253899D01*
X116185097Y-82224874D01*
X116155300Y-82186433D01*
X116117244Y-82110008D01*
X116096578Y-82068504D01*
X115963688Y-81892529D01*
X115962666Y-81891175D01*
X115798455Y-81741478D01*
X115798453Y-81741476D01*
X115609533Y-81624502D01*
X115609527Y-81624499D01*
X115501880Y-81582797D01*
X115402328Y-81544230D01*
X115183904Y-81503400D01*
X114961696Y-81503400D01*
X114743272Y-81544230D01*
X114693495Y-81563513D01*
X114536072Y-81624499D01*
X114536066Y-81624502D01*
X114347146Y-81741476D01*
X114347144Y-81741478D01*
X114182933Y-81891175D01*
X114049022Y-82068503D01*
X113949980Y-82267405D01*
X113949975Y-82267418D01*
X113948197Y-82273667D01*
X113942716Y-82292934D01*
X113942066Y-82295217D01*
X113904786Y-82354310D01*
X113841476Y-82383867D01*
X113772237Y-82374505D01*
X113719051Y-82329194D01*
X113703534Y-82295217D01*
X113695624Y-82267416D01*
X113688893Y-82253899D01*
X113617244Y-82110008D01*
X113596578Y-82068504D01*
X113463688Y-81892529D01*
X113462666Y-81891175D01*
X113298455Y-81741478D01*
X113298453Y-81741476D01*
X113109533Y-81624502D01*
X113109527Y-81624499D01*
X113001880Y-81582797D01*
X112902328Y-81544230D01*
X112683904Y-81503400D01*
X112461696Y-81503400D01*
X112243272Y-81544230D01*
X112193495Y-81563513D01*
X112036072Y-81624499D01*
X112036066Y-81624502D01*
X111847146Y-81741476D01*
X111847144Y-81741478D01*
X111682933Y-81891175D01*
X111549022Y-82068503D01*
X111449980Y-82267405D01*
X111449974Y-82267420D01*
X111389166Y-82481138D01*
X111389165Y-82481140D01*
X111368663Y-82702399D01*
X111368663Y-82702400D01*
X110370663Y-82702400D01*
X110370663Y-82677906D01*
X110370729Y-82675042D01*
X110372463Y-82637560D01*
X110372661Y-82634703D01*
X110397684Y-82364663D01*
X110398014Y-82361817D01*
X110403199Y-82324648D01*
X110403661Y-82321819D01*
X110412663Y-82273667D01*
X110413254Y-82270865D01*
X110421843Y-82234349D01*
X110422563Y-82231577D01*
X110496773Y-81970758D01*
X110497620Y-81968024D01*
X110507640Y-81938123D01*
X109674449Y-81938123D01*
X108676449Y-81938123D01*
X107540325Y-81938123D01*
X98676449Y-81938123D01*
X98062477Y-81938123D01*
X96938477Y-81938123D01*
X96935562Y-79044802D01*
X97744234Y-79044802D01*
X97764058Y-79271399D01*
X97764060Y-79271410D01*
X97822930Y-79491117D01*
X97822934Y-79491126D01*
X97919065Y-79697281D01*
X97919066Y-79697283D01*
X97970173Y-79770271D01*
X97970174Y-79770272D01*
X98651246Y-79089199D01*
X98664035Y-79169948D01*
X98721559Y-79282845D01*
X98811155Y-79372441D01*
X98924052Y-79429965D01*
X99004799Y-79442753D01*
X98323726Y-80123825D01*
X98323726Y-80123826D01*
X98396712Y-80174931D01*
X98396716Y-80174933D01*
X98602873Y-80271065D01*
X98602882Y-80271069D01*
X98822589Y-80329939D01*
X98822600Y-80329941D01*
X99049198Y-80349766D01*
X99049202Y-80349766D01*
X99275799Y-80329941D01*
X99275810Y-80329939D01*
X99495517Y-80271069D01*
X99495531Y-80271064D01*
X99701678Y-80174936D01*
X99774672Y-80123825D01*
X99093601Y-79442753D01*
X99174348Y-79429965D01*
X99287245Y-79372441D01*
X99376841Y-79282845D01*
X99434365Y-79169948D01*
X99447153Y-79089200D01*
X100128225Y-79770272D01*
X100179334Y-79697281D01*
X100186540Y-79681828D01*
X100232711Y-79629387D01*
X100299904Y-79610233D01*
X100366785Y-79630446D01*
X100411305Y-79681822D01*
X100418630Y-79697530D01*
X100418632Y-79697534D01*
X100549154Y-79883941D01*
X100710058Y-80044845D01*
X100710061Y-80044847D01*
X100896466Y-80175368D01*
X101102704Y-80271539D01*
X101322508Y-80330435D01*
X101484430Y-80344601D01*
X101549198Y-80350268D01*
X101549200Y-80350268D01*
X101549202Y-80350268D01*
X101605873Y-80345309D01*
X101775892Y-80330435D01*
X101995696Y-80271539D01*
X102201934Y-80175368D01*
X102388339Y-80044847D01*
X102549247Y-79883939D01*
X102679768Y-79697534D01*
X102733872Y-79581507D01*
X102780043Y-79529069D01*
X102847236Y-79509917D01*
X102914118Y-79530132D01*
X102958635Y-79581508D01*
X103024465Y-79722681D01*
X103024466Y-79722683D01*
X103075573Y-79795671D01*
X103075574Y-79795672D01*
X103756646Y-79114599D01*
X103769435Y-79195348D01*
X103826959Y-79308245D01*
X103916555Y-79397841D01*
X104029452Y-79455365D01*
X104110199Y-79468153D01*
X103429126Y-80149225D01*
X103429126Y-80149226D01*
X103502112Y-80200331D01*
X103502116Y-80200333D01*
X103708273Y-80296465D01*
X103708282Y-80296469D01*
X103927989Y-80355339D01*
X103928000Y-80355341D01*
X104154598Y-80375166D01*
X104154602Y-80375166D01*
X104381199Y-80355341D01*
X104381210Y-80355339D01*
X104600917Y-80296469D01*
X104600931Y-80296464D01*
X104807078Y-80200336D01*
X104880072Y-80149225D01*
X104199001Y-79468153D01*
X104279748Y-79455365D01*
X104392645Y-79397841D01*
X104482241Y-79308245D01*
X104539765Y-79195348D01*
X104552553Y-79114600D01*
X105233625Y-79795672D01*
X105284734Y-79722681D01*
X105291940Y-79707228D01*
X105338111Y-79654787D01*
X105405304Y-79635633D01*
X105472185Y-79655846D01*
X105516705Y-79707222D01*
X105524030Y-79722930D01*
X105524032Y-79722934D01*
X105654554Y-79909341D01*
X105815458Y-80070245D01*
X105815461Y-80070247D01*
X106001866Y-80200768D01*
X106208104Y-80296939D01*
X106427908Y-80355835D01*
X106589830Y-80370001D01*
X106654598Y-80375668D01*
X106654600Y-80375668D01*
X106654602Y-80375668D01*
X106711272Y-80370709D01*
X106881292Y-80355835D01*
X107101096Y-80296939D01*
X107307334Y-80200768D01*
X107493739Y-80070247D01*
X107654647Y-79909339D01*
X107785168Y-79722934D01*
X107881339Y-79516696D01*
X107902392Y-79438123D01*
X109674449Y-79438123D01*
X109674449Y-80940123D01*
X111176449Y-80940123D01*
X111176449Y-79438123D01*
X112174449Y-79438123D01*
X112174449Y-80541808D01*
X112302389Y-80517892D01*
X112305217Y-80517431D01*
X112342373Y-80512248D01*
X112345217Y-80511918D01*
X112393991Y-80507398D01*
X112396849Y-80507200D01*
X112434335Y-80505466D01*
X112437200Y-80505400D01*
X112708400Y-80505400D01*
X112711265Y-80505466D01*
X112748751Y-80507200D01*
X112751609Y-80507398D01*
X112800383Y-80511918D01*
X112803227Y-80512248D01*
X112840383Y-80517431D01*
X112843211Y-80517892D01*
X113109789Y-80567725D01*
X113112593Y-80568316D01*
X113149125Y-80576909D01*
X113151897Y-80577629D01*
X113199014Y-80591035D01*
X113201750Y-80591882D01*
X113237317Y-80603804D01*
X113240011Y-80604776D01*
X113492897Y-80702744D01*
X113495546Y-80703841D01*
X113529888Y-80719006D01*
X113532481Y-80720224D01*
X113576330Y-80742061D01*
X113578863Y-80743396D01*
X113611623Y-80761644D01*
X113614091Y-80763094D01*
X113676448Y-80801704D01*
X113676448Y-80541808D01*
X114674448Y-80541808D01*
X114802389Y-80517892D01*
X114805217Y-80517431D01*
X114842373Y-80512248D01*
X114845217Y-80511918D01*
X114893991Y-80507398D01*
X114896849Y-80507200D01*
X114934335Y-80505466D01*
X114937200Y-80505400D01*
X115208400Y-80505400D01*
X115211265Y-80505466D01*
X115248751Y-80507200D01*
X115251609Y-80507398D01*
X115300383Y-80511918D01*
X115303227Y-80512248D01*
X115340383Y-80517431D01*
X115343211Y-80517892D01*
X115609789Y-80567725D01*
X115612593Y-80568316D01*
X115649125Y-80576909D01*
X115651897Y-80577629D01*
X115699014Y-80591035D01*
X115701750Y-80591882D01*
X115737317Y-80603804D01*
X115740011Y-80604776D01*
X115992897Y-80702744D01*
X115995546Y-80703841D01*
X116024851Y-80716781D01*
X116080698Y-80674975D01*
X116084334Y-80672450D01*
X116133125Y-80641093D01*
X116136933Y-80638833D01*
X116176448Y-80617255D01*
X116176449Y-79438123D01*
X117174449Y-79438123D01*
X117174449Y-80441900D01*
X118476879Y-80441900D01*
X118478541Y-80441922D01*
X118500303Y-80442506D01*
X118501964Y-80442573D01*
X118530308Y-80444094D01*
X118531963Y-80444205D01*
X118553609Y-80445948D01*
X118555260Y-80446103D01*
X118661900Y-80457569D01*
X118665735Y-80458102D01*
X118676449Y-80459936D01*
X118676449Y-79438123D01*
X119674449Y-79438123D01*
X119674449Y-80940123D01*
X120265705Y-80940123D01*
X120264699Y-79438123D01*
X119674449Y-79438123D01*
X118676449Y-79438123D01*
X117174449Y-79438123D01*
X116176449Y-79438123D01*
X114674449Y-79438123D01*
X114674448Y-80541808D01*
X113676448Y-80541808D01*
X113676449Y-79438123D01*
X112174449Y-79438123D01*
X111176449Y-79438123D01*
X109674449Y-79438123D01*
X107902392Y-79438123D01*
X107940235Y-79296892D01*
X107960068Y-79070200D01*
X107940235Y-78843508D01*
X107881339Y-78623704D01*
X107785168Y-78417466D01*
X107654647Y-78231061D01*
X107654645Y-78231058D01*
X107493741Y-78070154D01*
X107307334Y-77939632D01*
X107307332Y-77939631D01*
X107101097Y-77843461D01*
X107101088Y-77843458D01*
X106881297Y-77784566D01*
X106881293Y-77784565D01*
X106881292Y-77784565D01*
X106881291Y-77784564D01*
X106881286Y-77784564D01*
X106654602Y-77764732D01*
X106654598Y-77764732D01*
X106427913Y-77784564D01*
X106427902Y-77784566D01*
X106208111Y-77843458D01*
X106208102Y-77843461D01*
X106001867Y-77939631D01*
X106001865Y-77939632D01*
X105815458Y-78070154D01*
X105654554Y-78231058D01*
X105524032Y-78417465D01*
X105524030Y-78417469D01*
X105516705Y-78433178D01*
X105470531Y-78485617D01*
X105403337Y-78504767D01*
X105336457Y-78484550D01*
X105291941Y-78433174D01*
X105284732Y-78417715D01*
X105284731Y-78417712D01*
X105233626Y-78344726D01*
X105233625Y-78344726D01*
X104552553Y-79025798D01*
X104539765Y-78945052D01*
X104482241Y-78832155D01*
X104392645Y-78742559D01*
X104279748Y-78685035D01*
X104199000Y-78672246D01*
X104880072Y-77991174D01*
X104880071Y-77991173D01*
X104807083Y-77940066D01*
X104807081Y-77940065D01*
X104600926Y-77843934D01*
X104600917Y-77843930D01*
X104381210Y-77785060D01*
X104381199Y-77785058D01*
X104154602Y-77765234D01*
X104154598Y-77765234D01*
X103928000Y-77785058D01*
X103927989Y-77785060D01*
X103708282Y-77843930D01*
X103708273Y-77843934D01*
X103502113Y-77940068D01*
X103429127Y-77991172D01*
X103429126Y-77991173D01*
X104110200Y-78672246D01*
X104029452Y-78685035D01*
X103916555Y-78742559D01*
X103826959Y-78832155D01*
X103769435Y-78945052D01*
X103756646Y-79025799D01*
X103075573Y-78344726D01*
X103075572Y-78344727D01*
X103024467Y-78417713D01*
X102970479Y-78533491D01*
X102924306Y-78585930D01*
X102857112Y-78605082D01*
X102790231Y-78584866D01*
X102745716Y-78533491D01*
X102679768Y-78392066D01*
X102549247Y-78205661D01*
X102549245Y-78205658D01*
X102388341Y-78044754D01*
X102201934Y-77914232D01*
X102201932Y-77914231D01*
X101995697Y-77818061D01*
X101995688Y-77818058D01*
X101775897Y-77759166D01*
X101775893Y-77759165D01*
X101775892Y-77759165D01*
X101775891Y-77759164D01*
X101775886Y-77759164D01*
X101549202Y-77739332D01*
X101549198Y-77739332D01*
X101322513Y-77759164D01*
X101322502Y-77759166D01*
X101102711Y-77818058D01*
X101102702Y-77818061D01*
X100896467Y-77914231D01*
X100896465Y-77914232D01*
X100710058Y-78044754D01*
X100549154Y-78205658D01*
X100418632Y-78392065D01*
X100418630Y-78392069D01*
X100411305Y-78407778D01*
X100365131Y-78460217D01*
X100297937Y-78479367D01*
X100231057Y-78459150D01*
X100186541Y-78407774D01*
X100179332Y-78392315D01*
X100179331Y-78392312D01*
X100128226Y-78319326D01*
X100128225Y-78319326D01*
X99447153Y-79000398D01*
X99434365Y-78919652D01*
X99376841Y-78806755D01*
X99287245Y-78717159D01*
X99174348Y-78659635D01*
X99093600Y-78646846D01*
X99774672Y-77965774D01*
X99774671Y-77965773D01*
X99701683Y-77914666D01*
X99701681Y-77914665D01*
X99495526Y-77818534D01*
X99495517Y-77818530D01*
X99275810Y-77759660D01*
X99275799Y-77759658D01*
X99049202Y-77739834D01*
X99049198Y-77739834D01*
X98822600Y-77759658D01*
X98822589Y-77759660D01*
X98602882Y-77818530D01*
X98602873Y-77818534D01*
X98396713Y-77914668D01*
X98323727Y-77965772D01*
X98323726Y-77965773D01*
X99004800Y-78646846D01*
X98924052Y-78659635D01*
X98811155Y-78717159D01*
X98721559Y-78806755D01*
X98664035Y-78919652D01*
X98651246Y-79000399D01*
X97970173Y-78319326D01*
X97970172Y-78319327D01*
X97919068Y-78392313D01*
X97822934Y-78598473D01*
X97822930Y-78598482D01*
X97764060Y-78818189D01*
X97764058Y-78818200D01*
X97744234Y-79044797D01*
X97744234Y-79044802D01*
X96935562Y-79044802D01*
X96933439Y-76938123D01*
X107521060Y-76938123D01*
X107750075Y-77044915D01*
X107752503Y-77046112D01*
X107783938Y-77062477D01*
X107786309Y-77063778D01*
X107826373Y-77086908D01*
X107828687Y-77088313D01*
X107858565Y-77107348D01*
X107860813Y-77108850D01*
X108085108Y-77265901D01*
X108087289Y-77267500D01*
X108115397Y-77289066D01*
X108117508Y-77290760D01*
X108152950Y-77320499D01*
X108154984Y-77322283D01*
X108181117Y-77346229D01*
X108183072Y-77348100D01*
X108376700Y-77541728D01*
X108378571Y-77543683D01*
X108402517Y-77569816D01*
X108404301Y-77571850D01*
X108434040Y-77607292D01*
X108435734Y-77609403D01*
X108457300Y-77637511D01*
X108458899Y-77639692D01*
X108615950Y-77863987D01*
X108617452Y-77866235D01*
X108636487Y-77896113D01*
X108637892Y-77898427D01*
X108661022Y-77938491D01*
X108662323Y-77940862D01*
X108676449Y-77967996D01*
X108676449Y-76938123D01*
X109674449Y-76938123D01*
X109674449Y-78440123D01*
X111176449Y-78440123D01*
X111176449Y-76938123D01*
X112174449Y-76938123D01*
X112174449Y-78440123D01*
X113676449Y-78440123D01*
X113676449Y-76938123D01*
X114674449Y-76938123D01*
X114674449Y-78440123D01*
X116176449Y-78440123D01*
X116176449Y-76938123D01*
X117174449Y-76938123D01*
X117174449Y-78440123D01*
X118676449Y-78440123D01*
X118676449Y-76938123D01*
X119674449Y-76938123D01*
X119674449Y-78440123D01*
X120264031Y-78440123D01*
X120263026Y-76938123D01*
X119674449Y-76938123D01*
X118676449Y-76938123D01*
X117174449Y-76938123D01*
X116176449Y-76938123D01*
X114674449Y-76938123D01*
X113676449Y-76938123D01*
X112174449Y-76938123D01*
X111176449Y-76938123D01*
X109674449Y-76938123D01*
X108676449Y-76938123D01*
X107521060Y-76938123D01*
X96933439Y-76938123D01*
X96930920Y-74438123D01*
X98054920Y-74438123D01*
X98056433Y-75940123D01*
X98676449Y-75940123D01*
X98676449Y-74438123D01*
X99674449Y-74438123D01*
X99674449Y-75940123D01*
X101176449Y-75940123D01*
X101176449Y-74438123D01*
X102174449Y-74438123D01*
X102174449Y-75940123D01*
X103676449Y-75940123D01*
X103676449Y-74438123D01*
X104674449Y-74438123D01*
X104674449Y-75940123D01*
X106176449Y-75940123D01*
X106176449Y-74438123D01*
X107174449Y-74438123D01*
X107174449Y-75940123D01*
X108676449Y-75940123D01*
X119674449Y-75940123D01*
X120319747Y-75940123D01*
X120424141Y-75687855D01*
X120451037Y-75647588D01*
X121176449Y-74922175D01*
X121176449Y-74438123D01*
X119772843Y-74438123D01*
X119719833Y-74580248D01*
X119719024Y-74582306D01*
X119707938Y-74609071D01*
X119707055Y-74611099D01*
X119691334Y-74645529D01*
X119690378Y-74647527D01*
X119677391Y-74673472D01*
X119676365Y-74675435D01*
X119674449Y-74678943D01*
X119674449Y-75940123D01*
X108676449Y-75940123D01*
X108676449Y-74928444D01*
X109887000Y-74928444D01*
X109893401Y-74987972D01*
X109893403Y-74987979D01*
X109943645Y-75122686D01*
X109943649Y-75122693D01*
X110029809Y-75237787D01*
X110029812Y-75237790D01*
X110144906Y-75323950D01*
X110144913Y-75323954D01*
X110279620Y-75374196D01*
X110279627Y-75374198D01*
X110339155Y-75380599D01*
X110339172Y-75380600D01*
X111637000Y-75380600D01*
X111637000Y-74102402D01*
X111798169Y-74140600D01*
X111931267Y-74140600D01*
X112063461Y-74125149D01*
X112137000Y-74098382D01*
X112137000Y-75380600D01*
X113434828Y-75380600D01*
X113434844Y-75380599D01*
X113494372Y-75374198D01*
X113494379Y-75374196D01*
X113629086Y-75323954D01*
X113629093Y-75323950D01*
X113744187Y-75237790D01*
X113744190Y-75237787D01*
X113830350Y-75122693D01*
X113830354Y-75122686D01*
X113880596Y-74987979D01*
X113880598Y-74987972D01*
X113886999Y-74928444D01*
X113887000Y-74928427D01*
X113887000Y-73630600D01*
X112605483Y-73630600D01*
X112640549Y-73513471D01*
X112648288Y-73380601D01*
X114961390Y-73380601D01*
X114981804Y-73666033D01*
X115042628Y-73945637D01*
X115042630Y-73945643D01*
X115042631Y-73945646D01*
X115115345Y-74140600D01*
X115142635Y-74213766D01*
X115279770Y-74464909D01*
X115279775Y-74464917D01*
X115451254Y-74693987D01*
X115451270Y-74694005D01*
X115653594Y-74896329D01*
X115653612Y-74896345D01*
X115882682Y-75067824D01*
X115882690Y-75067829D01*
X116133833Y-75204964D01*
X116133832Y-75204964D01*
X116133836Y-75204965D01*
X116133839Y-75204967D01*
X116401954Y-75304969D01*
X116401960Y-75304970D01*
X116401962Y-75304971D01*
X116681566Y-75365795D01*
X116681568Y-75365795D01*
X116681572Y-75365796D01*
X116935220Y-75383937D01*
X116966999Y-75386210D01*
X116967000Y-75386210D01*
X116967001Y-75386210D01*
X116995595Y-75384164D01*
X117252428Y-75365796D01*
X117270058Y-75361961D01*
X117532037Y-75304971D01*
X117532037Y-75304970D01*
X117532046Y-75304969D01*
X117800161Y-75204967D01*
X118051315Y-75067826D01*
X118280395Y-74896339D01*
X118482739Y-74693995D01*
X118654226Y-74464915D01*
X118791367Y-74213761D01*
X118891369Y-73945646D01*
X118952196Y-73666028D01*
X118959894Y-73558400D01*
X122926541Y-73558400D01*
X122947136Y-73793803D01*
X122947138Y-73793813D01*
X123008294Y-74022055D01*
X123008296Y-74022059D01*
X123008297Y-74022063D01*
X123056367Y-74125149D01*
X123108165Y-74236230D01*
X123108167Y-74236234D01*
X123216481Y-74390921D01*
X123243705Y-74429801D01*
X123410799Y-74596895D01*
X123483109Y-74647527D01*
X123604365Y-74732432D01*
X123604367Y-74732433D01*
X123604370Y-74732435D01*
X123818537Y-74832303D01*
X124046792Y-74893463D01*
X124235118Y-74909939D01*
X124282199Y-74914059D01*
X124282200Y-74914059D01*
X124282201Y-74914059D01*
X124321434Y-74910626D01*
X124517608Y-74893463D01*
X124745863Y-74832303D01*
X124960030Y-74732435D01*
X125153601Y-74596895D01*
X125320695Y-74429801D01*
X125456235Y-74236230D01*
X125556103Y-74022063D01*
X125617263Y-73793808D01*
X125637859Y-73558400D01*
X125617263Y-73322992D01*
X125556103Y-73094737D01*
X125456235Y-72880571D01*
X125438684Y-72855506D01*
X125320696Y-72687000D01*
X125269747Y-72636051D01*
X125198379Y-72564683D01*
X125164896Y-72503363D01*
X125169880Y-72433671D01*
X125211751Y-72377737D01*
X125242729Y-72360822D01*
X125374286Y-72311754D01*
X125374293Y-72311750D01*
X125489387Y-72225590D01*
X125489390Y-72225587D01*
X125575550Y-72110493D01*
X125575554Y-72110486D01*
X125625796Y-71975779D01*
X125625798Y-71975772D01*
X125632199Y-71916244D01*
X125632200Y-71916227D01*
X125632200Y-71268400D01*
X124715886Y-71268400D01*
X124741693Y-71228244D01*
X124782200Y-71090289D01*
X124782200Y-70946511D01*
X124741693Y-70808556D01*
X124715886Y-70768400D01*
X125632200Y-70768400D01*
X125632200Y-70120572D01*
X125632199Y-70120555D01*
X125625798Y-70061027D01*
X125625796Y-70061020D01*
X125575554Y-69926313D01*
X125575550Y-69926306D01*
X125489390Y-69811212D01*
X125489387Y-69811209D01*
X125374293Y-69725049D01*
X125374286Y-69725045D01*
X125239579Y-69674803D01*
X125239572Y-69674801D01*
X125180044Y-69668400D01*
X124532200Y-69668400D01*
X124532200Y-70582898D01*
X124424515Y-70533720D01*
X124317963Y-70518400D01*
X124246437Y-70518400D01*
X124139885Y-70533720D01*
X124032200Y-70582898D01*
X124032200Y-69668400D01*
X123384355Y-69668400D01*
X123324827Y-69674801D01*
X123324820Y-69674803D01*
X123190113Y-69725045D01*
X123190106Y-69725049D01*
X123075012Y-69811209D01*
X123075009Y-69811212D01*
X122988849Y-69926306D01*
X122988845Y-69926313D01*
X122938603Y-70061020D01*
X122938601Y-70061027D01*
X122932200Y-70120555D01*
X122932200Y-70768400D01*
X123848514Y-70768400D01*
X123822707Y-70808556D01*
X123782200Y-70946511D01*
X123782200Y-71090289D01*
X123822707Y-71228244D01*
X123848514Y-71268400D01*
X122932200Y-71268400D01*
X122932200Y-71916244D01*
X122938601Y-71975772D01*
X122938603Y-71975779D01*
X122988845Y-72110486D01*
X122988849Y-72110493D01*
X123075009Y-72225587D01*
X123075012Y-72225590D01*
X123190106Y-72311750D01*
X123190113Y-72311754D01*
X123321670Y-72360821D01*
X123377603Y-72402692D01*
X123402021Y-72468156D01*
X123387170Y-72536429D01*
X123366019Y-72564684D01*
X123243703Y-72687000D01*
X123108165Y-72880569D01*
X123108164Y-72880571D01*
X123008298Y-73094735D01*
X123008294Y-73094744D01*
X122947138Y-73322986D01*
X122947136Y-73322996D01*
X122926541Y-73558399D01*
X122926541Y-73558400D01*
X118959894Y-73558400D01*
X118972610Y-73380600D01*
X118971256Y-73361675D01*
X118963507Y-73253323D01*
X118952196Y-73095172D01*
X118952101Y-73094737D01*
X118891371Y-72815562D01*
X118891370Y-72815560D01*
X118891369Y-72815554D01*
X118791367Y-72547439D01*
X118776878Y-72520905D01*
X118654229Y-72296290D01*
X118654224Y-72296282D01*
X118494008Y-72082257D01*
X119674448Y-72082257D01*
X119676365Y-72085766D01*
X119677391Y-72087728D01*
X119690378Y-72113673D01*
X119691334Y-72115671D01*
X119707055Y-72150101D01*
X119707938Y-72152129D01*
X119719024Y-72178894D01*
X119719833Y-72180952D01*
X119833052Y-72484504D01*
X119833787Y-72486588D01*
X119842934Y-72514064D01*
X119843595Y-72516175D01*
X119854261Y-72552489D01*
X119854847Y-72554626D01*
X119862026Y-72582749D01*
X119862536Y-72584905D01*
X119931415Y-72901538D01*
X119931847Y-72903712D01*
X119936998Y-72932271D01*
X119937353Y-72934458D01*
X119942736Y-72971922D01*
X119943012Y-72974115D01*
X119946107Y-73002910D01*
X119946304Y-73005114D01*
X119969417Y-73328279D01*
X119969535Y-73330488D01*
X119970570Y-73359461D01*
X119970610Y-73361675D01*
X119970610Y-73399525D01*
X119970570Y-73401739D01*
X119969535Y-73430712D01*
X119969417Y-73432921D01*
X119968902Y-73440123D01*
X121176449Y-73440123D01*
X121176449Y-71938123D01*
X119674449Y-71938123D01*
X119674448Y-72082257D01*
X118494008Y-72082257D01*
X118482745Y-72067212D01*
X118482729Y-72067194D01*
X118280405Y-71864870D01*
X118280387Y-71864854D01*
X118051317Y-71693375D01*
X118051309Y-71693370D01*
X117800166Y-71556235D01*
X117800167Y-71556235D01*
X117692915Y-71516232D01*
X117532046Y-71456231D01*
X117532043Y-71456230D01*
X117532037Y-71456228D01*
X117252433Y-71395404D01*
X116967001Y-71374990D01*
X116966999Y-71374990D01*
X116681566Y-71395404D01*
X116401962Y-71456228D01*
X116133833Y-71556235D01*
X115882690Y-71693370D01*
X115882682Y-71693375D01*
X115653612Y-71864854D01*
X115653594Y-71864870D01*
X115451270Y-72067194D01*
X115451254Y-72067212D01*
X115279775Y-72296282D01*
X115279770Y-72296290D01*
X115142635Y-72547433D01*
X115042628Y-72815562D01*
X114981804Y-73095166D01*
X114961390Y-73380598D01*
X114961390Y-73380601D01*
X112648288Y-73380601D01*
X112650879Y-73336109D01*
X112620029Y-73161146D01*
X112606853Y-73130600D01*
X113887000Y-73130600D01*
X113887000Y-71832772D01*
X113886999Y-71832755D01*
X113880598Y-71773227D01*
X113880596Y-71773220D01*
X113830354Y-71638513D01*
X113830350Y-71638506D01*
X113744190Y-71523412D01*
X113744187Y-71523409D01*
X113629093Y-71437249D01*
X113629086Y-71437245D01*
X113494379Y-71387003D01*
X113494372Y-71387001D01*
X113434844Y-71380600D01*
X112137000Y-71380600D01*
X112137000Y-72658797D01*
X111975831Y-72620600D01*
X111842733Y-72620600D01*
X111710539Y-72636051D01*
X111637000Y-72662817D01*
X111637000Y-71380600D01*
X110339155Y-71380600D01*
X110279627Y-71387001D01*
X110279620Y-71387003D01*
X110144913Y-71437245D01*
X110144906Y-71437249D01*
X110029812Y-71523409D01*
X110029809Y-71523412D01*
X109943649Y-71638506D01*
X109943645Y-71638513D01*
X109893403Y-71773220D01*
X109893401Y-71773227D01*
X109887000Y-71832755D01*
X109887000Y-73130600D01*
X111168517Y-73130600D01*
X111133451Y-73247729D01*
X111123121Y-73425091D01*
X111153971Y-73600054D01*
X111167147Y-73630600D01*
X109887000Y-73630600D01*
X109887000Y-74928444D01*
X108676449Y-74928444D01*
X108676449Y-74438123D01*
X107174449Y-74438123D01*
X106176449Y-74438123D01*
X104674449Y-74438123D01*
X103676449Y-74438123D01*
X102174449Y-74438123D01*
X101176449Y-74438123D01*
X99674449Y-74438123D01*
X98676449Y-74438123D01*
X98054920Y-74438123D01*
X96930920Y-74438123D01*
X96928401Y-71938123D01*
X98052401Y-71938123D01*
X98053915Y-73440123D01*
X98676449Y-73440123D01*
X107174449Y-73440123D01*
X108676449Y-73440123D01*
X108676449Y-71938123D01*
X108545161Y-71938123D01*
X108530909Y-71991315D01*
X108530151Y-71993914D01*
X108519488Y-72027731D01*
X108518617Y-72030296D01*
X108502791Y-72073769D01*
X108501812Y-72076287D01*
X108488259Y-72109006D01*
X108487170Y-72111482D01*
X108367757Y-72367563D01*
X108366560Y-72369988D01*
X108350205Y-72401408D01*
X108348904Y-72403778D01*
X108325774Y-72443845D01*
X108324369Y-72446160D01*
X108305323Y-72476057D01*
X108303820Y-72478306D01*
X108141736Y-72709786D01*
X108140135Y-72711969D01*
X108118551Y-72740096D01*
X108116857Y-72742207D01*
X108087117Y-72777646D01*
X108085335Y-72779678D01*
X108061409Y-72805789D01*
X108059538Y-72807744D01*
X107859744Y-73007538D01*
X107857789Y-73009409D01*
X107831678Y-73033335D01*
X107829646Y-73035117D01*
X107794207Y-73064857D01*
X107792096Y-73066551D01*
X107763969Y-73088135D01*
X107761786Y-73089736D01*
X107530306Y-73251820D01*
X107528057Y-73253323D01*
X107498160Y-73272369D01*
X107495845Y-73273774D01*
X107455778Y-73296904D01*
X107453408Y-73298205D01*
X107421988Y-73314560D01*
X107419563Y-73315757D01*
X107174449Y-73430055D01*
X107174449Y-73440123D01*
X98676449Y-73440123D01*
X98676449Y-72144870D01*
X99868500Y-72144870D01*
X99868501Y-72144876D01*
X99874908Y-72204483D01*
X99925202Y-72339328D01*
X99925206Y-72339335D01*
X100011452Y-72454544D01*
X100011455Y-72454547D01*
X100126664Y-72540793D01*
X100126671Y-72540797D01*
X100261517Y-72591091D01*
X100261516Y-72591091D01*
X100268444Y-72591835D01*
X100321127Y-72597500D01*
X102116872Y-72597499D01*
X102176483Y-72591091D01*
X102311331Y-72540796D01*
X102426546Y-72454546D01*
X102512796Y-72339331D01*
X102561810Y-72207916D01*
X102603681Y-72151984D01*
X102669145Y-72127566D01*
X102737418Y-72142417D01*
X102765673Y-72163568D01*
X102887599Y-72285495D01*
X102984384Y-72353265D01*
X103081165Y-72421032D01*
X103081167Y-72421033D01*
X103081170Y-72421035D01*
X103295337Y-72520903D01*
X103523592Y-72582063D01*
X103700034Y-72597500D01*
X103758999Y-72602659D01*
X103759000Y-72602659D01*
X103759001Y-72602659D01*
X103817966Y-72597500D01*
X103994408Y-72582063D01*
X104222663Y-72520903D01*
X104436830Y-72421035D01*
X104630401Y-72285495D01*
X104797495Y-72118401D01*
X104927424Y-71932842D01*
X104982002Y-71889217D01*
X105051500Y-71882023D01*
X105113855Y-71913546D01*
X105130575Y-71932842D01*
X105260500Y-72118395D01*
X105260505Y-72118401D01*
X105427599Y-72285495D01*
X105524384Y-72353265D01*
X105621165Y-72421032D01*
X105621167Y-72421033D01*
X105621170Y-72421035D01*
X105835337Y-72520903D01*
X106063592Y-72582063D01*
X106240034Y-72597500D01*
X106298999Y-72602659D01*
X106299000Y-72602659D01*
X106299001Y-72602659D01*
X106357966Y-72597500D01*
X106534408Y-72582063D01*
X106762663Y-72520903D01*
X106976830Y-72421035D01*
X107170401Y-72285495D01*
X107337495Y-72118401D01*
X107473035Y-71924830D01*
X107572903Y-71710663D01*
X107634063Y-71482408D01*
X107654659Y-71247000D01*
X107634063Y-71011592D01*
X107572903Y-70783337D01*
X107473035Y-70569171D01*
X107467425Y-70561158D01*
X107337494Y-70375597D01*
X107326297Y-70364400D01*
X114674449Y-70364400D01*
X114674449Y-70940123D01*
X115223573Y-70940123D01*
X115299748Y-70883099D01*
X115301542Y-70881806D01*
X115325338Y-70865282D01*
X115327177Y-70864054D01*
X115359015Y-70843590D01*
X115360900Y-70842425D01*
X115385850Y-70827621D01*
X115387775Y-70826525D01*
X115672166Y-70671235D01*
X115674128Y-70670209D01*
X115700073Y-70657222D01*
X115702071Y-70656266D01*
X115736501Y-70640545D01*
X115738529Y-70639662D01*
X115765294Y-70628576D01*
X115767352Y-70627767D01*
X116070904Y-70514548D01*
X116072988Y-70513813D01*
X116100464Y-70504666D01*
X116102575Y-70504005D01*
X116138889Y-70493339D01*
X116141026Y-70492753D01*
X116169149Y-70485574D01*
X116171305Y-70485064D01*
X116176449Y-70483944D01*
X116176449Y-70364400D01*
X119674449Y-70364400D01*
X119674449Y-70940123D01*
X121176449Y-70940123D01*
X121176449Y-70364400D01*
X119674449Y-70364400D01*
X116176449Y-70364400D01*
X114674449Y-70364400D01*
X107326297Y-70364400D01*
X107170402Y-70208506D01*
X107170395Y-70208501D01*
X106976834Y-70072967D01*
X106976830Y-70072965D01*
X106951214Y-70061020D01*
X106762663Y-69973097D01*
X106762659Y-69973096D01*
X106762655Y-69973094D01*
X106534413Y-69911938D01*
X106534403Y-69911936D01*
X106299001Y-69891341D01*
X106298999Y-69891341D01*
X106063596Y-69911936D01*
X106063586Y-69911938D01*
X105835344Y-69973094D01*
X105835335Y-69973098D01*
X105621171Y-70072964D01*
X105621169Y-70072965D01*
X105427597Y-70208505D01*
X105260505Y-70375597D01*
X105130575Y-70561158D01*
X105075998Y-70604783D01*
X105006500Y-70611977D01*
X104944145Y-70580454D01*
X104927425Y-70561158D01*
X104797494Y-70375597D01*
X104630402Y-70208506D01*
X104630395Y-70208501D01*
X104436834Y-70072967D01*
X104436830Y-70072965D01*
X104411214Y-70061020D01*
X104222663Y-69973097D01*
X104222659Y-69973096D01*
X104222655Y-69973094D01*
X103994413Y-69911938D01*
X103994403Y-69911936D01*
X103759001Y-69891341D01*
X103758999Y-69891341D01*
X103523596Y-69911936D01*
X103523586Y-69911938D01*
X103295344Y-69973094D01*
X103295335Y-69973098D01*
X103081171Y-70072964D01*
X103081169Y-70072965D01*
X102887600Y-70208503D01*
X102765673Y-70330430D01*
X102704350Y-70363914D01*
X102634658Y-70358930D01*
X102578725Y-70317058D01*
X102561810Y-70286081D01*
X102512797Y-70154671D01*
X102512793Y-70154664D01*
X102426547Y-70039455D01*
X102426544Y-70039452D01*
X102311335Y-69953206D01*
X102311328Y-69953202D01*
X102176482Y-69902908D01*
X102176483Y-69902908D01*
X102116883Y-69896501D01*
X102116881Y-69896500D01*
X102116873Y-69896500D01*
X102116864Y-69896500D01*
X100321129Y-69896500D01*
X100321123Y-69896501D01*
X100261516Y-69902908D01*
X100126671Y-69953202D01*
X100126664Y-69953206D01*
X100011455Y-70039452D01*
X100011452Y-70039455D01*
X99925206Y-70154664D01*
X99925202Y-70154671D01*
X99874908Y-70289517D01*
X99868501Y-70349116D01*
X99868500Y-70349135D01*
X99868500Y-72144870D01*
X98676449Y-72144870D01*
X98676449Y-71938123D01*
X98052401Y-71938123D01*
X96928401Y-71938123D01*
X96926449Y-70000364D01*
X96946066Y-69933306D01*
X96959583Y-69915864D01*
X96963231Y-69911936D01*
X97550006Y-69280023D01*
X97610047Y-69244292D01*
X97640872Y-69240400D01*
X121589825Y-69240400D01*
X122556473Y-69228316D01*
X125611084Y-69190133D01*
X125678361Y-69208978D01*
G37*
%TD.AperFunction*%
%TD*%
M02*
