%TF.GenerationSoftware,KiCad,Pcbnew,7.0.5*%
%TF.CreationDate,2023-06-26T08:29:16+05:30*%
%TF.ProjectId,Power supply pcb,506f7765-7220-4737-9570-706c79207063,rev?*%
%TF.SameCoordinates,Original*%
%TF.FileFunction,Legend,Top*%
%TF.FilePolarity,Positive*%
%FSLAX46Y46*%
G04 Gerber Fmt 4.6, Leading zero omitted, Abs format (unit mm)*
G04 Created by KiCad (PCBNEW 7.0.5) date 2023-06-26 08:29:16*
%MOMM*%
%LPD*%
G01*
G04 APERTURE LIST*
%ADD10C,0.150000*%
%ADD11C,0.120000*%
%ADD12C,0.152400*%
G04 APERTURE END LIST*
D10*
X120723217Y-70760390D02*
X120656550Y-70722295D01*
X120656550Y-70722295D02*
X120556550Y-70722295D01*
X120556550Y-70722295D02*
X120456550Y-70760390D01*
X120456550Y-70760390D02*
X120389884Y-70836580D01*
X120389884Y-70836580D02*
X120356550Y-70912771D01*
X120356550Y-70912771D02*
X120323217Y-71065152D01*
X120323217Y-71065152D02*
X120323217Y-71179438D01*
X120323217Y-71179438D02*
X120356550Y-71331819D01*
X120356550Y-71331819D02*
X120389884Y-71408009D01*
X120389884Y-71408009D02*
X120456550Y-71484200D01*
X120456550Y-71484200D02*
X120556550Y-71522295D01*
X120556550Y-71522295D02*
X120623217Y-71522295D01*
X120623217Y-71522295D02*
X120723217Y-71484200D01*
X120723217Y-71484200D02*
X120756550Y-71446104D01*
X120756550Y-71446104D02*
X120756550Y-71179438D01*
X120756550Y-71179438D02*
X120623217Y-71179438D01*
X121056550Y-71522295D02*
X121056550Y-70722295D01*
X121056550Y-70722295D02*
X121456550Y-71522295D01*
X121456550Y-71522295D02*
X121456550Y-70722295D01*
X121789883Y-71522295D02*
X121789883Y-70722295D01*
X121789883Y-70722295D02*
X121956550Y-70722295D01*
X121956550Y-70722295D02*
X122056550Y-70760390D01*
X122056550Y-70760390D02*
X122123217Y-70836580D01*
X122123217Y-70836580D02*
X122156550Y-70912771D01*
X122156550Y-70912771D02*
X122189883Y-71065152D01*
X122189883Y-71065152D02*
X122189883Y-71179438D01*
X122189883Y-71179438D02*
X122156550Y-71331819D01*
X122156550Y-71331819D02*
X122123217Y-71408009D01*
X122123217Y-71408009D02*
X122056550Y-71484200D01*
X122056550Y-71484200D02*
X121956550Y-71522295D01*
X121956550Y-71522295D02*
X121789883Y-71522295D01*
X120774017Y-116581990D02*
X120707350Y-116543895D01*
X120707350Y-116543895D02*
X120607350Y-116543895D01*
X120607350Y-116543895D02*
X120507350Y-116581990D01*
X120507350Y-116581990D02*
X120440684Y-116658180D01*
X120440684Y-116658180D02*
X120407350Y-116734371D01*
X120407350Y-116734371D02*
X120374017Y-116886752D01*
X120374017Y-116886752D02*
X120374017Y-117001038D01*
X120374017Y-117001038D02*
X120407350Y-117153419D01*
X120407350Y-117153419D02*
X120440684Y-117229609D01*
X120440684Y-117229609D02*
X120507350Y-117305800D01*
X120507350Y-117305800D02*
X120607350Y-117343895D01*
X120607350Y-117343895D02*
X120674017Y-117343895D01*
X120674017Y-117343895D02*
X120774017Y-117305800D01*
X120774017Y-117305800D02*
X120807350Y-117267704D01*
X120807350Y-117267704D02*
X120807350Y-117001038D01*
X120807350Y-117001038D02*
X120674017Y-117001038D01*
X121107350Y-117343895D02*
X121107350Y-116543895D01*
X121107350Y-116543895D02*
X121507350Y-117343895D01*
X121507350Y-117343895D02*
X121507350Y-116543895D01*
X121840683Y-117343895D02*
X121840683Y-116543895D01*
X121840683Y-116543895D02*
X122007350Y-116543895D01*
X122007350Y-116543895D02*
X122107350Y-116581990D01*
X122107350Y-116581990D02*
X122174017Y-116658180D01*
X122174017Y-116658180D02*
X122207350Y-116734371D01*
X122207350Y-116734371D02*
X122240683Y-116886752D01*
X122240683Y-116886752D02*
X122240683Y-117001038D01*
X122240683Y-117001038D02*
X122207350Y-117153419D01*
X122207350Y-117153419D02*
X122174017Y-117229609D01*
X122174017Y-117229609D02*
X122107350Y-117305800D01*
X122107350Y-117305800D02*
X122007350Y-117343895D01*
X122007350Y-117343895D02*
X121840683Y-117343895D01*
X117219467Y-85124095D02*
X117352800Y-85124095D01*
X117352800Y-85124095D02*
X117419467Y-85162190D01*
X117419467Y-85162190D02*
X117486133Y-85238380D01*
X117486133Y-85238380D02*
X117519467Y-85390761D01*
X117519467Y-85390761D02*
X117519467Y-85657428D01*
X117519467Y-85657428D02*
X117486133Y-85809809D01*
X117486133Y-85809809D02*
X117419467Y-85886000D01*
X117419467Y-85886000D02*
X117352800Y-85924095D01*
X117352800Y-85924095D02*
X117219467Y-85924095D01*
X117219467Y-85924095D02*
X117152800Y-85886000D01*
X117152800Y-85886000D02*
X117086133Y-85809809D01*
X117086133Y-85809809D02*
X117052800Y-85657428D01*
X117052800Y-85657428D02*
X117052800Y-85390761D01*
X117052800Y-85390761D02*
X117086133Y-85238380D01*
X117086133Y-85238380D02*
X117152800Y-85162190D01*
X117152800Y-85162190D02*
X117219467Y-85124095D01*
X117819466Y-85924095D02*
X117819466Y-85124095D01*
X117819466Y-85124095D02*
X118219466Y-85924095D01*
X118219466Y-85924095D02*
X118219466Y-85124095D01*
X111379067Y-77745390D02*
X111312400Y-77707295D01*
X111312400Y-77707295D02*
X111212400Y-77707295D01*
X111212400Y-77707295D02*
X111112400Y-77745390D01*
X111112400Y-77745390D02*
X111045734Y-77821580D01*
X111045734Y-77821580D02*
X111012400Y-77897771D01*
X111012400Y-77897771D02*
X110979067Y-78050152D01*
X110979067Y-78050152D02*
X110979067Y-78164438D01*
X110979067Y-78164438D02*
X111012400Y-78316819D01*
X111012400Y-78316819D02*
X111045734Y-78393009D01*
X111045734Y-78393009D02*
X111112400Y-78469200D01*
X111112400Y-78469200D02*
X111212400Y-78507295D01*
X111212400Y-78507295D02*
X111279067Y-78507295D01*
X111279067Y-78507295D02*
X111379067Y-78469200D01*
X111379067Y-78469200D02*
X111412400Y-78431104D01*
X111412400Y-78431104D02*
X111412400Y-78164438D01*
X111412400Y-78164438D02*
X111279067Y-78164438D01*
X111712400Y-78507295D02*
X111712400Y-77707295D01*
X111712400Y-77707295D02*
X112112400Y-78507295D01*
X112112400Y-78507295D02*
X112112400Y-77707295D01*
X112445733Y-78507295D02*
X112445733Y-77707295D01*
X112445733Y-77707295D02*
X112612400Y-77707295D01*
X112612400Y-77707295D02*
X112712400Y-77745390D01*
X112712400Y-77745390D02*
X112779067Y-77821580D01*
X112779067Y-77821580D02*
X112812400Y-77897771D01*
X112812400Y-77897771D02*
X112845733Y-78050152D01*
X112845733Y-78050152D02*
X112845733Y-78164438D01*
X112845733Y-78164438D02*
X112812400Y-78316819D01*
X112812400Y-78316819D02*
X112779067Y-78393009D01*
X112779067Y-78393009D02*
X112712400Y-78469200D01*
X112712400Y-78469200D02*
X112612400Y-78507295D01*
X112612400Y-78507295D02*
X112445733Y-78507295D01*
X105230666Y-108530095D02*
X104830666Y-108530095D01*
X105030666Y-108530095D02*
X105030666Y-107730095D01*
X105030666Y-107730095D02*
X104963999Y-107844380D01*
X104963999Y-107844380D02*
X104897333Y-107920571D01*
X104897333Y-107920571D02*
X104830666Y-107958666D01*
X105497333Y-107806285D02*
X105530666Y-107768190D01*
X105530666Y-107768190D02*
X105597333Y-107730095D01*
X105597333Y-107730095D02*
X105764000Y-107730095D01*
X105764000Y-107730095D02*
X105830666Y-107768190D01*
X105830666Y-107768190D02*
X105864000Y-107806285D01*
X105864000Y-107806285D02*
X105897333Y-107882476D01*
X105897333Y-107882476D02*
X105897333Y-107958666D01*
X105897333Y-107958666D02*
X105864000Y-108072952D01*
X105864000Y-108072952D02*
X105464000Y-108530095D01*
X105464000Y-108530095D02*
X105897333Y-108530095D01*
X106097333Y-107730095D02*
X106330667Y-108530095D01*
X106330667Y-108530095D02*
X106564000Y-107730095D01*
X106191067Y-73389295D02*
X105857733Y-73389295D01*
X105857733Y-73389295D02*
X105824400Y-73770247D01*
X105824400Y-73770247D02*
X105857733Y-73732152D01*
X105857733Y-73732152D02*
X105924400Y-73694057D01*
X105924400Y-73694057D02*
X106091067Y-73694057D01*
X106091067Y-73694057D02*
X106157733Y-73732152D01*
X106157733Y-73732152D02*
X106191067Y-73770247D01*
X106191067Y-73770247D02*
X106224400Y-73846438D01*
X106224400Y-73846438D02*
X106224400Y-74036914D01*
X106224400Y-74036914D02*
X106191067Y-74113104D01*
X106191067Y-74113104D02*
X106157733Y-74151200D01*
X106157733Y-74151200D02*
X106091067Y-74189295D01*
X106091067Y-74189295D02*
X105924400Y-74189295D01*
X105924400Y-74189295D02*
X105857733Y-74151200D01*
X105857733Y-74151200D02*
X105824400Y-74113104D01*
X106424400Y-73389295D02*
X106657734Y-74189295D01*
X106657734Y-74189295D02*
X106891067Y-73389295D01*
X100374467Y-88045095D02*
X100041133Y-88045095D01*
X100041133Y-88045095D02*
X100007800Y-88426047D01*
X100007800Y-88426047D02*
X100041133Y-88387952D01*
X100041133Y-88387952D02*
X100107800Y-88349857D01*
X100107800Y-88349857D02*
X100274467Y-88349857D01*
X100274467Y-88349857D02*
X100341133Y-88387952D01*
X100341133Y-88387952D02*
X100374467Y-88426047D01*
X100374467Y-88426047D02*
X100407800Y-88502238D01*
X100407800Y-88502238D02*
X100407800Y-88692714D01*
X100407800Y-88692714D02*
X100374467Y-88768904D01*
X100374467Y-88768904D02*
X100341133Y-88807000D01*
X100341133Y-88807000D02*
X100274467Y-88845095D01*
X100274467Y-88845095D02*
X100107800Y-88845095D01*
X100107800Y-88845095D02*
X100041133Y-88807000D01*
X100041133Y-88807000D02*
X100007800Y-88768904D01*
X100607800Y-88045095D02*
X100841134Y-88845095D01*
X100841134Y-88845095D02*
X101074467Y-88045095D01*
X100185667Y-116289895D02*
X100619000Y-116289895D01*
X100619000Y-116289895D02*
X100385667Y-116594657D01*
X100385667Y-116594657D02*
X100485667Y-116594657D01*
X100485667Y-116594657D02*
X100552333Y-116632752D01*
X100552333Y-116632752D02*
X100585667Y-116670847D01*
X100585667Y-116670847D02*
X100619000Y-116747038D01*
X100619000Y-116747038D02*
X100619000Y-116937514D01*
X100619000Y-116937514D02*
X100585667Y-117013704D01*
X100585667Y-117013704D02*
X100552333Y-117051800D01*
X100552333Y-117051800D02*
X100485667Y-117089895D01*
X100485667Y-117089895D02*
X100285667Y-117089895D01*
X100285667Y-117089895D02*
X100219000Y-117051800D01*
X100219000Y-117051800D02*
X100185667Y-117013704D01*
X100919000Y-117013704D02*
X100952334Y-117051800D01*
X100952334Y-117051800D02*
X100919000Y-117089895D01*
X100919000Y-117089895D02*
X100885667Y-117051800D01*
X100885667Y-117051800D02*
X100919000Y-117013704D01*
X100919000Y-117013704D02*
X100919000Y-117089895D01*
X101185667Y-116289895D02*
X101619000Y-116289895D01*
X101619000Y-116289895D02*
X101385667Y-116594657D01*
X101385667Y-116594657D02*
X101485667Y-116594657D01*
X101485667Y-116594657D02*
X101552333Y-116632752D01*
X101552333Y-116632752D02*
X101585667Y-116670847D01*
X101585667Y-116670847D02*
X101619000Y-116747038D01*
X101619000Y-116747038D02*
X101619000Y-116937514D01*
X101619000Y-116937514D02*
X101585667Y-117013704D01*
X101585667Y-117013704D02*
X101552333Y-117051800D01*
X101552333Y-117051800D02*
X101485667Y-117089895D01*
X101485667Y-117089895D02*
X101285667Y-117089895D01*
X101285667Y-117089895D02*
X101219000Y-117051800D01*
X101219000Y-117051800D02*
X101185667Y-117013704D01*
X101819000Y-116289895D02*
X102052334Y-117089895D01*
X102052334Y-117089895D02*
X102285667Y-116289895D01*
X102039867Y-107704695D02*
X102473200Y-107704695D01*
X102473200Y-107704695D02*
X102239867Y-108009457D01*
X102239867Y-108009457D02*
X102339867Y-108009457D01*
X102339867Y-108009457D02*
X102406533Y-108047552D01*
X102406533Y-108047552D02*
X102439867Y-108085647D01*
X102439867Y-108085647D02*
X102473200Y-108161838D01*
X102473200Y-108161838D02*
X102473200Y-108352314D01*
X102473200Y-108352314D02*
X102439867Y-108428504D01*
X102439867Y-108428504D02*
X102406533Y-108466600D01*
X102406533Y-108466600D02*
X102339867Y-108504695D01*
X102339867Y-108504695D02*
X102139867Y-108504695D01*
X102139867Y-108504695D02*
X102073200Y-108466600D01*
X102073200Y-108466600D02*
X102039867Y-108428504D01*
X102773200Y-108428504D02*
X102806534Y-108466600D01*
X102806534Y-108466600D02*
X102773200Y-108504695D01*
X102773200Y-108504695D02*
X102739867Y-108466600D01*
X102739867Y-108466600D02*
X102773200Y-108428504D01*
X102773200Y-108428504D02*
X102773200Y-108504695D01*
X103039867Y-107704695D02*
X103473200Y-107704695D01*
X103473200Y-107704695D02*
X103239867Y-108009457D01*
X103239867Y-108009457D02*
X103339867Y-108009457D01*
X103339867Y-108009457D02*
X103406533Y-108047552D01*
X103406533Y-108047552D02*
X103439867Y-108085647D01*
X103439867Y-108085647D02*
X103473200Y-108161838D01*
X103473200Y-108161838D02*
X103473200Y-108352314D01*
X103473200Y-108352314D02*
X103439867Y-108428504D01*
X103439867Y-108428504D02*
X103406533Y-108466600D01*
X103406533Y-108466600D02*
X103339867Y-108504695D01*
X103339867Y-108504695D02*
X103139867Y-108504695D01*
X103139867Y-108504695D02*
X103073200Y-108466600D01*
X103073200Y-108466600D02*
X103039867Y-108428504D01*
X103673200Y-107704695D02*
X103906534Y-108504695D01*
X103906534Y-108504695D02*
X104139867Y-107704695D01*
X111404467Y-112060790D02*
X111337800Y-112022695D01*
X111337800Y-112022695D02*
X111237800Y-112022695D01*
X111237800Y-112022695D02*
X111137800Y-112060790D01*
X111137800Y-112060790D02*
X111071134Y-112136980D01*
X111071134Y-112136980D02*
X111037800Y-112213171D01*
X111037800Y-112213171D02*
X111004467Y-112365552D01*
X111004467Y-112365552D02*
X111004467Y-112479838D01*
X111004467Y-112479838D02*
X111037800Y-112632219D01*
X111037800Y-112632219D02*
X111071134Y-112708409D01*
X111071134Y-112708409D02*
X111137800Y-112784600D01*
X111137800Y-112784600D02*
X111237800Y-112822695D01*
X111237800Y-112822695D02*
X111304467Y-112822695D01*
X111304467Y-112822695D02*
X111404467Y-112784600D01*
X111404467Y-112784600D02*
X111437800Y-112746504D01*
X111437800Y-112746504D02*
X111437800Y-112479838D01*
X111437800Y-112479838D02*
X111304467Y-112479838D01*
X111737800Y-112822695D02*
X111737800Y-112022695D01*
X111737800Y-112022695D02*
X112137800Y-112822695D01*
X112137800Y-112822695D02*
X112137800Y-112022695D01*
X112471133Y-112822695D02*
X112471133Y-112022695D01*
X112471133Y-112022695D02*
X112637800Y-112022695D01*
X112637800Y-112022695D02*
X112737800Y-112060790D01*
X112737800Y-112060790D02*
X112804467Y-112136980D01*
X112804467Y-112136980D02*
X112837800Y-112213171D01*
X112837800Y-112213171D02*
X112871133Y-112365552D01*
X112871133Y-112365552D02*
X112871133Y-112479838D01*
X112871133Y-112479838D02*
X112837800Y-112632219D01*
X112837800Y-112632219D02*
X112804467Y-112708409D01*
X112804467Y-112708409D02*
X112737800Y-112784600D01*
X112737800Y-112784600D02*
X112637800Y-112822695D01*
X112637800Y-112822695D02*
X112471133Y-112822695D01*
X100185667Y-73440095D02*
X100619000Y-73440095D01*
X100619000Y-73440095D02*
X100385667Y-73744857D01*
X100385667Y-73744857D02*
X100485667Y-73744857D01*
X100485667Y-73744857D02*
X100552333Y-73782952D01*
X100552333Y-73782952D02*
X100585667Y-73821047D01*
X100585667Y-73821047D02*
X100619000Y-73897238D01*
X100619000Y-73897238D02*
X100619000Y-74087714D01*
X100619000Y-74087714D02*
X100585667Y-74163904D01*
X100585667Y-74163904D02*
X100552333Y-74202000D01*
X100552333Y-74202000D02*
X100485667Y-74240095D01*
X100485667Y-74240095D02*
X100285667Y-74240095D01*
X100285667Y-74240095D02*
X100219000Y-74202000D01*
X100219000Y-74202000D02*
X100185667Y-74163904D01*
X100919000Y-74163904D02*
X100952334Y-74202000D01*
X100952334Y-74202000D02*
X100919000Y-74240095D01*
X100919000Y-74240095D02*
X100885667Y-74202000D01*
X100885667Y-74202000D02*
X100919000Y-74163904D01*
X100919000Y-74163904D02*
X100919000Y-74240095D01*
X101185667Y-73440095D02*
X101619000Y-73440095D01*
X101619000Y-73440095D02*
X101385667Y-73744857D01*
X101385667Y-73744857D02*
X101485667Y-73744857D01*
X101485667Y-73744857D02*
X101552333Y-73782952D01*
X101552333Y-73782952D02*
X101585667Y-73821047D01*
X101585667Y-73821047D02*
X101619000Y-73897238D01*
X101619000Y-73897238D02*
X101619000Y-74087714D01*
X101619000Y-74087714D02*
X101585667Y-74163904D01*
X101585667Y-74163904D02*
X101552333Y-74202000D01*
X101552333Y-74202000D02*
X101485667Y-74240095D01*
X101485667Y-74240095D02*
X101285667Y-74240095D01*
X101285667Y-74240095D02*
X101219000Y-74202000D01*
X101219000Y-74202000D02*
X101185667Y-74163904D01*
X101819000Y-73440095D02*
X102052334Y-74240095D01*
X102052334Y-74240095D02*
X102285667Y-73440095D01*
X105256066Y-88794295D02*
X104856066Y-88794295D01*
X105056066Y-88794295D02*
X105056066Y-87994295D01*
X105056066Y-87994295D02*
X104989399Y-88108580D01*
X104989399Y-88108580D02*
X104922733Y-88184771D01*
X104922733Y-88184771D02*
X104856066Y-88222866D01*
X105522733Y-88070485D02*
X105556066Y-88032390D01*
X105556066Y-88032390D02*
X105622733Y-87994295D01*
X105622733Y-87994295D02*
X105789400Y-87994295D01*
X105789400Y-87994295D02*
X105856066Y-88032390D01*
X105856066Y-88032390D02*
X105889400Y-88070485D01*
X105889400Y-88070485D02*
X105922733Y-88146676D01*
X105922733Y-88146676D02*
X105922733Y-88222866D01*
X105922733Y-88222866D02*
X105889400Y-88337152D01*
X105889400Y-88337152D02*
X105489400Y-88794295D01*
X105489400Y-88794295D02*
X105922733Y-88794295D01*
X106122733Y-87994295D02*
X106356067Y-88794295D01*
X106356067Y-88794295D02*
X106589400Y-87994295D01*
X111906134Y-85174895D02*
X112039467Y-85174895D01*
X112039467Y-85174895D02*
X112106134Y-85212990D01*
X112106134Y-85212990D02*
X112172800Y-85289180D01*
X112172800Y-85289180D02*
X112206134Y-85441561D01*
X112206134Y-85441561D02*
X112206134Y-85708228D01*
X112206134Y-85708228D02*
X112172800Y-85860609D01*
X112172800Y-85860609D02*
X112106134Y-85936800D01*
X112106134Y-85936800D02*
X112039467Y-85974895D01*
X112039467Y-85974895D02*
X111906134Y-85974895D01*
X111906134Y-85974895D02*
X111839467Y-85936800D01*
X111839467Y-85936800D02*
X111772800Y-85860609D01*
X111772800Y-85860609D02*
X111739467Y-85708228D01*
X111739467Y-85708228D02*
X111739467Y-85441561D01*
X111739467Y-85441561D02*
X111772800Y-85289180D01*
X111772800Y-85289180D02*
X111839467Y-85212990D01*
X111839467Y-85212990D02*
X111906134Y-85174895D01*
X112739467Y-85555847D02*
X112506133Y-85555847D01*
X112506133Y-85974895D02*
X112506133Y-85174895D01*
X112506133Y-85174895D02*
X112839467Y-85174895D01*
X113339467Y-85555847D02*
X113106133Y-85555847D01*
X113106133Y-85974895D02*
X113106133Y-85174895D01*
X113106133Y-85174895D02*
X113439467Y-85174895D01*
X106191067Y-116289895D02*
X105857733Y-116289895D01*
X105857733Y-116289895D02*
X105824400Y-116670847D01*
X105824400Y-116670847D02*
X105857733Y-116632752D01*
X105857733Y-116632752D02*
X105924400Y-116594657D01*
X105924400Y-116594657D02*
X106091067Y-116594657D01*
X106091067Y-116594657D02*
X106157733Y-116632752D01*
X106157733Y-116632752D02*
X106191067Y-116670847D01*
X106191067Y-116670847D02*
X106224400Y-116747038D01*
X106224400Y-116747038D02*
X106224400Y-116937514D01*
X106224400Y-116937514D02*
X106191067Y-117013704D01*
X106191067Y-117013704D02*
X106157733Y-117051800D01*
X106157733Y-117051800D02*
X106091067Y-117089895D01*
X106091067Y-117089895D02*
X105924400Y-117089895D01*
X105924400Y-117089895D02*
X105857733Y-117051800D01*
X105857733Y-117051800D02*
X105824400Y-117013704D01*
X106424400Y-116289895D02*
X106657734Y-117089895D01*
X106657734Y-117089895D02*
X106891067Y-116289895D01*
%TO.C,U2*%
X102616066Y-88030495D02*
X102616066Y-88678114D01*
X102616066Y-88678114D02*
X102649400Y-88754304D01*
X102649400Y-88754304D02*
X102682733Y-88792400D01*
X102682733Y-88792400D02*
X102749400Y-88830495D01*
X102749400Y-88830495D02*
X102882733Y-88830495D01*
X102882733Y-88830495D02*
X102949400Y-88792400D01*
X102949400Y-88792400D02*
X102982733Y-88754304D01*
X102982733Y-88754304D02*
X103016066Y-88678114D01*
X103016066Y-88678114D02*
X103016066Y-88030495D01*
X103316066Y-88106685D02*
X103349399Y-88068590D01*
X103349399Y-88068590D02*
X103416066Y-88030495D01*
X103416066Y-88030495D02*
X103582733Y-88030495D01*
X103582733Y-88030495D02*
X103649399Y-88068590D01*
X103649399Y-88068590D02*
X103682733Y-88106685D01*
X103682733Y-88106685D02*
X103716066Y-88182876D01*
X103716066Y-88182876D02*
X103716066Y-88259066D01*
X103716066Y-88259066D02*
X103682733Y-88373352D01*
X103682733Y-88373352D02*
X103282733Y-88830495D01*
X103282733Y-88830495D02*
X103716066Y-88830495D01*
X99707333Y-82251895D02*
X99373999Y-82251895D01*
X99373999Y-82251895D02*
X99373999Y-81451895D01*
X99940666Y-82251895D02*
X99940666Y-81451895D01*
X99940666Y-81451895D02*
X100174000Y-82023323D01*
X100174000Y-82023323D02*
X100407333Y-81451895D01*
X100407333Y-81451895D02*
X100407333Y-82251895D01*
X100674000Y-81451895D02*
X101140666Y-81451895D01*
X101140666Y-81451895D02*
X100840666Y-82251895D01*
X101507333Y-81794752D02*
X101440667Y-81756657D01*
X101440667Y-81756657D02*
X101407333Y-81718561D01*
X101407333Y-81718561D02*
X101374000Y-81642371D01*
X101374000Y-81642371D02*
X101374000Y-81604276D01*
X101374000Y-81604276D02*
X101407333Y-81528085D01*
X101407333Y-81528085D02*
X101440667Y-81489990D01*
X101440667Y-81489990D02*
X101507333Y-81451895D01*
X101507333Y-81451895D02*
X101640667Y-81451895D01*
X101640667Y-81451895D02*
X101707333Y-81489990D01*
X101707333Y-81489990D02*
X101740667Y-81528085D01*
X101740667Y-81528085D02*
X101774000Y-81604276D01*
X101774000Y-81604276D02*
X101774000Y-81642371D01*
X101774000Y-81642371D02*
X101740667Y-81718561D01*
X101740667Y-81718561D02*
X101707333Y-81756657D01*
X101707333Y-81756657D02*
X101640667Y-81794752D01*
X101640667Y-81794752D02*
X101507333Y-81794752D01*
X101507333Y-81794752D02*
X101440667Y-81832847D01*
X101440667Y-81832847D02*
X101407333Y-81870942D01*
X101407333Y-81870942D02*
X101374000Y-81947133D01*
X101374000Y-81947133D02*
X101374000Y-82099514D01*
X101374000Y-82099514D02*
X101407333Y-82175704D01*
X101407333Y-82175704D02*
X101440667Y-82213800D01*
X101440667Y-82213800D02*
X101507333Y-82251895D01*
X101507333Y-82251895D02*
X101640667Y-82251895D01*
X101640667Y-82251895D02*
X101707333Y-82213800D01*
X101707333Y-82213800D02*
X101740667Y-82175704D01*
X101740667Y-82175704D02*
X101774000Y-82099514D01*
X101774000Y-82099514D02*
X101774000Y-81947133D01*
X101774000Y-81947133D02*
X101740667Y-81870942D01*
X101740667Y-81870942D02*
X101707333Y-81832847D01*
X101707333Y-81832847D02*
X101640667Y-81794752D01*
X102207334Y-81451895D02*
X102274000Y-81451895D01*
X102274000Y-81451895D02*
X102340667Y-81489990D01*
X102340667Y-81489990D02*
X102374000Y-81528085D01*
X102374000Y-81528085D02*
X102407334Y-81604276D01*
X102407334Y-81604276D02*
X102440667Y-81756657D01*
X102440667Y-81756657D02*
X102440667Y-81947133D01*
X102440667Y-81947133D02*
X102407334Y-82099514D01*
X102407334Y-82099514D02*
X102374000Y-82175704D01*
X102374000Y-82175704D02*
X102340667Y-82213800D01*
X102340667Y-82213800D02*
X102274000Y-82251895D01*
X102274000Y-82251895D02*
X102207334Y-82251895D01*
X102207334Y-82251895D02*
X102140667Y-82213800D01*
X102140667Y-82213800D02*
X102107334Y-82175704D01*
X102107334Y-82175704D02*
X102074000Y-82099514D01*
X102074000Y-82099514D02*
X102040667Y-81947133D01*
X102040667Y-81947133D02*
X102040667Y-81756657D01*
X102040667Y-81756657D02*
X102074000Y-81604276D01*
X102074000Y-81604276D02*
X102107334Y-81528085D01*
X102107334Y-81528085D02*
X102140667Y-81489990D01*
X102140667Y-81489990D02*
X102207334Y-81451895D01*
X103074001Y-81451895D02*
X102740667Y-81451895D01*
X102740667Y-81451895D02*
X102707334Y-81832847D01*
X102707334Y-81832847D02*
X102740667Y-81794752D01*
X102740667Y-81794752D02*
X102807334Y-81756657D01*
X102807334Y-81756657D02*
X102974001Y-81756657D01*
X102974001Y-81756657D02*
X103040667Y-81794752D01*
X103040667Y-81794752D02*
X103074001Y-81832847D01*
X103074001Y-81832847D02*
X103107334Y-81909038D01*
X103107334Y-81909038D02*
X103107334Y-82099514D01*
X103107334Y-82099514D02*
X103074001Y-82175704D01*
X103074001Y-82175704D02*
X103040667Y-82213800D01*
X103040667Y-82213800D02*
X102974001Y-82251895D01*
X102974001Y-82251895D02*
X102807334Y-82251895D01*
X102807334Y-82251895D02*
X102740667Y-82213800D01*
X102740667Y-82213800D02*
X102707334Y-82175704D01*
X103240668Y-82328085D02*
X103774001Y-82328085D01*
X103840667Y-81451895D02*
X104240667Y-81451895D01*
X104040667Y-82251895D02*
X104040667Y-81451895D01*
X104607334Y-81451895D02*
X104740667Y-81451895D01*
X104740667Y-81451895D02*
X104807334Y-81489990D01*
X104807334Y-81489990D02*
X104874000Y-81566180D01*
X104874000Y-81566180D02*
X104907334Y-81718561D01*
X104907334Y-81718561D02*
X104907334Y-81985228D01*
X104907334Y-81985228D02*
X104874000Y-82137609D01*
X104874000Y-82137609D02*
X104807334Y-82213800D01*
X104807334Y-82213800D02*
X104740667Y-82251895D01*
X104740667Y-82251895D02*
X104607334Y-82251895D01*
X104607334Y-82251895D02*
X104540667Y-82213800D01*
X104540667Y-82213800D02*
X104474000Y-82137609D01*
X104474000Y-82137609D02*
X104440667Y-81985228D01*
X104440667Y-81985228D02*
X104440667Y-81718561D01*
X104440667Y-81718561D02*
X104474000Y-81566180D01*
X104474000Y-81566180D02*
X104540667Y-81489990D01*
X104540667Y-81489990D02*
X104607334Y-81451895D01*
X105174000Y-81528085D02*
X105207333Y-81489990D01*
X105207333Y-81489990D02*
X105274000Y-81451895D01*
X105274000Y-81451895D02*
X105440667Y-81451895D01*
X105440667Y-81451895D02*
X105507333Y-81489990D01*
X105507333Y-81489990D02*
X105540667Y-81528085D01*
X105540667Y-81528085D02*
X105574000Y-81604276D01*
X105574000Y-81604276D02*
X105574000Y-81680466D01*
X105574000Y-81680466D02*
X105540667Y-81794752D01*
X105540667Y-81794752D02*
X105140667Y-82251895D01*
X105140667Y-82251895D02*
X105574000Y-82251895D01*
X105840667Y-81528085D02*
X105874000Y-81489990D01*
X105874000Y-81489990D02*
X105940667Y-81451895D01*
X105940667Y-81451895D02*
X106107334Y-81451895D01*
X106107334Y-81451895D02*
X106174000Y-81489990D01*
X106174000Y-81489990D02*
X106207334Y-81528085D01*
X106207334Y-81528085D02*
X106240667Y-81604276D01*
X106240667Y-81604276D02*
X106240667Y-81680466D01*
X106240667Y-81680466D02*
X106207334Y-81794752D01*
X106207334Y-81794752D02*
X105807334Y-82251895D01*
X105807334Y-82251895D02*
X106240667Y-82251895D01*
X106674001Y-81451895D02*
X106740667Y-81451895D01*
X106740667Y-81451895D02*
X106807334Y-81489990D01*
X106807334Y-81489990D02*
X106840667Y-81528085D01*
X106840667Y-81528085D02*
X106874001Y-81604276D01*
X106874001Y-81604276D02*
X106907334Y-81756657D01*
X106907334Y-81756657D02*
X106907334Y-81947133D01*
X106907334Y-81947133D02*
X106874001Y-82099514D01*
X106874001Y-82099514D02*
X106840667Y-82175704D01*
X106840667Y-82175704D02*
X106807334Y-82213800D01*
X106807334Y-82213800D02*
X106740667Y-82251895D01*
X106740667Y-82251895D02*
X106674001Y-82251895D01*
X106674001Y-82251895D02*
X106607334Y-82213800D01*
X106607334Y-82213800D02*
X106574001Y-82175704D01*
X106574001Y-82175704D02*
X106540667Y-82099514D01*
X106540667Y-82099514D02*
X106507334Y-81947133D01*
X106507334Y-81947133D02*
X106507334Y-81756657D01*
X106507334Y-81756657D02*
X106540667Y-81604276D01*
X106540667Y-81604276D02*
X106574001Y-81528085D01*
X106574001Y-81528085D02*
X106607334Y-81489990D01*
X106607334Y-81489990D02*
X106674001Y-81451895D01*
%TO.C,D1*%
X117313933Y-90964095D02*
X117313933Y-90164095D01*
X117313933Y-90164095D02*
X117480600Y-90164095D01*
X117480600Y-90164095D02*
X117580600Y-90202190D01*
X117580600Y-90202190D02*
X117647267Y-90278380D01*
X117647267Y-90278380D02*
X117680600Y-90354571D01*
X117680600Y-90354571D02*
X117713933Y-90506952D01*
X117713933Y-90506952D02*
X117713933Y-90621238D01*
X117713933Y-90621238D02*
X117680600Y-90773619D01*
X117680600Y-90773619D02*
X117647267Y-90849809D01*
X117647267Y-90849809D02*
X117580600Y-90926000D01*
X117580600Y-90926000D02*
X117480600Y-90964095D01*
X117480600Y-90964095D02*
X117313933Y-90964095D01*
X118380600Y-90964095D02*
X117980600Y-90964095D01*
X118180600Y-90964095D02*
X118180600Y-90164095D01*
X118180600Y-90164095D02*
X118113933Y-90278380D01*
X118113933Y-90278380D02*
X118047267Y-90354571D01*
X118047267Y-90354571D02*
X117980600Y-90392666D01*
X117380600Y-98965095D02*
X117047266Y-98965095D01*
X117047266Y-98965095D02*
X117047266Y-98165095D01*
X117613933Y-98546047D02*
X117847267Y-98546047D01*
X117947267Y-98965095D02*
X117613933Y-98965095D01*
X117613933Y-98965095D02*
X117613933Y-98165095D01*
X117613933Y-98165095D02*
X117947267Y-98165095D01*
X118247266Y-98965095D02*
X118247266Y-98165095D01*
X118247266Y-98165095D02*
X118413933Y-98165095D01*
X118413933Y-98165095D02*
X118513933Y-98203190D01*
X118513933Y-98203190D02*
X118580600Y-98279380D01*
X118580600Y-98279380D02*
X118613933Y-98355571D01*
X118613933Y-98355571D02*
X118647266Y-98507952D01*
X118647266Y-98507952D02*
X118647266Y-98622238D01*
X118647266Y-98622238D02*
X118613933Y-98774619D01*
X118613933Y-98774619D02*
X118580600Y-98850809D01*
X118580600Y-98850809D02*
X118513933Y-98927000D01*
X118513933Y-98927000D02*
X118413933Y-98965095D01*
X118413933Y-98965095D02*
X118247266Y-98965095D01*
%TO.C,C1*%
X106639533Y-77552904D02*
X106606200Y-77591000D01*
X106606200Y-77591000D02*
X106506200Y-77629095D01*
X106506200Y-77629095D02*
X106439533Y-77629095D01*
X106439533Y-77629095D02*
X106339533Y-77591000D01*
X106339533Y-77591000D02*
X106272867Y-77514809D01*
X106272867Y-77514809D02*
X106239533Y-77438619D01*
X106239533Y-77438619D02*
X106206200Y-77286238D01*
X106206200Y-77286238D02*
X106206200Y-77171952D01*
X106206200Y-77171952D02*
X106239533Y-77019571D01*
X106239533Y-77019571D02*
X106272867Y-76943380D01*
X106272867Y-76943380D02*
X106339533Y-76867190D01*
X106339533Y-76867190D02*
X106439533Y-76829095D01*
X106439533Y-76829095D02*
X106506200Y-76829095D01*
X106506200Y-76829095D02*
X106606200Y-76867190D01*
X106606200Y-76867190D02*
X106639533Y-76905285D01*
X107306200Y-77629095D02*
X106906200Y-77629095D01*
X107106200Y-77629095D02*
X107106200Y-76829095D01*
X107106200Y-76829095D02*
X107039533Y-76943380D01*
X107039533Y-76943380D02*
X106972867Y-77019571D01*
X106972867Y-77019571D02*
X106906200Y-77057666D01*
X103766200Y-77654495D02*
X103366200Y-77654495D01*
X103566200Y-77654495D02*
X103566200Y-76854495D01*
X103566200Y-76854495D02*
X103499533Y-76968780D01*
X103499533Y-76968780D02*
X103432867Y-77044971D01*
X103432867Y-77044971D02*
X103366200Y-77083066D01*
X104199534Y-76854495D02*
X104266200Y-76854495D01*
X104266200Y-76854495D02*
X104332867Y-76892590D01*
X104332867Y-76892590D02*
X104366200Y-76930685D01*
X104366200Y-76930685D02*
X104399534Y-77006876D01*
X104399534Y-77006876D02*
X104432867Y-77159257D01*
X104432867Y-77159257D02*
X104432867Y-77349733D01*
X104432867Y-77349733D02*
X104399534Y-77502114D01*
X104399534Y-77502114D02*
X104366200Y-77578304D01*
X104366200Y-77578304D02*
X104332867Y-77616400D01*
X104332867Y-77616400D02*
X104266200Y-77654495D01*
X104266200Y-77654495D02*
X104199534Y-77654495D01*
X104199534Y-77654495D02*
X104132867Y-77616400D01*
X104132867Y-77616400D02*
X104099534Y-77578304D01*
X104099534Y-77578304D02*
X104066200Y-77502114D01*
X104066200Y-77502114D02*
X104032867Y-77349733D01*
X104032867Y-77349733D02*
X104032867Y-77159257D01*
X104032867Y-77159257D02*
X104066200Y-77006876D01*
X104066200Y-77006876D02*
X104099534Y-76930685D01*
X104099534Y-76930685D02*
X104132867Y-76892590D01*
X104132867Y-76892590D02*
X104199534Y-76854495D01*
X105032867Y-77121161D02*
X105032867Y-77654495D01*
X104732867Y-77121161D02*
X104732867Y-77540209D01*
X104732867Y-77540209D02*
X104766201Y-77616400D01*
X104766201Y-77616400D02*
X104832867Y-77654495D01*
X104832867Y-77654495D02*
X104932867Y-77654495D01*
X104932867Y-77654495D02*
X104999534Y-77616400D01*
X104999534Y-77616400D02*
X105032867Y-77578304D01*
%TO.C,J3*%
X121661266Y-73120695D02*
X121661266Y-73692123D01*
X121661266Y-73692123D02*
X121627933Y-73806409D01*
X121627933Y-73806409D02*
X121561266Y-73882600D01*
X121561266Y-73882600D02*
X121461266Y-73920695D01*
X121461266Y-73920695D02*
X121394600Y-73920695D01*
X121927933Y-73120695D02*
X122361266Y-73120695D01*
X122361266Y-73120695D02*
X122127933Y-73425457D01*
X122127933Y-73425457D02*
X122227933Y-73425457D01*
X122227933Y-73425457D02*
X122294599Y-73463552D01*
X122294599Y-73463552D02*
X122327933Y-73501647D01*
X122327933Y-73501647D02*
X122361266Y-73577838D01*
X122361266Y-73577838D02*
X122361266Y-73768314D01*
X122361266Y-73768314D02*
X122327933Y-73844504D01*
X122327933Y-73844504D02*
X122294599Y-73882600D01*
X122294599Y-73882600D02*
X122227933Y-73920695D01*
X122227933Y-73920695D02*
X122027933Y-73920695D01*
X122027933Y-73920695D02*
X121961266Y-73882600D01*
X121961266Y-73882600D02*
X121927933Y-73844504D01*
%TO.C,J5*%
X103525666Y-116300695D02*
X103525666Y-116872123D01*
X103525666Y-116872123D02*
X103492333Y-116986409D01*
X103492333Y-116986409D02*
X103425666Y-117062600D01*
X103425666Y-117062600D02*
X103325666Y-117100695D01*
X103325666Y-117100695D02*
X103259000Y-117100695D01*
X104192333Y-116300695D02*
X103858999Y-116300695D01*
X103858999Y-116300695D02*
X103825666Y-116681647D01*
X103825666Y-116681647D02*
X103858999Y-116643552D01*
X103858999Y-116643552D02*
X103925666Y-116605457D01*
X103925666Y-116605457D02*
X104092333Y-116605457D01*
X104092333Y-116605457D02*
X104158999Y-116643552D01*
X104158999Y-116643552D02*
X104192333Y-116681647D01*
X104192333Y-116681647D02*
X104225666Y-116757838D01*
X104225666Y-116757838D02*
X104225666Y-116948314D01*
X104225666Y-116948314D02*
X104192333Y-117024504D01*
X104192333Y-117024504D02*
X104158999Y-117062600D01*
X104158999Y-117062600D02*
X104092333Y-117100695D01*
X104092333Y-117100695D02*
X103925666Y-117100695D01*
X103925666Y-117100695D02*
X103858999Y-117062600D01*
X103858999Y-117062600D02*
X103825666Y-117024504D01*
%TO.C,C2*%
X103997933Y-111207904D02*
X103964600Y-111246000D01*
X103964600Y-111246000D02*
X103864600Y-111284095D01*
X103864600Y-111284095D02*
X103797933Y-111284095D01*
X103797933Y-111284095D02*
X103697933Y-111246000D01*
X103697933Y-111246000D02*
X103631267Y-111169809D01*
X103631267Y-111169809D02*
X103597933Y-111093619D01*
X103597933Y-111093619D02*
X103564600Y-110941238D01*
X103564600Y-110941238D02*
X103564600Y-110826952D01*
X103564600Y-110826952D02*
X103597933Y-110674571D01*
X103597933Y-110674571D02*
X103631267Y-110598380D01*
X103631267Y-110598380D02*
X103697933Y-110522190D01*
X103697933Y-110522190D02*
X103797933Y-110484095D01*
X103797933Y-110484095D02*
X103864600Y-110484095D01*
X103864600Y-110484095D02*
X103964600Y-110522190D01*
X103964600Y-110522190D02*
X103997933Y-110560285D01*
X104264600Y-110560285D02*
X104297933Y-110522190D01*
X104297933Y-110522190D02*
X104364600Y-110484095D01*
X104364600Y-110484095D02*
X104531267Y-110484095D01*
X104531267Y-110484095D02*
X104597933Y-110522190D01*
X104597933Y-110522190D02*
X104631267Y-110560285D01*
X104631267Y-110560285D02*
X104664600Y-110636476D01*
X104664600Y-110636476D02*
X104664600Y-110712666D01*
X104664600Y-110712666D02*
X104631267Y-110826952D01*
X104631267Y-110826952D02*
X104231267Y-111284095D01*
X104231267Y-111284095D02*
X104664600Y-111284095D01*
X101457933Y-111182495D02*
X101057933Y-111182495D01*
X101257933Y-111182495D02*
X101257933Y-110382495D01*
X101257933Y-110382495D02*
X101191266Y-110496780D01*
X101191266Y-110496780D02*
X101124600Y-110572971D01*
X101124600Y-110572971D02*
X101057933Y-110611066D01*
X102057933Y-110649161D02*
X102057933Y-111182495D01*
X101757933Y-110649161D02*
X101757933Y-111068209D01*
X101757933Y-111068209D02*
X101791267Y-111144400D01*
X101791267Y-111144400D02*
X101857933Y-111182495D01*
X101857933Y-111182495D02*
X101957933Y-111182495D01*
X101957933Y-111182495D02*
X102024600Y-111144400D01*
X102024600Y-111144400D02*
X102057933Y-111106304D01*
%TO.C,J4*%
X116784466Y-77718095D02*
X116784466Y-78289523D01*
X116784466Y-78289523D02*
X116751133Y-78403809D01*
X116751133Y-78403809D02*
X116684466Y-78480000D01*
X116684466Y-78480000D02*
X116584466Y-78518095D01*
X116584466Y-78518095D02*
X116517800Y-78518095D01*
X117417799Y-77984761D02*
X117417799Y-78518095D01*
X117251133Y-77680000D02*
X117084466Y-78251428D01*
X117084466Y-78251428D02*
X117517799Y-78251428D01*
%TO.C,J6*%
X121432666Y-119399495D02*
X121432666Y-119970923D01*
X121432666Y-119970923D02*
X121399333Y-120085209D01*
X121399333Y-120085209D02*
X121332666Y-120161400D01*
X121332666Y-120161400D02*
X121232666Y-120199495D01*
X121232666Y-120199495D02*
X121166000Y-120199495D01*
X122065999Y-119399495D02*
X121932666Y-119399495D01*
X121932666Y-119399495D02*
X121865999Y-119437590D01*
X121865999Y-119437590D02*
X121832666Y-119475685D01*
X121832666Y-119475685D02*
X121765999Y-119589971D01*
X121765999Y-119589971D02*
X121732666Y-119742352D01*
X121732666Y-119742352D02*
X121732666Y-120047114D01*
X121732666Y-120047114D02*
X121765999Y-120123304D01*
X121765999Y-120123304D02*
X121799333Y-120161400D01*
X121799333Y-120161400D02*
X121865999Y-120199495D01*
X121865999Y-120199495D02*
X121999333Y-120199495D01*
X121999333Y-120199495D02*
X122065999Y-120161400D01*
X122065999Y-120161400D02*
X122099333Y-120123304D01*
X122099333Y-120123304D02*
X122132666Y-120047114D01*
X122132666Y-120047114D02*
X122132666Y-119856638D01*
X122132666Y-119856638D02*
X122099333Y-119780447D01*
X122099333Y-119780447D02*
X122065999Y-119742352D01*
X122065999Y-119742352D02*
X121999333Y-119704257D01*
X121999333Y-119704257D02*
X121865999Y-119704257D01*
X121865999Y-119704257D02*
X121799333Y-119742352D01*
X121799333Y-119742352D02*
X121765999Y-119780447D01*
X121765999Y-119780447D02*
X121732666Y-119856638D01*
%TO.C,J1*%
X104668666Y-99790695D02*
X104668666Y-100362123D01*
X104668666Y-100362123D02*
X104635333Y-100476409D01*
X104635333Y-100476409D02*
X104568666Y-100552600D01*
X104568666Y-100552600D02*
X104468666Y-100590695D01*
X104468666Y-100590695D02*
X104402000Y-100590695D01*
X105368666Y-100590695D02*
X104968666Y-100590695D01*
X105168666Y-100590695D02*
X105168666Y-99790695D01*
X105168666Y-99790695D02*
X105101999Y-99904980D01*
X105101999Y-99904980D02*
X105035333Y-99981171D01*
X105035333Y-99981171D02*
X104968666Y-100019266D01*
%TO.C,S1*%
X114528666Y-80054800D02*
X114628666Y-80092895D01*
X114628666Y-80092895D02*
X114795333Y-80092895D01*
X114795333Y-80092895D02*
X114861999Y-80054800D01*
X114861999Y-80054800D02*
X114895333Y-80016704D01*
X114895333Y-80016704D02*
X114928666Y-79940514D01*
X114928666Y-79940514D02*
X114928666Y-79864323D01*
X114928666Y-79864323D02*
X114895333Y-79788133D01*
X114895333Y-79788133D02*
X114861999Y-79750038D01*
X114861999Y-79750038D02*
X114795333Y-79711942D01*
X114795333Y-79711942D02*
X114661999Y-79673847D01*
X114661999Y-79673847D02*
X114595333Y-79635752D01*
X114595333Y-79635752D02*
X114561999Y-79597657D01*
X114561999Y-79597657D02*
X114528666Y-79521466D01*
X114528666Y-79521466D02*
X114528666Y-79445276D01*
X114528666Y-79445276D02*
X114561999Y-79369085D01*
X114561999Y-79369085D02*
X114595333Y-79330990D01*
X114595333Y-79330990D02*
X114661999Y-79292895D01*
X114661999Y-79292895D02*
X114828666Y-79292895D01*
X114828666Y-79292895D02*
X114928666Y-79330990D01*
X115595333Y-80092895D02*
X115195333Y-80092895D01*
X115395333Y-80092895D02*
X115395333Y-79292895D01*
X115395333Y-79292895D02*
X115328666Y-79407180D01*
X115328666Y-79407180D02*
X115262000Y-79483371D01*
X115262000Y-79483371D02*
X115195333Y-79521466D01*
%TO.C,R2*%
X112887933Y-106305695D02*
X112654600Y-105924742D01*
X112487933Y-106305695D02*
X112487933Y-105505695D01*
X112487933Y-105505695D02*
X112754600Y-105505695D01*
X112754600Y-105505695D02*
X112821267Y-105543790D01*
X112821267Y-105543790D02*
X112854600Y-105581885D01*
X112854600Y-105581885D02*
X112887933Y-105658076D01*
X112887933Y-105658076D02*
X112887933Y-105772361D01*
X112887933Y-105772361D02*
X112854600Y-105848552D01*
X112854600Y-105848552D02*
X112821267Y-105886647D01*
X112821267Y-105886647D02*
X112754600Y-105924742D01*
X112754600Y-105924742D02*
X112487933Y-105924742D01*
X113154600Y-105581885D02*
X113187933Y-105543790D01*
X113187933Y-105543790D02*
X113254600Y-105505695D01*
X113254600Y-105505695D02*
X113421267Y-105505695D01*
X113421267Y-105505695D02*
X113487933Y-105543790D01*
X113487933Y-105543790D02*
X113521267Y-105581885D01*
X113521267Y-105581885D02*
X113554600Y-105658076D01*
X113554600Y-105658076D02*
X113554600Y-105734266D01*
X113554600Y-105734266D02*
X113521267Y-105848552D01*
X113521267Y-105848552D02*
X113121267Y-106305695D01*
X113121267Y-106305695D02*
X113554600Y-106305695D01*
X114974800Y-105404095D02*
X115408133Y-105404095D01*
X115408133Y-105404095D02*
X115174800Y-105708857D01*
X115174800Y-105708857D02*
X115274800Y-105708857D01*
X115274800Y-105708857D02*
X115341466Y-105746952D01*
X115341466Y-105746952D02*
X115374800Y-105785047D01*
X115374800Y-105785047D02*
X115408133Y-105861238D01*
X115408133Y-105861238D02*
X115408133Y-106051714D01*
X115408133Y-106051714D02*
X115374800Y-106127904D01*
X115374800Y-106127904D02*
X115341466Y-106166000D01*
X115341466Y-106166000D02*
X115274800Y-106204095D01*
X115274800Y-106204095D02*
X115074800Y-106204095D01*
X115074800Y-106204095D02*
X115008133Y-106166000D01*
X115008133Y-106166000D02*
X114974800Y-106127904D01*
X115641467Y-105404095D02*
X116074800Y-105404095D01*
X116074800Y-105404095D02*
X115841467Y-105708857D01*
X115841467Y-105708857D02*
X115941467Y-105708857D01*
X115941467Y-105708857D02*
X116008133Y-105746952D01*
X116008133Y-105746952D02*
X116041467Y-105785047D01*
X116041467Y-105785047D02*
X116074800Y-105861238D01*
X116074800Y-105861238D02*
X116074800Y-106051714D01*
X116074800Y-106051714D02*
X116041467Y-106127904D01*
X116041467Y-106127904D02*
X116008133Y-106166000D01*
X116008133Y-106166000D02*
X115941467Y-106204095D01*
X115941467Y-106204095D02*
X115741467Y-106204095D01*
X115741467Y-106204095D02*
X115674800Y-106166000D01*
X115674800Y-106166000D02*
X115641467Y-106127904D01*
X116508134Y-105404095D02*
X116574800Y-105404095D01*
X116574800Y-105404095D02*
X116641467Y-105442190D01*
X116641467Y-105442190D02*
X116674800Y-105480285D01*
X116674800Y-105480285D02*
X116708134Y-105556476D01*
X116708134Y-105556476D02*
X116741467Y-105708857D01*
X116741467Y-105708857D02*
X116741467Y-105899333D01*
X116741467Y-105899333D02*
X116708134Y-106051714D01*
X116708134Y-106051714D02*
X116674800Y-106127904D01*
X116674800Y-106127904D02*
X116641467Y-106166000D01*
X116641467Y-106166000D02*
X116574800Y-106204095D01*
X116574800Y-106204095D02*
X116508134Y-106204095D01*
X116508134Y-106204095D02*
X116441467Y-106166000D01*
X116441467Y-106166000D02*
X116408134Y-106127904D01*
X116408134Y-106127904D02*
X116374800Y-106051714D01*
X116374800Y-106051714D02*
X116341467Y-105899333D01*
X116341467Y-105899333D02*
X116341467Y-105708857D01*
X116341467Y-105708857D02*
X116374800Y-105556476D01*
X116374800Y-105556476D02*
X116408134Y-105480285D01*
X116408134Y-105480285D02*
X116441467Y-105442190D01*
X116441467Y-105442190D02*
X116508134Y-105404095D01*
%TO.C,U1*%
X100050666Y-107710295D02*
X100050666Y-108357914D01*
X100050666Y-108357914D02*
X100084000Y-108434104D01*
X100084000Y-108434104D02*
X100117333Y-108472200D01*
X100117333Y-108472200D02*
X100184000Y-108510295D01*
X100184000Y-108510295D02*
X100317333Y-108510295D01*
X100317333Y-108510295D02*
X100384000Y-108472200D01*
X100384000Y-108472200D02*
X100417333Y-108434104D01*
X100417333Y-108434104D02*
X100450666Y-108357914D01*
X100450666Y-108357914D02*
X100450666Y-107710295D01*
X101150666Y-108510295D02*
X100750666Y-108510295D01*
X100950666Y-108510295D02*
X100950666Y-107710295D01*
X100950666Y-107710295D02*
X100883999Y-107824580D01*
X100883999Y-107824580D02*
X100817333Y-107900771D01*
X100817333Y-107900771D02*
X100750666Y-107938866D01*
X99734333Y-102312695D02*
X99400999Y-102312695D01*
X99400999Y-102312695D02*
X99400999Y-101512695D01*
X99967666Y-102312695D02*
X99967666Y-101512695D01*
X99967666Y-101512695D02*
X100201000Y-102084123D01*
X100201000Y-102084123D02*
X100434333Y-101512695D01*
X100434333Y-101512695D02*
X100434333Y-102312695D01*
X100701000Y-101512695D02*
X101134333Y-101512695D01*
X101134333Y-101512695D02*
X100901000Y-101817457D01*
X100901000Y-101817457D02*
X101001000Y-101817457D01*
X101001000Y-101817457D02*
X101067666Y-101855552D01*
X101067666Y-101855552D02*
X101101000Y-101893647D01*
X101101000Y-101893647D02*
X101134333Y-101969838D01*
X101134333Y-101969838D02*
X101134333Y-102160314D01*
X101134333Y-102160314D02*
X101101000Y-102236504D01*
X101101000Y-102236504D02*
X101067666Y-102274600D01*
X101067666Y-102274600D02*
X101001000Y-102312695D01*
X101001000Y-102312695D02*
X100801000Y-102312695D01*
X100801000Y-102312695D02*
X100734333Y-102274600D01*
X100734333Y-102274600D02*
X100701000Y-102236504D01*
X101801000Y-102312695D02*
X101401000Y-102312695D01*
X101601000Y-102312695D02*
X101601000Y-101512695D01*
X101601000Y-101512695D02*
X101534333Y-101626980D01*
X101534333Y-101626980D02*
X101467667Y-101703171D01*
X101467667Y-101703171D02*
X101401000Y-101741266D01*
X102034334Y-101512695D02*
X102501000Y-101512695D01*
X102501000Y-101512695D02*
X102201000Y-102312695D01*
X102601001Y-102388885D02*
X103134334Y-102388885D01*
X103201000Y-101512695D02*
X103601000Y-101512695D01*
X103401000Y-102312695D02*
X103401000Y-101512695D01*
X103967667Y-101512695D02*
X104101000Y-101512695D01*
X104101000Y-101512695D02*
X104167667Y-101550790D01*
X104167667Y-101550790D02*
X104234333Y-101626980D01*
X104234333Y-101626980D02*
X104267667Y-101779361D01*
X104267667Y-101779361D02*
X104267667Y-102046028D01*
X104267667Y-102046028D02*
X104234333Y-102198409D01*
X104234333Y-102198409D02*
X104167667Y-102274600D01*
X104167667Y-102274600D02*
X104101000Y-102312695D01*
X104101000Y-102312695D02*
X103967667Y-102312695D01*
X103967667Y-102312695D02*
X103901000Y-102274600D01*
X103901000Y-102274600D02*
X103834333Y-102198409D01*
X103834333Y-102198409D02*
X103801000Y-102046028D01*
X103801000Y-102046028D02*
X103801000Y-101779361D01*
X103801000Y-101779361D02*
X103834333Y-101626980D01*
X103834333Y-101626980D02*
X103901000Y-101550790D01*
X103901000Y-101550790D02*
X103967667Y-101512695D01*
X104567666Y-102007933D02*
X105101000Y-102007933D01*
X105401000Y-101588885D02*
X105434333Y-101550790D01*
X105434333Y-101550790D02*
X105501000Y-101512695D01*
X105501000Y-101512695D02*
X105667667Y-101512695D01*
X105667667Y-101512695D02*
X105734333Y-101550790D01*
X105734333Y-101550790D02*
X105767667Y-101588885D01*
X105767667Y-101588885D02*
X105801000Y-101665076D01*
X105801000Y-101665076D02*
X105801000Y-101741266D01*
X105801000Y-101741266D02*
X105767667Y-101855552D01*
X105767667Y-101855552D02*
X105367667Y-102312695D01*
X105367667Y-102312695D02*
X105801000Y-102312695D01*
X106067667Y-101588885D02*
X106101000Y-101550790D01*
X106101000Y-101550790D02*
X106167667Y-101512695D01*
X106167667Y-101512695D02*
X106334334Y-101512695D01*
X106334334Y-101512695D02*
X106401000Y-101550790D01*
X106401000Y-101550790D02*
X106434334Y-101588885D01*
X106434334Y-101588885D02*
X106467667Y-101665076D01*
X106467667Y-101665076D02*
X106467667Y-101741266D01*
X106467667Y-101741266D02*
X106434334Y-101855552D01*
X106434334Y-101855552D02*
X106034334Y-102312695D01*
X106034334Y-102312695D02*
X106467667Y-102312695D01*
X106901001Y-101512695D02*
X106967667Y-101512695D01*
X106967667Y-101512695D02*
X107034334Y-101550790D01*
X107034334Y-101550790D02*
X107067667Y-101588885D01*
X107067667Y-101588885D02*
X107101001Y-101665076D01*
X107101001Y-101665076D02*
X107134334Y-101817457D01*
X107134334Y-101817457D02*
X107134334Y-102007933D01*
X107134334Y-102007933D02*
X107101001Y-102160314D01*
X107101001Y-102160314D02*
X107067667Y-102236504D01*
X107067667Y-102236504D02*
X107034334Y-102274600D01*
X107034334Y-102274600D02*
X106967667Y-102312695D01*
X106967667Y-102312695D02*
X106901001Y-102312695D01*
X106901001Y-102312695D02*
X106834334Y-102274600D01*
X106834334Y-102274600D02*
X106801001Y-102236504D01*
X106801001Y-102236504D02*
X106767667Y-102160314D01*
X106767667Y-102160314D02*
X106734334Y-102007933D01*
X106734334Y-102007933D02*
X106734334Y-101817457D01*
X106734334Y-101817457D02*
X106767667Y-101665076D01*
X106767667Y-101665076D02*
X106801001Y-101588885D01*
X106801001Y-101588885D02*
X106834334Y-101550790D01*
X106834334Y-101550790D02*
X106901001Y-101512695D01*
%TO.C,R1*%
X113954733Y-87331895D02*
X113721400Y-86950942D01*
X113554733Y-87331895D02*
X113554733Y-86531895D01*
X113554733Y-86531895D02*
X113821400Y-86531895D01*
X113821400Y-86531895D02*
X113888067Y-86569990D01*
X113888067Y-86569990D02*
X113921400Y-86608085D01*
X113921400Y-86608085D02*
X113954733Y-86684276D01*
X113954733Y-86684276D02*
X113954733Y-86798561D01*
X113954733Y-86798561D02*
X113921400Y-86874752D01*
X113921400Y-86874752D02*
X113888067Y-86912847D01*
X113888067Y-86912847D02*
X113821400Y-86950942D01*
X113821400Y-86950942D02*
X113554733Y-86950942D01*
X114621400Y-87331895D02*
X114221400Y-87331895D01*
X114421400Y-87331895D02*
X114421400Y-86531895D01*
X114421400Y-86531895D02*
X114354733Y-86646180D01*
X114354733Y-86646180D02*
X114288067Y-86722371D01*
X114288067Y-86722371D02*
X114221400Y-86760466D01*
X116168600Y-86531895D02*
X116601933Y-86531895D01*
X116601933Y-86531895D02*
X116368600Y-86836657D01*
X116368600Y-86836657D02*
X116468600Y-86836657D01*
X116468600Y-86836657D02*
X116535266Y-86874752D01*
X116535266Y-86874752D02*
X116568600Y-86912847D01*
X116568600Y-86912847D02*
X116601933Y-86989038D01*
X116601933Y-86989038D02*
X116601933Y-87179514D01*
X116601933Y-87179514D02*
X116568600Y-87255704D01*
X116568600Y-87255704D02*
X116535266Y-87293800D01*
X116535266Y-87293800D02*
X116468600Y-87331895D01*
X116468600Y-87331895D02*
X116268600Y-87331895D01*
X116268600Y-87331895D02*
X116201933Y-87293800D01*
X116201933Y-87293800D02*
X116168600Y-87255704D01*
X116835267Y-86531895D02*
X117268600Y-86531895D01*
X117268600Y-86531895D02*
X117035267Y-86836657D01*
X117035267Y-86836657D02*
X117135267Y-86836657D01*
X117135267Y-86836657D02*
X117201933Y-86874752D01*
X117201933Y-86874752D02*
X117235267Y-86912847D01*
X117235267Y-86912847D02*
X117268600Y-86989038D01*
X117268600Y-86989038D02*
X117268600Y-87179514D01*
X117268600Y-87179514D02*
X117235267Y-87255704D01*
X117235267Y-87255704D02*
X117201933Y-87293800D01*
X117201933Y-87293800D02*
X117135267Y-87331895D01*
X117135267Y-87331895D02*
X116935267Y-87331895D01*
X116935267Y-87331895D02*
X116868600Y-87293800D01*
X116868600Y-87293800D02*
X116835267Y-87255704D01*
X117701934Y-86531895D02*
X117768600Y-86531895D01*
X117768600Y-86531895D02*
X117835267Y-86569990D01*
X117835267Y-86569990D02*
X117868600Y-86608085D01*
X117868600Y-86608085D02*
X117901934Y-86684276D01*
X117901934Y-86684276D02*
X117935267Y-86836657D01*
X117935267Y-86836657D02*
X117935267Y-87027133D01*
X117935267Y-87027133D02*
X117901934Y-87179514D01*
X117901934Y-87179514D02*
X117868600Y-87255704D01*
X117868600Y-87255704D02*
X117835267Y-87293800D01*
X117835267Y-87293800D02*
X117768600Y-87331895D01*
X117768600Y-87331895D02*
X117701934Y-87331895D01*
X117701934Y-87331895D02*
X117635267Y-87293800D01*
X117635267Y-87293800D02*
X117601934Y-87255704D01*
X117601934Y-87255704D02*
X117568600Y-87179514D01*
X117568600Y-87179514D02*
X117535267Y-87027133D01*
X117535267Y-87027133D02*
X117535267Y-86836657D01*
X117535267Y-86836657D02*
X117568600Y-86684276D01*
X117568600Y-86684276D02*
X117601934Y-86608085D01*
X117601934Y-86608085D02*
X117635267Y-86569990D01*
X117635267Y-86569990D02*
X117701934Y-86531895D01*
%TO.C,R3*%
X112837133Y-101835295D02*
X112603800Y-101454342D01*
X112437133Y-101835295D02*
X112437133Y-101035295D01*
X112437133Y-101035295D02*
X112703800Y-101035295D01*
X112703800Y-101035295D02*
X112770467Y-101073390D01*
X112770467Y-101073390D02*
X112803800Y-101111485D01*
X112803800Y-101111485D02*
X112837133Y-101187676D01*
X112837133Y-101187676D02*
X112837133Y-101301961D01*
X112837133Y-101301961D02*
X112803800Y-101378152D01*
X112803800Y-101378152D02*
X112770467Y-101416247D01*
X112770467Y-101416247D02*
X112703800Y-101454342D01*
X112703800Y-101454342D02*
X112437133Y-101454342D01*
X113070467Y-101035295D02*
X113503800Y-101035295D01*
X113503800Y-101035295D02*
X113270467Y-101340057D01*
X113270467Y-101340057D02*
X113370467Y-101340057D01*
X113370467Y-101340057D02*
X113437133Y-101378152D01*
X113437133Y-101378152D02*
X113470467Y-101416247D01*
X113470467Y-101416247D02*
X113503800Y-101492438D01*
X113503800Y-101492438D02*
X113503800Y-101682914D01*
X113503800Y-101682914D02*
X113470467Y-101759104D01*
X113470467Y-101759104D02*
X113437133Y-101797200D01*
X113437133Y-101797200D02*
X113370467Y-101835295D01*
X113370467Y-101835295D02*
X113170467Y-101835295D01*
X113170467Y-101835295D02*
X113103800Y-101797200D01*
X113103800Y-101797200D02*
X113070467Y-101759104D01*
X115324000Y-101035295D02*
X114990666Y-101035295D01*
X114990666Y-101035295D02*
X114957333Y-101416247D01*
X114957333Y-101416247D02*
X114990666Y-101378152D01*
X114990666Y-101378152D02*
X115057333Y-101340057D01*
X115057333Y-101340057D02*
X115224000Y-101340057D01*
X115224000Y-101340057D02*
X115290666Y-101378152D01*
X115290666Y-101378152D02*
X115324000Y-101416247D01*
X115324000Y-101416247D02*
X115357333Y-101492438D01*
X115357333Y-101492438D02*
X115357333Y-101682914D01*
X115357333Y-101682914D02*
X115324000Y-101759104D01*
X115324000Y-101759104D02*
X115290666Y-101797200D01*
X115290666Y-101797200D02*
X115224000Y-101835295D01*
X115224000Y-101835295D02*
X115057333Y-101835295D01*
X115057333Y-101835295D02*
X114990666Y-101797200D01*
X114990666Y-101797200D02*
X114957333Y-101759104D01*
X115957333Y-101035295D02*
X115824000Y-101035295D01*
X115824000Y-101035295D02*
X115757333Y-101073390D01*
X115757333Y-101073390D02*
X115724000Y-101111485D01*
X115724000Y-101111485D02*
X115657333Y-101225771D01*
X115657333Y-101225771D02*
X115624000Y-101378152D01*
X115624000Y-101378152D02*
X115624000Y-101682914D01*
X115624000Y-101682914D02*
X115657333Y-101759104D01*
X115657333Y-101759104D02*
X115690667Y-101797200D01*
X115690667Y-101797200D02*
X115757333Y-101835295D01*
X115757333Y-101835295D02*
X115890667Y-101835295D01*
X115890667Y-101835295D02*
X115957333Y-101797200D01*
X115957333Y-101797200D02*
X115990667Y-101759104D01*
X115990667Y-101759104D02*
X116024000Y-101682914D01*
X116024000Y-101682914D02*
X116024000Y-101492438D01*
X116024000Y-101492438D02*
X115990667Y-101416247D01*
X115990667Y-101416247D02*
X115957333Y-101378152D01*
X115957333Y-101378152D02*
X115890667Y-101340057D01*
X115890667Y-101340057D02*
X115757333Y-101340057D01*
X115757333Y-101340057D02*
X115690667Y-101378152D01*
X115690667Y-101378152D02*
X115657333Y-101416247D01*
X115657333Y-101416247D02*
X115624000Y-101492438D01*
X116457334Y-101035295D02*
X116524000Y-101035295D01*
X116524000Y-101035295D02*
X116590667Y-101073390D01*
X116590667Y-101073390D02*
X116624000Y-101111485D01*
X116624000Y-101111485D02*
X116657334Y-101187676D01*
X116657334Y-101187676D02*
X116690667Y-101340057D01*
X116690667Y-101340057D02*
X116690667Y-101530533D01*
X116690667Y-101530533D02*
X116657334Y-101682914D01*
X116657334Y-101682914D02*
X116624000Y-101759104D01*
X116624000Y-101759104D02*
X116590667Y-101797200D01*
X116590667Y-101797200D02*
X116524000Y-101835295D01*
X116524000Y-101835295D02*
X116457334Y-101835295D01*
X116457334Y-101835295D02*
X116390667Y-101797200D01*
X116390667Y-101797200D02*
X116357334Y-101759104D01*
X116357334Y-101759104D02*
X116324000Y-101682914D01*
X116324000Y-101682914D02*
X116290667Y-101530533D01*
X116290667Y-101530533D02*
X116290667Y-101340057D01*
X116290667Y-101340057D02*
X116324000Y-101187676D01*
X116324000Y-101187676D02*
X116357334Y-101111485D01*
X116357334Y-101111485D02*
X116390667Y-101073390D01*
X116390667Y-101073390D02*
X116457334Y-101035295D01*
%TO.C,J7*%
X116784466Y-112033495D02*
X116784466Y-112604923D01*
X116784466Y-112604923D02*
X116751133Y-112719209D01*
X116751133Y-112719209D02*
X116684466Y-112795400D01*
X116684466Y-112795400D02*
X116584466Y-112833495D01*
X116584466Y-112833495D02*
X116517800Y-112833495D01*
X117051133Y-112033495D02*
X117517799Y-112033495D01*
X117517799Y-112033495D02*
X117217799Y-112833495D01*
%TO.C,J2*%
X103474866Y-73450895D02*
X103474866Y-74022323D01*
X103474866Y-74022323D02*
X103441533Y-74136609D01*
X103441533Y-74136609D02*
X103374866Y-74212800D01*
X103374866Y-74212800D02*
X103274866Y-74250895D01*
X103274866Y-74250895D02*
X103208200Y-74250895D01*
X103774866Y-73527085D02*
X103808199Y-73488990D01*
X103808199Y-73488990D02*
X103874866Y-73450895D01*
X103874866Y-73450895D02*
X104041533Y-73450895D01*
X104041533Y-73450895D02*
X104108199Y-73488990D01*
X104108199Y-73488990D02*
X104141533Y-73527085D01*
X104141533Y-73527085D02*
X104174866Y-73603276D01*
X104174866Y-73603276D02*
X104174866Y-73679466D01*
X104174866Y-73679466D02*
X104141533Y-73793752D01*
X104141533Y-73793752D02*
X103741533Y-74250895D01*
X103741533Y-74250895D02*
X104174866Y-74250895D01*
%TO.C,C3*%
X101305533Y-77552904D02*
X101272200Y-77591000D01*
X101272200Y-77591000D02*
X101172200Y-77629095D01*
X101172200Y-77629095D02*
X101105533Y-77629095D01*
X101105533Y-77629095D02*
X101005533Y-77591000D01*
X101005533Y-77591000D02*
X100938867Y-77514809D01*
X100938867Y-77514809D02*
X100905533Y-77438619D01*
X100905533Y-77438619D02*
X100872200Y-77286238D01*
X100872200Y-77286238D02*
X100872200Y-77171952D01*
X100872200Y-77171952D02*
X100905533Y-77019571D01*
X100905533Y-77019571D02*
X100938867Y-76943380D01*
X100938867Y-76943380D02*
X101005533Y-76867190D01*
X101005533Y-76867190D02*
X101105533Y-76829095D01*
X101105533Y-76829095D02*
X101172200Y-76829095D01*
X101172200Y-76829095D02*
X101272200Y-76867190D01*
X101272200Y-76867190D02*
X101305533Y-76905285D01*
X101538867Y-76829095D02*
X101972200Y-76829095D01*
X101972200Y-76829095D02*
X101738867Y-77133857D01*
X101738867Y-77133857D02*
X101838867Y-77133857D01*
X101838867Y-77133857D02*
X101905533Y-77171952D01*
X101905533Y-77171952D02*
X101938867Y-77210047D01*
X101938867Y-77210047D02*
X101972200Y-77286238D01*
X101972200Y-77286238D02*
X101972200Y-77476714D01*
X101972200Y-77476714D02*
X101938867Y-77552904D01*
X101938867Y-77552904D02*
X101905533Y-77591000D01*
X101905533Y-77591000D02*
X101838867Y-77629095D01*
X101838867Y-77629095D02*
X101638867Y-77629095D01*
X101638867Y-77629095D02*
X101572200Y-77591000D01*
X101572200Y-77591000D02*
X101538867Y-77552904D01*
X98260800Y-76829095D02*
X98327466Y-76829095D01*
X98327466Y-76829095D02*
X98394133Y-76867190D01*
X98394133Y-76867190D02*
X98427466Y-76905285D01*
X98427466Y-76905285D02*
X98460800Y-76981476D01*
X98460800Y-76981476D02*
X98494133Y-77133857D01*
X98494133Y-77133857D02*
X98494133Y-77324333D01*
X98494133Y-77324333D02*
X98460800Y-77476714D01*
X98460800Y-77476714D02*
X98427466Y-77552904D01*
X98427466Y-77552904D02*
X98394133Y-77591000D01*
X98394133Y-77591000D02*
X98327466Y-77629095D01*
X98327466Y-77629095D02*
X98260800Y-77629095D01*
X98260800Y-77629095D02*
X98194133Y-77591000D01*
X98194133Y-77591000D02*
X98160800Y-77552904D01*
X98160800Y-77552904D02*
X98127466Y-77476714D01*
X98127466Y-77476714D02*
X98094133Y-77324333D01*
X98094133Y-77324333D02*
X98094133Y-77133857D01*
X98094133Y-77133857D02*
X98127466Y-76981476D01*
X98127466Y-76981476D02*
X98160800Y-76905285D01*
X98160800Y-76905285D02*
X98194133Y-76867190D01*
X98194133Y-76867190D02*
X98260800Y-76829095D01*
X98794133Y-77552904D02*
X98827467Y-77591000D01*
X98827467Y-77591000D02*
X98794133Y-77629095D01*
X98794133Y-77629095D02*
X98760800Y-77591000D01*
X98760800Y-77591000D02*
X98794133Y-77552904D01*
X98794133Y-77552904D02*
X98794133Y-77629095D01*
X99494133Y-77629095D02*
X99094133Y-77629095D01*
X99294133Y-77629095D02*
X99294133Y-76829095D01*
X99294133Y-76829095D02*
X99227466Y-76943380D01*
X99227466Y-76943380D02*
X99160800Y-77019571D01*
X99160800Y-77019571D02*
X99094133Y-77057666D01*
X100094133Y-77095761D02*
X100094133Y-77629095D01*
X99794133Y-77095761D02*
X99794133Y-77514809D01*
X99794133Y-77514809D02*
X99827467Y-77591000D01*
X99827467Y-77591000D02*
X99894133Y-77629095D01*
X99894133Y-77629095D02*
X99994133Y-77629095D01*
X99994133Y-77629095D02*
X100060800Y-77591000D01*
X100060800Y-77591000D02*
X100094133Y-77552904D01*
D11*
%TO.C,U2*%
X108218600Y-87369400D02*
X108218600Y-82728400D01*
X108218600Y-87369400D02*
X97978600Y-87369400D01*
X108218600Y-85859400D02*
X97978600Y-85859400D01*
X108218600Y-82728400D02*
X97978600Y-82728400D01*
X104948600Y-87369400D02*
X104948600Y-85859400D01*
X101247600Y-87369400D02*
X101247600Y-85859400D01*
X97978600Y-87369400D02*
X97978600Y-82728400D01*
%TO.C,D1*%
X116297000Y-97053000D02*
X119387000Y-97053000D01*
X117842462Y-91503001D02*
G75*
G03*
X116297170Y-97052999I-462J-2989999D01*
G01*
X119386830Y-97053000D02*
G75*
G03*
X117841538Y-91503000I-1544830J2560000D01*
G01*
X120342000Y-94493000D02*
G75*
G03*
X120342000Y-94493000I-2500000J0D01*
G01*
%TO.C,C1*%
X106033600Y-79990200D02*
X104775600Y-79990200D01*
X106033600Y-78150200D02*
X104775600Y-78150200D01*
%TO.C,J3*%
X122952200Y-69688400D02*
X124282200Y-69688400D01*
X122952200Y-71018400D02*
X122952200Y-69688400D01*
X122952200Y-72288400D02*
X122952200Y-74888400D01*
X122952200Y-72288400D02*
X125612200Y-72288400D01*
X122952200Y-74888400D02*
X125612200Y-74888400D01*
X125612200Y-72288400D02*
X125612200Y-74888400D01*
%TO.C,J5*%
X99889000Y-120532200D02*
X99889000Y-119202200D01*
X101219000Y-120532200D02*
X99889000Y-120532200D01*
X102489000Y-120532200D02*
X107629000Y-120532200D01*
X102489000Y-120532200D02*
X102489000Y-117872200D01*
X107629000Y-120532200D02*
X107629000Y-117872200D01*
X102489000Y-117872200D02*
X107629000Y-117872200D01*
%TO.C,C2*%
X102261000Y-111856000D02*
X103519000Y-111856000D01*
X102261000Y-113696000D02*
X103519000Y-113696000D01*
%TO.C,J4*%
X109347000Y-69570600D02*
X109347000Y-77190600D01*
X109347000Y-77190600D02*
X119507000Y-77190600D01*
X119507000Y-69570600D02*
X109347000Y-69570600D01*
X119507000Y-75920600D02*
X109347000Y-75920600D01*
X119507000Y-77190600D02*
X119507000Y-69570600D01*
%TO.C,J6*%
X122952200Y-115713200D02*
X124282200Y-115713200D01*
X122952200Y-117043200D02*
X122952200Y-115713200D01*
X122952200Y-118313200D02*
X122952200Y-120913200D01*
X122952200Y-118313200D02*
X125612200Y-118313200D01*
X122952200Y-120913200D02*
X125612200Y-120913200D01*
X125612200Y-118313200D02*
X125612200Y-120913200D01*
%TO.C,J1*%
X97756800Y-90116600D02*
X112456800Y-90116600D01*
X97756800Y-99316600D02*
X97756800Y-90116600D01*
X106556800Y-99316600D02*
X97756800Y-99316600D01*
X111606800Y-89916600D02*
X112656800Y-89916600D01*
X112456800Y-90116600D02*
X112456800Y-92716600D01*
X112456800Y-96616600D02*
X112456800Y-99316600D01*
X112456800Y-99316600D02*
X110556800Y-99316600D01*
X112656800Y-90966600D02*
X112656800Y-89916600D01*
D12*
%TO.C,S1*%
X109141900Y-84823300D02*
X121003700Y-84823300D01*
X121003700Y-84823300D02*
X121003700Y-80581500D01*
X109141900Y-80581500D02*
X109141900Y-84823300D01*
X121003700Y-80581500D02*
X109141900Y-80581500D01*
D11*
%TO.C,R2*%
X117424000Y-107721400D02*
X116474000Y-107721400D01*
X116474000Y-108641400D02*
X116474000Y-106801400D01*
X116474000Y-106801400D02*
X112634000Y-106801400D01*
X112634000Y-108641400D02*
X116474000Y-108641400D01*
X112634000Y-106801400D02*
X112634000Y-108641400D01*
X111684000Y-107721400D02*
X112634000Y-107721400D01*
%TO.C,U1*%
X97978600Y-102622600D02*
X97978600Y-107263600D01*
X97978600Y-102622600D02*
X108218600Y-102622600D01*
X97978600Y-104132600D02*
X108218600Y-104132600D01*
X97978600Y-107263600D02*
X108218600Y-107263600D01*
X101248600Y-102622600D02*
X101248600Y-104132600D01*
X104949600Y-102622600D02*
X104949600Y-104132600D01*
X108218600Y-102622600D02*
X108218600Y-107263600D01*
%TO.C,R1*%
X112700000Y-88544400D02*
X113650000Y-88544400D01*
X113650000Y-87624400D02*
X113650000Y-89464400D01*
X113650000Y-89464400D02*
X117490000Y-89464400D01*
X117490000Y-87624400D02*
X113650000Y-87624400D01*
X117490000Y-89464400D02*
X117490000Y-87624400D01*
X118440000Y-88544400D02*
X117490000Y-88544400D01*
%TO.C,R3*%
X111557000Y-103251000D02*
X112507000Y-103251000D01*
X112507000Y-102331000D02*
X112507000Y-104171000D01*
X112507000Y-104171000D02*
X116347000Y-104171000D01*
X116347000Y-102331000D02*
X112507000Y-102331000D01*
X116347000Y-104171000D02*
X116347000Y-102331000D01*
X117297000Y-103251000D02*
X116347000Y-103251000D01*
%TO.C,J7*%
X109347000Y-113284000D02*
X109347000Y-120904000D01*
X109347000Y-120904000D02*
X119507000Y-120904000D01*
X119507000Y-113284000D02*
X109347000Y-113284000D01*
X119507000Y-119634000D02*
X109347000Y-119634000D01*
X119507000Y-120904000D02*
X119507000Y-113284000D01*
%TO.C,J2*%
X99889000Y-72577000D02*
X99889000Y-71247000D01*
X101219000Y-72577000D02*
X99889000Y-72577000D01*
X102489000Y-72577000D02*
X107629000Y-72577000D01*
X102489000Y-72577000D02*
X102489000Y-69917000D01*
X107629000Y-72577000D02*
X107629000Y-69917000D01*
X102489000Y-69917000D02*
X107629000Y-69917000D01*
%TO.C,C3*%
X100928200Y-79964800D02*
X99670200Y-79964800D01*
X100928200Y-78124800D02*
X99670200Y-78124800D01*
%TD*%
M02*
