%TF.GenerationSoftware,KiCad,Pcbnew,7.0.5*%
%TF.CreationDate,2023-06-26T08:29:16+05:30*%
%TF.ProjectId,Power supply pcb,506f7765-7220-4737-9570-706c79207063,rev?*%
%TF.SameCoordinates,Original*%
%TF.FileFunction,Copper,L1,Top*%
%TF.FilePolarity,Positive*%
%FSLAX46Y46*%
G04 Gerber Fmt 4.6, Leading zero omitted, Abs format (unit mm)*
G04 Created by KiCad (PCBNEW 7.0.5) date 2023-06-26 08:29:16*
%MOMM*%
%LPD*%
G01*
G04 APERTURE LIST*
G04 Aperture macros list*
%AMRoundRect*
0 Rectangle with rounded corners*
0 $1 Rounding radius*
0 $2 $3 $4 $5 $6 $7 $8 $9 X,Y pos of 4 corners*
0 Add a 4 corners polygon primitive as box body*
4,1,4,$2,$3,$4,$5,$6,$7,$8,$9,$2,$3,0*
0 Add four circle primitives for the rounded corners*
1,1,$1+$1,$2,$3*
1,1,$1+$1,$4,$5*
1,1,$1+$1,$6,$7*
1,1,$1+$1,$8,$9*
0 Add four rect primitives between the rounded corners*
20,1,$1+$1,$2,$3,$4,$5,0*
20,1,$1+$1,$4,$5,$6,$7,0*
20,1,$1+$1,$6,$7,$8,$9,0*
20,1,$1+$1,$8,$9,$2,$3,0*%
G04 Aperture macros list end*
%TA.AperFunction,ComponentPad*%
%ADD10R,1.905000X2.000000*%
%TD*%
%TA.AperFunction,ComponentPad*%
%ADD11O,1.905000X2.000000*%
%TD*%
%TA.AperFunction,ComponentPad*%
%ADD12R,1.800000X1.800000*%
%TD*%
%TA.AperFunction,ComponentPad*%
%ADD13C,1.800000*%
%TD*%
%TA.AperFunction,ComponentPad*%
%ADD14C,1.600000*%
%TD*%
%TA.AperFunction,ComponentPad*%
%ADD15R,1.700000X1.700000*%
%TD*%
%TA.AperFunction,ComponentPad*%
%ADD16O,1.700000X1.700000*%
%TD*%
%TA.AperFunction,ComponentPad*%
%ADD17R,3.000000X3.000000*%
%TD*%
%TA.AperFunction,ComponentPad*%
%ADD18C,3.000000*%
%TD*%
%TA.AperFunction,ComponentPad*%
%ADD19R,3.500000X3.500000*%
%TD*%
%TA.AperFunction,ComponentPad*%
%ADD20RoundRect,0.750000X-0.750000X-1.000000X0.750000X-1.000000X0.750000X1.000000X-0.750000X1.000000X0*%
%TD*%
%TA.AperFunction,ComponentPad*%
%ADD21RoundRect,0.875000X-0.875000X-0.875000X0.875000X-0.875000X0.875000X0.875000X-0.875000X0.875000X0*%
%TD*%
%TA.AperFunction,ComponentPad*%
%ADD22R,1.524000X1.524000*%
%TD*%
%TA.AperFunction,ComponentPad*%
%ADD23C,1.397000*%
%TD*%
%TA.AperFunction,ComponentPad*%
%ADD24C,1.400000*%
%TD*%
%TA.AperFunction,ComponentPad*%
%ADD25O,1.400000X1.400000*%
%TD*%
%TA.AperFunction,ViaPad*%
%ADD26C,0.800000*%
%TD*%
%TA.AperFunction,Conductor*%
%ADD27C,0.350000*%
%TD*%
%TA.AperFunction,Conductor*%
%ADD28C,0.250000*%
%TD*%
G04 APERTURE END LIST*
D10*
%TO.P,U2,1,VI*%
%TO.N,/12V*%
X105638600Y-84099400D03*
D11*
%TO.P,U2,2,GND*%
%TO.N,GND*%
X103098600Y-84099400D03*
%TO.P,U2,3,VO*%
%TO.N,/5V*%
X100558600Y-84099400D03*
%TD*%
D12*
%TO.P,D1,1,K*%
%TO.N,GND*%
X117842000Y-95763000D03*
D13*
%TO.P,D1,2,A*%
%TO.N,Net-(D1-A)*%
X117842000Y-93223000D03*
%TD*%
D14*
%TO.P,C1,1*%
%TO.N,/12V*%
X106654600Y-79070200D03*
%TO.P,C1,2*%
%TO.N,GND*%
X104154600Y-79070200D03*
%TD*%
D15*
%TO.P,J3,1,Pin_1*%
%TO.N,GND*%
X124282200Y-71018400D03*
D16*
%TO.P,J3,2,Pin_2*%
%TO.N,/PWR_OUT_TOP*%
X124282200Y-73558400D03*
%TD*%
D15*
%TO.P,J5,1,Pin_1*%
%TO.N,/3.3V*%
X101219000Y-119202200D03*
D16*
%TO.P,J5,2,Pin_2*%
%TO.N,/PWR_OUT_BOT*%
X103759000Y-119202200D03*
%TO.P,J5,3,Pin_3*%
%TO.N,/5V*%
X106299000Y-119202200D03*
%TD*%
D14*
%TO.P,C2,1*%
%TO.N,/3.3V*%
X101640000Y-112776000D03*
%TO.P,C2,2*%
%TO.N,GND*%
X104140000Y-112776000D03*
%TD*%
D17*
%TO.P,J4,1,Pin_1*%
%TO.N,GND*%
X111887000Y-73380600D03*
D18*
%TO.P,J4,2,Pin_2*%
%TO.N,/PWR_OUT_TOP*%
X116967000Y-73380600D03*
%TD*%
D15*
%TO.P,J6,1,Pin_1*%
%TO.N,GND*%
X124282200Y-117043200D03*
D16*
%TO.P,J6,2,Pin_2*%
%TO.N,/PWR_OUT_BOT*%
X124282200Y-119583200D03*
%TD*%
D19*
%TO.P,J1,1*%
%TO.N,/PWR_input*%
X111556800Y-94716600D03*
D20*
%TO.P,J1,2*%
%TO.N,GND*%
X105556800Y-94716600D03*
D21*
%TO.P,J1,3*%
X108556800Y-99416600D03*
%TD*%
D22*
%TO.P,S1,1*%
%TO.N,/12V*%
X117652800Y-82702400D03*
D23*
%TO.P,S1,2*%
%TO.N,/PWR_input*%
X115072800Y-82702400D03*
%TO.P,S1,3*%
%TO.N,unconnected-(S1-Pad3)*%
X112572800Y-82702400D03*
%TD*%
D24*
%TO.P,R2,1*%
%TO.N,Net-(U1-ADJ)*%
X118364000Y-107721400D03*
D25*
%TO.P,R2,2*%
%TO.N,/3.3V*%
X110744000Y-107721400D03*
%TD*%
D10*
%TO.P,U1,1,ADJ*%
%TO.N,Net-(U1-ADJ)*%
X100558600Y-105892600D03*
D11*
%TO.P,U1,2,VO*%
%TO.N,/3.3V*%
X103098600Y-105892600D03*
%TO.P,U1,3,VI*%
%TO.N,/12V*%
X105638600Y-105892600D03*
%TD*%
D24*
%TO.P,R1,1*%
%TO.N,Net-(D1-A)*%
X111760000Y-88544400D03*
D25*
%TO.P,R1,2*%
%TO.N,/12V*%
X119380000Y-88544400D03*
%TD*%
D24*
%TO.P,R3,1*%
%TO.N,GND*%
X110617000Y-103251000D03*
D25*
%TO.P,R3,2*%
%TO.N,Net-(U1-ADJ)*%
X118237000Y-103251000D03*
%TD*%
D17*
%TO.P,J7,1,Pin_1*%
%TO.N,GND*%
X111887000Y-117094000D03*
D18*
%TO.P,J7,2,Pin_2*%
%TO.N,/PWR_OUT_BOT*%
X116967000Y-117094000D03*
%TD*%
D15*
%TO.P,J2,1,Pin_1*%
%TO.N,/3.3V*%
X101219000Y-71247000D03*
D16*
%TO.P,J2,2,Pin_2*%
%TO.N,/PWR_OUT_TOP*%
X103759000Y-71247000D03*
%TO.P,J2,3,Pin_3*%
%TO.N,/5V*%
X106299000Y-71247000D03*
%TD*%
D14*
%TO.P,C3,1*%
%TO.N,/5V*%
X101549200Y-79044800D03*
%TO.P,C3,2*%
%TO.N,GND*%
X99049200Y-79044800D03*
%TD*%
D26*
%TO.N,/3.3V*%
X109118400Y-110617000D03*
%TO.N,Net-(U1-ADJ)*%
X98145600Y-115189000D03*
%TD*%
D27*
%TO.N,/12V*%
X106121200Y-79603600D02*
X106121200Y-83616800D01*
X106654600Y-79070200D02*
X106121200Y-79603600D01*
X119380000Y-85801200D02*
X119380000Y-88544400D01*
X106121200Y-83616800D02*
X105638600Y-84099400D01*
X107772200Y-80187800D02*
X115138200Y-80187800D01*
X115138200Y-80187800D02*
X117652800Y-82702400D01*
X117652800Y-82702400D02*
X117652800Y-84074000D01*
X106654600Y-79070200D02*
X107772200Y-80187800D01*
X117652800Y-84074000D02*
X119380000Y-85801200D01*
%TO.N,/3.3V*%
X101640000Y-112776000D02*
X101640000Y-118781200D01*
X98475800Y-100711000D02*
X103098600Y-105333800D01*
X101219000Y-74752200D02*
X97358200Y-78613000D01*
X98475800Y-85547200D02*
X98475800Y-100711000D01*
X97358200Y-78613000D02*
X97358200Y-84429600D01*
X110718600Y-107721400D02*
X109169200Y-109270800D01*
X109169200Y-109270800D02*
X109169200Y-110566200D01*
X103098600Y-107924600D02*
X101549200Y-109474000D01*
X97358200Y-84429600D02*
X98475800Y-85547200D01*
X103098600Y-105333800D02*
X103098600Y-105892600D01*
X103098600Y-105892600D02*
X103098600Y-107924600D01*
X101640000Y-118781200D02*
X101219000Y-119202200D01*
X101640000Y-109564800D02*
X101640000Y-112776000D01*
X101549200Y-109474000D02*
X101640000Y-109564800D01*
X101219000Y-71247000D02*
X101219000Y-74752200D01*
X109169200Y-110566200D02*
X109118400Y-110617000D01*
%TO.N,/5V*%
X99568000Y-85090000D02*
X99568000Y-94366278D01*
X100558600Y-80035400D02*
X101549200Y-79044800D01*
X100558600Y-84099400D02*
X99568000Y-85090000D01*
X108000800Y-117500400D02*
X106299000Y-119202200D01*
X101549200Y-77647800D02*
X101549200Y-79044800D01*
X100558600Y-84099400D02*
X100558600Y-80035400D01*
X104698800Y-99497078D02*
X104698800Y-102133400D01*
X108000800Y-105435400D02*
X108000800Y-117500400D01*
X104698800Y-102133400D02*
X108000800Y-105435400D01*
X99568000Y-94366278D02*
X104698800Y-99497078D01*
X106299000Y-71247000D02*
X106299000Y-72898000D01*
X106299000Y-72898000D02*
X101549200Y-77647800D01*
D28*
%TO.N,Net-(D1-A)*%
X111760000Y-88544400D02*
X111836200Y-88544400D01*
X111836200Y-88544400D02*
X116514800Y-93223000D01*
X116514800Y-93223000D02*
X117842000Y-93223000D01*
D27*
%TO.N,/PWR_input*%
X115072800Y-82702400D02*
X109677200Y-88098000D01*
X109677200Y-92837000D02*
X111556800Y-94716600D01*
X109677200Y-88098000D02*
X109677200Y-92837000D01*
D28*
%TO.N,/PWR_OUT_TOP*%
X116967000Y-73380600D02*
X124104400Y-73380600D01*
X124104400Y-73380600D02*
X124282200Y-73558400D01*
X103759000Y-71247000D02*
X105410000Y-69596000D01*
X105410000Y-69596000D02*
X113182400Y-69596000D01*
X113182400Y-69596000D02*
X116967000Y-73380600D01*
%TO.N,Net-(U1-ADJ)*%
X118135400Y-103200200D02*
X118338600Y-103403400D01*
X98145600Y-109804200D02*
X98145600Y-115189000D01*
X118338600Y-103403400D02*
X118338600Y-107721400D01*
X100558600Y-107391200D02*
X98145600Y-109804200D01*
X100558600Y-105892600D02*
X100558600Y-107391200D01*
%TO.N,/PWR_OUT_BOT*%
X121793000Y-117094000D02*
X116967000Y-117094000D01*
X103759000Y-119202200D02*
X105232200Y-120675400D01*
X113385600Y-120675400D02*
X116967000Y-117094000D01*
X105232200Y-120675400D02*
X113385600Y-120675400D01*
X124282200Y-119583200D02*
X121793000Y-117094000D01*
%TD*%
M02*
