%TF.GenerationSoftware,KiCad,Pcbnew,8.0.3-8.0.3-0~ubuntu22.04.1*%
%TF.CreationDate,2024-07-04T16:51:58+05:30*%
%TF.ProjectId,CSI,4353492e-6b69-4636-9164-5f7063625858,rev?*%
%TF.SameCoordinates,Original*%
%TF.FileFunction,Drillmap*%
%TF.FilePolarity,Positive*%
%FSLAX45Y45*%
G04 Gerber Fmt 4.5, Leading zero omitted, Abs format (unit mm)*
G04 Created by KiCad (PCBNEW 8.0.3-8.0.3-0~ubuntu22.04.1) date 2024-07-04 16:51:58*
%MOMM*%
%LPD*%
G01*
G04 APERTURE LIST*
%ADD10C,0.100000*%
%ADD11C,0.200000*%
%ADD12C,0.210000*%
G04 APERTURE END LIST*
D10*
X13910000Y-8517500D02*
X17455000Y-8517500D01*
X17455000Y-11620000D01*
X13910000Y-11620000D01*
X13910000Y-8517500D01*
D11*
D12*
X14017500Y-8617500D02*
X14227500Y-8827500D01*
X14227500Y-8617500D02*
X14017500Y-8827500D01*
X17130000Y-11290000D02*
X17340000Y-11500000D01*
X17340000Y-11290000D02*
X17130000Y-11500000D01*
D11*
X14165777Y-11936484D02*
X14165777Y-11736484D01*
X14165777Y-11736484D02*
X14213396Y-11736484D01*
X14213396Y-11736484D02*
X14241967Y-11746008D01*
X14241967Y-11746008D02*
X14261015Y-11765055D01*
X14261015Y-11765055D02*
X14270539Y-11784103D01*
X14270539Y-11784103D02*
X14280062Y-11822198D01*
X14280062Y-11822198D02*
X14280062Y-11850769D01*
X14280062Y-11850769D02*
X14270539Y-11888865D01*
X14270539Y-11888865D02*
X14261015Y-11907912D01*
X14261015Y-11907912D02*
X14241967Y-11926960D01*
X14241967Y-11926960D02*
X14213396Y-11936484D01*
X14213396Y-11936484D02*
X14165777Y-11936484D01*
X14365777Y-11936484D02*
X14365777Y-11803150D01*
X14365777Y-11841246D02*
X14375301Y-11822198D01*
X14375301Y-11822198D02*
X14384824Y-11812674D01*
X14384824Y-11812674D02*
X14403872Y-11803150D01*
X14403872Y-11803150D02*
X14422920Y-11803150D01*
X14489586Y-11936484D02*
X14489586Y-11803150D01*
X14489586Y-11736484D02*
X14480062Y-11746008D01*
X14480062Y-11746008D02*
X14489586Y-11755531D01*
X14489586Y-11755531D02*
X14499110Y-11746008D01*
X14499110Y-11746008D02*
X14489586Y-11736484D01*
X14489586Y-11736484D02*
X14489586Y-11755531D01*
X14613396Y-11936484D02*
X14594348Y-11926960D01*
X14594348Y-11926960D02*
X14584824Y-11907912D01*
X14584824Y-11907912D02*
X14584824Y-11736484D01*
X14718158Y-11936484D02*
X14699110Y-11926960D01*
X14699110Y-11926960D02*
X14689586Y-11907912D01*
X14689586Y-11907912D02*
X14689586Y-11736484D01*
X14946729Y-11936484D02*
X14946729Y-11736484D01*
X14946729Y-11736484D02*
X15013396Y-11879341D01*
X15013396Y-11879341D02*
X15080062Y-11736484D01*
X15080062Y-11736484D02*
X15080062Y-11936484D01*
X15261015Y-11936484D02*
X15261015Y-11831722D01*
X15261015Y-11831722D02*
X15251491Y-11812674D01*
X15251491Y-11812674D02*
X15232443Y-11803150D01*
X15232443Y-11803150D02*
X15194348Y-11803150D01*
X15194348Y-11803150D02*
X15175301Y-11812674D01*
X15261015Y-11926960D02*
X15241967Y-11936484D01*
X15241967Y-11936484D02*
X15194348Y-11936484D01*
X15194348Y-11936484D02*
X15175301Y-11926960D01*
X15175301Y-11926960D02*
X15165777Y-11907912D01*
X15165777Y-11907912D02*
X15165777Y-11888865D01*
X15165777Y-11888865D02*
X15175301Y-11869817D01*
X15175301Y-11869817D02*
X15194348Y-11860293D01*
X15194348Y-11860293D02*
X15241967Y-11860293D01*
X15241967Y-11860293D02*
X15261015Y-11850769D01*
X15356253Y-11803150D02*
X15356253Y-12003150D01*
X15356253Y-11812674D02*
X15375301Y-11803150D01*
X15375301Y-11803150D02*
X15413396Y-11803150D01*
X15413396Y-11803150D02*
X15432443Y-11812674D01*
X15432443Y-11812674D02*
X15441967Y-11822198D01*
X15441967Y-11822198D02*
X15451491Y-11841246D01*
X15451491Y-11841246D02*
X15451491Y-11898388D01*
X15451491Y-11898388D02*
X15441967Y-11917436D01*
X15441967Y-11917436D02*
X15432443Y-11926960D01*
X15432443Y-11926960D02*
X15413396Y-11936484D01*
X15413396Y-11936484D02*
X15375301Y-11936484D01*
X15375301Y-11936484D02*
X15356253Y-11926960D01*
X15537205Y-11917436D02*
X15546729Y-11926960D01*
X15546729Y-11926960D02*
X15537205Y-11936484D01*
X15537205Y-11936484D02*
X15527682Y-11926960D01*
X15527682Y-11926960D02*
X15537205Y-11917436D01*
X15537205Y-11917436D02*
X15537205Y-11936484D01*
X15537205Y-11812674D02*
X15546729Y-11822198D01*
X15546729Y-11822198D02*
X15537205Y-11831722D01*
X15537205Y-11831722D02*
X15527682Y-11822198D01*
X15527682Y-11822198D02*
X15537205Y-11812674D01*
X15537205Y-11812674D02*
X15537205Y-11831722D01*
X13705000Y-12165000D02*
X13905000Y-12365000D01*
X13905000Y-12165000D02*
X13705000Y-12365000D01*
X14156253Y-12175531D02*
X14165777Y-12166008D01*
X14165777Y-12166008D02*
X14184824Y-12156484D01*
X14184824Y-12156484D02*
X14232443Y-12156484D01*
X14232443Y-12156484D02*
X14251491Y-12166008D01*
X14251491Y-12166008D02*
X14261015Y-12175531D01*
X14261015Y-12175531D02*
X14270539Y-12194579D01*
X14270539Y-12194579D02*
X14270539Y-12213627D01*
X14270539Y-12213627D02*
X14261015Y-12242198D01*
X14261015Y-12242198D02*
X14146729Y-12356484D01*
X14146729Y-12356484D02*
X14270539Y-12356484D01*
X14356253Y-12337436D02*
X14365777Y-12346960D01*
X14365777Y-12346960D02*
X14356253Y-12356484D01*
X14356253Y-12356484D02*
X14346729Y-12346960D01*
X14346729Y-12346960D02*
X14356253Y-12337436D01*
X14356253Y-12337436D02*
X14356253Y-12356484D01*
X14556253Y-12356484D02*
X14441967Y-12356484D01*
X14499110Y-12356484D02*
X14499110Y-12156484D01*
X14499110Y-12156484D02*
X14480062Y-12185055D01*
X14480062Y-12185055D02*
X14461015Y-12204103D01*
X14461015Y-12204103D02*
X14441967Y-12213627D01*
X14680062Y-12156484D02*
X14699110Y-12156484D01*
X14699110Y-12156484D02*
X14718158Y-12166008D01*
X14718158Y-12166008D02*
X14727682Y-12175531D01*
X14727682Y-12175531D02*
X14737205Y-12194579D01*
X14737205Y-12194579D02*
X14746729Y-12232674D01*
X14746729Y-12232674D02*
X14746729Y-12280293D01*
X14746729Y-12280293D02*
X14737205Y-12318388D01*
X14737205Y-12318388D02*
X14727682Y-12337436D01*
X14727682Y-12337436D02*
X14718158Y-12346960D01*
X14718158Y-12346960D02*
X14699110Y-12356484D01*
X14699110Y-12356484D02*
X14680062Y-12356484D01*
X14680062Y-12356484D02*
X14661015Y-12346960D01*
X14661015Y-12346960D02*
X14651491Y-12337436D01*
X14651491Y-12337436D02*
X14641967Y-12318388D01*
X14641967Y-12318388D02*
X14632443Y-12280293D01*
X14632443Y-12280293D02*
X14632443Y-12232674D01*
X14632443Y-12232674D02*
X14641967Y-12194579D01*
X14641967Y-12194579D02*
X14651491Y-12175531D01*
X14651491Y-12175531D02*
X14661015Y-12166008D01*
X14661015Y-12166008D02*
X14680062Y-12156484D01*
X14870539Y-12156484D02*
X14889586Y-12156484D01*
X14889586Y-12156484D02*
X14908634Y-12166008D01*
X14908634Y-12166008D02*
X14918158Y-12175531D01*
X14918158Y-12175531D02*
X14927682Y-12194579D01*
X14927682Y-12194579D02*
X14937205Y-12232674D01*
X14937205Y-12232674D02*
X14937205Y-12280293D01*
X14937205Y-12280293D02*
X14927682Y-12318388D01*
X14927682Y-12318388D02*
X14918158Y-12337436D01*
X14918158Y-12337436D02*
X14908634Y-12346960D01*
X14908634Y-12346960D02*
X14889586Y-12356484D01*
X14889586Y-12356484D02*
X14870539Y-12356484D01*
X14870539Y-12356484D02*
X14851491Y-12346960D01*
X14851491Y-12346960D02*
X14841967Y-12337436D01*
X14841967Y-12337436D02*
X14832443Y-12318388D01*
X14832443Y-12318388D02*
X14822920Y-12280293D01*
X14822920Y-12280293D02*
X14822920Y-12232674D01*
X14822920Y-12232674D02*
X14832443Y-12194579D01*
X14832443Y-12194579D02*
X14841967Y-12175531D01*
X14841967Y-12175531D02*
X14851491Y-12166008D01*
X14851491Y-12166008D02*
X14870539Y-12156484D01*
X15022920Y-12356484D02*
X15022920Y-12223150D01*
X15022920Y-12242198D02*
X15032443Y-12232674D01*
X15032443Y-12232674D02*
X15051491Y-12223150D01*
X15051491Y-12223150D02*
X15080063Y-12223150D01*
X15080063Y-12223150D02*
X15099110Y-12232674D01*
X15099110Y-12232674D02*
X15108634Y-12251722D01*
X15108634Y-12251722D02*
X15108634Y-12356484D01*
X15108634Y-12251722D02*
X15118158Y-12232674D01*
X15118158Y-12232674D02*
X15137205Y-12223150D01*
X15137205Y-12223150D02*
X15165777Y-12223150D01*
X15165777Y-12223150D02*
X15184824Y-12232674D01*
X15184824Y-12232674D02*
X15194348Y-12251722D01*
X15194348Y-12251722D02*
X15194348Y-12356484D01*
X15289586Y-12356484D02*
X15289586Y-12223150D01*
X15289586Y-12242198D02*
X15299110Y-12232674D01*
X15299110Y-12232674D02*
X15318158Y-12223150D01*
X15318158Y-12223150D02*
X15346729Y-12223150D01*
X15346729Y-12223150D02*
X15365777Y-12232674D01*
X15365777Y-12232674D02*
X15375301Y-12251722D01*
X15375301Y-12251722D02*
X15375301Y-12356484D01*
X15375301Y-12251722D02*
X15384824Y-12232674D01*
X15384824Y-12232674D02*
X15403872Y-12223150D01*
X15403872Y-12223150D02*
X15432443Y-12223150D01*
X15432443Y-12223150D02*
X15451491Y-12232674D01*
X15451491Y-12232674D02*
X15461015Y-12251722D01*
X15461015Y-12251722D02*
X15461015Y-12356484D01*
X15851491Y-12146960D02*
X15680063Y-12404103D01*
X16108634Y-12156484D02*
X16127682Y-12156484D01*
X16127682Y-12156484D02*
X16146729Y-12166008D01*
X16146729Y-12166008D02*
X16156253Y-12175531D01*
X16156253Y-12175531D02*
X16165777Y-12194579D01*
X16165777Y-12194579D02*
X16175301Y-12232674D01*
X16175301Y-12232674D02*
X16175301Y-12280293D01*
X16175301Y-12280293D02*
X16165777Y-12318388D01*
X16165777Y-12318388D02*
X16156253Y-12337436D01*
X16156253Y-12337436D02*
X16146729Y-12346960D01*
X16146729Y-12346960D02*
X16127682Y-12356484D01*
X16127682Y-12356484D02*
X16108634Y-12356484D01*
X16108634Y-12356484D02*
X16089586Y-12346960D01*
X16089586Y-12346960D02*
X16080063Y-12337436D01*
X16080063Y-12337436D02*
X16070539Y-12318388D01*
X16070539Y-12318388D02*
X16061015Y-12280293D01*
X16061015Y-12280293D02*
X16061015Y-12232674D01*
X16061015Y-12232674D02*
X16070539Y-12194579D01*
X16070539Y-12194579D02*
X16080063Y-12175531D01*
X16080063Y-12175531D02*
X16089586Y-12166008D01*
X16089586Y-12166008D02*
X16108634Y-12156484D01*
X16261015Y-12337436D02*
X16270539Y-12346960D01*
X16270539Y-12346960D02*
X16261015Y-12356484D01*
X16261015Y-12356484D02*
X16251491Y-12346960D01*
X16251491Y-12346960D02*
X16261015Y-12337436D01*
X16261015Y-12337436D02*
X16261015Y-12356484D01*
X16394348Y-12156484D02*
X16413396Y-12156484D01*
X16413396Y-12156484D02*
X16432444Y-12166008D01*
X16432444Y-12166008D02*
X16441967Y-12175531D01*
X16441967Y-12175531D02*
X16451491Y-12194579D01*
X16451491Y-12194579D02*
X16461015Y-12232674D01*
X16461015Y-12232674D02*
X16461015Y-12280293D01*
X16461015Y-12280293D02*
X16451491Y-12318388D01*
X16451491Y-12318388D02*
X16441967Y-12337436D01*
X16441967Y-12337436D02*
X16432444Y-12346960D01*
X16432444Y-12346960D02*
X16413396Y-12356484D01*
X16413396Y-12356484D02*
X16394348Y-12356484D01*
X16394348Y-12356484D02*
X16375301Y-12346960D01*
X16375301Y-12346960D02*
X16365777Y-12337436D01*
X16365777Y-12337436D02*
X16356253Y-12318388D01*
X16356253Y-12318388D02*
X16346729Y-12280293D01*
X16346729Y-12280293D02*
X16346729Y-12232674D01*
X16346729Y-12232674D02*
X16356253Y-12194579D01*
X16356253Y-12194579D02*
X16365777Y-12175531D01*
X16365777Y-12175531D02*
X16375301Y-12166008D01*
X16375301Y-12166008D02*
X16394348Y-12156484D01*
X16575301Y-12242198D02*
X16556253Y-12232674D01*
X16556253Y-12232674D02*
X16546729Y-12223150D01*
X16546729Y-12223150D02*
X16537206Y-12204103D01*
X16537206Y-12204103D02*
X16537206Y-12194579D01*
X16537206Y-12194579D02*
X16546729Y-12175531D01*
X16546729Y-12175531D02*
X16556253Y-12166008D01*
X16556253Y-12166008D02*
X16575301Y-12156484D01*
X16575301Y-12156484D02*
X16613396Y-12156484D01*
X16613396Y-12156484D02*
X16632444Y-12166008D01*
X16632444Y-12166008D02*
X16641967Y-12175531D01*
X16641967Y-12175531D02*
X16651491Y-12194579D01*
X16651491Y-12194579D02*
X16651491Y-12204103D01*
X16651491Y-12204103D02*
X16641967Y-12223150D01*
X16641967Y-12223150D02*
X16632444Y-12232674D01*
X16632444Y-12232674D02*
X16613396Y-12242198D01*
X16613396Y-12242198D02*
X16575301Y-12242198D01*
X16575301Y-12242198D02*
X16556253Y-12251722D01*
X16556253Y-12251722D02*
X16546729Y-12261246D01*
X16546729Y-12261246D02*
X16537206Y-12280293D01*
X16537206Y-12280293D02*
X16537206Y-12318388D01*
X16537206Y-12318388D02*
X16546729Y-12337436D01*
X16546729Y-12337436D02*
X16556253Y-12346960D01*
X16556253Y-12346960D02*
X16575301Y-12356484D01*
X16575301Y-12356484D02*
X16613396Y-12356484D01*
X16613396Y-12356484D02*
X16632444Y-12346960D01*
X16632444Y-12346960D02*
X16641967Y-12337436D01*
X16641967Y-12337436D02*
X16651491Y-12318388D01*
X16651491Y-12318388D02*
X16651491Y-12280293D01*
X16651491Y-12280293D02*
X16641967Y-12261246D01*
X16641967Y-12261246D02*
X16632444Y-12251722D01*
X16632444Y-12251722D02*
X16613396Y-12242198D01*
X16727682Y-12175531D02*
X16737206Y-12166008D01*
X16737206Y-12166008D02*
X16756253Y-12156484D01*
X16756253Y-12156484D02*
X16803872Y-12156484D01*
X16803872Y-12156484D02*
X16822920Y-12166008D01*
X16822920Y-12166008D02*
X16832444Y-12175531D01*
X16832444Y-12175531D02*
X16841968Y-12194579D01*
X16841968Y-12194579D02*
X16841968Y-12213627D01*
X16841968Y-12213627D02*
X16832444Y-12242198D01*
X16832444Y-12242198D02*
X16718158Y-12356484D01*
X16718158Y-12356484D02*
X16841968Y-12356484D01*
X16908634Y-12156484D02*
X17041968Y-12156484D01*
X17041968Y-12156484D02*
X16956253Y-12356484D01*
X17108634Y-12156484D02*
X17108634Y-12194579D01*
X17184825Y-12156484D02*
X17184825Y-12194579D01*
X17480063Y-12432674D02*
X17470539Y-12423150D01*
X17470539Y-12423150D02*
X17451491Y-12394579D01*
X17451491Y-12394579D02*
X17441968Y-12375531D01*
X17441968Y-12375531D02*
X17432444Y-12346960D01*
X17432444Y-12346960D02*
X17422920Y-12299341D01*
X17422920Y-12299341D02*
X17422920Y-12261246D01*
X17422920Y-12261246D02*
X17432444Y-12213627D01*
X17432444Y-12213627D02*
X17441968Y-12185055D01*
X17441968Y-12185055D02*
X17451491Y-12166008D01*
X17451491Y-12166008D02*
X17470539Y-12137436D01*
X17470539Y-12137436D02*
X17480063Y-12127912D01*
X17546730Y-12175531D02*
X17556253Y-12166008D01*
X17556253Y-12166008D02*
X17575301Y-12156484D01*
X17575301Y-12156484D02*
X17622920Y-12156484D01*
X17622920Y-12156484D02*
X17641968Y-12166008D01*
X17641968Y-12166008D02*
X17651491Y-12175531D01*
X17651491Y-12175531D02*
X17661015Y-12194579D01*
X17661015Y-12194579D02*
X17661015Y-12213627D01*
X17661015Y-12213627D02*
X17651491Y-12242198D01*
X17651491Y-12242198D02*
X17537206Y-12356484D01*
X17537206Y-12356484D02*
X17661015Y-12356484D01*
X17899111Y-12356484D02*
X17899111Y-12156484D01*
X17984825Y-12356484D02*
X17984825Y-12251722D01*
X17984825Y-12251722D02*
X17975301Y-12232674D01*
X17975301Y-12232674D02*
X17956253Y-12223150D01*
X17956253Y-12223150D02*
X17927682Y-12223150D01*
X17927682Y-12223150D02*
X17908634Y-12232674D01*
X17908634Y-12232674D02*
X17899111Y-12242198D01*
X18108634Y-12356484D02*
X18089587Y-12346960D01*
X18089587Y-12346960D02*
X18080063Y-12337436D01*
X18080063Y-12337436D02*
X18070539Y-12318388D01*
X18070539Y-12318388D02*
X18070539Y-12261246D01*
X18070539Y-12261246D02*
X18080063Y-12242198D01*
X18080063Y-12242198D02*
X18089587Y-12232674D01*
X18089587Y-12232674D02*
X18108634Y-12223150D01*
X18108634Y-12223150D02*
X18137206Y-12223150D01*
X18137206Y-12223150D02*
X18156253Y-12232674D01*
X18156253Y-12232674D02*
X18165777Y-12242198D01*
X18165777Y-12242198D02*
X18175301Y-12261246D01*
X18175301Y-12261246D02*
X18175301Y-12318388D01*
X18175301Y-12318388D02*
X18165777Y-12337436D01*
X18165777Y-12337436D02*
X18156253Y-12346960D01*
X18156253Y-12346960D02*
X18137206Y-12356484D01*
X18137206Y-12356484D02*
X18108634Y-12356484D01*
X18289587Y-12356484D02*
X18270539Y-12346960D01*
X18270539Y-12346960D02*
X18261015Y-12327912D01*
X18261015Y-12327912D02*
X18261015Y-12156484D01*
X18441968Y-12346960D02*
X18422920Y-12356484D01*
X18422920Y-12356484D02*
X18384825Y-12356484D01*
X18384825Y-12356484D02*
X18365777Y-12346960D01*
X18365777Y-12346960D02*
X18356253Y-12327912D01*
X18356253Y-12327912D02*
X18356253Y-12251722D01*
X18356253Y-12251722D02*
X18365777Y-12232674D01*
X18365777Y-12232674D02*
X18384825Y-12223150D01*
X18384825Y-12223150D02*
X18422920Y-12223150D01*
X18422920Y-12223150D02*
X18441968Y-12232674D01*
X18441968Y-12232674D02*
X18451492Y-12251722D01*
X18451492Y-12251722D02*
X18451492Y-12270769D01*
X18451492Y-12270769D02*
X18356253Y-12289817D01*
X18527682Y-12346960D02*
X18546730Y-12356484D01*
X18546730Y-12356484D02*
X18584825Y-12356484D01*
X18584825Y-12356484D02*
X18603873Y-12346960D01*
X18603873Y-12346960D02*
X18613396Y-12327912D01*
X18613396Y-12327912D02*
X18613396Y-12318388D01*
X18613396Y-12318388D02*
X18603873Y-12299341D01*
X18603873Y-12299341D02*
X18584825Y-12289817D01*
X18584825Y-12289817D02*
X18556253Y-12289817D01*
X18556253Y-12289817D02*
X18537206Y-12280293D01*
X18537206Y-12280293D02*
X18527682Y-12261246D01*
X18527682Y-12261246D02*
X18527682Y-12251722D01*
X18527682Y-12251722D02*
X18537206Y-12232674D01*
X18537206Y-12232674D02*
X18556253Y-12223150D01*
X18556253Y-12223150D02*
X18584825Y-12223150D01*
X18584825Y-12223150D02*
X18603873Y-12232674D01*
X18680063Y-12432674D02*
X18689587Y-12423150D01*
X18689587Y-12423150D02*
X18708634Y-12394579D01*
X18708634Y-12394579D02*
X18718158Y-12375531D01*
X18718158Y-12375531D02*
X18727682Y-12346960D01*
X18727682Y-12346960D02*
X18737206Y-12299341D01*
X18737206Y-12299341D02*
X18737206Y-12261246D01*
X18737206Y-12261246D02*
X18727682Y-12213627D01*
X18727682Y-12213627D02*
X18718158Y-12185055D01*
X18718158Y-12185055D02*
X18708634Y-12166008D01*
X18708634Y-12166008D02*
X18689587Y-12137436D01*
X18689587Y-12137436D02*
X18680063Y-12127912D01*
X19041968Y-12432674D02*
X19032444Y-12423150D01*
X19032444Y-12423150D02*
X19013396Y-12394579D01*
X19013396Y-12394579D02*
X19003873Y-12375531D01*
X19003873Y-12375531D02*
X18994349Y-12346960D01*
X18994349Y-12346960D02*
X18984825Y-12299341D01*
X18984825Y-12299341D02*
X18984825Y-12261246D01*
X18984825Y-12261246D02*
X18994349Y-12213627D01*
X18994349Y-12213627D02*
X19003873Y-12185055D01*
X19003873Y-12185055D02*
X19013396Y-12166008D01*
X19013396Y-12166008D02*
X19032444Y-12137436D01*
X19032444Y-12137436D02*
X19041968Y-12127912D01*
X19118158Y-12223150D02*
X19118158Y-12356484D01*
X19118158Y-12242198D02*
X19127682Y-12232674D01*
X19127682Y-12232674D02*
X19146730Y-12223150D01*
X19146730Y-12223150D02*
X19175301Y-12223150D01*
X19175301Y-12223150D02*
X19194349Y-12232674D01*
X19194349Y-12232674D02*
X19203873Y-12251722D01*
X19203873Y-12251722D02*
X19203873Y-12356484D01*
X19327682Y-12356484D02*
X19308634Y-12346960D01*
X19308634Y-12346960D02*
X19299111Y-12337436D01*
X19299111Y-12337436D02*
X19289587Y-12318388D01*
X19289587Y-12318388D02*
X19289587Y-12261246D01*
X19289587Y-12261246D02*
X19299111Y-12242198D01*
X19299111Y-12242198D02*
X19308634Y-12232674D01*
X19308634Y-12232674D02*
X19327682Y-12223150D01*
X19327682Y-12223150D02*
X19356254Y-12223150D01*
X19356254Y-12223150D02*
X19375301Y-12232674D01*
X19375301Y-12232674D02*
X19384825Y-12242198D01*
X19384825Y-12242198D02*
X19394349Y-12261246D01*
X19394349Y-12261246D02*
X19394349Y-12318388D01*
X19394349Y-12318388D02*
X19384825Y-12337436D01*
X19384825Y-12337436D02*
X19375301Y-12346960D01*
X19375301Y-12346960D02*
X19356254Y-12356484D01*
X19356254Y-12356484D02*
X19327682Y-12356484D01*
X19451492Y-12223150D02*
X19527682Y-12223150D01*
X19480063Y-12156484D02*
X19480063Y-12327912D01*
X19480063Y-12327912D02*
X19489587Y-12346960D01*
X19489587Y-12346960D02*
X19508634Y-12356484D01*
X19508634Y-12356484D02*
X19527682Y-12356484D01*
X19746730Y-12223150D02*
X19746730Y-12423150D01*
X19746730Y-12232674D02*
X19765777Y-12223150D01*
X19765777Y-12223150D02*
X19803873Y-12223150D01*
X19803873Y-12223150D02*
X19822920Y-12232674D01*
X19822920Y-12232674D02*
X19832444Y-12242198D01*
X19832444Y-12242198D02*
X19841968Y-12261246D01*
X19841968Y-12261246D02*
X19841968Y-12318388D01*
X19841968Y-12318388D02*
X19832444Y-12337436D01*
X19832444Y-12337436D02*
X19822920Y-12346960D01*
X19822920Y-12346960D02*
X19803873Y-12356484D01*
X19803873Y-12356484D02*
X19765777Y-12356484D01*
X19765777Y-12356484D02*
X19746730Y-12346960D01*
X19956254Y-12356484D02*
X19937206Y-12346960D01*
X19937206Y-12346960D02*
X19927682Y-12327912D01*
X19927682Y-12327912D02*
X19927682Y-12156484D01*
X20118158Y-12356484D02*
X20118158Y-12251722D01*
X20118158Y-12251722D02*
X20108635Y-12232674D01*
X20108635Y-12232674D02*
X20089587Y-12223150D01*
X20089587Y-12223150D02*
X20051492Y-12223150D01*
X20051492Y-12223150D02*
X20032444Y-12232674D01*
X20118158Y-12346960D02*
X20099111Y-12356484D01*
X20099111Y-12356484D02*
X20051492Y-12356484D01*
X20051492Y-12356484D02*
X20032444Y-12346960D01*
X20032444Y-12346960D02*
X20022920Y-12327912D01*
X20022920Y-12327912D02*
X20022920Y-12308865D01*
X20022920Y-12308865D02*
X20032444Y-12289817D01*
X20032444Y-12289817D02*
X20051492Y-12280293D01*
X20051492Y-12280293D02*
X20099111Y-12280293D01*
X20099111Y-12280293D02*
X20118158Y-12270769D01*
X20184825Y-12223150D02*
X20261015Y-12223150D01*
X20213396Y-12156484D02*
X20213396Y-12327912D01*
X20213396Y-12327912D02*
X20222920Y-12346960D01*
X20222920Y-12346960D02*
X20241968Y-12356484D01*
X20241968Y-12356484D02*
X20261015Y-12356484D01*
X20403873Y-12346960D02*
X20384825Y-12356484D01*
X20384825Y-12356484D02*
X20346730Y-12356484D01*
X20346730Y-12356484D02*
X20327682Y-12346960D01*
X20327682Y-12346960D02*
X20318158Y-12327912D01*
X20318158Y-12327912D02*
X20318158Y-12251722D01*
X20318158Y-12251722D02*
X20327682Y-12232674D01*
X20327682Y-12232674D02*
X20346730Y-12223150D01*
X20346730Y-12223150D02*
X20384825Y-12223150D01*
X20384825Y-12223150D02*
X20403873Y-12232674D01*
X20403873Y-12232674D02*
X20413396Y-12251722D01*
X20413396Y-12251722D02*
X20413396Y-12270769D01*
X20413396Y-12270769D02*
X20318158Y-12289817D01*
X20584825Y-12356484D02*
X20584825Y-12156484D01*
X20584825Y-12346960D02*
X20565777Y-12356484D01*
X20565777Y-12356484D02*
X20527682Y-12356484D01*
X20527682Y-12356484D02*
X20508635Y-12346960D01*
X20508635Y-12346960D02*
X20499111Y-12337436D01*
X20499111Y-12337436D02*
X20489587Y-12318388D01*
X20489587Y-12318388D02*
X20489587Y-12261246D01*
X20489587Y-12261246D02*
X20499111Y-12242198D01*
X20499111Y-12242198D02*
X20508635Y-12232674D01*
X20508635Y-12232674D02*
X20527682Y-12223150D01*
X20527682Y-12223150D02*
X20565777Y-12223150D01*
X20565777Y-12223150D02*
X20584825Y-12232674D01*
X20661016Y-12432674D02*
X20670539Y-12423150D01*
X20670539Y-12423150D02*
X20689587Y-12394579D01*
X20689587Y-12394579D02*
X20699111Y-12375531D01*
X20699111Y-12375531D02*
X20708635Y-12346960D01*
X20708635Y-12346960D02*
X20718158Y-12299341D01*
X20718158Y-12299341D02*
X20718158Y-12261246D01*
X20718158Y-12261246D02*
X20708635Y-12213627D01*
X20708635Y-12213627D02*
X20699111Y-12185055D01*
X20699111Y-12185055D02*
X20689587Y-12166008D01*
X20689587Y-12166008D02*
X20670539Y-12137436D01*
X20670539Y-12137436D02*
X20661016Y-12127912D01*
M02*
