%TF.GenerationSoftware,KiCad,Pcbnew,8.0.3-8.0.3-0~ubuntu22.04.1*%
%TF.CreationDate,2024-07-04T16:51:48+05:30*%
%TF.ProjectId,CSI,4353492e-6b69-4636-9164-5f7063625858,rev?*%
%TF.SameCoordinates,Original*%
%TF.FileFunction,Other,User*%
%FSLAX46Y46*%
G04 Gerber Fmt 4.6, Leading zero omitted, Abs format (unit mm)*
G04 Created by KiCad (PCBNEW 8.0.3-8.0.3-0~ubuntu22.04.1) date 2024-07-04 16:51:48*
%MOMM*%
%LPD*%
G01*
G04 APERTURE LIST*
%ADD10C,0.050000*%
%ADD11C,0.127000*%
%ADD12C,2.100000*%
%TA.AperFunction,EtchedComponent*%
%ADD13C,0.000000*%
%TD*%
%TA.AperFunction,SMDPad,CuDef*%
%ADD14R,2.000000X0.610000*%
%TD*%
%TA.AperFunction,SMDPad,CuDef*%
%ADD15R,3.600000X2.680000*%
%TD*%
%TA.AperFunction,SMDPad,CuDef*%
%ADD16R,0.300000X0.800000*%
%TD*%
%TA.AperFunction,SMDPad,CuDef*%
%ADD17R,1.300000X3.049999*%
%TD*%
%TA.AperFunction,Conductor*%
%ADD18C,0.600000*%
%TD*%
%TA.AperFunction,Conductor*%
%ADD19C,0.200000*%
%TD*%
%ADD20C,0.000000*%
%ADD21R,2.000000X0.610000*%
%ADD22R,3.600000X2.680000*%
%ADD23R,0.300000X0.800000*%
%ADD24R,1.300000X3.049999*%
%ADD25C,0.100000*%
%ADD26C,0.150000*%
%ADD27C,0.120000*%
%ADD28C,0.152400*%
%TA.AperFunction,Profile*%
%ADD29C,0.100000*%
%TD*%
G04 APERTURE END LIST*
D10*
%TO.C,H2*%
X174700000Y-113950000D02*
G75*
G02*
X170000000Y-113950000I-2350000J0D01*
G01*
X170000000Y-113950000D02*
G75*
G02*
X174700000Y-113950000I2350000J0D01*
G01*
%TO.C,H1*%
X143575000Y-87225000D02*
G75*
G02*
X138875000Y-87225000I-2350000J0D01*
G01*
X138875000Y-87225000D02*
G75*
G02*
X143575000Y-87225000I2350000J0D01*
G01*
%TO.C,J2*%
X141225000Y-90465000D02*
X141225000Y-114385000D01*
X141225000Y-114385000D02*
X151525000Y-114385000D01*
X151525000Y-90465000D02*
X141225000Y-90465000D01*
X151525000Y-114385000D02*
X151525000Y-90465000D01*
D11*
%TO.C,J1*%
X155705006Y-87105000D02*
X155705006Y-94645000D01*
X155705006Y-94645000D02*
X172344978Y-94645000D01*
X172344978Y-94645000D02*
X172344978Y-87105000D01*
X172344978Y-87105000D02*
X155705006Y-87105000D01*
%TD*%
D12*
%TO.C,H2*%
X172350000Y-113950000D03*
%TD*%
%TO.C,H1*%
X141225000Y-87225000D03*
%TD*%
D13*
%TA.AperFunction,EtchedComponent*%
%TO.C,J1*%
G36*
X157724992Y-91075000D02*
G01*
X156624992Y-91075000D01*
X156624992Y-88875000D01*
X157724992Y-88875000D01*
X157724992Y-91075000D01*
G37*
%TD.AperFunction*%
%TA.AperFunction,EtchedComponent*%
G36*
X171424992Y-91075000D02*
G01*
X170324992Y-91075000D01*
X170324992Y-88875000D01*
X171424992Y-88875000D01*
X171424992Y-91075000D01*
G37*
%TD.AperFunction*%
%TD*%
D14*
%TO.P,J2,1,Pin_1*%
%TO.N,GND*%
X150025000Y-95425000D03*
%TO.P,J2,2,Pin_2*%
%TO.N,MIPO_DN0*%
X150025000Y-96425000D03*
%TO.P,J2,3,Pin_3*%
%TO.N,MIPO_DP0*%
X150025000Y-97425000D03*
%TO.P,J2,4,Pin_4*%
%TO.N,GND*%
X150025000Y-98425000D03*
%TO.P,J2,5,Pin_5*%
%TO.N,MIPO_DN1*%
X150025000Y-99425000D03*
%TO.P,J2,6,Pin_6*%
%TO.N,MIPO_DP1*%
X150025000Y-100425000D03*
%TO.P,J2,7,Pin_7*%
%TO.N,GND*%
X150025000Y-101425000D03*
%TO.P,J2,8,Pin_8*%
%TO.N,MIPO_CKN*%
X150025000Y-102425000D03*
%TO.P,J2,9,Pin_9*%
%TO.N,MIPO_CKP*%
X150025000Y-103425000D03*
%TO.P,J2,10,Pin_10*%
%TO.N,GND*%
X150025000Y-104425000D03*
%TO.P,J2,11,Pin_11*%
%TO.N,SENSOR_RSTN*%
X150025000Y-105425000D03*
%TO.P,J2,12,Pin_12*%
%TO.N,SENSOR_CLK*%
X150025000Y-106425000D03*
%TO.P,J2,13,Pin_13*%
%TO.N,I2C_SCL*%
X150025000Y-107425000D03*
%TO.P,J2,14,Pin_14*%
%TO.N,I2C_SDA*%
X150025000Y-108425000D03*
%TO.P,J2,15,Pin_15*%
%TO.N,3V3*%
X150025000Y-109425000D03*
D15*
%TO.P,J2,MP*%
%TO.N,N/C*%
X147225000Y-92435000D03*
X147225000Y-112415000D03*
%TD*%
D16*
%TO.P,J1,1,Pin_1*%
%TO.N,GND*%
X160275000Y-88475000D03*
%TO.P,J1,2,Pin_2*%
%TO.N,MIPO_DN0*%
X160774998Y-88475000D03*
%TO.P,J1,3,Pin_3*%
%TO.N,MIPO_DP0*%
X161275000Y-88475000D03*
%TO.P,J1,4,Pin_4*%
%TO.N,GND*%
X161774999Y-88475000D03*
%TO.P,J1,5,Pin_5*%
%TO.N,MIPO_DN1*%
X162275001Y-88475000D03*
%TO.P,J1,6,Pin_6*%
%TO.N,MIPO_DP1*%
X162775000Y-88475000D03*
%TO.P,J1,7,Pin_7*%
%TO.N,GND*%
X163274999Y-88475000D03*
%TO.P,J1,8,Pin_8*%
%TO.N,MIPO_CKN*%
X163775000Y-88475000D03*
%TO.P,J1,9,Pin_9*%
%TO.N,MIPO_CKP*%
X164274999Y-88475000D03*
%TO.P,J1,10,Pin_10*%
%TO.N,GND*%
X164775001Y-88475000D03*
%TO.P,J1,11,Pin_11*%
%TO.N,SENSOR_RSTN*%
X165275000Y-88475000D03*
%TO.P,J1,12,Pin_12*%
%TO.N,SENSOR_CLK*%
X165774999Y-88475000D03*
%TO.P,J1,13,Pin_13*%
%TO.N,I2C_SCL*%
X166275000Y-88475000D03*
%TO.P,J1,14,Pin_14*%
%TO.N,I2C_SDA*%
X166774999Y-88475000D03*
%TO.P,J1,15,Pin_15*%
%TO.N,unconnected-(J1-Pin_15-Pad15)*%
X167275001Y-88475000D03*
%TO.P,J1,16,Pin_16*%
%TO.N,3V3*%
X167775000Y-88475000D03*
D17*
%TO.P,J1,P1*%
%TO.N,N/C*%
X158375000Y-90400000D03*
%TO.P,J1,P2*%
X169674984Y-90400000D03*
%TD*%
D18*
%TO.N,MIPO_DN1*%
X162450000Y-98524869D02*
G75*
G02*
X162130000Y-98844900I-320000J-31D01*
G01*
X161714911Y-98844869D02*
G75*
G03*
X161394869Y-99164869I-11J-320031D01*
G01*
X161394911Y-99324869D02*
G75*
G03*
X161714911Y-99644889I319989J-31D01*
G01*
X162425736Y-89574264D02*
X162450000Y-89598528D01*
X162450000Y-89598528D02*
X162450000Y-90024869D01*
X162130000Y-98844869D02*
X161714911Y-98844869D01*
X162130000Y-99644869D02*
G75*
G02*
X162450031Y-99964869I0J-320031D01*
G01*
X161394911Y-99164869D02*
X161394911Y-99324869D01*
X162450000Y-99964869D02*
X162450000Y-100124869D01*
X162450000Y-100703453D02*
X162450000Y-100800000D01*
X162450000Y-90024869D02*
X162450000Y-98524869D01*
X161714911Y-99644869D02*
X162130000Y-99644869D01*
X162450000Y-100124869D02*
X162450000Y-100703453D01*
%TO.N,MIPO_DP1*%
X160752944Y-103837741D02*
X160515686Y-104075000D01*
X160894363Y-102140683D02*
G75*
G02*
X160894363Y-103696317I-777863J-777817D01*
G01*
X160894363Y-103696317D02*
X160752944Y-103837741D01*
X163250000Y-100800000D02*
X163250000Y-101340686D01*
X161042856Y-101157805D02*
G75*
G03*
X160618592Y-101157805I-212132J-212132D01*
G01*
X163250000Y-89775002D02*
X163250000Y-100800000D01*
%TO.N,MIPO_DN1*%
X160328679Y-103130633D02*
X160187258Y-103272055D01*
%TO.N,MIPO_DP1*%
X160618592Y-101157805D02*
X160477170Y-101299226D01*
X160477170Y-101299226D02*
G75*
G03*
X160477128Y-101723532I212130J-212174D01*
G01*
X160477170Y-101723490D02*
X160894363Y-102140683D01*
X160515686Y-104075000D02*
X160075000Y-104075000D01*
X161460050Y-101574999D02*
X161042856Y-101157805D01*
%TO.N,MIPO_DN1*%
X160075000Y-103275000D02*
X159592157Y-103275000D01*
%TO.N,MIPO_DP1*%
X163250000Y-101340686D02*
X163015685Y-101574999D01*
X163015685Y-101574999D02*
G75*
G02*
X161460051Y-101574999I-777817J777816D01*
G01*
X160075000Y-104075000D02*
X159592157Y-104075000D01*
%TO.N,MIPO_DN1*%
X160052908Y-100592120D02*
X159911486Y-100733541D01*
X159911486Y-102289176D02*
X160328679Y-102706369D01*
X160187258Y-103272055D02*
X160184314Y-103275000D01*
X160184314Y-103275000D02*
X160075000Y-103275000D01*
X162450000Y-101009314D02*
G75*
G02*
X162025736Y-101009314I-212132J212132D01*
G01*
X161608542Y-100592120D02*
G75*
G03*
X160052908Y-100592120I-777817J-777818D01*
G01*
X159911486Y-100733541D02*
G75*
G03*
X159911444Y-102289217I777814J-777859D01*
G01*
X160328679Y-102706369D02*
G75*
G02*
X160328678Y-103130632I-212179J-212131D01*
G01*
X162450000Y-100800000D02*
X162450000Y-101009314D01*
X162025736Y-101009314D02*
X161608542Y-100592120D01*
D19*
X162275001Y-88475000D02*
X162275001Y-89800003D01*
X162275001Y-89800003D02*
X162350000Y-89875002D01*
D18*
X153014990Y-100399304D02*
G75*
G03*
X153467538Y-100399304I226274J226273D01*
G01*
X153580676Y-100286167D02*
G75*
G02*
X154033224Y-100286167I226274J-226273D01*
G01*
X154146361Y-100851852D02*
X154033222Y-100964988D01*
X155094999Y-102479313D02*
X155282843Y-102667157D01*
X154146361Y-100399304D02*
G75*
G02*
X154146383Y-100851874I-226261J-226296D01*
G01*
X154033222Y-100964988D02*
G75*
G03*
X154033184Y-101417574I226278J-226312D01*
G01*
X154146360Y-101530674D02*
X155094999Y-102479313D01*
X152553134Y-99937448D02*
X153014990Y-100399304D01*
X153467538Y-100399304D02*
X153580676Y-100286167D01*
X154033222Y-101417536D02*
X154146360Y-101530674D01*
X154033224Y-100286167D02*
X154146361Y-100399304D01*
%TO.N,MIPO_DP1*%
X151987448Y-100503134D02*
X154717157Y-103232843D01*
X157490686Y-102595000D02*
G75*
G02*
X157790700Y-102895000I14J-300000D01*
G01*
X155890686Y-104075000D02*
G75*
G03*
X156990700Y-102975000I14J1100000D01*
G01*
%TO.N,MIPO_DN1*%
X155282843Y-102667157D02*
X155890686Y-103275000D01*
X158890686Y-103275000D02*
X159090686Y-103275000D01*
X156190686Y-102895000D02*
G75*
G02*
X157290686Y-101794986I1100014J0D01*
G01*
X157490686Y-101795000D02*
G75*
G02*
X158590700Y-102895000I14J-1100000D01*
G01*
X158590686Y-102975000D02*
G75*
G03*
X158890686Y-103275014I300014J0D01*
G01*
X157290686Y-101795000D02*
X157490686Y-101795000D01*
X159090686Y-103275000D02*
X159592157Y-103275000D01*
X155890686Y-103275000D02*
G75*
G03*
X156190700Y-102975000I14J300000D01*
G01*
%TO.N,MIPO_DP1*%
X159090686Y-104075000D02*
X159592157Y-104075000D01*
X157790686Y-102895000D02*
X157790686Y-102975000D01*
X156990686Y-102975000D02*
X156990686Y-102895000D01*
X158890686Y-104075000D02*
X159090686Y-104075000D01*
%TO.N,MIPO_DN1*%
X156190686Y-102975000D02*
X156190686Y-102895000D01*
%TO.N,MIPO_DP1*%
X157290686Y-102595000D02*
X157490686Y-102595000D01*
X155559314Y-104075000D02*
X155890686Y-104075000D01*
X156990686Y-102895000D02*
G75*
G02*
X157290686Y-102594986I300014J0D01*
G01*
%TO.N,MIPO_DN1*%
X158590686Y-102895000D02*
X158590686Y-102975000D01*
%TO.N,MIPO_DP1*%
X154717157Y-103232843D02*
X155559314Y-104075000D01*
X157790686Y-102975000D02*
G75*
G03*
X158890686Y-104075014I1100014J0D01*
G01*
%TO.N,MIPO_DN0*%
X152784869Y-96719183D02*
X152590686Y-96525000D01*
X153198853Y-97133167D02*
X152784869Y-96719183D01*
X153311988Y-97246301D02*
X153198853Y-97133167D01*
X153945596Y-97065243D02*
X153764537Y-97246301D01*
X152590686Y-96525000D02*
X151625001Y-96525000D01*
X154330224Y-97811989D02*
X154511282Y-97630930D01*
X151625001Y-96525000D02*
X151525001Y-96425000D01*
X155372037Y-99306351D02*
X154330224Y-98264538D01*
X153764537Y-97246301D02*
G75*
G02*
X153311989Y-97246301I-226274J226274D01*
G01*
X154398144Y-97065243D02*
G75*
G03*
X153945596Y-97065243I-226274J-226273D01*
G01*
X151525001Y-96425000D02*
X150025000Y-96425000D01*
X154511282Y-97630930D02*
G75*
G03*
X154511238Y-97178426I-226282J226230D01*
G01*
X154511282Y-97178381D02*
X154398144Y-97065243D01*
X154330224Y-98264538D02*
G75*
G02*
X154330260Y-97812026I226276J226238D01*
G01*
%TO.N,MIPO_CKN*%
X154844617Y-104903931D02*
X155440686Y-105500000D01*
X152465686Y-102525000D02*
X154844617Y-104903931D01*
X155440686Y-105500000D02*
G75*
G03*
X155740700Y-105200000I14J300000D01*
G01*
X150820000Y-102525000D02*
X152465686Y-102525000D01*
X163175000Y-105500000D02*
X164050000Y-104625000D01*
X150720000Y-102425000D02*
X150820000Y-102525000D01*
X164050000Y-104625000D02*
X164050000Y-89800000D01*
X150025000Y-102425000D02*
X150720000Y-102425000D01*
X155740686Y-105200000D02*
G75*
G02*
X156040686Y-104899986I300014J0D01*
G01*
X158160686Y-105180000D02*
G75*
G03*
X158480686Y-105500014I320014J0D01*
G01*
X157840686Y-104752357D02*
G75*
G02*
X158160743Y-105072357I14J-320043D01*
G01*
X157360686Y-105072357D02*
G75*
G02*
X157680686Y-104752386I320014J-43D01*
G01*
X157040686Y-105500000D02*
G75*
G03*
X157360700Y-105180000I14J320000D01*
G01*
X158640686Y-105500000D02*
X159463556Y-105500000D01*
X156240686Y-104900000D02*
G75*
G02*
X156540700Y-105200000I14J-300000D01*
G01*
X156540686Y-105200000D02*
G75*
G03*
X156840686Y-105500014I300014J0D01*
G01*
X156040686Y-104900000D02*
X156240686Y-104900000D01*
X156840686Y-105500000D02*
X157040686Y-105500000D01*
X157360686Y-105180000D02*
X157360686Y-105072357D01*
X157680686Y-104752357D02*
X157840686Y-104752357D01*
X159463556Y-105500000D02*
X163175000Y-105500000D01*
X158160686Y-105072357D02*
X158160686Y-105180000D01*
X158480686Y-105500000D02*
X158640686Y-105500000D01*
%TO.N,MIPO_DN0*%
X155447972Y-96325663D02*
X158403678Y-99281369D01*
X158262258Y-99847055D02*
X157936976Y-100172338D01*
X160525000Y-89800000D02*
X160525000Y-90491947D01*
X158403678Y-99281369D02*
G75*
G02*
X158403677Y-99705632I-212178J-212131D01*
G01*
X155447972Y-94770028D02*
G75*
G03*
X155448017Y-96325617I777828J-777772D01*
G01*
X158403678Y-99705633D02*
X158262258Y-99847055D01*
%TO.N,MIPO_DP0*%
X151525001Y-97425000D02*
X150025000Y-97425000D01*
%TO.N,MIPO_DN0*%
X155589394Y-94628607D02*
X155447972Y-94770028D01*
%TO.N,MIPO_DP0*%
X159535050Y-98149999D02*
X156579343Y-95194292D01*
X151625001Y-97325000D02*
X151525001Y-97425000D01*
%TO.N,MIPO_DN0*%
X157145029Y-94628607D02*
G75*
G03*
X155589395Y-94628607I-777817J-777816D01*
G01*
%TO.N,MIPO_DP0*%
X152259314Y-97325000D02*
X151625001Y-97325000D01*
X154806351Y-99872037D02*
X152259314Y-97325000D01*
%TO.N,MIPO_DN0*%
X160525000Y-97584314D02*
G75*
G02*
X160100736Y-97584314I-212132J212132D01*
G01*
%TO.N,MIPO_DP0*%
X155906652Y-100972338D02*
X154806351Y-99872037D01*
%TO.N,MIPO_DN0*%
X160100736Y-97584314D02*
X157145029Y-94628607D01*
X160525000Y-90491947D02*
X160525000Y-97584314D01*
%TO.N,MIPO_DP0*%
X158969363Y-98715683D02*
G75*
G02*
X158969363Y-100271318I-777863J-777817D01*
G01*
X156155079Y-95194292D02*
X156013657Y-95335713D01*
X161325000Y-90491947D02*
X161325000Y-97915686D01*
X161325000Y-97915686D02*
X161090685Y-98149999D01*
X156579343Y-95194292D02*
G75*
G03*
X156155079Y-95194292I-212132J-212132D01*
G01*
X156013657Y-95759977D02*
X158969363Y-98715683D01*
X161090685Y-98149999D02*
G75*
G02*
X159535051Y-98149999I-777817J777816D01*
G01*
X158827944Y-100412741D02*
X158268348Y-100972338D01*
X158969363Y-100271318D02*
X158827944Y-100412741D01*
X156013657Y-95335713D02*
G75*
G03*
X156013702Y-95759932I212143J-212087D01*
G01*
X161325000Y-89800000D02*
X161325000Y-90491947D01*
X158268348Y-100972338D02*
X155906652Y-100972338D01*
%TO.N,MIPO_DN0*%
X157936976Y-100172338D02*
X156238024Y-100172338D01*
X156238024Y-100172338D02*
X155372037Y-99306351D01*
%TO.N,MIPO_CKP*%
X164850000Y-105265686D02*
X164850000Y-89800000D01*
X163815686Y-106300000D02*
X164850000Y-105265686D01*
X155109314Y-106300000D02*
X163815686Y-106300000D01*
X152134314Y-103325000D02*
X155109314Y-106300000D01*
X150820000Y-103325000D02*
X152134314Y-103325000D01*
X150720000Y-103425000D02*
X150820000Y-103325000D01*
X150025000Y-103425000D02*
X150720000Y-103425000D01*
%TO.N,MIPO_DN1*%
X151625001Y-99525000D02*
X151649958Y-99525000D01*
%TO.N,MIPO_DP1*%
X150025000Y-100425000D02*
X150990143Y-100425000D01*
X150990143Y-100425000D02*
X151525001Y-100425000D01*
%TO.N,MIPO_DN1*%
X150025000Y-99425000D02*
X150990143Y-99425000D01*
X150990143Y-99425000D02*
X151525001Y-99425000D01*
X151525001Y-99425000D02*
X151625001Y-99525000D01*
D19*
%TO.N,MIPO_DP1*%
X163250000Y-89550000D02*
X163250000Y-89775002D01*
X162775000Y-89075000D02*
X163250000Y-89550000D01*
X162775000Y-88475000D02*
X162775000Y-89075000D01*
D18*
X151525001Y-100425000D02*
X151625001Y-100325000D01*
X151625001Y-100325000D02*
X151649958Y-100325000D01*
X151649958Y-100325000D02*
X151809314Y-100325000D01*
X151809314Y-100325000D02*
X151987448Y-100503134D01*
%TO.N,MIPO_DN1*%
X151649958Y-99525000D02*
X152140686Y-99525000D01*
X152140686Y-99525000D02*
X152553134Y-99937448D01*
D19*
%TO.N,MIPO_DP0*%
X161275000Y-88475000D02*
X161275000Y-89750000D01*
X161275000Y-89750000D02*
X161325000Y-89800000D01*
%TO.N,MIPO_DN0*%
X160774998Y-88475000D02*
X160774998Y-89550002D01*
X160774998Y-89550002D02*
X160525000Y-89800000D01*
%TO.N,3V3*%
X150025000Y-109425000D02*
X153325000Y-109425000D01*
X153325000Y-109425000D02*
X154550000Y-110650000D01*
X154550000Y-110650000D02*
X162762744Y-110650000D01*
X162762744Y-110650000D02*
X167775000Y-105637744D01*
X167775000Y-105637744D02*
X167775000Y-88475000D01*
%TO.N,I2C_SDA*%
X150025000Y-108425000D02*
X153234314Y-108425000D01*
X153234314Y-108425000D02*
X154209314Y-109400000D01*
X163447058Y-109400000D02*
X166774999Y-106072059D01*
X154209314Y-109400000D02*
X163447058Y-109400000D01*
X166774999Y-106072059D02*
X166774999Y-88475000D01*
%TO.N,I2C_SCL*%
X150025000Y-107425000D02*
X152800000Y-107425000D01*
X152800000Y-107425000D02*
X154375000Y-109000000D01*
X163281372Y-109000000D02*
X154375000Y-109000000D01*
X166275000Y-106006372D02*
X163281372Y-109000000D01*
X166275000Y-88475000D02*
X166275000Y-106006372D01*
%TO.N,SENSOR_CLK*%
X150025000Y-106425000D02*
X152459314Y-106425000D01*
X152459314Y-106425000D02*
X154634314Y-108600000D01*
X163115686Y-108600000D02*
X165850000Y-105865686D01*
X154634314Y-108600000D02*
X163115686Y-108600000D01*
X165850000Y-105865686D02*
X165850000Y-89134316D01*
X165850000Y-89134316D02*
X165774999Y-89059315D01*
X165774999Y-89059315D02*
X165774999Y-88475000D01*
%TO.N,SENSOR_RSTN*%
X165275000Y-88475000D02*
X165275000Y-89125001D01*
X165275000Y-89125001D02*
X165450000Y-89300001D01*
X165450000Y-89300001D02*
X165450000Y-105700000D01*
X165450000Y-105700000D02*
X162950000Y-108200000D01*
X162950000Y-108200000D02*
X154800000Y-108200000D01*
X154800000Y-108200000D02*
X152025000Y-105425000D01*
X152025000Y-105425000D02*
X150025000Y-105425000D01*
%TO.N,MIPO_CKN*%
X163775000Y-88475000D02*
X163775000Y-89451474D01*
X163775000Y-89451474D02*
X164050000Y-89726474D01*
X164050000Y-89726474D02*
X164050000Y-89800000D01*
%TO.N,MIPO_CKP*%
X164274999Y-88475000D02*
X164274999Y-89124998D01*
X164274999Y-89124998D02*
X164850000Y-89699999D01*
X164850000Y-89699999D02*
X164850000Y-89800000D01*
%TD*%
%TA.AperFunction,Conductor*%
%TO.N,GND*%
G36*
X172593039Y-86669685D02*
G01*
X172638794Y-86722489D01*
X172650000Y-86774000D01*
X172650000Y-112535618D01*
X172630315Y-112602657D01*
X172577511Y-112648412D01*
X172508353Y-112658356D01*
X172506603Y-112658092D01*
X172452352Y-112649500D01*
X172247648Y-112649500D01*
X172223329Y-112653351D01*
X172045465Y-112681522D01*
X171850776Y-112744781D01*
X171668386Y-112837715D01*
X171502786Y-112958028D01*
X171358028Y-113102786D01*
X171237715Y-113268386D01*
X171144781Y-113450776D01*
X171081522Y-113645465D01*
X171049500Y-113847648D01*
X171049500Y-114052351D01*
X171081522Y-114254534D01*
X171118726Y-114369035D01*
X171144780Y-114449219D01*
X171144781Y-114449222D01*
X171144782Y-114449223D01*
X171180694Y-114519705D01*
X171193590Y-114588375D01*
X171167313Y-114653115D01*
X171110207Y-114693372D01*
X171070209Y-114700000D01*
X140799665Y-114700000D01*
X140732626Y-114680315D01*
X140686871Y-114627511D01*
X140675667Y-114575337D01*
X140694491Y-111055247D01*
X145224500Y-111055247D01*
X145224500Y-113774752D01*
X145236131Y-113833229D01*
X145236132Y-113833230D01*
X145280447Y-113899552D01*
X145346769Y-113943867D01*
X145346770Y-113943868D01*
X145405247Y-113955499D01*
X145405250Y-113955500D01*
X145405252Y-113955500D01*
X149044750Y-113955500D01*
X149044751Y-113955499D01*
X149059568Y-113952552D01*
X149103229Y-113943868D01*
X149103229Y-113943867D01*
X149103231Y-113943867D01*
X149169552Y-113899552D01*
X149213867Y-113833231D01*
X149213867Y-113833229D01*
X149213868Y-113833229D01*
X149225499Y-113774752D01*
X149225500Y-113774750D01*
X149225500Y-111055249D01*
X149225499Y-111055247D01*
X149213868Y-110996770D01*
X149213867Y-110996769D01*
X149169552Y-110930447D01*
X149103230Y-110886132D01*
X149103229Y-110886131D01*
X149044752Y-110874500D01*
X149044748Y-110874500D01*
X145405252Y-110874500D01*
X145405247Y-110874500D01*
X145346770Y-110886131D01*
X145346769Y-110886132D01*
X145280447Y-110930447D01*
X145236132Y-110996769D01*
X145236131Y-110996770D01*
X145224500Y-111055247D01*
X140694491Y-111055247D01*
X140726405Y-105087187D01*
X140776737Y-95675000D01*
X148525000Y-95675000D01*
X148525000Y-95777844D01*
X148531401Y-95837372D01*
X148531403Y-95837379D01*
X148581645Y-95972086D01*
X148581649Y-95972093D01*
X148667809Y-96087187D01*
X148667812Y-96087190D01*
X148774811Y-96167290D01*
X148816682Y-96223223D01*
X148824500Y-96266556D01*
X148824500Y-96749752D01*
X148836131Y-96808229D01*
X148836132Y-96808230D01*
X148868124Y-96856109D01*
X148889002Y-96922786D01*
X148870518Y-96990167D01*
X148868124Y-96993891D01*
X148836132Y-97041769D01*
X148836131Y-97041770D01*
X148824500Y-97100247D01*
X148824500Y-97583443D01*
X148804815Y-97650482D01*
X148774812Y-97682709D01*
X148667809Y-97762812D01*
X148581649Y-97877906D01*
X148581645Y-97877913D01*
X148531403Y-98012620D01*
X148531401Y-98012627D01*
X148525000Y-98072155D01*
X148525000Y-98175000D01*
X151525000Y-98175000D01*
X151525000Y-98072172D01*
X151524999Y-98072163D01*
X151522866Y-98052325D01*
X151535269Y-97983565D01*
X151582878Y-97932426D01*
X151614055Y-97919293D01*
X151718187Y-97891392D01*
X151769409Y-97861819D01*
X151803541Y-97842113D01*
X151865541Y-97825500D01*
X152000638Y-97825500D01*
X152067677Y-97845185D01*
X152088319Y-97861819D01*
X153722496Y-99495996D01*
X153755981Y-99557319D01*
X153750997Y-99627011D01*
X153709125Y-99682944D01*
X153659007Y-99705294D01*
X153567624Y-99723471D01*
X153567614Y-99723474D01*
X153418303Y-99785320D01*
X153418290Y-99785327D01*
X153317395Y-99852744D01*
X153250717Y-99873622D01*
X153183337Y-99855137D01*
X153160823Y-99837323D01*
X152448002Y-99124502D01*
X152448000Y-99124500D01*
X152377861Y-99084005D01*
X152333873Y-99058608D01*
X152269811Y-99041443D01*
X152206578Y-99024500D01*
X152206577Y-99024500D01*
X151865541Y-99024500D01*
X151803541Y-99007887D01*
X151718190Y-98958609D01*
X151718191Y-98958609D01*
X151691866Y-98951555D01*
X151614060Y-98930707D01*
X151554401Y-98894343D01*
X151523872Y-98831496D01*
X151522866Y-98797673D01*
X151524999Y-98777834D01*
X151525000Y-98777827D01*
X151525000Y-98675000D01*
X148525000Y-98675000D01*
X148525000Y-98777844D01*
X148531401Y-98837372D01*
X148531403Y-98837379D01*
X148581645Y-98972086D01*
X148581649Y-98972093D01*
X148667809Y-99087187D01*
X148667812Y-99087190D01*
X148774811Y-99167290D01*
X148816682Y-99223223D01*
X148824500Y-99266556D01*
X148824500Y-99749752D01*
X148836131Y-99808229D01*
X148836132Y-99808230D01*
X148868124Y-99856109D01*
X148889002Y-99922786D01*
X148870518Y-99990167D01*
X148868124Y-99993891D01*
X148836132Y-100041769D01*
X148836131Y-100041770D01*
X148824500Y-100100247D01*
X148824500Y-100583443D01*
X148804815Y-100650482D01*
X148774812Y-100682709D01*
X148667809Y-100762812D01*
X148581649Y-100877906D01*
X148581645Y-100877913D01*
X148531403Y-101012620D01*
X148531401Y-101012627D01*
X148525000Y-101072155D01*
X148525000Y-101175000D01*
X151525000Y-101175000D01*
X151525000Y-101072172D01*
X151524999Y-101072165D01*
X151523583Y-101058994D01*
X151535986Y-100990234D01*
X151583594Y-100939095D01*
X151651293Y-100921813D01*
X151717588Y-100943875D01*
X151734553Y-100958053D01*
X152589319Y-101812819D01*
X152622804Y-101874142D01*
X152617820Y-101943834D01*
X152575948Y-101999767D01*
X152510484Y-102024184D01*
X152501638Y-102024500D01*
X151627398Y-102024500D01*
X151560359Y-102004815D01*
X151514604Y-101952011D01*
X151504660Y-101882853D01*
X151511217Y-101857165D01*
X151518596Y-101837380D01*
X151518598Y-101837372D01*
X151524999Y-101777844D01*
X151525000Y-101777827D01*
X151525000Y-101675000D01*
X148525000Y-101675000D01*
X148525000Y-101777844D01*
X148531401Y-101837372D01*
X148531403Y-101837379D01*
X148581645Y-101972086D01*
X148581649Y-101972093D01*
X148667809Y-102087187D01*
X148667812Y-102087190D01*
X148774811Y-102167290D01*
X148816682Y-102223223D01*
X148824500Y-102266556D01*
X148824500Y-102749752D01*
X148836131Y-102808229D01*
X148836132Y-102808230D01*
X148868124Y-102856109D01*
X148889002Y-102922786D01*
X148870518Y-102990167D01*
X148868124Y-102993891D01*
X148836132Y-103041769D01*
X148836131Y-103041770D01*
X148824500Y-103100247D01*
X148824500Y-103583443D01*
X148804815Y-103650482D01*
X148774812Y-103682709D01*
X148667809Y-103762812D01*
X148581649Y-103877906D01*
X148581645Y-103877913D01*
X148531403Y-104012620D01*
X148531401Y-104012627D01*
X148525000Y-104072155D01*
X148525000Y-104175000D01*
X151525000Y-104175000D01*
X151525000Y-104072172D01*
X151524999Y-104072155D01*
X151518598Y-104012627D01*
X151518596Y-104012619D01*
X151511217Y-103992835D01*
X151506231Y-103923144D01*
X151539715Y-103861820D01*
X151601038Y-103828334D01*
X151627398Y-103825500D01*
X151875638Y-103825500D01*
X151942677Y-103845185D01*
X151963319Y-103861819D01*
X154708814Y-106607314D01*
X154802000Y-106700500D01*
X154879397Y-106745185D01*
X154887300Y-106749748D01*
X154887302Y-106749749D01*
X154916125Y-106766391D01*
X154916127Y-106766391D01*
X154916128Y-106766392D01*
X155043421Y-106800500D01*
X155043422Y-106800500D01*
X155043423Y-106800500D01*
X163625166Y-106800500D01*
X163692205Y-106820185D01*
X163737960Y-106872989D01*
X163747904Y-106942147D01*
X163718879Y-107005703D01*
X163712847Y-107012181D01*
X162861848Y-107863181D01*
X162800525Y-107896666D01*
X162774167Y-107899500D01*
X154975833Y-107899500D01*
X154908794Y-107879815D01*
X154888152Y-107863181D01*
X152209514Y-105184542D01*
X152201645Y-105179999D01*
X152140989Y-105144979D01*
X152064562Y-105124500D01*
X152064560Y-105124500D01*
X151590101Y-105124500D01*
X151523062Y-105104815D01*
X151477307Y-105052011D01*
X151467363Y-104982853D01*
X151473919Y-104957167D01*
X151518596Y-104837379D01*
X151518598Y-104837372D01*
X151524999Y-104777844D01*
X151525000Y-104777827D01*
X151525000Y-104675000D01*
X148525000Y-104675000D01*
X148525000Y-104777844D01*
X148531401Y-104837372D01*
X148531403Y-104837379D01*
X148581645Y-104972086D01*
X148581649Y-104972093D01*
X148667809Y-105087187D01*
X148667812Y-105087190D01*
X148774811Y-105167290D01*
X148816682Y-105223223D01*
X148824500Y-105266556D01*
X148824500Y-105749752D01*
X148836131Y-105808229D01*
X148836132Y-105808230D01*
X148868124Y-105856109D01*
X148889002Y-105922786D01*
X148870518Y-105990167D01*
X148868124Y-105993891D01*
X148836132Y-106041769D01*
X148836131Y-106041770D01*
X148824500Y-106100247D01*
X148824500Y-106749752D01*
X148836131Y-106808229D01*
X148836132Y-106808230D01*
X148868124Y-106856109D01*
X148889002Y-106922786D01*
X148870518Y-106990167D01*
X148868124Y-106993891D01*
X148836132Y-107041769D01*
X148836131Y-107041770D01*
X148824500Y-107100247D01*
X148824500Y-107749752D01*
X148836131Y-107808229D01*
X148836132Y-107808230D01*
X148868124Y-107856109D01*
X148889002Y-107922786D01*
X148870518Y-107990167D01*
X148868124Y-107993891D01*
X148836132Y-108041769D01*
X148836131Y-108041770D01*
X148824500Y-108100247D01*
X148824500Y-108749752D01*
X148836131Y-108808229D01*
X148836132Y-108808230D01*
X148868124Y-108856109D01*
X148889002Y-108922786D01*
X148870518Y-108990167D01*
X148868124Y-108993891D01*
X148836132Y-109041769D01*
X148836131Y-109041770D01*
X148824500Y-109100247D01*
X148824500Y-109749752D01*
X148836131Y-109808229D01*
X148836132Y-109808230D01*
X148880447Y-109874552D01*
X148946769Y-109918867D01*
X148946770Y-109918868D01*
X149005247Y-109930499D01*
X149005250Y-109930500D01*
X149005252Y-109930500D01*
X151044750Y-109930500D01*
X151044751Y-109930499D01*
X151059568Y-109927552D01*
X151103229Y-109918868D01*
X151103229Y-109918867D01*
X151103231Y-109918867D01*
X151169552Y-109874552D01*
X151213867Y-109808231D01*
X151213867Y-109808226D01*
X151216430Y-109802044D01*
X151260273Y-109747642D01*
X151326567Y-109725579D01*
X151330990Y-109725500D01*
X153149167Y-109725500D01*
X153216206Y-109745185D01*
X153236848Y-109761819D01*
X154365489Y-110890460D01*
X154424829Y-110924720D01*
X154434008Y-110930020D01*
X154434012Y-110930022D01*
X154510438Y-110950500D01*
X154510440Y-110950500D01*
X162802304Y-110950500D01*
X162802306Y-110950500D01*
X162878733Y-110930021D01*
X162947255Y-110890460D01*
X163003204Y-110834511D01*
X168015460Y-105822255D01*
X168024096Y-105807297D01*
X168055021Y-105753733D01*
X168075500Y-105677306D01*
X168075500Y-89048266D01*
X168095185Y-88981227D01*
X168096398Y-88979374D01*
X168113867Y-88953231D01*
X168125500Y-88894748D01*
X168125500Y-88855247D01*
X168824484Y-88855247D01*
X168824484Y-91944752D01*
X168836115Y-92003229D01*
X168836116Y-92003230D01*
X168880431Y-92069552D01*
X168946753Y-92113867D01*
X168946754Y-92113868D01*
X169005231Y-92125499D01*
X169005234Y-92125500D01*
X169005236Y-92125500D01*
X170344734Y-92125500D01*
X170344735Y-92125499D01*
X170359552Y-92122552D01*
X170403213Y-92113868D01*
X170403213Y-92113867D01*
X170403215Y-92113867D01*
X170469536Y-92069552D01*
X170513851Y-92003231D01*
X170513851Y-92003229D01*
X170513852Y-92003229D01*
X170525483Y-91944752D01*
X170525484Y-91944750D01*
X170525484Y-91404500D01*
X170545169Y-91337461D01*
X170597973Y-91291706D01*
X170649484Y-91280500D01*
X171424995Y-91280500D01*
X171424995Y-91280499D01*
X171470720Y-91275348D01*
X171553119Y-91235666D01*
X171610141Y-91164163D01*
X171630492Y-91075000D01*
X171630492Y-88875000D01*
X171625340Y-88829272D01*
X171604422Y-88785837D01*
X171585658Y-88746873D01*
X171514155Y-88689851D01*
X171424996Y-88669500D01*
X171424992Y-88669500D01*
X170324992Y-88669500D01*
X170324987Y-88669500D01*
X170287536Y-88673720D01*
X170273652Y-88674500D01*
X169005231Y-88674500D01*
X168946754Y-88686131D01*
X168946753Y-88686132D01*
X168880431Y-88730447D01*
X168836116Y-88796769D01*
X168836115Y-88796770D01*
X168824484Y-88855247D01*
X168125500Y-88855247D01*
X168125500Y-88055252D01*
X168125500Y-88055249D01*
X168125499Y-88055247D01*
X168113868Y-87996770D01*
X168113867Y-87996769D01*
X168069552Y-87930447D01*
X168003230Y-87886132D01*
X168003229Y-87886131D01*
X167944752Y-87874500D01*
X167944748Y-87874500D01*
X167605252Y-87874500D01*
X167549190Y-87885651D01*
X167500809Y-87885650D01*
X167444753Y-87874500D01*
X167444749Y-87874500D01*
X167105253Y-87874500D01*
X167049190Y-87885651D01*
X167000810Y-87885651D01*
X166944747Y-87874500D01*
X166605251Y-87874500D01*
X166549189Y-87885651D01*
X166500808Y-87885650D01*
X166444752Y-87874500D01*
X166444748Y-87874500D01*
X166105252Y-87874500D01*
X166049189Y-87885651D01*
X166000809Y-87885651D01*
X165944747Y-87874500D01*
X165605251Y-87874500D01*
X165549189Y-87885651D01*
X165500808Y-87885650D01*
X165438774Y-87873311D01*
X165439306Y-87870635D01*
X165385410Y-87848835D01*
X165363144Y-87825950D01*
X165282191Y-87717812D01*
X165282188Y-87717809D01*
X165167094Y-87631649D01*
X165167087Y-87631645D01*
X165032380Y-87581403D01*
X165032373Y-87581401D01*
X164972845Y-87575000D01*
X164925001Y-87575000D01*
X164925001Y-88044074D01*
X164924500Y-88054273D01*
X164924500Y-88501000D01*
X164904815Y-88568039D01*
X164852011Y-88613794D01*
X164800500Y-88625000D01*
X164749499Y-88625000D01*
X164682460Y-88605315D01*
X164636705Y-88552511D01*
X164625499Y-88501000D01*
X164625499Y-88054240D01*
X164625001Y-88044104D01*
X164625001Y-87575000D01*
X164577156Y-87575000D01*
X164517628Y-87581401D01*
X164517621Y-87581403D01*
X164382914Y-87631645D01*
X164382907Y-87631649D01*
X164267813Y-87717809D01*
X164267810Y-87717812D01*
X164186858Y-87825950D01*
X164130924Y-87867821D01*
X164111047Y-87872425D01*
X164111224Y-87873312D01*
X164049189Y-87885651D01*
X164000808Y-87885650D01*
X163938774Y-87873311D01*
X163939308Y-87870624D01*
X163885458Y-87848875D01*
X163863140Y-87825950D01*
X163782185Y-87717809D01*
X163667092Y-87631649D01*
X163667085Y-87631645D01*
X163532378Y-87581403D01*
X163532371Y-87581401D01*
X163472843Y-87575000D01*
X163424999Y-87575000D01*
X163424999Y-88044094D01*
X163424500Y-88054252D01*
X163424500Y-88501000D01*
X163404815Y-88568039D01*
X163352011Y-88613794D01*
X163300500Y-88625000D01*
X163249500Y-88625000D01*
X163182461Y-88605315D01*
X163136706Y-88552511D01*
X163125500Y-88501000D01*
X163125500Y-88054273D01*
X163124999Y-88044074D01*
X163124999Y-87575000D01*
X163077154Y-87575000D01*
X163017626Y-87581401D01*
X163017619Y-87581403D01*
X162882912Y-87631645D01*
X162882905Y-87631649D01*
X162767811Y-87717809D01*
X162686855Y-87825951D01*
X162630921Y-87867821D01*
X162611049Y-87872431D01*
X162611225Y-87873312D01*
X162549190Y-87885651D01*
X162500809Y-87885650D01*
X162438775Y-87873311D01*
X162439310Y-87870620D01*
X162385475Y-87848889D01*
X162363140Y-87825950D01*
X162282185Y-87717809D01*
X162167092Y-87631649D01*
X162167085Y-87631645D01*
X162032378Y-87581403D01*
X162032371Y-87581401D01*
X161972843Y-87575000D01*
X161924999Y-87575000D01*
X161924999Y-88044104D01*
X161924501Y-88054240D01*
X161924501Y-88501000D01*
X161904816Y-88568039D01*
X161852012Y-88613794D01*
X161800501Y-88625000D01*
X161749500Y-88625000D01*
X161682461Y-88605315D01*
X161636706Y-88552511D01*
X161625500Y-88501000D01*
X161625500Y-88054273D01*
X161624999Y-88044074D01*
X161624999Y-87575000D01*
X161577154Y-87575000D01*
X161517626Y-87581401D01*
X161517619Y-87581403D01*
X161382912Y-87631645D01*
X161382905Y-87631649D01*
X161267811Y-87717809D01*
X161186855Y-87825951D01*
X161130921Y-87867821D01*
X161111049Y-87872431D01*
X161111225Y-87873312D01*
X161049189Y-87885651D01*
X161000809Y-87885651D01*
X160938773Y-87873312D01*
X160939304Y-87870639D01*
X160885392Y-87848821D01*
X160863143Y-87825950D01*
X160782190Y-87717812D01*
X160782187Y-87717809D01*
X160667093Y-87631649D01*
X160667086Y-87631645D01*
X160532379Y-87581403D01*
X160532372Y-87581401D01*
X160472844Y-87575000D01*
X160425000Y-87575000D01*
X160425000Y-88044063D01*
X160424498Y-88054281D01*
X160424498Y-88501000D01*
X160404813Y-88568039D01*
X160352009Y-88613794D01*
X160300498Y-88625000D01*
X159625000Y-88625000D01*
X159625000Y-88922844D01*
X159631401Y-88982372D01*
X159631403Y-88982379D01*
X159681645Y-89117086D01*
X159681649Y-89117093D01*
X159767809Y-89232187D01*
X159767812Y-89232190D01*
X159882906Y-89318350D01*
X159882913Y-89318354D01*
X160024892Y-89371309D01*
X160023927Y-89373896D01*
X160073208Y-89401952D01*
X160105600Y-89463860D01*
X160099380Y-89533452D01*
X160091372Y-89550064D01*
X160058609Y-89606810D01*
X160058609Y-89606811D01*
X160024500Y-89734108D01*
X160024500Y-96500902D01*
X160004815Y-96567941D01*
X159952011Y-96613696D01*
X159882853Y-96623640D01*
X159819297Y-96594615D01*
X159812819Y-96588583D01*
X157452342Y-94228106D01*
X157418003Y-94193766D01*
X157417986Y-94193751D01*
X157234720Y-94056560D01*
X157234712Y-94056555D01*
X157033787Y-93946841D01*
X157033783Y-93946839D01*
X156952458Y-93916507D01*
X156819276Y-93866833D01*
X156819272Y-93866832D01*
X156819269Y-93866831D01*
X156595573Y-93818168D01*
X156367212Y-93801836D01*
X156367210Y-93801836D01*
X156138849Y-93818168D01*
X155915155Y-93866830D01*
X155700634Y-93946842D01*
X155499710Y-94056555D01*
X155499709Y-94056556D01*
X155316432Y-94193756D01*
X155316418Y-94193768D01*
X155282086Y-94228099D01*
X155282083Y-94228104D01*
X155282081Y-94228106D01*
X155152366Y-94357817D01*
X155143774Y-94366410D01*
X155143729Y-94366452D01*
X155130407Y-94379774D01*
X155130210Y-94379881D01*
X155013075Y-94497027D01*
X155013057Y-94497048D01*
X154875873Y-94680317D01*
X154875871Y-94680319D01*
X154766160Y-94881256D01*
X154766156Y-94881263D01*
X154686157Y-95095772D01*
X154686156Y-95095774D01*
X154637498Y-95319487D01*
X154637497Y-95319497D01*
X154621173Y-95547843D01*
X154621173Y-95547846D01*
X154637511Y-95776205D01*
X154637512Y-95776212D01*
X154680130Y-95972093D01*
X154686184Y-95999917D01*
X154718737Y-96087187D01*
X154766195Y-96214419D01*
X154766196Y-96214421D01*
X154766197Y-96214423D01*
X154823130Y-96318683D01*
X154875926Y-96415365D01*
X155013124Y-96598630D01*
X155013132Y-96598639D01*
X155067091Y-96652596D01*
X157820316Y-99405821D01*
X157853801Y-99467144D01*
X157848817Y-99536836D01*
X157820317Y-99581182D01*
X157765982Y-99635518D01*
X157704659Y-99669004D01*
X157678300Y-99671838D01*
X156496700Y-99671838D01*
X156429661Y-99652153D01*
X156409019Y-99635519D01*
X154899484Y-98125984D01*
X154865999Y-98064661D01*
X154870983Y-97994969D01*
X154899473Y-97950633D01*
X154922412Y-97927690D01*
X155012192Y-97793291D01*
X155074029Y-97643959D01*
X155105545Y-97485433D01*
X155105529Y-97323805D01*
X155073982Y-97165286D01*
X155012116Y-97015966D01*
X155012113Y-97015962D01*
X155012113Y-97015960D01*
X154922314Y-96881591D01*
X154922307Y-96881583D01*
X154865161Y-96824446D01*
X154860177Y-96819463D01*
X154860170Y-96819452D01*
X154860169Y-96819454D01*
X154705455Y-96664740D01*
X154694911Y-96654195D01*
X154694908Y-96654193D01*
X154560529Y-96564403D01*
X154560516Y-96564396D01*
X154411205Y-96502550D01*
X154411195Y-96502547D01*
X154252684Y-96471017D01*
X154252682Y-96471017D01*
X154091058Y-96471017D01*
X154091056Y-96471017D01*
X153932544Y-96502547D01*
X153932534Y-96502550D01*
X153783223Y-96564396D01*
X153783210Y-96564403D01*
X153648831Y-96654193D01*
X153648827Y-96654196D01*
X153625943Y-96677081D01*
X153564620Y-96710566D01*
X153494928Y-96705582D01*
X153450581Y-96677081D01*
X153085125Y-96311625D01*
X153085117Y-96311618D01*
X152898000Y-96124500D01*
X152849765Y-96096651D01*
X152783873Y-96058608D01*
X152720225Y-96041554D01*
X152656578Y-96024500D01*
X152656577Y-96024500D01*
X151865541Y-96024500D01*
X151803541Y-96007887D01*
X151718190Y-95958609D01*
X151718191Y-95958609D01*
X151691866Y-95951555D01*
X151614060Y-95930707D01*
X151554401Y-95894343D01*
X151523872Y-95831496D01*
X151522866Y-95797673D01*
X151524999Y-95777834D01*
X151525000Y-95777827D01*
X151525000Y-95675000D01*
X148525000Y-95675000D01*
X140776737Y-95675000D01*
X140779961Y-95072155D01*
X148525000Y-95072155D01*
X148525000Y-95175000D01*
X149775000Y-95175000D01*
X150275000Y-95175000D01*
X151525000Y-95175000D01*
X151525000Y-95072172D01*
X151524999Y-95072155D01*
X151518598Y-95012627D01*
X151518596Y-95012620D01*
X151468354Y-94877913D01*
X151468350Y-94877906D01*
X151382190Y-94762812D01*
X151382187Y-94762809D01*
X151267093Y-94676649D01*
X151267086Y-94676645D01*
X151132379Y-94626403D01*
X151132372Y-94626401D01*
X151072844Y-94620000D01*
X150275000Y-94620000D01*
X150275000Y-95175000D01*
X149775000Y-95175000D01*
X149775000Y-94620000D01*
X148977155Y-94620000D01*
X148917627Y-94626401D01*
X148917620Y-94626403D01*
X148782913Y-94676645D01*
X148782906Y-94676649D01*
X148667812Y-94762809D01*
X148667809Y-94762812D01*
X148581649Y-94877906D01*
X148581645Y-94877913D01*
X148531403Y-95012620D01*
X148531401Y-95012627D01*
X148525000Y-95072155D01*
X140779961Y-95072155D01*
X140801335Y-91075247D01*
X145224500Y-91075247D01*
X145224500Y-93794752D01*
X145236131Y-93853229D01*
X145236132Y-93853230D01*
X145280447Y-93919552D01*
X145346769Y-93963867D01*
X145346770Y-93963868D01*
X145405247Y-93975499D01*
X145405250Y-93975500D01*
X145405252Y-93975500D01*
X149044750Y-93975500D01*
X149044751Y-93975499D01*
X149059568Y-93972552D01*
X149103229Y-93963868D01*
X149103229Y-93963867D01*
X149103231Y-93963867D01*
X149169552Y-93919552D01*
X149213867Y-93853231D01*
X149213867Y-93853229D01*
X149213868Y-93853229D01*
X149225499Y-93794752D01*
X149225500Y-93794750D01*
X149225500Y-91075249D01*
X149225499Y-91075247D01*
X149213868Y-91016770D01*
X149213867Y-91016769D01*
X149169552Y-90950447D01*
X149103230Y-90906132D01*
X149103229Y-90906131D01*
X149044752Y-90894500D01*
X149044748Y-90894500D01*
X145405252Y-90894500D01*
X145405247Y-90894500D01*
X145346770Y-90906131D01*
X145346769Y-90906132D01*
X145280447Y-90950447D01*
X145236132Y-91016769D01*
X145236131Y-91016770D01*
X145224500Y-91075247D01*
X140801335Y-91075247D01*
X140813101Y-88874995D01*
X156419492Y-88874995D01*
X156419492Y-91075004D01*
X156424643Y-91120728D01*
X156464325Y-91203126D01*
X156464326Y-91203127D01*
X156535829Y-91260149D01*
X156602420Y-91275348D01*
X156624987Y-91280499D01*
X156624992Y-91280500D01*
X157400500Y-91280500D01*
X157467539Y-91300185D01*
X157513294Y-91352989D01*
X157524500Y-91404500D01*
X157524500Y-91944752D01*
X157536131Y-92003229D01*
X157536132Y-92003230D01*
X157580447Y-92069552D01*
X157646769Y-92113867D01*
X157646770Y-92113868D01*
X157705247Y-92125499D01*
X157705250Y-92125500D01*
X157705252Y-92125500D01*
X159044750Y-92125500D01*
X159044751Y-92125499D01*
X159059568Y-92122552D01*
X159103229Y-92113868D01*
X159103229Y-92113867D01*
X159103231Y-92113867D01*
X159169552Y-92069552D01*
X159213867Y-92003231D01*
X159213867Y-92003229D01*
X159213868Y-92003229D01*
X159225499Y-91944752D01*
X159225500Y-91944750D01*
X159225500Y-88855249D01*
X159225499Y-88855247D01*
X159213868Y-88796770D01*
X159213867Y-88796769D01*
X159169552Y-88730447D01*
X159103230Y-88686132D01*
X159103229Y-88686131D01*
X159044752Y-88674500D01*
X159044748Y-88674500D01*
X157760871Y-88674500D01*
X157733277Y-88671391D01*
X157724993Y-88669500D01*
X157724992Y-88669500D01*
X156624992Y-88669500D01*
X156624987Y-88669500D01*
X156579263Y-88674651D01*
X156496865Y-88714333D01*
X156439843Y-88785836D01*
X156419492Y-88874995D01*
X140813101Y-88874995D01*
X140814458Y-88621205D01*
X140834501Y-88554275D01*
X140887548Y-88508803D01*
X140956759Y-88499229D01*
X140957632Y-88499363D01*
X141122648Y-88525500D01*
X141122650Y-88525500D01*
X141327351Y-88525500D01*
X141327352Y-88525500D01*
X141529534Y-88493477D01*
X141724219Y-88430220D01*
X141906610Y-88337287D01*
X141999590Y-88269732D01*
X142072213Y-88216971D01*
X142072215Y-88216968D01*
X142072219Y-88216966D01*
X142216966Y-88072219D01*
X142216968Y-88072215D01*
X142216971Y-88072213D01*
X142249707Y-88027155D01*
X159625000Y-88027155D01*
X159625000Y-88325000D01*
X160125000Y-88325000D01*
X160125000Y-87575000D01*
X160077155Y-87575000D01*
X160017627Y-87581401D01*
X160017620Y-87581403D01*
X159882913Y-87631645D01*
X159882906Y-87631649D01*
X159767812Y-87717809D01*
X159767809Y-87717812D01*
X159681649Y-87832906D01*
X159681645Y-87832913D01*
X159631403Y-87967620D01*
X159631401Y-87967627D01*
X159625000Y-88027155D01*
X142249707Y-88027155D01*
X142292961Y-87967620D01*
X142337287Y-87906610D01*
X142430220Y-87724219D01*
X142493477Y-87529534D01*
X142525500Y-87327352D01*
X142525500Y-87122648D01*
X142493477Y-86920466D01*
X142493476Y-86920462D01*
X142493476Y-86920461D01*
X142458338Y-86812318D01*
X142456343Y-86742477D01*
X142492423Y-86682644D01*
X142555124Y-86651816D01*
X142576269Y-86650000D01*
X172526000Y-86650000D01*
X172593039Y-86669685D01*
G37*
%TD.AperFunction*%
%TD*%
D20*
%TO.C,J1*%
G36*
X157724992Y-91075000D02*
G01*
X156624992Y-91075000D01*
X156624992Y-88875000D01*
X157724992Y-88875000D01*
X157724992Y-91075000D01*
G37*
G36*
X171424992Y-91075000D02*
G01*
X170324992Y-91075000D01*
X170324992Y-88875000D01*
X171424992Y-88875000D01*
X171424992Y-91075000D01*
G37*
%TD*%
D12*
%TO.C,H2*%
X172350000Y-113950000D03*
%TD*%
%TO.C,H1*%
X141225000Y-87225000D03*
%TD*%
D21*
%TO.C,J2*%
X150025000Y-95425000D03*
X150025000Y-96425000D03*
X150025000Y-97425000D03*
X150025000Y-98425000D03*
X150025000Y-99425000D03*
X150025000Y-100425000D03*
X150025000Y-101425000D03*
X150025000Y-102425000D03*
X150025000Y-103425000D03*
X150025000Y-104425000D03*
X150025000Y-105425000D03*
X150025000Y-106425000D03*
X150025000Y-107425000D03*
X150025000Y-108425000D03*
X150025000Y-109425000D03*
D22*
X147225000Y-92435000D03*
X147225000Y-112415000D03*
%TD*%
D23*
%TO.C,J1*%
X160275000Y-88475000D03*
X160774998Y-88475000D03*
X161275000Y-88475000D03*
X161774999Y-88475000D03*
X162275001Y-88475000D03*
X162775000Y-88475000D03*
X163274999Y-88475000D03*
X163775000Y-88475000D03*
X164274999Y-88475000D03*
X164775001Y-88475000D03*
X165275000Y-88475000D03*
X165774999Y-88475000D03*
X166275000Y-88475000D03*
X166774999Y-88475000D03*
X167275001Y-88475000D03*
X167775000Y-88475000D03*
D24*
X158375000Y-90400000D03*
X169674984Y-90400000D03*
%TD*%
D20*
%TO.C,J1*%
G36*
X157724992Y-91075000D02*
G01*
X156624992Y-91075000D01*
X156624992Y-88875000D01*
X157724992Y-88875000D01*
X157724992Y-91075000D01*
G37*
G36*
X171424992Y-91075000D02*
G01*
X170324992Y-91075000D01*
X170324992Y-88875000D01*
X171424992Y-88875000D01*
X171424992Y-91075000D01*
G37*
%TD*%
D21*
%TO.C,J2*%
X150025000Y-95425000D03*
X150025000Y-96425000D03*
X150025000Y-97425000D03*
X150025000Y-98425000D03*
X150025000Y-99425000D03*
X150025000Y-100425000D03*
X150025000Y-101425000D03*
X150025000Y-102425000D03*
X150025000Y-103425000D03*
X150025000Y-104425000D03*
X150025000Y-105425000D03*
X150025000Y-106425000D03*
X150025000Y-107425000D03*
X150025000Y-108425000D03*
X150025000Y-109425000D03*
D22*
X147225000Y-92435000D03*
X147225000Y-112415000D03*
%TD*%
D23*
%TO.C,J1*%
X160275000Y-88475000D03*
X160774998Y-88475000D03*
X161275000Y-88475000D03*
X161774999Y-88475000D03*
X162275001Y-88475000D03*
X162775000Y-88475000D03*
X163274999Y-88475000D03*
X163775000Y-88475000D03*
X164274999Y-88475000D03*
X164775001Y-88475000D03*
X165275000Y-88475000D03*
X165774999Y-88475000D03*
X166275000Y-88475000D03*
X166774999Y-88475000D03*
X167275001Y-88475000D03*
X167775000Y-88475000D03*
D24*
X158375000Y-90400000D03*
X169674984Y-90400000D03*
%TD*%
D25*
X152428014Y-110462782D02*
X152428014Y-110891353D01*
X152428014Y-110677068D02*
X151678014Y-110677068D01*
X151678014Y-110677068D02*
X151785157Y-110748496D01*
X151785157Y-110748496D02*
X151856585Y-110819925D01*
X151856585Y-110819925D02*
X151892300Y-110891353D01*
X151678014Y-109784210D02*
X151678014Y-110141353D01*
X151678014Y-110141353D02*
X152035157Y-110177067D01*
X152035157Y-110177067D02*
X151999442Y-110141353D01*
X151999442Y-110141353D02*
X151963728Y-110069925D01*
X151963728Y-110069925D02*
X151963728Y-109891353D01*
X151963728Y-109891353D02*
X151999442Y-109819925D01*
X151999442Y-109819925D02*
X152035157Y-109784210D01*
X152035157Y-109784210D02*
X152106585Y-109748496D01*
X152106585Y-109748496D02*
X152285157Y-109748496D01*
X152285157Y-109748496D02*
X152356585Y-109784210D01*
X152356585Y-109784210D02*
X152392300Y-109819925D01*
X152392300Y-109819925D02*
X152428014Y-109891353D01*
X152428014Y-109891353D02*
X152428014Y-110069925D01*
X152428014Y-110069925D02*
X152392300Y-110141353D01*
X152392300Y-110141353D02*
X152356585Y-110177067D01*
X167746741Y-87383609D02*
X167461027Y-87383609D01*
X167603884Y-87383609D02*
X167603884Y-86883609D01*
X167603884Y-86883609D02*
X167556265Y-86955038D01*
X167556265Y-86955038D02*
X167508646Y-87002657D01*
X167508646Y-87002657D02*
X167461027Y-87026466D01*
X168175312Y-86883609D02*
X168080074Y-86883609D01*
X168080074Y-86883609D02*
X168032455Y-86907419D01*
X168032455Y-86907419D02*
X168008645Y-86931228D01*
X168008645Y-86931228D02*
X167961026Y-87002657D01*
X167961026Y-87002657D02*
X167937217Y-87097895D01*
X167937217Y-87097895D02*
X167937217Y-87288371D01*
X167937217Y-87288371D02*
X167961026Y-87335990D01*
X167961026Y-87335990D02*
X167984836Y-87359800D01*
X167984836Y-87359800D02*
X168032455Y-87383609D01*
X168032455Y-87383609D02*
X168127693Y-87383609D01*
X168127693Y-87383609D02*
X168175312Y-87359800D01*
X168175312Y-87359800D02*
X168199121Y-87335990D01*
X168199121Y-87335990D02*
X168222931Y-87288371D01*
X168222931Y-87288371D02*
X168222931Y-87169323D01*
X168222931Y-87169323D02*
X168199121Y-87121704D01*
X168199121Y-87121704D02*
X168175312Y-87097895D01*
X168175312Y-87097895D02*
X168127693Y-87074085D01*
X168127693Y-87074085D02*
X168032455Y-87074085D01*
X168032455Y-87074085D02*
X167984836Y-87097895D01*
X167984836Y-87097895D02*
X167961026Y-87121704D01*
X167961026Y-87121704D02*
X167937217Y-87169323D01*
X160723747Y-86376609D02*
X160438033Y-86376609D01*
X160580890Y-86376609D02*
X160580890Y-85876609D01*
X160580890Y-85876609D02*
X160533271Y-85948038D01*
X160533271Y-85948038D02*
X160485652Y-85995657D01*
X160485652Y-85995657D02*
X160438033Y-86019466D01*
X152553014Y-95012782D02*
X152553014Y-95441353D01*
X152553014Y-95227068D02*
X151803014Y-95227068D01*
X151803014Y-95227068D02*
X151910157Y-95298496D01*
X151910157Y-95298496D02*
X151981585Y-95369925D01*
X151981585Y-95369925D02*
X152017300Y-95441353D01*
X151816764Y-102674999D02*
X152352478Y-102674999D01*
X152352478Y-102674999D02*
X152459621Y-102710714D01*
X152459621Y-102710714D02*
X152531050Y-102782142D01*
X152531050Y-102782142D02*
X152566764Y-102889285D01*
X152566764Y-102889285D02*
X152566764Y-102960714D01*
X151888192Y-102353570D02*
X151852478Y-102317856D01*
X151852478Y-102317856D02*
X151816764Y-102246428D01*
X151816764Y-102246428D02*
X151816764Y-102067856D01*
X151816764Y-102067856D02*
X151852478Y-101996428D01*
X151852478Y-101996428D02*
X151888192Y-101960713D01*
X151888192Y-101960713D02*
X151959621Y-101924999D01*
X151959621Y-101924999D02*
X152031050Y-101924999D01*
X152031050Y-101924999D02*
X152138192Y-101960713D01*
X152138192Y-101960713D02*
X152566764Y-102389285D01*
X152566764Y-102389285D02*
X152566764Y-101924999D01*
D26*
X140884580Y-106163095D02*
X140932200Y-106210714D01*
X140932200Y-106210714D02*
X140979819Y-106353571D01*
X140979819Y-106353571D02*
X140979819Y-106448809D01*
X140979819Y-106448809D02*
X140932200Y-106591666D01*
X140932200Y-106591666D02*
X140836961Y-106686904D01*
X140836961Y-106686904D02*
X140741723Y-106734523D01*
X140741723Y-106734523D02*
X140551247Y-106782142D01*
X140551247Y-106782142D02*
X140408390Y-106782142D01*
X140408390Y-106782142D02*
X140217914Y-106734523D01*
X140217914Y-106734523D02*
X140122676Y-106686904D01*
X140122676Y-106686904D02*
X140027438Y-106591666D01*
X140027438Y-106591666D02*
X139979819Y-106448809D01*
X139979819Y-106448809D02*
X139979819Y-106353571D01*
X139979819Y-106353571D02*
X140027438Y-106210714D01*
X140027438Y-106210714D02*
X140075057Y-106163095D01*
X140979819Y-105591666D02*
X140932200Y-105686904D01*
X140932200Y-105686904D02*
X140884580Y-105734523D01*
X140884580Y-105734523D02*
X140789342Y-105782142D01*
X140789342Y-105782142D02*
X140503628Y-105782142D01*
X140503628Y-105782142D02*
X140408390Y-105734523D01*
X140408390Y-105734523D02*
X140360771Y-105686904D01*
X140360771Y-105686904D02*
X140313152Y-105591666D01*
X140313152Y-105591666D02*
X140313152Y-105448809D01*
X140313152Y-105448809D02*
X140360771Y-105353571D01*
X140360771Y-105353571D02*
X140408390Y-105305952D01*
X140408390Y-105305952D02*
X140503628Y-105258333D01*
X140503628Y-105258333D02*
X140789342Y-105258333D01*
X140789342Y-105258333D02*
X140884580Y-105305952D01*
X140884580Y-105305952D02*
X140932200Y-105353571D01*
X140932200Y-105353571D02*
X140979819Y-105448809D01*
X140979819Y-105448809D02*
X140979819Y-105591666D01*
X140313152Y-104829761D02*
X140979819Y-104829761D01*
X140408390Y-104829761D02*
X140360771Y-104782142D01*
X140360771Y-104782142D02*
X140313152Y-104686904D01*
X140313152Y-104686904D02*
X140313152Y-104544047D01*
X140313152Y-104544047D02*
X140360771Y-104448809D01*
X140360771Y-104448809D02*
X140456009Y-104401190D01*
X140456009Y-104401190D02*
X140979819Y-104401190D01*
X140313152Y-103924999D02*
X140979819Y-103924999D01*
X140408390Y-103924999D02*
X140360771Y-103877380D01*
X140360771Y-103877380D02*
X140313152Y-103782142D01*
X140313152Y-103782142D02*
X140313152Y-103639285D01*
X140313152Y-103639285D02*
X140360771Y-103544047D01*
X140360771Y-103544047D02*
X140456009Y-103496428D01*
X140456009Y-103496428D02*
X140979819Y-103496428D01*
X141075057Y-103258333D02*
X141075057Y-102496428D01*
X139979819Y-102067856D02*
X139979819Y-101972618D01*
X139979819Y-101972618D02*
X140027438Y-101877380D01*
X140027438Y-101877380D02*
X140075057Y-101829761D01*
X140075057Y-101829761D02*
X140170295Y-101782142D01*
X140170295Y-101782142D02*
X140360771Y-101734523D01*
X140360771Y-101734523D02*
X140598866Y-101734523D01*
X140598866Y-101734523D02*
X140789342Y-101782142D01*
X140789342Y-101782142D02*
X140884580Y-101829761D01*
X140884580Y-101829761D02*
X140932200Y-101877380D01*
X140932200Y-101877380D02*
X140979819Y-101972618D01*
X140979819Y-101972618D02*
X140979819Y-102067856D01*
X140979819Y-102067856D02*
X140932200Y-102163094D01*
X140932200Y-102163094D02*
X140884580Y-102210713D01*
X140884580Y-102210713D02*
X140789342Y-102258332D01*
X140789342Y-102258332D02*
X140598866Y-102305951D01*
X140598866Y-102305951D02*
X140360771Y-102305951D01*
X140360771Y-102305951D02*
X140170295Y-102258332D01*
X140170295Y-102258332D02*
X140075057Y-102210713D01*
X140075057Y-102210713D02*
X140027438Y-102163094D01*
X140027438Y-102163094D02*
X139979819Y-102067856D01*
X140979819Y-100782142D02*
X140979819Y-101353570D01*
X140979819Y-101067856D02*
X139979819Y-101067856D01*
X139979819Y-101067856D02*
X140122676Y-101163094D01*
X140122676Y-101163094D02*
X140217914Y-101258332D01*
X140217914Y-101258332D02*
X140265533Y-101353570D01*
X140979819Y-100448808D02*
X140313152Y-99924999D01*
X140313152Y-100448808D02*
X140979819Y-99924999D01*
X140979819Y-99020237D02*
X140979819Y-99591665D01*
X140979819Y-99305951D02*
X139979819Y-99305951D01*
X139979819Y-99305951D02*
X140122676Y-99401189D01*
X140122676Y-99401189D02*
X140217914Y-99496427D01*
X140217914Y-99496427D02*
X140265533Y-99591665D01*
X139979819Y-98115475D02*
X139979819Y-98591665D01*
X139979819Y-98591665D02*
X140456009Y-98639284D01*
X140456009Y-98639284D02*
X140408390Y-98591665D01*
X140408390Y-98591665D02*
X140360771Y-98496427D01*
X140360771Y-98496427D02*
X140360771Y-98258332D01*
X140360771Y-98258332D02*
X140408390Y-98163094D01*
X140408390Y-98163094D02*
X140456009Y-98115475D01*
X140456009Y-98115475D02*
X140551247Y-98067856D01*
X140551247Y-98067856D02*
X140789342Y-98067856D01*
X140789342Y-98067856D02*
X140884580Y-98115475D01*
X140884580Y-98115475D02*
X140932200Y-98163094D01*
X140932200Y-98163094D02*
X140979819Y-98258332D01*
X140979819Y-98258332D02*
X140979819Y-98496427D01*
X140979819Y-98496427D02*
X140932200Y-98591665D01*
X140932200Y-98591665D02*
X140884580Y-98639284D01*
X145016666Y-88404819D02*
X145016666Y-89119104D01*
X145016666Y-89119104D02*
X144969047Y-89261961D01*
X144969047Y-89261961D02*
X144873809Y-89357200D01*
X144873809Y-89357200D02*
X144730952Y-89404819D01*
X144730952Y-89404819D02*
X144635714Y-89404819D01*
X145445238Y-88500057D02*
X145492857Y-88452438D01*
X145492857Y-88452438D02*
X145588095Y-88404819D01*
X145588095Y-88404819D02*
X145826190Y-88404819D01*
X145826190Y-88404819D02*
X145921428Y-88452438D01*
X145921428Y-88452438D02*
X145969047Y-88500057D01*
X145969047Y-88500057D02*
X146016666Y-88595295D01*
X146016666Y-88595295D02*
X146016666Y-88690533D01*
X146016666Y-88690533D02*
X145969047Y-88833390D01*
X145969047Y-88833390D02*
X145397619Y-89404819D01*
X145397619Y-89404819D02*
X146016666Y-89404819D01*
X173015419Y-87561904D02*
X172967800Y-87514285D01*
X172967800Y-87514285D02*
X172920180Y-87371428D01*
X172920180Y-87371428D02*
X172920180Y-87276190D01*
X172920180Y-87276190D02*
X172967800Y-87133333D01*
X172967800Y-87133333D02*
X173063038Y-87038095D01*
X173063038Y-87038095D02*
X173158276Y-86990476D01*
X173158276Y-86990476D02*
X173348752Y-86942857D01*
X173348752Y-86942857D02*
X173491609Y-86942857D01*
X173491609Y-86942857D02*
X173682085Y-86990476D01*
X173682085Y-86990476D02*
X173777323Y-87038095D01*
X173777323Y-87038095D02*
X173872561Y-87133333D01*
X173872561Y-87133333D02*
X173920180Y-87276190D01*
X173920180Y-87276190D02*
X173920180Y-87371428D01*
X173920180Y-87371428D02*
X173872561Y-87514285D01*
X173872561Y-87514285D02*
X173824942Y-87561904D01*
X172920180Y-88133333D02*
X172967800Y-88038095D01*
X172967800Y-88038095D02*
X173015419Y-87990476D01*
X173015419Y-87990476D02*
X173110657Y-87942857D01*
X173110657Y-87942857D02*
X173396371Y-87942857D01*
X173396371Y-87942857D02*
X173491609Y-87990476D01*
X173491609Y-87990476D02*
X173539228Y-88038095D01*
X173539228Y-88038095D02*
X173586847Y-88133333D01*
X173586847Y-88133333D02*
X173586847Y-88276190D01*
X173586847Y-88276190D02*
X173539228Y-88371428D01*
X173539228Y-88371428D02*
X173491609Y-88419047D01*
X173491609Y-88419047D02*
X173396371Y-88466666D01*
X173396371Y-88466666D02*
X173110657Y-88466666D01*
X173110657Y-88466666D02*
X173015419Y-88419047D01*
X173015419Y-88419047D02*
X172967800Y-88371428D01*
X172967800Y-88371428D02*
X172920180Y-88276190D01*
X172920180Y-88276190D02*
X172920180Y-88133333D01*
X173586847Y-88895238D02*
X172920180Y-88895238D01*
X173491609Y-88895238D02*
X173539228Y-88942857D01*
X173539228Y-88942857D02*
X173586847Y-89038095D01*
X173586847Y-89038095D02*
X173586847Y-89180952D01*
X173586847Y-89180952D02*
X173539228Y-89276190D01*
X173539228Y-89276190D02*
X173443990Y-89323809D01*
X173443990Y-89323809D02*
X172920180Y-89323809D01*
X173586847Y-89800000D02*
X172920180Y-89800000D01*
X173491609Y-89800000D02*
X173539228Y-89847619D01*
X173539228Y-89847619D02*
X173586847Y-89942857D01*
X173586847Y-89942857D02*
X173586847Y-90085714D01*
X173586847Y-90085714D02*
X173539228Y-90180952D01*
X173539228Y-90180952D02*
X173443990Y-90228571D01*
X173443990Y-90228571D02*
X172920180Y-90228571D01*
X172824942Y-90466667D02*
X172824942Y-91228571D01*
X173920180Y-91657143D02*
X173920180Y-91752381D01*
X173920180Y-91752381D02*
X173872561Y-91847619D01*
X173872561Y-91847619D02*
X173824942Y-91895238D01*
X173824942Y-91895238D02*
X173729704Y-91942857D01*
X173729704Y-91942857D02*
X173539228Y-91990476D01*
X173539228Y-91990476D02*
X173301133Y-91990476D01*
X173301133Y-91990476D02*
X173110657Y-91942857D01*
X173110657Y-91942857D02*
X173015419Y-91895238D01*
X173015419Y-91895238D02*
X172967800Y-91847619D01*
X172967800Y-91847619D02*
X172920180Y-91752381D01*
X172920180Y-91752381D02*
X172920180Y-91657143D01*
X172920180Y-91657143D02*
X172967800Y-91561905D01*
X172967800Y-91561905D02*
X173015419Y-91514286D01*
X173015419Y-91514286D02*
X173110657Y-91466667D01*
X173110657Y-91466667D02*
X173301133Y-91419048D01*
X173301133Y-91419048D02*
X173539228Y-91419048D01*
X173539228Y-91419048D02*
X173729704Y-91466667D01*
X173729704Y-91466667D02*
X173824942Y-91514286D01*
X173824942Y-91514286D02*
X173872561Y-91561905D01*
X173872561Y-91561905D02*
X173920180Y-91657143D01*
X172920180Y-92942857D02*
X172920180Y-92371429D01*
X172920180Y-92657143D02*
X173920180Y-92657143D01*
X173920180Y-92657143D02*
X173777323Y-92561905D01*
X173777323Y-92561905D02*
X173682085Y-92466667D01*
X173682085Y-92466667D02*
X173634466Y-92371429D01*
X172920180Y-93276191D02*
X173586847Y-93800000D01*
X173586847Y-93276191D02*
X172920180Y-93800000D01*
X172920180Y-94704762D02*
X172920180Y-94133334D01*
X172920180Y-94419048D02*
X173920180Y-94419048D01*
X173920180Y-94419048D02*
X173777323Y-94323810D01*
X173777323Y-94323810D02*
X173682085Y-94228572D01*
X173682085Y-94228572D02*
X173634466Y-94133334D01*
X173920180Y-95561905D02*
X173920180Y-95371429D01*
X173920180Y-95371429D02*
X173872561Y-95276191D01*
X173872561Y-95276191D02*
X173824942Y-95228572D01*
X173824942Y-95228572D02*
X173682085Y-95133334D01*
X173682085Y-95133334D02*
X173491609Y-95085715D01*
X173491609Y-95085715D02*
X173110657Y-95085715D01*
X173110657Y-95085715D02*
X173015419Y-95133334D01*
X173015419Y-95133334D02*
X172967800Y-95180953D01*
X172967800Y-95180953D02*
X172920180Y-95276191D01*
X172920180Y-95276191D02*
X172920180Y-95466667D01*
X172920180Y-95466667D02*
X172967800Y-95561905D01*
X172967800Y-95561905D02*
X173015419Y-95609524D01*
X173015419Y-95609524D02*
X173110657Y-95657143D01*
X173110657Y-95657143D02*
X173348752Y-95657143D01*
X173348752Y-95657143D02*
X173443990Y-95609524D01*
X173443990Y-95609524D02*
X173491609Y-95561905D01*
X173491609Y-95561905D02*
X173539228Y-95466667D01*
X173539228Y-95466667D02*
X173539228Y-95276191D01*
X173539228Y-95276191D02*
X173491609Y-95180953D01*
X173491609Y-95180953D02*
X173443990Y-95133334D01*
X173443990Y-95133334D02*
X173348752Y-95085715D01*
X169041666Y-95129819D02*
X169041666Y-95844104D01*
X169041666Y-95844104D02*
X168994047Y-95986961D01*
X168994047Y-95986961D02*
X168898809Y-96082200D01*
X168898809Y-96082200D02*
X168755952Y-96129819D01*
X168755952Y-96129819D02*
X168660714Y-96129819D01*
X170041666Y-96129819D02*
X169470238Y-96129819D01*
X169755952Y-96129819D02*
X169755952Y-95129819D01*
X169755952Y-95129819D02*
X169660714Y-95272676D01*
X169660714Y-95272676D02*
X169565476Y-95367914D01*
X169565476Y-95367914D02*
X169470238Y-95415533D01*
D27*
%TO.C,J2*%
X143515000Y-90855000D02*
X144625000Y-90855000D01*
X143515000Y-113995000D02*
X143515000Y-90855000D01*
X144625000Y-90855000D02*
X144625000Y-91880000D01*
X144625000Y-91880000D02*
X145165000Y-91880000D01*
X144625000Y-112970000D02*
X144625000Y-113995000D01*
X144625000Y-113995000D02*
X143515000Y-113995000D01*
X145165000Y-112970000D02*
X144625000Y-112970000D01*
X149135000Y-94035000D02*
X149135000Y-94860000D01*
X149135000Y-94860000D02*
X150935000Y-94860000D01*
X149135000Y-109990000D02*
X149135000Y-110815000D01*
D28*
%TO.C,J1*%
X159261006Y-86443000D02*
X161293006Y-86443000D01*
X161293006Y-86443000D02*
X160277006Y-87636800D01*
X159261006Y-86443000D02*
X160277006Y-87636800D01*
X156975006Y-91392500D02*
X156975006Y-93375000D01*
X156975006Y-93375000D02*
X171074978Y-93375000D01*
X171074978Y-93375000D02*
X171074978Y-91392500D01*
X171074978Y-88375000D02*
X168242500Y-88375000D01*
X159807500Y-88375000D02*
X156975006Y-88375000D01*
%TD*%
D25*
X153274998Y-81816764D02*
X153739284Y-81816764D01*
X153739284Y-81816764D02*
X153489284Y-82102478D01*
X153489284Y-82102478D02*
X153596427Y-82102478D01*
X153596427Y-82102478D02*
X153667856Y-82138192D01*
X153667856Y-82138192D02*
X153703570Y-82173907D01*
X153703570Y-82173907D02*
X153739284Y-82245335D01*
X153739284Y-82245335D02*
X153739284Y-82423907D01*
X153739284Y-82423907D02*
X153703570Y-82495335D01*
X153703570Y-82495335D02*
X153667856Y-82531050D01*
X153667856Y-82531050D02*
X153596427Y-82566764D01*
X153596427Y-82566764D02*
X153382141Y-82566764D01*
X153382141Y-82566764D02*
X153310713Y-82531050D01*
X153310713Y-82531050D02*
X153274998Y-82495335D01*
X154417856Y-81816764D02*
X154060713Y-81816764D01*
X154060713Y-81816764D02*
X154024999Y-82173907D01*
X154024999Y-82173907D02*
X154060713Y-82138192D01*
X154060713Y-82138192D02*
X154132142Y-82102478D01*
X154132142Y-82102478D02*
X154310713Y-82102478D01*
X154310713Y-82102478D02*
X154382142Y-82138192D01*
X154382142Y-82138192D02*
X154417856Y-82173907D01*
X154417856Y-82173907D02*
X154453570Y-82245335D01*
X154453570Y-82245335D02*
X154453570Y-82423907D01*
X154453570Y-82423907D02*
X154417856Y-82495335D01*
X154417856Y-82495335D02*
X154382142Y-82531050D01*
X154382142Y-82531050D02*
X154310713Y-82566764D01*
X154310713Y-82566764D02*
X154132142Y-82566764D01*
X154132142Y-82566764D02*
X154060713Y-82531050D01*
X154060713Y-82531050D02*
X154024999Y-82495335D01*
X154774999Y-82495335D02*
X154810713Y-82531050D01*
X154810713Y-82531050D02*
X154774999Y-82566764D01*
X154774999Y-82566764D02*
X154739285Y-82531050D01*
X154739285Y-82531050D02*
X154774999Y-82495335D01*
X154774999Y-82495335D02*
X154774999Y-82566764D01*
X155489285Y-81816764D02*
X155132142Y-81816764D01*
X155132142Y-81816764D02*
X155096428Y-82173907D01*
X155096428Y-82173907D02*
X155132142Y-82138192D01*
X155132142Y-82138192D02*
X155203571Y-82102478D01*
X155203571Y-82102478D02*
X155382142Y-82102478D01*
X155382142Y-82102478D02*
X155453571Y-82138192D01*
X155453571Y-82138192D02*
X155489285Y-82173907D01*
X155489285Y-82173907D02*
X155524999Y-82245335D01*
X155524999Y-82245335D02*
X155524999Y-82423907D01*
X155524999Y-82423907D02*
X155489285Y-82495335D01*
X155489285Y-82495335D02*
X155453571Y-82531050D01*
X155453571Y-82531050D02*
X155382142Y-82566764D01*
X155382142Y-82566764D02*
X155203571Y-82566764D01*
X155203571Y-82566764D02*
X155132142Y-82531050D01*
X155132142Y-82531050D02*
X155096428Y-82495335D01*
X156203571Y-81816764D02*
X155846428Y-81816764D01*
X155846428Y-81816764D02*
X155810714Y-82173907D01*
X155810714Y-82173907D02*
X155846428Y-82138192D01*
X155846428Y-82138192D02*
X155917857Y-82102478D01*
X155917857Y-82102478D02*
X156096428Y-82102478D01*
X156096428Y-82102478D02*
X156167857Y-82138192D01*
X156167857Y-82138192D02*
X156203571Y-82173907D01*
X156203571Y-82173907D02*
X156239285Y-82245335D01*
X156239285Y-82245335D02*
X156239285Y-82423907D01*
X156239285Y-82423907D02*
X156203571Y-82495335D01*
X156203571Y-82495335D02*
X156167857Y-82531050D01*
X156167857Y-82531050D02*
X156096428Y-82566764D01*
X156096428Y-82566764D02*
X155917857Y-82566764D01*
X155917857Y-82566764D02*
X155846428Y-82531050D01*
X155846428Y-82531050D02*
X155810714Y-82495335D01*
X156703571Y-81816764D02*
X156775000Y-81816764D01*
X156775000Y-81816764D02*
X156846428Y-81852478D01*
X156846428Y-81852478D02*
X156882143Y-81888192D01*
X156882143Y-81888192D02*
X156917857Y-81959621D01*
X156917857Y-81959621D02*
X156953571Y-82102478D01*
X156953571Y-82102478D02*
X156953571Y-82281050D01*
X156953571Y-82281050D02*
X156917857Y-82423907D01*
X156917857Y-82423907D02*
X156882143Y-82495335D01*
X156882143Y-82495335D02*
X156846428Y-82531050D01*
X156846428Y-82531050D02*
X156775000Y-82566764D01*
X156775000Y-82566764D02*
X156703571Y-82566764D01*
X156703571Y-82566764D02*
X156632143Y-82531050D01*
X156632143Y-82531050D02*
X156596428Y-82495335D01*
X156596428Y-82495335D02*
X156560714Y-82423907D01*
X156560714Y-82423907D02*
X156525000Y-82281050D01*
X156525000Y-82281050D02*
X156525000Y-82102478D01*
X156525000Y-82102478D02*
X156560714Y-81959621D01*
X156560714Y-81959621D02*
X156596428Y-81888192D01*
X156596428Y-81888192D02*
X156632143Y-81852478D01*
X156632143Y-81852478D02*
X156703571Y-81816764D01*
X157417857Y-81816764D02*
X157489286Y-81816764D01*
X157489286Y-81816764D02*
X157560714Y-81852478D01*
X157560714Y-81852478D02*
X157596429Y-81888192D01*
X157596429Y-81888192D02*
X157632143Y-81959621D01*
X157632143Y-81959621D02*
X157667857Y-82102478D01*
X157667857Y-82102478D02*
X157667857Y-82281050D01*
X157667857Y-82281050D02*
X157632143Y-82423907D01*
X157632143Y-82423907D02*
X157596429Y-82495335D01*
X157596429Y-82495335D02*
X157560714Y-82531050D01*
X157560714Y-82531050D02*
X157489286Y-82566764D01*
X157489286Y-82566764D02*
X157417857Y-82566764D01*
X157417857Y-82566764D02*
X157346429Y-82531050D01*
X157346429Y-82531050D02*
X157310714Y-82495335D01*
X157310714Y-82495335D02*
X157275000Y-82423907D01*
X157275000Y-82423907D02*
X157239286Y-82281050D01*
X157239286Y-82281050D02*
X157239286Y-82102478D01*
X157239286Y-82102478D02*
X157275000Y-81959621D01*
X157275000Y-81959621D02*
X157310714Y-81888192D01*
X157310714Y-81888192D02*
X157346429Y-81852478D01*
X157346429Y-81852478D02*
X157417857Y-81816764D01*
X158560715Y-82566764D02*
X158560715Y-82066764D01*
X158560715Y-82138192D02*
X158596429Y-82102478D01*
X158596429Y-82102478D02*
X158667858Y-82066764D01*
X158667858Y-82066764D02*
X158775001Y-82066764D01*
X158775001Y-82066764D02*
X158846429Y-82102478D01*
X158846429Y-82102478D02*
X158882144Y-82173907D01*
X158882144Y-82173907D02*
X158882144Y-82566764D01*
X158882144Y-82173907D02*
X158917858Y-82102478D01*
X158917858Y-82102478D02*
X158989286Y-82066764D01*
X158989286Y-82066764D02*
X159096429Y-82066764D01*
X159096429Y-82066764D02*
X159167858Y-82102478D01*
X159167858Y-82102478D02*
X159203572Y-82173907D01*
X159203572Y-82173907D02*
X159203572Y-82566764D01*
X159560715Y-82566764D02*
X159560715Y-82066764D01*
X159560715Y-82138192D02*
X159596429Y-82102478D01*
X159596429Y-82102478D02*
X159667858Y-82066764D01*
X159667858Y-82066764D02*
X159775001Y-82066764D01*
X159775001Y-82066764D02*
X159846429Y-82102478D01*
X159846429Y-82102478D02*
X159882144Y-82173907D01*
X159882144Y-82173907D02*
X159882144Y-82566764D01*
X159882144Y-82173907D02*
X159917858Y-82102478D01*
X159917858Y-82102478D02*
X159989286Y-82066764D01*
X159989286Y-82066764D02*
X160096429Y-82066764D01*
X160096429Y-82066764D02*
X160167858Y-82102478D01*
X160167858Y-82102478D02*
X160203572Y-82173907D01*
X160203572Y-82173907D02*
X160203572Y-82566764D01*
X139000000Y-82350000D02*
X139000000Y-83661420D01*
X174550000Y-82350000D02*
X174550000Y-83661420D01*
X139000000Y-83075000D02*
X174550000Y-83075000D01*
X139000000Y-83075000D02*
X174550000Y-83075000D01*
X139000000Y-83075000D02*
X140126504Y-82488579D01*
X139000000Y-83075000D02*
X140126504Y-83661421D01*
X174550000Y-83075000D02*
X173423496Y-83661421D01*
X174550000Y-83075000D02*
X173423496Y-82488579D01*
X176739251Y-104036779D02*
X176741876Y-103572501D01*
X176741876Y-103572501D02*
X177026172Y-103824113D01*
X177026172Y-103824113D02*
X177026778Y-103716972D01*
X177026778Y-103716972D02*
X177062895Y-103645746D01*
X177062895Y-103645746D02*
X177098811Y-103610234D01*
X177098811Y-103610234D02*
X177170440Y-103574924D01*
X177170440Y-103574924D02*
X177349009Y-103575934D01*
X177349009Y-103575934D02*
X177420234Y-103612052D01*
X177420234Y-103612052D02*
X177455746Y-103647967D01*
X177455746Y-103647967D02*
X177491056Y-103719597D01*
X177491056Y-103719597D02*
X177489844Y-103933879D01*
X177489844Y-103933879D02*
X177453727Y-104005104D01*
X177453727Y-104005104D02*
X177417811Y-104040616D01*
X176744501Y-103108223D02*
X176744905Y-103036795D01*
X176744905Y-103036795D02*
X176781022Y-102965570D01*
X176781022Y-102965570D02*
X176816938Y-102930058D01*
X176816938Y-102930058D02*
X176888567Y-102894748D01*
X176888567Y-102894748D02*
X177031624Y-102859842D01*
X177031624Y-102859842D02*
X177210193Y-102860852D01*
X177210193Y-102860852D02*
X177352846Y-102897373D01*
X177352846Y-102897373D02*
X177424071Y-102933491D01*
X177424071Y-102933491D02*
X177459583Y-102969406D01*
X177459583Y-102969406D02*
X177494893Y-103041036D01*
X177494893Y-103041036D02*
X177494489Y-103112463D01*
X177494489Y-103112463D02*
X177458371Y-103183689D01*
X177458371Y-103183689D02*
X177422456Y-103219200D01*
X177422456Y-103219200D02*
X177350826Y-103254510D01*
X177350826Y-103254510D02*
X177207770Y-103289416D01*
X177207770Y-103289416D02*
X177029201Y-103288407D01*
X177029201Y-103288407D02*
X176886548Y-103251885D01*
X176886548Y-103251885D02*
X176815323Y-103215768D01*
X176815323Y-103215768D02*
X176779811Y-103179852D01*
X176779811Y-103179852D02*
X176744501Y-103108223D01*
X177426293Y-102540640D02*
X177462208Y-102505128D01*
X177462208Y-102505128D02*
X177497720Y-102541044D01*
X177497720Y-102541044D02*
X177461804Y-102576555D01*
X177461804Y-102576555D02*
X177426293Y-102540640D01*
X177426293Y-102540640D02*
X177497720Y-102541044D01*
X177499941Y-102148192D02*
X177500749Y-102005338D01*
X177500749Y-102005338D02*
X177465439Y-101933708D01*
X177465439Y-101933708D02*
X177429927Y-101897793D01*
X177429927Y-101897793D02*
X177323190Y-101825759D01*
X177323190Y-101825759D02*
X177180537Y-101789238D01*
X177180537Y-101789238D02*
X176894827Y-101787622D01*
X176894827Y-101787622D02*
X176823198Y-101822932D01*
X176823198Y-101822932D02*
X176787282Y-101858444D01*
X176787282Y-101858444D02*
X176751165Y-101929670D01*
X176751165Y-101929670D02*
X176750357Y-102072524D01*
X176750357Y-102072524D02*
X176785667Y-102144154D01*
X176785667Y-102144154D02*
X176821179Y-102180069D01*
X176821179Y-102180069D02*
X176892404Y-102216187D01*
X176892404Y-102216187D02*
X177070973Y-102217197D01*
X177070973Y-102217197D02*
X177142602Y-102181887D01*
X177142602Y-102181887D02*
X177178518Y-102146375D01*
X177178518Y-102146375D02*
X177214635Y-102075150D01*
X177214635Y-102075150D02*
X177215443Y-101932295D01*
X177215443Y-101932295D02*
X177180133Y-101860665D01*
X177180133Y-101860665D02*
X177144621Y-101824750D01*
X177144621Y-101824750D02*
X177073396Y-101788632D01*
X176755809Y-101108254D02*
X176753790Y-101465391D01*
X176753790Y-101465391D02*
X177110725Y-101503124D01*
X177110725Y-101503124D02*
X177075213Y-101467208D01*
X177075213Y-101467208D02*
X177039904Y-101395579D01*
X177039904Y-101395579D02*
X177040913Y-101217010D01*
X177040913Y-101217010D02*
X177077031Y-101145785D01*
X177077031Y-101145785D02*
X177112946Y-101110273D01*
X177112946Y-101110273D02*
X177184576Y-101074963D01*
X177184576Y-101074963D02*
X177363144Y-101075973D01*
X177363144Y-101075973D02*
X177434370Y-101112091D01*
X177434370Y-101112091D02*
X177469882Y-101148006D01*
X177469882Y-101148006D02*
X177505192Y-101219636D01*
X177505192Y-101219636D02*
X177504182Y-101398204D01*
X177504182Y-101398204D02*
X177468064Y-101469430D01*
X177468064Y-101469430D02*
X177432149Y-101504941D01*
X176758636Y-100608262D02*
X176759040Y-100536834D01*
X176759040Y-100536834D02*
X176795158Y-100465609D01*
X176795158Y-100465609D02*
X176831074Y-100430097D01*
X176831074Y-100430097D02*
X176902703Y-100394787D01*
X176902703Y-100394787D02*
X177045760Y-100359881D01*
X177045760Y-100359881D02*
X177224328Y-100360891D01*
X177224328Y-100360891D02*
X177366981Y-100397412D01*
X177366981Y-100397412D02*
X177438207Y-100433530D01*
X177438207Y-100433530D02*
X177473718Y-100469445D01*
X177473718Y-100469445D02*
X177509028Y-100541075D01*
X177509028Y-100541075D02*
X177508624Y-100612502D01*
X177508624Y-100612502D02*
X177472507Y-100683728D01*
X177472507Y-100683728D02*
X177436591Y-100719239D01*
X177436591Y-100719239D02*
X177364962Y-100754549D01*
X177364962Y-100754549D02*
X177221905Y-100789455D01*
X177221905Y-100789455D02*
X177043336Y-100788446D01*
X177043336Y-100788446D02*
X176900684Y-100751924D01*
X176900684Y-100751924D02*
X176829458Y-100715807D01*
X176829458Y-100715807D02*
X176793946Y-100679891D01*
X176793946Y-100679891D02*
X176758636Y-100608262D01*
X176763887Y-99679705D02*
X176761867Y-100036842D01*
X176761867Y-100036842D02*
X177118803Y-100074575D01*
X177118803Y-100074575D02*
X177083291Y-100038659D01*
X177083291Y-100038659D02*
X177047981Y-99967030D01*
X177047981Y-99967030D02*
X177048991Y-99788461D01*
X177048991Y-99788461D02*
X177085108Y-99717236D01*
X177085108Y-99717236D02*
X177121024Y-99681724D01*
X177121024Y-99681724D02*
X177192653Y-99646414D01*
X177192653Y-99646414D02*
X177371222Y-99647424D01*
X177371222Y-99647424D02*
X177442447Y-99683541D01*
X177442447Y-99683541D02*
X177477959Y-99719457D01*
X177477959Y-99719457D02*
X177513269Y-99791086D01*
X177513269Y-99791086D02*
X177512259Y-99969655D01*
X177512259Y-99969655D02*
X177476142Y-100040881D01*
X177476142Y-100040881D02*
X177440226Y-100076392D01*
X177519125Y-98755388D02*
X177019133Y-98752561D01*
X177090561Y-98752965D02*
X177055049Y-98717049D01*
X177055049Y-98717049D02*
X177019739Y-98645420D01*
X177019739Y-98645420D02*
X177020345Y-98538279D01*
X177020345Y-98538279D02*
X177056462Y-98467053D01*
X177056462Y-98467053D02*
X177128092Y-98431743D01*
X177128092Y-98431743D02*
X177520943Y-98433965D01*
X177128092Y-98431743D02*
X177056866Y-98395626D01*
X177056866Y-98395626D02*
X177021556Y-98323996D01*
X177021556Y-98323996D02*
X177022162Y-98216855D01*
X177022162Y-98216855D02*
X177058280Y-98145630D01*
X177058280Y-98145630D02*
X177129909Y-98110320D01*
X177129909Y-98110320D02*
X177522760Y-98112541D01*
X177524779Y-97755404D02*
X177024787Y-97752577D01*
X177096215Y-97752981D02*
X177060703Y-97717065D01*
X177060703Y-97717065D02*
X177025393Y-97645436D01*
X177025393Y-97645436D02*
X177025999Y-97538295D01*
X177025999Y-97538295D02*
X177062116Y-97467069D01*
X177062116Y-97467069D02*
X177133746Y-97431759D01*
X177133746Y-97431759D02*
X177526597Y-97433981D01*
X177133746Y-97431759D02*
X177062520Y-97395642D01*
X177062520Y-97395642D02*
X177027211Y-97324012D01*
X177027211Y-97324012D02*
X177027816Y-97216871D01*
X177027816Y-97216871D02*
X177063934Y-97145646D01*
X177063934Y-97145646D02*
X177135563Y-97110336D01*
X177135563Y-97110336D02*
X177528414Y-97112557D01*
X176546512Y-85060138D02*
X178691167Y-85072264D01*
X176371512Y-116010138D02*
X178516167Y-116022264D01*
X178104756Y-85068949D02*
X177929756Y-116018949D01*
X178104756Y-85068949D02*
X177929756Y-116018949D01*
X178104756Y-85068949D02*
X178684798Y-86198750D01*
X178104756Y-85068949D02*
X177511975Y-86192119D01*
X177929756Y-116018949D02*
X177349714Y-114889148D01*
X177929756Y-116018949D02*
X178522537Y-114895779D01*
D29*
X139100000Y-85175000D02*
X174550000Y-85175000D01*
X174550000Y-116200000D01*
X139100000Y-116200000D01*
X139100000Y-85175000D01*
M02*
