%TF.GenerationSoftware,KiCad,Pcbnew,7.0.5*%
%TF.CreationDate,2024-03-10T01:27:25+05:30*%
%TF.ProjectId,mcu datalogger,6d637520-6461-4746-916c-6f676765722e,1*%
%TF.SameCoordinates,Original*%
%TF.FileFunction,Copper,L1,Top*%
%TF.FilePolarity,Positive*%
%FSLAX46Y46*%
G04 Gerber Fmt 4.6, Leading zero omitted, Abs format (unit mm)*
G04 Created by KiCad (PCBNEW 7.0.5) date 2024-03-10 01:27:25*
%MOMM*%
%LPD*%
G01*
G04 APERTURE LIST*
G04 Aperture macros list*
%AMRoundRect*
0 Rectangle with rounded corners*
0 $1 Rounding radius*
0 $2 $3 $4 $5 $6 $7 $8 $9 X,Y pos of 4 corners*
0 Add a 4 corners polygon primitive as box body*
4,1,4,$2,$3,$4,$5,$6,$7,$8,$9,$2,$3,0*
0 Add four circle primitives for the rounded corners*
1,1,$1+$1,$2,$3*
1,1,$1+$1,$4,$5*
1,1,$1+$1,$6,$7*
1,1,$1+$1,$8,$9*
0 Add four rect primitives between the rounded corners*
20,1,$1+$1,$2,$3,$4,$5,0*
20,1,$1+$1,$4,$5,$6,$7,0*
20,1,$1+$1,$6,$7,$8,$9,0*
20,1,$1+$1,$8,$9,$2,$3,0*%
G04 Aperture macros list end*
%TA.AperFunction,SMDPad,CuDef*%
%ADD10RoundRect,0.250000X-0.262500X-0.450000X0.262500X-0.450000X0.262500X0.450000X-0.262500X0.450000X0*%
%TD*%
%TA.AperFunction,SMDPad,CuDef*%
%ADD11RoundRect,0.150000X-0.825000X-0.150000X0.825000X-0.150000X0.825000X0.150000X-0.825000X0.150000X0*%
%TD*%
%TA.AperFunction,SMDPad,CuDef*%
%ADD12R,3.500000X2.400000*%
%TD*%
%TA.AperFunction,SMDPad,CuDef*%
%ADD13RoundRect,0.038500X-0.696500X-0.236500X0.696500X-0.236500X0.696500X0.236500X-0.696500X0.236500X0*%
%TD*%
%TA.AperFunction,SMDPad,CuDef*%
%ADD14RoundRect,0.099000X-0.176000X-0.636000X0.176000X-0.636000X0.176000X0.636000X-0.176000X0.636000X0*%
%TD*%
%TA.AperFunction,SMDPad,CuDef*%
%ADD15RoundRect,0.250000X-0.250000X-0.475000X0.250000X-0.475000X0.250000X0.475000X-0.250000X0.475000X0*%
%TD*%
%TA.AperFunction,SMDPad,CuDef*%
%ADD16RoundRect,0.041300X-0.943700X-0.253700X0.943700X-0.253700X0.943700X0.253700X-0.943700X0.253700X0*%
%TD*%
%TA.AperFunction,ComponentPad*%
%ADD17R,1.700000X1.700000*%
%TD*%
%TA.AperFunction,ComponentPad*%
%ADD18O,1.700000X1.700000*%
%TD*%
%TA.AperFunction,SMDPad,CuDef*%
%ADD19R,2.400000X3.500000*%
%TD*%
%TA.AperFunction,SMDPad,CuDef*%
%ADD20RoundRect,0.243750X-0.243750X-0.456250X0.243750X-0.456250X0.243750X0.456250X-0.243750X0.456250X0*%
%TD*%
%TA.AperFunction,ViaPad*%
%ADD21C,0.800000*%
%TD*%
%TA.AperFunction,Conductor*%
%ADD22C,0.250000*%
%TD*%
%TA.AperFunction,Conductor*%
%ADD23C,0.350000*%
%TD*%
G04 APERTURE END LIST*
D10*
%TO.P,R3,1*%
%TO.N,/Vcc*%
X110434700Y-90775200D03*
%TO.P,R3,2*%
%TO.N,Net-(U2-~{INTA})*%
X112259700Y-90775200D03*
%TD*%
D11*
%TO.P,U3,1,A0*%
%TO.N,/Vcc*%
X111223200Y-68372400D03*
%TO.P,U3,2,A1*%
%TO.N,GND*%
X111223200Y-69642400D03*
%TO.P,U3,3,A2*%
%TO.N,/Vcc*%
X111223200Y-70912400D03*
%TO.P,U3,4,GND*%
%TO.N,GND*%
X111223200Y-72182400D03*
%TO.P,U3,5,SDA*%
%TO.N,/SDA*%
X116173200Y-72182400D03*
%TO.P,U3,6,SCL*%
%TO.N,/SCL*%
X116173200Y-70912400D03*
%TO.P,U3,7,WP*%
%TO.N,GND*%
X116173200Y-69642400D03*
%TO.P,U3,8,VCC*%
%TO.N,/Vcc*%
X116173200Y-68372400D03*
%TD*%
D12*
%TO.P,Y2,1,1*%
%TO.N,Net-(U4-PB7)*%
X123927200Y-88362200D03*
%TO.P,Y2,2,2*%
%TO.N,Net-(U4-PB6)*%
X129127200Y-88362200D03*
%TD*%
D10*
%TO.P,R4,1*%
%TO.N,/Vcc*%
X114752700Y-90622800D03*
%TO.P,R4,2*%
%TO.N,Net-(U2-SQW{slash}~INT)*%
X116577700Y-90622800D03*
%TD*%
D13*
%TO.P,U4,1,PD3*%
%TO.N,/D3*%
X122468000Y-74538600D03*
%TO.P,U4,2,PD4*%
%TO.N,/D4*%
X122468000Y-75338600D03*
%TO.P,U4,3,GND*%
%TO.N,GND*%
X122468000Y-76138600D03*
%TO.P,U4,4,VCC*%
%TO.N,/Vcc*%
X122468000Y-76938600D03*
%TO.P,U4,5,GND*%
%TO.N,GND*%
X122468000Y-77738600D03*
%TO.P,U4,6,VCC*%
%TO.N,unconnected-(U4-VCC-Pad6)*%
X122468000Y-78538600D03*
%TO.P,U4,7,PB6*%
%TO.N,Net-(U4-PB6)*%
X122468000Y-79338600D03*
%TO.P,U4,8,PB7*%
%TO.N,Net-(U4-PB7)*%
X122468000Y-80138600D03*
D14*
%TO.P,U4,9,PD5*%
%TO.N,/D5*%
X123838000Y-81508600D03*
%TO.P,U4,10,PD6*%
%TO.N,/D6*%
X124638000Y-81508600D03*
%TO.P,U4,11,PD7*%
%TO.N,/D7*%
X125438000Y-81508600D03*
%TO.P,U4,12,PB0*%
%TO.N,/D8*%
X126238000Y-81508600D03*
%TO.P,U4,13,PB1*%
%TO.N,unconnected-(U4-PB1-Pad13)*%
X127038000Y-81508600D03*
%TO.P,U4,14,PB2*%
%TO.N,unconnected-(U4-PB2-Pad14)*%
X127838000Y-81508600D03*
%TO.P,U4,15,PB3*%
%TO.N,/MOSI*%
X128638000Y-81508600D03*
%TO.P,U4,16,PB4*%
%TO.N,/MISO*%
X129438000Y-81508600D03*
D13*
%TO.P,U4,17,PB5*%
%TO.N,/SCK*%
X130808000Y-80138600D03*
%TO.P,U4,18,AVCC*%
%TO.N,/Vcc*%
X130808000Y-79338600D03*
%TO.P,U4,19,ADC6*%
%TO.N,unconnected-(U4-ADC6-Pad19)*%
X130808000Y-78538600D03*
%TO.P,U4,20,AREF*%
%TO.N,Net-(U4-AREF)*%
X130808000Y-77738600D03*
%TO.P,U4,21,GND*%
%TO.N,GND*%
X130808000Y-76938600D03*
%TO.P,U4,22,ADC7*%
%TO.N,unconnected-(U4-ADC7-Pad22)*%
X130808000Y-76138600D03*
%TO.P,U4,23,PC0*%
%TO.N,unconnected-(U4-PC0-Pad23)*%
X130808000Y-75338600D03*
%TO.P,U4,24,PC1*%
%TO.N,unconnected-(U4-PC1-Pad24)*%
X130808000Y-74538600D03*
D14*
%TO.P,U4,25,PC2*%
%TO.N,unconnected-(U4-PC2-Pad25)*%
X129438000Y-73168600D03*
%TO.P,U4,26,PC3*%
%TO.N,unconnected-(U4-PC3-Pad26)*%
X128638000Y-73168600D03*
%TO.P,U4,27,PC4*%
%TO.N,/SDA*%
X127838000Y-73168600D03*
%TO.P,U4,28,PC5*%
%TO.N,/SCL*%
X127038000Y-73168600D03*
%TO.P,U4,29,PC6/~{RESET}*%
%TO.N,/RST*%
X126238000Y-73168600D03*
%TO.P,U4,30,PD0*%
%TO.N,/RX*%
X125438000Y-73168600D03*
%TO.P,U4,31,PD1*%
%TO.N,/TX*%
X124638000Y-73168600D03*
%TO.P,U4,32,PD2*%
%TO.N,/D2*%
X123838000Y-73168600D03*
%TD*%
D15*
%TO.P,C3,1*%
%TO.N,GND*%
X136127400Y-89708400D03*
%TO.P,C3,2*%
%TO.N,Net-(U4-PB7)*%
X138027400Y-89708400D03*
%TD*%
D16*
%TO.P,U2,1,X1*%
%TO.N,Net-(U2-X1)*%
X111234400Y-83739400D03*
%TO.P,U2,2,X2*%
%TO.N,Net-(U2-X2)*%
X111234400Y-85009400D03*
%TO.P,U2,3,~{INTA}*%
%TO.N,Net-(U2-~{INTA})*%
X111234400Y-86279400D03*
%TO.P,U2,4,GND*%
%TO.N,GND*%
X111234400Y-87549400D03*
%TO.P,U2,5,SDA*%
%TO.N,/SDA*%
X116184400Y-87549400D03*
%TO.P,U2,6,SCL*%
%TO.N,/SCL*%
X116184400Y-86279400D03*
%TO.P,U2,7,SQW/~INT*%
%TO.N,Net-(U2-SQW{slash}~INT)*%
X116184400Y-85009400D03*
%TO.P,U2,8,VCC*%
%TO.N,/Vcc*%
X116184400Y-83739400D03*
%TD*%
D10*
%TO.P,R7,1*%
%TO.N,Net-(D2-K)*%
X141751000Y-78278400D03*
%TO.P,R7,2*%
%TO.N,GND*%
X143576000Y-78278400D03*
%TD*%
D17*
%TO.P,J1,1,Pin_1*%
%TO.N,GND*%
X149326600Y-82448400D03*
D18*
%TO.P,J1,2,Pin_2*%
%TO.N,/Vcc*%
X149326600Y-84988400D03*
%TO.P,J1,3,Pin_3*%
%TO.N,/SDA*%
X149326600Y-87528400D03*
%TO.P,J1,4,Pin_4*%
%TO.N,/SCL*%
X149326600Y-90068400D03*
%TD*%
D17*
%TO.P,J2,1,Pin_1*%
%TO.N,/D2*%
X109778800Y-94869000D03*
D18*
%TO.P,J2,2,Pin_2*%
%TO.N,/D3*%
X112318800Y-94869000D03*
%TO.P,J2,3,Pin_3*%
%TO.N,/D4*%
X114858800Y-94869000D03*
%TO.P,J2,4,Pin_4*%
%TO.N,/D5*%
X117398800Y-94869000D03*
%TO.P,J2,5,Pin_5*%
%TO.N,/D6*%
X119938800Y-94869000D03*
%TO.P,J2,6,Pin_6*%
%TO.N,/D7*%
X122478800Y-94869000D03*
%TO.P,J2,7,Pin_7*%
%TO.N,/D8*%
X125018800Y-94869000D03*
%TO.P,J2,8,Pin_8*%
%TO.N,GND*%
X127558800Y-94869000D03*
%TO.P,J2,9,Pin_9*%
%TO.N,/Vcc*%
X130098800Y-94869000D03*
%TD*%
D17*
%TO.P,J3,1,Pin_1*%
%TO.N,GND*%
X136804400Y-94843600D03*
D18*
%TO.P,J3,2,Pin_2*%
%TO.N,/Vcc*%
X139344400Y-94843600D03*
%TO.P,J3,3,Pin_3*%
%TO.N,/RX*%
X141884400Y-94843600D03*
%TO.P,J3,4,Pin_4*%
%TO.N,/TX*%
X144424400Y-94843600D03*
%TD*%
D17*
%TO.P,J4,1,Pin_1*%
%TO.N,/MISO*%
X146939000Y-73685400D03*
D18*
%TO.P,J4,2,Pin_2*%
%TO.N,/Vcc*%
X149479000Y-73685400D03*
%TO.P,J4,3,Pin_3*%
%TO.N,/SCK*%
X146939000Y-76225400D03*
%TO.P,J4,4,Pin_4*%
%TO.N,/MOSI*%
X149479000Y-76225400D03*
%TO.P,J4,5,Pin_5*%
%TO.N,/RST*%
X146939000Y-78765400D03*
%TO.P,J4,6,Pin_6*%
%TO.N,GND*%
X149479000Y-78765400D03*
%TD*%
D15*
%TO.P,C1,1*%
%TO.N,/Vcc*%
X129675800Y-68677200D03*
%TO.P,C1,2*%
%TO.N,GND*%
X131575800Y-68677200D03*
%TD*%
D17*
%TO.P,BT1,1,+*%
%TO.N,/Vcc*%
X106197400Y-75407600D03*
D18*
%TO.P,BT1,2,-*%
%TO.N,GND*%
X106197400Y-77947600D03*
%TD*%
D10*
%TO.P,R1,1*%
%TO.N,/Vcc*%
X136164900Y-73604800D03*
%TO.P,R1,2*%
%TO.N,/SCL*%
X137989900Y-73604800D03*
%TD*%
D15*
%TO.P,C4,1*%
%TO.N,GND*%
X125230800Y-68728000D03*
%TO.P,C4,2*%
%TO.N,Net-(U4-AREF)*%
X127130800Y-68728000D03*
%TD*%
D19*
%TO.P,Y1,1,1*%
%TO.N,Net-(U2-X2)*%
X105867200Y-89188600D03*
%TO.P,Y1,2,2*%
%TO.N,Net-(U2-X1)*%
X105867200Y-83988600D03*
%TD*%
D10*
%TO.P,R2,1*%
%TO.N,/Vcc*%
X141751000Y-73528600D03*
%TO.P,R2,2*%
%TO.N,/SDA*%
X143576000Y-73528600D03*
%TD*%
D20*
%TO.P,D1,1,K*%
%TO.N,GND*%
X141746000Y-69032800D03*
%TO.P,D1,2,A*%
%TO.N,Net-(D1-A)*%
X143621000Y-69032800D03*
%TD*%
D10*
%TO.P,R6,1*%
%TO.N,/RST*%
X136164900Y-78278400D03*
%TO.P,R6,2*%
%TO.N,/Vcc*%
X137989900Y-78278400D03*
%TD*%
D15*
%TO.P,C2,1*%
%TO.N,GND*%
X136127400Y-85542800D03*
%TO.P,C2,2*%
%TO.N,Net-(U4-PB6)*%
X138027400Y-85542800D03*
%TD*%
D11*
%TO.P,U1,1,A0*%
%TO.N,/Vcc*%
X111223200Y-76297200D03*
%TO.P,U1,2,A1*%
X111223200Y-77567200D03*
%TO.P,U1,3,A2*%
X111223200Y-78837200D03*
%TO.P,U1,4,GND*%
%TO.N,GND*%
X111223200Y-80107200D03*
%TO.P,U1,5,SDA*%
%TO.N,/SDA*%
X116173200Y-80107200D03*
%TO.P,U1,6,SCL*%
%TO.N,/SCL*%
X116173200Y-78837200D03*
%TO.P,U1,7,WP*%
%TO.N,GND*%
X116173200Y-77567200D03*
%TO.P,U1,8,VCC*%
%TO.N,/Vcc*%
X116173200Y-76297200D03*
%TD*%
D20*
%TO.P,D2,1,K*%
%TO.N,Net-(D2-K)*%
X136159900Y-69032800D03*
%TO.P,D2,2,A*%
%TO.N,/Vcc*%
X138034900Y-69032800D03*
%TD*%
D10*
%TO.P,R5,1*%
%TO.N,Net-(D1-A)*%
X136164900Y-81885200D03*
%TO.P,R5,2*%
%TO.N,/SCK*%
X137989900Y-81885200D03*
%TD*%
D15*
%TO.P,C5,1*%
%TO.N,/Vcc*%
X120633400Y-68677200D03*
%TO.P,C5,2*%
%TO.N,GND*%
X122533400Y-68677200D03*
%TD*%
D21*
%TO.N,/SCL*%
X113805500Y-76663000D03*
X114313500Y-72065600D03*
%TO.N,/Vcc*%
X128867700Y-70160600D03*
X109309700Y-68154000D03*
X140500900Y-72954600D03*
X116015300Y-89286800D03*
X108827100Y-89794800D03*
X117488500Y-82327200D03*
X138900700Y-70287600D03*
X138621300Y-74910400D03*
X138621300Y-79711000D03*
%TO.N,GND*%
X124295700Y-77907600D03*
%TO.N,/Vcc*%
X124702100Y-76866200D03*
X116472500Y-74656400D03*
X113145100Y-77552000D03*
%TO.N,GND*%
X144107700Y-80142800D03*
X124524300Y-75799400D03*
X132576100Y-77933000D03*
X134989100Y-86315000D03*
X134735100Y-89871000D03*
X140373900Y-68789000D03*
X133312700Y-69474800D03*
X109817700Y-81006400D03*
X109335100Y-88067600D03*
%TO.N,/SCL*%
X114516700Y-84892600D03*
X114262700Y-79482400D03*
X120688900Y-73005400D03*
X127318300Y-74859600D03*
%TO.N,/SDA*%
X118250500Y-72141800D03*
%TO.N,/SCL*%
X146469900Y-90201200D03*
X134887500Y-72421200D03*
%TO.N,/SDA*%
X129223300Y-74707200D03*
X141059700Y-71583000D03*
X144514100Y-74986600D03*
X146292100Y-86289600D03*
%TO.N,Net-(D1-A)*%
X143320300Y-70770200D03*
X134912900Y-81387400D03*
%TO.N,/MISO*%
X131102900Y-82987600D03*
X141389900Y-76358200D03*
%TO.N,/MOSI*%
X128994700Y-83521000D03*
X141237500Y-83673400D03*
%TO.N,/SCK*%
X139053100Y-83267000D03*
X141364500Y-81285800D03*
%TO.N,Net-(U4-PB6)*%
X128105700Y-85908600D03*
X124371900Y-79355400D03*
%TO.N,Net-(U4-AREF)*%
X127800900Y-77653600D03*
X127292900Y-69982800D03*
%TO.N,/RST*%
X136944900Y-79838000D03*
X143269500Y-82174800D03*
X126187200Y-75209400D03*
X136194800Y-76809600D03*
%TO.N,Net-(U4-PB7)*%
X124155200Y-91236800D03*
X134289800Y-91490800D03*
%TD*%
D22*
%TO.N,/SCL*%
X113805500Y-77145600D02*
X115497100Y-78837200D01*
X115497100Y-78837200D02*
X115725738Y-78837200D01*
X113805500Y-76663000D02*
X113805500Y-77145600D01*
D23*
%TO.N,/Vcc*%
X113576900Y-69109000D02*
X112840300Y-68372400D01*
X112748900Y-70912400D02*
X113576900Y-70084400D01*
X113576900Y-70084400D02*
X113576900Y-69109000D01*
X111223200Y-70912400D02*
X112748900Y-70912400D01*
X116173200Y-68372400D02*
X111223200Y-68372400D01*
D22*
%TO.N,/SCL*%
X115441300Y-70912400D02*
X114313500Y-72040200D01*
X116173200Y-70912400D02*
X115441300Y-70912400D01*
D23*
%TO.N,GND*%
X111223200Y-73420300D02*
X111223200Y-72182400D01*
X111976700Y-74173800D02*
X111223200Y-73420300D01*
X114773200Y-75979700D02*
X112967300Y-74173800D01*
X114773200Y-76685373D02*
X114773200Y-75979700D01*
X112967300Y-74173800D02*
X111976700Y-74173800D01*
X115655027Y-77567200D02*
X114773200Y-76685373D01*
X116173200Y-77567200D02*
X115655027Y-77567200D01*
%TO.N,/Vcc*%
X129675800Y-69352500D02*
X128867700Y-70160600D01*
X129675800Y-68677200D02*
X129675800Y-69352500D01*
X109528100Y-68372400D02*
X109309700Y-68154000D01*
X111223200Y-68372400D02*
X109528100Y-68372400D01*
X120633400Y-68677200D02*
X116478000Y-68677200D01*
X116478000Y-68677200D02*
X116173200Y-68372400D01*
X141074900Y-73528600D02*
X140500900Y-72954600D01*
X141751000Y-73528600D02*
X141074900Y-73528600D01*
X114752700Y-90549400D02*
X116015300Y-89286800D01*
X114752700Y-90622800D02*
X114752700Y-90549400D01*
X109807500Y-90775200D02*
X108827100Y-89794800D01*
X110434700Y-90775200D02*
X109807500Y-90775200D01*
X116184400Y-83631300D02*
X117488500Y-82327200D01*
X116184400Y-83739400D02*
X116184400Y-83631300D01*
X138034900Y-69421800D02*
X138900700Y-70287600D01*
X138034900Y-69032800D02*
X138034900Y-69421800D01*
X138621300Y-74910400D02*
X138468900Y-74910400D01*
X136322806Y-73604800D02*
X137628406Y-74910400D01*
X137628406Y-74910400D02*
X138621300Y-74910400D01*
X136164900Y-73604800D02*
X136322806Y-73604800D01*
D22*
%TO.N,Net-(D2-K)*%
X136159900Y-69985200D02*
X136159900Y-69032800D01*
X140221500Y-76205800D02*
X140221500Y-74046800D01*
X140664900Y-76649200D02*
X140221500Y-76205800D01*
X140221500Y-74046800D02*
X136159900Y-69985200D01*
X140664900Y-76658505D02*
X140664900Y-76649200D01*
X141098900Y-77083200D02*
X141089595Y-77083200D01*
X141751000Y-77735300D02*
X141098900Y-77083200D01*
X141089595Y-77083200D02*
X140664900Y-76658505D01*
X141751000Y-78278400D02*
X141751000Y-77735300D01*
D23*
%TO.N,/Vcc*%
X137989900Y-79079600D02*
X138621300Y-79711000D01*
X137989900Y-78278400D02*
X137989900Y-79079600D01*
X127174500Y-79338600D02*
X130808000Y-79338600D01*
X124702100Y-76866200D02*
X127174500Y-79338600D01*
%TO.N,GND*%
X124126700Y-77738600D02*
X124295700Y-77907600D01*
X122468000Y-77738600D02*
X124126700Y-77738600D01*
%TO.N,/Vcc*%
X123256488Y-76938600D02*
X122468000Y-76938600D01*
X123328888Y-76866200D02*
X123256488Y-76938600D01*
X124702100Y-76866200D02*
X123328888Y-76866200D01*
%TO.N,GND*%
X124185100Y-76138600D02*
X122468000Y-76138600D01*
X124321100Y-76002600D02*
X124524300Y-75799400D01*
X124524300Y-75799400D02*
X124185100Y-76138600D01*
%TO.N,/Vcc*%
X116173200Y-74955700D02*
X116472500Y-74656400D01*
X116173200Y-76297200D02*
X116173200Y-74955700D01*
X113145100Y-77552000D02*
X112865700Y-77577400D01*
X112855500Y-77567200D02*
X113145100Y-77552000D01*
X111223200Y-77567200D02*
X112855500Y-77567200D01*
X111223200Y-77567200D02*
X111223200Y-76297200D01*
X111223200Y-78837200D02*
X111223200Y-77567200D01*
%TO.N,GND*%
X143576000Y-79611100D02*
X144107700Y-80142800D01*
X143576000Y-78278400D02*
X143576000Y-79611100D01*
D22*
%TO.N,/RST*%
X146939000Y-79597500D02*
X146939000Y-78765400D01*
X144361700Y-82174800D02*
X146939000Y-79597500D01*
X143269500Y-82174800D02*
X144361700Y-82174800D01*
D23*
%TO.N,GND*%
X132576100Y-77918212D02*
X132576100Y-77933000D01*
X131596488Y-76938600D02*
X132576100Y-77918212D01*
X130808000Y-76938600D02*
X131596488Y-76938600D01*
X135761300Y-85542800D02*
X134989100Y-86315000D01*
X136127400Y-85542800D02*
X135761300Y-85542800D01*
X134897700Y-89708400D02*
X134735100Y-89871000D01*
X136127400Y-89708400D02*
X134897700Y-89708400D01*
X149479000Y-82296000D02*
X149326600Y-82448400D01*
X141502200Y-68789000D02*
X140373900Y-68789000D01*
X141746000Y-69032800D02*
X141502200Y-68789000D01*
X132515100Y-68677200D02*
X133312700Y-69474800D01*
X131575800Y-68677200D02*
X132515100Y-68677200D01*
X110716900Y-80107200D02*
X109817700Y-81006400D01*
X111223200Y-80107200D02*
X110716900Y-80107200D01*
X126431600Y-67527200D02*
X130425800Y-67527200D01*
X130425800Y-67527200D02*
X131575800Y-68677200D01*
X125230800Y-68728000D02*
X126431600Y-67527200D01*
X125180000Y-68677200D02*
X125230800Y-68728000D01*
X122533400Y-68677200D02*
X125180000Y-68677200D01*
X121383400Y-69827200D02*
X122533400Y-68677200D01*
X116358000Y-69827200D02*
X121383400Y-69827200D01*
X116173200Y-69642400D02*
X116358000Y-69827200D01*
X108842300Y-72182400D02*
X111223200Y-72182400D01*
X108141300Y-71481400D02*
X108842300Y-72182400D01*
X108903300Y-69525600D02*
X108141300Y-70287600D01*
X108141300Y-70287600D02*
X108141300Y-71481400D01*
X111106400Y-69525600D02*
X108903300Y-69525600D01*
X111223200Y-69642400D02*
X111106400Y-69525600D01*
X110896350Y-72509250D02*
X111223200Y-72182400D01*
X109030300Y-74375300D02*
X110896350Y-72509250D01*
X109030300Y-78432473D02*
X109030300Y-74375300D01*
X110705027Y-80107200D02*
X109030300Y-78432473D01*
X111223200Y-80107200D02*
X110705027Y-80107200D01*
D22*
%TO.N,/SDA*%
X116173200Y-72182400D02*
X118301300Y-74310500D01*
X118301300Y-78542600D02*
X116736700Y-80107200D01*
X118301300Y-74310500D02*
X118301300Y-78542600D01*
X116736700Y-80107200D02*
X116173200Y-80107200D01*
%TO.N,/SCL*%
X116173200Y-78837200D02*
X114907900Y-78837200D01*
X114907900Y-78837200D02*
X114262700Y-79482400D01*
D23*
%TO.N,GND*%
X109853300Y-87549400D02*
X109335100Y-88067600D01*
X111234400Y-87549400D02*
X109853300Y-87549400D01*
D22*
%TO.N,/SCL*%
X115738974Y-86279400D02*
X116184400Y-86279400D01*
X114516700Y-85057126D02*
X115738974Y-86279400D01*
X118595900Y-70912400D02*
X116173200Y-70912400D01*
X120688900Y-73005400D02*
X118595900Y-70912400D01*
X127318300Y-74060527D02*
X127318300Y-74859600D01*
X127038000Y-73780227D02*
X127318300Y-74060527D01*
X127038000Y-73168600D02*
X127038000Y-73780227D01*
%TO.N,/SDA*%
X128286373Y-74228600D02*
X127838000Y-73780227D01*
X128744700Y-74228600D02*
X128286373Y-74228600D01*
X127838000Y-73780227D02*
X127838000Y-73168600D01*
X129223300Y-74707200D02*
X128744700Y-74228600D01*
X115738974Y-87549400D02*
X116184400Y-87549400D01*
X113627700Y-82652700D02*
X113627700Y-85438126D01*
X113627700Y-85438126D02*
X115738974Y-87549400D01*
X116173200Y-80107200D02*
X113627700Y-82652700D01*
X116213800Y-72141800D02*
X116173200Y-72182400D01*
X118250500Y-72141800D02*
X116213800Y-72141800D01*
%TO.N,/SCL*%
X146602700Y-90068400D02*
X149326600Y-90068400D01*
X146469900Y-90201200D02*
X146602700Y-90068400D01*
X134887500Y-72268800D02*
X134912900Y-72294200D01*
X134887500Y-72421200D02*
X134887500Y-72268800D01*
X135039900Y-72421200D02*
X134887500Y-72421200D01*
X135148500Y-72529800D02*
X135039900Y-72421200D01*
X136914900Y-72529800D02*
X135148500Y-72529800D01*
X137989900Y-73604800D02*
X136914900Y-72529800D01*
%TO.N,/RX*%
X131445000Y-71983600D02*
X126011373Y-71983600D01*
X135546000Y-76084600D02*
X131445000Y-71983600D01*
X137392483Y-76084600D02*
X135546000Y-76084600D01*
X139840500Y-78532617D02*
X137392483Y-76084600D01*
X139840500Y-92799700D02*
X139840500Y-78532617D01*
X126011373Y-71983600D02*
X125438000Y-72556973D01*
X125438000Y-72556973D02*
X125438000Y-73168600D01*
X141884400Y-94843600D02*
X139840500Y-92799700D01*
%TO.N,/SDA*%
X141630400Y-71583000D02*
X141059700Y-71583000D01*
X143576000Y-73528600D02*
X141630400Y-71583000D01*
X144514100Y-74986600D02*
X144514100Y-74466700D01*
X144514100Y-74466700D02*
X143576000Y-73528600D01*
X147530900Y-87528400D02*
X146292100Y-86289600D01*
X149326600Y-87528400D02*
X147530900Y-87528400D01*
%TO.N,/MISO*%
X143846221Y-75775400D02*
X143263421Y-76358200D01*
X143263421Y-76358200D02*
X141389900Y-76358200D01*
X145727299Y-75775400D02*
X143846221Y-75775400D01*
X146939000Y-74563699D02*
X145727299Y-75775400D01*
X146939000Y-73685400D02*
X146939000Y-74563699D01*
%TO.N,Net-(D1-A)*%
X143320300Y-69333500D02*
X143621000Y-69032800D01*
X143320300Y-70770200D02*
X143320300Y-69333500D01*
X135410700Y-81885200D02*
X134912900Y-81387400D01*
X136164900Y-81885200D02*
X135410700Y-81885200D01*
%TO.N,/MISO*%
X130917000Y-82987600D02*
X129438000Y-81508600D01*
X131102900Y-82987600D02*
X130917000Y-82987600D01*
%TO.N,/MOSI*%
X128638000Y-83164300D02*
X128638000Y-81508600D01*
X128994700Y-83521000D02*
X128638000Y-83164300D01*
X143692701Y-83673400D02*
X141237500Y-83673400D01*
X148114000Y-79252101D02*
X143692701Y-83673400D01*
X148114000Y-77590400D02*
X148114000Y-79252101D01*
X149479000Y-76225400D02*
X148114000Y-77590400D01*
%TO.N,/SCK*%
X137966795Y-81885200D02*
X136220195Y-80138600D01*
X136220195Y-80138600D02*
X130808000Y-80138600D01*
X137989900Y-81885200D02*
X137966795Y-81885200D01*
X139053100Y-83267000D02*
X139053100Y-82948400D01*
X139053100Y-82948400D02*
X137989900Y-81885200D01*
X142688500Y-79961800D02*
X141364500Y-81285800D01*
X142688500Y-77569517D02*
X142688500Y-79961800D01*
X144032617Y-76225400D02*
X142688500Y-77569517D01*
X146939000Y-76225400D02*
X144032617Y-76225400D01*
%TO.N,Net-(U4-PB6)*%
X129127200Y-86930100D02*
X129127200Y-88362200D01*
X128105700Y-85908600D02*
X129127200Y-86930100D01*
X122484800Y-79355400D02*
X124371900Y-79355400D01*
X122468000Y-79338600D02*
X122484800Y-79355400D01*
%TO.N,/D2*%
X122075100Y-73168600D02*
X123838000Y-73168600D01*
X119380000Y-89346173D02*
X119380000Y-75863700D01*
X116600373Y-92125800D02*
X119380000Y-89346173D01*
X109778800Y-94869000D02*
X112522000Y-92125800D01*
X112522000Y-92125800D02*
X116600373Y-92125800D01*
X119380000Y-75863700D02*
X122075100Y-73168600D01*
%TO.N,Net-(U4-AREF)*%
X130723000Y-77653600D02*
X130808000Y-77738600D01*
X127800900Y-77653600D02*
X130723000Y-77653600D01*
X127130800Y-69820700D02*
X127292900Y-69982800D01*
X127130800Y-68728000D02*
X127130800Y-69820700D01*
%TO.N,Net-(U2-X1)*%
X110985200Y-83988600D02*
X105867200Y-83988600D01*
X111234400Y-83739400D02*
X110985200Y-83988600D01*
%TO.N,Net-(U2-X2)*%
X106609774Y-89188600D02*
X105867200Y-89188600D01*
X110788974Y-85009400D02*
X106609774Y-89188600D01*
X111234400Y-85009400D02*
X110788974Y-85009400D01*
%TO.N,Net-(U2-~{INTA})*%
X112322100Y-86279400D02*
X111234400Y-86279400D01*
X113754700Y-87712000D02*
X112322100Y-86279400D01*
X113754700Y-89280200D02*
X113754700Y-87712000D01*
X112259700Y-90775200D02*
X113754700Y-89280200D01*
%TO.N,Net-(U2-SQW{slash}~INT)*%
X118428300Y-86391200D02*
X117046500Y-85009400D01*
X118428300Y-88772200D02*
X118428300Y-86391200D01*
X116577700Y-90622800D02*
X118428300Y-88772200D01*
X117046500Y-85009400D02*
X116184400Y-85009400D01*
%TO.N,/RST*%
X136944900Y-79058400D02*
X136164900Y-78278400D01*
X136944900Y-79838000D02*
X136944900Y-79058400D01*
%TO.N,/TX*%
X125661373Y-71533600D02*
X124638000Y-72556973D01*
X135921200Y-75570800D02*
X131884000Y-71533600D01*
X137884700Y-75570800D02*
X135921200Y-75570800D01*
X131884000Y-71533600D02*
X125661373Y-71533600D01*
X124638000Y-72556973D02*
X124638000Y-73168600D01*
X140348500Y-78034600D02*
X137884700Y-75570800D01*
X140348500Y-90767700D02*
X140348500Y-78034600D01*
X144424400Y-94843600D02*
X140348500Y-90767700D01*
%TO.N,/RST*%
X126187200Y-73219400D02*
X126238000Y-73168600D01*
X126187200Y-75209400D02*
X126187200Y-73219400D01*
X136164900Y-76839500D02*
X136194800Y-76809600D01*
X136164900Y-78278400D02*
X136164900Y-76839500D01*
%TO.N,Net-(U4-PB7)*%
X123927200Y-91008800D02*
X123927200Y-88362200D01*
X124155200Y-91236800D02*
X123927200Y-91008800D01*
X136245000Y-91490800D02*
X134289800Y-91490800D01*
X138027400Y-89708400D02*
X136245000Y-91490800D01*
%TO.N,Net-(U4-PB6)*%
X135208000Y-88362200D02*
X138027400Y-85542800D01*
X129127200Y-88362200D02*
X135208000Y-88362200D01*
%TO.N,/D8*%
X126452200Y-86650804D02*
X126238000Y-86436604D01*
X126238000Y-86436604D02*
X126238000Y-81508600D01*
X126452200Y-93435600D02*
X126452200Y-86650804D01*
X125018800Y-94869000D02*
X126452200Y-93435600D01*
%TO.N,/D7*%
X125438000Y-86273000D02*
X125438000Y-81508600D01*
X126002200Y-86837200D02*
X125438000Y-86273000D01*
X126002200Y-91345600D02*
X126002200Y-86837200D01*
X122478800Y-94869000D02*
X126002200Y-91345600D01*
%TO.N,/D6*%
X124638000Y-83692800D02*
X124638000Y-81508600D01*
X121852200Y-92955600D02*
X121852200Y-86478600D01*
X119938800Y-94869000D02*
X121852200Y-92955600D01*
X121852200Y-86478600D02*
X124638000Y-83692800D01*
%TO.N,/D5*%
X121386600Y-83947000D02*
X123825000Y-81508600D01*
X121386600Y-89331800D02*
X121386600Y-83947000D01*
X118262400Y-94005400D02*
X118262400Y-92456000D01*
X117398800Y-94869000D02*
X118262400Y-94005400D01*
X118262400Y-92456000D02*
X121386600Y-89331800D01*
X123825000Y-81508600D02*
X123838000Y-81508600D01*
%TO.N,/D4*%
X121750223Y-75338600D02*
X122468000Y-75338600D01*
X120853200Y-76235623D02*
X121750223Y-75338600D01*
X120853200Y-89145765D02*
X120853200Y-76235623D01*
X116304965Y-93694000D02*
X120853200Y-89145765D01*
X116033800Y-93694000D02*
X116304965Y-93694000D01*
X114858800Y-94869000D02*
X116033800Y-93694000D01*
%TO.N,/D3*%
X121447800Y-74538600D02*
X122468000Y-74538600D01*
X120192800Y-75793600D02*
X121447800Y-74538600D01*
X120192800Y-89169769D02*
X120192800Y-75793600D01*
X116786769Y-92575800D02*
X120192800Y-89169769D01*
X114612000Y-92575800D02*
X116786769Y-92575800D01*
X112318800Y-94869000D02*
X114612000Y-92575800D01*
%TD*%
M02*
