%TF.GenerationSoftware,KiCad,Pcbnew,7.0.5*%
%TF.CreationDate,2024-03-10T11:39:13+05:30*%
%TF.ProjectId,mcu datalogger,6d637520-6461-4746-916c-6f676765722e,1*%
%TF.SameCoordinates,Original*%
%TF.FileFunction,Copper,L1,Top*%
%TF.FilePolarity,Positive*%
%FSLAX46Y46*%
G04 Gerber Fmt 4.6, Leading zero omitted, Abs format (unit mm)*
G04 Created by KiCad (PCBNEW 7.0.5) date 2024-03-10 11:39:13*
%MOMM*%
%LPD*%
G01*
G04 APERTURE LIST*
G04 Aperture macros list*
%AMRoundRect*
0 Rectangle with rounded corners*
0 $1 Rounding radius*
0 $2 $3 $4 $5 $6 $7 $8 $9 X,Y pos of 4 corners*
0 Add a 4 corners polygon primitive as box body*
4,1,4,$2,$3,$4,$5,$6,$7,$8,$9,$2,$3,0*
0 Add four circle primitives for the rounded corners*
1,1,$1+$1,$2,$3*
1,1,$1+$1,$4,$5*
1,1,$1+$1,$6,$7*
1,1,$1+$1,$8,$9*
0 Add four rect primitives between the rounded corners*
20,1,$1+$1,$2,$3,$4,$5,0*
20,1,$1+$1,$4,$5,$6,$7,0*
20,1,$1+$1,$6,$7,$8,$9,0*
20,1,$1+$1,$8,$9,$2,$3,0*%
G04 Aperture macros list end*
%TA.AperFunction,SMDPad,CuDef*%
%ADD10RoundRect,0.250000X-0.262500X-0.450000X0.262500X-0.450000X0.262500X0.450000X-0.262500X0.450000X0*%
%TD*%
%TA.AperFunction,SMDPad,CuDef*%
%ADD11RoundRect,0.150000X-0.825000X-0.150000X0.825000X-0.150000X0.825000X0.150000X-0.825000X0.150000X0*%
%TD*%
%TA.AperFunction,SMDPad,CuDef*%
%ADD12R,3.500000X2.400000*%
%TD*%
%TA.AperFunction,SMDPad,CuDef*%
%ADD13RoundRect,0.038500X-0.696500X-0.236500X0.696500X-0.236500X0.696500X0.236500X-0.696500X0.236500X0*%
%TD*%
%TA.AperFunction,SMDPad,CuDef*%
%ADD14RoundRect,0.099000X-0.176000X-0.636000X0.176000X-0.636000X0.176000X0.636000X-0.176000X0.636000X0*%
%TD*%
%TA.AperFunction,SMDPad,CuDef*%
%ADD15RoundRect,0.250000X-0.250000X-0.475000X0.250000X-0.475000X0.250000X0.475000X-0.250000X0.475000X0*%
%TD*%
%TA.AperFunction,SMDPad,CuDef*%
%ADD16RoundRect,0.041300X-0.943700X-0.253700X0.943700X-0.253700X0.943700X0.253700X-0.943700X0.253700X0*%
%TD*%
%TA.AperFunction,ComponentPad*%
%ADD17R,1.700000X1.700000*%
%TD*%
%TA.AperFunction,ComponentPad*%
%ADD18O,1.700000X1.700000*%
%TD*%
%TA.AperFunction,SMDPad,CuDef*%
%ADD19R,2.400000X3.500000*%
%TD*%
%TA.AperFunction,SMDPad,CuDef*%
%ADD20RoundRect,0.243750X-0.243750X-0.456250X0.243750X-0.456250X0.243750X0.456250X-0.243750X0.456250X0*%
%TD*%
%TA.AperFunction,ViaPad*%
%ADD21C,0.800000*%
%TD*%
%TA.AperFunction,Conductor*%
%ADD22C,0.250000*%
%TD*%
%TA.AperFunction,Conductor*%
%ADD23C,0.350000*%
%TD*%
G04 APERTURE END LIST*
D10*
%TO.P,R3,1*%
%TO.N,/Vcc*%
X77340600Y-109098800D03*
%TO.P,R3,2*%
%TO.N,Net-(U2-~{INTA})*%
X79165600Y-109098800D03*
%TD*%
D11*
%TO.P,U3,1,A0*%
%TO.N,/Vcc*%
X78129100Y-86696000D03*
%TO.P,U3,2,A1*%
%TO.N,GND*%
X78129100Y-87966000D03*
%TO.P,U3,3,A2*%
%TO.N,/Vcc*%
X78129100Y-89236000D03*
%TO.P,U3,4,GND*%
%TO.N,GND*%
X78129100Y-90506000D03*
%TO.P,U3,5,SDA*%
%TO.N,/SDA*%
X83079100Y-90506000D03*
%TO.P,U3,6,SCL*%
%TO.N,/SCL*%
X83079100Y-89236000D03*
%TO.P,U3,7,WP*%
%TO.N,GND*%
X83079100Y-87966000D03*
%TO.P,U3,8,VCC*%
%TO.N,/Vcc*%
X83079100Y-86696000D03*
%TD*%
D12*
%TO.P,Y2,1,1*%
%TO.N,Net-(U4-PB7)*%
X90833100Y-106685800D03*
%TO.P,Y2,2,2*%
%TO.N,Net-(U4-PB6)*%
X96033100Y-106685800D03*
%TD*%
D10*
%TO.P,R4,1*%
%TO.N,/Vcc*%
X81658600Y-108946400D03*
%TO.P,R4,2*%
%TO.N,Net-(U2-SQW{slash}~INT)*%
X83483600Y-108946400D03*
%TD*%
D13*
%TO.P,U4,1,PD3*%
%TO.N,/D3*%
X89373900Y-92862200D03*
%TO.P,U4,2,PD4*%
%TO.N,/D4*%
X89373900Y-93662200D03*
%TO.P,U4,3,GND*%
%TO.N,GND*%
X89373900Y-94462200D03*
%TO.P,U4,4,VCC*%
%TO.N,/Vcc*%
X89373900Y-95262200D03*
%TO.P,U4,5,GND*%
%TO.N,GND*%
X89373900Y-96062200D03*
%TO.P,U4,6,VCC*%
%TO.N,unconnected-(U4-VCC-Pad6)*%
X89373900Y-96862200D03*
%TO.P,U4,7,PB6*%
%TO.N,Net-(U4-PB6)*%
X89373900Y-97662200D03*
%TO.P,U4,8,PB7*%
%TO.N,Net-(U4-PB7)*%
X89373900Y-98462200D03*
D14*
%TO.P,U4,9,PD5*%
%TO.N,/D5*%
X90743900Y-99832200D03*
%TO.P,U4,10,PD6*%
%TO.N,/D6*%
X91543900Y-99832200D03*
%TO.P,U4,11,PD7*%
%TO.N,/D7*%
X92343900Y-99832200D03*
%TO.P,U4,12,PB0*%
%TO.N,/D8*%
X93143900Y-99832200D03*
%TO.P,U4,13,PB1*%
%TO.N,unconnected-(U4-PB1-Pad13)*%
X93943900Y-99832200D03*
%TO.P,U4,14,PB2*%
%TO.N,unconnected-(U4-PB2-Pad14)*%
X94743900Y-99832200D03*
%TO.P,U4,15,PB3*%
%TO.N,/MOSI*%
X95543900Y-99832200D03*
%TO.P,U4,16,PB4*%
%TO.N,/MISO*%
X96343900Y-99832200D03*
D13*
%TO.P,U4,17,PB5*%
%TO.N,/SCK*%
X97713900Y-98462200D03*
%TO.P,U4,18,AVCC*%
%TO.N,/Vcc*%
X97713900Y-97662200D03*
%TO.P,U4,19,ADC6*%
%TO.N,unconnected-(U4-ADC6-Pad19)*%
X97713900Y-96862200D03*
%TO.P,U4,20,AREF*%
%TO.N,Net-(U4-AREF)*%
X97713900Y-96062200D03*
%TO.P,U4,21,GND*%
%TO.N,GND*%
X97713900Y-95262200D03*
%TO.P,U4,22,ADC7*%
%TO.N,unconnected-(U4-ADC7-Pad22)*%
X97713900Y-94462200D03*
%TO.P,U4,23,PC0*%
%TO.N,unconnected-(U4-PC0-Pad23)*%
X97713900Y-93662200D03*
%TO.P,U4,24,PC1*%
%TO.N,unconnected-(U4-PC1-Pad24)*%
X97713900Y-92862200D03*
D14*
%TO.P,U4,25,PC2*%
%TO.N,unconnected-(U4-PC2-Pad25)*%
X96343900Y-91492200D03*
%TO.P,U4,26,PC3*%
%TO.N,unconnected-(U4-PC3-Pad26)*%
X95543900Y-91492200D03*
%TO.P,U4,27,PC4*%
%TO.N,/SDA*%
X94743900Y-91492200D03*
%TO.P,U4,28,PC5*%
%TO.N,/SCL*%
X93943900Y-91492200D03*
%TO.P,U4,29,PC6/~{RESET}*%
%TO.N,/RST*%
X93143900Y-91492200D03*
%TO.P,U4,30,PD0*%
%TO.N,/RX*%
X92343900Y-91492200D03*
%TO.P,U4,31,PD1*%
%TO.N,/TX*%
X91543900Y-91492200D03*
%TO.P,U4,32,PD2*%
%TO.N,/D2*%
X90743900Y-91492200D03*
%TD*%
D15*
%TO.P,C3,1*%
%TO.N,GND*%
X103033300Y-108032000D03*
%TO.P,C3,2*%
%TO.N,Net-(U4-PB7)*%
X104933300Y-108032000D03*
%TD*%
D16*
%TO.P,U2,1,X1*%
%TO.N,Net-(U2-X1)*%
X78140300Y-102063000D03*
%TO.P,U2,2,X2*%
%TO.N,Net-(U2-X2)*%
X78140300Y-103333000D03*
%TO.P,U2,3,~{INTA}*%
%TO.N,Net-(U2-~{INTA})*%
X78140300Y-104603000D03*
%TO.P,U2,4,GND*%
%TO.N,GND*%
X78140300Y-105873000D03*
%TO.P,U2,5,SDA*%
%TO.N,/SDA*%
X83090300Y-105873000D03*
%TO.P,U2,6,SCL*%
%TO.N,/SCL*%
X83090300Y-104603000D03*
%TO.P,U2,7,SQW/~INT*%
%TO.N,Net-(U2-SQW{slash}~INT)*%
X83090300Y-103333000D03*
%TO.P,U2,8,VCC*%
%TO.N,/Vcc*%
X83090300Y-102063000D03*
%TD*%
D10*
%TO.P,R7,1*%
%TO.N,Net-(D2-K)*%
X108656900Y-96602000D03*
%TO.P,R7,2*%
%TO.N,GND*%
X110481900Y-96602000D03*
%TD*%
D17*
%TO.P,J1,1,Pin_1*%
%TO.N,GND*%
X116232500Y-100772000D03*
D18*
%TO.P,J1,2,Pin_2*%
%TO.N,/Vcc*%
X116232500Y-103312000D03*
%TO.P,J1,3,Pin_3*%
%TO.N,/SDA*%
X116232500Y-105852000D03*
%TO.P,J1,4,Pin_4*%
%TO.N,/SCL*%
X116232500Y-108392000D03*
%TD*%
D17*
%TO.P,J2,1,Pin_1*%
%TO.N,/D2*%
X76684700Y-113192600D03*
D18*
%TO.P,J2,2,Pin_2*%
%TO.N,/D3*%
X79224700Y-113192600D03*
%TO.P,J2,3,Pin_3*%
%TO.N,/D4*%
X81764700Y-113192600D03*
%TO.P,J2,4,Pin_4*%
%TO.N,/D5*%
X84304700Y-113192600D03*
%TO.P,J2,5,Pin_5*%
%TO.N,/D6*%
X86844700Y-113192600D03*
%TO.P,J2,6,Pin_6*%
%TO.N,/D7*%
X89384700Y-113192600D03*
%TO.P,J2,7,Pin_7*%
%TO.N,/D8*%
X91924700Y-113192600D03*
%TO.P,J2,8,Pin_8*%
%TO.N,GND*%
X94464700Y-113192600D03*
%TO.P,J2,9,Pin_9*%
%TO.N,/Vcc*%
X97004700Y-113192600D03*
%TD*%
D17*
%TO.P,J3,1,Pin_1*%
%TO.N,GND*%
X103710300Y-113167200D03*
D18*
%TO.P,J3,2,Pin_2*%
%TO.N,/Vcc*%
X106250300Y-113167200D03*
%TO.P,J3,3,Pin_3*%
%TO.N,/RX*%
X108790300Y-113167200D03*
%TO.P,J3,4,Pin_4*%
%TO.N,/TX*%
X111330300Y-113167200D03*
%TD*%
D17*
%TO.P,J4,1,Pin_1*%
%TO.N,/MISO*%
X113844900Y-92009000D03*
D18*
%TO.P,J4,2,Pin_2*%
%TO.N,/Vcc*%
X116384900Y-92009000D03*
%TO.P,J4,3,Pin_3*%
%TO.N,/SCK*%
X113844900Y-94549000D03*
%TO.P,J4,4,Pin_4*%
%TO.N,/MOSI*%
X116384900Y-94549000D03*
%TO.P,J4,5,Pin_5*%
%TO.N,/RST*%
X113844900Y-97089000D03*
%TO.P,J4,6,Pin_6*%
%TO.N,GND*%
X116384900Y-97089000D03*
%TD*%
D15*
%TO.P,C1,1*%
%TO.N,/Vcc*%
X96581700Y-87000800D03*
%TO.P,C1,2*%
%TO.N,GND*%
X98481700Y-87000800D03*
%TD*%
D17*
%TO.P,BT1,1,+*%
%TO.N,/Vcc*%
X73103300Y-93731200D03*
D18*
%TO.P,BT1,2,-*%
%TO.N,GND*%
X73103300Y-96271200D03*
%TD*%
D10*
%TO.P,R1,1*%
%TO.N,/Vcc*%
X103070800Y-91928400D03*
%TO.P,R1,2*%
%TO.N,/SCL*%
X104895800Y-91928400D03*
%TD*%
D15*
%TO.P,C4,1*%
%TO.N,GND*%
X92136700Y-87051600D03*
%TO.P,C4,2*%
%TO.N,Net-(U4-AREF)*%
X94036700Y-87051600D03*
%TD*%
D19*
%TO.P,Y1,1,1*%
%TO.N,Net-(U2-X2)*%
X72773100Y-107512200D03*
%TO.P,Y1,2,2*%
%TO.N,Net-(U2-X1)*%
X72773100Y-102312200D03*
%TD*%
D10*
%TO.P,R2,1*%
%TO.N,/Vcc*%
X108656900Y-91852200D03*
%TO.P,R2,2*%
%TO.N,/SDA*%
X110481900Y-91852200D03*
%TD*%
D20*
%TO.P,D1,1,K*%
%TO.N,GND*%
X108651900Y-87356400D03*
%TO.P,D1,2,A*%
%TO.N,Net-(D1-A)*%
X110526900Y-87356400D03*
%TD*%
D10*
%TO.P,R6,1*%
%TO.N,/RST*%
X103070800Y-96602000D03*
%TO.P,R6,2*%
%TO.N,/Vcc*%
X104895800Y-96602000D03*
%TD*%
D15*
%TO.P,C2,1*%
%TO.N,GND*%
X103033300Y-103866400D03*
%TO.P,C2,2*%
%TO.N,Net-(U4-PB6)*%
X104933300Y-103866400D03*
%TD*%
D11*
%TO.P,U1,1,A0*%
%TO.N,/Vcc*%
X78129100Y-94620800D03*
%TO.P,U1,2,A1*%
X78129100Y-95890800D03*
%TO.P,U1,3,A2*%
X78129100Y-97160800D03*
%TO.P,U1,4,GND*%
%TO.N,GND*%
X78129100Y-98430800D03*
%TO.P,U1,5,SDA*%
%TO.N,/SDA*%
X83079100Y-98430800D03*
%TO.P,U1,6,SCL*%
%TO.N,/SCL*%
X83079100Y-97160800D03*
%TO.P,U1,7,WP*%
%TO.N,GND*%
X83079100Y-95890800D03*
%TO.P,U1,8,VCC*%
%TO.N,/Vcc*%
X83079100Y-94620800D03*
%TD*%
D20*
%TO.P,D2,1,K*%
%TO.N,Net-(D2-K)*%
X103065800Y-87356400D03*
%TO.P,D2,2,A*%
%TO.N,/Vcc*%
X104940800Y-87356400D03*
%TD*%
D10*
%TO.P,R5,1*%
%TO.N,Net-(D1-A)*%
X103070800Y-100208800D03*
%TO.P,R5,2*%
%TO.N,/SCK*%
X104895800Y-100208800D03*
%TD*%
D15*
%TO.P,C5,1*%
%TO.N,/Vcc*%
X87539300Y-87000800D03*
%TO.P,C5,2*%
%TO.N,GND*%
X89439300Y-87000800D03*
%TD*%
D21*
%TO.N,Net-(U4-PB7)*%
X91021700Y-103993400D03*
X89370700Y-99446800D03*
%TO.N,GND*%
X107279800Y-87112600D03*
X91430200Y-94123000D03*
X76723600Y-99330000D03*
X100218600Y-87798400D03*
X76241000Y-106391200D03*
X91201600Y-96231200D03*
X101641000Y-108194600D03*
X111013600Y-98466400D03*
X101895000Y-104638600D03*
X99482000Y-96256600D03*
%TO.N,/Vcc*%
X75733000Y-108118400D03*
X91608000Y-95189800D03*
X95773600Y-88484200D03*
X76215600Y-86477600D03*
X105527200Y-93234000D03*
X105806600Y-88611200D03*
X84394400Y-100650800D03*
X107406800Y-91278200D03*
X80051000Y-95875600D03*
X105527200Y-98034600D03*
X82921200Y-107610400D03*
X83378400Y-92980000D03*
%TO.N,Net-(U4-PB6)*%
X91277800Y-97679000D03*
X95011600Y-104232200D03*
%TO.N,Net-(U4-PB7)*%
X101195700Y-109814400D03*
X91061100Y-109560400D03*
%TO.N,Net-(U4-AREF)*%
X94706800Y-95977200D03*
X94198800Y-88306400D03*
%TO.N,Net-(D1-A)*%
X101818800Y-99711000D03*
X110226200Y-89093800D03*
%TO.N,/SDA*%
X107965600Y-89906600D03*
X111420000Y-93310200D03*
X85156400Y-90465400D03*
X96129200Y-93030800D03*
X113198000Y-104613200D03*
%TO.N,/SCL*%
X101793400Y-90744800D03*
X94224200Y-93183200D03*
X80711400Y-94986600D03*
X81168600Y-97806000D03*
X87594800Y-91329000D03*
X81422600Y-103216200D03*
X113375800Y-108524800D03*
X81219400Y-90389200D03*
%TO.N,/MISO*%
X108295800Y-94681800D03*
X98008800Y-101311200D03*
%TO.N,/MOSI*%
X95900600Y-101844600D03*
X108143400Y-101997000D03*
%TO.N,/RST*%
X103850800Y-98161600D03*
X103100700Y-95133200D03*
X110175400Y-100498400D03*
X93093100Y-93533000D03*
%TO.N,/SCK*%
X108270400Y-99609400D03*
X105959000Y-101590600D03*
%TD*%
D22*
%TO.N,Net-(U4-PB7)*%
X91021700Y-103993400D02*
X90833100Y-104182000D01*
X90833100Y-104182000D02*
X90833100Y-106685800D01*
X89370700Y-99446800D02*
X89373900Y-99443600D01*
X89373900Y-98462200D02*
X89370700Y-99446800D01*
D23*
%TO.N,GND*%
X92085900Y-87000800D02*
X92136700Y-87051600D01*
X97713900Y-95262200D02*
X98502388Y-95262200D01*
X102667200Y-103866400D02*
X101895000Y-104638600D01*
X83079100Y-95890800D02*
X82560927Y-95890800D01*
X75047200Y-89805000D02*
X75748200Y-90506000D01*
X81679100Y-95008973D02*
X81679100Y-94303300D01*
X83263900Y-88150800D02*
X88289300Y-88150800D01*
X81679100Y-94303300D02*
X79873200Y-92497400D01*
X82560927Y-95890800D02*
X81679100Y-95008973D01*
X78140300Y-105873000D02*
X76759200Y-105873000D01*
X89373900Y-96062200D02*
X91032600Y-96062200D01*
X75936200Y-92698900D02*
X77802250Y-90832850D01*
X78129100Y-87966000D02*
X78012300Y-87849200D01*
X78129100Y-91743900D02*
X78129100Y-90506000D01*
X110481900Y-96602000D02*
X110481900Y-97934700D01*
X78129100Y-98430800D02*
X77622800Y-98430800D01*
X97331700Y-85850800D02*
X98481700Y-87000800D01*
X88289300Y-88150800D02*
X89439300Y-87000800D01*
X77622800Y-98430800D02*
X76723600Y-99330000D01*
X108651900Y-87356400D02*
X108408100Y-87112600D01*
X89439300Y-87000800D02*
X92085900Y-87000800D01*
X110481900Y-97934700D02*
X111013600Y-98466400D01*
X116384900Y-100619600D02*
X116232500Y-100772000D01*
X78882600Y-92497400D02*
X78129100Y-91743900D01*
X78012300Y-87849200D02*
X75809200Y-87849200D01*
X75748200Y-90506000D02*
X78129100Y-90506000D01*
X101803600Y-108032000D02*
X101641000Y-108194600D01*
X99482000Y-96241812D02*
X99482000Y-96256600D01*
X91227000Y-94326200D02*
X91430200Y-94123000D01*
X76759200Y-105873000D02*
X76241000Y-106391200D01*
X98502388Y-95262200D02*
X99482000Y-96241812D01*
X77610927Y-98430800D02*
X75936200Y-96756073D01*
X103033300Y-108032000D02*
X101803600Y-108032000D01*
X75047200Y-88611200D02*
X75047200Y-89805000D01*
X92136700Y-87051600D02*
X93337500Y-85850800D01*
X99421000Y-87000800D02*
X100218600Y-87798400D01*
X79873200Y-92497400D02*
X78882600Y-92497400D01*
X98481700Y-87000800D02*
X99421000Y-87000800D01*
X77802250Y-90832850D02*
X78129100Y-90506000D01*
X108408100Y-87112600D02*
X107279800Y-87112600D01*
X93337500Y-85850800D02*
X97331700Y-85850800D01*
X75936200Y-96756073D02*
X75936200Y-92698900D01*
X75809200Y-87849200D02*
X75047200Y-88611200D01*
X91032600Y-96062200D02*
X91201600Y-96231200D01*
X91091000Y-94462200D02*
X89373900Y-94462200D01*
X78129100Y-98430800D02*
X77610927Y-98430800D01*
X103033300Y-103866400D02*
X102667200Y-103866400D01*
X91430200Y-94123000D02*
X91091000Y-94462200D01*
X83079100Y-87966000D02*
X83263900Y-88150800D01*
%TO.N,/Vcc*%
X90234788Y-95189800D02*
X90162388Y-95262200D01*
X83383900Y-87000800D02*
X83079100Y-86696000D01*
X79761400Y-95890800D02*
X80051000Y-95875600D01*
X80482800Y-87432600D02*
X79746200Y-86696000D01*
X78129100Y-95890800D02*
X79761400Y-95890800D01*
X78129100Y-86696000D02*
X76434000Y-86696000D01*
X77340600Y-109098800D02*
X76713400Y-109098800D01*
X83090300Y-101954900D02*
X84394400Y-100650800D01*
X104940800Y-87356400D02*
X104940800Y-87745400D01*
X78129100Y-95890800D02*
X78129100Y-94620800D01*
X103070800Y-91928400D02*
X103228706Y-91928400D01*
X78129100Y-89236000D02*
X79654800Y-89236000D01*
X83079100Y-94620800D02*
X83079100Y-93279300D01*
X96581700Y-87676100D02*
X95773600Y-88484200D01*
X76713400Y-109098800D02*
X75733000Y-108118400D01*
X81658600Y-108946400D02*
X81658600Y-108873000D01*
X91608000Y-95189800D02*
X90234788Y-95189800D01*
X78129100Y-97160800D02*
X78129100Y-95890800D01*
X91608000Y-95189800D02*
X94080400Y-97662200D01*
X83079100Y-93279300D02*
X83378400Y-92980000D01*
X79654800Y-89236000D02*
X80482800Y-88408000D01*
X104940800Y-87745400D02*
X105806600Y-88611200D01*
X83079100Y-86696000D02*
X78129100Y-86696000D01*
X104895800Y-97403200D02*
X105527200Y-98034600D01*
X80482800Y-88408000D02*
X80482800Y-87432600D01*
X81658600Y-108873000D02*
X82921200Y-107610400D01*
X107980800Y-91852200D02*
X107406800Y-91278200D01*
X104895800Y-96602000D02*
X104895800Y-97403200D01*
X87539300Y-87000800D02*
X83383900Y-87000800D01*
X104534306Y-93234000D02*
X105527200Y-93234000D01*
X83090300Y-102063000D02*
X83090300Y-101954900D01*
X108656900Y-91852200D02*
X107980800Y-91852200D01*
X96581700Y-87000800D02*
X96581700Y-87676100D01*
X94080400Y-97662200D02*
X97713900Y-97662200D01*
X76434000Y-86696000D02*
X76215600Y-86477600D01*
X90162388Y-95262200D02*
X89373900Y-95262200D01*
X80051000Y-95875600D02*
X79771600Y-95901000D01*
X105527200Y-93234000D02*
X105374800Y-93234000D01*
X103228706Y-91928400D02*
X104534306Y-93234000D01*
D22*
%TO.N,Net-(U4-PB6)*%
X89390700Y-97679000D02*
X91277800Y-97679000D01*
X95011600Y-104232200D02*
X96033100Y-105253700D01*
X96033100Y-106685800D02*
X102113900Y-106685800D01*
X102113900Y-106685800D02*
X104933300Y-103866400D01*
X96033100Y-105253700D02*
X96033100Y-106685800D01*
X89373900Y-97662200D02*
X89390700Y-97679000D01*
%TO.N,Net-(U4-PB7)*%
X91061100Y-109560400D02*
X90833100Y-109332400D01*
X90833100Y-109332400D02*
X90833100Y-106685800D01*
X104933300Y-108032000D02*
X103150900Y-109814400D01*
X103150900Y-109814400D02*
X101195700Y-109814400D01*
%TO.N,Net-(U4-AREF)*%
X94706800Y-95977200D02*
X97628900Y-95977200D01*
X94036700Y-87051600D02*
X94036700Y-88144300D01*
X94036700Y-88144300D02*
X94198800Y-88306400D01*
X97628900Y-95977200D02*
X97713900Y-96062200D01*
%TO.N,Net-(D1-A)*%
X110226200Y-89093800D02*
X110226200Y-87657100D01*
X110226200Y-87657100D02*
X110526900Y-87356400D01*
X103070800Y-100208800D02*
X102316600Y-100208800D01*
X102316600Y-100208800D02*
X101818800Y-99711000D01*
%TO.N,Net-(D2-K)*%
X108004800Y-95406800D02*
X107995495Y-95406800D01*
X108656900Y-96058900D02*
X108004800Y-95406800D01*
X107570800Y-94982105D02*
X107570800Y-94972800D01*
X108656900Y-96602000D02*
X108656900Y-96058900D01*
X107570800Y-94972800D02*
X107127400Y-94529400D01*
X103065800Y-88308800D02*
X103065800Y-87356400D01*
X107127400Y-94529400D02*
X107127400Y-92370400D01*
X107127400Y-92370400D02*
X103065800Y-88308800D01*
X107995495Y-95406800D02*
X107570800Y-94982105D01*
%TO.N,/SDA*%
X83079100Y-90506000D02*
X85207200Y-92634100D01*
X95650600Y-92552200D02*
X95192273Y-92552200D01*
X108536300Y-89906600D02*
X107965600Y-89906600D01*
X80533600Y-103761726D02*
X82644874Y-105873000D01*
X111420000Y-92790300D02*
X110481900Y-91852200D01*
X85207200Y-92634100D02*
X85207200Y-96866200D01*
X82644874Y-105873000D02*
X83090300Y-105873000D01*
X94743900Y-92103827D02*
X94743900Y-91492200D01*
X110481900Y-91852200D02*
X108536300Y-89906600D01*
X114436800Y-105852000D02*
X113198000Y-104613200D01*
X85156400Y-90465400D02*
X83119700Y-90465400D01*
X83079100Y-98430800D02*
X80533600Y-100976300D01*
X80533600Y-100976300D02*
X80533600Y-103761726D01*
X96129200Y-93030800D02*
X95650600Y-92552200D01*
X83642600Y-98430800D02*
X83079100Y-98430800D01*
X116232500Y-105852000D02*
X114436800Y-105852000D01*
X85207200Y-96866200D02*
X83642600Y-98430800D01*
X83119700Y-90465400D02*
X83079100Y-90506000D01*
X95192273Y-92552200D02*
X94743900Y-92103827D01*
X111420000Y-93310200D02*
X111420000Y-92790300D01*
%TO.N,/SCL*%
X81813800Y-97160800D02*
X81168600Y-97806000D01*
X81422600Y-103380726D02*
X82644874Y-104603000D01*
X94224200Y-92384127D02*
X94224200Y-93183200D01*
X85501800Y-89236000D02*
X83079100Y-89236000D01*
X113375800Y-108524800D02*
X113508600Y-108392000D01*
X102054400Y-90853400D02*
X101945800Y-90744800D01*
X101793400Y-90744800D02*
X101793400Y-90592400D01*
X103820800Y-90853400D02*
X102054400Y-90853400D01*
X80711400Y-95469200D02*
X82403000Y-97160800D01*
X82403000Y-97160800D02*
X82631638Y-97160800D01*
X82347200Y-89236000D02*
X81219400Y-90363800D01*
X93943900Y-91492200D02*
X93943900Y-92103827D01*
X87594800Y-91329000D02*
X85501800Y-89236000D01*
X104895800Y-91928400D02*
X103820800Y-90853400D01*
X101945800Y-90744800D02*
X101793400Y-90744800D01*
X80711400Y-94986600D02*
X80711400Y-95469200D01*
X101793400Y-90592400D02*
X101818800Y-90617800D01*
X113508600Y-108392000D02*
X116232500Y-108392000D01*
X82644874Y-104603000D02*
X83090300Y-104603000D01*
X83079100Y-89236000D02*
X82347200Y-89236000D01*
X93943900Y-92103827D02*
X94224200Y-92384127D01*
X83079100Y-97160800D02*
X81813800Y-97160800D01*
%TO.N,/D2*%
X86285900Y-94187300D02*
X88981000Y-91492200D01*
X83506273Y-110449400D02*
X86285900Y-107669773D01*
X86285900Y-107669773D02*
X86285900Y-94187300D01*
X88981000Y-91492200D02*
X90743900Y-91492200D01*
X79427900Y-110449400D02*
X83506273Y-110449400D01*
X76684700Y-113192600D02*
X79427900Y-110449400D01*
%TO.N,/D3*%
X79224700Y-113192600D02*
X81517900Y-110899400D01*
X81517900Y-110899400D02*
X83692669Y-110899400D01*
X88353700Y-92862200D02*
X89373900Y-92862200D01*
X87098700Y-94117200D02*
X88353700Y-92862200D01*
X87098700Y-107493369D02*
X87098700Y-94117200D01*
X83692669Y-110899400D02*
X87098700Y-107493369D01*
%TO.N,/D4*%
X81764700Y-113192600D02*
X82939700Y-112017600D01*
X88656123Y-93662200D02*
X89373900Y-93662200D01*
X82939700Y-112017600D02*
X83210865Y-112017600D01*
X83210865Y-112017600D02*
X87759100Y-107469365D01*
X87759100Y-94559223D02*
X88656123Y-93662200D01*
X87759100Y-107469365D02*
X87759100Y-94559223D01*
%TO.N,/D5*%
X85168300Y-112329000D02*
X85168300Y-110779600D01*
X85168300Y-110779600D02*
X88292500Y-107655400D01*
X90730900Y-99832200D02*
X90743900Y-99832200D01*
X88292500Y-107655400D02*
X88292500Y-102270600D01*
X84304700Y-113192600D02*
X85168300Y-112329000D01*
X88292500Y-102270600D02*
X90730900Y-99832200D01*
%TO.N,/D6*%
X91543900Y-102016400D02*
X91543900Y-99832200D01*
X88758100Y-111279200D02*
X88758100Y-104802200D01*
X88758100Y-104802200D02*
X91543900Y-102016400D01*
X86844700Y-113192600D02*
X88758100Y-111279200D01*
%TO.N,/D7*%
X92908100Y-109669200D02*
X92908100Y-105160800D01*
X89384700Y-113192600D02*
X92908100Y-109669200D01*
X92343900Y-104596600D02*
X92343900Y-99832200D01*
X92908100Y-105160800D02*
X92343900Y-104596600D01*
%TO.N,/D8*%
X93143900Y-104760204D02*
X93143900Y-99832200D01*
X91924700Y-113192600D02*
X93358100Y-111759200D01*
X93358100Y-111759200D02*
X93358100Y-104974404D01*
X93358100Y-104974404D02*
X93143900Y-104760204D01*
%TO.N,/RX*%
X104298383Y-94408200D02*
X102451900Y-94408200D01*
X98350900Y-90307200D02*
X92917273Y-90307200D01*
X92343900Y-90880573D02*
X92343900Y-91492200D01*
X92917273Y-90307200D02*
X92343900Y-90880573D01*
X106746400Y-111123300D02*
X106746400Y-96856217D01*
X108790300Y-113167200D02*
X106746400Y-111123300D01*
X106746400Y-96856217D02*
X104298383Y-94408200D01*
X102451900Y-94408200D02*
X98350900Y-90307200D01*
%TO.N,/TX*%
X107254400Y-96358200D02*
X104790600Y-93894400D01*
X104790600Y-93894400D02*
X102827100Y-93894400D01*
X111330300Y-113167200D02*
X107254400Y-109091300D01*
X91543900Y-90880573D02*
X91543900Y-91492200D01*
X98789900Y-89857200D02*
X92567273Y-89857200D01*
X102827100Y-93894400D02*
X98789900Y-89857200D01*
X92567273Y-89857200D02*
X91543900Y-90880573D01*
X107254400Y-109091300D02*
X107254400Y-96358200D01*
%TO.N,/MISO*%
X112633199Y-94099000D02*
X110752121Y-94099000D01*
X110169321Y-94681800D02*
X108295800Y-94681800D01*
X97822900Y-101311200D02*
X96343900Y-99832200D01*
X98008800Y-101311200D02*
X97822900Y-101311200D01*
X113844900Y-92009000D02*
X113844900Y-92887299D01*
X110752121Y-94099000D02*
X110169321Y-94681800D01*
X113844900Y-92887299D02*
X112633199Y-94099000D01*
%TO.N,/MOSI*%
X116384900Y-94549000D02*
X115019900Y-95914000D01*
X95543900Y-101487900D02*
X95543900Y-99832200D01*
X110598601Y-101997000D02*
X108143400Y-101997000D01*
X115019900Y-97575701D02*
X110598601Y-101997000D01*
X115019900Y-95914000D02*
X115019900Y-97575701D01*
X95900600Y-101844600D02*
X95543900Y-101487900D01*
%TO.N,/RST*%
X111267600Y-100498400D02*
X113844900Y-97921100D01*
X110175400Y-100498400D02*
X111267600Y-100498400D01*
X93093100Y-93533000D02*
X93093100Y-91543000D01*
X113844900Y-97921100D02*
X113844900Y-97089000D01*
X93093100Y-91543000D02*
X93143900Y-91492200D01*
X103070800Y-95163100D02*
X103100700Y-95133200D01*
X103850800Y-97382000D02*
X103070800Y-96602000D01*
X103850800Y-98161600D02*
X103850800Y-97382000D01*
X103070800Y-96602000D02*
X103070800Y-95163100D01*
%TO.N,Net-(U2-~{INTA})*%
X79228000Y-104603000D02*
X78140300Y-104603000D01*
X79165600Y-109098800D02*
X80660600Y-107603800D01*
X80660600Y-106035600D02*
X79228000Y-104603000D01*
X80660600Y-107603800D02*
X80660600Y-106035600D01*
%TO.N,Net-(U2-SQW{slash}~INT)*%
X83952400Y-103333000D02*
X83090300Y-103333000D01*
X85334200Y-107095800D02*
X85334200Y-104714800D01*
X85334200Y-104714800D02*
X83952400Y-103333000D01*
X83483600Y-108946400D02*
X85334200Y-107095800D01*
%TO.N,Net-(U2-X1)*%
X77891100Y-102312200D02*
X72773100Y-102312200D01*
X78140300Y-102063000D02*
X77891100Y-102312200D01*
%TO.N,Net-(U2-X2)*%
X78140300Y-103333000D02*
X77694874Y-103333000D01*
X77694874Y-103333000D02*
X73515674Y-107512200D01*
X73515674Y-107512200D02*
X72773100Y-107512200D01*
%TO.N,/SCK*%
X105959000Y-101272000D02*
X104895800Y-100208800D01*
X109594400Y-95893117D02*
X109594400Y-98285400D01*
X104872695Y-100208800D02*
X103126095Y-98462200D01*
X110938517Y-94549000D02*
X109594400Y-95893117D01*
X105959000Y-101590600D02*
X105959000Y-101272000D01*
X103126095Y-98462200D02*
X97713900Y-98462200D01*
X109594400Y-98285400D02*
X108270400Y-99609400D01*
X104895800Y-100208800D02*
X104872695Y-100208800D01*
X113844900Y-94549000D02*
X110938517Y-94549000D01*
%TD*%
M02*
