%TF.GenerationSoftware,KiCad,Pcbnew,7.0.5*%
%TF.CreationDate,2024-03-10T11:39:14+05:30*%
%TF.ProjectId,mcu datalogger,6d637520-6461-4746-916c-6f676765722e,1*%
%TF.SameCoordinates,Original*%
%TF.FileFunction,Paste,Top*%
%TF.FilePolarity,Positive*%
%FSLAX46Y46*%
G04 Gerber Fmt 4.6, Leading zero omitted, Abs format (unit mm)*
G04 Created by KiCad (PCBNEW 7.0.5) date 2024-03-10 11:39:14*
%MOMM*%
%LPD*%
G01*
G04 APERTURE LIST*
G04 Aperture macros list*
%AMRoundRect*
0 Rectangle with rounded corners*
0 $1 Rounding radius*
0 $2 $3 $4 $5 $6 $7 $8 $9 X,Y pos of 4 corners*
0 Add a 4 corners polygon primitive as box body*
4,1,4,$2,$3,$4,$5,$6,$7,$8,$9,$2,$3,0*
0 Add four circle primitives for the rounded corners*
1,1,$1+$1,$2,$3*
1,1,$1+$1,$4,$5*
1,1,$1+$1,$6,$7*
1,1,$1+$1,$8,$9*
0 Add four rect primitives between the rounded corners*
20,1,$1+$1,$2,$3,$4,$5,0*
20,1,$1+$1,$4,$5,$6,$7,0*
20,1,$1+$1,$6,$7,$8,$9,0*
20,1,$1+$1,$8,$9,$2,$3,0*%
G04 Aperture macros list end*
%ADD10RoundRect,0.250000X-0.262500X-0.450000X0.262500X-0.450000X0.262500X0.450000X-0.262500X0.450000X0*%
%ADD11RoundRect,0.150000X-0.825000X-0.150000X0.825000X-0.150000X0.825000X0.150000X-0.825000X0.150000X0*%
%ADD12R,3.500000X2.400000*%
%ADD13RoundRect,0.038500X-0.696500X-0.236500X0.696500X-0.236500X0.696500X0.236500X-0.696500X0.236500X0*%
%ADD14RoundRect,0.099000X-0.176000X-0.636000X0.176000X-0.636000X0.176000X0.636000X-0.176000X0.636000X0*%
%ADD15RoundRect,0.250000X-0.250000X-0.475000X0.250000X-0.475000X0.250000X0.475000X-0.250000X0.475000X0*%
%ADD16RoundRect,0.041300X-0.943700X-0.253700X0.943700X-0.253700X0.943700X0.253700X-0.943700X0.253700X0*%
%ADD17R,2.400000X3.500000*%
%ADD18RoundRect,0.243750X-0.243750X-0.456250X0.243750X-0.456250X0.243750X0.456250X-0.243750X0.456250X0*%
G04 APERTURE END LIST*
D10*
%TO.C,R3*%
X77340600Y-109098800D03*
X79165600Y-109098800D03*
%TD*%
D11*
%TO.C,U3*%
X78129100Y-86696000D03*
X78129100Y-87966000D03*
X78129100Y-89236000D03*
X78129100Y-90506000D03*
X83079100Y-90506000D03*
X83079100Y-89236000D03*
X83079100Y-87966000D03*
X83079100Y-86696000D03*
%TD*%
D12*
%TO.C,Y2*%
X90833100Y-106685800D03*
X96033100Y-106685800D03*
%TD*%
D10*
%TO.C,R4*%
X81658600Y-108946400D03*
X83483600Y-108946400D03*
%TD*%
D13*
%TO.C,U4*%
X89373900Y-92862200D03*
X89373900Y-93662200D03*
X89373900Y-94462200D03*
X89373900Y-95262200D03*
X89373900Y-96062200D03*
X89373900Y-96862200D03*
X89373900Y-97662200D03*
X89373900Y-98462200D03*
D14*
X90743900Y-99832200D03*
X91543900Y-99832200D03*
X92343900Y-99832200D03*
X93143900Y-99832200D03*
X93943900Y-99832200D03*
X94743900Y-99832200D03*
X95543900Y-99832200D03*
X96343900Y-99832200D03*
D13*
X97713900Y-98462200D03*
X97713900Y-97662200D03*
X97713900Y-96862200D03*
X97713900Y-96062200D03*
X97713900Y-95262200D03*
X97713900Y-94462200D03*
X97713900Y-93662200D03*
X97713900Y-92862200D03*
D14*
X96343900Y-91492200D03*
X95543900Y-91492200D03*
X94743900Y-91492200D03*
X93943900Y-91492200D03*
X93143900Y-91492200D03*
X92343900Y-91492200D03*
X91543900Y-91492200D03*
X90743900Y-91492200D03*
%TD*%
D15*
%TO.C,C3*%
X103033300Y-108032000D03*
X104933300Y-108032000D03*
%TD*%
D16*
%TO.C,U2*%
X78140300Y-102063000D03*
X78140300Y-103333000D03*
X78140300Y-104603000D03*
X78140300Y-105873000D03*
X83090300Y-105873000D03*
X83090300Y-104603000D03*
X83090300Y-103333000D03*
X83090300Y-102063000D03*
%TD*%
D10*
%TO.C,R7*%
X108656900Y-96602000D03*
X110481900Y-96602000D03*
%TD*%
D15*
%TO.C,C1*%
X96581700Y-87000800D03*
X98481700Y-87000800D03*
%TD*%
D10*
%TO.C,R1*%
X103070800Y-91928400D03*
X104895800Y-91928400D03*
%TD*%
D15*
%TO.C,C4*%
X92136700Y-87051600D03*
X94036700Y-87051600D03*
%TD*%
D17*
%TO.C,Y1*%
X72773100Y-107512200D03*
X72773100Y-102312200D03*
%TD*%
D10*
%TO.C,R2*%
X108656900Y-91852200D03*
X110481900Y-91852200D03*
%TD*%
D18*
%TO.C,D1*%
X108651900Y-87356400D03*
X110526900Y-87356400D03*
%TD*%
D10*
%TO.C,R6*%
X103070800Y-96602000D03*
X104895800Y-96602000D03*
%TD*%
D15*
%TO.C,C2*%
X103033300Y-103866400D03*
X104933300Y-103866400D03*
%TD*%
D11*
%TO.C,U1*%
X78129100Y-94620800D03*
X78129100Y-95890800D03*
X78129100Y-97160800D03*
X78129100Y-98430800D03*
X83079100Y-98430800D03*
X83079100Y-97160800D03*
X83079100Y-95890800D03*
X83079100Y-94620800D03*
%TD*%
D18*
%TO.C,D2*%
X103065800Y-87356400D03*
X104940800Y-87356400D03*
%TD*%
D10*
%TO.C,R5*%
X103070800Y-100208800D03*
X104895800Y-100208800D03*
%TD*%
D15*
%TO.C,C5*%
X87539300Y-87000800D03*
X89439300Y-87000800D03*
%TD*%
M02*
