%TF.GenerationSoftware,KiCad,Pcbnew,7.0.5*%
%TF.CreationDate,2024-03-10T11:39:14+05:30*%
%TF.ProjectId,mcu datalogger,6d637520-6461-4746-916c-6f676765722e,1*%
%TF.SameCoordinates,Original*%
%TF.FileFunction,Legend,Top*%
%TF.FilePolarity,Positive*%
%FSLAX46Y46*%
G04 Gerber Fmt 4.6, Leading zero omitted, Abs format (unit mm)*
G04 Created by KiCad (PCBNEW 7.0.5) date 2024-03-10 11:39:14*
%MOMM*%
%LPD*%
G01*
G04 APERTURE LIST*
%ADD10C,0.150000*%
%ADD11C,0.100000*%
%ADD12C,0.120000*%
%ADD13C,0.127000*%
%ADD14C,0.200000*%
G04 APERTURE END LIST*
D10*
X107012300Y-102524600D02*
X113006700Y-102524600D01*
X113006700Y-106207600D01*
X107012300Y-106207600D01*
X107012300Y-102524600D01*
X84454117Y-110623161D02*
X84454117Y-111156495D01*
X84263641Y-110318400D02*
X84073164Y-110889828D01*
X84073164Y-110889828D02*
X84568403Y-110889828D01*
X105459974Y-110407295D02*
X105726641Y-111207295D01*
X105726641Y-111207295D02*
X105993307Y-110407295D01*
X106602831Y-111169200D02*
X106526640Y-111207295D01*
X106526640Y-111207295D02*
X106374259Y-111207295D01*
X106374259Y-111207295D02*
X106298069Y-111169200D01*
X106298069Y-111169200D02*
X106259974Y-111131104D01*
X106259974Y-111131104D02*
X106221878Y-111054914D01*
X106221878Y-111054914D02*
X106221878Y-110826342D01*
X106221878Y-110826342D02*
X106259974Y-110750152D01*
X106259974Y-110750152D02*
X106298069Y-110712057D01*
X106298069Y-110712057D02*
X106374259Y-110673961D01*
X106374259Y-110673961D02*
X106526640Y-110673961D01*
X106526640Y-110673961D02*
X106602831Y-110712057D01*
X107288545Y-111169200D02*
X107212354Y-111207295D01*
X107212354Y-111207295D02*
X107059973Y-111207295D01*
X107059973Y-111207295D02*
X106983783Y-111169200D01*
X106983783Y-111169200D02*
X106945688Y-111131104D01*
X106945688Y-111131104D02*
X106907592Y-111054914D01*
X106907592Y-111054914D02*
X106907592Y-110826342D01*
X106907592Y-110826342D02*
X106945688Y-110750152D01*
X106945688Y-110750152D02*
X106983783Y-110712057D01*
X106983783Y-110712057D02*
X107059973Y-110673961D01*
X107059973Y-110673961D02*
X107212354Y-110673961D01*
X107212354Y-110673961D02*
X107288545Y-110712057D01*
X75093195Y-94450325D02*
X75893195Y-94183658D01*
X75893195Y-94183658D02*
X75093195Y-93916992D01*
X75855100Y-93307468D02*
X75893195Y-93383659D01*
X75893195Y-93383659D02*
X75893195Y-93536040D01*
X75893195Y-93536040D02*
X75855100Y-93612230D01*
X75855100Y-93612230D02*
X75817004Y-93650325D01*
X75817004Y-93650325D02*
X75740814Y-93688421D01*
X75740814Y-93688421D02*
X75512242Y-93688421D01*
X75512242Y-93688421D02*
X75436052Y-93650325D01*
X75436052Y-93650325D02*
X75397957Y-93612230D01*
X75397957Y-93612230D02*
X75359861Y-93536040D01*
X75359861Y-93536040D02*
X75359861Y-93383659D01*
X75359861Y-93383659D02*
X75397957Y-93307468D01*
X75855100Y-92621754D02*
X75893195Y-92697945D01*
X75893195Y-92697945D02*
X75893195Y-92850326D01*
X75893195Y-92850326D02*
X75855100Y-92926516D01*
X75855100Y-92926516D02*
X75817004Y-92964611D01*
X75817004Y-92964611D02*
X75740814Y-93002707D01*
X75740814Y-93002707D02*
X75512242Y-93002707D01*
X75512242Y-93002707D02*
X75436052Y-92964611D01*
X75436052Y-92964611D02*
X75397957Y-92926516D01*
X75397957Y-92926516D02*
X75359861Y-92850326D01*
X75359861Y-92850326D02*
X75359861Y-92697945D01*
X75359861Y-92697945D02*
X75397957Y-92621754D01*
X108495203Y-111232695D02*
X108228536Y-110851742D01*
X108038060Y-111232695D02*
X108038060Y-110432695D01*
X108038060Y-110432695D02*
X108342822Y-110432695D01*
X108342822Y-110432695D02*
X108419012Y-110470790D01*
X108419012Y-110470790D02*
X108457107Y-110508885D01*
X108457107Y-110508885D02*
X108495203Y-110585076D01*
X108495203Y-110585076D02*
X108495203Y-110699361D01*
X108495203Y-110699361D02*
X108457107Y-110775552D01*
X108457107Y-110775552D02*
X108419012Y-110813647D01*
X108419012Y-110813647D02*
X108342822Y-110851742D01*
X108342822Y-110851742D02*
X108038060Y-110851742D01*
X108761869Y-110432695D02*
X109295203Y-111232695D01*
X109295203Y-110432695D02*
X108761869Y-111232695D01*
X96138174Y-110305695D02*
X96404841Y-111105695D01*
X96404841Y-111105695D02*
X96671507Y-110305695D01*
X97281031Y-111067600D02*
X97204840Y-111105695D01*
X97204840Y-111105695D02*
X97052459Y-111105695D01*
X97052459Y-111105695D02*
X96976269Y-111067600D01*
X96976269Y-111067600D02*
X96938174Y-111029504D01*
X96938174Y-111029504D02*
X96900078Y-110953314D01*
X96900078Y-110953314D02*
X96900078Y-110724742D01*
X96900078Y-110724742D02*
X96938174Y-110648552D01*
X96938174Y-110648552D02*
X96976269Y-110610457D01*
X96976269Y-110610457D02*
X97052459Y-110572361D01*
X97052459Y-110572361D02*
X97204840Y-110572361D01*
X97204840Y-110572361D02*
X97281031Y-110610457D01*
X97966745Y-111067600D02*
X97890554Y-111105695D01*
X97890554Y-111105695D02*
X97738173Y-111105695D01*
X97738173Y-111105695D02*
X97661983Y-111067600D01*
X97661983Y-111067600D02*
X97623888Y-111029504D01*
X97623888Y-111029504D02*
X97585792Y-110953314D01*
X97585792Y-110953314D02*
X97585792Y-110724742D01*
X97585792Y-110724742D02*
X97623888Y-110648552D01*
X97623888Y-110648552D02*
X97661983Y-110610457D01*
X97661983Y-110610457D02*
X97738173Y-110572361D01*
X97738173Y-110572361D02*
X97890554Y-110572361D01*
X97890554Y-110572361D02*
X97966745Y-110610457D01*
X91655069Y-110381895D02*
X92188403Y-110381895D01*
X92188403Y-110381895D02*
X91845545Y-111181895D01*
X89534117Y-110432695D02*
X89381736Y-110432695D01*
X89381736Y-110432695D02*
X89305545Y-110470790D01*
X89305545Y-110470790D02*
X89267450Y-110508885D01*
X89267450Y-110508885D02*
X89191260Y-110623171D01*
X89191260Y-110623171D02*
X89153164Y-110775552D01*
X89153164Y-110775552D02*
X89153164Y-111080314D01*
X89153164Y-111080314D02*
X89191260Y-111156504D01*
X89191260Y-111156504D02*
X89229355Y-111194600D01*
X89229355Y-111194600D02*
X89305545Y-111232695D01*
X89305545Y-111232695D02*
X89457926Y-111232695D01*
X89457926Y-111232695D02*
X89534117Y-111194600D01*
X89534117Y-111194600D02*
X89572212Y-111156504D01*
X89572212Y-111156504D02*
X89610307Y-111080314D01*
X89610307Y-111080314D02*
X89610307Y-110889838D01*
X89610307Y-110889838D02*
X89572212Y-110813647D01*
X89572212Y-110813647D02*
X89534117Y-110775552D01*
X89534117Y-110775552D02*
X89457926Y-110737457D01*
X89457926Y-110737457D02*
X89305545Y-110737457D01*
X89305545Y-110737457D02*
X89229355Y-110775552D01*
X89229355Y-110775552D02*
X89191260Y-110813647D01*
X89191260Y-110813647D02*
X89153164Y-110889838D01*
X110514574Y-110381895D02*
X110971717Y-110381895D01*
X110743145Y-111181895D02*
X110743145Y-110381895D01*
X111162193Y-110381895D02*
X111695527Y-111181895D01*
X111695527Y-110381895D02*
X111162193Y-111181895D01*
X113358290Y-100952792D02*
X113320195Y-101028982D01*
X113320195Y-101028982D02*
X113320195Y-101143268D01*
X113320195Y-101143268D02*
X113358290Y-101257554D01*
X113358290Y-101257554D02*
X113434480Y-101333744D01*
X113434480Y-101333744D02*
X113510671Y-101371839D01*
X113510671Y-101371839D02*
X113663052Y-101409935D01*
X113663052Y-101409935D02*
X113777338Y-101409935D01*
X113777338Y-101409935D02*
X113929719Y-101371839D01*
X113929719Y-101371839D02*
X114005909Y-101333744D01*
X114005909Y-101333744D02*
X114082100Y-101257554D01*
X114082100Y-101257554D02*
X114120195Y-101143268D01*
X114120195Y-101143268D02*
X114120195Y-101067077D01*
X114120195Y-101067077D02*
X114082100Y-100952792D01*
X114082100Y-100952792D02*
X114044004Y-100914696D01*
X114044004Y-100914696D02*
X113777338Y-100914696D01*
X113777338Y-100914696D02*
X113777338Y-101067077D01*
X114120195Y-100571839D02*
X113320195Y-100571839D01*
X113320195Y-100571839D02*
X114120195Y-100114696D01*
X114120195Y-100114696D02*
X113320195Y-100114696D01*
X114120195Y-99733744D02*
X113320195Y-99733744D01*
X113320195Y-99733744D02*
X113320195Y-99543268D01*
X113320195Y-99543268D02*
X113358290Y-99428982D01*
X113358290Y-99428982D02*
X113434480Y-99352792D01*
X113434480Y-99352792D02*
X113510671Y-99314697D01*
X113510671Y-99314697D02*
X113663052Y-99276601D01*
X113663052Y-99276601D02*
X113777338Y-99276601D01*
X113777338Y-99276601D02*
X113929719Y-99314697D01*
X113929719Y-99314697D02*
X114005909Y-99352792D01*
X114005909Y-99352792D02*
X114082100Y-99428982D01*
X114082100Y-99428982D02*
X114120195Y-99543268D01*
X114120195Y-99543268D02*
X114120195Y-99733744D01*
D11*
X115677555Y-111032095D02*
X115677555Y-110232095D01*
X115977555Y-110308285D02*
X116010888Y-110270190D01*
X116010888Y-110270190D02*
X116077555Y-110232095D01*
X116077555Y-110232095D02*
X116244222Y-110232095D01*
X116244222Y-110232095D02*
X116310888Y-110270190D01*
X116310888Y-110270190D02*
X116344222Y-110308285D01*
X116344222Y-110308285D02*
X116377555Y-110384476D01*
X116377555Y-110384476D02*
X116377555Y-110460666D01*
X116377555Y-110460666D02*
X116344222Y-110574952D01*
X116344222Y-110574952D02*
X115944222Y-111032095D01*
X115944222Y-111032095D02*
X116377555Y-111032095D01*
X117077555Y-110955904D02*
X117044222Y-110994000D01*
X117044222Y-110994000D02*
X116944222Y-111032095D01*
X116944222Y-111032095D02*
X116877555Y-111032095D01*
X116877555Y-111032095D02*
X116777555Y-110994000D01*
X116777555Y-110994000D02*
X116710889Y-110917809D01*
X116710889Y-110917809D02*
X116677555Y-110841619D01*
X116677555Y-110841619D02*
X116644222Y-110689238D01*
X116644222Y-110689238D02*
X116644222Y-110574952D01*
X116644222Y-110574952D02*
X116677555Y-110422571D01*
X116677555Y-110422571D02*
X116710889Y-110346380D01*
X116710889Y-110346380D02*
X116777555Y-110270190D01*
X116777555Y-110270190D02*
X116877555Y-110232095D01*
X116877555Y-110232095D02*
X116944222Y-110232095D01*
X116944222Y-110232095D02*
X117044222Y-110270190D01*
X117044222Y-110270190D02*
X117077555Y-110308285D01*
D10*
X114107500Y-109461735D02*
X114145595Y-109347449D01*
X114145595Y-109347449D02*
X114145595Y-109156973D01*
X114145595Y-109156973D02*
X114107500Y-109080782D01*
X114107500Y-109080782D02*
X114069404Y-109042687D01*
X114069404Y-109042687D02*
X113993214Y-109004592D01*
X113993214Y-109004592D02*
X113917023Y-109004592D01*
X113917023Y-109004592D02*
X113840833Y-109042687D01*
X113840833Y-109042687D02*
X113802738Y-109080782D01*
X113802738Y-109080782D02*
X113764642Y-109156973D01*
X113764642Y-109156973D02*
X113726547Y-109309354D01*
X113726547Y-109309354D02*
X113688452Y-109385544D01*
X113688452Y-109385544D02*
X113650357Y-109423639D01*
X113650357Y-109423639D02*
X113574166Y-109461735D01*
X113574166Y-109461735D02*
X113497976Y-109461735D01*
X113497976Y-109461735D02*
X113421785Y-109423639D01*
X113421785Y-109423639D02*
X113383690Y-109385544D01*
X113383690Y-109385544D02*
X113345595Y-109309354D01*
X113345595Y-109309354D02*
X113345595Y-109118877D01*
X113345595Y-109118877D02*
X113383690Y-109004592D01*
X114069404Y-108204591D02*
X114107500Y-108242687D01*
X114107500Y-108242687D02*
X114145595Y-108356972D01*
X114145595Y-108356972D02*
X114145595Y-108433163D01*
X114145595Y-108433163D02*
X114107500Y-108547449D01*
X114107500Y-108547449D02*
X114031309Y-108623639D01*
X114031309Y-108623639D02*
X113955119Y-108661734D01*
X113955119Y-108661734D02*
X113802738Y-108699830D01*
X113802738Y-108699830D02*
X113688452Y-108699830D01*
X113688452Y-108699830D02*
X113536071Y-108661734D01*
X113536071Y-108661734D02*
X113459880Y-108623639D01*
X113459880Y-108623639D02*
X113383690Y-108547449D01*
X113383690Y-108547449D02*
X113345595Y-108433163D01*
X113345595Y-108433163D02*
X113345595Y-108356972D01*
X113345595Y-108356972D02*
X113383690Y-108242687D01*
X113383690Y-108242687D02*
X113421785Y-108204591D01*
X114145595Y-107480782D02*
X114145595Y-107861734D01*
X114145595Y-107861734D02*
X113345595Y-107861734D01*
X103046907Y-110445390D02*
X102970717Y-110407295D01*
X102970717Y-110407295D02*
X102856431Y-110407295D01*
X102856431Y-110407295D02*
X102742145Y-110445390D01*
X102742145Y-110445390D02*
X102665955Y-110521580D01*
X102665955Y-110521580D02*
X102627860Y-110597771D01*
X102627860Y-110597771D02*
X102589764Y-110750152D01*
X102589764Y-110750152D02*
X102589764Y-110864438D01*
X102589764Y-110864438D02*
X102627860Y-111016819D01*
X102627860Y-111016819D02*
X102665955Y-111093009D01*
X102665955Y-111093009D02*
X102742145Y-111169200D01*
X102742145Y-111169200D02*
X102856431Y-111207295D01*
X102856431Y-111207295D02*
X102932622Y-111207295D01*
X102932622Y-111207295D02*
X103046907Y-111169200D01*
X103046907Y-111169200D02*
X103085003Y-111131104D01*
X103085003Y-111131104D02*
X103085003Y-110864438D01*
X103085003Y-110864438D02*
X102932622Y-110864438D01*
X103427860Y-111207295D02*
X103427860Y-110407295D01*
X103427860Y-110407295D02*
X103885003Y-111207295D01*
X103885003Y-111207295D02*
X103885003Y-110407295D01*
X104265955Y-111207295D02*
X104265955Y-110407295D01*
X104265955Y-110407295D02*
X104456431Y-110407295D01*
X104456431Y-110407295D02*
X104570717Y-110445390D01*
X104570717Y-110445390D02*
X104646907Y-110521580D01*
X104646907Y-110521580D02*
X104685002Y-110597771D01*
X104685002Y-110597771D02*
X104723098Y-110750152D01*
X104723098Y-110750152D02*
X104723098Y-110864438D01*
X104723098Y-110864438D02*
X104685002Y-111016819D01*
X104685002Y-111016819D02*
X104646907Y-111093009D01*
X104646907Y-111093009D02*
X104570717Y-111169200D01*
X104570717Y-111169200D02*
X104456431Y-111207295D01*
X104456431Y-111207295D02*
X104265955Y-111207295D01*
X81469669Y-110356495D02*
X81964907Y-110356495D01*
X81964907Y-110356495D02*
X81698241Y-110661257D01*
X81698241Y-110661257D02*
X81812526Y-110661257D01*
X81812526Y-110661257D02*
X81888717Y-110699352D01*
X81888717Y-110699352D02*
X81926812Y-110737447D01*
X81926812Y-110737447D02*
X81964907Y-110813638D01*
X81964907Y-110813638D02*
X81964907Y-111004114D01*
X81964907Y-111004114D02*
X81926812Y-111080304D01*
X81926812Y-111080304D02*
X81888717Y-111118400D01*
X81888717Y-111118400D02*
X81812526Y-111156495D01*
X81812526Y-111156495D02*
X81583955Y-111156495D01*
X81583955Y-111156495D02*
X81507764Y-111118400D01*
X81507764Y-111118400D02*
X81469669Y-111080304D01*
D11*
X98984490Y-113711077D02*
X98946395Y-113777744D01*
X98946395Y-113777744D02*
X98946395Y-113877744D01*
X98946395Y-113877744D02*
X98984490Y-113977744D01*
X98984490Y-113977744D02*
X99060680Y-114044411D01*
X99060680Y-114044411D02*
X99136871Y-114077744D01*
X99136871Y-114077744D02*
X99289252Y-114111077D01*
X99289252Y-114111077D02*
X99403538Y-114111077D01*
X99403538Y-114111077D02*
X99555919Y-114077744D01*
X99555919Y-114077744D02*
X99632109Y-114044411D01*
X99632109Y-114044411D02*
X99708300Y-113977744D01*
X99708300Y-113977744D02*
X99746395Y-113877744D01*
X99746395Y-113877744D02*
X99746395Y-113811077D01*
X99746395Y-113811077D02*
X99708300Y-113711077D01*
X99708300Y-113711077D02*
X99670204Y-113677744D01*
X99670204Y-113677744D02*
X99403538Y-113677744D01*
X99403538Y-113677744D02*
X99403538Y-113811077D01*
X99746395Y-113377744D02*
X98946395Y-113377744D01*
X98946395Y-113377744D02*
X98946395Y-113111077D01*
X98946395Y-113111077D02*
X98984490Y-113044411D01*
X98984490Y-113044411D02*
X99022585Y-113011077D01*
X99022585Y-113011077D02*
X99098776Y-112977744D01*
X99098776Y-112977744D02*
X99213061Y-112977744D01*
X99213061Y-112977744D02*
X99289252Y-113011077D01*
X99289252Y-113011077D02*
X99327347Y-113044411D01*
X99327347Y-113044411D02*
X99365442Y-113111077D01*
X99365442Y-113111077D02*
X99365442Y-113377744D01*
X99746395Y-112677744D02*
X98946395Y-112677744D01*
X98946395Y-112211078D02*
X98946395Y-112077744D01*
X98946395Y-112077744D02*
X98984490Y-112011078D01*
X98984490Y-112011078D02*
X99060680Y-111944411D01*
X99060680Y-111944411D02*
X99213061Y-111911078D01*
X99213061Y-111911078D02*
X99479728Y-111911078D01*
X99479728Y-111911078D02*
X99632109Y-111944411D01*
X99632109Y-111944411D02*
X99708300Y-112011078D01*
X99708300Y-112011078D02*
X99746395Y-112077744D01*
X99746395Y-112077744D02*
X99746395Y-112211078D01*
X99746395Y-112211078D02*
X99708300Y-112277744D01*
X99708300Y-112277744D02*
X99632109Y-112344411D01*
X99632109Y-112344411D02*
X99479728Y-112377744D01*
X99479728Y-112377744D02*
X99213061Y-112377744D01*
X99213061Y-112377744D02*
X99060680Y-112344411D01*
X99060680Y-112344411D02*
X98984490Y-112277744D01*
X98984490Y-112277744D02*
X98946395Y-112211078D01*
D12*
X109192846Y-103344169D02*
X109192846Y-102844169D01*
X109716655Y-103296550D02*
X109692846Y-103320360D01*
X109692846Y-103320360D02*
X109621417Y-103344169D01*
X109621417Y-103344169D02*
X109573798Y-103344169D01*
X109573798Y-103344169D02*
X109502370Y-103320360D01*
X109502370Y-103320360D02*
X109454751Y-103272740D01*
X109454751Y-103272740D02*
X109430941Y-103225121D01*
X109430941Y-103225121D02*
X109407132Y-103129883D01*
X109407132Y-103129883D02*
X109407132Y-103058455D01*
X109407132Y-103058455D02*
X109430941Y-102963217D01*
X109430941Y-102963217D02*
X109454751Y-102915598D01*
X109454751Y-102915598D02*
X109502370Y-102867979D01*
X109502370Y-102867979D02*
X109573798Y-102844169D01*
X109573798Y-102844169D02*
X109621417Y-102844169D01*
X109621417Y-102844169D02*
X109692846Y-102867979D01*
X109692846Y-102867979D02*
X109716655Y-102891788D01*
X109907132Y-103320360D02*
X109978560Y-103344169D01*
X109978560Y-103344169D02*
X110097608Y-103344169D01*
X110097608Y-103344169D02*
X110145227Y-103320360D01*
X110145227Y-103320360D02*
X110169036Y-103296550D01*
X110169036Y-103296550D02*
X110192846Y-103248931D01*
X110192846Y-103248931D02*
X110192846Y-103201312D01*
X110192846Y-103201312D02*
X110169036Y-103153693D01*
X110169036Y-103153693D02*
X110145227Y-103129883D01*
X110145227Y-103129883D02*
X110097608Y-103106074D01*
X110097608Y-103106074D02*
X110002370Y-103082264D01*
X110002370Y-103082264D02*
X109954751Y-103058455D01*
X109954751Y-103058455D02*
X109930941Y-103034645D01*
X109930941Y-103034645D02*
X109907132Y-102987026D01*
X109907132Y-102987026D02*
X109907132Y-102939407D01*
X109907132Y-102939407D02*
X109930941Y-102891788D01*
X109930941Y-102891788D02*
X109954751Y-102867979D01*
X109954751Y-102867979D02*
X110002370Y-102844169D01*
X110002370Y-102844169D02*
X110121417Y-102844169D01*
X110121417Y-102844169D02*
X110192846Y-102867979D01*
X110407131Y-103344169D02*
X110407131Y-102844169D01*
X110407131Y-102844169D02*
X110597607Y-102844169D01*
X110597607Y-102844169D02*
X110645226Y-102867979D01*
X110645226Y-102867979D02*
X110669036Y-102891788D01*
X110669036Y-102891788D02*
X110692845Y-102939407D01*
X110692845Y-102939407D02*
X110692845Y-103010836D01*
X110692845Y-103010836D02*
X110669036Y-103058455D01*
X110669036Y-103058455D02*
X110645226Y-103082264D01*
X110645226Y-103082264D02*
X110597607Y-103106074D01*
X110597607Y-103106074D02*
X110407131Y-103106074D01*
X107311894Y-104149169D02*
X107311894Y-103649169D01*
X107311894Y-103649169D02*
X107478561Y-104006312D01*
X107478561Y-104006312D02*
X107645227Y-103649169D01*
X107645227Y-103649169D02*
X107645227Y-104149169D01*
X107883323Y-104149169D02*
X107883323Y-103649169D01*
X108097609Y-104125360D02*
X108169037Y-104149169D01*
X108169037Y-104149169D02*
X108288085Y-104149169D01*
X108288085Y-104149169D02*
X108335704Y-104125360D01*
X108335704Y-104125360D02*
X108359513Y-104101550D01*
X108359513Y-104101550D02*
X108383323Y-104053931D01*
X108383323Y-104053931D02*
X108383323Y-104006312D01*
X108383323Y-104006312D02*
X108359513Y-103958693D01*
X108359513Y-103958693D02*
X108335704Y-103934883D01*
X108335704Y-103934883D02*
X108288085Y-103911074D01*
X108288085Y-103911074D02*
X108192847Y-103887264D01*
X108192847Y-103887264D02*
X108145228Y-103863455D01*
X108145228Y-103863455D02*
X108121418Y-103839645D01*
X108121418Y-103839645D02*
X108097609Y-103792026D01*
X108097609Y-103792026D02*
X108097609Y-103744407D01*
X108097609Y-103744407D02*
X108121418Y-103696788D01*
X108121418Y-103696788D02*
X108145228Y-103672979D01*
X108145228Y-103672979D02*
X108192847Y-103649169D01*
X108192847Y-103649169D02*
X108311894Y-103649169D01*
X108311894Y-103649169D02*
X108383323Y-103672979D01*
X108692846Y-103649169D02*
X108788084Y-103649169D01*
X108788084Y-103649169D02*
X108835703Y-103672979D01*
X108835703Y-103672979D02*
X108883322Y-103720598D01*
X108883322Y-103720598D02*
X108907132Y-103815836D01*
X108907132Y-103815836D02*
X108907132Y-103982502D01*
X108907132Y-103982502D02*
X108883322Y-104077740D01*
X108883322Y-104077740D02*
X108835703Y-104125360D01*
X108835703Y-104125360D02*
X108788084Y-104149169D01*
X108788084Y-104149169D02*
X108692846Y-104149169D01*
X108692846Y-104149169D02*
X108645227Y-104125360D01*
X108645227Y-104125360D02*
X108597608Y-104077740D01*
X108597608Y-104077740D02*
X108573799Y-103982502D01*
X108573799Y-103982502D02*
X108573799Y-103815836D01*
X108573799Y-103815836D02*
X108597608Y-103720598D01*
X108597608Y-103720598D02*
X108645227Y-103672979D01*
X108645227Y-103672979D02*
X108692846Y-103649169D01*
X111121418Y-103649169D02*
X111288084Y-104149169D01*
X111288084Y-104149169D02*
X111454751Y-103649169D01*
X111835703Y-104125360D02*
X111788084Y-104149169D01*
X111788084Y-104149169D02*
X111692846Y-104149169D01*
X111692846Y-104149169D02*
X111645227Y-104125360D01*
X111645227Y-104125360D02*
X111621417Y-104101550D01*
X111621417Y-104101550D02*
X111597608Y-104053931D01*
X111597608Y-104053931D02*
X111597608Y-103911074D01*
X111597608Y-103911074D02*
X111621417Y-103863455D01*
X111621417Y-103863455D02*
X111645227Y-103839645D01*
X111645227Y-103839645D02*
X111692846Y-103815836D01*
X111692846Y-103815836D02*
X111788084Y-103815836D01*
X111788084Y-103815836D02*
X111835703Y-103839645D01*
X112264274Y-104125360D02*
X112216655Y-104149169D01*
X112216655Y-104149169D02*
X112121417Y-104149169D01*
X112121417Y-104149169D02*
X112073798Y-104125360D01*
X112073798Y-104125360D02*
X112049988Y-104101550D01*
X112049988Y-104101550D02*
X112026179Y-104053931D01*
X112026179Y-104053931D02*
X112026179Y-103911074D01*
X112026179Y-103911074D02*
X112049988Y-103863455D01*
X112049988Y-103863455D02*
X112073798Y-103839645D01*
X112073798Y-103839645D02*
X112121417Y-103815836D01*
X112121417Y-103815836D02*
X112216655Y-103815836D01*
X112216655Y-103815836D02*
X112264274Y-103839645D01*
X107288085Y-104930360D02*
X107359513Y-104954169D01*
X107359513Y-104954169D02*
X107478561Y-104954169D01*
X107478561Y-104954169D02*
X107526180Y-104930360D01*
X107526180Y-104930360D02*
X107549989Y-104906550D01*
X107549989Y-104906550D02*
X107573799Y-104858931D01*
X107573799Y-104858931D02*
X107573799Y-104811312D01*
X107573799Y-104811312D02*
X107549989Y-104763693D01*
X107549989Y-104763693D02*
X107526180Y-104739883D01*
X107526180Y-104739883D02*
X107478561Y-104716074D01*
X107478561Y-104716074D02*
X107383323Y-104692264D01*
X107383323Y-104692264D02*
X107335704Y-104668455D01*
X107335704Y-104668455D02*
X107311894Y-104644645D01*
X107311894Y-104644645D02*
X107288085Y-104597026D01*
X107288085Y-104597026D02*
X107288085Y-104549407D01*
X107288085Y-104549407D02*
X107311894Y-104501788D01*
X107311894Y-104501788D02*
X107335704Y-104477979D01*
X107335704Y-104477979D02*
X107383323Y-104454169D01*
X107383323Y-104454169D02*
X107502370Y-104454169D01*
X107502370Y-104454169D02*
X107573799Y-104477979D01*
X108073798Y-104906550D02*
X108049989Y-104930360D01*
X108049989Y-104930360D02*
X107978560Y-104954169D01*
X107978560Y-104954169D02*
X107930941Y-104954169D01*
X107930941Y-104954169D02*
X107859513Y-104930360D01*
X107859513Y-104930360D02*
X107811894Y-104882740D01*
X107811894Y-104882740D02*
X107788084Y-104835121D01*
X107788084Y-104835121D02*
X107764275Y-104739883D01*
X107764275Y-104739883D02*
X107764275Y-104668455D01*
X107764275Y-104668455D02*
X107788084Y-104573217D01*
X107788084Y-104573217D02*
X107811894Y-104525598D01*
X107811894Y-104525598D02*
X107859513Y-104477979D01*
X107859513Y-104477979D02*
X107930941Y-104454169D01*
X107930941Y-104454169D02*
X107978560Y-104454169D01*
X107978560Y-104454169D02*
X108049989Y-104477979D01*
X108049989Y-104477979D02*
X108073798Y-104501788D01*
X108526179Y-104954169D02*
X108288084Y-104954169D01*
X108288084Y-104954169D02*
X108288084Y-104454169D01*
X111192846Y-104954169D02*
X111192846Y-104454169D01*
X111192846Y-104454169D02*
X111359513Y-104811312D01*
X111359513Y-104811312D02*
X111526179Y-104454169D01*
X111526179Y-104454169D02*
X111526179Y-104954169D01*
X111859513Y-104454169D02*
X111954751Y-104454169D01*
X111954751Y-104454169D02*
X112002370Y-104477979D01*
X112002370Y-104477979D02*
X112049989Y-104525598D01*
X112049989Y-104525598D02*
X112073799Y-104620836D01*
X112073799Y-104620836D02*
X112073799Y-104787502D01*
X112073799Y-104787502D02*
X112049989Y-104882740D01*
X112049989Y-104882740D02*
X112002370Y-104930360D01*
X112002370Y-104930360D02*
X111954751Y-104954169D01*
X111954751Y-104954169D02*
X111859513Y-104954169D01*
X111859513Y-104954169D02*
X111811894Y-104930360D01*
X111811894Y-104930360D02*
X111764275Y-104882740D01*
X111764275Y-104882740D02*
X111740466Y-104787502D01*
X111740466Y-104787502D02*
X111740466Y-104620836D01*
X111740466Y-104620836D02*
X111764275Y-104525598D01*
X111764275Y-104525598D02*
X111811894Y-104477979D01*
X111811894Y-104477979D02*
X111859513Y-104454169D01*
X112264276Y-104930360D02*
X112335704Y-104954169D01*
X112335704Y-104954169D02*
X112454752Y-104954169D01*
X112454752Y-104954169D02*
X112502371Y-104930360D01*
X112502371Y-104930360D02*
X112526180Y-104906550D01*
X112526180Y-104906550D02*
X112549990Y-104858931D01*
X112549990Y-104858931D02*
X112549990Y-104811312D01*
X112549990Y-104811312D02*
X112526180Y-104763693D01*
X112526180Y-104763693D02*
X112502371Y-104739883D01*
X112502371Y-104739883D02*
X112454752Y-104716074D01*
X112454752Y-104716074D02*
X112359514Y-104692264D01*
X112359514Y-104692264D02*
X112311895Y-104668455D01*
X112311895Y-104668455D02*
X112288085Y-104644645D01*
X112288085Y-104644645D02*
X112264276Y-104597026D01*
X112264276Y-104597026D02*
X112264276Y-104549407D01*
X112264276Y-104549407D02*
X112288085Y-104501788D01*
X112288085Y-104501788D02*
X112311895Y-104477979D01*
X112311895Y-104477979D02*
X112359514Y-104454169D01*
X112359514Y-104454169D02*
X112478561Y-104454169D01*
X112478561Y-104454169D02*
X112549990Y-104477979D01*
X112764275Y-104954169D02*
X112764275Y-104454169D01*
X107597608Y-105759169D02*
X107430942Y-105521074D01*
X107311894Y-105759169D02*
X107311894Y-105259169D01*
X107311894Y-105259169D02*
X107502370Y-105259169D01*
X107502370Y-105259169D02*
X107549989Y-105282979D01*
X107549989Y-105282979D02*
X107573799Y-105306788D01*
X107573799Y-105306788D02*
X107597608Y-105354407D01*
X107597608Y-105354407D02*
X107597608Y-105425836D01*
X107597608Y-105425836D02*
X107573799Y-105473455D01*
X107573799Y-105473455D02*
X107549989Y-105497264D01*
X107549989Y-105497264D02*
X107502370Y-105521074D01*
X107502370Y-105521074D02*
X107311894Y-105521074D01*
X107788085Y-105735360D02*
X107859513Y-105759169D01*
X107859513Y-105759169D02*
X107978561Y-105759169D01*
X107978561Y-105759169D02*
X108026180Y-105735360D01*
X108026180Y-105735360D02*
X108049989Y-105711550D01*
X108049989Y-105711550D02*
X108073799Y-105663931D01*
X108073799Y-105663931D02*
X108073799Y-105616312D01*
X108073799Y-105616312D02*
X108049989Y-105568693D01*
X108049989Y-105568693D02*
X108026180Y-105544883D01*
X108026180Y-105544883D02*
X107978561Y-105521074D01*
X107978561Y-105521074D02*
X107883323Y-105497264D01*
X107883323Y-105497264D02*
X107835704Y-105473455D01*
X107835704Y-105473455D02*
X107811894Y-105449645D01*
X107811894Y-105449645D02*
X107788085Y-105402026D01*
X107788085Y-105402026D02*
X107788085Y-105354407D01*
X107788085Y-105354407D02*
X107811894Y-105306788D01*
X107811894Y-105306788D02*
X107835704Y-105282979D01*
X107835704Y-105282979D02*
X107883323Y-105259169D01*
X107883323Y-105259169D02*
X108002370Y-105259169D01*
X108002370Y-105259169D02*
X108073799Y-105282979D01*
X108216656Y-105259169D02*
X108502370Y-105259169D01*
X108359513Y-105759169D02*
X108359513Y-105259169D01*
X111454751Y-105282979D02*
X111407132Y-105259169D01*
X111407132Y-105259169D02*
X111335703Y-105259169D01*
X111335703Y-105259169D02*
X111264275Y-105282979D01*
X111264275Y-105282979D02*
X111216656Y-105330598D01*
X111216656Y-105330598D02*
X111192846Y-105378217D01*
X111192846Y-105378217D02*
X111169037Y-105473455D01*
X111169037Y-105473455D02*
X111169037Y-105544883D01*
X111169037Y-105544883D02*
X111192846Y-105640121D01*
X111192846Y-105640121D02*
X111216656Y-105687740D01*
X111216656Y-105687740D02*
X111264275Y-105735360D01*
X111264275Y-105735360D02*
X111335703Y-105759169D01*
X111335703Y-105759169D02*
X111383322Y-105759169D01*
X111383322Y-105759169D02*
X111454751Y-105735360D01*
X111454751Y-105735360D02*
X111478560Y-105711550D01*
X111478560Y-105711550D02*
X111478560Y-105544883D01*
X111478560Y-105544883D02*
X111383322Y-105544883D01*
X111692846Y-105759169D02*
X111692846Y-105259169D01*
X111692846Y-105259169D02*
X111978560Y-105759169D01*
X111978560Y-105759169D02*
X111978560Y-105259169D01*
X112216656Y-105759169D02*
X112216656Y-105259169D01*
X112216656Y-105259169D02*
X112335704Y-105259169D01*
X112335704Y-105259169D02*
X112407132Y-105282979D01*
X112407132Y-105282979D02*
X112454751Y-105330598D01*
X112454751Y-105330598D02*
X112478561Y-105378217D01*
X112478561Y-105378217D02*
X112502370Y-105473455D01*
X112502370Y-105473455D02*
X112502370Y-105544883D01*
X112502370Y-105544883D02*
X112478561Y-105640121D01*
X112478561Y-105640121D02*
X112454751Y-105687740D01*
X112454751Y-105687740D02*
X112407132Y-105735360D01*
X112407132Y-105735360D02*
X112335704Y-105759169D01*
X112335704Y-105759169D02*
X112216656Y-105759169D01*
D10*
X93852107Y-110369190D02*
X93775917Y-110331095D01*
X93775917Y-110331095D02*
X93661631Y-110331095D01*
X93661631Y-110331095D02*
X93547345Y-110369190D01*
X93547345Y-110369190D02*
X93471155Y-110445380D01*
X93471155Y-110445380D02*
X93433060Y-110521571D01*
X93433060Y-110521571D02*
X93394964Y-110673952D01*
X93394964Y-110673952D02*
X93394964Y-110788238D01*
X93394964Y-110788238D02*
X93433060Y-110940619D01*
X93433060Y-110940619D02*
X93471155Y-111016809D01*
X93471155Y-111016809D02*
X93547345Y-111093000D01*
X93547345Y-111093000D02*
X93661631Y-111131095D01*
X93661631Y-111131095D02*
X93737822Y-111131095D01*
X93737822Y-111131095D02*
X93852107Y-111093000D01*
X93852107Y-111093000D02*
X93890203Y-111054904D01*
X93890203Y-111054904D02*
X93890203Y-110788238D01*
X93890203Y-110788238D02*
X93737822Y-110788238D01*
X94233060Y-111131095D02*
X94233060Y-110331095D01*
X94233060Y-110331095D02*
X94690203Y-111131095D01*
X94690203Y-111131095D02*
X94690203Y-110331095D01*
X95071155Y-111131095D02*
X95071155Y-110331095D01*
X95071155Y-110331095D02*
X95261631Y-110331095D01*
X95261631Y-110331095D02*
X95375917Y-110369190D01*
X95375917Y-110369190D02*
X95452107Y-110445380D01*
X95452107Y-110445380D02*
X95490202Y-110521571D01*
X95490202Y-110521571D02*
X95528298Y-110673952D01*
X95528298Y-110673952D02*
X95528298Y-110788238D01*
X95528298Y-110788238D02*
X95490202Y-110940619D01*
X95490202Y-110940619D02*
X95452107Y-111016809D01*
X95452107Y-111016809D02*
X95375917Y-111093000D01*
X95375917Y-111093000D02*
X95261631Y-111131095D01*
X95261631Y-111131095D02*
X95071155Y-111131095D01*
D11*
X114305955Y-90000895D02*
X114305955Y-89200895D01*
X115039288Y-89924704D02*
X115005955Y-89962800D01*
X115005955Y-89962800D02*
X114905955Y-90000895D01*
X114905955Y-90000895D02*
X114839288Y-90000895D01*
X114839288Y-90000895D02*
X114739288Y-89962800D01*
X114739288Y-89962800D02*
X114672622Y-89886609D01*
X114672622Y-89886609D02*
X114639288Y-89810419D01*
X114639288Y-89810419D02*
X114605955Y-89658038D01*
X114605955Y-89658038D02*
X114605955Y-89543752D01*
X114605955Y-89543752D02*
X114639288Y-89391371D01*
X114639288Y-89391371D02*
X114672622Y-89315180D01*
X114672622Y-89315180D02*
X114739288Y-89238990D01*
X114739288Y-89238990D02*
X114839288Y-89200895D01*
X114839288Y-89200895D02*
X114905955Y-89200895D01*
X114905955Y-89200895D02*
X115005955Y-89238990D01*
X115005955Y-89238990D02*
X115039288Y-89277085D01*
X115305955Y-89962800D02*
X115405955Y-90000895D01*
X115405955Y-90000895D02*
X115572622Y-90000895D01*
X115572622Y-90000895D02*
X115639288Y-89962800D01*
X115639288Y-89962800D02*
X115672622Y-89924704D01*
X115672622Y-89924704D02*
X115705955Y-89848514D01*
X115705955Y-89848514D02*
X115705955Y-89772323D01*
X115705955Y-89772323D02*
X115672622Y-89696133D01*
X115672622Y-89696133D02*
X115639288Y-89658038D01*
X115639288Y-89658038D02*
X115572622Y-89619942D01*
X115572622Y-89619942D02*
X115439288Y-89581847D01*
X115439288Y-89581847D02*
X115372622Y-89543752D01*
X115372622Y-89543752D02*
X115339288Y-89505657D01*
X115339288Y-89505657D02*
X115305955Y-89429466D01*
X115305955Y-89429466D02*
X115305955Y-89353276D01*
X115305955Y-89353276D02*
X115339288Y-89277085D01*
X115339288Y-89277085D02*
X115372622Y-89238990D01*
X115372622Y-89238990D02*
X115439288Y-89200895D01*
X115439288Y-89200895D02*
X115605955Y-89200895D01*
X115605955Y-89200895D02*
X115705955Y-89238990D01*
X116005955Y-90000895D02*
X116005955Y-89200895D01*
X116005955Y-89200895D02*
X116272622Y-89200895D01*
X116272622Y-89200895D02*
X116339289Y-89238990D01*
X116339289Y-89238990D02*
X116372622Y-89277085D01*
X116372622Y-89277085D02*
X116405955Y-89353276D01*
X116405955Y-89353276D02*
X116405955Y-89467561D01*
X116405955Y-89467561D02*
X116372622Y-89543752D01*
X116372622Y-89543752D02*
X116339289Y-89581847D01*
X116339289Y-89581847D02*
X116272622Y-89619942D01*
X116272622Y-89619942D02*
X116005955Y-89619942D01*
D10*
X114107500Y-106870935D02*
X114145595Y-106756649D01*
X114145595Y-106756649D02*
X114145595Y-106566173D01*
X114145595Y-106566173D02*
X114107500Y-106489982D01*
X114107500Y-106489982D02*
X114069404Y-106451887D01*
X114069404Y-106451887D02*
X113993214Y-106413792D01*
X113993214Y-106413792D02*
X113917023Y-106413792D01*
X113917023Y-106413792D02*
X113840833Y-106451887D01*
X113840833Y-106451887D02*
X113802738Y-106489982D01*
X113802738Y-106489982D02*
X113764642Y-106566173D01*
X113764642Y-106566173D02*
X113726547Y-106718554D01*
X113726547Y-106718554D02*
X113688452Y-106794744D01*
X113688452Y-106794744D02*
X113650357Y-106832839D01*
X113650357Y-106832839D02*
X113574166Y-106870935D01*
X113574166Y-106870935D02*
X113497976Y-106870935D01*
X113497976Y-106870935D02*
X113421785Y-106832839D01*
X113421785Y-106832839D02*
X113383690Y-106794744D01*
X113383690Y-106794744D02*
X113345595Y-106718554D01*
X113345595Y-106718554D02*
X113345595Y-106528077D01*
X113345595Y-106528077D02*
X113383690Y-106413792D01*
X114145595Y-106070934D02*
X113345595Y-106070934D01*
X113345595Y-106070934D02*
X113345595Y-105880458D01*
X113345595Y-105880458D02*
X113383690Y-105766172D01*
X113383690Y-105766172D02*
X113459880Y-105689982D01*
X113459880Y-105689982D02*
X113536071Y-105651887D01*
X113536071Y-105651887D02*
X113688452Y-105613791D01*
X113688452Y-105613791D02*
X113802738Y-105613791D01*
X113802738Y-105613791D02*
X113955119Y-105651887D01*
X113955119Y-105651887D02*
X114031309Y-105689982D01*
X114031309Y-105689982D02*
X114107500Y-105766172D01*
X114107500Y-105766172D02*
X114145595Y-105880458D01*
X114145595Y-105880458D02*
X114145595Y-106070934D01*
X113917023Y-105309030D02*
X113917023Y-104928077D01*
X114145595Y-105385220D02*
X113345595Y-105118553D01*
X113345595Y-105118553D02*
X114145595Y-104851887D01*
D11*
X113881500Y-116041477D02*
X113919595Y-115941477D01*
X113919595Y-115941477D02*
X113919595Y-115774811D01*
X113919595Y-115774811D02*
X113881500Y-115708144D01*
X113881500Y-115708144D02*
X113843404Y-115674811D01*
X113843404Y-115674811D02*
X113767214Y-115641477D01*
X113767214Y-115641477D02*
X113691023Y-115641477D01*
X113691023Y-115641477D02*
X113614833Y-115674811D01*
X113614833Y-115674811D02*
X113576738Y-115708144D01*
X113576738Y-115708144D02*
X113538642Y-115774811D01*
X113538642Y-115774811D02*
X113500547Y-115908144D01*
X113500547Y-115908144D02*
X113462452Y-115974811D01*
X113462452Y-115974811D02*
X113424357Y-116008144D01*
X113424357Y-116008144D02*
X113348166Y-116041477D01*
X113348166Y-116041477D02*
X113271976Y-116041477D01*
X113271976Y-116041477D02*
X113195785Y-116008144D01*
X113195785Y-116008144D02*
X113157690Y-115974811D01*
X113157690Y-115974811D02*
X113119595Y-115908144D01*
X113119595Y-115908144D02*
X113119595Y-115741477D01*
X113119595Y-115741477D02*
X113157690Y-115641477D01*
X113500547Y-115341477D02*
X113500547Y-115108144D01*
X113919595Y-115008144D02*
X113919595Y-115341477D01*
X113919595Y-115341477D02*
X113119595Y-115341477D01*
X113119595Y-115341477D02*
X113119595Y-115008144D01*
X113919595Y-114308144D02*
X113538642Y-114541477D01*
X113919595Y-114708144D02*
X113119595Y-114708144D01*
X113119595Y-114708144D02*
X113119595Y-114441477D01*
X113119595Y-114441477D02*
X113157690Y-114374811D01*
X113157690Y-114374811D02*
X113195785Y-114341477D01*
X113195785Y-114341477D02*
X113271976Y-114308144D01*
X113271976Y-114308144D02*
X113386261Y-114308144D01*
X113386261Y-114308144D02*
X113462452Y-114341477D01*
X113462452Y-114341477D02*
X113500547Y-114374811D01*
X113500547Y-114374811D02*
X113538642Y-114441477D01*
X113538642Y-114441477D02*
X113538642Y-114708144D01*
X113919595Y-114008144D02*
X113119595Y-114008144D01*
X113691023Y-113708144D02*
X113691023Y-113374811D01*
X113919595Y-113774811D02*
X113119595Y-113541478D01*
X113119595Y-113541478D02*
X113919595Y-113308144D01*
X113919595Y-112741478D02*
X113919595Y-113074811D01*
X113919595Y-113074811D02*
X113119595Y-113074811D01*
X113119595Y-111974811D02*
X113767214Y-111974811D01*
X113767214Y-111974811D02*
X113843404Y-111941478D01*
X113843404Y-111941478D02*
X113881500Y-111908144D01*
X113881500Y-111908144D02*
X113919595Y-111841478D01*
X113919595Y-111841478D02*
X113919595Y-111708144D01*
X113919595Y-111708144D02*
X113881500Y-111641478D01*
X113881500Y-111641478D02*
X113843404Y-111608144D01*
X113843404Y-111608144D02*
X113767214Y-111574811D01*
X113767214Y-111574811D02*
X113119595Y-111574811D01*
X113691023Y-111274811D02*
X113691023Y-110941478D01*
X113919595Y-111341478D02*
X113119595Y-111108145D01*
X113119595Y-111108145D02*
X113919595Y-110874811D01*
X113919595Y-110241478D02*
X113538642Y-110474811D01*
X113919595Y-110641478D02*
X113119595Y-110641478D01*
X113119595Y-110641478D02*
X113119595Y-110374811D01*
X113119595Y-110374811D02*
X113157690Y-110308145D01*
X113157690Y-110308145D02*
X113195785Y-110274811D01*
X113195785Y-110274811D02*
X113271976Y-110241478D01*
X113271976Y-110241478D02*
X113386261Y-110241478D01*
X113386261Y-110241478D02*
X113462452Y-110274811D01*
X113462452Y-110274811D02*
X113500547Y-110308145D01*
X113500547Y-110308145D02*
X113538642Y-110374811D01*
X113538642Y-110374811D02*
X113538642Y-110641478D01*
X113119595Y-110041478D02*
X113119595Y-109641478D01*
X113919595Y-109841478D02*
X113119595Y-109841478D01*
D10*
X75105890Y-96990392D02*
X75067795Y-97066582D01*
X75067795Y-97066582D02*
X75067795Y-97180868D01*
X75067795Y-97180868D02*
X75105890Y-97295154D01*
X75105890Y-97295154D02*
X75182080Y-97371344D01*
X75182080Y-97371344D02*
X75258271Y-97409439D01*
X75258271Y-97409439D02*
X75410652Y-97447535D01*
X75410652Y-97447535D02*
X75524938Y-97447535D01*
X75524938Y-97447535D02*
X75677319Y-97409439D01*
X75677319Y-97409439D02*
X75753509Y-97371344D01*
X75753509Y-97371344D02*
X75829700Y-97295154D01*
X75829700Y-97295154D02*
X75867795Y-97180868D01*
X75867795Y-97180868D02*
X75867795Y-97104677D01*
X75867795Y-97104677D02*
X75829700Y-96990392D01*
X75829700Y-96990392D02*
X75791604Y-96952296D01*
X75791604Y-96952296D02*
X75524938Y-96952296D01*
X75524938Y-96952296D02*
X75524938Y-97104677D01*
X75867795Y-96609439D02*
X75067795Y-96609439D01*
X75067795Y-96609439D02*
X75867795Y-96152296D01*
X75867795Y-96152296D02*
X75067795Y-96152296D01*
X75867795Y-95771344D02*
X75067795Y-95771344D01*
X75067795Y-95771344D02*
X75067795Y-95580868D01*
X75067795Y-95580868D02*
X75105890Y-95466582D01*
X75105890Y-95466582D02*
X75182080Y-95390392D01*
X75182080Y-95390392D02*
X75258271Y-95352297D01*
X75258271Y-95352297D02*
X75410652Y-95314201D01*
X75410652Y-95314201D02*
X75524938Y-95314201D01*
X75524938Y-95314201D02*
X75677319Y-95352297D01*
X75677319Y-95352297D02*
X75753509Y-95390392D01*
X75753509Y-95390392D02*
X75829700Y-95466582D01*
X75829700Y-95466582D02*
X75867795Y-95580868D01*
X75867795Y-95580868D02*
X75867795Y-95771344D01*
X113345595Y-104153125D02*
X114145595Y-103886458D01*
X114145595Y-103886458D02*
X113345595Y-103619792D01*
X114107500Y-103010268D02*
X114145595Y-103086459D01*
X114145595Y-103086459D02*
X114145595Y-103238840D01*
X114145595Y-103238840D02*
X114107500Y-103315030D01*
X114107500Y-103315030D02*
X114069404Y-103353125D01*
X114069404Y-103353125D02*
X113993214Y-103391221D01*
X113993214Y-103391221D02*
X113764642Y-103391221D01*
X113764642Y-103391221D02*
X113688452Y-103353125D01*
X113688452Y-103353125D02*
X113650357Y-103315030D01*
X113650357Y-103315030D02*
X113612261Y-103238840D01*
X113612261Y-103238840D02*
X113612261Y-103086459D01*
X113612261Y-103086459D02*
X113650357Y-103010268D01*
X114107500Y-102324554D02*
X114145595Y-102400745D01*
X114145595Y-102400745D02*
X114145595Y-102553126D01*
X114145595Y-102553126D02*
X114107500Y-102629316D01*
X114107500Y-102629316D02*
X114069404Y-102667411D01*
X114069404Y-102667411D02*
X113993214Y-102705507D01*
X113993214Y-102705507D02*
X113764642Y-102705507D01*
X113764642Y-102705507D02*
X113688452Y-102667411D01*
X113688452Y-102667411D02*
X113650357Y-102629316D01*
X113650357Y-102629316D02*
X113612261Y-102553126D01*
X113612261Y-102553126D02*
X113612261Y-102400745D01*
X113612261Y-102400745D02*
X113650357Y-102324554D01*
X78891564Y-110432685D02*
X78929660Y-110394590D01*
X78929660Y-110394590D02*
X79005850Y-110356495D01*
X79005850Y-110356495D02*
X79196326Y-110356495D01*
X79196326Y-110356495D02*
X79272517Y-110394590D01*
X79272517Y-110394590D02*
X79310612Y-110432685D01*
X79310612Y-110432685D02*
X79348707Y-110508876D01*
X79348707Y-110508876D02*
X79348707Y-110585066D01*
X79348707Y-110585066D02*
X79310612Y-110699352D01*
X79310612Y-110699352D02*
X78853469Y-111156495D01*
X78853469Y-111156495D02*
X79348707Y-111156495D01*
X76986507Y-111105695D02*
X76529364Y-111105695D01*
X76757936Y-111105695D02*
X76757936Y-110305695D01*
X76757936Y-110305695D02*
X76681745Y-110419980D01*
X76681745Y-110419980D02*
X76605555Y-110496171D01*
X76605555Y-110496171D02*
X76529364Y-110534266D01*
X87032212Y-110381895D02*
X86651260Y-110381895D01*
X86651260Y-110381895D02*
X86613164Y-110762847D01*
X86613164Y-110762847D02*
X86651260Y-110724752D01*
X86651260Y-110724752D02*
X86727450Y-110686657D01*
X86727450Y-110686657D02*
X86917926Y-110686657D01*
X86917926Y-110686657D02*
X86994117Y-110724752D01*
X86994117Y-110724752D02*
X87032212Y-110762847D01*
X87032212Y-110762847D02*
X87070307Y-110839038D01*
X87070307Y-110839038D02*
X87070307Y-111029514D01*
X87070307Y-111029514D02*
X87032212Y-111105704D01*
X87032212Y-111105704D02*
X86994117Y-111143800D01*
X86994117Y-111143800D02*
X86917926Y-111181895D01*
X86917926Y-111181895D02*
X86727450Y-111181895D01*
X86727450Y-111181895D02*
X86651260Y-111143800D01*
X86651260Y-111143800D02*
X86613164Y-111105704D01*
D11*
%TO.C,R3*%
X75501233Y-108858495D02*
X75267900Y-108477542D01*
X75101233Y-108858495D02*
X75101233Y-108058495D01*
X75101233Y-108058495D02*
X75367900Y-108058495D01*
X75367900Y-108058495D02*
X75434567Y-108096590D01*
X75434567Y-108096590D02*
X75467900Y-108134685D01*
X75467900Y-108134685D02*
X75501233Y-108210876D01*
X75501233Y-108210876D02*
X75501233Y-108325161D01*
X75501233Y-108325161D02*
X75467900Y-108401352D01*
X75467900Y-108401352D02*
X75434567Y-108439447D01*
X75434567Y-108439447D02*
X75367900Y-108477542D01*
X75367900Y-108477542D02*
X75101233Y-108477542D01*
X75734567Y-108058495D02*
X76167900Y-108058495D01*
X76167900Y-108058495D02*
X75934567Y-108363257D01*
X75934567Y-108363257D02*
X76034567Y-108363257D01*
X76034567Y-108363257D02*
X76101233Y-108401352D01*
X76101233Y-108401352D02*
X76134567Y-108439447D01*
X76134567Y-108439447D02*
X76167900Y-108515638D01*
X76167900Y-108515638D02*
X76167900Y-108706114D01*
X76167900Y-108706114D02*
X76134567Y-108782304D01*
X76134567Y-108782304D02*
X76101233Y-108820400D01*
X76101233Y-108820400D02*
X76034567Y-108858495D01*
X76034567Y-108858495D02*
X75834567Y-108858495D01*
X75834567Y-108858495D02*
X75767900Y-108820400D01*
X75767900Y-108820400D02*
X75734567Y-108782304D01*
X75185366Y-110103095D02*
X74785366Y-110103095D01*
X74985366Y-110103095D02*
X74985366Y-109303095D01*
X74985366Y-109303095D02*
X74918699Y-109417380D01*
X74918699Y-109417380D02*
X74852033Y-109493571D01*
X74852033Y-109493571D02*
X74785366Y-109531666D01*
X75618700Y-109303095D02*
X75685366Y-109303095D01*
X75685366Y-109303095D02*
X75752033Y-109341190D01*
X75752033Y-109341190D02*
X75785366Y-109379285D01*
X75785366Y-109379285D02*
X75818700Y-109455476D01*
X75818700Y-109455476D02*
X75852033Y-109607857D01*
X75852033Y-109607857D02*
X75852033Y-109798333D01*
X75852033Y-109798333D02*
X75818700Y-109950714D01*
X75818700Y-109950714D02*
X75785366Y-110026904D01*
X75785366Y-110026904D02*
X75752033Y-110065000D01*
X75752033Y-110065000D02*
X75685366Y-110103095D01*
X75685366Y-110103095D02*
X75618700Y-110103095D01*
X75618700Y-110103095D02*
X75552033Y-110065000D01*
X75552033Y-110065000D02*
X75518700Y-110026904D01*
X75518700Y-110026904D02*
X75485366Y-109950714D01*
X75485366Y-109950714D02*
X75452033Y-109798333D01*
X75452033Y-109798333D02*
X75452033Y-109607857D01*
X75452033Y-109607857D02*
X75485366Y-109455476D01*
X75485366Y-109455476D02*
X75518700Y-109379285D01*
X75518700Y-109379285D02*
X75552033Y-109341190D01*
X75552033Y-109341190D02*
X75618700Y-109303095D01*
X76152033Y-110103095D02*
X76152033Y-109303095D01*
X76552033Y-110103095D02*
X76252033Y-109645952D01*
X76552033Y-109303095D02*
X76152033Y-109760238D01*
%TO.C,U3*%
X80070766Y-84765895D02*
X80070766Y-85413514D01*
X80070766Y-85413514D02*
X80104100Y-85489704D01*
X80104100Y-85489704D02*
X80137433Y-85527800D01*
X80137433Y-85527800D02*
X80204100Y-85565895D01*
X80204100Y-85565895D02*
X80337433Y-85565895D01*
X80337433Y-85565895D02*
X80404100Y-85527800D01*
X80404100Y-85527800D02*
X80437433Y-85489704D01*
X80437433Y-85489704D02*
X80470766Y-85413514D01*
X80470766Y-85413514D02*
X80470766Y-84765895D01*
X80737433Y-84765895D02*
X81170766Y-84765895D01*
X81170766Y-84765895D02*
X80937433Y-85070657D01*
X80937433Y-85070657D02*
X81037433Y-85070657D01*
X81037433Y-85070657D02*
X81104099Y-85108752D01*
X81104099Y-85108752D02*
X81137433Y-85146847D01*
X81137433Y-85146847D02*
X81170766Y-85223038D01*
X81170766Y-85223038D02*
X81170766Y-85413514D01*
X81170766Y-85413514D02*
X81137433Y-85489704D01*
X81137433Y-85489704D02*
X81104099Y-85527800D01*
X81104099Y-85527800D02*
X81037433Y-85565895D01*
X81037433Y-85565895D02*
X80837433Y-85565895D01*
X80837433Y-85565895D02*
X80770766Y-85527800D01*
X80770766Y-85527800D02*
X80737433Y-85489704D01*
X78104099Y-91642085D02*
X78137432Y-91603990D01*
X78137432Y-91603990D02*
X78204099Y-91565895D01*
X78204099Y-91565895D02*
X78370766Y-91565895D01*
X78370766Y-91565895D02*
X78437432Y-91603990D01*
X78437432Y-91603990D02*
X78470766Y-91642085D01*
X78470766Y-91642085D02*
X78504099Y-91718276D01*
X78504099Y-91718276D02*
X78504099Y-91794466D01*
X78504099Y-91794466D02*
X78470766Y-91908752D01*
X78470766Y-91908752D02*
X78070766Y-92365895D01*
X78070766Y-92365895D02*
X78504099Y-92365895D01*
X79104099Y-91832561D02*
X79104099Y-92365895D01*
X78937433Y-91527800D02*
X78770766Y-92099228D01*
X78770766Y-92099228D02*
X79204099Y-92099228D01*
X79804100Y-92365895D02*
X79470766Y-92365895D01*
X79470766Y-92365895D02*
X79470766Y-91565895D01*
X80437433Y-92289704D02*
X80404100Y-92327800D01*
X80404100Y-92327800D02*
X80304100Y-92365895D01*
X80304100Y-92365895D02*
X80237433Y-92365895D01*
X80237433Y-92365895D02*
X80137433Y-92327800D01*
X80137433Y-92327800D02*
X80070767Y-92251609D01*
X80070767Y-92251609D02*
X80037433Y-92175419D01*
X80037433Y-92175419D02*
X80004100Y-92023038D01*
X80004100Y-92023038D02*
X80004100Y-91908752D01*
X80004100Y-91908752D02*
X80037433Y-91756371D01*
X80037433Y-91756371D02*
X80070767Y-91680180D01*
X80070767Y-91680180D02*
X80137433Y-91603990D01*
X80137433Y-91603990D02*
X80237433Y-91565895D01*
X80237433Y-91565895D02*
X80304100Y-91565895D01*
X80304100Y-91565895D02*
X80404100Y-91603990D01*
X80404100Y-91603990D02*
X80437433Y-91642085D01*
X81104100Y-92365895D02*
X80704100Y-92365895D01*
X80904100Y-92365895D02*
X80904100Y-91565895D01*
X80904100Y-91565895D02*
X80837433Y-91680180D01*
X80837433Y-91680180D02*
X80770767Y-91756371D01*
X80770767Y-91756371D02*
X80704100Y-91794466D01*
X81537434Y-91565895D02*
X81604100Y-91565895D01*
X81604100Y-91565895D02*
X81670767Y-91603990D01*
X81670767Y-91603990D02*
X81704100Y-91642085D01*
X81704100Y-91642085D02*
X81737434Y-91718276D01*
X81737434Y-91718276D02*
X81770767Y-91870657D01*
X81770767Y-91870657D02*
X81770767Y-92061133D01*
X81770767Y-92061133D02*
X81737434Y-92213514D01*
X81737434Y-92213514D02*
X81704100Y-92289704D01*
X81704100Y-92289704D02*
X81670767Y-92327800D01*
X81670767Y-92327800D02*
X81604100Y-92365895D01*
X81604100Y-92365895D02*
X81537434Y-92365895D01*
X81537434Y-92365895D02*
X81470767Y-92327800D01*
X81470767Y-92327800D02*
X81437434Y-92289704D01*
X81437434Y-92289704D02*
X81404100Y-92213514D01*
X81404100Y-92213514D02*
X81370767Y-92061133D01*
X81370767Y-92061133D02*
X81370767Y-91870657D01*
X81370767Y-91870657D02*
X81404100Y-91718276D01*
X81404100Y-91718276D02*
X81437434Y-91642085D01*
X81437434Y-91642085D02*
X81470767Y-91603990D01*
X81470767Y-91603990D02*
X81537434Y-91565895D01*
X82037434Y-91642085D02*
X82070767Y-91603990D01*
X82070767Y-91603990D02*
X82137434Y-91565895D01*
X82137434Y-91565895D02*
X82304101Y-91565895D01*
X82304101Y-91565895D02*
X82370767Y-91603990D01*
X82370767Y-91603990D02*
X82404101Y-91642085D01*
X82404101Y-91642085D02*
X82437434Y-91718276D01*
X82437434Y-91718276D02*
X82437434Y-91794466D01*
X82437434Y-91794466D02*
X82404101Y-91908752D01*
X82404101Y-91908752D02*
X82004101Y-92365895D01*
X82004101Y-92365895D02*
X82437434Y-92365895D01*
X83070768Y-91565895D02*
X82737434Y-91565895D01*
X82737434Y-91565895D02*
X82704101Y-91946847D01*
X82704101Y-91946847D02*
X82737434Y-91908752D01*
X82737434Y-91908752D02*
X82804101Y-91870657D01*
X82804101Y-91870657D02*
X82970768Y-91870657D01*
X82970768Y-91870657D02*
X83037434Y-91908752D01*
X83037434Y-91908752D02*
X83070768Y-91946847D01*
X83070768Y-91946847D02*
X83104101Y-92023038D01*
X83104101Y-92023038D02*
X83104101Y-92213514D01*
X83104101Y-92213514D02*
X83070768Y-92289704D01*
X83070768Y-92289704D02*
X83037434Y-92327800D01*
X83037434Y-92327800D02*
X82970768Y-92365895D01*
X82970768Y-92365895D02*
X82804101Y-92365895D01*
X82804101Y-92365895D02*
X82737434Y-92327800D01*
X82737434Y-92327800D02*
X82704101Y-92289704D01*
%TO.C,Y2*%
X93099767Y-103869742D02*
X93099767Y-104250695D01*
X92866433Y-103450695D02*
X93099767Y-103869742D01*
X93099767Y-103869742D02*
X93333100Y-103450695D01*
X93533100Y-103526885D02*
X93566433Y-103488790D01*
X93566433Y-103488790D02*
X93633100Y-103450695D01*
X93633100Y-103450695D02*
X93799767Y-103450695D01*
X93799767Y-103450695D02*
X93866433Y-103488790D01*
X93866433Y-103488790D02*
X93899767Y-103526885D01*
X93899767Y-103526885D02*
X93933100Y-103603076D01*
X93933100Y-103603076D02*
X93933100Y-103679266D01*
X93933100Y-103679266D02*
X93899767Y-103793552D01*
X93899767Y-103793552D02*
X93499767Y-104250695D01*
X93499767Y-104250695D02*
X93933100Y-104250695D01*
X92249766Y-109850695D02*
X91849766Y-109850695D01*
X92049766Y-109850695D02*
X92049766Y-109050695D01*
X92049766Y-109050695D02*
X91983099Y-109164980D01*
X91983099Y-109164980D02*
X91916433Y-109241171D01*
X91916433Y-109241171D02*
X91849766Y-109279266D01*
X92849766Y-109050695D02*
X92716433Y-109050695D01*
X92716433Y-109050695D02*
X92649766Y-109088790D01*
X92649766Y-109088790D02*
X92616433Y-109126885D01*
X92616433Y-109126885D02*
X92549766Y-109241171D01*
X92549766Y-109241171D02*
X92516433Y-109393552D01*
X92516433Y-109393552D02*
X92516433Y-109698314D01*
X92516433Y-109698314D02*
X92549766Y-109774504D01*
X92549766Y-109774504D02*
X92583100Y-109812600D01*
X92583100Y-109812600D02*
X92649766Y-109850695D01*
X92649766Y-109850695D02*
X92783100Y-109850695D01*
X92783100Y-109850695D02*
X92849766Y-109812600D01*
X92849766Y-109812600D02*
X92883100Y-109774504D01*
X92883100Y-109774504D02*
X92916433Y-109698314D01*
X92916433Y-109698314D02*
X92916433Y-109507838D01*
X92916433Y-109507838D02*
X92883100Y-109431647D01*
X92883100Y-109431647D02*
X92849766Y-109393552D01*
X92849766Y-109393552D02*
X92783100Y-109355457D01*
X92783100Y-109355457D02*
X92649766Y-109355457D01*
X92649766Y-109355457D02*
X92583100Y-109393552D01*
X92583100Y-109393552D02*
X92549766Y-109431647D01*
X92549766Y-109431647D02*
X92516433Y-109507838D01*
X93216433Y-109850695D02*
X93216433Y-109050695D01*
X93216433Y-109050695D02*
X93449767Y-109622123D01*
X93449767Y-109622123D02*
X93683100Y-109050695D01*
X93683100Y-109050695D02*
X93683100Y-109850695D01*
X94016433Y-109850695D02*
X94016433Y-109050695D01*
X94016433Y-109431647D02*
X94416433Y-109431647D01*
X94416433Y-109850695D02*
X94416433Y-109050695D01*
X94683100Y-109317361D02*
X95049766Y-109317361D01*
X95049766Y-109317361D02*
X94683100Y-109850695D01*
X94683100Y-109850695D02*
X95049766Y-109850695D01*
%TO.C,H4*%
X116537366Y-117697695D02*
X116537366Y-116897695D01*
X116537366Y-117278647D02*
X116937366Y-117278647D01*
X116937366Y-117697695D02*
X116937366Y-116897695D01*
X117570699Y-117164361D02*
X117570699Y-117697695D01*
X117404033Y-116859600D02*
X117237366Y-117431028D01*
X117237366Y-117431028D02*
X117670699Y-117431028D01*
%TO.C,R4*%
X85280233Y-109036295D02*
X85046900Y-108655342D01*
X84880233Y-109036295D02*
X84880233Y-108236295D01*
X84880233Y-108236295D02*
X85146900Y-108236295D01*
X85146900Y-108236295D02*
X85213567Y-108274390D01*
X85213567Y-108274390D02*
X85246900Y-108312485D01*
X85246900Y-108312485D02*
X85280233Y-108388676D01*
X85280233Y-108388676D02*
X85280233Y-108502961D01*
X85280233Y-108502961D02*
X85246900Y-108579152D01*
X85246900Y-108579152D02*
X85213567Y-108617247D01*
X85213567Y-108617247D02*
X85146900Y-108655342D01*
X85146900Y-108655342D02*
X84880233Y-108655342D01*
X85880233Y-108502961D02*
X85880233Y-109036295D01*
X85713567Y-108198200D02*
X85546900Y-108769628D01*
X85546900Y-108769628D02*
X85980233Y-108769628D01*
X84888166Y-110153895D02*
X84488166Y-110153895D01*
X84688166Y-110153895D02*
X84688166Y-109353895D01*
X84688166Y-109353895D02*
X84621499Y-109468180D01*
X84621499Y-109468180D02*
X84554833Y-109544371D01*
X84554833Y-109544371D02*
X84488166Y-109582466D01*
X85321500Y-109353895D02*
X85388166Y-109353895D01*
X85388166Y-109353895D02*
X85454833Y-109391990D01*
X85454833Y-109391990D02*
X85488166Y-109430085D01*
X85488166Y-109430085D02*
X85521500Y-109506276D01*
X85521500Y-109506276D02*
X85554833Y-109658657D01*
X85554833Y-109658657D02*
X85554833Y-109849133D01*
X85554833Y-109849133D02*
X85521500Y-110001514D01*
X85521500Y-110001514D02*
X85488166Y-110077704D01*
X85488166Y-110077704D02*
X85454833Y-110115800D01*
X85454833Y-110115800D02*
X85388166Y-110153895D01*
X85388166Y-110153895D02*
X85321500Y-110153895D01*
X85321500Y-110153895D02*
X85254833Y-110115800D01*
X85254833Y-110115800D02*
X85221500Y-110077704D01*
X85221500Y-110077704D02*
X85188166Y-110001514D01*
X85188166Y-110001514D02*
X85154833Y-109849133D01*
X85154833Y-109849133D02*
X85154833Y-109658657D01*
X85154833Y-109658657D02*
X85188166Y-109506276D01*
X85188166Y-109506276D02*
X85221500Y-109430085D01*
X85221500Y-109430085D02*
X85254833Y-109391990D01*
X85254833Y-109391990D02*
X85321500Y-109353895D01*
X85854833Y-110153895D02*
X85854833Y-109353895D01*
X86254833Y-110153895D02*
X85954833Y-109696752D01*
X86254833Y-109353895D02*
X85854833Y-109811038D01*
%TO.C,U4*%
X90215566Y-88437095D02*
X90215566Y-89084714D01*
X90215566Y-89084714D02*
X90248900Y-89160904D01*
X90248900Y-89160904D02*
X90282233Y-89199000D01*
X90282233Y-89199000D02*
X90348900Y-89237095D01*
X90348900Y-89237095D02*
X90482233Y-89237095D01*
X90482233Y-89237095D02*
X90548900Y-89199000D01*
X90548900Y-89199000D02*
X90582233Y-89160904D01*
X90582233Y-89160904D02*
X90615566Y-89084714D01*
X90615566Y-89084714D02*
X90615566Y-88437095D01*
X91248899Y-88703761D02*
X91248899Y-89237095D01*
X91082233Y-88399000D02*
X90915566Y-88970428D01*
X90915566Y-88970428D02*
X91348899Y-88970428D01*
X88944700Y-101492523D02*
X89278033Y-101492523D01*
X88878033Y-101721095D02*
X89111367Y-100921095D01*
X89111367Y-100921095D02*
X89344700Y-101721095D01*
X89478033Y-100921095D02*
X89878033Y-100921095D01*
X89678033Y-101721095D02*
X89678033Y-100921095D01*
X90111366Y-101721095D02*
X90111366Y-100921095D01*
X90111366Y-100921095D02*
X90344700Y-101492523D01*
X90344700Y-101492523D02*
X90578033Y-100921095D01*
X90578033Y-100921095D02*
X90578033Y-101721095D01*
X90911366Y-101302047D02*
X91144700Y-101302047D01*
X91244700Y-101721095D02*
X90911366Y-101721095D01*
X90911366Y-101721095D02*
X90911366Y-100921095D01*
X90911366Y-100921095D02*
X91244700Y-100921095D01*
X91911366Y-100959190D02*
X91844699Y-100921095D01*
X91844699Y-100921095D02*
X91744699Y-100921095D01*
X91744699Y-100921095D02*
X91644699Y-100959190D01*
X91644699Y-100959190D02*
X91578033Y-101035380D01*
X91578033Y-101035380D02*
X91544699Y-101111571D01*
X91544699Y-101111571D02*
X91511366Y-101263952D01*
X91511366Y-101263952D02*
X91511366Y-101378238D01*
X91511366Y-101378238D02*
X91544699Y-101530619D01*
X91544699Y-101530619D02*
X91578033Y-101606809D01*
X91578033Y-101606809D02*
X91644699Y-101683000D01*
X91644699Y-101683000D02*
X91744699Y-101721095D01*
X91744699Y-101721095D02*
X91811366Y-101721095D01*
X91811366Y-101721095D02*
X91911366Y-101683000D01*
X91911366Y-101683000D02*
X91944699Y-101644904D01*
X91944699Y-101644904D02*
X91944699Y-101378238D01*
X91944699Y-101378238D02*
X91811366Y-101378238D01*
X92211366Y-101492523D02*
X92544699Y-101492523D01*
X92144699Y-101721095D02*
X92378033Y-100921095D01*
X92378033Y-100921095D02*
X92611366Y-101721095D01*
X92778033Y-100921095D02*
X93211366Y-100921095D01*
X93211366Y-100921095D02*
X92978033Y-101225857D01*
X92978033Y-101225857D02*
X93078033Y-101225857D01*
X93078033Y-101225857D02*
X93144699Y-101263952D01*
X93144699Y-101263952D02*
X93178033Y-101302047D01*
X93178033Y-101302047D02*
X93211366Y-101378238D01*
X93211366Y-101378238D02*
X93211366Y-101568714D01*
X93211366Y-101568714D02*
X93178033Y-101644904D01*
X93178033Y-101644904D02*
X93144699Y-101683000D01*
X93144699Y-101683000D02*
X93078033Y-101721095D01*
X93078033Y-101721095D02*
X92878033Y-101721095D01*
X92878033Y-101721095D02*
X92811366Y-101683000D01*
X92811366Y-101683000D02*
X92778033Y-101644904D01*
X93478033Y-100997285D02*
X93511366Y-100959190D01*
X93511366Y-100959190D02*
X93578033Y-100921095D01*
X93578033Y-100921095D02*
X93744700Y-100921095D01*
X93744700Y-100921095D02*
X93811366Y-100959190D01*
X93811366Y-100959190D02*
X93844700Y-100997285D01*
X93844700Y-100997285D02*
X93878033Y-101073476D01*
X93878033Y-101073476D02*
X93878033Y-101149666D01*
X93878033Y-101149666D02*
X93844700Y-101263952D01*
X93844700Y-101263952D02*
X93444700Y-101721095D01*
X93444700Y-101721095D02*
X93878033Y-101721095D01*
X94278033Y-101263952D02*
X94211367Y-101225857D01*
X94211367Y-101225857D02*
X94178033Y-101187761D01*
X94178033Y-101187761D02*
X94144700Y-101111571D01*
X94144700Y-101111571D02*
X94144700Y-101073476D01*
X94144700Y-101073476D02*
X94178033Y-100997285D01*
X94178033Y-100997285D02*
X94211367Y-100959190D01*
X94211367Y-100959190D02*
X94278033Y-100921095D01*
X94278033Y-100921095D02*
X94411367Y-100921095D01*
X94411367Y-100921095D02*
X94478033Y-100959190D01*
X94478033Y-100959190D02*
X94511367Y-100997285D01*
X94511367Y-100997285D02*
X94544700Y-101073476D01*
X94544700Y-101073476D02*
X94544700Y-101111571D01*
X94544700Y-101111571D02*
X94511367Y-101187761D01*
X94511367Y-101187761D02*
X94478033Y-101225857D01*
X94478033Y-101225857D02*
X94411367Y-101263952D01*
X94411367Y-101263952D02*
X94278033Y-101263952D01*
X94278033Y-101263952D02*
X94211367Y-101302047D01*
X94211367Y-101302047D02*
X94178033Y-101340142D01*
X94178033Y-101340142D02*
X94144700Y-101416333D01*
X94144700Y-101416333D02*
X94144700Y-101568714D01*
X94144700Y-101568714D02*
X94178033Y-101644904D01*
X94178033Y-101644904D02*
X94211367Y-101683000D01*
X94211367Y-101683000D02*
X94278033Y-101721095D01*
X94278033Y-101721095D02*
X94411367Y-101721095D01*
X94411367Y-101721095D02*
X94478033Y-101683000D01*
X94478033Y-101683000D02*
X94511367Y-101644904D01*
X94511367Y-101644904D02*
X94544700Y-101568714D01*
X94544700Y-101568714D02*
X94544700Y-101416333D01*
X94544700Y-101416333D02*
X94511367Y-101340142D01*
X94511367Y-101340142D02*
X94478033Y-101302047D01*
X94478033Y-101302047D02*
X94411367Y-101263952D01*
X94844700Y-101721095D02*
X94844700Y-100921095D01*
X94844700Y-100921095D02*
X95111367Y-100921095D01*
X95111367Y-100921095D02*
X95178034Y-100959190D01*
X95178034Y-100959190D02*
X95211367Y-100997285D01*
X95211367Y-100997285D02*
X95244700Y-101073476D01*
X95244700Y-101073476D02*
X95244700Y-101187761D01*
X95244700Y-101187761D02*
X95211367Y-101263952D01*
X95211367Y-101263952D02*
X95178034Y-101302047D01*
X95178034Y-101302047D02*
X95111367Y-101340142D01*
X95111367Y-101340142D02*
X94844700Y-101340142D01*
X95544700Y-101416333D02*
X96078034Y-101416333D01*
X96378034Y-101492523D02*
X96711367Y-101492523D01*
X96311367Y-101721095D02*
X96544701Y-100921095D01*
X96544701Y-100921095D02*
X96778034Y-101721095D01*
X97011367Y-100921095D02*
X97011367Y-101568714D01*
X97011367Y-101568714D02*
X97044701Y-101644904D01*
X97044701Y-101644904D02*
X97078034Y-101683000D01*
X97078034Y-101683000D02*
X97144701Y-101721095D01*
X97144701Y-101721095D02*
X97278034Y-101721095D01*
X97278034Y-101721095D02*
X97344701Y-101683000D01*
X97344701Y-101683000D02*
X97378034Y-101644904D01*
X97378034Y-101644904D02*
X97411367Y-101568714D01*
X97411367Y-101568714D02*
X97411367Y-100921095D01*
%TO.C,C3*%
X101256833Y-108299704D02*
X101223500Y-108337800D01*
X101223500Y-108337800D02*
X101123500Y-108375895D01*
X101123500Y-108375895D02*
X101056833Y-108375895D01*
X101056833Y-108375895D02*
X100956833Y-108337800D01*
X100956833Y-108337800D02*
X100890167Y-108261609D01*
X100890167Y-108261609D02*
X100856833Y-108185419D01*
X100856833Y-108185419D02*
X100823500Y-108033038D01*
X100823500Y-108033038D02*
X100823500Y-107918752D01*
X100823500Y-107918752D02*
X100856833Y-107766371D01*
X100856833Y-107766371D02*
X100890167Y-107690180D01*
X100890167Y-107690180D02*
X100956833Y-107613990D01*
X100956833Y-107613990D02*
X101056833Y-107575895D01*
X101056833Y-107575895D02*
X101123500Y-107575895D01*
X101123500Y-107575895D02*
X101223500Y-107613990D01*
X101223500Y-107613990D02*
X101256833Y-107652085D01*
X101490167Y-107575895D02*
X101923500Y-107575895D01*
X101923500Y-107575895D02*
X101690167Y-107880657D01*
X101690167Y-107880657D02*
X101790167Y-107880657D01*
X101790167Y-107880657D02*
X101856833Y-107918752D01*
X101856833Y-107918752D02*
X101890167Y-107956847D01*
X101890167Y-107956847D02*
X101923500Y-108033038D01*
X101923500Y-108033038D02*
X101923500Y-108223514D01*
X101923500Y-108223514D02*
X101890167Y-108299704D01*
X101890167Y-108299704D02*
X101856833Y-108337800D01*
X101856833Y-108337800D02*
X101790167Y-108375895D01*
X101790167Y-108375895D02*
X101590167Y-108375895D01*
X101590167Y-108375895D02*
X101523500Y-108337800D01*
X101523500Y-108337800D02*
X101490167Y-108299704D01*
X102865100Y-109201485D02*
X102898433Y-109163390D01*
X102898433Y-109163390D02*
X102965100Y-109125295D01*
X102965100Y-109125295D02*
X103131767Y-109125295D01*
X103131767Y-109125295D02*
X103198433Y-109163390D01*
X103198433Y-109163390D02*
X103231767Y-109201485D01*
X103231767Y-109201485D02*
X103265100Y-109277676D01*
X103265100Y-109277676D02*
X103265100Y-109353866D01*
X103265100Y-109353866D02*
X103231767Y-109468152D01*
X103231767Y-109468152D02*
X102831767Y-109925295D01*
X102831767Y-109925295D02*
X103265100Y-109925295D01*
X103531767Y-109201485D02*
X103565100Y-109163390D01*
X103565100Y-109163390D02*
X103631767Y-109125295D01*
X103631767Y-109125295D02*
X103798434Y-109125295D01*
X103798434Y-109125295D02*
X103865100Y-109163390D01*
X103865100Y-109163390D02*
X103898434Y-109201485D01*
X103898434Y-109201485D02*
X103931767Y-109277676D01*
X103931767Y-109277676D02*
X103931767Y-109353866D01*
X103931767Y-109353866D02*
X103898434Y-109468152D01*
X103898434Y-109468152D02*
X103498434Y-109925295D01*
X103498434Y-109925295D02*
X103931767Y-109925295D01*
X104231767Y-109391961D02*
X104231767Y-110191961D01*
X104231767Y-109430057D02*
X104298434Y-109391961D01*
X104298434Y-109391961D02*
X104431767Y-109391961D01*
X104431767Y-109391961D02*
X104498434Y-109430057D01*
X104498434Y-109430057D02*
X104531767Y-109468152D01*
X104531767Y-109468152D02*
X104565101Y-109544342D01*
X104565101Y-109544342D02*
X104565101Y-109772914D01*
X104565101Y-109772914D02*
X104531767Y-109849104D01*
X104531767Y-109849104D02*
X104498434Y-109887200D01*
X104498434Y-109887200D02*
X104431767Y-109925295D01*
X104431767Y-109925295D02*
X104298434Y-109925295D01*
X104298434Y-109925295D02*
X104231767Y-109887200D01*
X105098434Y-109506247D02*
X104865100Y-109506247D01*
X104865100Y-109925295D02*
X104865100Y-109125295D01*
X104865100Y-109125295D02*
X105198434Y-109125295D01*
%TO.C,U2*%
X76532366Y-100108295D02*
X76532366Y-100755914D01*
X76532366Y-100755914D02*
X76565700Y-100832104D01*
X76565700Y-100832104D02*
X76599033Y-100870200D01*
X76599033Y-100870200D02*
X76665700Y-100908295D01*
X76665700Y-100908295D02*
X76799033Y-100908295D01*
X76799033Y-100908295D02*
X76865700Y-100870200D01*
X76865700Y-100870200D02*
X76899033Y-100832104D01*
X76899033Y-100832104D02*
X76932366Y-100755914D01*
X76932366Y-100755914D02*
X76932366Y-100108295D01*
X77232366Y-100184485D02*
X77265699Y-100146390D01*
X77265699Y-100146390D02*
X77332366Y-100108295D01*
X77332366Y-100108295D02*
X77499033Y-100108295D01*
X77499033Y-100108295D02*
X77565699Y-100146390D01*
X77565699Y-100146390D02*
X77599033Y-100184485D01*
X77599033Y-100184485D02*
X77632366Y-100260676D01*
X77632366Y-100260676D02*
X77632366Y-100336866D01*
X77632366Y-100336866D02*
X77599033Y-100451152D01*
X77599033Y-100451152D02*
X77199033Y-100908295D01*
X77199033Y-100908295D02*
X77632366Y-100908295D01*
X78298699Y-107613895D02*
X78298699Y-106813895D01*
X78298699Y-106813895D02*
X78465366Y-106813895D01*
X78465366Y-106813895D02*
X78565366Y-106851990D01*
X78565366Y-106851990D02*
X78632033Y-106928180D01*
X78632033Y-106928180D02*
X78665366Y-107004371D01*
X78665366Y-107004371D02*
X78698699Y-107156752D01*
X78698699Y-107156752D02*
X78698699Y-107271038D01*
X78698699Y-107271038D02*
X78665366Y-107423419D01*
X78665366Y-107423419D02*
X78632033Y-107499609D01*
X78632033Y-107499609D02*
X78565366Y-107575800D01*
X78565366Y-107575800D02*
X78465366Y-107613895D01*
X78465366Y-107613895D02*
X78298699Y-107613895D01*
X78965366Y-107575800D02*
X79065366Y-107613895D01*
X79065366Y-107613895D02*
X79232033Y-107613895D01*
X79232033Y-107613895D02*
X79298699Y-107575800D01*
X79298699Y-107575800D02*
X79332033Y-107537704D01*
X79332033Y-107537704D02*
X79365366Y-107461514D01*
X79365366Y-107461514D02*
X79365366Y-107385323D01*
X79365366Y-107385323D02*
X79332033Y-107309133D01*
X79332033Y-107309133D02*
X79298699Y-107271038D01*
X79298699Y-107271038D02*
X79232033Y-107232942D01*
X79232033Y-107232942D02*
X79098699Y-107194847D01*
X79098699Y-107194847D02*
X79032033Y-107156752D01*
X79032033Y-107156752D02*
X78998699Y-107118657D01*
X78998699Y-107118657D02*
X78965366Y-107042466D01*
X78965366Y-107042466D02*
X78965366Y-106966276D01*
X78965366Y-106966276D02*
X78998699Y-106890085D01*
X78998699Y-106890085D02*
X79032033Y-106851990D01*
X79032033Y-106851990D02*
X79098699Y-106813895D01*
X79098699Y-106813895D02*
X79265366Y-106813895D01*
X79265366Y-106813895D02*
X79365366Y-106851990D01*
X80032033Y-107613895D02*
X79632033Y-107613895D01*
X79832033Y-107613895D02*
X79832033Y-106813895D01*
X79832033Y-106813895D02*
X79765366Y-106928180D01*
X79765366Y-106928180D02*
X79698700Y-107004371D01*
X79698700Y-107004371D02*
X79632033Y-107042466D01*
X80265367Y-106813895D02*
X80698700Y-106813895D01*
X80698700Y-106813895D02*
X80465367Y-107118657D01*
X80465367Y-107118657D02*
X80565367Y-107118657D01*
X80565367Y-107118657D02*
X80632033Y-107156752D01*
X80632033Y-107156752D02*
X80665367Y-107194847D01*
X80665367Y-107194847D02*
X80698700Y-107271038D01*
X80698700Y-107271038D02*
X80698700Y-107461514D01*
X80698700Y-107461514D02*
X80665367Y-107537704D01*
X80665367Y-107537704D02*
X80632033Y-107575800D01*
X80632033Y-107575800D02*
X80565367Y-107613895D01*
X80565367Y-107613895D02*
X80365367Y-107613895D01*
X80365367Y-107613895D02*
X80298700Y-107575800D01*
X80298700Y-107575800D02*
X80265367Y-107537704D01*
X80932034Y-106813895D02*
X81365367Y-106813895D01*
X81365367Y-106813895D02*
X81132034Y-107118657D01*
X81132034Y-107118657D02*
X81232034Y-107118657D01*
X81232034Y-107118657D02*
X81298700Y-107156752D01*
X81298700Y-107156752D02*
X81332034Y-107194847D01*
X81332034Y-107194847D02*
X81365367Y-107271038D01*
X81365367Y-107271038D02*
X81365367Y-107461514D01*
X81365367Y-107461514D02*
X81332034Y-107537704D01*
X81332034Y-107537704D02*
X81298700Y-107575800D01*
X81298700Y-107575800D02*
X81232034Y-107613895D01*
X81232034Y-107613895D02*
X81032034Y-107613895D01*
X81032034Y-107613895D02*
X80965367Y-107575800D01*
X80965367Y-107575800D02*
X80932034Y-107537704D01*
X81598701Y-106813895D02*
X82065367Y-106813895D01*
X82065367Y-106813895D02*
X81765367Y-107613895D01*
X82298701Y-107575800D02*
X82398701Y-107613895D01*
X82398701Y-107613895D02*
X82565368Y-107613895D01*
X82565368Y-107613895D02*
X82632034Y-107575800D01*
X82632034Y-107575800D02*
X82665368Y-107537704D01*
X82665368Y-107537704D02*
X82698701Y-107461514D01*
X82698701Y-107461514D02*
X82698701Y-107385323D01*
X82698701Y-107385323D02*
X82665368Y-107309133D01*
X82665368Y-107309133D02*
X82632034Y-107271038D01*
X82632034Y-107271038D02*
X82565368Y-107232942D01*
X82565368Y-107232942D02*
X82432034Y-107194847D01*
X82432034Y-107194847D02*
X82365368Y-107156752D01*
X82365368Y-107156752D02*
X82332034Y-107118657D01*
X82332034Y-107118657D02*
X82298701Y-107042466D01*
X82298701Y-107042466D02*
X82298701Y-106966276D01*
X82298701Y-106966276D02*
X82332034Y-106890085D01*
X82332034Y-106890085D02*
X82365368Y-106851990D01*
X82365368Y-106851990D02*
X82432034Y-106813895D01*
X82432034Y-106813895D02*
X82598701Y-106813895D01*
X82598701Y-106813895D02*
X82698701Y-106851990D01*
X82832035Y-107690085D02*
X83365368Y-107690085D01*
%TO.C,R7*%
X109452733Y-95316895D02*
X109219400Y-94935942D01*
X109052733Y-95316895D02*
X109052733Y-94516895D01*
X109052733Y-94516895D02*
X109319400Y-94516895D01*
X109319400Y-94516895D02*
X109386067Y-94554990D01*
X109386067Y-94554990D02*
X109419400Y-94593085D01*
X109419400Y-94593085D02*
X109452733Y-94669276D01*
X109452733Y-94669276D02*
X109452733Y-94783561D01*
X109452733Y-94783561D02*
X109419400Y-94859752D01*
X109419400Y-94859752D02*
X109386067Y-94897847D01*
X109386067Y-94897847D02*
X109319400Y-94935942D01*
X109319400Y-94935942D02*
X109052733Y-94935942D01*
X109686067Y-94516895D02*
X110152733Y-94516895D01*
X110152733Y-94516895D02*
X109852733Y-95316895D01*
X108093500Y-97796895D02*
X108526833Y-97796895D01*
X108526833Y-97796895D02*
X108293500Y-98101657D01*
X108293500Y-98101657D02*
X108393500Y-98101657D01*
X108393500Y-98101657D02*
X108460166Y-98139752D01*
X108460166Y-98139752D02*
X108493500Y-98177847D01*
X108493500Y-98177847D02*
X108526833Y-98254038D01*
X108526833Y-98254038D02*
X108526833Y-98444514D01*
X108526833Y-98444514D02*
X108493500Y-98520704D01*
X108493500Y-98520704D02*
X108460166Y-98558800D01*
X108460166Y-98558800D02*
X108393500Y-98596895D01*
X108393500Y-98596895D02*
X108193500Y-98596895D01*
X108193500Y-98596895D02*
X108126833Y-98558800D01*
X108126833Y-98558800D02*
X108093500Y-98520704D01*
X108760167Y-97796895D02*
X109193500Y-97796895D01*
X109193500Y-97796895D02*
X108960167Y-98101657D01*
X108960167Y-98101657D02*
X109060167Y-98101657D01*
X109060167Y-98101657D02*
X109126833Y-98139752D01*
X109126833Y-98139752D02*
X109160167Y-98177847D01*
X109160167Y-98177847D02*
X109193500Y-98254038D01*
X109193500Y-98254038D02*
X109193500Y-98444514D01*
X109193500Y-98444514D02*
X109160167Y-98520704D01*
X109160167Y-98520704D02*
X109126833Y-98558800D01*
X109126833Y-98558800D02*
X109060167Y-98596895D01*
X109060167Y-98596895D02*
X108860167Y-98596895D01*
X108860167Y-98596895D02*
X108793500Y-98558800D01*
X108793500Y-98558800D02*
X108760167Y-98520704D01*
X109626834Y-97796895D02*
X109693500Y-97796895D01*
X109693500Y-97796895D02*
X109760167Y-97834990D01*
X109760167Y-97834990D02*
X109793500Y-97873085D01*
X109793500Y-97873085D02*
X109826834Y-97949276D01*
X109826834Y-97949276D02*
X109860167Y-98101657D01*
X109860167Y-98101657D02*
X109860167Y-98292133D01*
X109860167Y-98292133D02*
X109826834Y-98444514D01*
X109826834Y-98444514D02*
X109793500Y-98520704D01*
X109793500Y-98520704D02*
X109760167Y-98558800D01*
X109760167Y-98558800D02*
X109693500Y-98596895D01*
X109693500Y-98596895D02*
X109626834Y-98596895D01*
X109626834Y-98596895D02*
X109560167Y-98558800D01*
X109560167Y-98558800D02*
X109526834Y-98520704D01*
X109526834Y-98520704D02*
X109493500Y-98444514D01*
X109493500Y-98444514D02*
X109460167Y-98292133D01*
X109460167Y-98292133D02*
X109460167Y-98101657D01*
X109460167Y-98101657D02*
X109493500Y-97949276D01*
X109493500Y-97949276D02*
X109526834Y-97873085D01*
X109526834Y-97873085D02*
X109560167Y-97834990D01*
X109560167Y-97834990D02*
X109626834Y-97796895D01*
%TO.C,J1*%
X118310566Y-99930495D02*
X118310566Y-100501923D01*
X118310566Y-100501923D02*
X118277233Y-100616209D01*
X118277233Y-100616209D02*
X118210566Y-100692400D01*
X118210566Y-100692400D02*
X118110566Y-100730495D01*
X118110566Y-100730495D02*
X118043900Y-100730495D01*
X119010566Y-100730495D02*
X118610566Y-100730495D01*
X118810566Y-100730495D02*
X118810566Y-99930495D01*
X118810566Y-99930495D02*
X118743899Y-100044780D01*
X118743899Y-100044780D02*
X118677233Y-100120971D01*
X118677233Y-100120971D02*
X118610566Y-100159066D01*
%TO.C,J2*%
X73919595Y-113425933D02*
X74491023Y-113425933D01*
X74491023Y-113425933D02*
X74605309Y-113459266D01*
X74605309Y-113459266D02*
X74681500Y-113525933D01*
X74681500Y-113525933D02*
X74719595Y-113625933D01*
X74719595Y-113625933D02*
X74719595Y-113692600D01*
X73995785Y-113125933D02*
X73957690Y-113092600D01*
X73957690Y-113092600D02*
X73919595Y-113025933D01*
X73919595Y-113025933D02*
X73919595Y-112859267D01*
X73919595Y-112859267D02*
X73957690Y-112792600D01*
X73957690Y-112792600D02*
X73995785Y-112759267D01*
X73995785Y-112759267D02*
X74071976Y-112725933D01*
X74071976Y-112725933D02*
X74148166Y-112725933D01*
X74148166Y-112725933D02*
X74262452Y-112759267D01*
X74262452Y-112759267D02*
X74719595Y-113159267D01*
X74719595Y-113159267D02*
X74719595Y-112725933D01*
%TO.C,H1*%
X71325366Y-84170095D02*
X71325366Y-83370095D01*
X71325366Y-83751047D02*
X71725366Y-83751047D01*
X71725366Y-84170095D02*
X71725366Y-83370095D01*
X72425366Y-84170095D02*
X72025366Y-84170095D01*
X72225366Y-84170095D02*
X72225366Y-83370095D01*
X72225366Y-83370095D02*
X72158699Y-83484380D01*
X72158699Y-83484380D02*
X72092033Y-83560571D01*
X72092033Y-83560571D02*
X72025366Y-83598666D01*
%TO.C,J3*%
X100945195Y-113400533D02*
X101516623Y-113400533D01*
X101516623Y-113400533D02*
X101630909Y-113433866D01*
X101630909Y-113433866D02*
X101707100Y-113500533D01*
X101707100Y-113500533D02*
X101745195Y-113600533D01*
X101745195Y-113600533D02*
X101745195Y-113667200D01*
X100945195Y-113133867D02*
X100945195Y-112700533D01*
X100945195Y-112700533D02*
X101249957Y-112933867D01*
X101249957Y-112933867D02*
X101249957Y-112833867D01*
X101249957Y-112833867D02*
X101288052Y-112767200D01*
X101288052Y-112767200D02*
X101326147Y-112733867D01*
X101326147Y-112733867D02*
X101402338Y-112700533D01*
X101402338Y-112700533D02*
X101592814Y-112700533D01*
X101592814Y-112700533D02*
X101669004Y-112733867D01*
X101669004Y-112733867D02*
X101707100Y-112767200D01*
X101707100Y-112767200D02*
X101745195Y-112833867D01*
X101745195Y-112833867D02*
X101745195Y-113033867D01*
X101745195Y-113033867D02*
X101707100Y-113100533D01*
X101707100Y-113100533D02*
X101669004Y-113133867D01*
%TO.C,J4*%
X118335966Y-89313295D02*
X118335966Y-89884723D01*
X118335966Y-89884723D02*
X118302633Y-89999009D01*
X118302633Y-89999009D02*
X118235966Y-90075200D01*
X118235966Y-90075200D02*
X118135966Y-90113295D01*
X118135966Y-90113295D02*
X118069300Y-90113295D01*
X118969299Y-89579961D02*
X118969299Y-90113295D01*
X118802633Y-89275200D02*
X118635966Y-89846628D01*
X118635966Y-89846628D02*
X119069299Y-89846628D01*
%TO.C,C1*%
X97415033Y-85609504D02*
X97381700Y-85647600D01*
X97381700Y-85647600D02*
X97281700Y-85685695D01*
X97281700Y-85685695D02*
X97215033Y-85685695D01*
X97215033Y-85685695D02*
X97115033Y-85647600D01*
X97115033Y-85647600D02*
X97048367Y-85571409D01*
X97048367Y-85571409D02*
X97015033Y-85495219D01*
X97015033Y-85495219D02*
X96981700Y-85342838D01*
X96981700Y-85342838D02*
X96981700Y-85228552D01*
X96981700Y-85228552D02*
X97015033Y-85076171D01*
X97015033Y-85076171D02*
X97048367Y-84999980D01*
X97048367Y-84999980D02*
X97115033Y-84923790D01*
X97115033Y-84923790D02*
X97215033Y-84885695D01*
X97215033Y-84885695D02*
X97281700Y-84885695D01*
X97281700Y-84885695D02*
X97381700Y-84923790D01*
X97381700Y-84923790D02*
X97415033Y-84961885D01*
X98081700Y-85685695D02*
X97681700Y-85685695D01*
X97881700Y-85685695D02*
X97881700Y-84885695D01*
X97881700Y-84885695D02*
X97815033Y-84999980D01*
X97815033Y-84999980D02*
X97748367Y-85076171D01*
X97748367Y-85076171D02*
X97681700Y-85114266D01*
X96381700Y-88245695D02*
X96448366Y-88245695D01*
X96448366Y-88245695D02*
X96515033Y-88283790D01*
X96515033Y-88283790D02*
X96548366Y-88321885D01*
X96548366Y-88321885D02*
X96581700Y-88398076D01*
X96581700Y-88398076D02*
X96615033Y-88550457D01*
X96615033Y-88550457D02*
X96615033Y-88740933D01*
X96615033Y-88740933D02*
X96581700Y-88893314D01*
X96581700Y-88893314D02*
X96548366Y-88969504D01*
X96548366Y-88969504D02*
X96515033Y-89007600D01*
X96515033Y-89007600D02*
X96448366Y-89045695D01*
X96448366Y-89045695D02*
X96381700Y-89045695D01*
X96381700Y-89045695D02*
X96315033Y-89007600D01*
X96315033Y-89007600D02*
X96281700Y-88969504D01*
X96281700Y-88969504D02*
X96248366Y-88893314D01*
X96248366Y-88893314D02*
X96215033Y-88740933D01*
X96215033Y-88740933D02*
X96215033Y-88550457D01*
X96215033Y-88550457D02*
X96248366Y-88398076D01*
X96248366Y-88398076D02*
X96281700Y-88321885D01*
X96281700Y-88321885D02*
X96315033Y-88283790D01*
X96315033Y-88283790D02*
X96381700Y-88245695D01*
X96915033Y-88969504D02*
X96948367Y-89007600D01*
X96948367Y-89007600D02*
X96915033Y-89045695D01*
X96915033Y-89045695D02*
X96881700Y-89007600D01*
X96881700Y-89007600D02*
X96915033Y-88969504D01*
X96915033Y-88969504D02*
X96915033Y-89045695D01*
X97615033Y-89045695D02*
X97215033Y-89045695D01*
X97415033Y-89045695D02*
X97415033Y-88245695D01*
X97415033Y-88245695D02*
X97348366Y-88359980D01*
X97348366Y-88359980D02*
X97281700Y-88436171D01*
X97281700Y-88436171D02*
X97215033Y-88474266D01*
X98215033Y-88512361D02*
X98215033Y-89045695D01*
X97915033Y-88512361D02*
X97915033Y-88931409D01*
X97915033Y-88931409D02*
X97948367Y-89007600D01*
X97948367Y-89007600D02*
X98015033Y-89045695D01*
X98015033Y-89045695D02*
X98115033Y-89045695D01*
X98115033Y-89045695D02*
X98181700Y-89007600D01*
X98181700Y-89007600D02*
X98215033Y-88969504D01*
X98781700Y-88626647D02*
X98548366Y-88626647D01*
X98548366Y-89045695D02*
X98548366Y-88245695D01*
X98548366Y-88245695D02*
X98881700Y-88245695D01*
%TO.C,BT1*%
X72553300Y-91347047D02*
X72653300Y-91385142D01*
X72653300Y-91385142D02*
X72686633Y-91423238D01*
X72686633Y-91423238D02*
X72719966Y-91499428D01*
X72719966Y-91499428D02*
X72719966Y-91613714D01*
X72719966Y-91613714D02*
X72686633Y-91689904D01*
X72686633Y-91689904D02*
X72653300Y-91728000D01*
X72653300Y-91728000D02*
X72586633Y-91766095D01*
X72586633Y-91766095D02*
X72319966Y-91766095D01*
X72319966Y-91766095D02*
X72319966Y-90966095D01*
X72319966Y-90966095D02*
X72553300Y-90966095D01*
X72553300Y-90966095D02*
X72619966Y-91004190D01*
X72619966Y-91004190D02*
X72653300Y-91042285D01*
X72653300Y-91042285D02*
X72686633Y-91118476D01*
X72686633Y-91118476D02*
X72686633Y-91194666D01*
X72686633Y-91194666D02*
X72653300Y-91270857D01*
X72653300Y-91270857D02*
X72619966Y-91308952D01*
X72619966Y-91308952D02*
X72553300Y-91347047D01*
X72553300Y-91347047D02*
X72319966Y-91347047D01*
X72919966Y-90966095D02*
X73319966Y-90966095D01*
X73119966Y-91766095D02*
X73119966Y-90966095D01*
X73919966Y-91766095D02*
X73519966Y-91766095D01*
X73719966Y-91766095D02*
X73719966Y-90966095D01*
X73719966Y-90966095D02*
X73653299Y-91080380D01*
X73653299Y-91080380D02*
X73586633Y-91156571D01*
X73586633Y-91156571D02*
X73519966Y-91194666D01*
X71653301Y-98547047D02*
X71753301Y-98585142D01*
X71753301Y-98585142D02*
X71786634Y-98623238D01*
X71786634Y-98623238D02*
X71819967Y-98699428D01*
X71819967Y-98699428D02*
X71819967Y-98813714D01*
X71819967Y-98813714D02*
X71786634Y-98889904D01*
X71786634Y-98889904D02*
X71753301Y-98928000D01*
X71753301Y-98928000D02*
X71686634Y-98966095D01*
X71686634Y-98966095D02*
X71419967Y-98966095D01*
X71419967Y-98966095D02*
X71419967Y-98166095D01*
X71419967Y-98166095D02*
X71653301Y-98166095D01*
X71653301Y-98166095D02*
X71719967Y-98204190D01*
X71719967Y-98204190D02*
X71753301Y-98242285D01*
X71753301Y-98242285D02*
X71786634Y-98318476D01*
X71786634Y-98318476D02*
X71786634Y-98394666D01*
X71786634Y-98394666D02*
X71753301Y-98470857D01*
X71753301Y-98470857D02*
X71719967Y-98508952D01*
X71719967Y-98508952D02*
X71653301Y-98547047D01*
X71653301Y-98547047D02*
X71419967Y-98547047D01*
X72419967Y-98966095D02*
X72419967Y-98547047D01*
X72419967Y-98547047D02*
X72386634Y-98470857D01*
X72386634Y-98470857D02*
X72319967Y-98432761D01*
X72319967Y-98432761D02*
X72186634Y-98432761D01*
X72186634Y-98432761D02*
X72119967Y-98470857D01*
X72419967Y-98928000D02*
X72353301Y-98966095D01*
X72353301Y-98966095D02*
X72186634Y-98966095D01*
X72186634Y-98966095D02*
X72119967Y-98928000D01*
X72119967Y-98928000D02*
X72086634Y-98851809D01*
X72086634Y-98851809D02*
X72086634Y-98775619D01*
X72086634Y-98775619D02*
X72119967Y-98699428D01*
X72119967Y-98699428D02*
X72186634Y-98661333D01*
X72186634Y-98661333D02*
X72353301Y-98661333D01*
X72353301Y-98661333D02*
X72419967Y-98623238D01*
X72653300Y-98432761D02*
X72919967Y-98432761D01*
X72753300Y-98166095D02*
X72753300Y-98851809D01*
X72753300Y-98851809D02*
X72786634Y-98928000D01*
X72786634Y-98928000D02*
X72853300Y-98966095D01*
X72853300Y-98966095D02*
X72919967Y-98966095D01*
X73053300Y-98432761D02*
X73319967Y-98432761D01*
X73153300Y-98166095D02*
X73153300Y-98851809D01*
X73153300Y-98851809D02*
X73186634Y-98928000D01*
X73186634Y-98928000D02*
X73253300Y-98966095D01*
X73253300Y-98966095D02*
X73319967Y-98966095D01*
X73819967Y-98928000D02*
X73753300Y-98966095D01*
X73753300Y-98966095D02*
X73619967Y-98966095D01*
X73619967Y-98966095D02*
X73553300Y-98928000D01*
X73553300Y-98928000D02*
X73519967Y-98851809D01*
X73519967Y-98851809D02*
X73519967Y-98547047D01*
X73519967Y-98547047D02*
X73553300Y-98470857D01*
X73553300Y-98470857D02*
X73619967Y-98432761D01*
X73619967Y-98432761D02*
X73753300Y-98432761D01*
X73753300Y-98432761D02*
X73819967Y-98470857D01*
X73819967Y-98470857D02*
X73853300Y-98547047D01*
X73853300Y-98547047D02*
X73853300Y-98623238D01*
X73853300Y-98623238D02*
X73519967Y-98699428D01*
X74153300Y-98966095D02*
X74153300Y-98432761D01*
X74153300Y-98585142D02*
X74186634Y-98508952D01*
X74186634Y-98508952D02*
X74219967Y-98470857D01*
X74219967Y-98470857D02*
X74286634Y-98432761D01*
X74286634Y-98432761D02*
X74353300Y-98432761D01*
X74519967Y-98432761D02*
X74686633Y-98966095D01*
X74853300Y-98432761D02*
X74686633Y-98966095D01*
X74686633Y-98966095D02*
X74619967Y-99156571D01*
X74619967Y-99156571D02*
X74586633Y-99194666D01*
X74586633Y-99194666D02*
X74519967Y-99232761D01*
%TO.C,H3*%
X116283366Y-84195495D02*
X116283366Y-83395495D01*
X116283366Y-83776447D02*
X116683366Y-83776447D01*
X116683366Y-84195495D02*
X116683366Y-83395495D01*
X116950033Y-83395495D02*
X117383366Y-83395495D01*
X117383366Y-83395495D02*
X117150033Y-83700257D01*
X117150033Y-83700257D02*
X117250033Y-83700257D01*
X117250033Y-83700257D02*
X117316699Y-83738352D01*
X117316699Y-83738352D02*
X117350033Y-83776447D01*
X117350033Y-83776447D02*
X117383366Y-83852638D01*
X117383366Y-83852638D02*
X117383366Y-84043114D01*
X117383366Y-84043114D02*
X117350033Y-84119304D01*
X117350033Y-84119304D02*
X117316699Y-84157400D01*
X117316699Y-84157400D02*
X117250033Y-84195495D01*
X117250033Y-84195495D02*
X117050033Y-84195495D01*
X117050033Y-84195495D02*
X116983366Y-84157400D01*
X116983366Y-84157400D02*
X116950033Y-84119304D01*
%TO.C,R1*%
X101383833Y-92526295D02*
X101150500Y-92145342D01*
X100983833Y-92526295D02*
X100983833Y-91726295D01*
X100983833Y-91726295D02*
X101250500Y-91726295D01*
X101250500Y-91726295D02*
X101317167Y-91764390D01*
X101317167Y-91764390D02*
X101350500Y-91802485D01*
X101350500Y-91802485D02*
X101383833Y-91878676D01*
X101383833Y-91878676D02*
X101383833Y-91992961D01*
X101383833Y-91992961D02*
X101350500Y-92069152D01*
X101350500Y-92069152D02*
X101317167Y-92107247D01*
X101317167Y-92107247D02*
X101250500Y-92145342D01*
X101250500Y-92145342D02*
X100983833Y-92145342D01*
X102050500Y-92526295D02*
X101650500Y-92526295D01*
X101850500Y-92526295D02*
X101850500Y-91726295D01*
X101850500Y-91726295D02*
X101783833Y-91840580D01*
X101783833Y-91840580D02*
X101717167Y-91916771D01*
X101717167Y-91916771D02*
X101650500Y-91954866D01*
X103266633Y-93409961D02*
X103266633Y-93943295D01*
X103099967Y-93105200D02*
X102933300Y-93676628D01*
X102933300Y-93676628D02*
X103366633Y-93676628D01*
X103633300Y-93867104D02*
X103666634Y-93905200D01*
X103666634Y-93905200D02*
X103633300Y-93943295D01*
X103633300Y-93943295D02*
X103599967Y-93905200D01*
X103599967Y-93905200D02*
X103633300Y-93867104D01*
X103633300Y-93867104D02*
X103633300Y-93943295D01*
X103899967Y-93143295D02*
X104366633Y-93143295D01*
X104366633Y-93143295D02*
X104066633Y-93943295D01*
X104633300Y-93943295D02*
X104633300Y-93143295D01*
X105033300Y-93943295D02*
X104733300Y-93486152D01*
X105033300Y-93143295D02*
X104633300Y-93600438D01*
%TO.C,C4*%
X92970033Y-85660304D02*
X92936700Y-85698400D01*
X92936700Y-85698400D02*
X92836700Y-85736495D01*
X92836700Y-85736495D02*
X92770033Y-85736495D01*
X92770033Y-85736495D02*
X92670033Y-85698400D01*
X92670033Y-85698400D02*
X92603367Y-85622209D01*
X92603367Y-85622209D02*
X92570033Y-85546019D01*
X92570033Y-85546019D02*
X92536700Y-85393638D01*
X92536700Y-85393638D02*
X92536700Y-85279352D01*
X92536700Y-85279352D02*
X92570033Y-85126971D01*
X92570033Y-85126971D02*
X92603367Y-85050780D01*
X92603367Y-85050780D02*
X92670033Y-84974590D01*
X92670033Y-84974590D02*
X92770033Y-84936495D01*
X92770033Y-84936495D02*
X92836700Y-84936495D01*
X92836700Y-84936495D02*
X92936700Y-84974590D01*
X92936700Y-84974590D02*
X92970033Y-85012685D01*
X93570033Y-85203161D02*
X93570033Y-85736495D01*
X93403367Y-84898400D02*
X93236700Y-85469828D01*
X93236700Y-85469828D02*
X93670033Y-85469828D01*
X91936700Y-88296495D02*
X92003366Y-88296495D01*
X92003366Y-88296495D02*
X92070033Y-88334590D01*
X92070033Y-88334590D02*
X92103366Y-88372685D01*
X92103366Y-88372685D02*
X92136700Y-88448876D01*
X92136700Y-88448876D02*
X92170033Y-88601257D01*
X92170033Y-88601257D02*
X92170033Y-88791733D01*
X92170033Y-88791733D02*
X92136700Y-88944114D01*
X92136700Y-88944114D02*
X92103366Y-89020304D01*
X92103366Y-89020304D02*
X92070033Y-89058400D01*
X92070033Y-89058400D02*
X92003366Y-89096495D01*
X92003366Y-89096495D02*
X91936700Y-89096495D01*
X91936700Y-89096495D02*
X91870033Y-89058400D01*
X91870033Y-89058400D02*
X91836700Y-89020304D01*
X91836700Y-89020304D02*
X91803366Y-88944114D01*
X91803366Y-88944114D02*
X91770033Y-88791733D01*
X91770033Y-88791733D02*
X91770033Y-88601257D01*
X91770033Y-88601257D02*
X91803366Y-88448876D01*
X91803366Y-88448876D02*
X91836700Y-88372685D01*
X91836700Y-88372685D02*
X91870033Y-88334590D01*
X91870033Y-88334590D02*
X91936700Y-88296495D01*
X92470033Y-89020304D02*
X92503367Y-89058400D01*
X92503367Y-89058400D02*
X92470033Y-89096495D01*
X92470033Y-89096495D02*
X92436700Y-89058400D01*
X92436700Y-89058400D02*
X92470033Y-89020304D01*
X92470033Y-89020304D02*
X92470033Y-89096495D01*
X93170033Y-89096495D02*
X92770033Y-89096495D01*
X92970033Y-89096495D02*
X92970033Y-88296495D01*
X92970033Y-88296495D02*
X92903366Y-88410780D01*
X92903366Y-88410780D02*
X92836700Y-88486971D01*
X92836700Y-88486971D02*
X92770033Y-88525066D01*
X93770033Y-88563161D02*
X93770033Y-89096495D01*
X93470033Y-88563161D02*
X93470033Y-88982209D01*
X93470033Y-88982209D02*
X93503367Y-89058400D01*
X93503367Y-89058400D02*
X93570033Y-89096495D01*
X93570033Y-89096495D02*
X93670033Y-89096495D01*
X93670033Y-89096495D02*
X93736700Y-89058400D01*
X93736700Y-89058400D02*
X93770033Y-89020304D01*
X94336700Y-88677447D02*
X94103366Y-88677447D01*
X94103366Y-89096495D02*
X94103366Y-88296495D01*
X94103366Y-88296495D02*
X94436700Y-88296495D01*
%TO.C,Y1*%
X69957042Y-105245533D02*
X70337995Y-105245533D01*
X69537995Y-105478866D02*
X69957042Y-105245533D01*
X69957042Y-105245533D02*
X69537995Y-105012199D01*
X70337995Y-104412199D02*
X70337995Y-104812199D01*
X70337995Y-104612199D02*
X69537995Y-104612199D01*
X69537995Y-104612199D02*
X69652280Y-104678866D01*
X69652280Y-104678866D02*
X69728471Y-104745533D01*
X69728471Y-104745533D02*
X69766566Y-104812199D01*
X74877995Y-106312000D02*
X74877995Y-105878666D01*
X74877995Y-105878666D02*
X75182757Y-106112000D01*
X75182757Y-106112000D02*
X75182757Y-106012000D01*
X75182757Y-106012000D02*
X75220852Y-105945333D01*
X75220852Y-105945333D02*
X75258947Y-105912000D01*
X75258947Y-105912000D02*
X75335138Y-105878666D01*
X75335138Y-105878666D02*
X75525614Y-105878666D01*
X75525614Y-105878666D02*
X75601804Y-105912000D01*
X75601804Y-105912000D02*
X75639900Y-105945333D01*
X75639900Y-105945333D02*
X75677995Y-106012000D01*
X75677995Y-106012000D02*
X75677995Y-106212000D01*
X75677995Y-106212000D02*
X75639900Y-106278666D01*
X75639900Y-106278666D02*
X75601804Y-106312000D01*
X74954185Y-105611999D02*
X74916090Y-105578666D01*
X74916090Y-105578666D02*
X74877995Y-105511999D01*
X74877995Y-105511999D02*
X74877995Y-105345333D01*
X74877995Y-105345333D02*
X74916090Y-105278666D01*
X74916090Y-105278666D02*
X74954185Y-105245333D01*
X74954185Y-105245333D02*
X75030376Y-105211999D01*
X75030376Y-105211999D02*
X75106566Y-105211999D01*
X75106566Y-105211999D02*
X75220852Y-105245333D01*
X75220852Y-105245333D02*
X75677995Y-105645333D01*
X75677995Y-105645333D02*
X75677995Y-105211999D01*
X75601804Y-104911999D02*
X75639900Y-104878666D01*
X75639900Y-104878666D02*
X75677995Y-104911999D01*
X75677995Y-104911999D02*
X75639900Y-104945332D01*
X75639900Y-104945332D02*
X75601804Y-104911999D01*
X75601804Y-104911999D02*
X75677995Y-104911999D01*
X74877995Y-104645333D02*
X74877995Y-104178666D01*
X74877995Y-104178666D02*
X75677995Y-104478666D01*
X74877995Y-103611999D02*
X74877995Y-103745332D01*
X74877995Y-103745332D02*
X74916090Y-103811999D01*
X74916090Y-103811999D02*
X74954185Y-103845332D01*
X74954185Y-103845332D02*
X75068471Y-103911999D01*
X75068471Y-103911999D02*
X75220852Y-103945332D01*
X75220852Y-103945332D02*
X75525614Y-103945332D01*
X75525614Y-103945332D02*
X75601804Y-103911999D01*
X75601804Y-103911999D02*
X75639900Y-103878666D01*
X75639900Y-103878666D02*
X75677995Y-103811999D01*
X75677995Y-103811999D02*
X75677995Y-103678666D01*
X75677995Y-103678666D02*
X75639900Y-103611999D01*
X75639900Y-103611999D02*
X75601804Y-103578666D01*
X75601804Y-103578666D02*
X75525614Y-103545332D01*
X75525614Y-103545332D02*
X75335138Y-103545332D01*
X75335138Y-103545332D02*
X75258947Y-103578666D01*
X75258947Y-103578666D02*
X75220852Y-103611999D01*
X75220852Y-103611999D02*
X75182757Y-103678666D01*
X75182757Y-103678666D02*
X75182757Y-103811999D01*
X75182757Y-103811999D02*
X75220852Y-103878666D01*
X75220852Y-103878666D02*
X75258947Y-103911999D01*
X75258947Y-103911999D02*
X75335138Y-103945332D01*
X75220852Y-103145332D02*
X75182757Y-103211999D01*
X75182757Y-103211999D02*
X75144661Y-103245332D01*
X75144661Y-103245332D02*
X75068471Y-103278665D01*
X75068471Y-103278665D02*
X75030376Y-103278665D01*
X75030376Y-103278665D02*
X74954185Y-103245332D01*
X74954185Y-103245332D02*
X74916090Y-103211999D01*
X74916090Y-103211999D02*
X74877995Y-103145332D01*
X74877995Y-103145332D02*
X74877995Y-103011999D01*
X74877995Y-103011999D02*
X74916090Y-102945332D01*
X74916090Y-102945332D02*
X74954185Y-102911999D01*
X74954185Y-102911999D02*
X75030376Y-102878665D01*
X75030376Y-102878665D02*
X75068471Y-102878665D01*
X75068471Y-102878665D02*
X75144661Y-102911999D01*
X75144661Y-102911999D02*
X75182757Y-102945332D01*
X75182757Y-102945332D02*
X75220852Y-103011999D01*
X75220852Y-103011999D02*
X75220852Y-103145332D01*
X75220852Y-103145332D02*
X75258947Y-103211999D01*
X75258947Y-103211999D02*
X75297042Y-103245332D01*
X75297042Y-103245332D02*
X75373233Y-103278665D01*
X75373233Y-103278665D02*
X75525614Y-103278665D01*
X75525614Y-103278665D02*
X75601804Y-103245332D01*
X75601804Y-103245332D02*
X75639900Y-103211999D01*
X75639900Y-103211999D02*
X75677995Y-103145332D01*
X75677995Y-103145332D02*
X75677995Y-103011999D01*
X75677995Y-103011999D02*
X75639900Y-102945332D01*
X75639900Y-102945332D02*
X75601804Y-102911999D01*
X75601804Y-102911999D02*
X75525614Y-102878665D01*
X75525614Y-102878665D02*
X75373233Y-102878665D01*
X75373233Y-102878665D02*
X75297042Y-102911999D01*
X75297042Y-102911999D02*
X75258947Y-102945332D01*
X75258947Y-102945332D02*
X75220852Y-103011999D01*
X75677995Y-102045332D02*
X74877995Y-102045332D01*
X75677995Y-101645332D02*
X75220852Y-101945332D01*
X74877995Y-101645332D02*
X75335138Y-102045332D01*
X75677995Y-101345332D02*
X74877995Y-101345332D01*
X75258947Y-101345332D02*
X75258947Y-100945332D01*
X75677995Y-100945332D02*
X74877995Y-100945332D01*
X75144661Y-100678666D02*
X75144661Y-100311999D01*
X75144661Y-100311999D02*
X75677995Y-100678666D01*
X75677995Y-100678666D02*
X75677995Y-100311999D01*
%TO.C,R2*%
X109452733Y-90567095D02*
X109219400Y-90186142D01*
X109052733Y-90567095D02*
X109052733Y-89767095D01*
X109052733Y-89767095D02*
X109319400Y-89767095D01*
X109319400Y-89767095D02*
X109386067Y-89805190D01*
X109386067Y-89805190D02*
X109419400Y-89843285D01*
X109419400Y-89843285D02*
X109452733Y-89919476D01*
X109452733Y-89919476D02*
X109452733Y-90033761D01*
X109452733Y-90033761D02*
X109419400Y-90109952D01*
X109419400Y-90109952D02*
X109386067Y-90148047D01*
X109386067Y-90148047D02*
X109319400Y-90186142D01*
X109319400Y-90186142D02*
X109052733Y-90186142D01*
X109719400Y-89843285D02*
X109752733Y-89805190D01*
X109752733Y-89805190D02*
X109819400Y-89767095D01*
X109819400Y-89767095D02*
X109986067Y-89767095D01*
X109986067Y-89767095D02*
X110052733Y-89805190D01*
X110052733Y-89805190D02*
X110086067Y-89843285D01*
X110086067Y-89843285D02*
X110119400Y-89919476D01*
X110119400Y-89919476D02*
X110119400Y-89995666D01*
X110119400Y-89995666D02*
X110086067Y-90109952D01*
X110086067Y-90109952D02*
X109686067Y-90567095D01*
X109686067Y-90567095D02*
X110119400Y-90567095D01*
X108852733Y-93333761D02*
X108852733Y-93867095D01*
X108686067Y-93029000D02*
X108519400Y-93600428D01*
X108519400Y-93600428D02*
X108952733Y-93600428D01*
X109219400Y-93790904D02*
X109252734Y-93829000D01*
X109252734Y-93829000D02*
X109219400Y-93867095D01*
X109219400Y-93867095D02*
X109186067Y-93829000D01*
X109186067Y-93829000D02*
X109219400Y-93790904D01*
X109219400Y-93790904D02*
X109219400Y-93867095D01*
X109486067Y-93067095D02*
X109952733Y-93067095D01*
X109952733Y-93067095D02*
X109652733Y-93867095D01*
X110219400Y-93867095D02*
X110219400Y-93067095D01*
X110619400Y-93867095D02*
X110319400Y-93409952D01*
X110619400Y-93067095D02*
X110219400Y-93524238D01*
%TO.C,D1*%
X109072733Y-86071295D02*
X109072733Y-85271295D01*
X109072733Y-85271295D02*
X109239400Y-85271295D01*
X109239400Y-85271295D02*
X109339400Y-85309390D01*
X109339400Y-85309390D02*
X109406067Y-85385580D01*
X109406067Y-85385580D02*
X109439400Y-85461771D01*
X109439400Y-85461771D02*
X109472733Y-85614152D01*
X109472733Y-85614152D02*
X109472733Y-85728438D01*
X109472733Y-85728438D02*
X109439400Y-85880819D01*
X109439400Y-85880819D02*
X109406067Y-85957009D01*
X109406067Y-85957009D02*
X109339400Y-86033200D01*
X109339400Y-86033200D02*
X109239400Y-86071295D01*
X109239400Y-86071295D02*
X109072733Y-86071295D01*
X110139400Y-86071295D02*
X109739400Y-86071295D01*
X109939400Y-86071295D02*
X109939400Y-85271295D01*
X109939400Y-85271295D02*
X109872733Y-85385580D01*
X109872733Y-85385580D02*
X109806067Y-85461771D01*
X109806067Y-85461771D02*
X109739400Y-85499866D01*
X109139400Y-89371295D02*
X108806066Y-89371295D01*
X108806066Y-89371295D02*
X108806066Y-88571295D01*
X109372733Y-88952247D02*
X109606067Y-88952247D01*
X109706067Y-89371295D02*
X109372733Y-89371295D01*
X109372733Y-89371295D02*
X109372733Y-88571295D01*
X109372733Y-88571295D02*
X109706067Y-88571295D01*
X110006066Y-89371295D02*
X110006066Y-88571295D01*
X110006066Y-88571295D02*
X110172733Y-88571295D01*
X110172733Y-88571295D02*
X110272733Y-88609390D01*
X110272733Y-88609390D02*
X110339400Y-88685580D01*
X110339400Y-88685580D02*
X110372733Y-88761771D01*
X110372733Y-88761771D02*
X110406066Y-88914152D01*
X110406066Y-88914152D02*
X110406066Y-89028438D01*
X110406066Y-89028438D02*
X110372733Y-89180819D01*
X110372733Y-89180819D02*
X110339400Y-89257009D01*
X110339400Y-89257009D02*
X110272733Y-89333200D01*
X110272733Y-89333200D02*
X110172733Y-89371295D01*
X110172733Y-89371295D02*
X110006066Y-89371295D01*
%TO.C,R6*%
X101256833Y-97047495D02*
X101023500Y-96666542D01*
X100856833Y-97047495D02*
X100856833Y-96247495D01*
X100856833Y-96247495D02*
X101123500Y-96247495D01*
X101123500Y-96247495D02*
X101190167Y-96285590D01*
X101190167Y-96285590D02*
X101223500Y-96323685D01*
X101223500Y-96323685D02*
X101256833Y-96399876D01*
X101256833Y-96399876D02*
X101256833Y-96514161D01*
X101256833Y-96514161D02*
X101223500Y-96590352D01*
X101223500Y-96590352D02*
X101190167Y-96628447D01*
X101190167Y-96628447D02*
X101123500Y-96666542D01*
X101123500Y-96666542D02*
X100856833Y-96666542D01*
X101856833Y-96247495D02*
X101723500Y-96247495D01*
X101723500Y-96247495D02*
X101656833Y-96285590D01*
X101656833Y-96285590D02*
X101623500Y-96323685D01*
X101623500Y-96323685D02*
X101556833Y-96437971D01*
X101556833Y-96437971D02*
X101523500Y-96590352D01*
X101523500Y-96590352D02*
X101523500Y-96895114D01*
X101523500Y-96895114D02*
X101556833Y-96971304D01*
X101556833Y-96971304D02*
X101590167Y-97009400D01*
X101590167Y-97009400D02*
X101656833Y-97047495D01*
X101656833Y-97047495D02*
X101790167Y-97047495D01*
X101790167Y-97047495D02*
X101856833Y-97009400D01*
X101856833Y-97009400D02*
X101890167Y-96971304D01*
X101890167Y-96971304D02*
X101923500Y-96895114D01*
X101923500Y-96895114D02*
X101923500Y-96704638D01*
X101923500Y-96704638D02*
X101890167Y-96628447D01*
X101890167Y-96628447D02*
X101856833Y-96590352D01*
X101856833Y-96590352D02*
X101790167Y-96552257D01*
X101790167Y-96552257D02*
X101656833Y-96552257D01*
X101656833Y-96552257D02*
X101590167Y-96590352D01*
X101590167Y-96590352D02*
X101556833Y-96628447D01*
X101556833Y-96628447D02*
X101523500Y-96704638D01*
X103499966Y-98616895D02*
X103099966Y-98616895D01*
X103299966Y-98616895D02*
X103299966Y-97816895D01*
X103299966Y-97816895D02*
X103233299Y-97931180D01*
X103233299Y-97931180D02*
X103166633Y-98007371D01*
X103166633Y-98007371D02*
X103099966Y-98045466D01*
X103933300Y-97816895D02*
X103999966Y-97816895D01*
X103999966Y-97816895D02*
X104066633Y-97854990D01*
X104066633Y-97854990D02*
X104099966Y-97893085D01*
X104099966Y-97893085D02*
X104133300Y-97969276D01*
X104133300Y-97969276D02*
X104166633Y-98121657D01*
X104166633Y-98121657D02*
X104166633Y-98312133D01*
X104166633Y-98312133D02*
X104133300Y-98464514D01*
X104133300Y-98464514D02*
X104099966Y-98540704D01*
X104099966Y-98540704D02*
X104066633Y-98578800D01*
X104066633Y-98578800D02*
X103999966Y-98616895D01*
X103999966Y-98616895D02*
X103933300Y-98616895D01*
X103933300Y-98616895D02*
X103866633Y-98578800D01*
X103866633Y-98578800D02*
X103833300Y-98540704D01*
X103833300Y-98540704D02*
X103799966Y-98464514D01*
X103799966Y-98464514D02*
X103766633Y-98312133D01*
X103766633Y-98312133D02*
X103766633Y-98121657D01*
X103766633Y-98121657D02*
X103799966Y-97969276D01*
X103799966Y-97969276D02*
X103833300Y-97893085D01*
X103833300Y-97893085D02*
X103866633Y-97854990D01*
X103866633Y-97854990D02*
X103933300Y-97816895D01*
X104466633Y-98616895D02*
X104466633Y-97816895D01*
X104866633Y-98616895D02*
X104566633Y-98159752D01*
X104866633Y-97816895D02*
X104466633Y-98274038D01*
%TO.C,C2*%
X101307633Y-104134104D02*
X101274300Y-104172200D01*
X101274300Y-104172200D02*
X101174300Y-104210295D01*
X101174300Y-104210295D02*
X101107633Y-104210295D01*
X101107633Y-104210295D02*
X101007633Y-104172200D01*
X101007633Y-104172200D02*
X100940967Y-104096009D01*
X100940967Y-104096009D02*
X100907633Y-104019819D01*
X100907633Y-104019819D02*
X100874300Y-103867438D01*
X100874300Y-103867438D02*
X100874300Y-103753152D01*
X100874300Y-103753152D02*
X100907633Y-103600771D01*
X100907633Y-103600771D02*
X100940967Y-103524580D01*
X100940967Y-103524580D02*
X101007633Y-103448390D01*
X101007633Y-103448390D02*
X101107633Y-103410295D01*
X101107633Y-103410295D02*
X101174300Y-103410295D01*
X101174300Y-103410295D02*
X101274300Y-103448390D01*
X101274300Y-103448390D02*
X101307633Y-103486485D01*
X101574300Y-103486485D02*
X101607633Y-103448390D01*
X101607633Y-103448390D02*
X101674300Y-103410295D01*
X101674300Y-103410295D02*
X101840967Y-103410295D01*
X101840967Y-103410295D02*
X101907633Y-103448390D01*
X101907633Y-103448390D02*
X101940967Y-103486485D01*
X101940967Y-103486485D02*
X101974300Y-103562676D01*
X101974300Y-103562676D02*
X101974300Y-103638866D01*
X101974300Y-103638866D02*
X101940967Y-103753152D01*
X101940967Y-103753152D02*
X101540967Y-104210295D01*
X101540967Y-104210295D02*
X101974300Y-104210295D01*
X102833300Y-105187485D02*
X102866633Y-105149390D01*
X102866633Y-105149390D02*
X102933300Y-105111295D01*
X102933300Y-105111295D02*
X103099967Y-105111295D01*
X103099967Y-105111295D02*
X103166633Y-105149390D01*
X103166633Y-105149390D02*
X103199967Y-105187485D01*
X103199967Y-105187485D02*
X103233300Y-105263676D01*
X103233300Y-105263676D02*
X103233300Y-105339866D01*
X103233300Y-105339866D02*
X103199967Y-105454152D01*
X103199967Y-105454152D02*
X102799967Y-105911295D01*
X102799967Y-105911295D02*
X103233300Y-105911295D01*
X103499967Y-105187485D02*
X103533300Y-105149390D01*
X103533300Y-105149390D02*
X103599967Y-105111295D01*
X103599967Y-105111295D02*
X103766634Y-105111295D01*
X103766634Y-105111295D02*
X103833300Y-105149390D01*
X103833300Y-105149390D02*
X103866634Y-105187485D01*
X103866634Y-105187485D02*
X103899967Y-105263676D01*
X103899967Y-105263676D02*
X103899967Y-105339866D01*
X103899967Y-105339866D02*
X103866634Y-105454152D01*
X103866634Y-105454152D02*
X103466634Y-105911295D01*
X103466634Y-105911295D02*
X103899967Y-105911295D01*
X104199967Y-105377961D02*
X104199967Y-106177961D01*
X104199967Y-105416057D02*
X104266634Y-105377961D01*
X104266634Y-105377961D02*
X104399967Y-105377961D01*
X104399967Y-105377961D02*
X104466634Y-105416057D01*
X104466634Y-105416057D02*
X104499967Y-105454152D01*
X104499967Y-105454152D02*
X104533301Y-105530342D01*
X104533301Y-105530342D02*
X104533301Y-105758914D01*
X104533301Y-105758914D02*
X104499967Y-105835104D01*
X104499967Y-105835104D02*
X104466634Y-105873200D01*
X104466634Y-105873200D02*
X104399967Y-105911295D01*
X104399967Y-105911295D02*
X104266634Y-105911295D01*
X104266634Y-105911295D02*
X104199967Y-105873200D01*
X105066634Y-105492247D02*
X104833300Y-105492247D01*
X104833300Y-105911295D02*
X104833300Y-105111295D01*
X104833300Y-105111295D02*
X105166634Y-105111295D01*
%TO.C,U1*%
X80070766Y-92690695D02*
X80070766Y-93338314D01*
X80070766Y-93338314D02*
X80104100Y-93414504D01*
X80104100Y-93414504D02*
X80137433Y-93452600D01*
X80137433Y-93452600D02*
X80204100Y-93490695D01*
X80204100Y-93490695D02*
X80337433Y-93490695D01*
X80337433Y-93490695D02*
X80404100Y-93452600D01*
X80404100Y-93452600D02*
X80437433Y-93414504D01*
X80437433Y-93414504D02*
X80470766Y-93338314D01*
X80470766Y-93338314D02*
X80470766Y-92690695D01*
X81170766Y-93490695D02*
X80770766Y-93490695D01*
X80970766Y-93490695D02*
X80970766Y-92690695D01*
X80970766Y-92690695D02*
X80904099Y-92804980D01*
X80904099Y-92804980D02*
X80837433Y-92881171D01*
X80837433Y-92881171D02*
X80770766Y-92919266D01*
X78104099Y-99566885D02*
X78137432Y-99528790D01*
X78137432Y-99528790D02*
X78204099Y-99490695D01*
X78204099Y-99490695D02*
X78370766Y-99490695D01*
X78370766Y-99490695D02*
X78437432Y-99528790D01*
X78437432Y-99528790D02*
X78470766Y-99566885D01*
X78470766Y-99566885D02*
X78504099Y-99643076D01*
X78504099Y-99643076D02*
X78504099Y-99719266D01*
X78504099Y-99719266D02*
X78470766Y-99833552D01*
X78470766Y-99833552D02*
X78070766Y-100290695D01*
X78070766Y-100290695D02*
X78504099Y-100290695D01*
X79104099Y-99757361D02*
X79104099Y-100290695D01*
X78937433Y-99452600D02*
X78770766Y-100024028D01*
X78770766Y-100024028D02*
X79204099Y-100024028D01*
X79804100Y-100290695D02*
X79470766Y-100290695D01*
X79470766Y-100290695D02*
X79470766Y-99490695D01*
X80437433Y-100214504D02*
X80404100Y-100252600D01*
X80404100Y-100252600D02*
X80304100Y-100290695D01*
X80304100Y-100290695D02*
X80237433Y-100290695D01*
X80237433Y-100290695D02*
X80137433Y-100252600D01*
X80137433Y-100252600D02*
X80070767Y-100176409D01*
X80070767Y-100176409D02*
X80037433Y-100100219D01*
X80037433Y-100100219D02*
X80004100Y-99947838D01*
X80004100Y-99947838D02*
X80004100Y-99833552D01*
X80004100Y-99833552D02*
X80037433Y-99681171D01*
X80037433Y-99681171D02*
X80070767Y-99604980D01*
X80070767Y-99604980D02*
X80137433Y-99528790D01*
X80137433Y-99528790D02*
X80237433Y-99490695D01*
X80237433Y-99490695D02*
X80304100Y-99490695D01*
X80304100Y-99490695D02*
X80404100Y-99528790D01*
X80404100Y-99528790D02*
X80437433Y-99566885D01*
X81104100Y-100290695D02*
X80704100Y-100290695D01*
X80904100Y-100290695D02*
X80904100Y-99490695D01*
X80904100Y-99490695D02*
X80837433Y-99604980D01*
X80837433Y-99604980D02*
X80770767Y-99681171D01*
X80770767Y-99681171D02*
X80704100Y-99719266D01*
X81537434Y-99490695D02*
X81604100Y-99490695D01*
X81604100Y-99490695D02*
X81670767Y-99528790D01*
X81670767Y-99528790D02*
X81704100Y-99566885D01*
X81704100Y-99566885D02*
X81737434Y-99643076D01*
X81737434Y-99643076D02*
X81770767Y-99795457D01*
X81770767Y-99795457D02*
X81770767Y-99985933D01*
X81770767Y-99985933D02*
X81737434Y-100138314D01*
X81737434Y-100138314D02*
X81704100Y-100214504D01*
X81704100Y-100214504D02*
X81670767Y-100252600D01*
X81670767Y-100252600D02*
X81604100Y-100290695D01*
X81604100Y-100290695D02*
X81537434Y-100290695D01*
X81537434Y-100290695D02*
X81470767Y-100252600D01*
X81470767Y-100252600D02*
X81437434Y-100214504D01*
X81437434Y-100214504D02*
X81404100Y-100138314D01*
X81404100Y-100138314D02*
X81370767Y-99985933D01*
X81370767Y-99985933D02*
X81370767Y-99795457D01*
X81370767Y-99795457D02*
X81404100Y-99643076D01*
X81404100Y-99643076D02*
X81437434Y-99566885D01*
X81437434Y-99566885D02*
X81470767Y-99528790D01*
X81470767Y-99528790D02*
X81537434Y-99490695D01*
X82037434Y-99566885D02*
X82070767Y-99528790D01*
X82070767Y-99528790D02*
X82137434Y-99490695D01*
X82137434Y-99490695D02*
X82304101Y-99490695D01*
X82304101Y-99490695D02*
X82370767Y-99528790D01*
X82370767Y-99528790D02*
X82404101Y-99566885D01*
X82404101Y-99566885D02*
X82437434Y-99643076D01*
X82437434Y-99643076D02*
X82437434Y-99719266D01*
X82437434Y-99719266D02*
X82404101Y-99833552D01*
X82404101Y-99833552D02*
X82004101Y-100290695D01*
X82004101Y-100290695D02*
X82437434Y-100290695D01*
X83070768Y-99490695D02*
X82737434Y-99490695D01*
X82737434Y-99490695D02*
X82704101Y-99871647D01*
X82704101Y-99871647D02*
X82737434Y-99833552D01*
X82737434Y-99833552D02*
X82804101Y-99795457D01*
X82804101Y-99795457D02*
X82970768Y-99795457D01*
X82970768Y-99795457D02*
X83037434Y-99833552D01*
X83037434Y-99833552D02*
X83070768Y-99871647D01*
X83070768Y-99871647D02*
X83104101Y-99947838D01*
X83104101Y-99947838D02*
X83104101Y-100138314D01*
X83104101Y-100138314D02*
X83070768Y-100214504D01*
X83070768Y-100214504D02*
X83037434Y-100252600D01*
X83037434Y-100252600D02*
X82970768Y-100290695D01*
X82970768Y-100290695D02*
X82804101Y-100290695D01*
X82804101Y-100290695D02*
X82737434Y-100252600D01*
X82737434Y-100252600D02*
X82704101Y-100214504D01*
%TO.C,H2*%
X71147566Y-117697695D02*
X71147566Y-116897695D01*
X71147566Y-117278647D02*
X71547566Y-117278647D01*
X71547566Y-117697695D02*
X71547566Y-116897695D01*
X71847566Y-116973885D02*
X71880899Y-116935790D01*
X71880899Y-116935790D02*
X71947566Y-116897695D01*
X71947566Y-116897695D02*
X72114233Y-116897695D01*
X72114233Y-116897695D02*
X72180899Y-116935790D01*
X72180899Y-116935790D02*
X72214233Y-116973885D01*
X72214233Y-116973885D02*
X72247566Y-117050076D01*
X72247566Y-117050076D02*
X72247566Y-117126266D01*
X72247566Y-117126266D02*
X72214233Y-117240552D01*
X72214233Y-117240552D02*
X71814233Y-117697695D01*
X71814233Y-117697695D02*
X72247566Y-117697695D01*
%TO.C,D2*%
X103486633Y-86071295D02*
X103486633Y-85271295D01*
X103486633Y-85271295D02*
X103653300Y-85271295D01*
X103653300Y-85271295D02*
X103753300Y-85309390D01*
X103753300Y-85309390D02*
X103819967Y-85385580D01*
X103819967Y-85385580D02*
X103853300Y-85461771D01*
X103853300Y-85461771D02*
X103886633Y-85614152D01*
X103886633Y-85614152D02*
X103886633Y-85728438D01*
X103886633Y-85728438D02*
X103853300Y-85880819D01*
X103853300Y-85880819D02*
X103819967Y-85957009D01*
X103819967Y-85957009D02*
X103753300Y-86033200D01*
X103753300Y-86033200D02*
X103653300Y-86071295D01*
X103653300Y-86071295D02*
X103486633Y-86071295D01*
X104153300Y-85347485D02*
X104186633Y-85309390D01*
X104186633Y-85309390D02*
X104253300Y-85271295D01*
X104253300Y-85271295D02*
X104419967Y-85271295D01*
X104419967Y-85271295D02*
X104486633Y-85309390D01*
X104486633Y-85309390D02*
X104519967Y-85347485D01*
X104519967Y-85347485D02*
X104553300Y-85423676D01*
X104553300Y-85423676D02*
X104553300Y-85499866D01*
X104553300Y-85499866D02*
X104519967Y-85614152D01*
X104519967Y-85614152D02*
X104119967Y-86071295D01*
X104119967Y-86071295D02*
X104553300Y-86071295D01*
X103553300Y-89371295D02*
X103219966Y-89371295D01*
X103219966Y-89371295D02*
X103219966Y-88571295D01*
X103786633Y-88952247D02*
X104019967Y-88952247D01*
X104119967Y-89371295D02*
X103786633Y-89371295D01*
X103786633Y-89371295D02*
X103786633Y-88571295D01*
X103786633Y-88571295D02*
X104119967Y-88571295D01*
X104419966Y-89371295D02*
X104419966Y-88571295D01*
X104419966Y-88571295D02*
X104586633Y-88571295D01*
X104586633Y-88571295D02*
X104686633Y-88609390D01*
X104686633Y-88609390D02*
X104753300Y-88685580D01*
X104753300Y-88685580D02*
X104786633Y-88761771D01*
X104786633Y-88761771D02*
X104819966Y-88914152D01*
X104819966Y-88914152D02*
X104819966Y-89028438D01*
X104819966Y-89028438D02*
X104786633Y-89180819D01*
X104786633Y-89180819D02*
X104753300Y-89257009D01*
X104753300Y-89257009D02*
X104686633Y-89333200D01*
X104686633Y-89333200D02*
X104586633Y-89371295D01*
X104586633Y-89371295D02*
X104419966Y-89371295D01*
%TO.C,R5*%
X101333033Y-100908295D02*
X101099700Y-100527342D01*
X100933033Y-100908295D02*
X100933033Y-100108295D01*
X100933033Y-100108295D02*
X101199700Y-100108295D01*
X101199700Y-100108295D02*
X101266367Y-100146390D01*
X101266367Y-100146390D02*
X101299700Y-100184485D01*
X101299700Y-100184485D02*
X101333033Y-100260676D01*
X101333033Y-100260676D02*
X101333033Y-100374961D01*
X101333033Y-100374961D02*
X101299700Y-100451152D01*
X101299700Y-100451152D02*
X101266367Y-100489247D01*
X101266367Y-100489247D02*
X101199700Y-100527342D01*
X101199700Y-100527342D02*
X100933033Y-100527342D01*
X101966367Y-100108295D02*
X101633033Y-100108295D01*
X101633033Y-100108295D02*
X101599700Y-100489247D01*
X101599700Y-100489247D02*
X101633033Y-100451152D01*
X101633033Y-100451152D02*
X101699700Y-100413057D01*
X101699700Y-100413057D02*
X101866367Y-100413057D01*
X101866367Y-100413057D02*
X101933033Y-100451152D01*
X101933033Y-100451152D02*
X101966367Y-100489247D01*
X101966367Y-100489247D02*
X101999700Y-100565438D01*
X101999700Y-100565438D02*
X101999700Y-100755914D01*
X101999700Y-100755914D02*
X101966367Y-100832104D01*
X101966367Y-100832104D02*
X101933033Y-100870200D01*
X101933033Y-100870200D02*
X101866367Y-100908295D01*
X101866367Y-100908295D02*
X101699700Y-100908295D01*
X101699700Y-100908295D02*
X101633033Y-100870200D01*
X101633033Y-100870200D02*
X101599700Y-100832104D01*
X103083300Y-101423695D02*
X103516633Y-101423695D01*
X103516633Y-101423695D02*
X103283300Y-101728457D01*
X103283300Y-101728457D02*
X103383300Y-101728457D01*
X103383300Y-101728457D02*
X103449966Y-101766552D01*
X103449966Y-101766552D02*
X103483300Y-101804647D01*
X103483300Y-101804647D02*
X103516633Y-101880838D01*
X103516633Y-101880838D02*
X103516633Y-102071314D01*
X103516633Y-102071314D02*
X103483300Y-102147504D01*
X103483300Y-102147504D02*
X103449966Y-102185600D01*
X103449966Y-102185600D02*
X103383300Y-102223695D01*
X103383300Y-102223695D02*
X103183300Y-102223695D01*
X103183300Y-102223695D02*
X103116633Y-102185600D01*
X103116633Y-102185600D02*
X103083300Y-102147504D01*
X103749967Y-101423695D02*
X104183300Y-101423695D01*
X104183300Y-101423695D02*
X103949967Y-101728457D01*
X103949967Y-101728457D02*
X104049967Y-101728457D01*
X104049967Y-101728457D02*
X104116633Y-101766552D01*
X104116633Y-101766552D02*
X104149967Y-101804647D01*
X104149967Y-101804647D02*
X104183300Y-101880838D01*
X104183300Y-101880838D02*
X104183300Y-102071314D01*
X104183300Y-102071314D02*
X104149967Y-102147504D01*
X104149967Y-102147504D02*
X104116633Y-102185600D01*
X104116633Y-102185600D02*
X104049967Y-102223695D01*
X104049967Y-102223695D02*
X103849967Y-102223695D01*
X103849967Y-102223695D02*
X103783300Y-102185600D01*
X103783300Y-102185600D02*
X103749967Y-102147504D01*
X104616634Y-101423695D02*
X104683300Y-101423695D01*
X104683300Y-101423695D02*
X104749967Y-101461790D01*
X104749967Y-101461790D02*
X104783300Y-101499885D01*
X104783300Y-101499885D02*
X104816634Y-101576076D01*
X104816634Y-101576076D02*
X104849967Y-101728457D01*
X104849967Y-101728457D02*
X104849967Y-101918933D01*
X104849967Y-101918933D02*
X104816634Y-102071314D01*
X104816634Y-102071314D02*
X104783300Y-102147504D01*
X104783300Y-102147504D02*
X104749967Y-102185600D01*
X104749967Y-102185600D02*
X104683300Y-102223695D01*
X104683300Y-102223695D02*
X104616634Y-102223695D01*
X104616634Y-102223695D02*
X104549967Y-102185600D01*
X104549967Y-102185600D02*
X104516634Y-102147504D01*
X104516634Y-102147504D02*
X104483300Y-102071314D01*
X104483300Y-102071314D02*
X104449967Y-101918933D01*
X104449967Y-101918933D02*
X104449967Y-101728457D01*
X104449967Y-101728457D02*
X104483300Y-101576076D01*
X104483300Y-101576076D02*
X104516634Y-101499885D01*
X104516634Y-101499885D02*
X104549967Y-101461790D01*
X104549967Y-101461790D02*
X104616634Y-101423695D01*
%TO.C,C5*%
X88372633Y-85609504D02*
X88339300Y-85647600D01*
X88339300Y-85647600D02*
X88239300Y-85685695D01*
X88239300Y-85685695D02*
X88172633Y-85685695D01*
X88172633Y-85685695D02*
X88072633Y-85647600D01*
X88072633Y-85647600D02*
X88005967Y-85571409D01*
X88005967Y-85571409D02*
X87972633Y-85495219D01*
X87972633Y-85495219D02*
X87939300Y-85342838D01*
X87939300Y-85342838D02*
X87939300Y-85228552D01*
X87939300Y-85228552D02*
X87972633Y-85076171D01*
X87972633Y-85076171D02*
X88005967Y-84999980D01*
X88005967Y-84999980D02*
X88072633Y-84923790D01*
X88072633Y-84923790D02*
X88172633Y-84885695D01*
X88172633Y-84885695D02*
X88239300Y-84885695D01*
X88239300Y-84885695D02*
X88339300Y-84923790D01*
X88339300Y-84923790D02*
X88372633Y-84961885D01*
X89005967Y-84885695D02*
X88672633Y-84885695D01*
X88672633Y-84885695D02*
X88639300Y-85266647D01*
X88639300Y-85266647D02*
X88672633Y-85228552D01*
X88672633Y-85228552D02*
X88739300Y-85190457D01*
X88739300Y-85190457D02*
X88905967Y-85190457D01*
X88905967Y-85190457D02*
X88972633Y-85228552D01*
X88972633Y-85228552D02*
X89005967Y-85266647D01*
X89005967Y-85266647D02*
X89039300Y-85342838D01*
X89039300Y-85342838D02*
X89039300Y-85533314D01*
X89039300Y-85533314D02*
X89005967Y-85609504D01*
X89005967Y-85609504D02*
X88972633Y-85647600D01*
X88972633Y-85647600D02*
X88905967Y-85685695D01*
X88905967Y-85685695D02*
X88739300Y-85685695D01*
X88739300Y-85685695D02*
X88672633Y-85647600D01*
X88672633Y-85647600D02*
X88639300Y-85609504D01*
X87405966Y-89045695D02*
X87005966Y-89045695D01*
X87205966Y-89045695D02*
X87205966Y-88245695D01*
X87205966Y-88245695D02*
X87139299Y-88359980D01*
X87139299Y-88359980D02*
X87072633Y-88436171D01*
X87072633Y-88436171D02*
X87005966Y-88474266D01*
X87839300Y-88245695D02*
X87905966Y-88245695D01*
X87905966Y-88245695D02*
X87972633Y-88283790D01*
X87972633Y-88283790D02*
X88005966Y-88321885D01*
X88005966Y-88321885D02*
X88039300Y-88398076D01*
X88039300Y-88398076D02*
X88072633Y-88550457D01*
X88072633Y-88550457D02*
X88072633Y-88740933D01*
X88072633Y-88740933D02*
X88039300Y-88893314D01*
X88039300Y-88893314D02*
X88005966Y-88969504D01*
X88005966Y-88969504D02*
X87972633Y-89007600D01*
X87972633Y-89007600D02*
X87905966Y-89045695D01*
X87905966Y-89045695D02*
X87839300Y-89045695D01*
X87839300Y-89045695D02*
X87772633Y-89007600D01*
X87772633Y-89007600D02*
X87739300Y-88969504D01*
X87739300Y-88969504D02*
X87705966Y-88893314D01*
X87705966Y-88893314D02*
X87672633Y-88740933D01*
X87672633Y-88740933D02*
X87672633Y-88550457D01*
X87672633Y-88550457D02*
X87705966Y-88398076D01*
X87705966Y-88398076D02*
X87739300Y-88321885D01*
X87739300Y-88321885D02*
X87772633Y-88283790D01*
X87772633Y-88283790D02*
X87839300Y-88245695D01*
X88505967Y-88245695D02*
X88572633Y-88245695D01*
X88572633Y-88245695D02*
X88639300Y-88283790D01*
X88639300Y-88283790D02*
X88672633Y-88321885D01*
X88672633Y-88321885D02*
X88705967Y-88398076D01*
X88705967Y-88398076D02*
X88739300Y-88550457D01*
X88739300Y-88550457D02*
X88739300Y-88740933D01*
X88739300Y-88740933D02*
X88705967Y-88893314D01*
X88705967Y-88893314D02*
X88672633Y-88969504D01*
X88672633Y-88969504D02*
X88639300Y-89007600D01*
X88639300Y-89007600D02*
X88572633Y-89045695D01*
X88572633Y-89045695D02*
X88505967Y-89045695D01*
X88505967Y-89045695D02*
X88439300Y-89007600D01*
X88439300Y-89007600D02*
X88405967Y-88969504D01*
X88405967Y-88969504D02*
X88372633Y-88893314D01*
X88372633Y-88893314D02*
X88339300Y-88740933D01*
X88339300Y-88740933D02*
X88339300Y-88550457D01*
X88339300Y-88550457D02*
X88372633Y-88398076D01*
X88372633Y-88398076D02*
X88405967Y-88321885D01*
X88405967Y-88321885D02*
X88439300Y-88283790D01*
X88439300Y-88283790D02*
X88505967Y-88245695D01*
X89039300Y-88512361D02*
X89039300Y-89045695D01*
X89039300Y-88588552D02*
X89072634Y-88550457D01*
X89072634Y-88550457D02*
X89139300Y-88512361D01*
X89139300Y-88512361D02*
X89239300Y-88512361D01*
X89239300Y-88512361D02*
X89305967Y-88550457D01*
X89305967Y-88550457D02*
X89339300Y-88626647D01*
X89339300Y-88626647D02*
X89339300Y-89045695D01*
X89905967Y-88626647D02*
X89672633Y-88626647D01*
X89672633Y-89045695D02*
X89672633Y-88245695D01*
X89672633Y-88245695D02*
X90005967Y-88245695D01*
D12*
%TO.C,R3*%
X78026036Y-108363800D02*
X78480164Y-108363800D01*
X78026036Y-109833800D02*
X78480164Y-109833800D01*
%TO.C,U3*%
X80604100Y-86041000D02*
X77154100Y-86041000D01*
X80604100Y-86041000D02*
X82554100Y-86041000D01*
X80604100Y-91161000D02*
X78654100Y-91161000D01*
X80604100Y-91161000D02*
X82554100Y-91161000D01*
%TO.C,Y2*%
X88883100Y-104885800D02*
X88883100Y-108485800D01*
X88883100Y-108485800D02*
X96133100Y-108485800D01*
X96133100Y-104885800D02*
X88883100Y-104885800D01*
%TO.C,R4*%
X82344036Y-108211400D02*
X82798164Y-108211400D01*
X82344036Y-109681400D02*
X82798164Y-109681400D01*
D13*
%TO.C,U4*%
X90043900Y-92162200D02*
X90043900Y-92267200D01*
X90043900Y-92162200D02*
X90148900Y-92162200D01*
X90043900Y-99162200D02*
X90043900Y-99057200D01*
X90043900Y-99162200D02*
X90148900Y-99162200D01*
X97043900Y-92162200D02*
X96938900Y-92162200D01*
X97043900Y-92162200D02*
X97043900Y-92267200D01*
X97043900Y-99162200D02*
X96938900Y-99162200D01*
X97043900Y-99162200D02*
X97043900Y-99057200D01*
D14*
X87803900Y-92862200D02*
G75*
G03*
X87803900Y-92862200I-100000J0D01*
G01*
D12*
%TO.C,C3*%
X103722048Y-107297000D02*
X104244552Y-107297000D01*
X103722048Y-108767000D02*
X104244552Y-108767000D01*
D13*
%TO.C,U2*%
X78615300Y-101448000D02*
X82615300Y-101448000D01*
X78615300Y-106488000D02*
X82615300Y-106488000D01*
D14*
X76270300Y-101473000D02*
G75*
G03*
X76270300Y-101473000I-100000J0D01*
G01*
D12*
%TO.C,R7*%
X109342336Y-95867000D02*
X109796464Y-95867000D01*
X109342336Y-97337000D02*
X109796464Y-97337000D01*
%TO.C,J1*%
X114902500Y-99442000D02*
X116232500Y-99442000D01*
X114902500Y-100772000D02*
X114902500Y-99442000D01*
X114902500Y-102042000D02*
X114902500Y-109722000D01*
X114902500Y-102042000D02*
X117562500Y-102042000D01*
X114902500Y-109722000D02*
X117562500Y-109722000D01*
X117562500Y-102042000D02*
X117562500Y-109722000D01*
%TO.C,J2*%
X75354700Y-114522600D02*
X75354700Y-113192600D01*
X76684700Y-114522600D02*
X75354700Y-114522600D01*
X77954700Y-114522600D02*
X98334700Y-114522600D01*
X77954700Y-114522600D02*
X77954700Y-111862600D01*
X98334700Y-114522600D02*
X98334700Y-111862600D01*
X77954700Y-111862600D02*
X98334700Y-111862600D01*
%TO.C,J3*%
X102380300Y-114497200D02*
X102380300Y-113167200D01*
X103710300Y-114497200D02*
X102380300Y-114497200D01*
X104980300Y-114497200D02*
X112660300Y-114497200D01*
X104980300Y-114497200D02*
X104980300Y-111837200D01*
X112660300Y-114497200D02*
X112660300Y-111837200D01*
X104980300Y-111837200D02*
X112660300Y-111837200D01*
%TO.C,J4*%
X112514900Y-90679000D02*
X113844900Y-90679000D01*
X112514900Y-92009000D02*
X112514900Y-90679000D01*
X112514900Y-93279000D02*
X112514900Y-98419000D01*
X112514900Y-93279000D02*
X115114900Y-93279000D01*
X112514900Y-98419000D02*
X117714900Y-98419000D01*
X115114900Y-90679000D02*
X117714900Y-90679000D01*
X115114900Y-93279000D02*
X115114900Y-90679000D01*
X117714900Y-90679000D02*
X117714900Y-98419000D01*
%TO.C,C1*%
X97270448Y-86265800D02*
X97792952Y-86265800D01*
X97270448Y-87735800D02*
X97792952Y-87735800D01*
%TO.C,BT1*%
X71773300Y-92401200D02*
X73103300Y-92401200D01*
X71773300Y-93731200D02*
X71773300Y-92401200D01*
X71773300Y-95001200D02*
X71773300Y-97601200D01*
X71773300Y-95001200D02*
X74433300Y-95001200D01*
X71773300Y-97601200D02*
X74433300Y-97601200D01*
X74433300Y-95001200D02*
X74433300Y-97601200D01*
%TO.C,R1*%
X103756236Y-91193400D02*
X104210364Y-91193400D01*
X103756236Y-92663400D02*
X104210364Y-92663400D01*
%TO.C,C4*%
X92825448Y-86316600D02*
X93347952Y-86316600D01*
X92825448Y-87786600D02*
X93347952Y-87786600D01*
%TO.C,Y1*%
X70973100Y-109462200D02*
X74573100Y-109462200D01*
X74573100Y-109462200D02*
X74573100Y-102212200D01*
X70973100Y-102212200D02*
X70973100Y-109462200D01*
%TO.C,R2*%
X109342336Y-91117200D02*
X109796464Y-91117200D01*
X109342336Y-92587200D02*
X109796464Y-92587200D01*
%TO.C,D1*%
X107904400Y-86396400D02*
X107904400Y-88316400D01*
X107904400Y-88316400D02*
X110589400Y-88316400D01*
X110589400Y-86396400D02*
X107904400Y-86396400D01*
%TO.C,R6*%
X103756236Y-95867000D02*
X104210364Y-95867000D01*
X103756236Y-97337000D02*
X104210364Y-97337000D01*
%TO.C,C2*%
X103722048Y-103131400D02*
X104244552Y-103131400D01*
X103722048Y-104601400D02*
X104244552Y-104601400D01*
%TO.C,U1*%
X80604100Y-93965800D02*
X77154100Y-93965800D01*
X80604100Y-93965800D02*
X82554100Y-93965800D01*
X80604100Y-99085800D02*
X78654100Y-99085800D01*
X80604100Y-99085800D02*
X82554100Y-99085800D01*
%TO.C,D2*%
X102318300Y-86396400D02*
X102318300Y-88316400D01*
X102318300Y-88316400D02*
X105003300Y-88316400D01*
X105003300Y-86396400D02*
X102318300Y-86396400D01*
%TO.C,R5*%
X103756236Y-99473800D02*
X104210364Y-99473800D01*
X103756236Y-100943800D02*
X104210364Y-100943800D01*
%TO.C,C5*%
X88228048Y-86265800D02*
X88750552Y-86265800D01*
X88228048Y-87735800D02*
X88750552Y-87735800D01*
%TD*%
M02*
