%TF.GenerationSoftware,KiCad,Pcbnew,7.0.5*%
%TF.CreationDate,2024-03-10T11:39:18+05:30*%
%TF.ProjectId,mcu datalogger,6d637520-6461-4746-916c-6f676765722e,1*%
%TF.SameCoordinates,Original*%
%TF.FileFunction,Plated,1,4,PTH,Drill*%
%TF.FilePolarity,Positive*%
%FSLAX46Y46*%
G04 Gerber Fmt 4.6, Leading zero omitted, Abs format (unit mm)*
G04 Created by KiCad (PCBNEW 7.0.5) date 2024-03-10 11:39:18*
%MOMM*%
%LPD*%
G01*
G04 APERTURE LIST*
%TA.AperFunction,ViaDrill*%
%ADD10C,0.400000*%
%TD*%
%TA.AperFunction,ComponentDrill*%
%ADD11C,1.000000*%
%TD*%
G04 APERTURE END LIST*
D10*
X75733000Y-108118400D03*
X76215600Y-86477600D03*
X76241000Y-106391200D03*
X76723600Y-99330000D03*
X80051000Y-95875600D03*
X80711400Y-94986600D03*
X81168600Y-97806000D03*
X81219400Y-90389200D03*
X81422600Y-103216200D03*
X82921200Y-107610400D03*
X83378400Y-92980000D03*
X84394400Y-100650800D03*
X85156400Y-90465400D03*
X87594800Y-91329000D03*
X89370700Y-99446800D03*
X91021700Y-103993400D03*
X91061100Y-109560400D03*
X91201600Y-96231200D03*
X91277800Y-97679000D03*
X91430200Y-94123000D03*
X91608000Y-95189800D03*
X93093100Y-93533000D03*
X94198800Y-88306400D03*
X94224200Y-93183200D03*
X94706800Y-95977200D03*
X95011600Y-104232200D03*
X95773600Y-88484200D03*
X95900600Y-101844600D03*
X96129200Y-93030800D03*
X98008800Y-101311200D03*
X99482000Y-96256600D03*
X100218600Y-87798400D03*
X101195700Y-109814400D03*
X101641000Y-108194600D03*
X101793400Y-90744800D03*
X101818800Y-99711000D03*
X101895000Y-104638600D03*
X103100700Y-95133200D03*
X103850800Y-98161600D03*
X105527200Y-93234000D03*
X105527200Y-98034600D03*
X105806600Y-88611200D03*
X105959000Y-101590600D03*
X107279800Y-87112600D03*
X107406800Y-91278200D03*
X107965600Y-89906600D03*
X108143400Y-101997000D03*
X108270400Y-99609400D03*
X108295800Y-94681800D03*
X110175400Y-100498400D03*
X110226200Y-89093800D03*
X111013600Y-98466400D03*
X111420000Y-93310200D03*
X113198000Y-104613200D03*
X113375800Y-108524800D03*
D11*
%TO.C,BT1*%
X73103300Y-93731200D03*
X73103300Y-96271200D03*
%TO.C,J2*%
X76684700Y-113192600D03*
X79224700Y-113192600D03*
X81764700Y-113192600D03*
X84304700Y-113192600D03*
X86844700Y-113192600D03*
X89384700Y-113192600D03*
X91924700Y-113192600D03*
X94464700Y-113192600D03*
X97004700Y-113192600D03*
%TO.C,J3*%
X103710300Y-113167200D03*
X106250300Y-113167200D03*
X108790300Y-113167200D03*
X111330300Y-113167200D03*
%TO.C,J4*%
X113844900Y-92009000D03*
X113844900Y-94549000D03*
X113844900Y-97089000D03*
%TO.C,J1*%
X116232500Y-100772000D03*
X116232500Y-103312000D03*
X116232500Y-105852000D03*
X116232500Y-108392000D03*
%TO.C,J4*%
X116384900Y-92009000D03*
X116384900Y-94549000D03*
X116384900Y-97089000D03*
M02*
