%TF.GenerationSoftware,KiCad,Pcbnew,7.0.5*%
%TF.CreationDate,2024-03-10T11:39:14+05:30*%
%TF.ProjectId,mcu datalogger,6d637520-6461-4746-916c-6f676765722e,1*%
%TF.SameCoordinates,Original*%
%TF.FileFunction,Copper,L4,Bot*%
%TF.FilePolarity,Positive*%
%FSLAX46Y46*%
G04 Gerber Fmt 4.6, Leading zero omitted, Abs format (unit mm)*
G04 Created by KiCad (PCBNEW 7.0.5) date 2024-03-10 11:39:14*
%MOMM*%
%LPD*%
G01*
G04 APERTURE LIST*
%TA.AperFunction,ComponentPad*%
%ADD10R,1.700000X1.700000*%
%TD*%
%TA.AperFunction,ComponentPad*%
%ADD11O,1.700000X1.700000*%
%TD*%
%TA.AperFunction,ViaPad*%
%ADD12C,0.800000*%
%TD*%
G04 APERTURE END LIST*
D10*
%TO.P,J1,1,Pin_1*%
%TO.N,GND*%
X116232500Y-100772000D03*
D11*
%TO.P,J1,2,Pin_2*%
%TO.N,/Vcc*%
X116232500Y-103312000D03*
%TO.P,J1,3,Pin_3*%
%TO.N,/SDA*%
X116232500Y-105852000D03*
%TO.P,J1,4,Pin_4*%
%TO.N,/SCL*%
X116232500Y-108392000D03*
%TD*%
D10*
%TO.P,J2,1,Pin_1*%
%TO.N,/D2*%
X76684700Y-113192600D03*
D11*
%TO.P,J2,2,Pin_2*%
%TO.N,/D3*%
X79224700Y-113192600D03*
%TO.P,J2,3,Pin_3*%
%TO.N,/D4*%
X81764700Y-113192600D03*
%TO.P,J2,4,Pin_4*%
%TO.N,/D5*%
X84304700Y-113192600D03*
%TO.P,J2,5,Pin_5*%
%TO.N,/D6*%
X86844700Y-113192600D03*
%TO.P,J2,6,Pin_6*%
%TO.N,/D7*%
X89384700Y-113192600D03*
%TO.P,J2,7,Pin_7*%
%TO.N,/D8*%
X91924700Y-113192600D03*
%TO.P,J2,8,Pin_8*%
%TO.N,GND*%
X94464700Y-113192600D03*
%TO.P,J2,9,Pin_9*%
%TO.N,/Vcc*%
X97004700Y-113192600D03*
%TD*%
D10*
%TO.P,J3,1,Pin_1*%
%TO.N,GND*%
X103710300Y-113167200D03*
D11*
%TO.P,J3,2,Pin_2*%
%TO.N,/Vcc*%
X106250300Y-113167200D03*
%TO.P,J3,3,Pin_3*%
%TO.N,/RX*%
X108790300Y-113167200D03*
%TO.P,J3,4,Pin_4*%
%TO.N,/TX*%
X111330300Y-113167200D03*
%TD*%
D10*
%TO.P,J4,1,Pin_1*%
%TO.N,/MISO*%
X113844900Y-92009000D03*
D11*
%TO.P,J4,2,Pin_2*%
%TO.N,/Vcc*%
X116384900Y-92009000D03*
%TO.P,J4,3,Pin_3*%
%TO.N,/SCK*%
X113844900Y-94549000D03*
%TO.P,J4,4,Pin_4*%
%TO.N,/MOSI*%
X116384900Y-94549000D03*
%TO.P,J4,5,Pin_5*%
%TO.N,/RST*%
X113844900Y-97089000D03*
%TO.P,J4,6,Pin_6*%
%TO.N,GND*%
X116384900Y-97089000D03*
%TD*%
D10*
%TO.P,BT1,1,+*%
%TO.N,/Vcc*%
X73103300Y-93731200D03*
D11*
%TO.P,BT1,2,-*%
%TO.N,GND*%
X73103300Y-96271200D03*
%TD*%
D12*
%TO.N,Net-(U4-PB7)*%
X91021700Y-103993400D03*
X89370700Y-99446800D03*
%TO.N,GND*%
X107279800Y-87112600D03*
X91430200Y-94123000D03*
X76723600Y-99330000D03*
X100218600Y-87798400D03*
X76241000Y-106391200D03*
X91201600Y-96231200D03*
X101641000Y-108194600D03*
X111013600Y-98466400D03*
X101895000Y-104638600D03*
X99482000Y-96256600D03*
%TO.N,/Vcc*%
X75733000Y-108118400D03*
X91608000Y-95189800D03*
X95773600Y-88484200D03*
X76215600Y-86477600D03*
X105527200Y-93234000D03*
X105806600Y-88611200D03*
X84394400Y-100650800D03*
X107406800Y-91278200D03*
X80051000Y-95875600D03*
X105527200Y-98034600D03*
X82921200Y-107610400D03*
X83378400Y-92980000D03*
%TO.N,Net-(U4-PB6)*%
X91277800Y-97679000D03*
X95011600Y-104232200D03*
%TO.N,Net-(U4-PB7)*%
X101195700Y-109814400D03*
X91061100Y-109560400D03*
%TO.N,Net-(U4-AREF)*%
X94706800Y-95977200D03*
X94198800Y-88306400D03*
%TO.N,Net-(D1-A)*%
X101818800Y-99711000D03*
X110226200Y-89093800D03*
%TO.N,/SDA*%
X107965600Y-89906600D03*
X111420000Y-93310200D03*
X85156400Y-90465400D03*
X96129200Y-93030800D03*
X113198000Y-104613200D03*
%TO.N,/SCL*%
X101793400Y-90744800D03*
X94224200Y-93183200D03*
X80711400Y-94986600D03*
X81168600Y-97806000D03*
X87594800Y-91329000D03*
X81422600Y-103216200D03*
X113375800Y-108524800D03*
X81219400Y-90389200D03*
%TO.N,/MISO*%
X108295800Y-94681800D03*
X98008800Y-101311200D03*
%TO.N,/MOSI*%
X95900600Y-101844600D03*
X108143400Y-101997000D03*
%TO.N,/RST*%
X103850800Y-98161600D03*
X103100700Y-95133200D03*
X110175400Y-100498400D03*
X93093100Y-93533000D03*
%TO.N,/SCK*%
X108270400Y-99609400D03*
X105959000Y-101590600D03*
%TD*%
%TA.AperFunction,Conductor*%
%TO.N,GND*%
G36*
X114908748Y-85130890D02*
G01*
X114966784Y-85169794D01*
X114994574Y-85233900D01*
X114983295Y-85302853D01*
X114968539Y-85326389D01*
X114213999Y-86274400D01*
X114264800Y-87696800D01*
X114975998Y-88941398D01*
X114975999Y-88941398D01*
X114976000Y-88941400D01*
X116601600Y-89601800D01*
X117846200Y-89424000D01*
X118399595Y-88907497D01*
X118462033Y-88876147D01*
X118531512Y-88883531D01*
X118585969Y-88927305D01*
X118608115Y-88993572D01*
X118608200Y-88998150D01*
X118608200Y-111381396D01*
X118588515Y-111448435D01*
X118535711Y-111494190D01*
X118466553Y-111504134D01*
X118421330Y-111488276D01*
X118176402Y-111344201D01*
X118176393Y-111344197D01*
X117236600Y-111014000D01*
X116119000Y-111064799D01*
X116118999Y-111064799D01*
X115179201Y-111521998D01*
X115179197Y-111522001D01*
X114874393Y-111877608D01*
X114874391Y-111877610D01*
X114290201Y-112715797D01*
X114290200Y-112715800D01*
X114213999Y-113960399D01*
X114213999Y-113960400D01*
X114725372Y-115161014D01*
X114733532Y-115230406D01*
X114702881Y-115293193D01*
X114643150Y-115329442D01*
X114612357Y-115333600D01*
X73760238Y-115685340D01*
X73693031Y-115666234D01*
X73646823Y-115613826D01*
X73636285Y-115544755D01*
X73662704Y-115483432D01*
X74031200Y-115027200D01*
X74243290Y-114090470D01*
X75334200Y-114090470D01*
X75334201Y-114090476D01*
X75340608Y-114150083D01*
X75390902Y-114284928D01*
X75390906Y-114284935D01*
X75477152Y-114400144D01*
X75477155Y-114400147D01*
X75592364Y-114486393D01*
X75592371Y-114486397D01*
X75727217Y-114536691D01*
X75727216Y-114536691D01*
X75734144Y-114537435D01*
X75786827Y-114543100D01*
X77582572Y-114543099D01*
X77642183Y-114536691D01*
X77777031Y-114486396D01*
X77892246Y-114400146D01*
X77978496Y-114284931D01*
X78027510Y-114153516D01*
X78069381Y-114097584D01*
X78134845Y-114073166D01*
X78203118Y-114088017D01*
X78231373Y-114109168D01*
X78353299Y-114231095D01*
X78450084Y-114298864D01*
X78546865Y-114366632D01*
X78546867Y-114366633D01*
X78546870Y-114366635D01*
X78761037Y-114466503D01*
X78989292Y-114527663D01*
X79165734Y-114543100D01*
X79224699Y-114548259D01*
X79224700Y-114548259D01*
X79224701Y-114548259D01*
X79283666Y-114543100D01*
X79460108Y-114527663D01*
X79688363Y-114466503D01*
X79902530Y-114366635D01*
X80096101Y-114231095D01*
X80263195Y-114064001D01*
X80393124Y-113878442D01*
X80447702Y-113834817D01*
X80517200Y-113827623D01*
X80579555Y-113859146D01*
X80596275Y-113878442D01*
X80726200Y-114063995D01*
X80726205Y-114064001D01*
X80893299Y-114231095D01*
X80990084Y-114298864D01*
X81086865Y-114366632D01*
X81086867Y-114366633D01*
X81086870Y-114366635D01*
X81301037Y-114466503D01*
X81529292Y-114527663D01*
X81705734Y-114543100D01*
X81764699Y-114548259D01*
X81764700Y-114548259D01*
X81764701Y-114548259D01*
X81823666Y-114543100D01*
X82000108Y-114527663D01*
X82228363Y-114466503D01*
X82442530Y-114366635D01*
X82636101Y-114231095D01*
X82803195Y-114064001D01*
X82933124Y-113878442D01*
X82987702Y-113834817D01*
X83057200Y-113827623D01*
X83119555Y-113859146D01*
X83136275Y-113878442D01*
X83266200Y-114063995D01*
X83266205Y-114064001D01*
X83433299Y-114231095D01*
X83530084Y-114298864D01*
X83626865Y-114366632D01*
X83626867Y-114366633D01*
X83626870Y-114366635D01*
X83841037Y-114466503D01*
X84069292Y-114527663D01*
X84245734Y-114543100D01*
X84304699Y-114548259D01*
X84304700Y-114548259D01*
X84304701Y-114548259D01*
X84363666Y-114543100D01*
X84540108Y-114527663D01*
X84768363Y-114466503D01*
X84982530Y-114366635D01*
X85176101Y-114231095D01*
X85343195Y-114064001D01*
X85473124Y-113878442D01*
X85527702Y-113834817D01*
X85597200Y-113827623D01*
X85659555Y-113859146D01*
X85676275Y-113878442D01*
X85806200Y-114063995D01*
X85806205Y-114064001D01*
X85973299Y-114231095D01*
X86070084Y-114298864D01*
X86166865Y-114366632D01*
X86166867Y-114366633D01*
X86166870Y-114366635D01*
X86381037Y-114466503D01*
X86609292Y-114527663D01*
X86785734Y-114543100D01*
X86844699Y-114548259D01*
X86844700Y-114548259D01*
X86844701Y-114548259D01*
X86903666Y-114543100D01*
X87080108Y-114527663D01*
X87308363Y-114466503D01*
X87522530Y-114366635D01*
X87716101Y-114231095D01*
X87883195Y-114064001D01*
X88013124Y-113878442D01*
X88067702Y-113834817D01*
X88137200Y-113827623D01*
X88199555Y-113859146D01*
X88216275Y-113878442D01*
X88346200Y-114063995D01*
X88346205Y-114064001D01*
X88513299Y-114231095D01*
X88610084Y-114298864D01*
X88706865Y-114366632D01*
X88706867Y-114366633D01*
X88706870Y-114366635D01*
X88921037Y-114466503D01*
X89149292Y-114527663D01*
X89325734Y-114543100D01*
X89384699Y-114548259D01*
X89384700Y-114548259D01*
X89384701Y-114548259D01*
X89443666Y-114543100D01*
X89620108Y-114527663D01*
X89848363Y-114466503D01*
X90062530Y-114366635D01*
X90256101Y-114231095D01*
X90423195Y-114064001D01*
X90553124Y-113878442D01*
X90607702Y-113834817D01*
X90677200Y-113827623D01*
X90739555Y-113859146D01*
X90756275Y-113878442D01*
X90886200Y-114063995D01*
X90886205Y-114064001D01*
X91053299Y-114231095D01*
X91150084Y-114298864D01*
X91246865Y-114366632D01*
X91246867Y-114366633D01*
X91246870Y-114366635D01*
X91461037Y-114466503D01*
X91689292Y-114527663D01*
X91865734Y-114543100D01*
X91924699Y-114548259D01*
X91924700Y-114548259D01*
X91924701Y-114548259D01*
X91983666Y-114543100D01*
X92160108Y-114527663D01*
X92388363Y-114466503D01*
X92602530Y-114366635D01*
X92796101Y-114231095D01*
X92963195Y-114064001D01*
X93093430Y-113878005D01*
X93148007Y-113834381D01*
X93217505Y-113827187D01*
X93279860Y-113858710D01*
X93296579Y-113878005D01*
X93426590Y-114063678D01*
X93593617Y-114230705D01*
X93787121Y-114366200D01*
X94001207Y-114466029D01*
X94001216Y-114466033D01*
X94214700Y-114523234D01*
X94214700Y-113628101D01*
X94322385Y-113677280D01*
X94428937Y-113692600D01*
X94500463Y-113692600D01*
X94607015Y-113677280D01*
X94714700Y-113628101D01*
X94714700Y-114523233D01*
X94928183Y-114466033D01*
X94928192Y-114466029D01*
X95142278Y-114366200D01*
X95335782Y-114230705D01*
X95502805Y-114063682D01*
X95632819Y-113878005D01*
X95687396Y-113834381D01*
X95756895Y-113827188D01*
X95819249Y-113858710D01*
X95835969Y-113878005D01*
X95966205Y-114064001D01*
X96133299Y-114231095D01*
X96230084Y-114298864D01*
X96326865Y-114366632D01*
X96326867Y-114366633D01*
X96326870Y-114366635D01*
X96541037Y-114466503D01*
X96769292Y-114527663D01*
X96945734Y-114543100D01*
X97004699Y-114548259D01*
X97004700Y-114548259D01*
X97004701Y-114548259D01*
X97063666Y-114543100D01*
X97240108Y-114527663D01*
X97468363Y-114466503D01*
X97682530Y-114366635D01*
X97876101Y-114231095D01*
X98043195Y-114064001D01*
X98178735Y-113870430D01*
X98278603Y-113656263D01*
X98339763Y-113428008D01*
X98360359Y-113192600D01*
X98339763Y-112957192D01*
X98317249Y-112873169D01*
X100266415Y-112873169D01*
X100266415Y-114333078D01*
X101388205Y-114323419D01*
X101387827Y-114321817D01*
X101387055Y-114318024D01*
X101378496Y-114268030D01*
X101377962Y-114264194D01*
X101366500Y-114157590D01*
X101366344Y-114155934D01*
X101364598Y-114134228D01*
X101364487Y-114132571D01*
X101362969Y-114104227D01*
X101362902Y-114102569D01*
X101362322Y-114080863D01*
X101362300Y-114079206D01*
X101362300Y-114065044D01*
X102360300Y-114065044D01*
X102366701Y-114124572D01*
X102366703Y-114124579D01*
X102416945Y-114259286D01*
X102416949Y-114259293D01*
X102503109Y-114374387D01*
X102503112Y-114374390D01*
X102618206Y-114460550D01*
X102618213Y-114460554D01*
X102752920Y-114510796D01*
X102752927Y-114510798D01*
X102812455Y-114517199D01*
X102812472Y-114517200D01*
X103460300Y-114517200D01*
X103460300Y-113602701D01*
X103567985Y-113651880D01*
X103674537Y-113667200D01*
X103746063Y-113667200D01*
X103852615Y-113651880D01*
X103960300Y-113602701D01*
X103960300Y-114517200D01*
X104608128Y-114517200D01*
X104608144Y-114517199D01*
X104667672Y-114510798D01*
X104667679Y-114510796D01*
X104802386Y-114460554D01*
X104802393Y-114460550D01*
X104917487Y-114374390D01*
X104917490Y-114374387D01*
X105003650Y-114259293D01*
X105003654Y-114259286D01*
X105052722Y-114127729D01*
X105094593Y-114071795D01*
X105160057Y-114047378D01*
X105228330Y-114062230D01*
X105256585Y-114083381D01*
X105378899Y-114205695D01*
X105455435Y-114259286D01*
X105572465Y-114341232D01*
X105572467Y-114341233D01*
X105572470Y-114341235D01*
X105786637Y-114441103D01*
X106014892Y-114502263D01*
X106185619Y-114517200D01*
X106250299Y-114522859D01*
X106250300Y-114522859D01*
X106250301Y-114522859D01*
X106314981Y-114517200D01*
X106485708Y-114502263D01*
X106713963Y-114441103D01*
X106928130Y-114341235D01*
X107121701Y-114205695D01*
X107288795Y-114038601D01*
X107418724Y-113853042D01*
X107473302Y-113809417D01*
X107542800Y-113802223D01*
X107605155Y-113833746D01*
X107621875Y-113853042D01*
X107751800Y-114038595D01*
X107751805Y-114038601D01*
X107918899Y-114205695D01*
X107995435Y-114259286D01*
X108112465Y-114341232D01*
X108112467Y-114341233D01*
X108112470Y-114341235D01*
X108326637Y-114441103D01*
X108554892Y-114502263D01*
X108725619Y-114517200D01*
X108790299Y-114522859D01*
X108790300Y-114522859D01*
X108790301Y-114522859D01*
X108854981Y-114517200D01*
X109025708Y-114502263D01*
X109253963Y-114441103D01*
X109468130Y-114341235D01*
X109661701Y-114205695D01*
X109828795Y-114038601D01*
X109958724Y-113853042D01*
X110013302Y-113809417D01*
X110082800Y-113802223D01*
X110145155Y-113833746D01*
X110161875Y-113853042D01*
X110291800Y-114038595D01*
X110291805Y-114038601D01*
X110458899Y-114205695D01*
X110535435Y-114259286D01*
X110652465Y-114341232D01*
X110652467Y-114341233D01*
X110652470Y-114341235D01*
X110866637Y-114441103D01*
X111094892Y-114502263D01*
X111265619Y-114517200D01*
X111330299Y-114522859D01*
X111330300Y-114522859D01*
X111330301Y-114522859D01*
X111394981Y-114517200D01*
X111565708Y-114502263D01*
X111793963Y-114441103D01*
X112008130Y-114341235D01*
X112201701Y-114205695D01*
X112368795Y-114038601D01*
X112504335Y-113845030D01*
X112604203Y-113630863D01*
X112665363Y-113402608D01*
X112685959Y-113167200D01*
X112665363Y-112931792D01*
X112607488Y-112715797D01*
X112604205Y-112703544D01*
X112604204Y-112703543D01*
X112604203Y-112703537D01*
X112504335Y-112489371D01*
X112498725Y-112481358D01*
X112368794Y-112295797D01*
X112201702Y-112128706D01*
X112201695Y-112128701D01*
X112008134Y-111993167D01*
X112008130Y-111993165D01*
X111937027Y-111960009D01*
X111793963Y-111893297D01*
X111793959Y-111893296D01*
X111793955Y-111893294D01*
X111565713Y-111832138D01*
X111565703Y-111832136D01*
X111330301Y-111811541D01*
X111330299Y-111811541D01*
X111094896Y-111832136D01*
X111094886Y-111832138D01*
X110866644Y-111893294D01*
X110866635Y-111893298D01*
X110652471Y-111993164D01*
X110652469Y-111993165D01*
X110458897Y-112128705D01*
X110291808Y-112295794D01*
X110161874Y-112481360D01*
X110107297Y-112524984D01*
X110037798Y-112532177D01*
X109975444Y-112500655D01*
X109958729Y-112481364D01*
X109838398Y-112309514D01*
X109828793Y-112295796D01*
X109661702Y-112128706D01*
X109661695Y-112128701D01*
X109468134Y-111993167D01*
X109468130Y-111993165D01*
X109397027Y-111960009D01*
X109253963Y-111893297D01*
X109253959Y-111893296D01*
X109253955Y-111893294D01*
X109025713Y-111832138D01*
X109025703Y-111832136D01*
X108790301Y-111811541D01*
X108790299Y-111811541D01*
X108554896Y-111832136D01*
X108554886Y-111832138D01*
X108326644Y-111893294D01*
X108326635Y-111893298D01*
X108112471Y-111993164D01*
X108112469Y-111993165D01*
X107918897Y-112128705D01*
X107751805Y-112295797D01*
X107621875Y-112481358D01*
X107567298Y-112524983D01*
X107497800Y-112532177D01*
X107435445Y-112500654D01*
X107418725Y-112481358D01*
X107288794Y-112295797D01*
X107121702Y-112128706D01*
X107121695Y-112128701D01*
X106928134Y-111993167D01*
X106928130Y-111993165D01*
X106857027Y-111960009D01*
X106713963Y-111893297D01*
X106713959Y-111893296D01*
X106713955Y-111893294D01*
X106485713Y-111832138D01*
X106485703Y-111832136D01*
X106250301Y-111811541D01*
X106250299Y-111811541D01*
X106014896Y-111832136D01*
X106014886Y-111832138D01*
X105786644Y-111893294D01*
X105786635Y-111893298D01*
X105572471Y-111993164D01*
X105572469Y-111993165D01*
X105378900Y-112128703D01*
X105256584Y-112251019D01*
X105195261Y-112284503D01*
X105125569Y-112279519D01*
X105069636Y-112237647D01*
X105052721Y-112206670D01*
X105003654Y-112075113D01*
X105003650Y-112075106D01*
X104917490Y-111960012D01*
X104917487Y-111960009D01*
X104802393Y-111873849D01*
X104802386Y-111873845D01*
X104667679Y-111823603D01*
X104667672Y-111823601D01*
X104608144Y-111817200D01*
X103960300Y-111817200D01*
X103960300Y-112731698D01*
X103852615Y-112682520D01*
X103746063Y-112667200D01*
X103674537Y-112667200D01*
X103567985Y-112682520D01*
X103460300Y-112731698D01*
X103460300Y-111817200D01*
X102812455Y-111817200D01*
X102752927Y-111823601D01*
X102752920Y-111823603D01*
X102618213Y-111873845D01*
X102618206Y-111873849D01*
X102503112Y-111960009D01*
X102503109Y-111960012D01*
X102416949Y-112075106D01*
X102416945Y-112075113D01*
X102366703Y-112209820D01*
X102366701Y-112209827D01*
X102360300Y-112269355D01*
X102360300Y-112917200D01*
X103276614Y-112917200D01*
X103250807Y-112957356D01*
X103210300Y-113095311D01*
X103210300Y-113239089D01*
X103250807Y-113377044D01*
X103276614Y-113417200D01*
X102360300Y-113417200D01*
X102360300Y-114065044D01*
X101362300Y-114065044D01*
X101362300Y-113216654D01*
X101371738Y-113169203D01*
X101372567Y-113167199D01*
X101371739Y-113165199D01*
X101362300Y-113117746D01*
X101362300Y-112873169D01*
X100266415Y-112873169D01*
X98317249Y-112873169D01*
X98278603Y-112728937D01*
X98178735Y-112514771D01*
X98173431Y-112507195D01*
X98043194Y-112321197D01*
X97876102Y-112154106D01*
X97876095Y-112154101D01*
X97839827Y-112128706D01*
X97799218Y-112100271D01*
X97682534Y-112018567D01*
X97682530Y-112018565D01*
X97628064Y-111993167D01*
X97468363Y-111918697D01*
X97468359Y-111918696D01*
X97468355Y-111918694D01*
X97240113Y-111857538D01*
X97240103Y-111857536D01*
X97004701Y-111836941D01*
X97004699Y-111836941D01*
X96769296Y-111857536D01*
X96769286Y-111857538D01*
X96541044Y-111918694D01*
X96541035Y-111918698D01*
X96326871Y-112018564D01*
X96326869Y-112018565D01*
X96133297Y-112154105D01*
X95966208Y-112321194D01*
X95835969Y-112507195D01*
X95781392Y-112550819D01*
X95711893Y-112558012D01*
X95649539Y-112526490D01*
X95632819Y-112507194D01*
X95502813Y-112321526D01*
X95502808Y-112321520D01*
X95335782Y-112154494D01*
X95142278Y-112018999D01*
X94928192Y-111919170D01*
X94928186Y-111919167D01*
X94714700Y-111861964D01*
X94714700Y-112757098D01*
X94607015Y-112707920D01*
X94500463Y-112692600D01*
X94428937Y-112692600D01*
X94322385Y-112707920D01*
X94214700Y-112757098D01*
X94214700Y-111861964D01*
X94214699Y-111861964D01*
X94001213Y-111919167D01*
X94001207Y-111919170D01*
X93787122Y-112018999D01*
X93787120Y-112019000D01*
X93593626Y-112154486D01*
X93593620Y-112154491D01*
X93426591Y-112321520D01*
X93426590Y-112321522D01*
X93296580Y-112507195D01*
X93242003Y-112550819D01*
X93172504Y-112558012D01*
X93110150Y-112526490D01*
X93093430Y-112507194D01*
X92963194Y-112321197D01*
X92796102Y-112154106D01*
X92796095Y-112154101D01*
X92759827Y-112128706D01*
X92719218Y-112100271D01*
X92602534Y-112018567D01*
X92602530Y-112018565D01*
X92548064Y-111993167D01*
X92388363Y-111918697D01*
X92388359Y-111918696D01*
X92388355Y-111918694D01*
X92160113Y-111857538D01*
X92160103Y-111857536D01*
X91924701Y-111836941D01*
X91924699Y-111836941D01*
X91689296Y-111857536D01*
X91689286Y-111857538D01*
X91461044Y-111918694D01*
X91461035Y-111918698D01*
X91246871Y-112018564D01*
X91246869Y-112018565D01*
X91053297Y-112154105D01*
X90886205Y-112321197D01*
X90756275Y-112506758D01*
X90701698Y-112550383D01*
X90632200Y-112557577D01*
X90569845Y-112526054D01*
X90553125Y-112506758D01*
X90423194Y-112321197D01*
X90256102Y-112154106D01*
X90256095Y-112154101D01*
X90219827Y-112128706D01*
X90179218Y-112100271D01*
X90062534Y-112018567D01*
X90062530Y-112018565D01*
X90008064Y-111993167D01*
X89848363Y-111918697D01*
X89848359Y-111918696D01*
X89848355Y-111918694D01*
X89620113Y-111857538D01*
X89620103Y-111857536D01*
X89384701Y-111836941D01*
X89384699Y-111836941D01*
X89149296Y-111857536D01*
X89149286Y-111857538D01*
X88921044Y-111918694D01*
X88921035Y-111918698D01*
X88706871Y-112018564D01*
X88706869Y-112018565D01*
X88513297Y-112154105D01*
X88346208Y-112321194D01*
X88216274Y-112506760D01*
X88161697Y-112550384D01*
X88092198Y-112557577D01*
X88029844Y-112526055D01*
X88013129Y-112506764D01*
X87883195Y-112321199D01*
X87883193Y-112321196D01*
X87716102Y-112154106D01*
X87716095Y-112154101D01*
X87679827Y-112128706D01*
X87639218Y-112100271D01*
X87522534Y-112018567D01*
X87522530Y-112018565D01*
X87468064Y-111993167D01*
X87308363Y-111918697D01*
X87308359Y-111918696D01*
X87308355Y-111918694D01*
X87080113Y-111857538D01*
X87080103Y-111857536D01*
X86844701Y-111836941D01*
X86844699Y-111836941D01*
X86609296Y-111857536D01*
X86609286Y-111857538D01*
X86381044Y-111918694D01*
X86381035Y-111918698D01*
X86166871Y-112018564D01*
X86166869Y-112018565D01*
X85973297Y-112154105D01*
X85806205Y-112321197D01*
X85676275Y-112506758D01*
X85621698Y-112550383D01*
X85552200Y-112557577D01*
X85489845Y-112526054D01*
X85473125Y-112506758D01*
X85343194Y-112321197D01*
X85176102Y-112154106D01*
X85176095Y-112154101D01*
X85139827Y-112128706D01*
X85099218Y-112100271D01*
X84982534Y-112018567D01*
X84982530Y-112018565D01*
X84928064Y-111993167D01*
X84768363Y-111918697D01*
X84768359Y-111918696D01*
X84768355Y-111918694D01*
X84540113Y-111857538D01*
X84540103Y-111857536D01*
X84304701Y-111836941D01*
X84304699Y-111836941D01*
X84069296Y-111857536D01*
X84069286Y-111857538D01*
X83841044Y-111918694D01*
X83841035Y-111918698D01*
X83626871Y-112018564D01*
X83626869Y-112018565D01*
X83433297Y-112154105D01*
X83266208Y-112321194D01*
X83136274Y-112506760D01*
X83081697Y-112550384D01*
X83012198Y-112557577D01*
X82949844Y-112526055D01*
X82933129Y-112506764D01*
X82803195Y-112321199D01*
X82803193Y-112321196D01*
X82636102Y-112154106D01*
X82636095Y-112154101D01*
X82599827Y-112128706D01*
X82559218Y-112100271D01*
X82442534Y-112018567D01*
X82442530Y-112018565D01*
X82388064Y-111993167D01*
X82228363Y-111918697D01*
X82228359Y-111918696D01*
X82228355Y-111918694D01*
X82000113Y-111857538D01*
X82000103Y-111857536D01*
X81764701Y-111836941D01*
X81764699Y-111836941D01*
X81529296Y-111857536D01*
X81529286Y-111857538D01*
X81301044Y-111918694D01*
X81301035Y-111918698D01*
X81086871Y-112018564D01*
X81086869Y-112018565D01*
X80893297Y-112154105D01*
X80726208Y-112321194D01*
X80596274Y-112506759D01*
X80541697Y-112550384D01*
X80472198Y-112557576D01*
X80409844Y-112526054D01*
X80393124Y-112506758D01*
X80263194Y-112321197D01*
X80096102Y-112154106D01*
X80096095Y-112154101D01*
X80059827Y-112128706D01*
X80019218Y-112100271D01*
X79902534Y-112018567D01*
X79902530Y-112018565D01*
X79848064Y-111993167D01*
X79688363Y-111918697D01*
X79688359Y-111918696D01*
X79688355Y-111918694D01*
X79460113Y-111857538D01*
X79460103Y-111857536D01*
X79224701Y-111836941D01*
X79224699Y-111836941D01*
X78989296Y-111857536D01*
X78989286Y-111857538D01*
X78761044Y-111918694D01*
X78761035Y-111918698D01*
X78546871Y-112018564D01*
X78546869Y-112018565D01*
X78353300Y-112154103D01*
X78231373Y-112276030D01*
X78170050Y-112309514D01*
X78100358Y-112304530D01*
X78044425Y-112262658D01*
X78027510Y-112231681D01*
X77978497Y-112100271D01*
X77978493Y-112100264D01*
X77892247Y-111985055D01*
X77892244Y-111985052D01*
X77777035Y-111898806D01*
X77777028Y-111898802D01*
X77642182Y-111848508D01*
X77642183Y-111848508D01*
X77582583Y-111842101D01*
X77582581Y-111842100D01*
X77582573Y-111842100D01*
X77582564Y-111842100D01*
X75786829Y-111842100D01*
X75786823Y-111842101D01*
X75727216Y-111848508D01*
X75592371Y-111898802D01*
X75592364Y-111898806D01*
X75477155Y-111985052D01*
X75477152Y-111985055D01*
X75390906Y-112100264D01*
X75390902Y-112100271D01*
X75340608Y-112235117D01*
X75334201Y-112294716D01*
X75334200Y-112294735D01*
X75334200Y-114090470D01*
X74243290Y-114090470D01*
X74336000Y-113681000D01*
X74335999Y-113680999D01*
X74336000Y-113680998D01*
X73984280Y-112514771D01*
X73853400Y-112080800D01*
X72812000Y-111293400D01*
X71491200Y-110988600D01*
X71491199Y-110988600D01*
X71491198Y-110988600D01*
X70189827Y-111527099D01*
X70120355Y-111534543D01*
X70057887Y-111503246D01*
X70022256Y-111443144D01*
X70018415Y-111412244D01*
X70020734Y-110373169D01*
X75266415Y-110373169D01*
X75266415Y-110955219D01*
X75409497Y-110901854D01*
X75413167Y-110900614D01*
X75461725Y-110885885D01*
X75465464Y-110884877D01*
X75529949Y-110869638D01*
X75533745Y-110868865D01*
X75583769Y-110860301D01*
X75587607Y-110859766D01*
X75694281Y-110848299D01*
X75695936Y-110848144D01*
X75717628Y-110846399D01*
X75719285Y-110846288D01*
X75747624Y-110844770D01*
X75749284Y-110844703D01*
X75770993Y-110844123D01*
X75772649Y-110844101D01*
X76768415Y-110844100D01*
X76768415Y-110373169D01*
X77766415Y-110373169D01*
X77766415Y-110858114D01*
X77781800Y-110859769D01*
X77785635Y-110860302D01*
X77835638Y-110868863D01*
X77839434Y-110869636D01*
X77903915Y-110884871D01*
X77907655Y-110885879D01*
X77956226Y-110900612D01*
X77959896Y-110901852D01*
X78161276Y-110976961D01*
X78165367Y-110978655D01*
X78218132Y-111002753D01*
X78222091Y-111004734D01*
X78285414Y-111039311D01*
X78360218Y-111004430D01*
X78362694Y-111003341D01*
X78395413Y-110989788D01*
X78397931Y-110988809D01*
X78441404Y-110972983D01*
X78443969Y-110972112D01*
X78477786Y-110961449D01*
X78480385Y-110960691D01*
X78753341Y-110887555D01*
X78755968Y-110886912D01*
X78790567Y-110879241D01*
X78793222Y-110878714D01*
X78838781Y-110870681D01*
X78841455Y-110870269D01*
X78876579Y-110865645D01*
X78879268Y-110865351D01*
X79160760Y-110840723D01*
X79163459Y-110840546D01*
X79198862Y-110839000D01*
X79201567Y-110838941D01*
X79247833Y-110838941D01*
X79250538Y-110839000D01*
X79268415Y-110839780D01*
X79268415Y-110373169D01*
X80266415Y-110373169D01*
X80266415Y-111087075D01*
X80345263Y-111123844D01*
X80347688Y-111125040D01*
X80379108Y-111141395D01*
X80381478Y-111142696D01*
X80421545Y-111165826D01*
X80423860Y-111167231D01*
X80453757Y-111186277D01*
X80456007Y-111187781D01*
X80494699Y-111214874D01*
X80533389Y-111187784D01*
X80535639Y-111186280D01*
X80565519Y-111167245D01*
X80567831Y-111165843D01*
X80607894Y-111142712D01*
X80610265Y-111141410D01*
X80641701Y-111125045D01*
X80644128Y-111123848D01*
X80900218Y-111004430D01*
X80902694Y-111003341D01*
X80935413Y-110989788D01*
X80937931Y-110988809D01*
X80981404Y-110972983D01*
X80983969Y-110972112D01*
X81017786Y-110961449D01*
X81020385Y-110960691D01*
X81293341Y-110887555D01*
X81295968Y-110886912D01*
X81330567Y-110879241D01*
X81333222Y-110878714D01*
X81378781Y-110870681D01*
X81381455Y-110870269D01*
X81416579Y-110865645D01*
X81419268Y-110865351D01*
X81700760Y-110840723D01*
X81703459Y-110840546D01*
X81738862Y-110839000D01*
X81741567Y-110838941D01*
X81768415Y-110838941D01*
X81768415Y-110373169D01*
X82766415Y-110373169D01*
X82766415Y-111068423D01*
X82885263Y-111123843D01*
X82887688Y-111125040D01*
X82919108Y-111141395D01*
X82921478Y-111142696D01*
X82961545Y-111165826D01*
X82963860Y-111167231D01*
X82993757Y-111186277D01*
X82996007Y-111187781D01*
X83034699Y-111214874D01*
X83073389Y-111187784D01*
X83075639Y-111186280D01*
X83105519Y-111167245D01*
X83107831Y-111165843D01*
X83147894Y-111142712D01*
X83150265Y-111141410D01*
X83181701Y-111125045D01*
X83184128Y-111123848D01*
X83440218Y-111004430D01*
X83442694Y-111003341D01*
X83475413Y-110989788D01*
X83477931Y-110988809D01*
X83521404Y-110972983D01*
X83523969Y-110972112D01*
X83557786Y-110961449D01*
X83560385Y-110960691D01*
X83833341Y-110887555D01*
X83835968Y-110886912D01*
X83870567Y-110879241D01*
X83873222Y-110878714D01*
X83918781Y-110870681D01*
X83921455Y-110870269D01*
X83956579Y-110865645D01*
X83959268Y-110865351D01*
X84240760Y-110840723D01*
X84243459Y-110840546D01*
X84268415Y-110839456D01*
X84268415Y-110373169D01*
X85266415Y-110373169D01*
X85266415Y-111049770D01*
X85425263Y-111123844D01*
X85427688Y-111125040D01*
X85459108Y-111141395D01*
X85461478Y-111142696D01*
X85501545Y-111165826D01*
X85503860Y-111167231D01*
X85533757Y-111186277D01*
X85536007Y-111187781D01*
X85574699Y-111214874D01*
X85613389Y-111187784D01*
X85615639Y-111186280D01*
X85645519Y-111167245D01*
X85647831Y-111165843D01*
X85687894Y-111142712D01*
X85690265Y-111141410D01*
X85721701Y-111125045D01*
X85724128Y-111123848D01*
X85922988Y-111031117D01*
X87766414Y-111031117D01*
X87965263Y-111123843D01*
X87967688Y-111125040D01*
X87999108Y-111141395D01*
X88001478Y-111142696D01*
X88041545Y-111165826D01*
X88043860Y-111167231D01*
X88073757Y-111186277D01*
X88076007Y-111187781D01*
X88114699Y-111214874D01*
X88153389Y-111187784D01*
X88155639Y-111186280D01*
X88185519Y-111167245D01*
X88187831Y-111165843D01*
X88227894Y-111142712D01*
X88230265Y-111141410D01*
X88261701Y-111125045D01*
X88264128Y-111123848D01*
X88520218Y-111004430D01*
X88522694Y-111003341D01*
X88542987Y-110994935D01*
X92766415Y-110994935D01*
X92786706Y-111003341D01*
X92789182Y-111004430D01*
X93045263Y-111123843D01*
X93047688Y-111125040D01*
X93079108Y-111141395D01*
X93081478Y-111142696D01*
X93121545Y-111165826D01*
X93123860Y-111167231D01*
X93153757Y-111186277D01*
X93156006Y-111187780D01*
X93195136Y-111215179D01*
X93233639Y-111188220D01*
X93235887Y-111186718D01*
X93265767Y-111167682D01*
X93268079Y-111166279D01*
X93308145Y-111143145D01*
X93310519Y-111141843D01*
X93341957Y-111125478D01*
X93344382Y-111124282D01*
X93600391Y-111004902D01*
X93602866Y-111003813D01*
X93635584Y-110990260D01*
X93638104Y-110989281D01*
X93681576Y-110973455D01*
X93684139Y-110972585D01*
X93717953Y-110961922D01*
X93720553Y-110961165D01*
X94184382Y-110836881D01*
X94240667Y-110835039D01*
X94268415Y-110840558D01*
X94268415Y-110373169D01*
X95266415Y-110373169D01*
X95266415Y-110980223D01*
X95291296Y-110989281D01*
X95293816Y-110990260D01*
X95326534Y-111003813D01*
X95329009Y-111004902D01*
X95585011Y-111124278D01*
X95587437Y-111125475D01*
X95618857Y-111141831D01*
X95621229Y-111143131D01*
X95661295Y-111166263D01*
X95663607Y-111167666D01*
X95693505Y-111186712D01*
X95695757Y-111188216D01*
X95734264Y-111215179D01*
X95773390Y-111187784D01*
X95775639Y-111186280D01*
X95805519Y-111167245D01*
X95807831Y-111165843D01*
X95847894Y-111142712D01*
X95850265Y-111141410D01*
X95881701Y-111125045D01*
X95884128Y-111123848D01*
X96140218Y-111004430D01*
X96142694Y-111003341D01*
X96175413Y-110989788D01*
X96177931Y-110988809D01*
X96221404Y-110972983D01*
X96223969Y-110972112D01*
X96257786Y-110961449D01*
X96260385Y-110960691D01*
X96533341Y-110887555D01*
X96535968Y-110886912D01*
X96570567Y-110879241D01*
X96573222Y-110878714D01*
X96618781Y-110870681D01*
X96621455Y-110870269D01*
X96656579Y-110865645D01*
X96659268Y-110865351D01*
X96768415Y-110855801D01*
X96768415Y-110373169D01*
X97766415Y-110373169D01*
X97766415Y-110966115D01*
X97785431Y-110972112D01*
X97787996Y-110972983D01*
X97831469Y-110988809D01*
X97833987Y-110989788D01*
X97866706Y-111003341D01*
X97869182Y-111004430D01*
X98125263Y-111123843D01*
X98127688Y-111125040D01*
X98159108Y-111141395D01*
X98161478Y-111142696D01*
X98201545Y-111165826D01*
X98203860Y-111167231D01*
X98233757Y-111186277D01*
X98236006Y-111187780D01*
X98467486Y-111349864D01*
X98469669Y-111351465D01*
X98497796Y-111373048D01*
X98499906Y-111374742D01*
X98535346Y-111404482D01*
X98537380Y-111406266D01*
X98563490Y-111430193D01*
X98565442Y-111432062D01*
X98765246Y-111631865D01*
X98767117Y-111633819D01*
X98791064Y-111659952D01*
X98792850Y-111661988D01*
X98822587Y-111697430D01*
X98824280Y-111699539D01*
X98845846Y-111727646D01*
X98847445Y-111729827D01*
X98949214Y-111875169D01*
X99268415Y-111875169D01*
X99268415Y-110819200D01*
X102807778Y-110819200D01*
X103660846Y-110819200D01*
X103708298Y-110828639D01*
X103710300Y-110829468D01*
X103712302Y-110828639D01*
X103759754Y-110819200D01*
X104268415Y-110819200D01*
X104268415Y-110373169D01*
X105266415Y-110373169D01*
X105266415Y-110990133D01*
X105310446Y-111014176D01*
X105385819Y-110979030D01*
X105388295Y-110977941D01*
X105421013Y-110964388D01*
X105423531Y-110963409D01*
X105467004Y-110947583D01*
X105469569Y-110946712D01*
X105503386Y-110936049D01*
X105505985Y-110935291D01*
X105778941Y-110862155D01*
X105781568Y-110861512D01*
X105816167Y-110853841D01*
X105818822Y-110853314D01*
X105864381Y-110845281D01*
X105867055Y-110844869D01*
X105902179Y-110840245D01*
X105904868Y-110839951D01*
X106186360Y-110815323D01*
X106189059Y-110815146D01*
X106224462Y-110813600D01*
X106227167Y-110813541D01*
X106273433Y-110813541D01*
X106276138Y-110813600D01*
X106311541Y-110815146D01*
X106314240Y-110815323D01*
X106595732Y-110839951D01*
X106598421Y-110840245D01*
X106633545Y-110844869D01*
X106636219Y-110845281D01*
X106681778Y-110853314D01*
X106684433Y-110853841D01*
X106719032Y-110861512D01*
X106721659Y-110862155D01*
X106768415Y-110874682D01*
X106768415Y-110373169D01*
X107766415Y-110373169D01*
X107766415Y-111053361D01*
X107925818Y-110979030D01*
X107928294Y-110977941D01*
X107961013Y-110964388D01*
X107963531Y-110963409D01*
X108007004Y-110947583D01*
X108009569Y-110946712D01*
X108043386Y-110936049D01*
X108045985Y-110935291D01*
X108318941Y-110862155D01*
X108321568Y-110861512D01*
X108356167Y-110853841D01*
X108358822Y-110853314D01*
X108404381Y-110845281D01*
X108407055Y-110844869D01*
X108442179Y-110840245D01*
X108444868Y-110839951D01*
X108726360Y-110815323D01*
X108729059Y-110815146D01*
X108764462Y-110813600D01*
X108767167Y-110813541D01*
X108813433Y-110813541D01*
X108816138Y-110813600D01*
X108851541Y-110815146D01*
X108854240Y-110815323D01*
X109135732Y-110839951D01*
X109138421Y-110840245D01*
X109173545Y-110844869D01*
X109176219Y-110845281D01*
X109221778Y-110853314D01*
X109224433Y-110853841D01*
X109259032Y-110861512D01*
X109261659Y-110862155D01*
X109268415Y-110863965D01*
X109268415Y-110373169D01*
X110266415Y-110373169D01*
X110266415Y-111072014D01*
X110465818Y-110979030D01*
X110468294Y-110977941D01*
X110501013Y-110964388D01*
X110503531Y-110963409D01*
X110547004Y-110947583D01*
X110549569Y-110946712D01*
X110583386Y-110936049D01*
X110585985Y-110935291D01*
X110858941Y-110862155D01*
X110861568Y-110861512D01*
X110896167Y-110853841D01*
X110898822Y-110853314D01*
X110944381Y-110845281D01*
X110947055Y-110844869D01*
X110982179Y-110840245D01*
X110984868Y-110839951D01*
X111266360Y-110815323D01*
X111269059Y-110815146D01*
X111304462Y-110813600D01*
X111307167Y-110813541D01*
X111353433Y-110813541D01*
X111356138Y-110813600D01*
X111391541Y-110815146D01*
X111394240Y-110815323D01*
X111675732Y-110839951D01*
X111678421Y-110840245D01*
X111713545Y-110844869D01*
X111716219Y-110845281D01*
X111761778Y-110853314D01*
X111764433Y-110853841D01*
X111768415Y-110854723D01*
X111768415Y-110373169D01*
X112766415Y-110373169D01*
X112766415Y-111305789D01*
X112793086Y-111324465D01*
X112795269Y-111326065D01*
X112823396Y-111347648D01*
X112825506Y-111349342D01*
X112860946Y-111379082D01*
X112862980Y-111380866D01*
X112889090Y-111404793D01*
X112891042Y-111406662D01*
X113090846Y-111606465D01*
X113092717Y-111608419D01*
X113116664Y-111634552D01*
X113118450Y-111636588D01*
X113148187Y-111672030D01*
X113149880Y-111674139D01*
X113171446Y-111702246D01*
X113173045Y-111704427D01*
X113292599Y-111875169D01*
X113506028Y-111875169D01*
X113967447Y-111213133D01*
X113969281Y-111210637D01*
X114001766Y-111168663D01*
X114003724Y-111166260D01*
X114268415Y-110857454D01*
X114268415Y-110373169D01*
X113811187Y-110373169D01*
X113650792Y-110407262D01*
X113647600Y-110407853D01*
X113605616Y-110414503D01*
X113602401Y-110414926D01*
X113547185Y-110420733D01*
X113543946Y-110420988D01*
X113501462Y-110423215D01*
X113498216Y-110423300D01*
X113253384Y-110423300D01*
X113250138Y-110423215D01*
X113207654Y-110420988D01*
X113204415Y-110420733D01*
X113149199Y-110414926D01*
X113145984Y-110414503D01*
X113104000Y-110407853D01*
X113100808Y-110407262D01*
X112940413Y-110373169D01*
X112766415Y-110373169D01*
X111768415Y-110373169D01*
X110266415Y-110373169D01*
X109268415Y-110373169D01*
X107766415Y-110373169D01*
X106768415Y-110373169D01*
X105266415Y-110373169D01*
X104268415Y-110373169D01*
X103010346Y-110373169D01*
X102963451Y-110517497D01*
X102962367Y-110520559D01*
X102947117Y-110560281D01*
X102945874Y-110563281D01*
X102923289Y-110614002D01*
X102921892Y-110616931D01*
X102902596Y-110654798D01*
X102901048Y-110657650D01*
X102807778Y-110819200D01*
X99268415Y-110819200D01*
X99268415Y-110373169D01*
X97766415Y-110373169D01*
X96768415Y-110373169D01*
X95266415Y-110373169D01*
X94268415Y-110373169D01*
X92782075Y-110373169D01*
X92767995Y-110400799D01*
X92766447Y-110403650D01*
X92766415Y-110403705D01*
X92766415Y-110994935D01*
X88542987Y-110994935D01*
X88555413Y-110989788D01*
X88557931Y-110988809D01*
X88601404Y-110972983D01*
X88603969Y-110972112D01*
X88637786Y-110961449D01*
X88640385Y-110960691D01*
X88913341Y-110887555D01*
X88915968Y-110886912D01*
X88950567Y-110879241D01*
X88953222Y-110878714D01*
X88998781Y-110870681D01*
X89001455Y-110870269D01*
X89036579Y-110865645D01*
X89039268Y-110865351D01*
X89268415Y-110845302D01*
X89268415Y-110373169D01*
X87766415Y-110373169D01*
X87766414Y-111031117D01*
X85922988Y-111031117D01*
X85980218Y-111004430D01*
X85982694Y-111003341D01*
X86015413Y-110989788D01*
X86017931Y-110988809D01*
X86061404Y-110972983D01*
X86063969Y-110972112D01*
X86097786Y-110961449D01*
X86100385Y-110960691D01*
X86373341Y-110887555D01*
X86375968Y-110886912D01*
X86410567Y-110879241D01*
X86413222Y-110878714D01*
X86458781Y-110870681D01*
X86461455Y-110870269D01*
X86496579Y-110865645D01*
X86499268Y-110865351D01*
X86768415Y-110841803D01*
X86768415Y-110373169D01*
X85266415Y-110373169D01*
X84268415Y-110373169D01*
X82766415Y-110373169D01*
X81768415Y-110373169D01*
X80266415Y-110373169D01*
X79268415Y-110373169D01*
X77766415Y-110373169D01*
X76768415Y-110373169D01*
X75266415Y-110373169D01*
X70020734Y-110373169D01*
X70022548Y-109560400D01*
X90155640Y-109560400D01*
X90175426Y-109748656D01*
X90175427Y-109748659D01*
X90233918Y-109928677D01*
X90233921Y-109928684D01*
X90328567Y-110092616D01*
X90409659Y-110182677D01*
X90455229Y-110233288D01*
X90608365Y-110344548D01*
X90608370Y-110344551D01*
X90781292Y-110421542D01*
X90781297Y-110421544D01*
X90966454Y-110460900D01*
X90966455Y-110460900D01*
X91155744Y-110460900D01*
X91155746Y-110460900D01*
X91340903Y-110421544D01*
X91513830Y-110344551D01*
X91666971Y-110233288D01*
X91793633Y-110092616D01*
X91888279Y-109928684D01*
X91925412Y-109814400D01*
X100290240Y-109814400D01*
X100310026Y-110002656D01*
X100310027Y-110002659D01*
X100368518Y-110182677D01*
X100368521Y-110182684D01*
X100463167Y-110346616D01*
X100532214Y-110423300D01*
X100589829Y-110487288D01*
X100742965Y-110598548D01*
X100742970Y-110598551D01*
X100915892Y-110675542D01*
X100915897Y-110675544D01*
X101101054Y-110714900D01*
X101101055Y-110714900D01*
X101290344Y-110714900D01*
X101290346Y-110714900D01*
X101475503Y-110675544D01*
X101648430Y-110598551D01*
X101801571Y-110487288D01*
X101928233Y-110346616D01*
X102022879Y-110182684D01*
X102081374Y-110002656D01*
X102101160Y-109814400D01*
X102081374Y-109626144D01*
X102022879Y-109446116D01*
X101928233Y-109282184D01*
X101801571Y-109141512D01*
X101791723Y-109134357D01*
X101648434Y-109030251D01*
X101648429Y-109030248D01*
X101475507Y-108953257D01*
X101475502Y-108953255D01*
X101329701Y-108922265D01*
X101290346Y-108913900D01*
X101101054Y-108913900D01*
X101068597Y-108920798D01*
X100915897Y-108953255D01*
X100915892Y-108953257D01*
X100742970Y-109030248D01*
X100742965Y-109030251D01*
X100589829Y-109141511D01*
X100463166Y-109282185D01*
X100368521Y-109446115D01*
X100368518Y-109446122D01*
X100310027Y-109626140D01*
X100310026Y-109626144D01*
X100290240Y-109814400D01*
X91925412Y-109814400D01*
X91946774Y-109748656D01*
X91966560Y-109560400D01*
X91946774Y-109372144D01*
X91888279Y-109192116D01*
X91793633Y-109028184D01*
X91666971Y-108887512D01*
X91666970Y-108887511D01*
X91513834Y-108776251D01*
X91513829Y-108776248D01*
X91340907Y-108699257D01*
X91340902Y-108699255D01*
X91195100Y-108668265D01*
X91155746Y-108659900D01*
X90966454Y-108659900D01*
X90933997Y-108666798D01*
X90781297Y-108699255D01*
X90781292Y-108699257D01*
X90608370Y-108776248D01*
X90608365Y-108776251D01*
X90455229Y-108887511D01*
X90328566Y-109028185D01*
X90233921Y-109192115D01*
X90233918Y-109192122D01*
X90176756Y-109368050D01*
X90175426Y-109372144D01*
X90155640Y-109560400D01*
X70022548Y-109560400D01*
X70022962Y-109375169D01*
X71146965Y-109375169D01*
X71768415Y-109375169D01*
X71768415Y-107873169D01*
X72766415Y-107873169D01*
X72766415Y-109375169D01*
X74268415Y-109375169D01*
X74268415Y-109329076D01*
X74240238Y-109297783D01*
X74238130Y-109295315D01*
X74211373Y-109262274D01*
X74209397Y-109259699D01*
X74176760Y-109214781D01*
X74174920Y-109212104D01*
X74151752Y-109176429D01*
X74150055Y-109173661D01*
X74027652Y-108961650D01*
X74026104Y-108958798D01*
X74006808Y-108920931D01*
X74005411Y-108918002D01*
X73982826Y-108867281D01*
X73981583Y-108864281D01*
X73966333Y-108824559D01*
X73965249Y-108821497D01*
X73889591Y-108588647D01*
X73888669Y-108585533D01*
X73877659Y-108544443D01*
X73876901Y-108541285D01*
X73865359Y-108486974D01*
X73864768Y-108483784D01*
X73858119Y-108441795D01*
X73857695Y-108438577D01*
X73832106Y-108195109D01*
X73831851Y-108191873D01*
X73829625Y-108149406D01*
X73829540Y-108146160D01*
X73829540Y-108118400D01*
X74827540Y-108118400D01*
X74847326Y-108306656D01*
X74847327Y-108306659D01*
X74905818Y-108486677D01*
X74905821Y-108486684D01*
X75000467Y-108650616D01*
X75099676Y-108760798D01*
X75127129Y-108791288D01*
X75280265Y-108902548D01*
X75280270Y-108902551D01*
X75453192Y-108979542D01*
X75453197Y-108979544D01*
X75638354Y-109018900D01*
X75638355Y-109018900D01*
X75827644Y-109018900D01*
X75827646Y-109018900D01*
X76012803Y-108979544D01*
X76185730Y-108902551D01*
X76338871Y-108791288D01*
X76465533Y-108650616D01*
X76560179Y-108486684D01*
X76618674Y-108306656D01*
X76638460Y-108118400D01*
X76618674Y-107930144D01*
X76600162Y-107873169D01*
X77766415Y-107873169D01*
X77766415Y-109375169D01*
X79268415Y-109375169D01*
X79268415Y-107873169D01*
X80266415Y-107873169D01*
X80266415Y-109375169D01*
X81768415Y-109375169D01*
X81768415Y-109119527D01*
X81706260Y-109074370D01*
X81703683Y-109072393D01*
X81670638Y-109045632D01*
X81668171Y-109043525D01*
X81626910Y-109006375D01*
X81624555Y-109004139D01*
X81594483Y-108974067D01*
X81592248Y-108971713D01*
X81428437Y-108789782D01*
X81426330Y-108787315D01*
X81399573Y-108754274D01*
X81397597Y-108751699D01*
X81364960Y-108706781D01*
X81363120Y-108704104D01*
X81339952Y-108668429D01*
X81338255Y-108665661D01*
X81215852Y-108453650D01*
X81214304Y-108450798D01*
X81195008Y-108412931D01*
X81193611Y-108410002D01*
X81171026Y-108359281D01*
X81169783Y-108356281D01*
X81154533Y-108316559D01*
X81153449Y-108313497D01*
X81077791Y-108080647D01*
X81076869Y-108077533D01*
X81065859Y-108036443D01*
X81065101Y-108033285D01*
X81053559Y-107978974D01*
X81052968Y-107975784D01*
X81046319Y-107933795D01*
X81045895Y-107930577D01*
X81039861Y-107873169D01*
X80266415Y-107873169D01*
X79268415Y-107873169D01*
X77766415Y-107873169D01*
X76600162Y-107873169D01*
X76560179Y-107750116D01*
X76479514Y-107610400D01*
X82015740Y-107610400D01*
X82035526Y-107798656D01*
X82035527Y-107798659D01*
X82094018Y-107978677D01*
X82094021Y-107978684D01*
X82188667Y-108142616D01*
X82315329Y-108283287D01*
X82315329Y-108283288D01*
X82468465Y-108394548D01*
X82468470Y-108394551D01*
X82641392Y-108471542D01*
X82641397Y-108471544D01*
X82826554Y-108510900D01*
X82826555Y-108510900D01*
X83015844Y-108510900D01*
X83015846Y-108510900D01*
X83201003Y-108471544D01*
X83373930Y-108394551D01*
X83527071Y-108283288D01*
X83653733Y-108142616D01*
X83748379Y-107978684D01*
X83782663Y-107873169D01*
X85266415Y-107873169D01*
X85266415Y-109375169D01*
X86768415Y-109375169D01*
X86768415Y-107873169D01*
X87766415Y-107873169D01*
X87766415Y-109375169D01*
X89171612Y-109375169D01*
X89185795Y-109240223D01*
X89186219Y-109237005D01*
X89192868Y-109195016D01*
X89193459Y-109191826D01*
X89205001Y-109137515D01*
X89205759Y-109134357D01*
X89216769Y-109093267D01*
X89217691Y-109090153D01*
X89268415Y-108934041D01*
X89268415Y-107873169D01*
X92766415Y-107873169D01*
X92766415Y-108717093D01*
X92766448Y-108717151D01*
X92767996Y-108720002D01*
X92787292Y-108757869D01*
X92788689Y-108760798D01*
X92811274Y-108811519D01*
X92812517Y-108814519D01*
X92827767Y-108854241D01*
X92828851Y-108857303D01*
X92904509Y-109090153D01*
X92905431Y-109093267D01*
X92916441Y-109134357D01*
X92917199Y-109137515D01*
X92928741Y-109191826D01*
X92929332Y-109195016D01*
X92935981Y-109237005D01*
X92936405Y-109240223D01*
X92950588Y-109375169D01*
X94268415Y-109375169D01*
X94268415Y-107873169D01*
X95266415Y-107873169D01*
X95266415Y-109375169D01*
X96768415Y-109375169D01*
X96768415Y-107873169D01*
X97766415Y-107873169D01*
X97766415Y-109375169D01*
X99268415Y-109375169D01*
X99268415Y-108815224D01*
X102811025Y-108815224D01*
X102901048Y-108971150D01*
X102902596Y-108974002D01*
X102921892Y-109011869D01*
X102923289Y-109014798D01*
X102945874Y-109065519D01*
X102947117Y-109068519D01*
X102962367Y-109108241D01*
X102963451Y-109111303D01*
X103039109Y-109344153D01*
X103040031Y-109347267D01*
X103047507Y-109375169D01*
X104268415Y-109375169D01*
X104268415Y-107873169D01*
X105266415Y-107873169D01*
X105266415Y-109375169D01*
X106768415Y-109375169D01*
X106768415Y-107873169D01*
X107766415Y-107873169D01*
X107766415Y-109375169D01*
X109268415Y-109375169D01*
X109268415Y-107873169D01*
X110266415Y-107873169D01*
X110266415Y-109375169D01*
X111674562Y-109375169D01*
X111670452Y-109368050D01*
X111668904Y-109365199D01*
X111649608Y-109327331D01*
X111648211Y-109324402D01*
X111625626Y-109273681D01*
X111624383Y-109270681D01*
X111609133Y-109230959D01*
X111608049Y-109227897D01*
X111532391Y-108995047D01*
X111531469Y-108991933D01*
X111520459Y-108950843D01*
X111519701Y-108947685D01*
X111508159Y-108893374D01*
X111507568Y-108890184D01*
X111500919Y-108848195D01*
X111500495Y-108844977D01*
X111474906Y-108601509D01*
X111474651Y-108598273D01*
X111472425Y-108555806D01*
X111472340Y-108552560D01*
X111472340Y-108524800D01*
X112470340Y-108524800D01*
X112490126Y-108713056D01*
X112490127Y-108713059D01*
X112548618Y-108893077D01*
X112548621Y-108893084D01*
X112643267Y-109057016D01*
X112715749Y-109137515D01*
X112769929Y-109197688D01*
X112923065Y-109308948D01*
X112923070Y-109308951D01*
X113095992Y-109385942D01*
X113095997Y-109385944D01*
X113281154Y-109425300D01*
X113281155Y-109425300D01*
X113470444Y-109425300D01*
X113470446Y-109425300D01*
X113655603Y-109385944D01*
X113828530Y-109308951D01*
X113981671Y-109197688D01*
X114108333Y-109057016D01*
X114202979Y-108893084D01*
X114261474Y-108713056D01*
X114281260Y-108524800D01*
X114267303Y-108392000D01*
X114876841Y-108392000D01*
X114897436Y-108627403D01*
X114897438Y-108627413D01*
X114958594Y-108855655D01*
X114958596Y-108855659D01*
X114958597Y-108855663D01*
X115031437Y-109011869D01*
X115058465Y-109069830D01*
X115058467Y-109069834D01*
X115144095Y-109192122D01*
X115194005Y-109263401D01*
X115361099Y-109430495D01*
X115383417Y-109446122D01*
X115554665Y-109566032D01*
X115554667Y-109566033D01*
X115554670Y-109566035D01*
X115768837Y-109665903D01*
X115997092Y-109727063D01*
X116185418Y-109743539D01*
X116232499Y-109747659D01*
X116232500Y-109747659D01*
X116232501Y-109747659D01*
X116271734Y-109744226D01*
X116467908Y-109727063D01*
X116696163Y-109665903D01*
X116910330Y-109566035D01*
X117103901Y-109430495D01*
X117270995Y-109263401D01*
X117406535Y-109069830D01*
X117506403Y-108855663D01*
X117567563Y-108627408D01*
X117588159Y-108392000D01*
X117567563Y-108156592D01*
X117519116Y-107975784D01*
X117506405Y-107928344D01*
X117506404Y-107928343D01*
X117506403Y-107928337D01*
X117406535Y-107714171D01*
X117371165Y-107663656D01*
X117270994Y-107520597D01*
X117103902Y-107353506D01*
X117103896Y-107353501D01*
X116918342Y-107223575D01*
X116874717Y-107168998D01*
X116867523Y-107099500D01*
X116899046Y-107037145D01*
X116918342Y-107020425D01*
X116940526Y-107004891D01*
X117103901Y-106890495D01*
X117270995Y-106723401D01*
X117406535Y-106529830D01*
X117506403Y-106315663D01*
X117567563Y-106087408D01*
X117588159Y-105852000D01*
X117587276Y-105841913D01*
X117579854Y-105757074D01*
X117567563Y-105616592D01*
X117508818Y-105397351D01*
X117506405Y-105388344D01*
X117506404Y-105388343D01*
X117506403Y-105388337D01*
X117406535Y-105174171D01*
X117386400Y-105145414D01*
X117270994Y-104980597D01*
X117103902Y-104813506D01*
X117103901Y-104813505D01*
X116918342Y-104683575D01*
X116918341Y-104683574D01*
X116874716Y-104628997D01*
X116867524Y-104559498D01*
X116899046Y-104497144D01*
X116918336Y-104480428D01*
X117103901Y-104350495D01*
X117270995Y-104183401D01*
X117406535Y-103989830D01*
X117506403Y-103775663D01*
X117567563Y-103547408D01*
X117588159Y-103312000D01*
X117567563Y-103076592D01*
X117506403Y-102848337D01*
X117406535Y-102634171D01*
X117342914Y-102543311D01*
X117270996Y-102440600D01*
X117262444Y-102432048D01*
X117148679Y-102318283D01*
X117115196Y-102256963D01*
X117120180Y-102187271D01*
X117162051Y-102131337D01*
X117193029Y-102114422D01*
X117324586Y-102065354D01*
X117324593Y-102065350D01*
X117439687Y-101979190D01*
X117439690Y-101979187D01*
X117525850Y-101864093D01*
X117525854Y-101864086D01*
X117576096Y-101729379D01*
X117576098Y-101729372D01*
X117582499Y-101669844D01*
X117582500Y-101669827D01*
X117582500Y-101022000D01*
X116666186Y-101022000D01*
X116691993Y-100981844D01*
X116732500Y-100843889D01*
X116732500Y-100700111D01*
X116691993Y-100562156D01*
X116666186Y-100522000D01*
X117582500Y-100522000D01*
X117582500Y-99874172D01*
X117582499Y-99874155D01*
X117576098Y-99814627D01*
X117576096Y-99814620D01*
X117525854Y-99679913D01*
X117525850Y-99679906D01*
X117439690Y-99564812D01*
X117439687Y-99564809D01*
X117324593Y-99478649D01*
X117324586Y-99478645D01*
X117189879Y-99428403D01*
X117189872Y-99428401D01*
X117130344Y-99422000D01*
X116482500Y-99422000D01*
X116482500Y-100336498D01*
X116374815Y-100287320D01*
X116268263Y-100272000D01*
X116196737Y-100272000D01*
X116090185Y-100287320D01*
X115982500Y-100336498D01*
X115982500Y-99422000D01*
X115334655Y-99422000D01*
X115275127Y-99428401D01*
X115275120Y-99428403D01*
X115140413Y-99478645D01*
X115140406Y-99478649D01*
X115025312Y-99564809D01*
X115025309Y-99564812D01*
X114939149Y-99679906D01*
X114939145Y-99679913D01*
X114888903Y-99814620D01*
X114888901Y-99814627D01*
X114882500Y-99874155D01*
X114882500Y-100522000D01*
X115798814Y-100522000D01*
X115773007Y-100562156D01*
X115732500Y-100700111D01*
X115732500Y-100843889D01*
X115773007Y-100981844D01*
X115798814Y-101022000D01*
X114882500Y-101022000D01*
X114882500Y-101669844D01*
X114888901Y-101729372D01*
X114888903Y-101729379D01*
X114939145Y-101864086D01*
X114939149Y-101864093D01*
X115025309Y-101979187D01*
X115025312Y-101979190D01*
X115140406Y-102065350D01*
X115140413Y-102065354D01*
X115271970Y-102114421D01*
X115327903Y-102156292D01*
X115352321Y-102221756D01*
X115337470Y-102290029D01*
X115316319Y-102318284D01*
X115194003Y-102440600D01*
X115058465Y-102634169D01*
X115058464Y-102634171D01*
X114958598Y-102848335D01*
X114958594Y-102848344D01*
X114897438Y-103076586D01*
X114897436Y-103076596D01*
X114876841Y-103311999D01*
X114876841Y-103312000D01*
X114897436Y-103547403D01*
X114897438Y-103547413D01*
X114958594Y-103775655D01*
X114958596Y-103775659D01*
X114958597Y-103775663D01*
X115021288Y-103910103D01*
X115058465Y-103989830D01*
X115058467Y-103989834D01*
X115194001Y-104183395D01*
X115194006Y-104183402D01*
X115361097Y-104350493D01*
X115361103Y-104350498D01*
X115546658Y-104480425D01*
X115590283Y-104535002D01*
X115597477Y-104604500D01*
X115565954Y-104666855D01*
X115546658Y-104683575D01*
X115361097Y-104813505D01*
X115194005Y-104980597D01*
X115058465Y-105174169D01*
X115058464Y-105174171D01*
X114958598Y-105388335D01*
X114958594Y-105388344D01*
X114897438Y-105616586D01*
X114897436Y-105616596D01*
X114876841Y-105851999D01*
X114876841Y-105852000D01*
X114897436Y-106087403D01*
X114897438Y-106087413D01*
X114958594Y-106315655D01*
X114958596Y-106315659D01*
X114958597Y-106315663D01*
X115058465Y-106529829D01*
X115058465Y-106529830D01*
X115058467Y-106529834D01*
X115166781Y-106684521D01*
X115184551Y-106709900D01*
X115194001Y-106723395D01*
X115194006Y-106723402D01*
X115361097Y-106890493D01*
X115361103Y-106890498D01*
X115546658Y-107020425D01*
X115590283Y-107075002D01*
X115597477Y-107144500D01*
X115565954Y-107206855D01*
X115546658Y-107223575D01*
X115361097Y-107353505D01*
X115194005Y-107520597D01*
X115058465Y-107714169D01*
X115058464Y-107714171D01*
X114958598Y-107928335D01*
X114958594Y-107928344D01*
X114897438Y-108156586D01*
X114897436Y-108156596D01*
X114876841Y-108391999D01*
X114876841Y-108392000D01*
X114267303Y-108392000D01*
X114261474Y-108336544D01*
X114202979Y-108156516D01*
X114108333Y-107992584D01*
X113981671Y-107851912D01*
X113981670Y-107851911D01*
X113828534Y-107740651D01*
X113828529Y-107740648D01*
X113655607Y-107663657D01*
X113655602Y-107663655D01*
X113509801Y-107632665D01*
X113470446Y-107624300D01*
X113281154Y-107624300D01*
X113248697Y-107631198D01*
X113095997Y-107663655D01*
X113095992Y-107663657D01*
X112923070Y-107740648D01*
X112923065Y-107740651D01*
X112769929Y-107851911D01*
X112643266Y-107992585D01*
X112548621Y-108156515D01*
X112548618Y-108156522D01*
X112490127Y-108336540D01*
X112490126Y-108336544D01*
X112470340Y-108524800D01*
X111472340Y-108524800D01*
X111472340Y-108497040D01*
X111472425Y-108493794D01*
X111474651Y-108451327D01*
X111474906Y-108448091D01*
X111500495Y-108204623D01*
X111500919Y-108201405D01*
X111507568Y-108159416D01*
X111508159Y-108156226D01*
X111519701Y-108101915D01*
X111520459Y-108098757D01*
X111531469Y-108057667D01*
X111532391Y-108054553D01*
X111591327Y-107873169D01*
X110266415Y-107873169D01*
X109268415Y-107873169D01*
X107766415Y-107873169D01*
X106768415Y-107873169D01*
X105266415Y-107873169D01*
X104268415Y-107873169D01*
X102926094Y-107873169D01*
X102944887Y-107939222D01*
X102949092Y-107961715D01*
X102969612Y-108183159D01*
X102969612Y-108206041D01*
X102949092Y-108427485D01*
X102944887Y-108449978D01*
X102884027Y-108663881D01*
X102875761Y-108685219D01*
X102811025Y-108815224D01*
X99268415Y-108815224D01*
X99268415Y-107873169D01*
X97766415Y-107873169D01*
X96768415Y-107873169D01*
X95266415Y-107873169D01*
X94268415Y-107873169D01*
X92766415Y-107873169D01*
X89268415Y-107873169D01*
X87766415Y-107873169D01*
X86768415Y-107873169D01*
X85266415Y-107873169D01*
X83782663Y-107873169D01*
X83806874Y-107798656D01*
X83826660Y-107610400D01*
X83806874Y-107422144D01*
X83748379Y-107242116D01*
X83653733Y-107078184D01*
X83527071Y-106937512D01*
X83462362Y-106890498D01*
X83373934Y-106826251D01*
X83373929Y-106826248D01*
X83201007Y-106749257D01*
X83201002Y-106749255D01*
X83055200Y-106718265D01*
X83015846Y-106709900D01*
X82826554Y-106709900D01*
X82794097Y-106716798D01*
X82641397Y-106749255D01*
X82641392Y-106749257D01*
X82468470Y-106826248D01*
X82468465Y-106826251D01*
X82315329Y-106937511D01*
X82188666Y-107078185D01*
X82094021Y-107242115D01*
X82094018Y-107242122D01*
X82035527Y-107422140D01*
X82035526Y-107422144D01*
X82015740Y-107610400D01*
X76479514Y-107610400D01*
X76465533Y-107586184D01*
X76338871Y-107445512D01*
X76306708Y-107422144D01*
X76185734Y-107334251D01*
X76185729Y-107334248D01*
X76012807Y-107257257D01*
X76012802Y-107257255D01*
X75854345Y-107223575D01*
X75827646Y-107217900D01*
X75638354Y-107217900D01*
X75611655Y-107223575D01*
X75453197Y-107257255D01*
X75453192Y-107257257D01*
X75280270Y-107334248D01*
X75280265Y-107334251D01*
X75127129Y-107445511D01*
X75000466Y-107586185D01*
X74905821Y-107750115D01*
X74905818Y-107750122D01*
X74847913Y-107928337D01*
X74847326Y-107930144D01*
X74827540Y-108118400D01*
X73829540Y-108118400D01*
X73829540Y-108090640D01*
X73829625Y-108087394D01*
X73831851Y-108044927D01*
X73832106Y-108041691D01*
X73849818Y-107873169D01*
X72766415Y-107873169D01*
X71768415Y-107873169D01*
X71150318Y-107873169D01*
X71146965Y-109375169D01*
X70022962Y-109375169D01*
X70028542Y-106875169D01*
X71152545Y-106875169D01*
X71768415Y-106875169D01*
X71768415Y-105373169D01*
X72766415Y-105373169D01*
X72766415Y-106875169D01*
X74268415Y-106875169D01*
X74268415Y-105373169D01*
X77766415Y-105373169D01*
X77766415Y-106875169D01*
X79268415Y-106875169D01*
X79268415Y-105373169D01*
X80266415Y-105373169D01*
X80266415Y-106875169D01*
X81165694Y-106875169D01*
X81169783Y-106864519D01*
X81171026Y-106861519D01*
X81193611Y-106810798D01*
X81195008Y-106807869D01*
X81214304Y-106770002D01*
X81215852Y-106767150D01*
X81338255Y-106555139D01*
X81339952Y-106552371D01*
X81363120Y-106516696D01*
X81364960Y-106514019D01*
X81397597Y-106469101D01*
X81399573Y-106466526D01*
X81426330Y-106433485D01*
X81428437Y-106431018D01*
X81592248Y-106249087D01*
X81594483Y-106246733D01*
X81624555Y-106216661D01*
X81626910Y-106214425D01*
X81668171Y-106177275D01*
X81670638Y-106175168D01*
X81703683Y-106148407D01*
X81706260Y-106146430D01*
X81768415Y-106101272D01*
X81768415Y-105373169D01*
X82766415Y-105373169D01*
X82766415Y-105713511D01*
X82795538Y-105711985D01*
X82798784Y-105711900D01*
X83043616Y-105711900D01*
X83046862Y-105711985D01*
X83089346Y-105714212D01*
X83092585Y-105714467D01*
X83147801Y-105720274D01*
X83151016Y-105720697D01*
X83193000Y-105727347D01*
X83196192Y-105727938D01*
X83435647Y-105778835D01*
X83438804Y-105779593D01*
X83479872Y-105790597D01*
X83482983Y-105791518D01*
X83535791Y-105808675D01*
X83538854Y-105809759D01*
X83578567Y-105825004D01*
X83581567Y-105826247D01*
X83805210Y-105925821D01*
X83808138Y-105927218D01*
X83846010Y-105946513D01*
X83848864Y-105948062D01*
X83896948Y-105975822D01*
X83899716Y-105977518D01*
X83935396Y-106000687D01*
X83938073Y-106002527D01*
X84136140Y-106146430D01*
X84138717Y-106148407D01*
X84171762Y-106175168D01*
X84174229Y-106177275D01*
X84215490Y-106214425D01*
X84217845Y-106216661D01*
X84247917Y-106246733D01*
X84250152Y-106249087D01*
X84268415Y-106269370D01*
X84268415Y-105373169D01*
X85266415Y-105373169D01*
X85266415Y-106875169D01*
X86768415Y-106875169D01*
X86768415Y-105373169D01*
X87766415Y-105373169D01*
X87766415Y-106875169D01*
X89268415Y-106875169D01*
X89268415Y-105735292D01*
X90266415Y-105735292D01*
X90266415Y-106875169D01*
X91768415Y-106875169D01*
X91768415Y-105739107D01*
X91682067Y-105777553D01*
X91679067Y-105778796D01*
X91639354Y-105794041D01*
X91636291Y-105795125D01*
X91583483Y-105812282D01*
X91580372Y-105813203D01*
X91539304Y-105824207D01*
X91536147Y-105824965D01*
X91296692Y-105875862D01*
X91293500Y-105876453D01*
X91251516Y-105883103D01*
X91248301Y-105883526D01*
X91193085Y-105889333D01*
X91189846Y-105889588D01*
X91147362Y-105891815D01*
X91144116Y-105891900D01*
X90899284Y-105891900D01*
X90896038Y-105891815D01*
X90853554Y-105889588D01*
X90850315Y-105889333D01*
X90795099Y-105883526D01*
X90791884Y-105883103D01*
X90749900Y-105876453D01*
X90746708Y-105875862D01*
X90507253Y-105824965D01*
X90504096Y-105824207D01*
X90463028Y-105813203D01*
X90459917Y-105812282D01*
X90407109Y-105795125D01*
X90404046Y-105794041D01*
X90364333Y-105778796D01*
X90361333Y-105777553D01*
X90266415Y-105735292D01*
X89268415Y-105735292D01*
X89268415Y-105373169D01*
X92766415Y-105373169D01*
X92766415Y-106875169D01*
X94268415Y-106875169D01*
X95266415Y-106875169D01*
X96768415Y-106875169D01*
X96768415Y-105373169D01*
X97766415Y-105373169D01*
X97766415Y-106875169D01*
X99268415Y-106875169D01*
X99268415Y-105373169D01*
X100266415Y-105373169D01*
X100266415Y-106875169D01*
X101493870Y-106875169D01*
X102766415Y-106875169D01*
X104268415Y-106875169D01*
X104268415Y-105373169D01*
X105266415Y-105373169D01*
X105266415Y-106875169D01*
X106768415Y-106875169D01*
X106768415Y-105373169D01*
X107766415Y-105373169D01*
X107766415Y-106875169D01*
X109268415Y-106875169D01*
X109268415Y-105373169D01*
X110266415Y-105373169D01*
X110266415Y-106875169D01*
X111768415Y-106875169D01*
X111768415Y-105862747D01*
X111705238Y-105792583D01*
X111703130Y-105790115D01*
X111676373Y-105757074D01*
X111674397Y-105754499D01*
X111641760Y-105709581D01*
X111639920Y-105706904D01*
X111616752Y-105671229D01*
X111615055Y-105668461D01*
X111492652Y-105456450D01*
X111491104Y-105453598D01*
X111471808Y-105415731D01*
X111470411Y-105412802D01*
X111452763Y-105373169D01*
X110266415Y-105373169D01*
X109268415Y-105373169D01*
X107766415Y-105373169D01*
X106768415Y-105373169D01*
X105266415Y-105373169D01*
X104268415Y-105373169D01*
X102999392Y-105373169D01*
X102884564Y-105525225D01*
X102869148Y-105542135D01*
X102766415Y-105635788D01*
X102766415Y-106875169D01*
X101493870Y-106875169D01*
X101507019Y-106872711D01*
X101529804Y-106870600D01*
X101752196Y-106870600D01*
X101768415Y-106872102D01*
X101768415Y-105961174D01*
X101761019Y-105960489D01*
X101542413Y-105919625D01*
X101520404Y-105913363D01*
X101313028Y-105833025D01*
X101292544Y-105822825D01*
X101103462Y-105705750D01*
X101085202Y-105691960D01*
X100920852Y-105542135D01*
X100905436Y-105525225D01*
X100790608Y-105373169D01*
X100266415Y-105373169D01*
X99268415Y-105373169D01*
X97766415Y-105373169D01*
X96768415Y-105373169D01*
X96535443Y-105373169D01*
X96535203Y-105373499D01*
X96533227Y-105376074D01*
X96506470Y-105409115D01*
X96504363Y-105411582D01*
X96340552Y-105593513D01*
X96338317Y-105595867D01*
X96308245Y-105625939D01*
X96305890Y-105628175D01*
X96264629Y-105665325D01*
X96262162Y-105667432D01*
X96229117Y-105694193D01*
X96226540Y-105696170D01*
X96028473Y-105840073D01*
X96025796Y-105841913D01*
X95990116Y-105865082D01*
X95987348Y-105866778D01*
X95939264Y-105894538D01*
X95936410Y-105896087D01*
X95898538Y-105915382D01*
X95895610Y-105916779D01*
X95671967Y-106016353D01*
X95668967Y-106017596D01*
X95629254Y-106032841D01*
X95626191Y-106033925D01*
X95573383Y-106051082D01*
X95570272Y-106052003D01*
X95529204Y-106063007D01*
X95526047Y-106063765D01*
X95286592Y-106114662D01*
X95283400Y-106115253D01*
X95266415Y-106117943D01*
X95266415Y-106875169D01*
X94268415Y-106875169D01*
X94268414Y-105979478D01*
X94127590Y-105916779D01*
X94124663Y-105915382D01*
X94086790Y-105896087D01*
X94083936Y-105894538D01*
X94035852Y-105866778D01*
X94033084Y-105865082D01*
X93997404Y-105841913D01*
X93994727Y-105840073D01*
X93796660Y-105696170D01*
X93794083Y-105694193D01*
X93761038Y-105667432D01*
X93758571Y-105665325D01*
X93717310Y-105628175D01*
X93714955Y-105625939D01*
X93684883Y-105595867D01*
X93682648Y-105593513D01*
X93518837Y-105411582D01*
X93516730Y-105409115D01*
X93489973Y-105376074D01*
X93487997Y-105373499D01*
X93487757Y-105373169D01*
X92766415Y-105373169D01*
X89268415Y-105373169D01*
X87766415Y-105373169D01*
X86768415Y-105373169D01*
X85266415Y-105373169D01*
X84268415Y-105373169D01*
X82766415Y-105373169D01*
X81768415Y-105373169D01*
X80266415Y-105373169D01*
X79268415Y-105373169D01*
X77766415Y-105373169D01*
X74268415Y-105373169D01*
X72766415Y-105373169D01*
X71768415Y-105373169D01*
X71155898Y-105373169D01*
X71152545Y-106875169D01*
X70028542Y-106875169D01*
X70034122Y-104375169D01*
X71158126Y-104375169D01*
X71768415Y-104375169D01*
X71768415Y-102873169D01*
X72766415Y-102873169D01*
X72766415Y-104375169D01*
X74268415Y-104375169D01*
X74268415Y-102873169D01*
X75266415Y-102873169D01*
X75266415Y-104375169D01*
X76768415Y-104375169D01*
X76768415Y-102873169D01*
X77766415Y-102873169D01*
X77766415Y-104375169D01*
X79268415Y-104375169D01*
X82932003Y-104375169D01*
X84268415Y-104375169D01*
X84268415Y-102873169D01*
X85266415Y-102873169D01*
X85266415Y-104375169D01*
X86768415Y-104375169D01*
X86768415Y-102873169D01*
X87766415Y-102873169D01*
X87766415Y-104375169D01*
X89156863Y-104375169D01*
X89154059Y-104361974D01*
X89153468Y-104358784D01*
X89146819Y-104316795D01*
X89146395Y-104313577D01*
X89120806Y-104070109D01*
X89120551Y-104066873D01*
X89118325Y-104024406D01*
X89118240Y-104021160D01*
X89118240Y-103993400D01*
X90116240Y-103993400D01*
X90136026Y-104181656D01*
X90136027Y-104181659D01*
X90194518Y-104361677D01*
X90194521Y-104361684D01*
X90289167Y-104525616D01*
X90382252Y-104628997D01*
X90415829Y-104666288D01*
X90568965Y-104777548D01*
X90568970Y-104777551D01*
X90741892Y-104854542D01*
X90741897Y-104854544D01*
X90927054Y-104893900D01*
X90927055Y-104893900D01*
X91116344Y-104893900D01*
X91116346Y-104893900D01*
X91301503Y-104854544D01*
X91474430Y-104777551D01*
X91627571Y-104666288D01*
X91754233Y-104525616D01*
X91848879Y-104361684D01*
X91907374Y-104181656D01*
X91927160Y-103993400D01*
X91907374Y-103805144D01*
X91848879Y-103625116D01*
X91754233Y-103461184D01*
X91627571Y-103320512D01*
X91627570Y-103320511D01*
X91474434Y-103209251D01*
X91474429Y-103209248D01*
X91301507Y-103132257D01*
X91301502Y-103132255D01*
X91133734Y-103096596D01*
X91116346Y-103092900D01*
X90927054Y-103092900D01*
X90909666Y-103096596D01*
X90741897Y-103132255D01*
X90741892Y-103132257D01*
X90568970Y-103209248D01*
X90568965Y-103209251D01*
X90415829Y-103320511D01*
X90289166Y-103461185D01*
X90194521Y-103625115D01*
X90194518Y-103625122D01*
X90136027Y-103805140D01*
X90136026Y-103805144D01*
X90116240Y-103993400D01*
X89118240Y-103993400D01*
X89118240Y-103965640D01*
X89118325Y-103962394D01*
X89120551Y-103919927D01*
X89120806Y-103916691D01*
X89146395Y-103673223D01*
X89146819Y-103670005D01*
X89153468Y-103628016D01*
X89154059Y-103624826D01*
X89165601Y-103570515D01*
X89166359Y-103567357D01*
X89177369Y-103526267D01*
X89178291Y-103523153D01*
X89253949Y-103290303D01*
X89255033Y-103287241D01*
X89268415Y-103252383D01*
X89268415Y-102873169D01*
X92766415Y-102873169D01*
X92766415Y-103232257D01*
X92771875Y-103244519D01*
X92773117Y-103247520D01*
X92788367Y-103287241D01*
X92789451Y-103290303D01*
X92865109Y-103523153D01*
X92866031Y-103526267D01*
X92877041Y-103567357D01*
X92877799Y-103570515D01*
X92889341Y-103624826D01*
X92889932Y-103628016D01*
X92896581Y-103670005D01*
X92897005Y-103673223D01*
X92922594Y-103916691D01*
X92922849Y-103919927D01*
X92925075Y-103962394D01*
X92925160Y-103965640D01*
X92925160Y-104021160D01*
X92925075Y-104024406D01*
X92922849Y-104066873D01*
X92922594Y-104070109D01*
X92897005Y-104313577D01*
X92896581Y-104316795D01*
X92889932Y-104358784D01*
X92889341Y-104361974D01*
X92886537Y-104375169D01*
X93117670Y-104375169D01*
X93110706Y-104308910D01*
X93110451Y-104305673D01*
X93108225Y-104263206D01*
X93108140Y-104259960D01*
X93108140Y-104232200D01*
X94106140Y-104232200D01*
X94125926Y-104420456D01*
X94125927Y-104420459D01*
X94184418Y-104600477D01*
X94184421Y-104600484D01*
X94279067Y-104764416D01*
X94323268Y-104813506D01*
X94405729Y-104905088D01*
X94558865Y-105016348D01*
X94558870Y-105016351D01*
X94731792Y-105093342D01*
X94731797Y-105093344D01*
X94916954Y-105132700D01*
X94916955Y-105132700D01*
X95106244Y-105132700D01*
X95106246Y-105132700D01*
X95291403Y-105093344D01*
X95464330Y-105016351D01*
X95617471Y-104905088D01*
X95744133Y-104764416D01*
X95831437Y-104613200D01*
X112292540Y-104613200D01*
X112312326Y-104801456D01*
X112312327Y-104801459D01*
X112370818Y-104981477D01*
X112370821Y-104981484D01*
X112465467Y-105145416D01*
X112592128Y-105286088D01*
X112592129Y-105286088D01*
X112745265Y-105397348D01*
X112745270Y-105397351D01*
X112918192Y-105474342D01*
X112918197Y-105474344D01*
X113103354Y-105513700D01*
X113103355Y-105513700D01*
X113292644Y-105513700D01*
X113292646Y-105513700D01*
X113477803Y-105474344D01*
X113650730Y-105397351D01*
X113803871Y-105286088D01*
X113930533Y-105145416D01*
X114025179Y-104981484D01*
X114083674Y-104801456D01*
X114103460Y-104613200D01*
X114083674Y-104424944D01*
X114025179Y-104244916D01*
X113930533Y-104080984D01*
X113803871Y-103940312D01*
X113779161Y-103922359D01*
X113650734Y-103829051D01*
X113650729Y-103829048D01*
X113477807Y-103752057D01*
X113477802Y-103752055D01*
X113332001Y-103721065D01*
X113292646Y-103712700D01*
X113103354Y-103712700D01*
X113070897Y-103719598D01*
X112918197Y-103752055D01*
X112918192Y-103752057D01*
X112745270Y-103829048D01*
X112745265Y-103829051D01*
X112592129Y-103940311D01*
X112465466Y-104080985D01*
X112370821Y-104244915D01*
X112370818Y-104244922D01*
X112313784Y-104420456D01*
X112312326Y-104424944D01*
X112292540Y-104613200D01*
X95831437Y-104613200D01*
X95838779Y-104600484D01*
X95897274Y-104420456D01*
X95902034Y-104375169D01*
X97766415Y-104375169D01*
X99268415Y-104375169D01*
X99268415Y-102873169D01*
X100266415Y-102873169D01*
X100266415Y-104375169D01*
X100593404Y-104375169D01*
X100651973Y-104169319D01*
X100660239Y-104147981D01*
X100759368Y-103948903D01*
X100771414Y-103929448D01*
X100905436Y-103751975D01*
X100920852Y-103735065D01*
X101085202Y-103585240D01*
X101103462Y-103571450D01*
X101292544Y-103454375D01*
X101313028Y-103444175D01*
X101520404Y-103363837D01*
X101542413Y-103357575D01*
X101761019Y-103316711D01*
X101768415Y-103316025D01*
X101768415Y-102873169D01*
X102766415Y-102873169D01*
X102766415Y-103641411D01*
X102869148Y-103735065D01*
X102884564Y-103751975D01*
X103018586Y-103929448D01*
X103030632Y-103948903D01*
X103129761Y-104147981D01*
X103138027Y-104169319D01*
X103196596Y-104375169D01*
X104268415Y-104375169D01*
X105266415Y-104375169D01*
X106768415Y-104375169D01*
X107766415Y-104375169D01*
X109268415Y-104375169D01*
X109268415Y-103526303D01*
X109160273Y-103604873D01*
X109157596Y-103606713D01*
X109121916Y-103629882D01*
X109119148Y-103631578D01*
X109071064Y-103659338D01*
X109068210Y-103660887D01*
X109030338Y-103680182D01*
X109027410Y-103681579D01*
X108803767Y-103781153D01*
X108800767Y-103782396D01*
X108761054Y-103797641D01*
X108757991Y-103798725D01*
X108705183Y-103815882D01*
X108702072Y-103816803D01*
X108661004Y-103827807D01*
X108657847Y-103828565D01*
X108418392Y-103879462D01*
X108415200Y-103880053D01*
X108373216Y-103886703D01*
X108370001Y-103887126D01*
X108314785Y-103892933D01*
X108311546Y-103893188D01*
X108269062Y-103895415D01*
X108265816Y-103895500D01*
X108020984Y-103895500D01*
X108017738Y-103895415D01*
X107975254Y-103893188D01*
X107972015Y-103892933D01*
X107916799Y-103887126D01*
X107913584Y-103886703D01*
X107871600Y-103880053D01*
X107868408Y-103879462D01*
X107766415Y-103857782D01*
X107766415Y-104375169D01*
X106768415Y-104375169D01*
X106768415Y-103308391D01*
X106619367Y-103374753D01*
X106616367Y-103375996D01*
X106576654Y-103391241D01*
X106573591Y-103392325D01*
X106520783Y-103409482D01*
X106517672Y-103410403D01*
X106476604Y-103421407D01*
X106473447Y-103422165D01*
X106233992Y-103473062D01*
X106230800Y-103473653D01*
X106188816Y-103480303D01*
X106185601Y-103480726D01*
X106130385Y-103486533D01*
X106127146Y-103486788D01*
X106084662Y-103489015D01*
X106081416Y-103489100D01*
X105836584Y-103489100D01*
X105833338Y-103489015D01*
X105790854Y-103486788D01*
X105787615Y-103486533D01*
X105732399Y-103480726D01*
X105729184Y-103480303D01*
X105687200Y-103473653D01*
X105684008Y-103473062D01*
X105444553Y-103422165D01*
X105441396Y-103421407D01*
X105400328Y-103410403D01*
X105397217Y-103409482D01*
X105344409Y-103392325D01*
X105341346Y-103391241D01*
X105301633Y-103375996D01*
X105298633Y-103374753D01*
X105266415Y-103360408D01*
X105266415Y-104375169D01*
X104268415Y-104375169D01*
X104268415Y-102873169D01*
X102766415Y-102873169D01*
X101768415Y-102873169D01*
X100266415Y-102873169D01*
X99268415Y-102873169D01*
X99088854Y-102873169D01*
X99025673Y-102919073D01*
X99022996Y-102920913D01*
X98987316Y-102944082D01*
X98984548Y-102945778D01*
X98936464Y-102973538D01*
X98933610Y-102975087D01*
X98895738Y-102994382D01*
X98892810Y-102995779D01*
X98669167Y-103095353D01*
X98666167Y-103096596D01*
X98626454Y-103111841D01*
X98623391Y-103112925D01*
X98570583Y-103130082D01*
X98567472Y-103131003D01*
X98526404Y-103142007D01*
X98523247Y-103142765D01*
X98283792Y-103193662D01*
X98280600Y-103194253D01*
X98238616Y-103200903D01*
X98235401Y-103201326D01*
X98180185Y-103207133D01*
X98176946Y-103207388D01*
X98134462Y-103209615D01*
X98131216Y-103209700D01*
X97886384Y-103209700D01*
X97883138Y-103209615D01*
X97840654Y-103207388D01*
X97837415Y-103207133D01*
X97782199Y-103201326D01*
X97778984Y-103200903D01*
X97766415Y-103198912D01*
X97766415Y-104375169D01*
X95902034Y-104375169D01*
X95917060Y-104232200D01*
X95897274Y-104043944D01*
X95838779Y-103863916D01*
X95744133Y-103699984D01*
X95617471Y-103559312D01*
X95617470Y-103559311D01*
X95464334Y-103448051D01*
X95464329Y-103448048D01*
X95291407Y-103371057D01*
X95291402Y-103371055D01*
X95145601Y-103340065D01*
X95106246Y-103331700D01*
X94916954Y-103331700D01*
X94884497Y-103338598D01*
X94731797Y-103371055D01*
X94731792Y-103371057D01*
X94558870Y-103448048D01*
X94558865Y-103448051D01*
X94405729Y-103559311D01*
X94279066Y-103699985D01*
X94184421Y-103863915D01*
X94184418Y-103863922D01*
X94140091Y-104000348D01*
X94125926Y-104043944D01*
X94106140Y-104232200D01*
X93108140Y-104232200D01*
X93108140Y-104204440D01*
X93108225Y-104201194D01*
X93110451Y-104158727D01*
X93110706Y-104155491D01*
X93136295Y-103912023D01*
X93136719Y-103908805D01*
X93143368Y-103866816D01*
X93143959Y-103863626D01*
X93155501Y-103809315D01*
X93156259Y-103806157D01*
X93167269Y-103765067D01*
X93168191Y-103761953D01*
X93243849Y-103529103D01*
X93244933Y-103526041D01*
X93260183Y-103486319D01*
X93261426Y-103483319D01*
X93284011Y-103432598D01*
X93285408Y-103429669D01*
X93304704Y-103391802D01*
X93306252Y-103388950D01*
X93428655Y-103176939D01*
X93430352Y-103174171D01*
X93453520Y-103138496D01*
X93455360Y-103135819D01*
X93487997Y-103090901D01*
X93489973Y-103088326D01*
X93516730Y-103055285D01*
X93518837Y-103052818D01*
X93680593Y-102873169D01*
X92766415Y-102873169D01*
X89268415Y-102873169D01*
X87766415Y-102873169D01*
X86768415Y-102873169D01*
X85266415Y-102873169D01*
X84268415Y-102873169D01*
X83294372Y-102873169D01*
X83297481Y-102892805D01*
X83297905Y-102896023D01*
X83323494Y-103139491D01*
X83323749Y-103142727D01*
X83325975Y-103185194D01*
X83326060Y-103188440D01*
X83326060Y-103243960D01*
X83325975Y-103247206D01*
X83323749Y-103289673D01*
X83323494Y-103292909D01*
X83297905Y-103536377D01*
X83297481Y-103539595D01*
X83290832Y-103581584D01*
X83290241Y-103584774D01*
X83278699Y-103639085D01*
X83277941Y-103642243D01*
X83266931Y-103683333D01*
X83266009Y-103686447D01*
X83190351Y-103919297D01*
X83189267Y-103922359D01*
X83174017Y-103962081D01*
X83172774Y-103965081D01*
X83150189Y-104015802D01*
X83148792Y-104018731D01*
X83129496Y-104056598D01*
X83127948Y-104059450D01*
X83005545Y-104271461D01*
X83003848Y-104274229D01*
X82980680Y-104309904D01*
X82978840Y-104312581D01*
X82946203Y-104357499D01*
X82944227Y-104360074D01*
X82932003Y-104375169D01*
X79268415Y-104375169D01*
X79268415Y-103216200D01*
X80517140Y-103216200D01*
X80536926Y-103404456D01*
X80536927Y-103404459D01*
X80595418Y-103584477D01*
X80595421Y-103584484D01*
X80690067Y-103748416D01*
X80794427Y-103864319D01*
X80816729Y-103889088D01*
X80969865Y-104000348D01*
X80969870Y-104000351D01*
X81142792Y-104077342D01*
X81142797Y-104077344D01*
X81327954Y-104116700D01*
X81327955Y-104116700D01*
X81517244Y-104116700D01*
X81517246Y-104116700D01*
X81702403Y-104077344D01*
X81875330Y-104000351D01*
X82028471Y-103889088D01*
X82155133Y-103748416D01*
X82249779Y-103584484D01*
X82308274Y-103404456D01*
X82328060Y-103216200D01*
X82308274Y-103027944D01*
X82249779Y-102847916D01*
X82155133Y-102683984D01*
X82028471Y-102543312D01*
X82028470Y-102543311D01*
X81875334Y-102432051D01*
X81875329Y-102432048D01*
X81702407Y-102355057D01*
X81702402Y-102355055D01*
X81529412Y-102318286D01*
X81517246Y-102315700D01*
X81327954Y-102315700D01*
X81315788Y-102318286D01*
X81142797Y-102355055D01*
X81142792Y-102355057D01*
X80969870Y-102432048D01*
X80969865Y-102432051D01*
X80816729Y-102543311D01*
X80690066Y-102683985D01*
X80595421Y-102847915D01*
X80595418Y-102847922D01*
X80554100Y-102975087D01*
X80536926Y-103027944D01*
X80525963Y-103132255D01*
X80517871Y-103209249D01*
X80517140Y-103216200D01*
X79268415Y-103216200D01*
X79268415Y-102873169D01*
X77766415Y-102873169D01*
X76768415Y-102873169D01*
X75266415Y-102873169D01*
X74268415Y-102873169D01*
X72766415Y-102873169D01*
X71768415Y-102873169D01*
X71161479Y-102873169D01*
X71158126Y-104375169D01*
X70034122Y-104375169D01*
X70039702Y-101875169D01*
X71163706Y-101875169D01*
X71768415Y-101875169D01*
X71768415Y-100373169D01*
X72766415Y-100373169D01*
X72766415Y-101875169D01*
X74268415Y-101875169D01*
X74268415Y-100373169D01*
X75266415Y-100373169D01*
X75266415Y-101875169D01*
X76768415Y-101875169D01*
X76768415Y-100654000D01*
X76612404Y-100654000D01*
X76589619Y-100651889D01*
X76371013Y-100611025D01*
X76349004Y-100604763D01*
X76141628Y-100524425D01*
X76121144Y-100514225D01*
X75932062Y-100397150D01*
X75913801Y-100383360D01*
X75902622Y-100373169D01*
X77766415Y-100373169D01*
X77766415Y-101875169D01*
X79268415Y-101875169D01*
X85846657Y-101875169D01*
X86768415Y-101875169D01*
X86768415Y-100465097D01*
X87766415Y-100465097D01*
X87766415Y-101875169D01*
X89268415Y-101875169D01*
X90266415Y-101875169D01*
X91768415Y-101875169D01*
X91768415Y-100373169D01*
X92766415Y-100373169D01*
X92766415Y-101875169D01*
X93997214Y-101875169D01*
X93997140Y-101872360D01*
X93997140Y-101844600D01*
X94995140Y-101844600D01*
X95014926Y-102032856D01*
X95014927Y-102032859D01*
X95073418Y-102212877D01*
X95073421Y-102212884D01*
X95168067Y-102376816D01*
X95217801Y-102432051D01*
X95294729Y-102517488D01*
X95447865Y-102628748D01*
X95447870Y-102628751D01*
X95620792Y-102705742D01*
X95620797Y-102705744D01*
X95805954Y-102745100D01*
X95805955Y-102745100D01*
X95995244Y-102745100D01*
X95995246Y-102745100D01*
X96180403Y-102705744D01*
X96353330Y-102628751D01*
X96506471Y-102517488D01*
X96633133Y-102376816D01*
X96727779Y-102212884D01*
X96786274Y-102032856D01*
X96806060Y-101844600D01*
X96786274Y-101656344D01*
X96727779Y-101476316D01*
X96633133Y-101312384D01*
X96632067Y-101311200D01*
X97103340Y-101311200D01*
X97123126Y-101499456D01*
X97123127Y-101499459D01*
X97181618Y-101679477D01*
X97181621Y-101679484D01*
X97276267Y-101843416D01*
X97380229Y-101958877D01*
X97402929Y-101984088D01*
X97556065Y-102095348D01*
X97556070Y-102095351D01*
X97728992Y-102172342D01*
X97728997Y-102172344D01*
X97914154Y-102211700D01*
X97914155Y-102211700D01*
X98103444Y-102211700D01*
X98103446Y-102211700D01*
X98288603Y-102172344D01*
X98461530Y-102095351D01*
X98614671Y-101984088D01*
X98741333Y-101843416D01*
X98835979Y-101679484D01*
X98894474Y-101499456D01*
X98914260Y-101311200D01*
X98894474Y-101122944D01*
X98835979Y-100942916D01*
X98760790Y-100812685D01*
X100266414Y-100812685D01*
X100266415Y-101875169D01*
X101768415Y-101875169D01*
X101768415Y-101609500D01*
X101696384Y-101609500D01*
X101693138Y-101609415D01*
X101650654Y-101607188D01*
X101647415Y-101606933D01*
X101592199Y-101601126D01*
X101588984Y-101600703D01*
X101547000Y-101594053D01*
X101543808Y-101593462D01*
X101304353Y-101542565D01*
X101301196Y-101541807D01*
X101260128Y-101530803D01*
X101257017Y-101529882D01*
X101204209Y-101512725D01*
X101201146Y-101511641D01*
X101161433Y-101496396D01*
X101158433Y-101495153D01*
X100934790Y-101395579D01*
X100931862Y-101394182D01*
X100893990Y-101374887D01*
X100891136Y-101373338D01*
X100871185Y-101361820D01*
X102766414Y-101361820D01*
X102766415Y-101875169D01*
X104079953Y-101875169D01*
X104058106Y-101667309D01*
X104057851Y-101664073D01*
X104055625Y-101621606D01*
X104055540Y-101618360D01*
X104055540Y-101590600D01*
X105053540Y-101590600D01*
X105073326Y-101778856D01*
X105073327Y-101778859D01*
X105131818Y-101958877D01*
X105131821Y-101958884D01*
X105226467Y-102122816D01*
X105284503Y-102187271D01*
X105353129Y-102263488D01*
X105506265Y-102374748D01*
X105506270Y-102374751D01*
X105679192Y-102451742D01*
X105679197Y-102451744D01*
X105864354Y-102491100D01*
X105864355Y-102491100D01*
X106053644Y-102491100D01*
X106053646Y-102491100D01*
X106238803Y-102451744D01*
X106411730Y-102374751D01*
X106564871Y-102263488D01*
X106691533Y-102122816D01*
X106764173Y-101997000D01*
X107237940Y-101997000D01*
X107257726Y-102185256D01*
X107257727Y-102185259D01*
X107316218Y-102365277D01*
X107316221Y-102365284D01*
X107410867Y-102529216D01*
X107505369Y-102634171D01*
X107537529Y-102669888D01*
X107690665Y-102781148D01*
X107690670Y-102781151D01*
X107863592Y-102858142D01*
X107863597Y-102858144D01*
X108048754Y-102897500D01*
X108048755Y-102897500D01*
X108238044Y-102897500D01*
X108238046Y-102897500D01*
X108352515Y-102873169D01*
X110266415Y-102873169D01*
X110266415Y-104375169D01*
X111314061Y-104375169D01*
X111322695Y-104293023D01*
X111323119Y-104289805D01*
X111329768Y-104247816D01*
X111330359Y-104244626D01*
X111341901Y-104190315D01*
X111342659Y-104187157D01*
X111353669Y-104146067D01*
X111354591Y-104142953D01*
X111430249Y-103910103D01*
X111431333Y-103907041D01*
X111446583Y-103867319D01*
X111447826Y-103864319D01*
X111470411Y-103813598D01*
X111471808Y-103810669D01*
X111491104Y-103772802D01*
X111492652Y-103769950D01*
X111615055Y-103557939D01*
X111616752Y-103555171D01*
X111639920Y-103519496D01*
X111641760Y-103516819D01*
X111674397Y-103471901D01*
X111676373Y-103469326D01*
X111703130Y-103436285D01*
X111705237Y-103433818D01*
X111768415Y-103363651D01*
X111768415Y-102873169D01*
X110266415Y-102873169D01*
X108352515Y-102873169D01*
X108423203Y-102858144D01*
X108596130Y-102781151D01*
X108749271Y-102669888D01*
X108875933Y-102529216D01*
X108970579Y-102365284D01*
X109029074Y-102185256D01*
X109048860Y-101997000D01*
X109029074Y-101808744D01*
X108970579Y-101628716D01*
X108875933Y-101464784D01*
X108749271Y-101324112D01*
X108749270Y-101324111D01*
X108596134Y-101212851D01*
X108596129Y-101212848D01*
X108423207Y-101135857D01*
X108423202Y-101135855D01*
X108267676Y-101102798D01*
X108238046Y-101096500D01*
X108048754Y-101096500D01*
X108019124Y-101102798D01*
X107863597Y-101135855D01*
X107863592Y-101135857D01*
X107690670Y-101212848D01*
X107690665Y-101212851D01*
X107537529Y-101324111D01*
X107410866Y-101464785D01*
X107316221Y-101628715D01*
X107316218Y-101628722D01*
X107257727Y-101808740D01*
X107257726Y-101808744D01*
X107237940Y-101997000D01*
X106764173Y-101997000D01*
X106786179Y-101958884D01*
X106844674Y-101778856D01*
X106864460Y-101590600D01*
X106844674Y-101402344D01*
X106786179Y-101222316D01*
X106691533Y-101058384D01*
X106564871Y-100917712D01*
X106564870Y-100917711D01*
X106411734Y-100806451D01*
X106411729Y-100806448D01*
X106238807Y-100729457D01*
X106238802Y-100729455D01*
X106093000Y-100698465D01*
X106053646Y-100690100D01*
X105864354Y-100690100D01*
X105831897Y-100696998D01*
X105679197Y-100729455D01*
X105679192Y-100729457D01*
X105506270Y-100806448D01*
X105506265Y-100806451D01*
X105353129Y-100917711D01*
X105226466Y-101058385D01*
X105131821Y-101222315D01*
X105131818Y-101222322D01*
X105075978Y-101394182D01*
X105073326Y-101402344D01*
X105053540Y-101590600D01*
X104055540Y-101590600D01*
X104055540Y-101562840D01*
X104055625Y-101559594D01*
X104057851Y-101517127D01*
X104058106Y-101513891D01*
X104083695Y-101270423D01*
X104084119Y-101267205D01*
X104090768Y-101225216D01*
X104091359Y-101222026D01*
X104102901Y-101167715D01*
X104103659Y-101164557D01*
X104114669Y-101123467D01*
X104115591Y-101120353D01*
X104191249Y-100887503D01*
X104192333Y-100884441D01*
X104207583Y-100844719D01*
X104208826Y-100841719D01*
X104231411Y-100790998D01*
X104232808Y-100788069D01*
X104252104Y-100750202D01*
X104253652Y-100747351D01*
X104268415Y-100721779D01*
X104268415Y-100373169D01*
X103599849Y-100373169D01*
X103586551Y-100414097D01*
X103585467Y-100417159D01*
X103570217Y-100456881D01*
X103568974Y-100459881D01*
X103546389Y-100510602D01*
X103544992Y-100513531D01*
X103525696Y-100551398D01*
X103524148Y-100554250D01*
X103401745Y-100766261D01*
X103400048Y-100769029D01*
X103376880Y-100804704D01*
X103375040Y-100807381D01*
X103342403Y-100852299D01*
X103340427Y-100854874D01*
X103313670Y-100887915D01*
X103311563Y-100890382D01*
X103147752Y-101072313D01*
X103145517Y-101074667D01*
X103115445Y-101104739D01*
X103113090Y-101106975D01*
X103071829Y-101144125D01*
X103069362Y-101146232D01*
X103036317Y-101172993D01*
X103033740Y-101174970D01*
X102835673Y-101318873D01*
X102832996Y-101320713D01*
X102797316Y-101343882D01*
X102794548Y-101345578D01*
X102766414Y-101361820D01*
X100871185Y-101361820D01*
X100843052Y-101345578D01*
X100840284Y-101343882D01*
X100804604Y-101320713D01*
X100801927Y-101318873D01*
X100603860Y-101174970D01*
X100601283Y-101172993D01*
X100568238Y-101146232D01*
X100565771Y-101144125D01*
X100524510Y-101106975D01*
X100522155Y-101104739D01*
X100492083Y-101074667D01*
X100489848Y-101072313D01*
X100326037Y-100890382D01*
X100323930Y-100887915D01*
X100297173Y-100854874D01*
X100295197Y-100852299D01*
X100266414Y-100812685D01*
X98760790Y-100812685D01*
X98741333Y-100778984D01*
X98614671Y-100638312D01*
X98614670Y-100638311D01*
X98461534Y-100527051D01*
X98461529Y-100527048D01*
X98288607Y-100450057D01*
X98288602Y-100450055D01*
X98133833Y-100417159D01*
X98103446Y-100410700D01*
X97914154Y-100410700D01*
X97883767Y-100417159D01*
X97728997Y-100450055D01*
X97728992Y-100450057D01*
X97556070Y-100527048D01*
X97556065Y-100527051D01*
X97402929Y-100638311D01*
X97276266Y-100778985D01*
X97181621Y-100942915D01*
X97181618Y-100942922D01*
X97124754Y-101117933D01*
X97123126Y-101122944D01*
X97103340Y-101311200D01*
X96632067Y-101311200D01*
X96506471Y-101171712D01*
X96506470Y-101171711D01*
X96353334Y-101060451D01*
X96353329Y-101060448D01*
X96180407Y-100983457D01*
X96180402Y-100983455D01*
X96034601Y-100952465D01*
X95995246Y-100944100D01*
X95805954Y-100944100D01*
X95773497Y-100950998D01*
X95620797Y-100983455D01*
X95620792Y-100983457D01*
X95447870Y-101060448D01*
X95447865Y-101060451D01*
X95294729Y-101171711D01*
X95168066Y-101312385D01*
X95073421Y-101476315D01*
X95073418Y-101476322D01*
X95026213Y-101621606D01*
X95014926Y-101656344D01*
X94995140Y-101844600D01*
X93997140Y-101844600D01*
X93997140Y-101816840D01*
X93997225Y-101813594D01*
X93999451Y-101771127D01*
X93999706Y-101767891D01*
X94025295Y-101524423D01*
X94025719Y-101521205D01*
X94032368Y-101479216D01*
X94032959Y-101476026D01*
X94044501Y-101421715D01*
X94045259Y-101418557D01*
X94056269Y-101377467D01*
X94057191Y-101374353D01*
X94132849Y-101141503D01*
X94133933Y-101138441D01*
X94149183Y-101098719D01*
X94150426Y-101095719D01*
X94173011Y-101044998D01*
X94174408Y-101042069D01*
X94193704Y-101004202D01*
X94195252Y-101001351D01*
X94268415Y-100874626D01*
X94268415Y-100373169D01*
X92766415Y-100373169D01*
X91768415Y-100373169D01*
X91028059Y-100373169D01*
X90953645Y-100502060D01*
X90951948Y-100504829D01*
X90928780Y-100540504D01*
X90926940Y-100543181D01*
X90894303Y-100588099D01*
X90892327Y-100590674D01*
X90865570Y-100623715D01*
X90863463Y-100626182D01*
X90699652Y-100808113D01*
X90697417Y-100810467D01*
X90667345Y-100840539D01*
X90664990Y-100842775D01*
X90623729Y-100879925D01*
X90621262Y-100882032D01*
X90588217Y-100908793D01*
X90585640Y-100910770D01*
X90387573Y-101054673D01*
X90384896Y-101056513D01*
X90349216Y-101079682D01*
X90346448Y-101081378D01*
X90298364Y-101109138D01*
X90295510Y-101110687D01*
X90266415Y-101125509D01*
X90266415Y-101875169D01*
X89268415Y-101875169D01*
X89268415Y-101345300D01*
X89248284Y-101345300D01*
X89245038Y-101345215D01*
X89202554Y-101342988D01*
X89199315Y-101342733D01*
X89144099Y-101336926D01*
X89140884Y-101336503D01*
X89098900Y-101329853D01*
X89095708Y-101329262D01*
X88856253Y-101278365D01*
X88853096Y-101277607D01*
X88812028Y-101266603D01*
X88808917Y-101265682D01*
X88756109Y-101248525D01*
X88753046Y-101247441D01*
X88713333Y-101232196D01*
X88710333Y-101230953D01*
X88486690Y-101131379D01*
X88483762Y-101129982D01*
X88445890Y-101110687D01*
X88443036Y-101109138D01*
X88394952Y-101081378D01*
X88392184Y-101079682D01*
X88356504Y-101056513D01*
X88353827Y-101054673D01*
X88155760Y-100910770D01*
X88153183Y-100908793D01*
X88120138Y-100882032D01*
X88117671Y-100879925D01*
X88076410Y-100842775D01*
X88074055Y-100840539D01*
X88043983Y-100810467D01*
X88041748Y-100808113D01*
X87877937Y-100626182D01*
X87875830Y-100623715D01*
X87849073Y-100590674D01*
X87847097Y-100588099D01*
X87814460Y-100543181D01*
X87812620Y-100540504D01*
X87789452Y-100504829D01*
X87787755Y-100502060D01*
X87766415Y-100465097D01*
X86768415Y-100465097D01*
X86768415Y-100373169D01*
X86274177Y-100373169D01*
X86295294Y-100574091D01*
X86295549Y-100577327D01*
X86297775Y-100619794D01*
X86297860Y-100623040D01*
X86297860Y-100678560D01*
X86297775Y-100681806D01*
X86295549Y-100724273D01*
X86295294Y-100727509D01*
X86269705Y-100970977D01*
X86269281Y-100974195D01*
X86262632Y-101016184D01*
X86262041Y-101019374D01*
X86250499Y-101073685D01*
X86249741Y-101076843D01*
X86238731Y-101117933D01*
X86237809Y-101121047D01*
X86162151Y-101353897D01*
X86161067Y-101356959D01*
X86145817Y-101396681D01*
X86144574Y-101399681D01*
X86121989Y-101450402D01*
X86120592Y-101453331D01*
X86101296Y-101491198D01*
X86099748Y-101494050D01*
X85977345Y-101706061D01*
X85975648Y-101708829D01*
X85952480Y-101744504D01*
X85950640Y-101747181D01*
X85918003Y-101792099D01*
X85916027Y-101794674D01*
X85889270Y-101827715D01*
X85887163Y-101830182D01*
X85846657Y-101875169D01*
X79268415Y-101875169D01*
X79268415Y-100373169D01*
X80266415Y-100373169D01*
X80266415Y-101709542D01*
X80405727Y-101608327D01*
X80408404Y-101606487D01*
X80444084Y-101583318D01*
X80446852Y-101581622D01*
X80494936Y-101553862D01*
X80497790Y-101552313D01*
X80535662Y-101533018D01*
X80538590Y-101531621D01*
X80762233Y-101432047D01*
X80765233Y-101430804D01*
X80804946Y-101415559D01*
X80808009Y-101414475D01*
X80860817Y-101397318D01*
X80863928Y-101396397D01*
X80904996Y-101385393D01*
X80908153Y-101384635D01*
X81147608Y-101333738D01*
X81150800Y-101333147D01*
X81192784Y-101326497D01*
X81195999Y-101326074D01*
X81251215Y-101320267D01*
X81254454Y-101320012D01*
X81296938Y-101317785D01*
X81300184Y-101317700D01*
X81545016Y-101317700D01*
X81548262Y-101317785D01*
X81590746Y-101320012D01*
X81593985Y-101320267D01*
X81649201Y-101326074D01*
X81652416Y-101326497D01*
X81694400Y-101333147D01*
X81697592Y-101333738D01*
X81768415Y-101348791D01*
X81768415Y-100650800D01*
X83488940Y-100650800D01*
X83508726Y-100839056D01*
X83508727Y-100839059D01*
X83567218Y-101019077D01*
X83567221Y-101019084D01*
X83661867Y-101183016D01*
X83751489Y-101282551D01*
X83788529Y-101323688D01*
X83941665Y-101434948D01*
X83941670Y-101434951D01*
X84114592Y-101511942D01*
X84114597Y-101511944D01*
X84299754Y-101551300D01*
X84299755Y-101551300D01*
X84489044Y-101551300D01*
X84489046Y-101551300D01*
X84674203Y-101511944D01*
X84847130Y-101434951D01*
X85000271Y-101323688D01*
X85126933Y-101183016D01*
X85221579Y-101019084D01*
X85280074Y-100839056D01*
X85299860Y-100650800D01*
X85280074Y-100462544D01*
X85221579Y-100282516D01*
X85126933Y-100118584D01*
X85000271Y-99977912D01*
X85000270Y-99977911D01*
X84847134Y-99866651D01*
X84847129Y-99866648D01*
X84674207Y-99789657D01*
X84674202Y-99789655D01*
X84528401Y-99758665D01*
X84489046Y-99750300D01*
X84299754Y-99750300D01*
X84267297Y-99757198D01*
X84114597Y-99789655D01*
X84114592Y-99789657D01*
X83941670Y-99866648D01*
X83941665Y-99866651D01*
X83788529Y-99977911D01*
X83661866Y-100118585D01*
X83567221Y-100282515D01*
X83567218Y-100282522D01*
X83512783Y-100450057D01*
X83508726Y-100462544D01*
X83488940Y-100650800D01*
X81768415Y-100650800D01*
X81768415Y-100373169D01*
X80266415Y-100373169D01*
X79268415Y-100373169D01*
X77766415Y-100373169D01*
X75902622Y-100373169D01*
X75266415Y-100373169D01*
X74268415Y-100373169D01*
X72766415Y-100373169D01*
X71768415Y-100373169D01*
X71167059Y-100373169D01*
X71163706Y-101875169D01*
X70039702Y-101875169D01*
X70045122Y-99446800D01*
X88465240Y-99446800D01*
X88485026Y-99635056D01*
X88485027Y-99635059D01*
X88543518Y-99815077D01*
X88543521Y-99815084D01*
X88638167Y-99979016D01*
X88728443Y-100079277D01*
X88764829Y-100119688D01*
X88917965Y-100230948D01*
X88917970Y-100230951D01*
X89090892Y-100307942D01*
X89090897Y-100307944D01*
X89276054Y-100347300D01*
X89276055Y-100347300D01*
X89465344Y-100347300D01*
X89465346Y-100347300D01*
X89650503Y-100307944D01*
X89823430Y-100230951D01*
X89976571Y-100119688D01*
X90103233Y-99979016D01*
X90197879Y-99815084D01*
X90231698Y-99711000D01*
X100913340Y-99711000D01*
X100933126Y-99899256D01*
X100933127Y-99899259D01*
X100991618Y-100079277D01*
X100991621Y-100079284D01*
X101086267Y-100243216D01*
X101179758Y-100347048D01*
X101212929Y-100383888D01*
X101366065Y-100495148D01*
X101366070Y-100495151D01*
X101538992Y-100572142D01*
X101538997Y-100572144D01*
X101724154Y-100611500D01*
X101724155Y-100611500D01*
X101913444Y-100611500D01*
X101913446Y-100611500D01*
X102098603Y-100572144D01*
X102271530Y-100495151D01*
X102424671Y-100383888D01*
X102551333Y-100243216D01*
X102645979Y-100079284D01*
X102704474Y-99899256D01*
X102724260Y-99711000D01*
X102713582Y-99609400D01*
X107364940Y-99609400D01*
X107384726Y-99797656D01*
X107384727Y-99797659D01*
X107443218Y-99977677D01*
X107443221Y-99977684D01*
X107537867Y-100141616D01*
X107655266Y-100272000D01*
X107664529Y-100282288D01*
X107817665Y-100393548D01*
X107817670Y-100393551D01*
X107990592Y-100470542D01*
X107990597Y-100470544D01*
X108175754Y-100509900D01*
X108175755Y-100509900D01*
X108365044Y-100509900D01*
X108365046Y-100509900D01*
X108419150Y-100498400D01*
X109269940Y-100498400D01*
X109289726Y-100686656D01*
X109289727Y-100686659D01*
X109348218Y-100866677D01*
X109348221Y-100866684D01*
X109442867Y-101030616D01*
X109563468Y-101164557D01*
X109569529Y-101171288D01*
X109722665Y-101282548D01*
X109722670Y-101282551D01*
X109895592Y-101359542D01*
X109895597Y-101359544D01*
X110080754Y-101398900D01*
X110080755Y-101398900D01*
X110270044Y-101398900D01*
X110270046Y-101398900D01*
X110455203Y-101359544D01*
X110628130Y-101282551D01*
X110781271Y-101171288D01*
X110907933Y-101030616D01*
X111002579Y-100866684D01*
X111061074Y-100686656D01*
X111080860Y-100498400D01*
X111067698Y-100373169D01*
X112766415Y-100373169D01*
X112766415Y-101875169D01*
X113901096Y-101875169D01*
X113900696Y-101872830D01*
X113900162Y-101868994D01*
X113888700Y-101762390D01*
X113888544Y-101760734D01*
X113886798Y-101739028D01*
X113886687Y-101737371D01*
X113885169Y-101709027D01*
X113885102Y-101707369D01*
X113884522Y-101685663D01*
X113884500Y-101684006D01*
X113884500Y-100821454D01*
X113893939Y-100774002D01*
X113894768Y-100772000D01*
X113893939Y-100769998D01*
X113884500Y-100722546D01*
X113884500Y-100373169D01*
X112766415Y-100373169D01*
X111067698Y-100373169D01*
X111061074Y-100310144D01*
X111002579Y-100130116D01*
X110907933Y-99966184D01*
X110781271Y-99825512D01*
X110766918Y-99815084D01*
X110628134Y-99714251D01*
X110628129Y-99714248D01*
X110455207Y-99637257D01*
X110455202Y-99637255D01*
X110309401Y-99606265D01*
X110270046Y-99597900D01*
X110080754Y-99597900D01*
X110048297Y-99604798D01*
X109895597Y-99637255D01*
X109895592Y-99637257D01*
X109722670Y-99714248D01*
X109722665Y-99714251D01*
X109569529Y-99825511D01*
X109442866Y-99966185D01*
X109348221Y-100130115D01*
X109348218Y-100130122D01*
X109298777Y-100282288D01*
X109289726Y-100310144D01*
X109269940Y-100498400D01*
X108419150Y-100498400D01*
X108550203Y-100470544D01*
X108723130Y-100393551D01*
X108876271Y-100282288D01*
X109002933Y-100141616D01*
X109097579Y-99977684D01*
X109156074Y-99797656D01*
X109175860Y-99609400D01*
X109156074Y-99421144D01*
X109097579Y-99241116D01*
X109002933Y-99077184D01*
X108876271Y-98936512D01*
X108846090Y-98914584D01*
X108723134Y-98825251D01*
X108723129Y-98825248D01*
X108550207Y-98748257D01*
X108550202Y-98748255D01*
X108404400Y-98717265D01*
X108365046Y-98708900D01*
X108175754Y-98708900D01*
X108143297Y-98715798D01*
X107990597Y-98748255D01*
X107990592Y-98748257D01*
X107817670Y-98825248D01*
X107817665Y-98825251D01*
X107664529Y-98936511D01*
X107537866Y-99077185D01*
X107443221Y-99241115D01*
X107443218Y-99241122D01*
X107399664Y-99375169D01*
X107384726Y-99421144D01*
X107364940Y-99609400D01*
X102713582Y-99609400D01*
X102704474Y-99522744D01*
X102645979Y-99342716D01*
X102551333Y-99178784D01*
X102424671Y-99038112D01*
X102403516Y-99022742D01*
X102271534Y-98926851D01*
X102271529Y-98926848D01*
X102098607Y-98849857D01*
X102098602Y-98849855D01*
X101952250Y-98818748D01*
X101913446Y-98810500D01*
X101724154Y-98810500D01*
X101691697Y-98817398D01*
X101538997Y-98849855D01*
X101538992Y-98849857D01*
X101366070Y-98926848D01*
X101366065Y-98926851D01*
X101212929Y-99038111D01*
X101086266Y-99178785D01*
X100991621Y-99342715D01*
X100991618Y-99342722D01*
X100947453Y-99478649D01*
X100933126Y-99522744D01*
X100913340Y-99711000D01*
X90231698Y-99711000D01*
X90256374Y-99635056D01*
X90276160Y-99446800D01*
X90268631Y-99375169D01*
X92766415Y-99375169D01*
X94268415Y-99375169D01*
X94268415Y-97873169D01*
X95266415Y-97873169D01*
X95266415Y-99375169D01*
X96768415Y-99375169D01*
X96768415Y-97873169D01*
X97766415Y-97873169D01*
X97766415Y-99375169D01*
X99268415Y-99375169D01*
X99268415Y-98161600D01*
X102945340Y-98161600D01*
X102965126Y-98349856D01*
X102965127Y-98349859D01*
X103023618Y-98529877D01*
X103023621Y-98529884D01*
X103118267Y-98693816D01*
X103190385Y-98773911D01*
X103244929Y-98834488D01*
X103398065Y-98945748D01*
X103398070Y-98945751D01*
X103570992Y-99022742D01*
X103570997Y-99022744D01*
X103756154Y-99062100D01*
X103756155Y-99062100D01*
X103945444Y-99062100D01*
X103945446Y-99062100D01*
X104130603Y-99022744D01*
X104303530Y-98945751D01*
X104456671Y-98834488D01*
X104583333Y-98693816D01*
X104625241Y-98621228D01*
X104675807Y-98573014D01*
X104744414Y-98559790D01*
X104809279Y-98585758D01*
X104824774Y-98600254D01*
X104885001Y-98667142D01*
X104921329Y-98707488D01*
X105074465Y-98818748D01*
X105074470Y-98818751D01*
X105247392Y-98895742D01*
X105247397Y-98895744D01*
X105432554Y-98935100D01*
X105432555Y-98935100D01*
X105621844Y-98935100D01*
X105621846Y-98935100D01*
X105807003Y-98895744D01*
X105979930Y-98818751D01*
X106133071Y-98707488D01*
X106259733Y-98566816D01*
X106354379Y-98402884D01*
X106412874Y-98222856D01*
X106432660Y-98034600D01*
X106412874Y-97846344D01*
X106354379Y-97666316D01*
X106259733Y-97502384D01*
X106133071Y-97361712D01*
X106133070Y-97361711D01*
X105979934Y-97250451D01*
X105979929Y-97250448D01*
X105807007Y-97173457D01*
X105807002Y-97173455D01*
X105660340Y-97142282D01*
X105621846Y-97134100D01*
X105432554Y-97134100D01*
X105400097Y-97140998D01*
X105247397Y-97173455D01*
X105247392Y-97173457D01*
X105074470Y-97250448D01*
X105074465Y-97250451D01*
X104921329Y-97361711D01*
X104794665Y-97502385D01*
X104752759Y-97574970D01*
X104702192Y-97623186D01*
X104633585Y-97636409D01*
X104568720Y-97610440D01*
X104553225Y-97595945D01*
X104456671Y-97488712D01*
X104456667Y-97488709D01*
X104303534Y-97377451D01*
X104303529Y-97377448D01*
X104130607Y-97300457D01*
X104130602Y-97300455D01*
X103984800Y-97269465D01*
X103945446Y-97261100D01*
X103756154Y-97261100D01*
X103723697Y-97267998D01*
X103570997Y-97300455D01*
X103570992Y-97300457D01*
X103398070Y-97377448D01*
X103398065Y-97377451D01*
X103244929Y-97488711D01*
X103118266Y-97629385D01*
X103023621Y-97793315D01*
X103023618Y-97793322D01*
X102994575Y-97882709D01*
X102965126Y-97973344D01*
X102945340Y-98161600D01*
X99268415Y-98161600D01*
X99268415Y-97873169D01*
X97766415Y-97873169D01*
X96768415Y-97873169D01*
X95266415Y-97873169D01*
X94268415Y-97873169D01*
X93166349Y-97873169D01*
X93153105Y-97999177D01*
X93152681Y-98002395D01*
X93146032Y-98044384D01*
X93145441Y-98047574D01*
X93133899Y-98101885D01*
X93133141Y-98105043D01*
X93122131Y-98146133D01*
X93121209Y-98149247D01*
X93045551Y-98382097D01*
X93044467Y-98385159D01*
X93029217Y-98424881D01*
X93027974Y-98427881D01*
X93005389Y-98478602D01*
X93003992Y-98481531D01*
X92984696Y-98519398D01*
X92983148Y-98522250D01*
X92860745Y-98734261D01*
X92859048Y-98737029D01*
X92835880Y-98772704D01*
X92834040Y-98775381D01*
X92801403Y-98820299D01*
X92799427Y-98822874D01*
X92772670Y-98855915D01*
X92770562Y-98858383D01*
X92766415Y-98862988D01*
X92766415Y-99375169D01*
X90268631Y-99375169D01*
X90256374Y-99258544D01*
X90197879Y-99078516D01*
X90103233Y-98914584D01*
X89976571Y-98773912D01*
X89976570Y-98773911D01*
X89823434Y-98662651D01*
X89823429Y-98662648D01*
X89650507Y-98585657D01*
X89650502Y-98585655D01*
X89504701Y-98554665D01*
X89465346Y-98546300D01*
X89276054Y-98546300D01*
X89249797Y-98551881D01*
X89090897Y-98585655D01*
X89090892Y-98585657D01*
X88917970Y-98662648D01*
X88917965Y-98662651D01*
X88764829Y-98773911D01*
X88638166Y-98914585D01*
X88543521Y-99078515D01*
X88543518Y-99078522D01*
X88486234Y-99254825D01*
X88485026Y-99258544D01*
X88465240Y-99446800D01*
X70045122Y-99446800D01*
X70045282Y-99375169D01*
X71169286Y-99375169D01*
X71768415Y-99375169D01*
X72766415Y-99375169D01*
X74268415Y-99375169D01*
X74268415Y-98315711D01*
X74259829Y-98320669D01*
X74257457Y-98321969D01*
X74226037Y-98338325D01*
X74223611Y-98339522D01*
X73967609Y-98458898D01*
X73965134Y-98459987D01*
X73932416Y-98473539D01*
X73929898Y-98474519D01*
X73886423Y-98490345D01*
X73883858Y-98491216D01*
X73850040Y-98501879D01*
X73847442Y-98502637D01*
X73383615Y-98626916D01*
X73327331Y-98628758D01*
X73103300Y-98584194D01*
X72879269Y-98628758D01*
X72822985Y-98626916D01*
X72766415Y-98611758D01*
X72766415Y-99375169D01*
X71768415Y-99375169D01*
X71768415Y-98202881D01*
X71640847Y-98113556D01*
X71638666Y-98111958D01*
X71610562Y-98090393D01*
X71608452Y-98088700D01*
X71573012Y-98058964D01*
X71570977Y-98057179D01*
X71544844Y-98033233D01*
X71542889Y-98031362D01*
X71384697Y-97873169D01*
X75266415Y-97873169D01*
X75266415Y-99375169D01*
X75398113Y-99375169D01*
X75394988Y-99341441D01*
X75394988Y-99318559D01*
X75415508Y-99097115D01*
X75419713Y-99074622D01*
X75480573Y-98860719D01*
X75488839Y-98839381D01*
X75587968Y-98640303D01*
X75600014Y-98620848D01*
X75734036Y-98443375D01*
X75749452Y-98426465D01*
X75913802Y-98276640D01*
X75932062Y-98262850D01*
X76121144Y-98145775D01*
X76141628Y-98135575D01*
X76349004Y-98055237D01*
X76371013Y-98048975D01*
X76589619Y-98008111D01*
X76612404Y-98006000D01*
X76768415Y-98006000D01*
X76768415Y-97873169D01*
X77766415Y-97873169D01*
X77766415Y-98513890D01*
X77847186Y-98620848D01*
X77859232Y-98640303D01*
X77958361Y-98839381D01*
X77966627Y-98860719D01*
X78027487Y-99074622D01*
X78031692Y-99097115D01*
X78052212Y-99318559D01*
X78052212Y-99341441D01*
X78049087Y-99375169D01*
X79268415Y-99375169D01*
X82766415Y-99375169D01*
X82988300Y-99375169D01*
X83065448Y-99289487D01*
X83067683Y-99287133D01*
X83097755Y-99257061D01*
X83100110Y-99254825D01*
X83141371Y-99217675D01*
X83143838Y-99215568D01*
X83176883Y-99188807D01*
X83179460Y-99186830D01*
X83377527Y-99042927D01*
X83380204Y-99041087D01*
X83415884Y-99017918D01*
X83418652Y-99016222D01*
X83466736Y-98988462D01*
X83469590Y-98986913D01*
X83507462Y-98967618D01*
X83510390Y-98966221D01*
X83734033Y-98866647D01*
X83737033Y-98865404D01*
X83776746Y-98850159D01*
X83779809Y-98849075D01*
X83832617Y-98831918D01*
X83835728Y-98830997D01*
X83876796Y-98819993D01*
X83879953Y-98819235D01*
X84119408Y-98768338D01*
X84122600Y-98767747D01*
X84164584Y-98761097D01*
X84167799Y-98760674D01*
X84223015Y-98754867D01*
X84226254Y-98754612D01*
X84268415Y-98752401D01*
X84268415Y-97873169D01*
X85266415Y-97873169D01*
X85266415Y-98960881D01*
X85278410Y-98966222D01*
X85281338Y-98967618D01*
X85319210Y-98986913D01*
X85322064Y-98988462D01*
X85370148Y-99016222D01*
X85372916Y-99017918D01*
X85408596Y-99041087D01*
X85411273Y-99042927D01*
X85609340Y-99186830D01*
X85611917Y-99188807D01*
X85644962Y-99215568D01*
X85647429Y-99217675D01*
X85688690Y-99254825D01*
X85691045Y-99257061D01*
X85721117Y-99287133D01*
X85723352Y-99289487D01*
X85800500Y-99375169D01*
X86768415Y-99375169D01*
X86768415Y-97873169D01*
X85266415Y-97873169D01*
X84268415Y-97873169D01*
X83070079Y-97873169D01*
X83069749Y-97879473D01*
X83069494Y-97882709D01*
X83043905Y-98126177D01*
X83043481Y-98129395D01*
X83036832Y-98171384D01*
X83036241Y-98174574D01*
X83024699Y-98228885D01*
X83023941Y-98232043D01*
X83012931Y-98273133D01*
X83012009Y-98276247D01*
X82936351Y-98509097D01*
X82935267Y-98512159D01*
X82920017Y-98551881D01*
X82918774Y-98554881D01*
X82896189Y-98605602D01*
X82894792Y-98608531D01*
X82875496Y-98646398D01*
X82873948Y-98649250D01*
X82766415Y-98835503D01*
X82766415Y-99375169D01*
X79268415Y-99375169D01*
X79268415Y-97889458D01*
X79267706Y-97882709D01*
X79267451Y-97879473D01*
X79267121Y-97873169D01*
X77766415Y-97873169D01*
X76768415Y-97873169D01*
X75266415Y-97873169D01*
X71384697Y-97873169D01*
X71172639Y-97873169D01*
X71169286Y-99375169D01*
X70045282Y-99375169D01*
X70048785Y-97806000D01*
X80263140Y-97806000D01*
X80282926Y-97994256D01*
X80282927Y-97994259D01*
X80341418Y-98174277D01*
X80341421Y-98174284D01*
X80436067Y-98338216D01*
X80548557Y-98463148D01*
X80562729Y-98478888D01*
X80715865Y-98590148D01*
X80715870Y-98590151D01*
X80888792Y-98667142D01*
X80888797Y-98667144D01*
X81073954Y-98706500D01*
X81073955Y-98706500D01*
X81263244Y-98706500D01*
X81263246Y-98706500D01*
X81448403Y-98667144D01*
X81621330Y-98590151D01*
X81774471Y-98478888D01*
X81901133Y-98338216D01*
X81995779Y-98174284D01*
X82054274Y-97994256D01*
X82074060Y-97806000D01*
X82060712Y-97679000D01*
X90372340Y-97679000D01*
X90392126Y-97867256D01*
X90392127Y-97867259D01*
X90450618Y-98047277D01*
X90450621Y-98047284D01*
X90545267Y-98211216D01*
X90639355Y-98315711D01*
X90671929Y-98351888D01*
X90825065Y-98463148D01*
X90825070Y-98463151D01*
X90997992Y-98540142D01*
X90997997Y-98540144D01*
X91183154Y-98579500D01*
X91183155Y-98579500D01*
X91372444Y-98579500D01*
X91372446Y-98579500D01*
X91557603Y-98540144D01*
X91730530Y-98463151D01*
X91883671Y-98351888D01*
X92010333Y-98211216D01*
X92104979Y-98047284D01*
X92163474Y-97867256D01*
X92183260Y-97679000D01*
X92163474Y-97490744D01*
X92104979Y-97310716D01*
X92010333Y-97146784D01*
X91883671Y-97006112D01*
X91883670Y-97006111D01*
X91730534Y-96894851D01*
X91730529Y-96894848D01*
X91557607Y-96817857D01*
X91557602Y-96817855D01*
X91411801Y-96786865D01*
X91372446Y-96778500D01*
X91183154Y-96778500D01*
X91150697Y-96785398D01*
X90997997Y-96817855D01*
X90997992Y-96817857D01*
X90825070Y-96894848D01*
X90825065Y-96894851D01*
X90671929Y-97006111D01*
X90545266Y-97146785D01*
X90450621Y-97310715D01*
X90450618Y-97310722D01*
X90392786Y-97488712D01*
X90392126Y-97490744D01*
X90372340Y-97679000D01*
X82060712Y-97679000D01*
X82054274Y-97617744D01*
X81995779Y-97437716D01*
X81901133Y-97273784D01*
X81774471Y-97133112D01*
X81774470Y-97133111D01*
X81621334Y-97021851D01*
X81621329Y-97021848D01*
X81448407Y-96944857D01*
X81448402Y-96944855D01*
X81302601Y-96913865D01*
X81263246Y-96905500D01*
X81073954Y-96905500D01*
X81041497Y-96912398D01*
X80888797Y-96944855D01*
X80888792Y-96944857D01*
X80715870Y-97021848D01*
X80715865Y-97021851D01*
X80562729Y-97133111D01*
X80436066Y-97273785D01*
X80341421Y-97437715D01*
X80341418Y-97437722D01*
X80285299Y-97610440D01*
X80282926Y-97617744D01*
X80263140Y-97806000D01*
X70048785Y-97806000D01*
X70055877Y-94629070D01*
X71752800Y-94629070D01*
X71752801Y-94629076D01*
X71759208Y-94688683D01*
X71809502Y-94823528D01*
X71809506Y-94823535D01*
X71895752Y-94938744D01*
X71895755Y-94938747D01*
X72010964Y-95024993D01*
X72010971Y-95024997D01*
X72010974Y-95024998D01*
X72142898Y-95074202D01*
X72198831Y-95116073D01*
X72223249Y-95181537D01*
X72208398Y-95249810D01*
X72187247Y-95278065D01*
X72065186Y-95400126D01*
X71929700Y-95593620D01*
X71929699Y-95593622D01*
X71829870Y-95807707D01*
X71829867Y-95807713D01*
X71772664Y-96021199D01*
X71772664Y-96021200D01*
X72669614Y-96021200D01*
X72643807Y-96061356D01*
X72603300Y-96199311D01*
X72603300Y-96343089D01*
X72643807Y-96481044D01*
X72669614Y-96521200D01*
X71772664Y-96521200D01*
X71829867Y-96734686D01*
X71829870Y-96734692D01*
X71929699Y-96948778D01*
X72065194Y-97142282D01*
X72232217Y-97309305D01*
X72425721Y-97444800D01*
X72639807Y-97544629D01*
X72639816Y-97544633D01*
X72853300Y-97601834D01*
X72853300Y-96706701D01*
X72960985Y-96755880D01*
X73067537Y-96771200D01*
X73139063Y-96771200D01*
X73245615Y-96755880D01*
X73353300Y-96706701D01*
X73353300Y-97601833D01*
X73566783Y-97544633D01*
X73566792Y-97544629D01*
X73780878Y-97444800D01*
X73974382Y-97309305D01*
X74141405Y-97142282D01*
X74276900Y-96948778D01*
X74376729Y-96734692D01*
X74376732Y-96734686D01*
X74433936Y-96521200D01*
X73536986Y-96521200D01*
X73562793Y-96481044D01*
X73603300Y-96343089D01*
X73603300Y-96199311D01*
X73562793Y-96061356D01*
X73536986Y-96021200D01*
X74433936Y-96021200D01*
X74433935Y-96021199D01*
X74376732Y-95807713D01*
X74376729Y-95807707D01*
X74276900Y-95593622D01*
X74276899Y-95593620D01*
X74141413Y-95400126D01*
X74141408Y-95400120D01*
X74114457Y-95373169D01*
X75275273Y-95373169D01*
X75290998Y-95406891D01*
X75292087Y-95409366D01*
X75305640Y-95442084D01*
X75306619Y-95444604D01*
X75322445Y-95488076D01*
X75323315Y-95490639D01*
X75333978Y-95524453D01*
X75334735Y-95527053D01*
X75459019Y-95990882D01*
X75460861Y-96047168D01*
X75416297Y-96271200D01*
X75460861Y-96495232D01*
X75459019Y-96551518D01*
X75372296Y-96875169D01*
X76768415Y-96875169D01*
X76768415Y-95373169D01*
X77766415Y-95373169D01*
X77766415Y-96875169D01*
X78435902Y-96875169D01*
X78345652Y-96718850D01*
X78344104Y-96715998D01*
X78324808Y-96678131D01*
X78323411Y-96675202D01*
X78300826Y-96624481D01*
X78299583Y-96621481D01*
X78284333Y-96581759D01*
X78283249Y-96578697D01*
X78207591Y-96345847D01*
X78206669Y-96342733D01*
X78195659Y-96301643D01*
X78194901Y-96298485D01*
X78183359Y-96244174D01*
X78182768Y-96240984D01*
X78176119Y-96198995D01*
X78175695Y-96195777D01*
X78150106Y-95952309D01*
X78149851Y-95949073D01*
X78147625Y-95906606D01*
X78147540Y-95903360D01*
X78147540Y-95875600D01*
X79145540Y-95875600D01*
X79165326Y-96063856D01*
X79165327Y-96063859D01*
X79223818Y-96243877D01*
X79223821Y-96243884D01*
X79318467Y-96407816D01*
X79409979Y-96509450D01*
X79445129Y-96548488D01*
X79598265Y-96659748D01*
X79598270Y-96659751D01*
X79771192Y-96736742D01*
X79771197Y-96736744D01*
X79956354Y-96776100D01*
X79956355Y-96776100D01*
X80145644Y-96776100D01*
X80145646Y-96776100D01*
X80330803Y-96736744D01*
X80503730Y-96659751D01*
X80656871Y-96548488D01*
X80783533Y-96407816D01*
X80878179Y-96243884D01*
X80936674Y-96063856D01*
X80950342Y-95933801D01*
X80976926Y-95869189D01*
X81023227Y-95833486D01*
X81100927Y-95798891D01*
X81164130Y-95770751D01*
X81317271Y-95659488D01*
X81443933Y-95518816D01*
X81528022Y-95373169D01*
X82766415Y-95373169D01*
X82766415Y-96776495D01*
X82823383Y-96875169D01*
X84268415Y-96875169D01*
X84268415Y-95373169D01*
X85266415Y-95373169D01*
X85266415Y-96875169D01*
X86768415Y-96875169D01*
X86768415Y-95373169D01*
X87766415Y-95373169D01*
X87766415Y-96875169D01*
X89268415Y-96875169D01*
X89268415Y-95373169D01*
X87766415Y-95373169D01*
X86768415Y-95373169D01*
X85266415Y-95373169D01*
X84268415Y-95373169D01*
X82766415Y-95373169D01*
X81528022Y-95373169D01*
X81538579Y-95354884D01*
X81592218Y-95189800D01*
X90702540Y-95189800D01*
X90722326Y-95378056D01*
X90722327Y-95378059D01*
X90780818Y-95558077D01*
X90780821Y-95558084D01*
X90875467Y-95722016D01*
X90983051Y-95841500D01*
X91002129Y-95862688D01*
X91155265Y-95973948D01*
X91155270Y-95973951D01*
X91328192Y-96050942D01*
X91328197Y-96050944D01*
X91513354Y-96090300D01*
X91513355Y-96090300D01*
X91702644Y-96090300D01*
X91702646Y-96090300D01*
X91887803Y-96050944D01*
X92053433Y-95977200D01*
X93801340Y-95977200D01*
X93821126Y-96165456D01*
X93821127Y-96165459D01*
X93879618Y-96345477D01*
X93879621Y-96345484D01*
X93974267Y-96509416D01*
X94059719Y-96604320D01*
X94100929Y-96650088D01*
X94254065Y-96761348D01*
X94254070Y-96761351D01*
X94426992Y-96838342D01*
X94426997Y-96838344D01*
X94612154Y-96877700D01*
X94612155Y-96877700D01*
X94801444Y-96877700D01*
X94801446Y-96877700D01*
X94986603Y-96838344D01*
X95159530Y-96761351D01*
X95312671Y-96650088D01*
X95439333Y-96509416D01*
X95533979Y-96345484D01*
X95592474Y-96165456D01*
X95612260Y-95977200D01*
X95592474Y-95788944D01*
X95533979Y-95608916D01*
X95439333Y-95444984D01*
X95374670Y-95373169D01*
X97766415Y-95373169D01*
X97766415Y-96875169D01*
X98310950Y-96875169D01*
X98247239Y-96747219D01*
X98238973Y-96725881D01*
X98178113Y-96511978D01*
X98173908Y-96489485D01*
X98153388Y-96268041D01*
X98153388Y-96245159D01*
X98173908Y-96023715D01*
X98178113Y-96001222D01*
X98238973Y-95787319D01*
X98247239Y-95765981D01*
X98346368Y-95566903D01*
X98358414Y-95547448D01*
X98490024Y-95373169D01*
X100473976Y-95373169D01*
X100605586Y-95547448D01*
X100617632Y-95566903D01*
X100716761Y-95765981D01*
X100725027Y-95787319D01*
X100785887Y-96001222D01*
X100790092Y-96023715D01*
X100810612Y-96245159D01*
X100810612Y-96268041D01*
X100790092Y-96489485D01*
X100785887Y-96511978D01*
X100725027Y-96725881D01*
X100716761Y-96747219D01*
X100653050Y-96875169D01*
X101768415Y-96875169D01*
X107766415Y-96875169D01*
X109268415Y-96875169D01*
X109268414Y-96318187D01*
X109223464Y-96344138D01*
X109220610Y-96345687D01*
X109182738Y-96364982D01*
X109179810Y-96366379D01*
X108956167Y-96465953D01*
X108953167Y-96467196D01*
X108913454Y-96482441D01*
X108910391Y-96483525D01*
X108857583Y-96500682D01*
X108854472Y-96501603D01*
X108813404Y-96512607D01*
X108810247Y-96513365D01*
X108570792Y-96564262D01*
X108567600Y-96564853D01*
X108525616Y-96571503D01*
X108522401Y-96571926D01*
X108467185Y-96577733D01*
X108463946Y-96577988D01*
X108421462Y-96580215D01*
X108418216Y-96580300D01*
X108173384Y-96580300D01*
X108170138Y-96580215D01*
X108127654Y-96577988D01*
X108124415Y-96577733D01*
X108069199Y-96571926D01*
X108065984Y-96571503D01*
X108024000Y-96564853D01*
X108020808Y-96564262D01*
X107781353Y-96513365D01*
X107778196Y-96512607D01*
X107766415Y-96509450D01*
X107766415Y-96875169D01*
X101768415Y-96875169D01*
X101768414Y-96490811D01*
X101607937Y-96312582D01*
X101605830Y-96310115D01*
X101579073Y-96277074D01*
X101577097Y-96274499D01*
X101544460Y-96229581D01*
X101542620Y-96226904D01*
X101519452Y-96191229D01*
X101517755Y-96188461D01*
X101395352Y-95976450D01*
X101393804Y-95973598D01*
X101374508Y-95935731D01*
X101373111Y-95932802D01*
X101350526Y-95882081D01*
X101349283Y-95879081D01*
X101334033Y-95839359D01*
X101332949Y-95836297D01*
X101257291Y-95603447D01*
X101256369Y-95600333D01*
X101245359Y-95559243D01*
X101244601Y-95556085D01*
X101233059Y-95501774D01*
X101232468Y-95498584D01*
X101225819Y-95456595D01*
X101225395Y-95453377D01*
X101216965Y-95373169D01*
X100473976Y-95373169D01*
X98490024Y-95373169D01*
X97766415Y-95373169D01*
X95374670Y-95373169D01*
X95312671Y-95304312D01*
X95312670Y-95304311D01*
X95159534Y-95193051D01*
X95159529Y-95193048D01*
X95025110Y-95133200D01*
X102195240Y-95133200D01*
X102215026Y-95321456D01*
X102215027Y-95321459D01*
X102273518Y-95501477D01*
X102273521Y-95501484D01*
X102368167Y-95665416D01*
X102494828Y-95806088D01*
X102494829Y-95806088D01*
X102647965Y-95917348D01*
X102647970Y-95917351D01*
X102820892Y-95994342D01*
X102820897Y-95994344D01*
X103006054Y-96033700D01*
X103006055Y-96033700D01*
X103195344Y-96033700D01*
X103195346Y-96033700D01*
X103380503Y-95994344D01*
X103553430Y-95917351D01*
X103706571Y-95806088D01*
X103833233Y-95665416D01*
X103927879Y-95501484D01*
X103969571Y-95373169D01*
X105266415Y-95373169D01*
X105266415Y-96149802D01*
X105297384Y-96144897D01*
X105300599Y-96144474D01*
X105355815Y-96138667D01*
X105359054Y-96138412D01*
X105401538Y-96136185D01*
X105404784Y-96136100D01*
X105649616Y-96136100D01*
X105652862Y-96136185D01*
X105695346Y-96138412D01*
X105698585Y-96138667D01*
X105753801Y-96144474D01*
X105757016Y-96144897D01*
X105799000Y-96151547D01*
X105802192Y-96152138D01*
X106041647Y-96203035D01*
X106044804Y-96203793D01*
X106085872Y-96214797D01*
X106088983Y-96215718D01*
X106141791Y-96232875D01*
X106144854Y-96233959D01*
X106184567Y-96249204D01*
X106187567Y-96250447D01*
X106411210Y-96350021D01*
X106414138Y-96351418D01*
X106452010Y-96370713D01*
X106454864Y-96372262D01*
X106502948Y-96400022D01*
X106505716Y-96401718D01*
X106541396Y-96424887D01*
X106544073Y-96426727D01*
X106742140Y-96570630D01*
X106744717Y-96572607D01*
X106768415Y-96591798D01*
X106768415Y-95817894D01*
X106739560Y-95778181D01*
X106737720Y-95775504D01*
X106714552Y-95739829D01*
X106712855Y-95737061D01*
X106590452Y-95525050D01*
X106588904Y-95522198D01*
X106569608Y-95484331D01*
X106568211Y-95481402D01*
X106545626Y-95430681D01*
X106544383Y-95427681D01*
X106529133Y-95387959D01*
X106528049Y-95384897D01*
X106524238Y-95373169D01*
X105266415Y-95373169D01*
X103969571Y-95373169D01*
X103986374Y-95321456D01*
X104006160Y-95133200D01*
X103986374Y-94944944D01*
X103927879Y-94764916D01*
X103879892Y-94681800D01*
X107390340Y-94681800D01*
X107410126Y-94870056D01*
X107410127Y-94870059D01*
X107468618Y-95050077D01*
X107468621Y-95050084D01*
X107563267Y-95214016D01*
X107679751Y-95343384D01*
X107689929Y-95354688D01*
X107843065Y-95465948D01*
X107843070Y-95465951D01*
X108015992Y-95542942D01*
X108015997Y-95542944D01*
X108201154Y-95582300D01*
X108201155Y-95582300D01*
X108390444Y-95582300D01*
X108390446Y-95582300D01*
X108575603Y-95542944D01*
X108748530Y-95465951D01*
X108876234Y-95373169D01*
X110266415Y-95373169D01*
X110266415Y-96875169D01*
X111506137Y-96875169D01*
X111517651Y-96743568D01*
X111517945Y-96740879D01*
X111522569Y-96705755D01*
X111522981Y-96703081D01*
X111531014Y-96657522D01*
X111531541Y-96654867D01*
X111539212Y-96620268D01*
X111539855Y-96617641D01*
X111612991Y-96344685D01*
X111613749Y-96342086D01*
X111624412Y-96308269D01*
X111625283Y-96305704D01*
X111641109Y-96262231D01*
X111642088Y-96259713D01*
X111655641Y-96226994D01*
X111656730Y-96224518D01*
X111768415Y-95985012D01*
X111768414Y-95652989D01*
X111656730Y-95413482D01*
X111655641Y-95411006D01*
X111642088Y-95378287D01*
X111641109Y-95375769D01*
X111640162Y-95373169D01*
X110266415Y-95373169D01*
X108876234Y-95373169D01*
X108901671Y-95354688D01*
X109028333Y-95214016D01*
X109122979Y-95050084D01*
X109181474Y-94870056D01*
X109201260Y-94681800D01*
X109181474Y-94493544D01*
X109122979Y-94313516D01*
X109028333Y-94149584D01*
X108901671Y-94008912D01*
X108878475Y-93992059D01*
X108748534Y-93897651D01*
X108748529Y-93897648D01*
X108575607Y-93820657D01*
X108575602Y-93820655D01*
X108429800Y-93789665D01*
X108390446Y-93781300D01*
X108201154Y-93781300D01*
X108168697Y-93788198D01*
X108015997Y-93820655D01*
X108015992Y-93820657D01*
X107843070Y-93897648D01*
X107843065Y-93897651D01*
X107689929Y-94008911D01*
X107563266Y-94149585D01*
X107468621Y-94313515D01*
X107468618Y-94313522D01*
X107410127Y-94493540D01*
X107410126Y-94493544D01*
X107390340Y-94681800D01*
X103879892Y-94681800D01*
X103833233Y-94600984D01*
X103706571Y-94460312D01*
X103706570Y-94460311D01*
X103553434Y-94349051D01*
X103553429Y-94349048D01*
X103380507Y-94272057D01*
X103380502Y-94272055D01*
X103233073Y-94240719D01*
X103195346Y-94232700D01*
X103006054Y-94232700D01*
X102973597Y-94239598D01*
X102820897Y-94272055D01*
X102820892Y-94272057D01*
X102647970Y-94349048D01*
X102647965Y-94349051D01*
X102494829Y-94460311D01*
X102368166Y-94600985D01*
X102273521Y-94764915D01*
X102273518Y-94764922D01*
X102215027Y-94944940D01*
X102215026Y-94944944D01*
X102195240Y-95133200D01*
X95025110Y-95133200D01*
X94986607Y-95116057D01*
X94986602Y-95116055D01*
X94824969Y-95081700D01*
X94801446Y-95076700D01*
X94612154Y-95076700D01*
X94588631Y-95081700D01*
X94426997Y-95116055D01*
X94426992Y-95116057D01*
X94254070Y-95193048D01*
X94254065Y-95193051D01*
X94100929Y-95304311D01*
X93974266Y-95444985D01*
X93879621Y-95608915D01*
X93879618Y-95608922D01*
X93821654Y-95787319D01*
X93821126Y-95788944D01*
X93805208Y-95940402D01*
X93801719Y-95973598D01*
X93801340Y-95977200D01*
X92053433Y-95977200D01*
X92060730Y-95973951D01*
X92213871Y-95862688D01*
X92340533Y-95722016D01*
X92435179Y-95558084D01*
X92493674Y-95378056D01*
X92513460Y-95189800D01*
X92493674Y-95001544D01*
X92435179Y-94821516D01*
X92340533Y-94657584D01*
X92213871Y-94516912D01*
X92181708Y-94493544D01*
X92060734Y-94405651D01*
X92060729Y-94405648D01*
X91887807Y-94328657D01*
X91887802Y-94328655D01*
X91742001Y-94297665D01*
X91702646Y-94289300D01*
X91513354Y-94289300D01*
X91480897Y-94296198D01*
X91328197Y-94328655D01*
X91328192Y-94328657D01*
X91155270Y-94405648D01*
X91155265Y-94405651D01*
X91002129Y-94516911D01*
X90875466Y-94657585D01*
X90780821Y-94821515D01*
X90780818Y-94821522D01*
X90725098Y-94993012D01*
X90722326Y-95001544D01*
X90702540Y-95189800D01*
X81592218Y-95189800D01*
X81597074Y-95174856D01*
X81616860Y-94986600D01*
X81597074Y-94798344D01*
X81538579Y-94618316D01*
X81443933Y-94454384D01*
X81372607Y-94375169D01*
X85266415Y-94375169D01*
X86768415Y-94375169D01*
X87766415Y-94375169D01*
X89268415Y-94375169D01*
X89268415Y-93533000D01*
X92187640Y-93533000D01*
X92207426Y-93721256D01*
X92207427Y-93721259D01*
X92265918Y-93901277D01*
X92265921Y-93901284D01*
X92360567Y-94065216D01*
X92467583Y-94184069D01*
X92487229Y-94205888D01*
X92640365Y-94317148D01*
X92640370Y-94317151D01*
X92813292Y-94394142D01*
X92813297Y-94394144D01*
X92998454Y-94433500D01*
X92998455Y-94433500D01*
X93187744Y-94433500D01*
X93187746Y-94433500D01*
X93372903Y-94394144D01*
X93415521Y-94375169D01*
X97766415Y-94375169D01*
X99268415Y-94375169D01*
X99268415Y-92873169D01*
X100266415Y-92873169D01*
X100266415Y-94375169D01*
X101354600Y-94375169D01*
X101373111Y-94333598D01*
X101374508Y-94330669D01*
X101393804Y-94292802D01*
X101395352Y-94289950D01*
X101517755Y-94077939D01*
X101519452Y-94075171D01*
X101542620Y-94039496D01*
X101544460Y-94036819D01*
X101577097Y-93991901D01*
X101579073Y-93989326D01*
X101605830Y-93956285D01*
X101607937Y-93953818D01*
X101768415Y-93775588D01*
X101768415Y-93234000D01*
X104621740Y-93234000D01*
X104641526Y-93422256D01*
X104641527Y-93422259D01*
X104700018Y-93602277D01*
X104700021Y-93602284D01*
X104794667Y-93766216D01*
X104906320Y-93890219D01*
X104921329Y-93906888D01*
X105074465Y-94018148D01*
X105074470Y-94018151D01*
X105247392Y-94095142D01*
X105247397Y-94095144D01*
X105432554Y-94134500D01*
X105432555Y-94134500D01*
X105621844Y-94134500D01*
X105621846Y-94134500D01*
X105807003Y-94095144D01*
X105979930Y-94018151D01*
X106133071Y-93906888D01*
X106259733Y-93766216D01*
X106354379Y-93602284D01*
X106412874Y-93422256D01*
X106424651Y-93310200D01*
X110514540Y-93310200D01*
X110534326Y-93498456D01*
X110534327Y-93498459D01*
X110592818Y-93678477D01*
X110592821Y-93678484D01*
X110687467Y-93842416D01*
X110799957Y-93967348D01*
X110814129Y-93983088D01*
X110967265Y-94094348D01*
X110967270Y-94094351D01*
X111140192Y-94171342D01*
X111140197Y-94171344D01*
X111325354Y-94210700D01*
X111325355Y-94210700D01*
X111514644Y-94210700D01*
X111514646Y-94210700D01*
X111699803Y-94171344D01*
X111872730Y-94094351D01*
X112025871Y-93983088D01*
X112152533Y-93842416D01*
X112247179Y-93678484D01*
X112305674Y-93498456D01*
X112325460Y-93310200D01*
X112308569Y-93149494D01*
X112321138Y-93080768D01*
X112356151Y-93043339D01*
X112300691Y-93024874D01*
X112293695Y-93016191D01*
X112447239Y-93016191D01*
X112502852Y-93034848D01*
X112546564Y-93089356D01*
X112548072Y-93093203D01*
X112551102Y-93101328D01*
X112551106Y-93101335D01*
X112637352Y-93216544D01*
X112637355Y-93216547D01*
X112752564Y-93302793D01*
X112752571Y-93302797D01*
X112883981Y-93351810D01*
X112939915Y-93393681D01*
X112964332Y-93459145D01*
X112949480Y-93527418D01*
X112928330Y-93555673D01*
X112806403Y-93677600D01*
X112670865Y-93871169D01*
X112670864Y-93871171D01*
X112570998Y-94085335D01*
X112570994Y-94085344D01*
X112509838Y-94313586D01*
X112509836Y-94313596D01*
X112489241Y-94548999D01*
X112489241Y-94549000D01*
X112509836Y-94784403D01*
X112509838Y-94784413D01*
X112570994Y-95012655D01*
X112570996Y-95012659D01*
X112570997Y-95012663D01*
X112650904Y-95184023D01*
X112670865Y-95226830D01*
X112670867Y-95226834D01*
X112760529Y-95354884D01*
X112806401Y-95420396D01*
X112806406Y-95420402D01*
X112973497Y-95587493D01*
X112973503Y-95587498D01*
X113159058Y-95717425D01*
X113202683Y-95772002D01*
X113209877Y-95841500D01*
X113178354Y-95903855D01*
X113159058Y-95920575D01*
X112973497Y-96050505D01*
X112806405Y-96217597D01*
X112670865Y-96411169D01*
X112670864Y-96411171D01*
X112570998Y-96625335D01*
X112570994Y-96625344D01*
X112509838Y-96853586D01*
X112509836Y-96853596D01*
X112489241Y-97088999D01*
X112489241Y-97089000D01*
X112509836Y-97324403D01*
X112509838Y-97324413D01*
X112570994Y-97552655D01*
X112570996Y-97552659D01*
X112570997Y-97552663D01*
X112654055Y-97730781D01*
X112670865Y-97766830D01*
X112670867Y-97766834D01*
X112752004Y-97882709D01*
X112806405Y-97960401D01*
X112973499Y-98127495D01*
X113022206Y-98161600D01*
X113167065Y-98263032D01*
X113167067Y-98263033D01*
X113167070Y-98263035D01*
X113381237Y-98362903D01*
X113609492Y-98424063D01*
X113797818Y-98440539D01*
X113844899Y-98444659D01*
X113844900Y-98444659D01*
X113844901Y-98444659D01*
X113884134Y-98441226D01*
X114080308Y-98424063D01*
X114308563Y-98362903D01*
X114522730Y-98263035D01*
X114716301Y-98127495D01*
X114883395Y-97960401D01*
X115013630Y-97774405D01*
X115068207Y-97730781D01*
X115137705Y-97723587D01*
X115200060Y-97755110D01*
X115216779Y-97774405D01*
X115346790Y-97960078D01*
X115513817Y-98127105D01*
X115707321Y-98262600D01*
X115921407Y-98362429D01*
X115921416Y-98362433D01*
X116134900Y-98419634D01*
X116134900Y-97524501D01*
X116242585Y-97573680D01*
X116349137Y-97589000D01*
X116420663Y-97589000D01*
X116527215Y-97573680D01*
X116634900Y-97524501D01*
X116634900Y-98419633D01*
X116848383Y-98362433D01*
X116848392Y-98362429D01*
X117062478Y-98262600D01*
X117255982Y-98127105D01*
X117423005Y-97960082D01*
X117558500Y-97766578D01*
X117658329Y-97552492D01*
X117658332Y-97552486D01*
X117715536Y-97339000D01*
X116818586Y-97339000D01*
X116844393Y-97298844D01*
X116884900Y-97160889D01*
X116884900Y-97017111D01*
X116844393Y-96879156D01*
X116818586Y-96839000D01*
X117715536Y-96839000D01*
X117715535Y-96838999D01*
X117658332Y-96625513D01*
X117658329Y-96625507D01*
X117558500Y-96411422D01*
X117558499Y-96411420D01*
X117423013Y-96217926D01*
X117423008Y-96217920D01*
X117255978Y-96050890D01*
X117070305Y-95920879D01*
X117026680Y-95866302D01*
X117019488Y-95796804D01*
X117051010Y-95734449D01*
X117070306Y-95717730D01*
X117113702Y-95687344D01*
X117256301Y-95587495D01*
X117423395Y-95420401D01*
X117558935Y-95226830D01*
X117658803Y-95012663D01*
X117719963Y-94784408D01*
X117740559Y-94549000D01*
X117719963Y-94313592D01*
X117661218Y-94094351D01*
X117658805Y-94085344D01*
X117658804Y-94085343D01*
X117658803Y-94085337D01*
X117558935Y-93871171D01*
X117553325Y-93863158D01*
X117423394Y-93677597D01*
X117256302Y-93510506D01*
X117256296Y-93510501D01*
X117070742Y-93380575D01*
X117027117Y-93325998D01*
X117019923Y-93256500D01*
X117051446Y-93194145D01*
X117070742Y-93177425D01*
X117149977Y-93121944D01*
X117256301Y-93047495D01*
X117423395Y-92880401D01*
X117558935Y-92686830D01*
X117658803Y-92472663D01*
X117719963Y-92244408D01*
X117740559Y-92009000D01*
X117719963Y-91773592D01*
X117668598Y-91581893D01*
X117658805Y-91545344D01*
X117658804Y-91545343D01*
X117658803Y-91545337D01*
X117558935Y-91331171D01*
X117557415Y-91328999D01*
X117423394Y-91137597D01*
X117256302Y-90970506D01*
X117256295Y-90970501D01*
X117062734Y-90834967D01*
X117062730Y-90834965D01*
X117059968Y-90833677D01*
X116848563Y-90735097D01*
X116848559Y-90735096D01*
X116848555Y-90735094D01*
X116620313Y-90673938D01*
X116620303Y-90673936D01*
X116384901Y-90653341D01*
X116384899Y-90653341D01*
X116149496Y-90673936D01*
X116149486Y-90673938D01*
X115921244Y-90735094D01*
X115921235Y-90735098D01*
X115707071Y-90834964D01*
X115707069Y-90834965D01*
X115513500Y-90970503D01*
X115391573Y-91092430D01*
X115330250Y-91125914D01*
X115260558Y-91120930D01*
X115204625Y-91079058D01*
X115187710Y-91048081D01*
X115138697Y-90916671D01*
X115138693Y-90916664D01*
X115052447Y-90801455D01*
X115052444Y-90801452D01*
X114937235Y-90715206D01*
X114937228Y-90715202D01*
X114802382Y-90664908D01*
X114802383Y-90664908D01*
X114742783Y-90658501D01*
X114742781Y-90658500D01*
X114742773Y-90658500D01*
X114742764Y-90658500D01*
X112947029Y-90658500D01*
X112947023Y-90658501D01*
X112887416Y-90664908D01*
X112752571Y-90715202D01*
X112752564Y-90715206D01*
X112637355Y-90801452D01*
X112637352Y-90801455D01*
X112551106Y-90916664D01*
X112551102Y-90916671D01*
X112500808Y-91051517D01*
X112494401Y-91111116D01*
X112494400Y-91111135D01*
X112494400Y-92906870D01*
X112494401Y-92906885D01*
X112494713Y-92909783D01*
X112482300Y-92978541D01*
X112447239Y-93016191D01*
X112293695Y-93016191D01*
X112256856Y-92970465D01*
X112253495Y-92961354D01*
X112247179Y-92941916D01*
X112152533Y-92777984D01*
X112025871Y-92637312D01*
X112019248Y-92632500D01*
X111872734Y-92526051D01*
X111872729Y-92526048D01*
X111699807Y-92449057D01*
X111699802Y-92449055D01*
X111554000Y-92418065D01*
X111514646Y-92409700D01*
X111325354Y-92409700D01*
X111292897Y-92416598D01*
X111140197Y-92449055D01*
X111140192Y-92449057D01*
X110967270Y-92526048D01*
X110967265Y-92526051D01*
X110814129Y-92637311D01*
X110687466Y-92777985D01*
X110592821Y-92941915D01*
X110592818Y-92941922D01*
X110534327Y-93121940D01*
X110534326Y-93121944D01*
X110514540Y-93310200D01*
X106424651Y-93310200D01*
X106432660Y-93234000D01*
X106412874Y-93045744D01*
X106354379Y-92865716D01*
X106259733Y-92701784D01*
X106133071Y-92561112D01*
X106133070Y-92561111D01*
X105979934Y-92449851D01*
X105979929Y-92449848D01*
X105807007Y-92372857D01*
X105807002Y-92372855D01*
X105661200Y-92341865D01*
X105621846Y-92333500D01*
X105432554Y-92333500D01*
X105400097Y-92340398D01*
X105247397Y-92372855D01*
X105247392Y-92372857D01*
X105074470Y-92449848D01*
X105074465Y-92449851D01*
X104921329Y-92561111D01*
X104794666Y-92701785D01*
X104700021Y-92865715D01*
X104700018Y-92865722D01*
X104645066Y-93034848D01*
X104641526Y-93045744D01*
X104621740Y-93234000D01*
X101768415Y-93234000D01*
X101768415Y-92873169D01*
X100266415Y-92873169D01*
X99268415Y-92873169D01*
X98021589Y-92873169D01*
X98030094Y-92954090D01*
X98030349Y-92957327D01*
X98032575Y-92999794D01*
X98032660Y-93003040D01*
X98032660Y-93058560D01*
X98032575Y-93061806D01*
X98030349Y-93104273D01*
X98030094Y-93107509D01*
X98004505Y-93350977D01*
X98004081Y-93354195D01*
X97997432Y-93396184D01*
X97996841Y-93399374D01*
X97985299Y-93453685D01*
X97984541Y-93456843D01*
X97973531Y-93497933D01*
X97972609Y-93501047D01*
X97896951Y-93733897D01*
X97895867Y-93736959D01*
X97880617Y-93776681D01*
X97879374Y-93779681D01*
X97856789Y-93830402D01*
X97855392Y-93833331D01*
X97836096Y-93871199D01*
X97834547Y-93874050D01*
X97766415Y-93992059D01*
X97766415Y-94375169D01*
X93415521Y-94375169D01*
X93545830Y-94317151D01*
X93698971Y-94205888D01*
X93813173Y-94079054D01*
X93872656Y-94042407D01*
X93937900Y-94043649D01*
X93938040Y-94042993D01*
X93941444Y-94043716D01*
X93942513Y-94043737D01*
X93943644Y-94044099D01*
X93944394Y-94044342D01*
X93944397Y-94044344D01*
X93944399Y-94044344D01*
X93944401Y-94044345D01*
X94020939Y-94060613D01*
X94129554Y-94083700D01*
X94129555Y-94083700D01*
X94318844Y-94083700D01*
X94318846Y-94083700D01*
X94504003Y-94044344D01*
X94676930Y-93967351D01*
X94830071Y-93856088D01*
X94956733Y-93715416D01*
X95051379Y-93551484D01*
X95087260Y-93441051D01*
X95126697Y-93383377D01*
X95191055Y-93356178D01*
X95259902Y-93368092D01*
X95311378Y-93415336D01*
X95312578Y-93417370D01*
X95396665Y-93563014D01*
X95523329Y-93703688D01*
X95676465Y-93814948D01*
X95676470Y-93814951D01*
X95849392Y-93891942D01*
X95849397Y-93891944D01*
X96034554Y-93931300D01*
X96034555Y-93931300D01*
X96223844Y-93931300D01*
X96223846Y-93931300D01*
X96409003Y-93891944D01*
X96581930Y-93814951D01*
X96735071Y-93703688D01*
X96861733Y-93563016D01*
X96956379Y-93399084D01*
X97014874Y-93219056D01*
X97034660Y-93030800D01*
X97014874Y-92842544D01*
X96956379Y-92662516D01*
X96861733Y-92498584D01*
X96735071Y-92357912D01*
X96685721Y-92322057D01*
X96581934Y-92246651D01*
X96581929Y-92246648D01*
X96409007Y-92169657D01*
X96409002Y-92169655D01*
X96263200Y-92138665D01*
X96223846Y-92130300D01*
X96034554Y-92130300D01*
X96002097Y-92137198D01*
X95849397Y-92169655D01*
X95849392Y-92169657D01*
X95676470Y-92246648D01*
X95676465Y-92246651D01*
X95523329Y-92357911D01*
X95396666Y-92498585D01*
X95302021Y-92662515D01*
X95302019Y-92662519D01*
X95266139Y-92772948D01*
X95226701Y-92830623D01*
X95162342Y-92857821D01*
X95093496Y-92845906D01*
X95042020Y-92798662D01*
X95040821Y-92796629D01*
X95013235Y-92748849D01*
X94956733Y-92650984D01*
X94830071Y-92510312D01*
X94830067Y-92510309D01*
X94676934Y-92399051D01*
X94676929Y-92399048D01*
X94504007Y-92322057D01*
X94504002Y-92322055D01*
X94358200Y-92291065D01*
X94318846Y-92282700D01*
X94129554Y-92282700D01*
X94097097Y-92289598D01*
X93944397Y-92322055D01*
X93944392Y-92322057D01*
X93771470Y-92399048D01*
X93771465Y-92399051D01*
X93618332Y-92510309D01*
X93618329Y-92510311D01*
X93618329Y-92510312D01*
X93527025Y-92611716D01*
X93504129Y-92637144D01*
X93444642Y-92673792D01*
X93379398Y-92672548D01*
X93379259Y-92673207D01*
X93375844Y-92672481D01*
X93374785Y-92672461D01*
X93373670Y-92672105D01*
X93372904Y-92671856D01*
X93217719Y-92638871D01*
X93187746Y-92632500D01*
X92998454Y-92632500D01*
X92968490Y-92638869D01*
X92813297Y-92671855D01*
X92813292Y-92671857D01*
X92640370Y-92748848D01*
X92640365Y-92748851D01*
X92487229Y-92860111D01*
X92360566Y-93000785D01*
X92265921Y-93164715D01*
X92265918Y-93164722D01*
X92221055Y-93302797D01*
X92207426Y-93344744D01*
X92187640Y-93533000D01*
X89268415Y-93533000D01*
X89268415Y-92873169D01*
X88699354Y-92873169D01*
X88611673Y-92936873D01*
X88608996Y-92938713D01*
X88573316Y-92961882D01*
X88570548Y-92963578D01*
X88522464Y-92991338D01*
X88519610Y-92992887D01*
X88481738Y-93012182D01*
X88478810Y-93013579D01*
X88255167Y-93113153D01*
X88252167Y-93114396D01*
X88212454Y-93129641D01*
X88209391Y-93130725D01*
X88156583Y-93147882D01*
X88153472Y-93148803D01*
X88112404Y-93159807D01*
X88109247Y-93160565D01*
X87869792Y-93211462D01*
X87866600Y-93212053D01*
X87824616Y-93218703D01*
X87821401Y-93219126D01*
X87766415Y-93224908D01*
X87766415Y-94375169D01*
X86768415Y-94375169D01*
X86768415Y-93039235D01*
X86710790Y-93013579D01*
X86707863Y-93012182D01*
X86669990Y-92992887D01*
X86667136Y-92991338D01*
X86619052Y-92963578D01*
X86616284Y-92961882D01*
X86580604Y-92938713D01*
X86577927Y-92936873D01*
X86490246Y-92873169D01*
X85276128Y-92873169D01*
X85279294Y-92903291D01*
X85279549Y-92906527D01*
X85281775Y-92948994D01*
X85281860Y-92952240D01*
X85281860Y-93007760D01*
X85281775Y-93011006D01*
X85279549Y-93053473D01*
X85279294Y-93056709D01*
X85266415Y-93179251D01*
X85266415Y-94375169D01*
X81372607Y-94375169D01*
X81317271Y-94313712D01*
X81317270Y-94313711D01*
X81164134Y-94202451D01*
X81164129Y-94202448D01*
X80991207Y-94125457D01*
X80991202Y-94125455D01*
X80844850Y-94094348D01*
X80806046Y-94086100D01*
X80616754Y-94086100D01*
X80584297Y-94092998D01*
X80431597Y-94125455D01*
X80431592Y-94125457D01*
X80258670Y-94202448D01*
X80258665Y-94202451D01*
X80105529Y-94313711D01*
X79978866Y-94454385D01*
X79884221Y-94618315D01*
X79884218Y-94618322D01*
X79830254Y-94784408D01*
X79825726Y-94798344D01*
X79818189Y-94870056D01*
X79812057Y-94928397D01*
X79785472Y-94993012D01*
X79739172Y-95028714D01*
X79598270Y-95091448D01*
X79598265Y-95091451D01*
X79445129Y-95202711D01*
X79318466Y-95343385D01*
X79223821Y-95507315D01*
X79223818Y-95507322D01*
X79165327Y-95687340D01*
X79165326Y-95687344D01*
X79145540Y-95875600D01*
X78147540Y-95875600D01*
X78147540Y-95847840D01*
X78147625Y-95844594D01*
X78149851Y-95802127D01*
X78150106Y-95798891D01*
X78175695Y-95555423D01*
X78176119Y-95552205D01*
X78182768Y-95510216D01*
X78183359Y-95507026D01*
X78194901Y-95452715D01*
X78195659Y-95449557D01*
X78206669Y-95408467D01*
X78207591Y-95405353D01*
X78218048Y-95373169D01*
X77766415Y-95373169D01*
X76768415Y-95373169D01*
X75275273Y-95373169D01*
X74114457Y-95373169D01*
X74019353Y-95278065D01*
X73985868Y-95216742D01*
X73990852Y-95147050D01*
X74032724Y-95091117D01*
X74063700Y-95074202D01*
X74195631Y-95024996D01*
X74310846Y-94938746D01*
X74397096Y-94823531D01*
X74447391Y-94688683D01*
X74453800Y-94629073D01*
X74453799Y-92873169D01*
X75451799Y-92873169D01*
X75451800Y-94375169D01*
X76768415Y-94375169D01*
X76768415Y-92873169D01*
X77766415Y-92873169D01*
X77766415Y-94375169D01*
X78886244Y-94375169D01*
X78922399Y-94348900D01*
X78943649Y-94283503D01*
X78944733Y-94280441D01*
X78959983Y-94240719D01*
X78961226Y-94237719D01*
X78983811Y-94186998D01*
X78985208Y-94184069D01*
X79004504Y-94146202D01*
X79006052Y-94143350D01*
X79128455Y-93931339D01*
X79130152Y-93928571D01*
X79153320Y-93892896D01*
X79155160Y-93890219D01*
X79187797Y-93845301D01*
X79189773Y-93842726D01*
X79216530Y-93809685D01*
X79218637Y-93807218D01*
X79268415Y-93751933D01*
X79268415Y-92980000D01*
X82472940Y-92980000D01*
X82492726Y-93168256D01*
X82492727Y-93168259D01*
X82551218Y-93348277D01*
X82551221Y-93348284D01*
X82645867Y-93512216D01*
X82684997Y-93555674D01*
X82772529Y-93652888D01*
X82925665Y-93764148D01*
X82925670Y-93764151D01*
X83098592Y-93841142D01*
X83098597Y-93841144D01*
X83283754Y-93880500D01*
X83283755Y-93880500D01*
X83473044Y-93880500D01*
X83473046Y-93880500D01*
X83658203Y-93841144D01*
X83831130Y-93764151D01*
X83984271Y-93652888D01*
X84110933Y-93512216D01*
X84205579Y-93348284D01*
X84264074Y-93168256D01*
X84283860Y-92980000D01*
X84264074Y-92791744D01*
X84205579Y-92611716D01*
X84110933Y-92447784D01*
X83984271Y-92307112D01*
X83950671Y-92282700D01*
X83831134Y-92195851D01*
X83831129Y-92195848D01*
X83658207Y-92118857D01*
X83658202Y-92118855D01*
X83512400Y-92087865D01*
X83473046Y-92079500D01*
X83283754Y-92079500D01*
X83251297Y-92086398D01*
X83098597Y-92118855D01*
X83098592Y-92118857D01*
X82925670Y-92195848D01*
X82925665Y-92195851D01*
X82772529Y-92307111D01*
X82645866Y-92447785D01*
X82551221Y-92611715D01*
X82551218Y-92611722D01*
X82492727Y-92791740D01*
X82492726Y-92791744D01*
X82472940Y-92980000D01*
X79268415Y-92980000D01*
X79268415Y-92873169D01*
X77766415Y-92873169D01*
X76768415Y-92873169D01*
X75451799Y-92873169D01*
X74453799Y-92873169D01*
X74453799Y-92833328D01*
X74447391Y-92773717D01*
X74447104Y-92772948D01*
X74397097Y-92638871D01*
X74397093Y-92638864D01*
X74310847Y-92523655D01*
X74310844Y-92523652D01*
X74195635Y-92437406D01*
X74195628Y-92437402D01*
X74060782Y-92387108D01*
X74060783Y-92387108D01*
X74001183Y-92380701D01*
X74001181Y-92380700D01*
X74001173Y-92380700D01*
X74001164Y-92380700D01*
X72205429Y-92380700D01*
X72205423Y-92380701D01*
X72145816Y-92387108D01*
X72010971Y-92437402D01*
X72010964Y-92437406D01*
X71895755Y-92523652D01*
X71895752Y-92523655D01*
X71809506Y-92638864D01*
X71809502Y-92638871D01*
X71759208Y-92773717D01*
X71754779Y-92814916D01*
X71752801Y-92833323D01*
X71752800Y-92833335D01*
X71752800Y-94629070D01*
X70055877Y-94629070D01*
X70062143Y-91821875D01*
X71186146Y-91821875D01*
X71216837Y-91791185D01*
X71220078Y-91788168D01*
X71263908Y-91750189D01*
X71267355Y-91747412D01*
X71443197Y-91615775D01*
X71446834Y-91613250D01*
X71495625Y-91581893D01*
X71499433Y-91579633D01*
X71565909Y-91543334D01*
X71569868Y-91541353D01*
X71622633Y-91517255D01*
X71626724Y-91515561D01*
X71768415Y-91462713D01*
X71768415Y-91382700D01*
X72766415Y-91382700D01*
X74015379Y-91382700D01*
X74017041Y-91382722D01*
X74038803Y-91383306D01*
X74040464Y-91383373D01*
X74068808Y-91384894D01*
X74070463Y-91385005D01*
X74092109Y-91386748D01*
X74093760Y-91386903D01*
X74200400Y-91398369D01*
X74204235Y-91398902D01*
X74254238Y-91407463D01*
X74258034Y-91408236D01*
X74268415Y-91410688D01*
X74268415Y-90373169D01*
X75266415Y-90373169D01*
X75266415Y-91875169D01*
X76768415Y-91875169D01*
X76768415Y-90373169D01*
X77766415Y-90373169D01*
X77766415Y-91875169D01*
X79268415Y-91875169D01*
X79268415Y-90389200D01*
X80313940Y-90389200D01*
X80333726Y-90577456D01*
X80333727Y-90577459D01*
X80392218Y-90757477D01*
X80392221Y-90757484D01*
X80486867Y-90921416D01*
X80555478Y-90997616D01*
X80613529Y-91062088D01*
X80766665Y-91173348D01*
X80766670Y-91173351D01*
X80939592Y-91250342D01*
X80939597Y-91250344D01*
X81124754Y-91289700D01*
X81124755Y-91289700D01*
X81314044Y-91289700D01*
X81314046Y-91289700D01*
X81499203Y-91250344D01*
X81672130Y-91173351D01*
X81825271Y-91062088D01*
X81951933Y-90921416D01*
X82046579Y-90757484D01*
X82105074Y-90577456D01*
X82116851Y-90465400D01*
X84250940Y-90465400D01*
X84270726Y-90653656D01*
X84270727Y-90653659D01*
X84329218Y-90833677D01*
X84329221Y-90833684D01*
X84423867Y-90997616D01*
X84513282Y-91096921D01*
X84550529Y-91138288D01*
X84703665Y-91249548D01*
X84703670Y-91249551D01*
X84876592Y-91326542D01*
X84876597Y-91326544D01*
X85061754Y-91365900D01*
X85061755Y-91365900D01*
X85251044Y-91365900D01*
X85251046Y-91365900D01*
X85424648Y-91329000D01*
X86689340Y-91329000D01*
X86709126Y-91517256D01*
X86709127Y-91517259D01*
X86767618Y-91697277D01*
X86767621Y-91697284D01*
X86862267Y-91861216D01*
X86988929Y-92001888D01*
X87142065Y-92113148D01*
X87142070Y-92113151D01*
X87314992Y-92190142D01*
X87314997Y-92190144D01*
X87500154Y-92229500D01*
X87500155Y-92229500D01*
X87689444Y-92229500D01*
X87689446Y-92229500D01*
X87874603Y-92190144D01*
X88047530Y-92113151D01*
X88200671Y-92001888D01*
X88327333Y-91861216D01*
X88421979Y-91697284D01*
X88480474Y-91517256D01*
X88500260Y-91329000D01*
X88480474Y-91140744D01*
X88421979Y-90960716D01*
X88327333Y-90796784D01*
X88200671Y-90656112D01*
X88130751Y-90605312D01*
X88047534Y-90544851D01*
X88047529Y-90544848D01*
X87874607Y-90467857D01*
X87874602Y-90467855D01*
X87728800Y-90436865D01*
X87689446Y-90428500D01*
X87500154Y-90428500D01*
X87467697Y-90435398D01*
X87314997Y-90467855D01*
X87314992Y-90467857D01*
X87142070Y-90544848D01*
X87142065Y-90544851D01*
X86988929Y-90656111D01*
X86862266Y-90796785D01*
X86767621Y-90960715D01*
X86767618Y-90960722D01*
X86709127Y-91140740D01*
X86709126Y-91140744D01*
X86689340Y-91329000D01*
X85424648Y-91329000D01*
X85436203Y-91326544D01*
X85609130Y-91249551D01*
X85762271Y-91138288D01*
X85888933Y-90997616D01*
X85983579Y-90833684D01*
X86042074Y-90653656D01*
X86061860Y-90465400D01*
X86052166Y-90373169D01*
X90266415Y-90373169D01*
X90266415Y-91875169D01*
X91768415Y-91875169D01*
X91768415Y-90373169D01*
X92766415Y-90373169D01*
X92766415Y-91661525D01*
X92818108Y-91650538D01*
X92821300Y-91649947D01*
X92863284Y-91643297D01*
X92866499Y-91642874D01*
X92921715Y-91637067D01*
X92924954Y-91636812D01*
X92967438Y-91634585D01*
X92970684Y-91634500D01*
X93125882Y-91634500D01*
X93207327Y-91575327D01*
X93210004Y-91573487D01*
X93245684Y-91550318D01*
X93248452Y-91548622D01*
X93296536Y-91520862D01*
X93299390Y-91519313D01*
X93337262Y-91500018D01*
X93340190Y-91498621D01*
X93563833Y-91399047D01*
X93566833Y-91397804D01*
X93606546Y-91382559D01*
X93609609Y-91381475D01*
X93662417Y-91364318D01*
X93665528Y-91363397D01*
X93706596Y-91352393D01*
X93709753Y-91351635D01*
X93949208Y-91300738D01*
X93952400Y-91300147D01*
X93994384Y-91293497D01*
X93997599Y-91293074D01*
X94052815Y-91287267D01*
X94056054Y-91287012D01*
X94098538Y-91284785D01*
X94101784Y-91284700D01*
X94268415Y-91284700D01*
X94268415Y-90373169D01*
X95266415Y-90373169D01*
X95266415Y-91336770D01*
X95468833Y-91246647D01*
X95471833Y-91245404D01*
X95511546Y-91230159D01*
X95514609Y-91229075D01*
X95567417Y-91211918D01*
X95570528Y-91210997D01*
X95611596Y-91199993D01*
X95614753Y-91199235D01*
X95854208Y-91148338D01*
X95857400Y-91147747D01*
X95899384Y-91141097D01*
X95902599Y-91140674D01*
X95957815Y-91134867D01*
X95961054Y-91134612D01*
X96003538Y-91132385D01*
X96006784Y-91132300D01*
X96251616Y-91132300D01*
X96254862Y-91132385D01*
X96297346Y-91134612D01*
X96300585Y-91134867D01*
X96355801Y-91140674D01*
X96359016Y-91141097D01*
X96401000Y-91147747D01*
X96404192Y-91148338D01*
X96643647Y-91199235D01*
X96646804Y-91199993D01*
X96687872Y-91210997D01*
X96690983Y-91211918D01*
X96743791Y-91229075D01*
X96746854Y-91230159D01*
X96768415Y-91238435D01*
X96768415Y-90373169D01*
X97766415Y-90373169D01*
X97766415Y-91875169D01*
X99268415Y-91875169D01*
X103324945Y-91875169D01*
X104196013Y-91875169D01*
X104198248Y-91872687D01*
X104200483Y-91870333D01*
X104230555Y-91840261D01*
X104232910Y-91838025D01*
X104268415Y-91806057D01*
X104268415Y-91278200D01*
X106501340Y-91278200D01*
X106521126Y-91466456D01*
X106521127Y-91466459D01*
X106579618Y-91646477D01*
X106579621Y-91646484D01*
X106674267Y-91810416D01*
X106732571Y-91875169D01*
X106800929Y-91951088D01*
X106954065Y-92062348D01*
X106954070Y-92062351D01*
X107126992Y-92139342D01*
X107126997Y-92139344D01*
X107312154Y-92178700D01*
X107312155Y-92178700D01*
X107501444Y-92178700D01*
X107501446Y-92178700D01*
X107686603Y-92139344D01*
X107859530Y-92062351D01*
X108012671Y-91951088D01*
X108139333Y-91810416D01*
X108144392Y-91801653D01*
X110266415Y-91801653D01*
X110403127Y-91702327D01*
X110405804Y-91700487D01*
X110441484Y-91677318D01*
X110444252Y-91675622D01*
X110492336Y-91647862D01*
X110495190Y-91646313D01*
X110533062Y-91627018D01*
X110535990Y-91625621D01*
X110759633Y-91526047D01*
X110762633Y-91524804D01*
X110802346Y-91509559D01*
X110805409Y-91508475D01*
X110858217Y-91491318D01*
X110861328Y-91490397D01*
X110902396Y-91479393D01*
X110905553Y-91478635D01*
X111145008Y-91427738D01*
X111148200Y-91427147D01*
X111190184Y-91420497D01*
X111193399Y-91420074D01*
X111248615Y-91414267D01*
X111251854Y-91414012D01*
X111294338Y-91411785D01*
X111297584Y-91411700D01*
X111496400Y-91411700D01*
X111496400Y-91096921D01*
X111496422Y-91095259D01*
X111497006Y-91073497D01*
X111497073Y-91071836D01*
X111498594Y-91043492D01*
X111498705Y-91041837D01*
X111500448Y-91020191D01*
X111500603Y-91018540D01*
X111512069Y-90911900D01*
X111512602Y-90908065D01*
X111521163Y-90858062D01*
X111521936Y-90854266D01*
X111537171Y-90789785D01*
X111538179Y-90786045D01*
X111552912Y-90737474D01*
X111554152Y-90733804D01*
X111629261Y-90532424D01*
X111630955Y-90528333D01*
X111655053Y-90475568D01*
X111657034Y-90471609D01*
X111693333Y-90405133D01*
X111695593Y-90401325D01*
X111713688Y-90373169D01*
X111628934Y-90373169D01*
X111555152Y-90455113D01*
X111552917Y-90457467D01*
X111522845Y-90487539D01*
X111520490Y-90489775D01*
X111479229Y-90526925D01*
X111476762Y-90529032D01*
X111443717Y-90555793D01*
X111441140Y-90557770D01*
X111243073Y-90701673D01*
X111240396Y-90703513D01*
X111204716Y-90726682D01*
X111201948Y-90728378D01*
X111153864Y-90756138D01*
X111151010Y-90757687D01*
X111113138Y-90776982D01*
X111110210Y-90778379D01*
X110886567Y-90877953D01*
X110883567Y-90879196D01*
X110843854Y-90894441D01*
X110840791Y-90895525D01*
X110787983Y-90912682D01*
X110784872Y-90913603D01*
X110743804Y-90924607D01*
X110740647Y-90925365D01*
X110501192Y-90976262D01*
X110498000Y-90976853D01*
X110456016Y-90983503D01*
X110452801Y-90983926D01*
X110397585Y-90989733D01*
X110394346Y-90989988D01*
X110351862Y-90992215D01*
X110348616Y-90992300D01*
X110266415Y-90992300D01*
X110266415Y-91801653D01*
X108144392Y-91801653D01*
X108233979Y-91646484D01*
X108292474Y-91466456D01*
X108312260Y-91278200D01*
X108292474Y-91089944D01*
X108238999Y-90925365D01*
X108233980Y-90909918D01*
X108233482Y-90908800D01*
X108233387Y-90908093D01*
X108231971Y-90903735D01*
X108232767Y-90903476D01*
X108224190Y-90839551D01*
X108253812Y-90776272D01*
X108296320Y-90745074D01*
X108318735Y-90735094D01*
X108418330Y-90690751D01*
X108571471Y-90579488D01*
X108698133Y-90438816D01*
X108792779Y-90274884D01*
X108851274Y-90094856D01*
X108871060Y-89906600D01*
X108851274Y-89718344D01*
X108792779Y-89538316D01*
X108698133Y-89374384D01*
X108571471Y-89233712D01*
X108571470Y-89233711D01*
X108418334Y-89122451D01*
X108418329Y-89122448D01*
X108353986Y-89093800D01*
X109320740Y-89093800D01*
X109340526Y-89282056D01*
X109340527Y-89282059D01*
X109399018Y-89462077D01*
X109399021Y-89462084D01*
X109493667Y-89626016D01*
X109574970Y-89716312D01*
X109620329Y-89766688D01*
X109773465Y-89877948D01*
X109773470Y-89877951D01*
X109946392Y-89954942D01*
X109946397Y-89954944D01*
X110131554Y-89994300D01*
X110131555Y-89994300D01*
X110320844Y-89994300D01*
X110320846Y-89994300D01*
X110506003Y-89954944D01*
X110678930Y-89877951D01*
X110832071Y-89766688D01*
X110958733Y-89626016D01*
X111053379Y-89462084D01*
X111111874Y-89282056D01*
X111131660Y-89093800D01*
X111111874Y-88905544D01*
X111053379Y-88725516D01*
X110958733Y-88561584D01*
X110832071Y-88420912D01*
X110832070Y-88420911D01*
X110678934Y-88309651D01*
X110678929Y-88309648D01*
X110506007Y-88232657D01*
X110506002Y-88232655D01*
X110360200Y-88201665D01*
X110320846Y-88193300D01*
X110131554Y-88193300D01*
X110099097Y-88200198D01*
X109946397Y-88232655D01*
X109946392Y-88232657D01*
X109773470Y-88309648D01*
X109773465Y-88309651D01*
X109620329Y-88420911D01*
X109493666Y-88561585D01*
X109399021Y-88725515D01*
X109399018Y-88725522D01*
X109340527Y-88905540D01*
X109340526Y-88905544D01*
X109320740Y-89093800D01*
X108353986Y-89093800D01*
X108245407Y-89045457D01*
X108245402Y-89045455D01*
X108099601Y-89014465D01*
X108060246Y-89006100D01*
X107870954Y-89006100D01*
X107838497Y-89012998D01*
X107685797Y-89045455D01*
X107685792Y-89045457D01*
X107512870Y-89122448D01*
X107512865Y-89122451D01*
X107359729Y-89233711D01*
X107233066Y-89374385D01*
X107138421Y-89538315D01*
X107138418Y-89538322D01*
X107080586Y-89716312D01*
X107079926Y-89718344D01*
X107060140Y-89906600D01*
X107079926Y-90094856D01*
X107079927Y-90094859D01*
X107138418Y-90274877D01*
X107138921Y-90276006D01*
X107139016Y-90276717D01*
X107140429Y-90281065D01*
X107139634Y-90281323D01*
X107148208Y-90345256D01*
X107118582Y-90408533D01*
X107076080Y-90439725D01*
X106954067Y-90494050D01*
X106954065Y-90494051D01*
X106800929Y-90605311D01*
X106674266Y-90745985D01*
X106579621Y-90909915D01*
X106579618Y-90909922D01*
X106526470Y-91073497D01*
X106521126Y-91089944D01*
X106501340Y-91278200D01*
X104268415Y-91278200D01*
X104268415Y-90373169D01*
X103660391Y-90373169D01*
X103661041Y-90376226D01*
X103661632Y-90379416D01*
X103668281Y-90421405D01*
X103668705Y-90424623D01*
X103694294Y-90668091D01*
X103694549Y-90671327D01*
X103696775Y-90713794D01*
X103696860Y-90717040D01*
X103696860Y-90772560D01*
X103696775Y-90775806D01*
X103694549Y-90818273D01*
X103694294Y-90821509D01*
X103668705Y-91064977D01*
X103668281Y-91068195D01*
X103661632Y-91110184D01*
X103661041Y-91113374D01*
X103649499Y-91167685D01*
X103648741Y-91170843D01*
X103637731Y-91211933D01*
X103636809Y-91215047D01*
X103561151Y-91447897D01*
X103560067Y-91450959D01*
X103544817Y-91490681D01*
X103543574Y-91493681D01*
X103520989Y-91544402D01*
X103519592Y-91547331D01*
X103500296Y-91585198D01*
X103498748Y-91588050D01*
X103376345Y-91800061D01*
X103374648Y-91802829D01*
X103351480Y-91838504D01*
X103349640Y-91841181D01*
X103324945Y-91875169D01*
X99268415Y-91875169D01*
X99268415Y-90744800D01*
X100887940Y-90744800D01*
X100907726Y-90933056D01*
X100907727Y-90933059D01*
X100966218Y-91113077D01*
X100966221Y-91113084D01*
X101060867Y-91277016D01*
X101159810Y-91386903D01*
X101187529Y-91417688D01*
X101340665Y-91528948D01*
X101340670Y-91528951D01*
X101513592Y-91605942D01*
X101513597Y-91605944D01*
X101698754Y-91645300D01*
X101698755Y-91645300D01*
X101888044Y-91645300D01*
X101888046Y-91645300D01*
X102073203Y-91605944D01*
X102246130Y-91528951D01*
X102399271Y-91417688D01*
X102525933Y-91277016D01*
X102620579Y-91113084D01*
X102679074Y-90933056D01*
X102698860Y-90744800D01*
X102679074Y-90556544D01*
X102620579Y-90376516D01*
X102525933Y-90212584D01*
X102399271Y-90071912D01*
X102399270Y-90071911D01*
X102246134Y-89960651D01*
X102246129Y-89960648D01*
X102073207Y-89883657D01*
X102073202Y-89883655D01*
X101927401Y-89852665D01*
X101888046Y-89844300D01*
X101698754Y-89844300D01*
X101666297Y-89851198D01*
X101513597Y-89883655D01*
X101513592Y-89883657D01*
X101340670Y-89960648D01*
X101340665Y-89960651D01*
X101187529Y-90071911D01*
X101060866Y-90212585D01*
X100966221Y-90376515D01*
X100966218Y-90376522D01*
X100916892Y-90528333D01*
X100907726Y-90556544D01*
X100887940Y-90744800D01*
X99268415Y-90744800D01*
X99268415Y-90373169D01*
X97766415Y-90373169D01*
X96768415Y-90373169D01*
X96008050Y-90373169D01*
X96003416Y-90373903D01*
X96000201Y-90374326D01*
X95944985Y-90380133D01*
X95941746Y-90380388D01*
X95899262Y-90382615D01*
X95896016Y-90382700D01*
X95651184Y-90382700D01*
X95647938Y-90382615D01*
X95605454Y-90380388D01*
X95602215Y-90380133D01*
X95546999Y-90374326D01*
X95543784Y-90373903D01*
X95539150Y-90373169D01*
X95266415Y-90373169D01*
X94268415Y-90373169D01*
X92766415Y-90373169D01*
X91768415Y-90373169D01*
X90266415Y-90373169D01*
X86052166Y-90373169D01*
X86042074Y-90277144D01*
X85983579Y-90097116D01*
X85888933Y-89933184D01*
X85762271Y-89792512D01*
X85762270Y-89792511D01*
X85609134Y-89681251D01*
X85609129Y-89681248D01*
X85436207Y-89604257D01*
X85436202Y-89604255D01*
X85290401Y-89573265D01*
X85251046Y-89564900D01*
X85061754Y-89564900D01*
X85029297Y-89571798D01*
X84876597Y-89604255D01*
X84876592Y-89604257D01*
X84703670Y-89681248D01*
X84703665Y-89681251D01*
X84550529Y-89792511D01*
X84423866Y-89933185D01*
X84329221Y-90097115D01*
X84329218Y-90097122D01*
X84270727Y-90277140D01*
X84270726Y-90277144D01*
X84250940Y-90465400D01*
X82116851Y-90465400D01*
X82124860Y-90389200D01*
X82105074Y-90200944D01*
X82046579Y-90020916D01*
X81951933Y-89856984D01*
X81825271Y-89716312D01*
X81825270Y-89716311D01*
X81672134Y-89605051D01*
X81672129Y-89605048D01*
X81499207Y-89528057D01*
X81499202Y-89528055D01*
X81353401Y-89497065D01*
X81314046Y-89488700D01*
X81124754Y-89488700D01*
X81092297Y-89495598D01*
X80939597Y-89528055D01*
X80939592Y-89528057D01*
X80766670Y-89605048D01*
X80766665Y-89605051D01*
X80613529Y-89716311D01*
X80486866Y-89856985D01*
X80392221Y-90020915D01*
X80392218Y-90020922D01*
X80333727Y-90200940D01*
X80333726Y-90200944D01*
X80313940Y-90389200D01*
X79268415Y-90389200D01*
X79268415Y-90373169D01*
X77766415Y-90373169D01*
X76768415Y-90373169D01*
X75266415Y-90373169D01*
X74268415Y-90373169D01*
X73531079Y-90373169D01*
X73447219Y-90438093D01*
X73412103Y-90457141D01*
X73103830Y-90564533D01*
X73064478Y-90571427D01*
X72766415Y-90574892D01*
X72766415Y-91382700D01*
X71768415Y-91382700D01*
X71768415Y-90586496D01*
X71188889Y-90593235D01*
X71186146Y-91821875D01*
X70062143Y-91821875D01*
X70068133Y-89138214D01*
X70087967Y-89071223D01*
X70140873Y-89025586D01*
X70210054Y-89015797D01*
X70273545Y-89044964D01*
X70279814Y-89050814D01*
X70703799Y-89474799D01*
X70703800Y-89474800D01*
X72888200Y-89449400D01*
X72984082Y-89375169D01*
X75266415Y-89375169D01*
X76768415Y-89375169D01*
X76768415Y-88298972D01*
X76733204Y-88308407D01*
X76730047Y-88309165D01*
X76490592Y-88360062D01*
X76487400Y-88360653D01*
X76445416Y-88367303D01*
X76442201Y-88367726D01*
X76386985Y-88373533D01*
X76383746Y-88373788D01*
X76341262Y-88376015D01*
X76338016Y-88376100D01*
X76093184Y-88376100D01*
X76089938Y-88376015D01*
X76047454Y-88373788D01*
X76044215Y-88373533D01*
X75988999Y-88367726D01*
X75985784Y-88367303D01*
X75943800Y-88360653D01*
X75940608Y-88360062D01*
X75701153Y-88309165D01*
X75697996Y-88308407D01*
X75656928Y-88297403D01*
X75653817Y-88296482D01*
X75601009Y-88279325D01*
X75597946Y-88278241D01*
X75558233Y-88262996D01*
X75555233Y-88261753D01*
X75360522Y-88175060D01*
X75266415Y-88337315D01*
X75266415Y-89375169D01*
X72984082Y-89375169D01*
X73675600Y-88839800D01*
X74236246Y-87873169D01*
X77766415Y-87873169D01*
X77766415Y-89375169D01*
X79268415Y-89375169D01*
X79268415Y-87873169D01*
X80266415Y-87873169D01*
X80266415Y-88741480D01*
X80291736Y-88726862D01*
X80294590Y-88725313D01*
X80332462Y-88706018D01*
X80335390Y-88704621D01*
X80559033Y-88605047D01*
X80562033Y-88603804D01*
X80601746Y-88588559D01*
X80604809Y-88587475D01*
X80657617Y-88570318D01*
X80660728Y-88569397D01*
X80701796Y-88558393D01*
X80704953Y-88557635D01*
X80944408Y-88506738D01*
X80947600Y-88506147D01*
X80989584Y-88499497D01*
X80992799Y-88499074D01*
X81048015Y-88493267D01*
X81051254Y-88493012D01*
X81093738Y-88490785D01*
X81096984Y-88490700D01*
X81341816Y-88490700D01*
X81345062Y-88490785D01*
X81387546Y-88493012D01*
X81390785Y-88493267D01*
X81446001Y-88499074D01*
X81449216Y-88499497D01*
X81491200Y-88506147D01*
X81494392Y-88506738D01*
X81733847Y-88557635D01*
X81737004Y-88558393D01*
X81768415Y-88566809D01*
X81768415Y-87873169D01*
X82766415Y-87873169D01*
X82766415Y-89280122D01*
X82775640Y-89292819D01*
X82777480Y-89295496D01*
X82800648Y-89331171D01*
X82802345Y-89333940D01*
X82826148Y-89375169D01*
X83596065Y-89375169D01*
X83598320Y-89371696D01*
X83600160Y-89369019D01*
X83632797Y-89324101D01*
X83634773Y-89321526D01*
X83661530Y-89288485D01*
X83663637Y-89286018D01*
X83827448Y-89104087D01*
X83829683Y-89101733D01*
X83859755Y-89071661D01*
X83862110Y-89069425D01*
X83903371Y-89032275D01*
X83905838Y-89030168D01*
X83938883Y-89003407D01*
X83941460Y-89001430D01*
X84139527Y-88857527D01*
X84142204Y-88855687D01*
X84177884Y-88832518D01*
X84180652Y-88830822D01*
X84228736Y-88803062D01*
X84231590Y-88801513D01*
X84268415Y-88782751D01*
X84268415Y-87873169D01*
X85266415Y-87873169D01*
X85266415Y-88566900D01*
X85278816Y-88566900D01*
X85282062Y-88566985D01*
X85324546Y-88569212D01*
X85327785Y-88569467D01*
X85383001Y-88575274D01*
X85386216Y-88575697D01*
X85428200Y-88582347D01*
X85431392Y-88582938D01*
X85670847Y-88633835D01*
X85674004Y-88634593D01*
X85715072Y-88645597D01*
X85718183Y-88646518D01*
X85770991Y-88663675D01*
X85774054Y-88664759D01*
X85813767Y-88680004D01*
X85816767Y-88681247D01*
X86040410Y-88780821D01*
X86043338Y-88782218D01*
X86081210Y-88801513D01*
X86084064Y-88803062D01*
X86132148Y-88830822D01*
X86134916Y-88832518D01*
X86170596Y-88855687D01*
X86173273Y-88857527D01*
X86371340Y-89001430D01*
X86373917Y-89003407D01*
X86406962Y-89030168D01*
X86409429Y-89032275D01*
X86450690Y-89069425D01*
X86453045Y-89071661D01*
X86483117Y-89101733D01*
X86485352Y-89104087D01*
X86649163Y-89286018D01*
X86651270Y-89288485D01*
X86678027Y-89321526D01*
X86680003Y-89324101D01*
X86712640Y-89369019D01*
X86714480Y-89371696D01*
X86716735Y-89375169D01*
X86768415Y-89375169D01*
X86768415Y-87873169D01*
X87766415Y-87873169D01*
X87766415Y-89375169D01*
X89268415Y-89375169D01*
X89268415Y-87873169D01*
X90266415Y-87873169D01*
X90266415Y-89375169D01*
X91768415Y-89375169D01*
X91768415Y-88306400D01*
X93293340Y-88306400D01*
X93313126Y-88494656D01*
X93313127Y-88494659D01*
X93371618Y-88674677D01*
X93371621Y-88674684D01*
X93466267Y-88838616D01*
X93590494Y-88976584D01*
X93592929Y-88979288D01*
X93746065Y-89090548D01*
X93746070Y-89090551D01*
X93918992Y-89167542D01*
X93918997Y-89167544D01*
X94104154Y-89206900D01*
X94104155Y-89206900D01*
X94293444Y-89206900D01*
X94293446Y-89206900D01*
X94478603Y-89167544D01*
X94651530Y-89090551D01*
X94804671Y-88979288D01*
X94821445Y-88960657D01*
X94880928Y-88924009D01*
X94950785Y-88925337D01*
X95008834Y-88964222D01*
X95020982Y-88981628D01*
X95041067Y-89016416D01*
X95167729Y-89157088D01*
X95320865Y-89268348D01*
X95320870Y-89268351D01*
X95493792Y-89345342D01*
X95493797Y-89345344D01*
X95678954Y-89384700D01*
X95678955Y-89384700D01*
X95868244Y-89384700D01*
X95868246Y-89384700D01*
X96053403Y-89345344D01*
X96226330Y-89268351D01*
X96379471Y-89157088D01*
X96506133Y-89016416D01*
X96600779Y-88852484D01*
X96659274Y-88672456D01*
X96679060Y-88484200D01*
X96659274Y-88295944D01*
X96600779Y-88115916D01*
X96506133Y-87951984D01*
X96435167Y-87873169D01*
X97766415Y-87873169D01*
X97766415Y-89375169D01*
X99268415Y-89375169D01*
X100266415Y-89375169D01*
X100472647Y-89375169D01*
X100496755Y-89351061D01*
X100499110Y-89348825D01*
X100540371Y-89311675D01*
X100542838Y-89309568D01*
X100575883Y-89282807D01*
X100578460Y-89280830D01*
X100776527Y-89136927D01*
X100779204Y-89135087D01*
X100814884Y-89111918D01*
X100817652Y-89110222D01*
X100865736Y-89082462D01*
X100868590Y-89080913D01*
X100906462Y-89061618D01*
X100909390Y-89060221D01*
X101133033Y-88960647D01*
X101136033Y-88959404D01*
X101175746Y-88944159D01*
X101178809Y-88943075D01*
X101231617Y-88925918D01*
X101234728Y-88924997D01*
X101275796Y-88913993D01*
X101278953Y-88913235D01*
X101518408Y-88862338D01*
X101521600Y-88861747D01*
X101563584Y-88855097D01*
X101566799Y-88854674D01*
X101622015Y-88848867D01*
X101625254Y-88848612D01*
X101667738Y-88846385D01*
X101670984Y-88846300D01*
X101768415Y-88846300D01*
X101768415Y-87873169D01*
X102766415Y-87873169D01*
X102766415Y-89108644D01*
X102769148Y-89110222D01*
X102771916Y-89111918D01*
X102807596Y-89135087D01*
X102810273Y-89136927D01*
X103008340Y-89280830D01*
X103010917Y-89282807D01*
X103043962Y-89309568D01*
X103046429Y-89311675D01*
X103087690Y-89348825D01*
X103090045Y-89351061D01*
X103114153Y-89375169D01*
X104063144Y-89375169D01*
X104056426Y-89360081D01*
X104055183Y-89357081D01*
X104039933Y-89317359D01*
X104038849Y-89314297D01*
X103963191Y-89081447D01*
X103962269Y-89078333D01*
X103951259Y-89037243D01*
X103950501Y-89034085D01*
X103938959Y-88979774D01*
X103938368Y-88976584D01*
X103931719Y-88934595D01*
X103931295Y-88931377D01*
X103905706Y-88687909D01*
X103905451Y-88684673D01*
X103903225Y-88642206D01*
X103903140Y-88638960D01*
X103903140Y-88611200D01*
X104901140Y-88611200D01*
X104920926Y-88799456D01*
X104920927Y-88799459D01*
X104979418Y-88979477D01*
X104979421Y-88979484D01*
X105074067Y-89143416D01*
X105155370Y-89233712D01*
X105200729Y-89284088D01*
X105353865Y-89395348D01*
X105353870Y-89395351D01*
X105526792Y-89472342D01*
X105526797Y-89472344D01*
X105711954Y-89511700D01*
X105711955Y-89511700D01*
X105901244Y-89511700D01*
X105901246Y-89511700D01*
X106086403Y-89472344D01*
X106259330Y-89395351D01*
X106412471Y-89284088D01*
X106539133Y-89143416D01*
X106633779Y-88979484D01*
X106692274Y-88799456D01*
X106712060Y-88611200D01*
X106692274Y-88422944D01*
X106633779Y-88242916D01*
X106539133Y-88078984D01*
X106412471Y-87938312D01*
X106412470Y-87938311D01*
X106322810Y-87873169D01*
X112766415Y-87873169D01*
X112766415Y-89375169D01*
X113929300Y-89375169D01*
X113228637Y-88149009D01*
X113217040Y-88121449D01*
X113150513Y-87887829D01*
X113148199Y-87873169D01*
X112766415Y-87873169D01*
X106322810Y-87873169D01*
X106259334Y-87827051D01*
X106259329Y-87827048D01*
X106086407Y-87750057D01*
X106086402Y-87750055D01*
X105940601Y-87719065D01*
X105901246Y-87710700D01*
X105711954Y-87710700D01*
X105679497Y-87717598D01*
X105526797Y-87750055D01*
X105526792Y-87750057D01*
X105353870Y-87827048D01*
X105353865Y-87827051D01*
X105200729Y-87938311D01*
X105074066Y-88078985D01*
X104979421Y-88242915D01*
X104979418Y-88242922D01*
X104921586Y-88420912D01*
X104920926Y-88422944D01*
X104901140Y-88611200D01*
X103903140Y-88611200D01*
X103903140Y-88583440D01*
X103903225Y-88580194D01*
X103905451Y-88537727D01*
X103905706Y-88534491D01*
X103931295Y-88291023D01*
X103931719Y-88287805D01*
X103938368Y-88245816D01*
X103938959Y-88242626D01*
X103950501Y-88188315D01*
X103951259Y-88185157D01*
X103962269Y-88144067D01*
X103963191Y-88140953D01*
X104038849Y-87908103D01*
X104039933Y-87905041D01*
X104052169Y-87873169D01*
X102766415Y-87873169D01*
X101768415Y-87873169D01*
X101541344Y-87873169D01*
X101526692Y-88031285D01*
X101522487Y-88053778D01*
X101461627Y-88267681D01*
X101453361Y-88289019D01*
X101354232Y-88488097D01*
X101342186Y-88507552D01*
X101208164Y-88685025D01*
X101192748Y-88701935D01*
X101028398Y-88851760D01*
X101010138Y-88865550D01*
X100821056Y-88982625D01*
X100800572Y-88992825D01*
X100593196Y-89073163D01*
X100571187Y-89079425D01*
X100352581Y-89120289D01*
X100329796Y-89122400D01*
X100266415Y-89122400D01*
X100266415Y-89375169D01*
X99268415Y-89375169D01*
X99268415Y-88723780D01*
X99244452Y-88701935D01*
X99229036Y-88685025D01*
X99095014Y-88507552D01*
X99082968Y-88488097D01*
X98983839Y-88289019D01*
X98975573Y-88267681D01*
X98914713Y-88053778D01*
X98910508Y-88031285D01*
X98895856Y-87873169D01*
X97766415Y-87873169D01*
X96435167Y-87873169D01*
X96379471Y-87811312D01*
X96376248Y-87808970D01*
X96226334Y-87700051D01*
X96226329Y-87700048D01*
X96053407Y-87623057D01*
X96053402Y-87623055D01*
X95907601Y-87592065D01*
X95868246Y-87583700D01*
X95678954Y-87583700D01*
X95646497Y-87590598D01*
X95493797Y-87623055D01*
X95493792Y-87623057D01*
X95320870Y-87700048D01*
X95320865Y-87700051D01*
X95167729Y-87811311D01*
X95167728Y-87811312D01*
X95150953Y-87829943D01*
X95091466Y-87866591D01*
X95021609Y-87865260D01*
X94963561Y-87826373D01*
X94951417Y-87808970D01*
X94931334Y-87774185D01*
X94804670Y-87633511D01*
X94651534Y-87522251D01*
X94651529Y-87522248D01*
X94478607Y-87445257D01*
X94478602Y-87445255D01*
X94332800Y-87414265D01*
X94293446Y-87405900D01*
X94104154Y-87405900D01*
X94071697Y-87412798D01*
X93918997Y-87445255D01*
X93918992Y-87445257D01*
X93746070Y-87522248D01*
X93746065Y-87522251D01*
X93592929Y-87633511D01*
X93466266Y-87774185D01*
X93371621Y-87938115D01*
X93371618Y-87938122D01*
X93313850Y-88115915D01*
X93313126Y-88118144D01*
X93297902Y-88262996D01*
X93293414Y-88305700D01*
X93293340Y-88306400D01*
X91768415Y-88306400D01*
X91768415Y-87873169D01*
X90266415Y-87873169D01*
X89268415Y-87873169D01*
X87766415Y-87873169D01*
X86768415Y-87873169D01*
X85266415Y-87873169D01*
X84268415Y-87873169D01*
X82766415Y-87873169D01*
X81768415Y-87873169D01*
X80266415Y-87873169D01*
X79268415Y-87873169D01*
X77766415Y-87873169D01*
X74236246Y-87873169D01*
X74412200Y-87569800D01*
X74408513Y-87378100D01*
X74395136Y-86682475D01*
X74391196Y-86477600D01*
X75310140Y-86477600D01*
X75329926Y-86665856D01*
X75329927Y-86665859D01*
X75388418Y-86845877D01*
X75388421Y-86845884D01*
X75483067Y-87009816D01*
X75609729Y-87150488D01*
X75762865Y-87261748D01*
X75762870Y-87261751D01*
X75935792Y-87338742D01*
X75935797Y-87338744D01*
X76120954Y-87378100D01*
X76120955Y-87378100D01*
X76310244Y-87378100D01*
X76310246Y-87378100D01*
X76495403Y-87338744D01*
X76668330Y-87261751D01*
X76821471Y-87150488D01*
X76948133Y-87009816D01*
X77025871Y-86875169D01*
X78077079Y-86875169D01*
X79268415Y-86875169D01*
X79268415Y-86322758D01*
X80266415Y-86322758D01*
X80266415Y-86875169D01*
X81768415Y-86875169D01*
X81768415Y-86329135D01*
X82766415Y-86329135D01*
X82766415Y-86875169D01*
X84268415Y-86875169D01*
X84268415Y-86335513D01*
X85266415Y-86335513D01*
X85266415Y-86875169D01*
X86768415Y-86875169D01*
X86768415Y-86341890D01*
X87766414Y-86341890D01*
X87766415Y-86875169D01*
X89268415Y-86875169D01*
X89268415Y-86348268D01*
X90266415Y-86348268D01*
X90266415Y-86875169D01*
X91768415Y-86875169D01*
X91768414Y-86361023D01*
X95266415Y-86361023D01*
X95266415Y-86651091D01*
X95498608Y-86601738D01*
X95501800Y-86601147D01*
X95543784Y-86594497D01*
X95546999Y-86594074D01*
X95602215Y-86588267D01*
X95605454Y-86588012D01*
X95647938Y-86585785D01*
X95651184Y-86585700D01*
X95896016Y-86585700D01*
X95899262Y-86585785D01*
X95941746Y-86588012D01*
X95944985Y-86588267D01*
X96000201Y-86594074D01*
X96003416Y-86594497D01*
X96045400Y-86601147D01*
X96048592Y-86601738D01*
X96288047Y-86652635D01*
X96291204Y-86653393D01*
X96332272Y-86664397D01*
X96335383Y-86665318D01*
X96388191Y-86682475D01*
X96391254Y-86683559D01*
X96430967Y-86698804D01*
X96433967Y-86700047D01*
X96657610Y-86799621D01*
X96660538Y-86801018D01*
X96698410Y-86820313D01*
X96701264Y-86821862D01*
X96749348Y-86849622D01*
X96752116Y-86851318D01*
X96768415Y-86861901D01*
X96768415Y-86367400D01*
X97766415Y-86367400D01*
X97766415Y-86875169D01*
X99266056Y-86875169D01*
X99268415Y-86873018D01*
X99268415Y-86373778D01*
X100266415Y-86373778D01*
X100266415Y-86474400D01*
X100329796Y-86474400D01*
X100352581Y-86476511D01*
X100571187Y-86517375D01*
X100593196Y-86523637D01*
X100800572Y-86603975D01*
X100821056Y-86614175D01*
X101010138Y-86731250D01*
X101028398Y-86745040D01*
X101171143Y-86875169D01*
X101768415Y-86875169D01*
X101768415Y-86380155D01*
X102766414Y-86380155D01*
X102766415Y-86875169D01*
X104268415Y-86875169D01*
X104268415Y-86399288D01*
X110266415Y-86399288D01*
X110266415Y-86875169D01*
X111768415Y-86875169D01*
X111768414Y-86403119D01*
X110266415Y-86399288D01*
X104268415Y-86399288D01*
X104268415Y-86383986D01*
X102766414Y-86380155D01*
X101768415Y-86380155D01*
X101768415Y-86377609D01*
X100266415Y-86373778D01*
X99268415Y-86373778D01*
X99268415Y-86371231D01*
X97766415Y-86367400D01*
X96768415Y-86367400D01*
X96768415Y-86364854D01*
X95266415Y-86361023D01*
X91768414Y-86361023D01*
X91768414Y-86352099D01*
X90266415Y-86348268D01*
X89268415Y-86348268D01*
X89268415Y-86345721D01*
X87766414Y-86341890D01*
X86768415Y-86341890D01*
X86768415Y-86339344D01*
X85266415Y-86335513D01*
X84268415Y-86335513D01*
X84268415Y-86332966D01*
X82766415Y-86329135D01*
X81768415Y-86329135D01*
X81768415Y-86326589D01*
X80266415Y-86322758D01*
X79268415Y-86322758D01*
X79268415Y-86320211D01*
X78107703Y-86317251D01*
X78116494Y-86400890D01*
X78116749Y-86404127D01*
X78118975Y-86446594D01*
X78119060Y-86449840D01*
X78119060Y-86505360D01*
X78118975Y-86508606D01*
X78116749Y-86551073D01*
X78116494Y-86554309D01*
X78090905Y-86797777D01*
X78090481Y-86800995D01*
X78083832Y-86842984D01*
X78083241Y-86846174D01*
X78077079Y-86875169D01*
X77025871Y-86875169D01*
X77042779Y-86845884D01*
X77101274Y-86665856D01*
X77121060Y-86477600D01*
X77101274Y-86289344D01*
X77042779Y-86109316D01*
X76948133Y-85945384D01*
X76821471Y-85804712D01*
X76820300Y-85803861D01*
X76668334Y-85693451D01*
X76668329Y-85693448D01*
X76495407Y-85616457D01*
X76495402Y-85616455D01*
X76349600Y-85585465D01*
X76310246Y-85577100D01*
X76120954Y-85577100D01*
X76088497Y-85583998D01*
X75935797Y-85616455D01*
X75935792Y-85616457D01*
X75762870Y-85693448D01*
X75762865Y-85693451D01*
X75609729Y-85804711D01*
X75483066Y-85945385D01*
X75388421Y-86109315D01*
X75388418Y-86109322D01*
X75329927Y-86289340D01*
X75329926Y-86289344D01*
X75310140Y-86477600D01*
X74391196Y-86477600D01*
X74386800Y-86249000D01*
X73883524Y-85368267D01*
X73867354Y-85300294D01*
X73890500Y-85234370D01*
X73945613Y-85191424D01*
X73991498Y-85182746D01*
X113604400Y-85283800D01*
X114340991Y-85207600D01*
X114376849Y-85204612D01*
X114645800Y-85182200D01*
X114838893Y-85129538D01*
X114908748Y-85130890D01*
G37*
%TD.AperFunction*%
%TD*%
M02*
