%TF.GenerationSoftware,KiCad,Pcbnew,7.0.5*%
%TF.CreationDate,2024-03-10T01:27:25+05:30*%
%TF.ProjectId,mcu datalogger,6d637520-6461-4746-916c-6f676765722e,1*%
%TF.SameCoordinates,Original*%
%TF.FileFunction,Legend,Top*%
%TF.FilePolarity,Positive*%
%FSLAX46Y46*%
G04 Gerber Fmt 4.6, Leading zero omitted, Abs format (unit mm)*
G04 Created by KiCad (PCBNEW 7.0.5) date 2024-03-10 01:27:25*
%MOMM*%
%LPD*%
G01*
G04 APERTURE LIST*
%ADD10C,0.150000*%
%ADD11C,0.100000*%
%ADD12C,0.120000*%
%ADD13C,0.127000*%
%ADD14C,0.200000*%
G04 APERTURE END LIST*
D10*
X140106400Y-84201000D02*
X146100800Y-84201000D01*
X146100800Y-87884000D01*
X140106400Y-87884000D01*
X140106400Y-84201000D01*
X117548217Y-92299561D02*
X117548217Y-92832895D01*
X117357741Y-91994800D02*
X117167264Y-92566228D01*
X117167264Y-92566228D02*
X117662503Y-92566228D01*
X138554074Y-92083695D02*
X138820741Y-92883695D01*
X138820741Y-92883695D02*
X139087407Y-92083695D01*
X139696931Y-92845600D02*
X139620740Y-92883695D01*
X139620740Y-92883695D02*
X139468359Y-92883695D01*
X139468359Y-92883695D02*
X139392169Y-92845600D01*
X139392169Y-92845600D02*
X139354074Y-92807504D01*
X139354074Y-92807504D02*
X139315978Y-92731314D01*
X139315978Y-92731314D02*
X139315978Y-92502742D01*
X139315978Y-92502742D02*
X139354074Y-92426552D01*
X139354074Y-92426552D02*
X139392169Y-92388457D01*
X139392169Y-92388457D02*
X139468359Y-92350361D01*
X139468359Y-92350361D02*
X139620740Y-92350361D01*
X139620740Y-92350361D02*
X139696931Y-92388457D01*
X140382645Y-92845600D02*
X140306454Y-92883695D01*
X140306454Y-92883695D02*
X140154073Y-92883695D01*
X140154073Y-92883695D02*
X140077883Y-92845600D01*
X140077883Y-92845600D02*
X140039788Y-92807504D01*
X140039788Y-92807504D02*
X140001692Y-92731314D01*
X140001692Y-92731314D02*
X140001692Y-92502742D01*
X140001692Y-92502742D02*
X140039788Y-92426552D01*
X140039788Y-92426552D02*
X140077883Y-92388457D01*
X140077883Y-92388457D02*
X140154073Y-92350361D01*
X140154073Y-92350361D02*
X140306454Y-92350361D01*
X140306454Y-92350361D02*
X140382645Y-92388457D01*
X108187295Y-76126725D02*
X108987295Y-75860058D01*
X108987295Y-75860058D02*
X108187295Y-75593392D01*
X108949200Y-74983868D02*
X108987295Y-75060059D01*
X108987295Y-75060059D02*
X108987295Y-75212440D01*
X108987295Y-75212440D02*
X108949200Y-75288630D01*
X108949200Y-75288630D02*
X108911104Y-75326725D01*
X108911104Y-75326725D02*
X108834914Y-75364821D01*
X108834914Y-75364821D02*
X108606342Y-75364821D01*
X108606342Y-75364821D02*
X108530152Y-75326725D01*
X108530152Y-75326725D02*
X108492057Y-75288630D01*
X108492057Y-75288630D02*
X108453961Y-75212440D01*
X108453961Y-75212440D02*
X108453961Y-75060059D01*
X108453961Y-75060059D02*
X108492057Y-74983868D01*
X108949200Y-74298154D02*
X108987295Y-74374345D01*
X108987295Y-74374345D02*
X108987295Y-74526726D01*
X108987295Y-74526726D02*
X108949200Y-74602916D01*
X108949200Y-74602916D02*
X108911104Y-74641011D01*
X108911104Y-74641011D02*
X108834914Y-74679107D01*
X108834914Y-74679107D02*
X108606342Y-74679107D01*
X108606342Y-74679107D02*
X108530152Y-74641011D01*
X108530152Y-74641011D02*
X108492057Y-74602916D01*
X108492057Y-74602916D02*
X108453961Y-74526726D01*
X108453961Y-74526726D02*
X108453961Y-74374345D01*
X108453961Y-74374345D02*
X108492057Y-74298154D01*
X141589303Y-92909095D02*
X141322636Y-92528142D01*
X141132160Y-92909095D02*
X141132160Y-92109095D01*
X141132160Y-92109095D02*
X141436922Y-92109095D01*
X141436922Y-92109095D02*
X141513112Y-92147190D01*
X141513112Y-92147190D02*
X141551207Y-92185285D01*
X141551207Y-92185285D02*
X141589303Y-92261476D01*
X141589303Y-92261476D02*
X141589303Y-92375761D01*
X141589303Y-92375761D02*
X141551207Y-92451952D01*
X141551207Y-92451952D02*
X141513112Y-92490047D01*
X141513112Y-92490047D02*
X141436922Y-92528142D01*
X141436922Y-92528142D02*
X141132160Y-92528142D01*
X141855969Y-92109095D02*
X142389303Y-92909095D01*
X142389303Y-92109095D02*
X141855969Y-92909095D01*
X129232274Y-91982095D02*
X129498941Y-92782095D01*
X129498941Y-92782095D02*
X129765607Y-91982095D01*
X130375131Y-92744000D02*
X130298940Y-92782095D01*
X130298940Y-92782095D02*
X130146559Y-92782095D01*
X130146559Y-92782095D02*
X130070369Y-92744000D01*
X130070369Y-92744000D02*
X130032274Y-92705904D01*
X130032274Y-92705904D02*
X129994178Y-92629714D01*
X129994178Y-92629714D02*
X129994178Y-92401142D01*
X129994178Y-92401142D02*
X130032274Y-92324952D01*
X130032274Y-92324952D02*
X130070369Y-92286857D01*
X130070369Y-92286857D02*
X130146559Y-92248761D01*
X130146559Y-92248761D02*
X130298940Y-92248761D01*
X130298940Y-92248761D02*
X130375131Y-92286857D01*
X131060845Y-92744000D02*
X130984654Y-92782095D01*
X130984654Y-92782095D02*
X130832273Y-92782095D01*
X130832273Y-92782095D02*
X130756083Y-92744000D01*
X130756083Y-92744000D02*
X130717988Y-92705904D01*
X130717988Y-92705904D02*
X130679892Y-92629714D01*
X130679892Y-92629714D02*
X130679892Y-92401142D01*
X130679892Y-92401142D02*
X130717988Y-92324952D01*
X130717988Y-92324952D02*
X130756083Y-92286857D01*
X130756083Y-92286857D02*
X130832273Y-92248761D01*
X130832273Y-92248761D02*
X130984654Y-92248761D01*
X130984654Y-92248761D02*
X131060845Y-92286857D01*
X124749169Y-92058295D02*
X125282503Y-92058295D01*
X125282503Y-92058295D02*
X124939645Y-92858295D01*
X122628217Y-92109095D02*
X122475836Y-92109095D01*
X122475836Y-92109095D02*
X122399645Y-92147190D01*
X122399645Y-92147190D02*
X122361550Y-92185285D01*
X122361550Y-92185285D02*
X122285360Y-92299571D01*
X122285360Y-92299571D02*
X122247264Y-92451952D01*
X122247264Y-92451952D02*
X122247264Y-92756714D01*
X122247264Y-92756714D02*
X122285360Y-92832904D01*
X122285360Y-92832904D02*
X122323455Y-92871000D01*
X122323455Y-92871000D02*
X122399645Y-92909095D01*
X122399645Y-92909095D02*
X122552026Y-92909095D01*
X122552026Y-92909095D02*
X122628217Y-92871000D01*
X122628217Y-92871000D02*
X122666312Y-92832904D01*
X122666312Y-92832904D02*
X122704407Y-92756714D01*
X122704407Y-92756714D02*
X122704407Y-92566238D01*
X122704407Y-92566238D02*
X122666312Y-92490047D01*
X122666312Y-92490047D02*
X122628217Y-92451952D01*
X122628217Y-92451952D02*
X122552026Y-92413857D01*
X122552026Y-92413857D02*
X122399645Y-92413857D01*
X122399645Y-92413857D02*
X122323455Y-92451952D01*
X122323455Y-92451952D02*
X122285360Y-92490047D01*
X122285360Y-92490047D02*
X122247264Y-92566238D01*
X143608674Y-92058295D02*
X144065817Y-92058295D01*
X143837245Y-92858295D02*
X143837245Y-92058295D01*
X144256293Y-92058295D02*
X144789627Y-92858295D01*
X144789627Y-92058295D02*
X144256293Y-92858295D01*
X146452390Y-82629192D02*
X146414295Y-82705382D01*
X146414295Y-82705382D02*
X146414295Y-82819668D01*
X146414295Y-82819668D02*
X146452390Y-82933954D01*
X146452390Y-82933954D02*
X146528580Y-83010144D01*
X146528580Y-83010144D02*
X146604771Y-83048239D01*
X146604771Y-83048239D02*
X146757152Y-83086335D01*
X146757152Y-83086335D02*
X146871438Y-83086335D01*
X146871438Y-83086335D02*
X147023819Y-83048239D01*
X147023819Y-83048239D02*
X147100009Y-83010144D01*
X147100009Y-83010144D02*
X147176200Y-82933954D01*
X147176200Y-82933954D02*
X147214295Y-82819668D01*
X147214295Y-82819668D02*
X147214295Y-82743477D01*
X147214295Y-82743477D02*
X147176200Y-82629192D01*
X147176200Y-82629192D02*
X147138104Y-82591096D01*
X147138104Y-82591096D02*
X146871438Y-82591096D01*
X146871438Y-82591096D02*
X146871438Y-82743477D01*
X147214295Y-82248239D02*
X146414295Y-82248239D01*
X146414295Y-82248239D02*
X147214295Y-81791096D01*
X147214295Y-81791096D02*
X146414295Y-81791096D01*
X147214295Y-81410144D02*
X146414295Y-81410144D01*
X146414295Y-81410144D02*
X146414295Y-81219668D01*
X146414295Y-81219668D02*
X146452390Y-81105382D01*
X146452390Y-81105382D02*
X146528580Y-81029192D01*
X146528580Y-81029192D02*
X146604771Y-80991097D01*
X146604771Y-80991097D02*
X146757152Y-80953001D01*
X146757152Y-80953001D02*
X146871438Y-80953001D01*
X146871438Y-80953001D02*
X147023819Y-80991097D01*
X147023819Y-80991097D02*
X147100009Y-81029192D01*
X147100009Y-81029192D02*
X147176200Y-81105382D01*
X147176200Y-81105382D02*
X147214295Y-81219668D01*
X147214295Y-81219668D02*
X147214295Y-81410144D01*
D11*
X148771655Y-92708495D02*
X148771655Y-91908495D01*
X149071655Y-91984685D02*
X149104988Y-91946590D01*
X149104988Y-91946590D02*
X149171655Y-91908495D01*
X149171655Y-91908495D02*
X149338322Y-91908495D01*
X149338322Y-91908495D02*
X149404988Y-91946590D01*
X149404988Y-91946590D02*
X149438322Y-91984685D01*
X149438322Y-91984685D02*
X149471655Y-92060876D01*
X149471655Y-92060876D02*
X149471655Y-92137066D01*
X149471655Y-92137066D02*
X149438322Y-92251352D01*
X149438322Y-92251352D02*
X149038322Y-92708495D01*
X149038322Y-92708495D02*
X149471655Y-92708495D01*
X150171655Y-92632304D02*
X150138322Y-92670400D01*
X150138322Y-92670400D02*
X150038322Y-92708495D01*
X150038322Y-92708495D02*
X149971655Y-92708495D01*
X149971655Y-92708495D02*
X149871655Y-92670400D01*
X149871655Y-92670400D02*
X149804989Y-92594209D01*
X149804989Y-92594209D02*
X149771655Y-92518019D01*
X149771655Y-92518019D02*
X149738322Y-92365638D01*
X149738322Y-92365638D02*
X149738322Y-92251352D01*
X149738322Y-92251352D02*
X149771655Y-92098971D01*
X149771655Y-92098971D02*
X149804989Y-92022780D01*
X149804989Y-92022780D02*
X149871655Y-91946590D01*
X149871655Y-91946590D02*
X149971655Y-91908495D01*
X149971655Y-91908495D02*
X150038322Y-91908495D01*
X150038322Y-91908495D02*
X150138322Y-91946590D01*
X150138322Y-91946590D02*
X150171655Y-91984685D01*
D10*
X147201600Y-91138135D02*
X147239695Y-91023849D01*
X147239695Y-91023849D02*
X147239695Y-90833373D01*
X147239695Y-90833373D02*
X147201600Y-90757182D01*
X147201600Y-90757182D02*
X147163504Y-90719087D01*
X147163504Y-90719087D02*
X147087314Y-90680992D01*
X147087314Y-90680992D02*
X147011123Y-90680992D01*
X147011123Y-90680992D02*
X146934933Y-90719087D01*
X146934933Y-90719087D02*
X146896838Y-90757182D01*
X146896838Y-90757182D02*
X146858742Y-90833373D01*
X146858742Y-90833373D02*
X146820647Y-90985754D01*
X146820647Y-90985754D02*
X146782552Y-91061944D01*
X146782552Y-91061944D02*
X146744457Y-91100039D01*
X146744457Y-91100039D02*
X146668266Y-91138135D01*
X146668266Y-91138135D02*
X146592076Y-91138135D01*
X146592076Y-91138135D02*
X146515885Y-91100039D01*
X146515885Y-91100039D02*
X146477790Y-91061944D01*
X146477790Y-91061944D02*
X146439695Y-90985754D01*
X146439695Y-90985754D02*
X146439695Y-90795277D01*
X146439695Y-90795277D02*
X146477790Y-90680992D01*
X147163504Y-89880991D02*
X147201600Y-89919087D01*
X147201600Y-89919087D02*
X147239695Y-90033372D01*
X147239695Y-90033372D02*
X147239695Y-90109563D01*
X147239695Y-90109563D02*
X147201600Y-90223849D01*
X147201600Y-90223849D02*
X147125409Y-90300039D01*
X147125409Y-90300039D02*
X147049219Y-90338134D01*
X147049219Y-90338134D02*
X146896838Y-90376230D01*
X146896838Y-90376230D02*
X146782552Y-90376230D01*
X146782552Y-90376230D02*
X146630171Y-90338134D01*
X146630171Y-90338134D02*
X146553980Y-90300039D01*
X146553980Y-90300039D02*
X146477790Y-90223849D01*
X146477790Y-90223849D02*
X146439695Y-90109563D01*
X146439695Y-90109563D02*
X146439695Y-90033372D01*
X146439695Y-90033372D02*
X146477790Y-89919087D01*
X146477790Y-89919087D02*
X146515885Y-89880991D01*
X147239695Y-89157182D02*
X147239695Y-89538134D01*
X147239695Y-89538134D02*
X146439695Y-89538134D01*
X136141007Y-92121790D02*
X136064817Y-92083695D01*
X136064817Y-92083695D02*
X135950531Y-92083695D01*
X135950531Y-92083695D02*
X135836245Y-92121790D01*
X135836245Y-92121790D02*
X135760055Y-92197980D01*
X135760055Y-92197980D02*
X135721960Y-92274171D01*
X135721960Y-92274171D02*
X135683864Y-92426552D01*
X135683864Y-92426552D02*
X135683864Y-92540838D01*
X135683864Y-92540838D02*
X135721960Y-92693219D01*
X135721960Y-92693219D02*
X135760055Y-92769409D01*
X135760055Y-92769409D02*
X135836245Y-92845600D01*
X135836245Y-92845600D02*
X135950531Y-92883695D01*
X135950531Y-92883695D02*
X136026722Y-92883695D01*
X136026722Y-92883695D02*
X136141007Y-92845600D01*
X136141007Y-92845600D02*
X136179103Y-92807504D01*
X136179103Y-92807504D02*
X136179103Y-92540838D01*
X136179103Y-92540838D02*
X136026722Y-92540838D01*
X136521960Y-92883695D02*
X136521960Y-92083695D01*
X136521960Y-92083695D02*
X136979103Y-92883695D01*
X136979103Y-92883695D02*
X136979103Y-92083695D01*
X137360055Y-92883695D02*
X137360055Y-92083695D01*
X137360055Y-92083695D02*
X137550531Y-92083695D01*
X137550531Y-92083695D02*
X137664817Y-92121790D01*
X137664817Y-92121790D02*
X137741007Y-92197980D01*
X137741007Y-92197980D02*
X137779102Y-92274171D01*
X137779102Y-92274171D02*
X137817198Y-92426552D01*
X137817198Y-92426552D02*
X137817198Y-92540838D01*
X137817198Y-92540838D02*
X137779102Y-92693219D01*
X137779102Y-92693219D02*
X137741007Y-92769409D01*
X137741007Y-92769409D02*
X137664817Y-92845600D01*
X137664817Y-92845600D02*
X137550531Y-92883695D01*
X137550531Y-92883695D02*
X137360055Y-92883695D01*
X114563769Y-92032895D02*
X115059007Y-92032895D01*
X115059007Y-92032895D02*
X114792341Y-92337657D01*
X114792341Y-92337657D02*
X114906626Y-92337657D01*
X114906626Y-92337657D02*
X114982817Y-92375752D01*
X114982817Y-92375752D02*
X115020912Y-92413847D01*
X115020912Y-92413847D02*
X115059007Y-92490038D01*
X115059007Y-92490038D02*
X115059007Y-92680514D01*
X115059007Y-92680514D02*
X115020912Y-92756704D01*
X115020912Y-92756704D02*
X114982817Y-92794800D01*
X114982817Y-92794800D02*
X114906626Y-92832895D01*
X114906626Y-92832895D02*
X114678055Y-92832895D01*
X114678055Y-92832895D02*
X114601864Y-92794800D01*
X114601864Y-92794800D02*
X114563769Y-92756704D01*
D11*
X132078590Y-95387477D02*
X132040495Y-95454144D01*
X132040495Y-95454144D02*
X132040495Y-95554144D01*
X132040495Y-95554144D02*
X132078590Y-95654144D01*
X132078590Y-95654144D02*
X132154780Y-95720811D01*
X132154780Y-95720811D02*
X132230971Y-95754144D01*
X132230971Y-95754144D02*
X132383352Y-95787477D01*
X132383352Y-95787477D02*
X132497638Y-95787477D01*
X132497638Y-95787477D02*
X132650019Y-95754144D01*
X132650019Y-95754144D02*
X132726209Y-95720811D01*
X132726209Y-95720811D02*
X132802400Y-95654144D01*
X132802400Y-95654144D02*
X132840495Y-95554144D01*
X132840495Y-95554144D02*
X132840495Y-95487477D01*
X132840495Y-95487477D02*
X132802400Y-95387477D01*
X132802400Y-95387477D02*
X132764304Y-95354144D01*
X132764304Y-95354144D02*
X132497638Y-95354144D01*
X132497638Y-95354144D02*
X132497638Y-95487477D01*
X132840495Y-95054144D02*
X132040495Y-95054144D01*
X132040495Y-95054144D02*
X132040495Y-94787477D01*
X132040495Y-94787477D02*
X132078590Y-94720811D01*
X132078590Y-94720811D02*
X132116685Y-94687477D01*
X132116685Y-94687477D02*
X132192876Y-94654144D01*
X132192876Y-94654144D02*
X132307161Y-94654144D01*
X132307161Y-94654144D02*
X132383352Y-94687477D01*
X132383352Y-94687477D02*
X132421447Y-94720811D01*
X132421447Y-94720811D02*
X132459542Y-94787477D01*
X132459542Y-94787477D02*
X132459542Y-95054144D01*
X132840495Y-94354144D02*
X132040495Y-94354144D01*
X132040495Y-93887478D02*
X132040495Y-93754144D01*
X132040495Y-93754144D02*
X132078590Y-93687478D01*
X132078590Y-93687478D02*
X132154780Y-93620811D01*
X132154780Y-93620811D02*
X132307161Y-93587478D01*
X132307161Y-93587478D02*
X132573828Y-93587478D01*
X132573828Y-93587478D02*
X132726209Y-93620811D01*
X132726209Y-93620811D02*
X132802400Y-93687478D01*
X132802400Y-93687478D02*
X132840495Y-93754144D01*
X132840495Y-93754144D02*
X132840495Y-93887478D01*
X132840495Y-93887478D02*
X132802400Y-93954144D01*
X132802400Y-93954144D02*
X132726209Y-94020811D01*
X132726209Y-94020811D02*
X132573828Y-94054144D01*
X132573828Y-94054144D02*
X132307161Y-94054144D01*
X132307161Y-94054144D02*
X132154780Y-94020811D01*
X132154780Y-94020811D02*
X132078590Y-93954144D01*
X132078590Y-93954144D02*
X132040495Y-93887478D01*
D12*
X142286946Y-85020569D02*
X142286946Y-84520569D01*
X142810755Y-84972950D02*
X142786946Y-84996760D01*
X142786946Y-84996760D02*
X142715517Y-85020569D01*
X142715517Y-85020569D02*
X142667898Y-85020569D01*
X142667898Y-85020569D02*
X142596470Y-84996760D01*
X142596470Y-84996760D02*
X142548851Y-84949140D01*
X142548851Y-84949140D02*
X142525041Y-84901521D01*
X142525041Y-84901521D02*
X142501232Y-84806283D01*
X142501232Y-84806283D02*
X142501232Y-84734855D01*
X142501232Y-84734855D02*
X142525041Y-84639617D01*
X142525041Y-84639617D02*
X142548851Y-84591998D01*
X142548851Y-84591998D02*
X142596470Y-84544379D01*
X142596470Y-84544379D02*
X142667898Y-84520569D01*
X142667898Y-84520569D02*
X142715517Y-84520569D01*
X142715517Y-84520569D02*
X142786946Y-84544379D01*
X142786946Y-84544379D02*
X142810755Y-84568188D01*
X143001232Y-84996760D02*
X143072660Y-85020569D01*
X143072660Y-85020569D02*
X143191708Y-85020569D01*
X143191708Y-85020569D02*
X143239327Y-84996760D01*
X143239327Y-84996760D02*
X143263136Y-84972950D01*
X143263136Y-84972950D02*
X143286946Y-84925331D01*
X143286946Y-84925331D02*
X143286946Y-84877712D01*
X143286946Y-84877712D02*
X143263136Y-84830093D01*
X143263136Y-84830093D02*
X143239327Y-84806283D01*
X143239327Y-84806283D02*
X143191708Y-84782474D01*
X143191708Y-84782474D02*
X143096470Y-84758664D01*
X143096470Y-84758664D02*
X143048851Y-84734855D01*
X143048851Y-84734855D02*
X143025041Y-84711045D01*
X143025041Y-84711045D02*
X143001232Y-84663426D01*
X143001232Y-84663426D02*
X143001232Y-84615807D01*
X143001232Y-84615807D02*
X143025041Y-84568188D01*
X143025041Y-84568188D02*
X143048851Y-84544379D01*
X143048851Y-84544379D02*
X143096470Y-84520569D01*
X143096470Y-84520569D02*
X143215517Y-84520569D01*
X143215517Y-84520569D02*
X143286946Y-84544379D01*
X143501231Y-85020569D02*
X143501231Y-84520569D01*
X143501231Y-84520569D02*
X143691707Y-84520569D01*
X143691707Y-84520569D02*
X143739326Y-84544379D01*
X143739326Y-84544379D02*
X143763136Y-84568188D01*
X143763136Y-84568188D02*
X143786945Y-84615807D01*
X143786945Y-84615807D02*
X143786945Y-84687236D01*
X143786945Y-84687236D02*
X143763136Y-84734855D01*
X143763136Y-84734855D02*
X143739326Y-84758664D01*
X143739326Y-84758664D02*
X143691707Y-84782474D01*
X143691707Y-84782474D02*
X143501231Y-84782474D01*
X140405994Y-85825569D02*
X140405994Y-85325569D01*
X140405994Y-85325569D02*
X140572661Y-85682712D01*
X140572661Y-85682712D02*
X140739327Y-85325569D01*
X140739327Y-85325569D02*
X140739327Y-85825569D01*
X140977423Y-85825569D02*
X140977423Y-85325569D01*
X141191709Y-85801760D02*
X141263137Y-85825569D01*
X141263137Y-85825569D02*
X141382185Y-85825569D01*
X141382185Y-85825569D02*
X141429804Y-85801760D01*
X141429804Y-85801760D02*
X141453613Y-85777950D01*
X141453613Y-85777950D02*
X141477423Y-85730331D01*
X141477423Y-85730331D02*
X141477423Y-85682712D01*
X141477423Y-85682712D02*
X141453613Y-85635093D01*
X141453613Y-85635093D02*
X141429804Y-85611283D01*
X141429804Y-85611283D02*
X141382185Y-85587474D01*
X141382185Y-85587474D02*
X141286947Y-85563664D01*
X141286947Y-85563664D02*
X141239328Y-85539855D01*
X141239328Y-85539855D02*
X141215518Y-85516045D01*
X141215518Y-85516045D02*
X141191709Y-85468426D01*
X141191709Y-85468426D02*
X141191709Y-85420807D01*
X141191709Y-85420807D02*
X141215518Y-85373188D01*
X141215518Y-85373188D02*
X141239328Y-85349379D01*
X141239328Y-85349379D02*
X141286947Y-85325569D01*
X141286947Y-85325569D02*
X141405994Y-85325569D01*
X141405994Y-85325569D02*
X141477423Y-85349379D01*
X141786946Y-85325569D02*
X141882184Y-85325569D01*
X141882184Y-85325569D02*
X141929803Y-85349379D01*
X141929803Y-85349379D02*
X141977422Y-85396998D01*
X141977422Y-85396998D02*
X142001232Y-85492236D01*
X142001232Y-85492236D02*
X142001232Y-85658902D01*
X142001232Y-85658902D02*
X141977422Y-85754140D01*
X141977422Y-85754140D02*
X141929803Y-85801760D01*
X141929803Y-85801760D02*
X141882184Y-85825569D01*
X141882184Y-85825569D02*
X141786946Y-85825569D01*
X141786946Y-85825569D02*
X141739327Y-85801760D01*
X141739327Y-85801760D02*
X141691708Y-85754140D01*
X141691708Y-85754140D02*
X141667899Y-85658902D01*
X141667899Y-85658902D02*
X141667899Y-85492236D01*
X141667899Y-85492236D02*
X141691708Y-85396998D01*
X141691708Y-85396998D02*
X141739327Y-85349379D01*
X141739327Y-85349379D02*
X141786946Y-85325569D01*
X144215518Y-85325569D02*
X144382184Y-85825569D01*
X144382184Y-85825569D02*
X144548851Y-85325569D01*
X144929803Y-85801760D02*
X144882184Y-85825569D01*
X144882184Y-85825569D02*
X144786946Y-85825569D01*
X144786946Y-85825569D02*
X144739327Y-85801760D01*
X144739327Y-85801760D02*
X144715517Y-85777950D01*
X144715517Y-85777950D02*
X144691708Y-85730331D01*
X144691708Y-85730331D02*
X144691708Y-85587474D01*
X144691708Y-85587474D02*
X144715517Y-85539855D01*
X144715517Y-85539855D02*
X144739327Y-85516045D01*
X144739327Y-85516045D02*
X144786946Y-85492236D01*
X144786946Y-85492236D02*
X144882184Y-85492236D01*
X144882184Y-85492236D02*
X144929803Y-85516045D01*
X145358374Y-85801760D02*
X145310755Y-85825569D01*
X145310755Y-85825569D02*
X145215517Y-85825569D01*
X145215517Y-85825569D02*
X145167898Y-85801760D01*
X145167898Y-85801760D02*
X145144088Y-85777950D01*
X145144088Y-85777950D02*
X145120279Y-85730331D01*
X145120279Y-85730331D02*
X145120279Y-85587474D01*
X145120279Y-85587474D02*
X145144088Y-85539855D01*
X145144088Y-85539855D02*
X145167898Y-85516045D01*
X145167898Y-85516045D02*
X145215517Y-85492236D01*
X145215517Y-85492236D02*
X145310755Y-85492236D01*
X145310755Y-85492236D02*
X145358374Y-85516045D01*
X140382185Y-86606760D02*
X140453613Y-86630569D01*
X140453613Y-86630569D02*
X140572661Y-86630569D01*
X140572661Y-86630569D02*
X140620280Y-86606760D01*
X140620280Y-86606760D02*
X140644089Y-86582950D01*
X140644089Y-86582950D02*
X140667899Y-86535331D01*
X140667899Y-86535331D02*
X140667899Y-86487712D01*
X140667899Y-86487712D02*
X140644089Y-86440093D01*
X140644089Y-86440093D02*
X140620280Y-86416283D01*
X140620280Y-86416283D02*
X140572661Y-86392474D01*
X140572661Y-86392474D02*
X140477423Y-86368664D01*
X140477423Y-86368664D02*
X140429804Y-86344855D01*
X140429804Y-86344855D02*
X140405994Y-86321045D01*
X140405994Y-86321045D02*
X140382185Y-86273426D01*
X140382185Y-86273426D02*
X140382185Y-86225807D01*
X140382185Y-86225807D02*
X140405994Y-86178188D01*
X140405994Y-86178188D02*
X140429804Y-86154379D01*
X140429804Y-86154379D02*
X140477423Y-86130569D01*
X140477423Y-86130569D02*
X140596470Y-86130569D01*
X140596470Y-86130569D02*
X140667899Y-86154379D01*
X141167898Y-86582950D02*
X141144089Y-86606760D01*
X141144089Y-86606760D02*
X141072660Y-86630569D01*
X141072660Y-86630569D02*
X141025041Y-86630569D01*
X141025041Y-86630569D02*
X140953613Y-86606760D01*
X140953613Y-86606760D02*
X140905994Y-86559140D01*
X140905994Y-86559140D02*
X140882184Y-86511521D01*
X140882184Y-86511521D02*
X140858375Y-86416283D01*
X140858375Y-86416283D02*
X140858375Y-86344855D01*
X140858375Y-86344855D02*
X140882184Y-86249617D01*
X140882184Y-86249617D02*
X140905994Y-86201998D01*
X140905994Y-86201998D02*
X140953613Y-86154379D01*
X140953613Y-86154379D02*
X141025041Y-86130569D01*
X141025041Y-86130569D02*
X141072660Y-86130569D01*
X141072660Y-86130569D02*
X141144089Y-86154379D01*
X141144089Y-86154379D02*
X141167898Y-86178188D01*
X141620279Y-86630569D02*
X141382184Y-86630569D01*
X141382184Y-86630569D02*
X141382184Y-86130569D01*
X144286946Y-86630569D02*
X144286946Y-86130569D01*
X144286946Y-86130569D02*
X144453613Y-86487712D01*
X144453613Y-86487712D02*
X144620279Y-86130569D01*
X144620279Y-86130569D02*
X144620279Y-86630569D01*
X144953613Y-86130569D02*
X145048851Y-86130569D01*
X145048851Y-86130569D02*
X145096470Y-86154379D01*
X145096470Y-86154379D02*
X145144089Y-86201998D01*
X145144089Y-86201998D02*
X145167899Y-86297236D01*
X145167899Y-86297236D02*
X145167899Y-86463902D01*
X145167899Y-86463902D02*
X145144089Y-86559140D01*
X145144089Y-86559140D02*
X145096470Y-86606760D01*
X145096470Y-86606760D02*
X145048851Y-86630569D01*
X145048851Y-86630569D02*
X144953613Y-86630569D01*
X144953613Y-86630569D02*
X144905994Y-86606760D01*
X144905994Y-86606760D02*
X144858375Y-86559140D01*
X144858375Y-86559140D02*
X144834566Y-86463902D01*
X144834566Y-86463902D02*
X144834566Y-86297236D01*
X144834566Y-86297236D02*
X144858375Y-86201998D01*
X144858375Y-86201998D02*
X144905994Y-86154379D01*
X144905994Y-86154379D02*
X144953613Y-86130569D01*
X145358376Y-86606760D02*
X145429804Y-86630569D01*
X145429804Y-86630569D02*
X145548852Y-86630569D01*
X145548852Y-86630569D02*
X145596471Y-86606760D01*
X145596471Y-86606760D02*
X145620280Y-86582950D01*
X145620280Y-86582950D02*
X145644090Y-86535331D01*
X145644090Y-86535331D02*
X145644090Y-86487712D01*
X145644090Y-86487712D02*
X145620280Y-86440093D01*
X145620280Y-86440093D02*
X145596471Y-86416283D01*
X145596471Y-86416283D02*
X145548852Y-86392474D01*
X145548852Y-86392474D02*
X145453614Y-86368664D01*
X145453614Y-86368664D02*
X145405995Y-86344855D01*
X145405995Y-86344855D02*
X145382185Y-86321045D01*
X145382185Y-86321045D02*
X145358376Y-86273426D01*
X145358376Y-86273426D02*
X145358376Y-86225807D01*
X145358376Y-86225807D02*
X145382185Y-86178188D01*
X145382185Y-86178188D02*
X145405995Y-86154379D01*
X145405995Y-86154379D02*
X145453614Y-86130569D01*
X145453614Y-86130569D02*
X145572661Y-86130569D01*
X145572661Y-86130569D02*
X145644090Y-86154379D01*
X145858375Y-86630569D02*
X145858375Y-86130569D01*
X140691708Y-87435569D02*
X140525042Y-87197474D01*
X140405994Y-87435569D02*
X140405994Y-86935569D01*
X140405994Y-86935569D02*
X140596470Y-86935569D01*
X140596470Y-86935569D02*
X140644089Y-86959379D01*
X140644089Y-86959379D02*
X140667899Y-86983188D01*
X140667899Y-86983188D02*
X140691708Y-87030807D01*
X140691708Y-87030807D02*
X140691708Y-87102236D01*
X140691708Y-87102236D02*
X140667899Y-87149855D01*
X140667899Y-87149855D02*
X140644089Y-87173664D01*
X140644089Y-87173664D02*
X140596470Y-87197474D01*
X140596470Y-87197474D02*
X140405994Y-87197474D01*
X140882185Y-87411760D02*
X140953613Y-87435569D01*
X140953613Y-87435569D02*
X141072661Y-87435569D01*
X141072661Y-87435569D02*
X141120280Y-87411760D01*
X141120280Y-87411760D02*
X141144089Y-87387950D01*
X141144089Y-87387950D02*
X141167899Y-87340331D01*
X141167899Y-87340331D02*
X141167899Y-87292712D01*
X141167899Y-87292712D02*
X141144089Y-87245093D01*
X141144089Y-87245093D02*
X141120280Y-87221283D01*
X141120280Y-87221283D02*
X141072661Y-87197474D01*
X141072661Y-87197474D02*
X140977423Y-87173664D01*
X140977423Y-87173664D02*
X140929804Y-87149855D01*
X140929804Y-87149855D02*
X140905994Y-87126045D01*
X140905994Y-87126045D02*
X140882185Y-87078426D01*
X140882185Y-87078426D02*
X140882185Y-87030807D01*
X140882185Y-87030807D02*
X140905994Y-86983188D01*
X140905994Y-86983188D02*
X140929804Y-86959379D01*
X140929804Y-86959379D02*
X140977423Y-86935569D01*
X140977423Y-86935569D02*
X141096470Y-86935569D01*
X141096470Y-86935569D02*
X141167899Y-86959379D01*
X141310756Y-86935569D02*
X141596470Y-86935569D01*
X141453613Y-87435569D02*
X141453613Y-86935569D01*
X144548851Y-86959379D02*
X144501232Y-86935569D01*
X144501232Y-86935569D02*
X144429803Y-86935569D01*
X144429803Y-86935569D02*
X144358375Y-86959379D01*
X144358375Y-86959379D02*
X144310756Y-87006998D01*
X144310756Y-87006998D02*
X144286946Y-87054617D01*
X144286946Y-87054617D02*
X144263137Y-87149855D01*
X144263137Y-87149855D02*
X144263137Y-87221283D01*
X144263137Y-87221283D02*
X144286946Y-87316521D01*
X144286946Y-87316521D02*
X144310756Y-87364140D01*
X144310756Y-87364140D02*
X144358375Y-87411760D01*
X144358375Y-87411760D02*
X144429803Y-87435569D01*
X144429803Y-87435569D02*
X144477422Y-87435569D01*
X144477422Y-87435569D02*
X144548851Y-87411760D01*
X144548851Y-87411760D02*
X144572660Y-87387950D01*
X144572660Y-87387950D02*
X144572660Y-87221283D01*
X144572660Y-87221283D02*
X144477422Y-87221283D01*
X144786946Y-87435569D02*
X144786946Y-86935569D01*
X144786946Y-86935569D02*
X145072660Y-87435569D01*
X145072660Y-87435569D02*
X145072660Y-86935569D01*
X145310756Y-87435569D02*
X145310756Y-86935569D01*
X145310756Y-86935569D02*
X145429804Y-86935569D01*
X145429804Y-86935569D02*
X145501232Y-86959379D01*
X145501232Y-86959379D02*
X145548851Y-87006998D01*
X145548851Y-87006998D02*
X145572661Y-87054617D01*
X145572661Y-87054617D02*
X145596470Y-87149855D01*
X145596470Y-87149855D02*
X145596470Y-87221283D01*
X145596470Y-87221283D02*
X145572661Y-87316521D01*
X145572661Y-87316521D02*
X145548851Y-87364140D01*
X145548851Y-87364140D02*
X145501232Y-87411760D01*
X145501232Y-87411760D02*
X145429804Y-87435569D01*
X145429804Y-87435569D02*
X145310756Y-87435569D01*
D10*
X126946207Y-92045590D02*
X126870017Y-92007495D01*
X126870017Y-92007495D02*
X126755731Y-92007495D01*
X126755731Y-92007495D02*
X126641445Y-92045590D01*
X126641445Y-92045590D02*
X126565255Y-92121780D01*
X126565255Y-92121780D02*
X126527160Y-92197971D01*
X126527160Y-92197971D02*
X126489064Y-92350352D01*
X126489064Y-92350352D02*
X126489064Y-92464638D01*
X126489064Y-92464638D02*
X126527160Y-92617019D01*
X126527160Y-92617019D02*
X126565255Y-92693209D01*
X126565255Y-92693209D02*
X126641445Y-92769400D01*
X126641445Y-92769400D02*
X126755731Y-92807495D01*
X126755731Y-92807495D02*
X126831922Y-92807495D01*
X126831922Y-92807495D02*
X126946207Y-92769400D01*
X126946207Y-92769400D02*
X126984303Y-92731304D01*
X126984303Y-92731304D02*
X126984303Y-92464638D01*
X126984303Y-92464638D02*
X126831922Y-92464638D01*
X127327160Y-92807495D02*
X127327160Y-92007495D01*
X127327160Y-92007495D02*
X127784303Y-92807495D01*
X127784303Y-92807495D02*
X127784303Y-92007495D01*
X128165255Y-92807495D02*
X128165255Y-92007495D01*
X128165255Y-92007495D02*
X128355731Y-92007495D01*
X128355731Y-92007495D02*
X128470017Y-92045590D01*
X128470017Y-92045590D02*
X128546207Y-92121780D01*
X128546207Y-92121780D02*
X128584302Y-92197971D01*
X128584302Y-92197971D02*
X128622398Y-92350352D01*
X128622398Y-92350352D02*
X128622398Y-92464638D01*
X128622398Y-92464638D02*
X128584302Y-92617019D01*
X128584302Y-92617019D02*
X128546207Y-92693209D01*
X128546207Y-92693209D02*
X128470017Y-92769400D01*
X128470017Y-92769400D02*
X128355731Y-92807495D01*
X128355731Y-92807495D02*
X128165255Y-92807495D01*
D11*
X147400055Y-71677295D02*
X147400055Y-70877295D01*
X148133388Y-71601104D02*
X148100055Y-71639200D01*
X148100055Y-71639200D02*
X148000055Y-71677295D01*
X148000055Y-71677295D02*
X147933388Y-71677295D01*
X147933388Y-71677295D02*
X147833388Y-71639200D01*
X147833388Y-71639200D02*
X147766722Y-71563009D01*
X147766722Y-71563009D02*
X147733388Y-71486819D01*
X147733388Y-71486819D02*
X147700055Y-71334438D01*
X147700055Y-71334438D02*
X147700055Y-71220152D01*
X147700055Y-71220152D02*
X147733388Y-71067771D01*
X147733388Y-71067771D02*
X147766722Y-70991580D01*
X147766722Y-70991580D02*
X147833388Y-70915390D01*
X147833388Y-70915390D02*
X147933388Y-70877295D01*
X147933388Y-70877295D02*
X148000055Y-70877295D01*
X148000055Y-70877295D02*
X148100055Y-70915390D01*
X148100055Y-70915390D02*
X148133388Y-70953485D01*
X148400055Y-71639200D02*
X148500055Y-71677295D01*
X148500055Y-71677295D02*
X148666722Y-71677295D01*
X148666722Y-71677295D02*
X148733388Y-71639200D01*
X148733388Y-71639200D02*
X148766722Y-71601104D01*
X148766722Y-71601104D02*
X148800055Y-71524914D01*
X148800055Y-71524914D02*
X148800055Y-71448723D01*
X148800055Y-71448723D02*
X148766722Y-71372533D01*
X148766722Y-71372533D02*
X148733388Y-71334438D01*
X148733388Y-71334438D02*
X148666722Y-71296342D01*
X148666722Y-71296342D02*
X148533388Y-71258247D01*
X148533388Y-71258247D02*
X148466722Y-71220152D01*
X148466722Y-71220152D02*
X148433388Y-71182057D01*
X148433388Y-71182057D02*
X148400055Y-71105866D01*
X148400055Y-71105866D02*
X148400055Y-71029676D01*
X148400055Y-71029676D02*
X148433388Y-70953485D01*
X148433388Y-70953485D02*
X148466722Y-70915390D01*
X148466722Y-70915390D02*
X148533388Y-70877295D01*
X148533388Y-70877295D02*
X148700055Y-70877295D01*
X148700055Y-70877295D02*
X148800055Y-70915390D01*
X149100055Y-71677295D02*
X149100055Y-70877295D01*
X149100055Y-70877295D02*
X149366722Y-70877295D01*
X149366722Y-70877295D02*
X149433389Y-70915390D01*
X149433389Y-70915390D02*
X149466722Y-70953485D01*
X149466722Y-70953485D02*
X149500055Y-71029676D01*
X149500055Y-71029676D02*
X149500055Y-71143961D01*
X149500055Y-71143961D02*
X149466722Y-71220152D01*
X149466722Y-71220152D02*
X149433389Y-71258247D01*
X149433389Y-71258247D02*
X149366722Y-71296342D01*
X149366722Y-71296342D02*
X149100055Y-71296342D01*
D10*
X147201600Y-88547335D02*
X147239695Y-88433049D01*
X147239695Y-88433049D02*
X147239695Y-88242573D01*
X147239695Y-88242573D02*
X147201600Y-88166382D01*
X147201600Y-88166382D02*
X147163504Y-88128287D01*
X147163504Y-88128287D02*
X147087314Y-88090192D01*
X147087314Y-88090192D02*
X147011123Y-88090192D01*
X147011123Y-88090192D02*
X146934933Y-88128287D01*
X146934933Y-88128287D02*
X146896838Y-88166382D01*
X146896838Y-88166382D02*
X146858742Y-88242573D01*
X146858742Y-88242573D02*
X146820647Y-88394954D01*
X146820647Y-88394954D02*
X146782552Y-88471144D01*
X146782552Y-88471144D02*
X146744457Y-88509239D01*
X146744457Y-88509239D02*
X146668266Y-88547335D01*
X146668266Y-88547335D02*
X146592076Y-88547335D01*
X146592076Y-88547335D02*
X146515885Y-88509239D01*
X146515885Y-88509239D02*
X146477790Y-88471144D01*
X146477790Y-88471144D02*
X146439695Y-88394954D01*
X146439695Y-88394954D02*
X146439695Y-88204477D01*
X146439695Y-88204477D02*
X146477790Y-88090192D01*
X147239695Y-87747334D02*
X146439695Y-87747334D01*
X146439695Y-87747334D02*
X146439695Y-87556858D01*
X146439695Y-87556858D02*
X146477790Y-87442572D01*
X146477790Y-87442572D02*
X146553980Y-87366382D01*
X146553980Y-87366382D02*
X146630171Y-87328287D01*
X146630171Y-87328287D02*
X146782552Y-87290191D01*
X146782552Y-87290191D02*
X146896838Y-87290191D01*
X146896838Y-87290191D02*
X147049219Y-87328287D01*
X147049219Y-87328287D02*
X147125409Y-87366382D01*
X147125409Y-87366382D02*
X147201600Y-87442572D01*
X147201600Y-87442572D02*
X147239695Y-87556858D01*
X147239695Y-87556858D02*
X147239695Y-87747334D01*
X147011123Y-86985430D02*
X147011123Y-86604477D01*
X147239695Y-87061620D02*
X146439695Y-86794953D01*
X146439695Y-86794953D02*
X147239695Y-86528287D01*
D11*
X146975600Y-97717877D02*
X147013695Y-97617877D01*
X147013695Y-97617877D02*
X147013695Y-97451211D01*
X147013695Y-97451211D02*
X146975600Y-97384544D01*
X146975600Y-97384544D02*
X146937504Y-97351211D01*
X146937504Y-97351211D02*
X146861314Y-97317877D01*
X146861314Y-97317877D02*
X146785123Y-97317877D01*
X146785123Y-97317877D02*
X146708933Y-97351211D01*
X146708933Y-97351211D02*
X146670838Y-97384544D01*
X146670838Y-97384544D02*
X146632742Y-97451211D01*
X146632742Y-97451211D02*
X146594647Y-97584544D01*
X146594647Y-97584544D02*
X146556552Y-97651211D01*
X146556552Y-97651211D02*
X146518457Y-97684544D01*
X146518457Y-97684544D02*
X146442266Y-97717877D01*
X146442266Y-97717877D02*
X146366076Y-97717877D01*
X146366076Y-97717877D02*
X146289885Y-97684544D01*
X146289885Y-97684544D02*
X146251790Y-97651211D01*
X146251790Y-97651211D02*
X146213695Y-97584544D01*
X146213695Y-97584544D02*
X146213695Y-97417877D01*
X146213695Y-97417877D02*
X146251790Y-97317877D01*
X146594647Y-97017877D02*
X146594647Y-96784544D01*
X147013695Y-96684544D02*
X147013695Y-97017877D01*
X147013695Y-97017877D02*
X146213695Y-97017877D01*
X146213695Y-97017877D02*
X146213695Y-96684544D01*
X147013695Y-95984544D02*
X146632742Y-96217877D01*
X147013695Y-96384544D02*
X146213695Y-96384544D01*
X146213695Y-96384544D02*
X146213695Y-96117877D01*
X146213695Y-96117877D02*
X146251790Y-96051211D01*
X146251790Y-96051211D02*
X146289885Y-96017877D01*
X146289885Y-96017877D02*
X146366076Y-95984544D01*
X146366076Y-95984544D02*
X146480361Y-95984544D01*
X146480361Y-95984544D02*
X146556552Y-96017877D01*
X146556552Y-96017877D02*
X146594647Y-96051211D01*
X146594647Y-96051211D02*
X146632742Y-96117877D01*
X146632742Y-96117877D02*
X146632742Y-96384544D01*
X147013695Y-95684544D02*
X146213695Y-95684544D01*
X146785123Y-95384544D02*
X146785123Y-95051211D01*
X147013695Y-95451211D02*
X146213695Y-95217878D01*
X146213695Y-95217878D02*
X147013695Y-94984544D01*
X147013695Y-94417878D02*
X147013695Y-94751211D01*
X147013695Y-94751211D02*
X146213695Y-94751211D01*
X146213695Y-93651211D02*
X146861314Y-93651211D01*
X146861314Y-93651211D02*
X146937504Y-93617878D01*
X146937504Y-93617878D02*
X146975600Y-93584544D01*
X146975600Y-93584544D02*
X147013695Y-93517878D01*
X147013695Y-93517878D02*
X147013695Y-93384544D01*
X147013695Y-93384544D02*
X146975600Y-93317878D01*
X146975600Y-93317878D02*
X146937504Y-93284544D01*
X146937504Y-93284544D02*
X146861314Y-93251211D01*
X146861314Y-93251211D02*
X146213695Y-93251211D01*
X146785123Y-92951211D02*
X146785123Y-92617878D01*
X147013695Y-93017878D02*
X146213695Y-92784545D01*
X146213695Y-92784545D02*
X147013695Y-92551211D01*
X147013695Y-91917878D02*
X146632742Y-92151211D01*
X147013695Y-92317878D02*
X146213695Y-92317878D01*
X146213695Y-92317878D02*
X146213695Y-92051211D01*
X146213695Y-92051211D02*
X146251790Y-91984545D01*
X146251790Y-91984545D02*
X146289885Y-91951211D01*
X146289885Y-91951211D02*
X146366076Y-91917878D01*
X146366076Y-91917878D02*
X146480361Y-91917878D01*
X146480361Y-91917878D02*
X146556552Y-91951211D01*
X146556552Y-91951211D02*
X146594647Y-91984545D01*
X146594647Y-91984545D02*
X146632742Y-92051211D01*
X146632742Y-92051211D02*
X146632742Y-92317878D01*
X146213695Y-91717878D02*
X146213695Y-91317878D01*
X147013695Y-91517878D02*
X146213695Y-91517878D01*
D10*
X108199990Y-78666792D02*
X108161895Y-78742982D01*
X108161895Y-78742982D02*
X108161895Y-78857268D01*
X108161895Y-78857268D02*
X108199990Y-78971554D01*
X108199990Y-78971554D02*
X108276180Y-79047744D01*
X108276180Y-79047744D02*
X108352371Y-79085839D01*
X108352371Y-79085839D02*
X108504752Y-79123935D01*
X108504752Y-79123935D02*
X108619038Y-79123935D01*
X108619038Y-79123935D02*
X108771419Y-79085839D01*
X108771419Y-79085839D02*
X108847609Y-79047744D01*
X108847609Y-79047744D02*
X108923800Y-78971554D01*
X108923800Y-78971554D02*
X108961895Y-78857268D01*
X108961895Y-78857268D02*
X108961895Y-78781077D01*
X108961895Y-78781077D02*
X108923800Y-78666792D01*
X108923800Y-78666792D02*
X108885704Y-78628696D01*
X108885704Y-78628696D02*
X108619038Y-78628696D01*
X108619038Y-78628696D02*
X108619038Y-78781077D01*
X108961895Y-78285839D02*
X108161895Y-78285839D01*
X108161895Y-78285839D02*
X108961895Y-77828696D01*
X108961895Y-77828696D02*
X108161895Y-77828696D01*
X108961895Y-77447744D02*
X108161895Y-77447744D01*
X108161895Y-77447744D02*
X108161895Y-77257268D01*
X108161895Y-77257268D02*
X108199990Y-77142982D01*
X108199990Y-77142982D02*
X108276180Y-77066792D01*
X108276180Y-77066792D02*
X108352371Y-77028697D01*
X108352371Y-77028697D02*
X108504752Y-76990601D01*
X108504752Y-76990601D02*
X108619038Y-76990601D01*
X108619038Y-76990601D02*
X108771419Y-77028697D01*
X108771419Y-77028697D02*
X108847609Y-77066792D01*
X108847609Y-77066792D02*
X108923800Y-77142982D01*
X108923800Y-77142982D02*
X108961895Y-77257268D01*
X108961895Y-77257268D02*
X108961895Y-77447744D01*
X146439695Y-85829525D02*
X147239695Y-85562858D01*
X147239695Y-85562858D02*
X146439695Y-85296192D01*
X147201600Y-84686668D02*
X147239695Y-84762859D01*
X147239695Y-84762859D02*
X147239695Y-84915240D01*
X147239695Y-84915240D02*
X147201600Y-84991430D01*
X147201600Y-84991430D02*
X147163504Y-85029525D01*
X147163504Y-85029525D02*
X147087314Y-85067621D01*
X147087314Y-85067621D02*
X146858742Y-85067621D01*
X146858742Y-85067621D02*
X146782552Y-85029525D01*
X146782552Y-85029525D02*
X146744457Y-84991430D01*
X146744457Y-84991430D02*
X146706361Y-84915240D01*
X146706361Y-84915240D02*
X146706361Y-84762859D01*
X146706361Y-84762859D02*
X146744457Y-84686668D01*
X147201600Y-84000954D02*
X147239695Y-84077145D01*
X147239695Y-84077145D02*
X147239695Y-84229526D01*
X147239695Y-84229526D02*
X147201600Y-84305716D01*
X147201600Y-84305716D02*
X147163504Y-84343811D01*
X147163504Y-84343811D02*
X147087314Y-84381907D01*
X147087314Y-84381907D02*
X146858742Y-84381907D01*
X146858742Y-84381907D02*
X146782552Y-84343811D01*
X146782552Y-84343811D02*
X146744457Y-84305716D01*
X146744457Y-84305716D02*
X146706361Y-84229526D01*
X146706361Y-84229526D02*
X146706361Y-84077145D01*
X146706361Y-84077145D02*
X146744457Y-84000954D01*
X111985664Y-92109085D02*
X112023760Y-92070990D01*
X112023760Y-92070990D02*
X112099950Y-92032895D01*
X112099950Y-92032895D02*
X112290426Y-92032895D01*
X112290426Y-92032895D02*
X112366617Y-92070990D01*
X112366617Y-92070990D02*
X112404712Y-92109085D01*
X112404712Y-92109085D02*
X112442807Y-92185276D01*
X112442807Y-92185276D02*
X112442807Y-92261466D01*
X112442807Y-92261466D02*
X112404712Y-92375752D01*
X112404712Y-92375752D02*
X111947569Y-92832895D01*
X111947569Y-92832895D02*
X112442807Y-92832895D01*
X110080607Y-92782095D02*
X109623464Y-92782095D01*
X109852036Y-92782095D02*
X109852036Y-91982095D01*
X109852036Y-91982095D02*
X109775845Y-92096380D01*
X109775845Y-92096380D02*
X109699655Y-92172571D01*
X109699655Y-92172571D02*
X109623464Y-92210666D01*
X120126312Y-92058295D02*
X119745360Y-92058295D01*
X119745360Y-92058295D02*
X119707264Y-92439247D01*
X119707264Y-92439247D02*
X119745360Y-92401152D01*
X119745360Y-92401152D02*
X119821550Y-92363057D01*
X119821550Y-92363057D02*
X120012026Y-92363057D01*
X120012026Y-92363057D02*
X120088217Y-92401152D01*
X120088217Y-92401152D02*
X120126312Y-92439247D01*
X120126312Y-92439247D02*
X120164407Y-92515438D01*
X120164407Y-92515438D02*
X120164407Y-92705914D01*
X120164407Y-92705914D02*
X120126312Y-92782104D01*
X120126312Y-92782104D02*
X120088217Y-92820200D01*
X120088217Y-92820200D02*
X120012026Y-92858295D01*
X120012026Y-92858295D02*
X119821550Y-92858295D01*
X119821550Y-92858295D02*
X119745360Y-92820200D01*
X119745360Y-92820200D02*
X119707264Y-92782104D01*
D11*
%TO.C,R3*%
X108595333Y-90534895D02*
X108362000Y-90153942D01*
X108195333Y-90534895D02*
X108195333Y-89734895D01*
X108195333Y-89734895D02*
X108462000Y-89734895D01*
X108462000Y-89734895D02*
X108528667Y-89772990D01*
X108528667Y-89772990D02*
X108562000Y-89811085D01*
X108562000Y-89811085D02*
X108595333Y-89887276D01*
X108595333Y-89887276D02*
X108595333Y-90001561D01*
X108595333Y-90001561D02*
X108562000Y-90077752D01*
X108562000Y-90077752D02*
X108528667Y-90115847D01*
X108528667Y-90115847D02*
X108462000Y-90153942D01*
X108462000Y-90153942D02*
X108195333Y-90153942D01*
X108828667Y-89734895D02*
X109262000Y-89734895D01*
X109262000Y-89734895D02*
X109028667Y-90039657D01*
X109028667Y-90039657D02*
X109128667Y-90039657D01*
X109128667Y-90039657D02*
X109195333Y-90077752D01*
X109195333Y-90077752D02*
X109228667Y-90115847D01*
X109228667Y-90115847D02*
X109262000Y-90192038D01*
X109262000Y-90192038D02*
X109262000Y-90382514D01*
X109262000Y-90382514D02*
X109228667Y-90458704D01*
X109228667Y-90458704D02*
X109195333Y-90496800D01*
X109195333Y-90496800D02*
X109128667Y-90534895D01*
X109128667Y-90534895D02*
X108928667Y-90534895D01*
X108928667Y-90534895D02*
X108862000Y-90496800D01*
X108862000Y-90496800D02*
X108828667Y-90458704D01*
X108279466Y-91779495D02*
X107879466Y-91779495D01*
X108079466Y-91779495D02*
X108079466Y-90979495D01*
X108079466Y-90979495D02*
X108012799Y-91093780D01*
X108012799Y-91093780D02*
X107946133Y-91169971D01*
X107946133Y-91169971D02*
X107879466Y-91208066D01*
X108712800Y-90979495D02*
X108779466Y-90979495D01*
X108779466Y-90979495D02*
X108846133Y-91017590D01*
X108846133Y-91017590D02*
X108879466Y-91055685D01*
X108879466Y-91055685D02*
X108912800Y-91131876D01*
X108912800Y-91131876D02*
X108946133Y-91284257D01*
X108946133Y-91284257D02*
X108946133Y-91474733D01*
X108946133Y-91474733D02*
X108912800Y-91627114D01*
X108912800Y-91627114D02*
X108879466Y-91703304D01*
X108879466Y-91703304D02*
X108846133Y-91741400D01*
X108846133Y-91741400D02*
X108779466Y-91779495D01*
X108779466Y-91779495D02*
X108712800Y-91779495D01*
X108712800Y-91779495D02*
X108646133Y-91741400D01*
X108646133Y-91741400D02*
X108612800Y-91703304D01*
X108612800Y-91703304D02*
X108579466Y-91627114D01*
X108579466Y-91627114D02*
X108546133Y-91474733D01*
X108546133Y-91474733D02*
X108546133Y-91284257D01*
X108546133Y-91284257D02*
X108579466Y-91131876D01*
X108579466Y-91131876D02*
X108612800Y-91055685D01*
X108612800Y-91055685D02*
X108646133Y-91017590D01*
X108646133Y-91017590D02*
X108712800Y-90979495D01*
X109246133Y-91779495D02*
X109246133Y-90979495D01*
X109646133Y-91779495D02*
X109346133Y-91322352D01*
X109646133Y-90979495D02*
X109246133Y-91436638D01*
%TO.C,U3*%
X113164866Y-66442295D02*
X113164866Y-67089914D01*
X113164866Y-67089914D02*
X113198200Y-67166104D01*
X113198200Y-67166104D02*
X113231533Y-67204200D01*
X113231533Y-67204200D02*
X113298200Y-67242295D01*
X113298200Y-67242295D02*
X113431533Y-67242295D01*
X113431533Y-67242295D02*
X113498200Y-67204200D01*
X113498200Y-67204200D02*
X113531533Y-67166104D01*
X113531533Y-67166104D02*
X113564866Y-67089914D01*
X113564866Y-67089914D02*
X113564866Y-66442295D01*
X113831533Y-66442295D02*
X114264866Y-66442295D01*
X114264866Y-66442295D02*
X114031533Y-66747057D01*
X114031533Y-66747057D02*
X114131533Y-66747057D01*
X114131533Y-66747057D02*
X114198199Y-66785152D01*
X114198199Y-66785152D02*
X114231533Y-66823247D01*
X114231533Y-66823247D02*
X114264866Y-66899438D01*
X114264866Y-66899438D02*
X114264866Y-67089914D01*
X114264866Y-67089914D02*
X114231533Y-67166104D01*
X114231533Y-67166104D02*
X114198199Y-67204200D01*
X114198199Y-67204200D02*
X114131533Y-67242295D01*
X114131533Y-67242295D02*
X113931533Y-67242295D01*
X113931533Y-67242295D02*
X113864866Y-67204200D01*
X113864866Y-67204200D02*
X113831533Y-67166104D01*
X111198199Y-73318485D02*
X111231532Y-73280390D01*
X111231532Y-73280390D02*
X111298199Y-73242295D01*
X111298199Y-73242295D02*
X111464866Y-73242295D01*
X111464866Y-73242295D02*
X111531532Y-73280390D01*
X111531532Y-73280390D02*
X111564866Y-73318485D01*
X111564866Y-73318485D02*
X111598199Y-73394676D01*
X111598199Y-73394676D02*
X111598199Y-73470866D01*
X111598199Y-73470866D02*
X111564866Y-73585152D01*
X111564866Y-73585152D02*
X111164866Y-74042295D01*
X111164866Y-74042295D02*
X111598199Y-74042295D01*
X112198199Y-73508961D02*
X112198199Y-74042295D01*
X112031533Y-73204200D02*
X111864866Y-73775628D01*
X111864866Y-73775628D02*
X112298199Y-73775628D01*
X112898200Y-74042295D02*
X112564866Y-74042295D01*
X112564866Y-74042295D02*
X112564866Y-73242295D01*
X113531533Y-73966104D02*
X113498200Y-74004200D01*
X113498200Y-74004200D02*
X113398200Y-74042295D01*
X113398200Y-74042295D02*
X113331533Y-74042295D01*
X113331533Y-74042295D02*
X113231533Y-74004200D01*
X113231533Y-74004200D02*
X113164867Y-73928009D01*
X113164867Y-73928009D02*
X113131533Y-73851819D01*
X113131533Y-73851819D02*
X113098200Y-73699438D01*
X113098200Y-73699438D02*
X113098200Y-73585152D01*
X113098200Y-73585152D02*
X113131533Y-73432771D01*
X113131533Y-73432771D02*
X113164867Y-73356580D01*
X113164867Y-73356580D02*
X113231533Y-73280390D01*
X113231533Y-73280390D02*
X113331533Y-73242295D01*
X113331533Y-73242295D02*
X113398200Y-73242295D01*
X113398200Y-73242295D02*
X113498200Y-73280390D01*
X113498200Y-73280390D02*
X113531533Y-73318485D01*
X114198200Y-74042295D02*
X113798200Y-74042295D01*
X113998200Y-74042295D02*
X113998200Y-73242295D01*
X113998200Y-73242295D02*
X113931533Y-73356580D01*
X113931533Y-73356580D02*
X113864867Y-73432771D01*
X113864867Y-73432771D02*
X113798200Y-73470866D01*
X114631534Y-73242295D02*
X114698200Y-73242295D01*
X114698200Y-73242295D02*
X114764867Y-73280390D01*
X114764867Y-73280390D02*
X114798200Y-73318485D01*
X114798200Y-73318485D02*
X114831534Y-73394676D01*
X114831534Y-73394676D02*
X114864867Y-73547057D01*
X114864867Y-73547057D02*
X114864867Y-73737533D01*
X114864867Y-73737533D02*
X114831534Y-73889914D01*
X114831534Y-73889914D02*
X114798200Y-73966104D01*
X114798200Y-73966104D02*
X114764867Y-74004200D01*
X114764867Y-74004200D02*
X114698200Y-74042295D01*
X114698200Y-74042295D02*
X114631534Y-74042295D01*
X114631534Y-74042295D02*
X114564867Y-74004200D01*
X114564867Y-74004200D02*
X114531534Y-73966104D01*
X114531534Y-73966104D02*
X114498200Y-73889914D01*
X114498200Y-73889914D02*
X114464867Y-73737533D01*
X114464867Y-73737533D02*
X114464867Y-73547057D01*
X114464867Y-73547057D02*
X114498200Y-73394676D01*
X114498200Y-73394676D02*
X114531534Y-73318485D01*
X114531534Y-73318485D02*
X114564867Y-73280390D01*
X114564867Y-73280390D02*
X114631534Y-73242295D01*
X115131534Y-73318485D02*
X115164867Y-73280390D01*
X115164867Y-73280390D02*
X115231534Y-73242295D01*
X115231534Y-73242295D02*
X115398201Y-73242295D01*
X115398201Y-73242295D02*
X115464867Y-73280390D01*
X115464867Y-73280390D02*
X115498201Y-73318485D01*
X115498201Y-73318485D02*
X115531534Y-73394676D01*
X115531534Y-73394676D02*
X115531534Y-73470866D01*
X115531534Y-73470866D02*
X115498201Y-73585152D01*
X115498201Y-73585152D02*
X115098201Y-74042295D01*
X115098201Y-74042295D02*
X115531534Y-74042295D01*
X116164868Y-73242295D02*
X115831534Y-73242295D01*
X115831534Y-73242295D02*
X115798201Y-73623247D01*
X115798201Y-73623247D02*
X115831534Y-73585152D01*
X115831534Y-73585152D02*
X115898201Y-73547057D01*
X115898201Y-73547057D02*
X116064868Y-73547057D01*
X116064868Y-73547057D02*
X116131534Y-73585152D01*
X116131534Y-73585152D02*
X116164868Y-73623247D01*
X116164868Y-73623247D02*
X116198201Y-73699438D01*
X116198201Y-73699438D02*
X116198201Y-73889914D01*
X116198201Y-73889914D02*
X116164868Y-73966104D01*
X116164868Y-73966104D02*
X116131534Y-74004200D01*
X116131534Y-74004200D02*
X116064868Y-74042295D01*
X116064868Y-74042295D02*
X115898201Y-74042295D01*
X115898201Y-74042295D02*
X115831534Y-74004200D01*
X115831534Y-74004200D02*
X115798201Y-73966104D01*
%TO.C,Y2*%
X126193867Y-85546142D02*
X126193867Y-85927095D01*
X125960533Y-85127095D02*
X126193867Y-85546142D01*
X126193867Y-85546142D02*
X126427200Y-85127095D01*
X126627200Y-85203285D02*
X126660533Y-85165190D01*
X126660533Y-85165190D02*
X126727200Y-85127095D01*
X126727200Y-85127095D02*
X126893867Y-85127095D01*
X126893867Y-85127095D02*
X126960533Y-85165190D01*
X126960533Y-85165190D02*
X126993867Y-85203285D01*
X126993867Y-85203285D02*
X127027200Y-85279476D01*
X127027200Y-85279476D02*
X127027200Y-85355666D01*
X127027200Y-85355666D02*
X126993867Y-85469952D01*
X126993867Y-85469952D02*
X126593867Y-85927095D01*
X126593867Y-85927095D02*
X127027200Y-85927095D01*
X125343866Y-91527095D02*
X124943866Y-91527095D01*
X125143866Y-91527095D02*
X125143866Y-90727095D01*
X125143866Y-90727095D02*
X125077199Y-90841380D01*
X125077199Y-90841380D02*
X125010533Y-90917571D01*
X125010533Y-90917571D02*
X124943866Y-90955666D01*
X125943866Y-90727095D02*
X125810533Y-90727095D01*
X125810533Y-90727095D02*
X125743866Y-90765190D01*
X125743866Y-90765190D02*
X125710533Y-90803285D01*
X125710533Y-90803285D02*
X125643866Y-90917571D01*
X125643866Y-90917571D02*
X125610533Y-91069952D01*
X125610533Y-91069952D02*
X125610533Y-91374714D01*
X125610533Y-91374714D02*
X125643866Y-91450904D01*
X125643866Y-91450904D02*
X125677200Y-91489000D01*
X125677200Y-91489000D02*
X125743866Y-91527095D01*
X125743866Y-91527095D02*
X125877200Y-91527095D01*
X125877200Y-91527095D02*
X125943866Y-91489000D01*
X125943866Y-91489000D02*
X125977200Y-91450904D01*
X125977200Y-91450904D02*
X126010533Y-91374714D01*
X126010533Y-91374714D02*
X126010533Y-91184238D01*
X126010533Y-91184238D02*
X125977200Y-91108047D01*
X125977200Y-91108047D02*
X125943866Y-91069952D01*
X125943866Y-91069952D02*
X125877200Y-91031857D01*
X125877200Y-91031857D02*
X125743866Y-91031857D01*
X125743866Y-91031857D02*
X125677200Y-91069952D01*
X125677200Y-91069952D02*
X125643866Y-91108047D01*
X125643866Y-91108047D02*
X125610533Y-91184238D01*
X126310533Y-91527095D02*
X126310533Y-90727095D01*
X126310533Y-90727095D02*
X126543867Y-91298523D01*
X126543867Y-91298523D02*
X126777200Y-90727095D01*
X126777200Y-90727095D02*
X126777200Y-91527095D01*
X127110533Y-91527095D02*
X127110533Y-90727095D01*
X127110533Y-91108047D02*
X127510533Y-91108047D01*
X127510533Y-91527095D02*
X127510533Y-90727095D01*
X127777200Y-90993761D02*
X128143866Y-90993761D01*
X128143866Y-90993761D02*
X127777200Y-91527095D01*
X127777200Y-91527095D02*
X128143866Y-91527095D01*
%TO.C,H4*%
X149631466Y-99374095D02*
X149631466Y-98574095D01*
X149631466Y-98955047D02*
X150031466Y-98955047D01*
X150031466Y-99374095D02*
X150031466Y-98574095D01*
X150664799Y-98840761D02*
X150664799Y-99374095D01*
X150498133Y-98536000D02*
X150331466Y-99107428D01*
X150331466Y-99107428D02*
X150764799Y-99107428D01*
%TO.C,R4*%
X118374333Y-90712695D02*
X118141000Y-90331742D01*
X117974333Y-90712695D02*
X117974333Y-89912695D01*
X117974333Y-89912695D02*
X118241000Y-89912695D01*
X118241000Y-89912695D02*
X118307667Y-89950790D01*
X118307667Y-89950790D02*
X118341000Y-89988885D01*
X118341000Y-89988885D02*
X118374333Y-90065076D01*
X118374333Y-90065076D02*
X118374333Y-90179361D01*
X118374333Y-90179361D02*
X118341000Y-90255552D01*
X118341000Y-90255552D02*
X118307667Y-90293647D01*
X118307667Y-90293647D02*
X118241000Y-90331742D01*
X118241000Y-90331742D02*
X117974333Y-90331742D01*
X118974333Y-90179361D02*
X118974333Y-90712695D01*
X118807667Y-89874600D02*
X118641000Y-90446028D01*
X118641000Y-90446028D02*
X119074333Y-90446028D01*
X117982266Y-91830295D02*
X117582266Y-91830295D01*
X117782266Y-91830295D02*
X117782266Y-91030295D01*
X117782266Y-91030295D02*
X117715599Y-91144580D01*
X117715599Y-91144580D02*
X117648933Y-91220771D01*
X117648933Y-91220771D02*
X117582266Y-91258866D01*
X118415600Y-91030295D02*
X118482266Y-91030295D01*
X118482266Y-91030295D02*
X118548933Y-91068390D01*
X118548933Y-91068390D02*
X118582266Y-91106485D01*
X118582266Y-91106485D02*
X118615600Y-91182676D01*
X118615600Y-91182676D02*
X118648933Y-91335057D01*
X118648933Y-91335057D02*
X118648933Y-91525533D01*
X118648933Y-91525533D02*
X118615600Y-91677914D01*
X118615600Y-91677914D02*
X118582266Y-91754104D01*
X118582266Y-91754104D02*
X118548933Y-91792200D01*
X118548933Y-91792200D02*
X118482266Y-91830295D01*
X118482266Y-91830295D02*
X118415600Y-91830295D01*
X118415600Y-91830295D02*
X118348933Y-91792200D01*
X118348933Y-91792200D02*
X118315600Y-91754104D01*
X118315600Y-91754104D02*
X118282266Y-91677914D01*
X118282266Y-91677914D02*
X118248933Y-91525533D01*
X118248933Y-91525533D02*
X118248933Y-91335057D01*
X118248933Y-91335057D02*
X118282266Y-91182676D01*
X118282266Y-91182676D02*
X118315600Y-91106485D01*
X118315600Y-91106485D02*
X118348933Y-91068390D01*
X118348933Y-91068390D02*
X118415600Y-91030295D01*
X118948933Y-91830295D02*
X118948933Y-91030295D01*
X119348933Y-91830295D02*
X119048933Y-91373152D01*
X119348933Y-91030295D02*
X118948933Y-91487438D01*
%TO.C,U4*%
X123309666Y-70113495D02*
X123309666Y-70761114D01*
X123309666Y-70761114D02*
X123343000Y-70837304D01*
X123343000Y-70837304D02*
X123376333Y-70875400D01*
X123376333Y-70875400D02*
X123443000Y-70913495D01*
X123443000Y-70913495D02*
X123576333Y-70913495D01*
X123576333Y-70913495D02*
X123643000Y-70875400D01*
X123643000Y-70875400D02*
X123676333Y-70837304D01*
X123676333Y-70837304D02*
X123709666Y-70761114D01*
X123709666Y-70761114D02*
X123709666Y-70113495D01*
X124342999Y-70380161D02*
X124342999Y-70913495D01*
X124176333Y-70075400D02*
X124009666Y-70646828D01*
X124009666Y-70646828D02*
X124442999Y-70646828D01*
X122038800Y-83168923D02*
X122372133Y-83168923D01*
X121972133Y-83397495D02*
X122205467Y-82597495D01*
X122205467Y-82597495D02*
X122438800Y-83397495D01*
X122572133Y-82597495D02*
X122972133Y-82597495D01*
X122772133Y-83397495D02*
X122772133Y-82597495D01*
X123205466Y-83397495D02*
X123205466Y-82597495D01*
X123205466Y-82597495D02*
X123438800Y-83168923D01*
X123438800Y-83168923D02*
X123672133Y-82597495D01*
X123672133Y-82597495D02*
X123672133Y-83397495D01*
X124005466Y-82978447D02*
X124238800Y-82978447D01*
X124338800Y-83397495D02*
X124005466Y-83397495D01*
X124005466Y-83397495D02*
X124005466Y-82597495D01*
X124005466Y-82597495D02*
X124338800Y-82597495D01*
X125005466Y-82635590D02*
X124938799Y-82597495D01*
X124938799Y-82597495D02*
X124838799Y-82597495D01*
X124838799Y-82597495D02*
X124738799Y-82635590D01*
X124738799Y-82635590D02*
X124672133Y-82711780D01*
X124672133Y-82711780D02*
X124638799Y-82787971D01*
X124638799Y-82787971D02*
X124605466Y-82940352D01*
X124605466Y-82940352D02*
X124605466Y-83054638D01*
X124605466Y-83054638D02*
X124638799Y-83207019D01*
X124638799Y-83207019D02*
X124672133Y-83283209D01*
X124672133Y-83283209D02*
X124738799Y-83359400D01*
X124738799Y-83359400D02*
X124838799Y-83397495D01*
X124838799Y-83397495D02*
X124905466Y-83397495D01*
X124905466Y-83397495D02*
X125005466Y-83359400D01*
X125005466Y-83359400D02*
X125038799Y-83321304D01*
X125038799Y-83321304D02*
X125038799Y-83054638D01*
X125038799Y-83054638D02*
X124905466Y-83054638D01*
X125305466Y-83168923D02*
X125638799Y-83168923D01*
X125238799Y-83397495D02*
X125472133Y-82597495D01*
X125472133Y-82597495D02*
X125705466Y-83397495D01*
X125872133Y-82597495D02*
X126305466Y-82597495D01*
X126305466Y-82597495D02*
X126072133Y-82902257D01*
X126072133Y-82902257D02*
X126172133Y-82902257D01*
X126172133Y-82902257D02*
X126238799Y-82940352D01*
X126238799Y-82940352D02*
X126272133Y-82978447D01*
X126272133Y-82978447D02*
X126305466Y-83054638D01*
X126305466Y-83054638D02*
X126305466Y-83245114D01*
X126305466Y-83245114D02*
X126272133Y-83321304D01*
X126272133Y-83321304D02*
X126238799Y-83359400D01*
X126238799Y-83359400D02*
X126172133Y-83397495D01*
X126172133Y-83397495D02*
X125972133Y-83397495D01*
X125972133Y-83397495D02*
X125905466Y-83359400D01*
X125905466Y-83359400D02*
X125872133Y-83321304D01*
X126572133Y-82673685D02*
X126605466Y-82635590D01*
X126605466Y-82635590D02*
X126672133Y-82597495D01*
X126672133Y-82597495D02*
X126838800Y-82597495D01*
X126838800Y-82597495D02*
X126905466Y-82635590D01*
X126905466Y-82635590D02*
X126938800Y-82673685D01*
X126938800Y-82673685D02*
X126972133Y-82749876D01*
X126972133Y-82749876D02*
X126972133Y-82826066D01*
X126972133Y-82826066D02*
X126938800Y-82940352D01*
X126938800Y-82940352D02*
X126538800Y-83397495D01*
X126538800Y-83397495D02*
X126972133Y-83397495D01*
X127372133Y-82940352D02*
X127305467Y-82902257D01*
X127305467Y-82902257D02*
X127272133Y-82864161D01*
X127272133Y-82864161D02*
X127238800Y-82787971D01*
X127238800Y-82787971D02*
X127238800Y-82749876D01*
X127238800Y-82749876D02*
X127272133Y-82673685D01*
X127272133Y-82673685D02*
X127305467Y-82635590D01*
X127305467Y-82635590D02*
X127372133Y-82597495D01*
X127372133Y-82597495D02*
X127505467Y-82597495D01*
X127505467Y-82597495D02*
X127572133Y-82635590D01*
X127572133Y-82635590D02*
X127605467Y-82673685D01*
X127605467Y-82673685D02*
X127638800Y-82749876D01*
X127638800Y-82749876D02*
X127638800Y-82787971D01*
X127638800Y-82787971D02*
X127605467Y-82864161D01*
X127605467Y-82864161D02*
X127572133Y-82902257D01*
X127572133Y-82902257D02*
X127505467Y-82940352D01*
X127505467Y-82940352D02*
X127372133Y-82940352D01*
X127372133Y-82940352D02*
X127305467Y-82978447D01*
X127305467Y-82978447D02*
X127272133Y-83016542D01*
X127272133Y-83016542D02*
X127238800Y-83092733D01*
X127238800Y-83092733D02*
X127238800Y-83245114D01*
X127238800Y-83245114D02*
X127272133Y-83321304D01*
X127272133Y-83321304D02*
X127305467Y-83359400D01*
X127305467Y-83359400D02*
X127372133Y-83397495D01*
X127372133Y-83397495D02*
X127505467Y-83397495D01*
X127505467Y-83397495D02*
X127572133Y-83359400D01*
X127572133Y-83359400D02*
X127605467Y-83321304D01*
X127605467Y-83321304D02*
X127638800Y-83245114D01*
X127638800Y-83245114D02*
X127638800Y-83092733D01*
X127638800Y-83092733D02*
X127605467Y-83016542D01*
X127605467Y-83016542D02*
X127572133Y-82978447D01*
X127572133Y-82978447D02*
X127505467Y-82940352D01*
X127938800Y-83397495D02*
X127938800Y-82597495D01*
X127938800Y-82597495D02*
X128205467Y-82597495D01*
X128205467Y-82597495D02*
X128272134Y-82635590D01*
X128272134Y-82635590D02*
X128305467Y-82673685D01*
X128305467Y-82673685D02*
X128338800Y-82749876D01*
X128338800Y-82749876D02*
X128338800Y-82864161D01*
X128338800Y-82864161D02*
X128305467Y-82940352D01*
X128305467Y-82940352D02*
X128272134Y-82978447D01*
X128272134Y-82978447D02*
X128205467Y-83016542D01*
X128205467Y-83016542D02*
X127938800Y-83016542D01*
X128638800Y-83092733D02*
X129172134Y-83092733D01*
X129472134Y-83168923D02*
X129805467Y-83168923D01*
X129405467Y-83397495D02*
X129638801Y-82597495D01*
X129638801Y-82597495D02*
X129872134Y-83397495D01*
X130105467Y-82597495D02*
X130105467Y-83245114D01*
X130105467Y-83245114D02*
X130138801Y-83321304D01*
X130138801Y-83321304D02*
X130172134Y-83359400D01*
X130172134Y-83359400D02*
X130238801Y-83397495D01*
X130238801Y-83397495D02*
X130372134Y-83397495D01*
X130372134Y-83397495D02*
X130438801Y-83359400D01*
X130438801Y-83359400D02*
X130472134Y-83321304D01*
X130472134Y-83321304D02*
X130505467Y-83245114D01*
X130505467Y-83245114D02*
X130505467Y-82597495D01*
%TO.C,C3*%
X134350933Y-89976104D02*
X134317600Y-90014200D01*
X134317600Y-90014200D02*
X134217600Y-90052295D01*
X134217600Y-90052295D02*
X134150933Y-90052295D01*
X134150933Y-90052295D02*
X134050933Y-90014200D01*
X134050933Y-90014200D02*
X133984267Y-89938009D01*
X133984267Y-89938009D02*
X133950933Y-89861819D01*
X133950933Y-89861819D02*
X133917600Y-89709438D01*
X133917600Y-89709438D02*
X133917600Y-89595152D01*
X133917600Y-89595152D02*
X133950933Y-89442771D01*
X133950933Y-89442771D02*
X133984267Y-89366580D01*
X133984267Y-89366580D02*
X134050933Y-89290390D01*
X134050933Y-89290390D02*
X134150933Y-89252295D01*
X134150933Y-89252295D02*
X134217600Y-89252295D01*
X134217600Y-89252295D02*
X134317600Y-89290390D01*
X134317600Y-89290390D02*
X134350933Y-89328485D01*
X134584267Y-89252295D02*
X135017600Y-89252295D01*
X135017600Y-89252295D02*
X134784267Y-89557057D01*
X134784267Y-89557057D02*
X134884267Y-89557057D01*
X134884267Y-89557057D02*
X134950933Y-89595152D01*
X134950933Y-89595152D02*
X134984267Y-89633247D01*
X134984267Y-89633247D02*
X135017600Y-89709438D01*
X135017600Y-89709438D02*
X135017600Y-89899914D01*
X135017600Y-89899914D02*
X134984267Y-89976104D01*
X134984267Y-89976104D02*
X134950933Y-90014200D01*
X134950933Y-90014200D02*
X134884267Y-90052295D01*
X134884267Y-90052295D02*
X134684267Y-90052295D01*
X134684267Y-90052295D02*
X134617600Y-90014200D01*
X134617600Y-90014200D02*
X134584267Y-89976104D01*
X135959200Y-90877885D02*
X135992533Y-90839790D01*
X135992533Y-90839790D02*
X136059200Y-90801695D01*
X136059200Y-90801695D02*
X136225867Y-90801695D01*
X136225867Y-90801695D02*
X136292533Y-90839790D01*
X136292533Y-90839790D02*
X136325867Y-90877885D01*
X136325867Y-90877885D02*
X136359200Y-90954076D01*
X136359200Y-90954076D02*
X136359200Y-91030266D01*
X136359200Y-91030266D02*
X136325867Y-91144552D01*
X136325867Y-91144552D02*
X135925867Y-91601695D01*
X135925867Y-91601695D02*
X136359200Y-91601695D01*
X136625867Y-90877885D02*
X136659200Y-90839790D01*
X136659200Y-90839790D02*
X136725867Y-90801695D01*
X136725867Y-90801695D02*
X136892534Y-90801695D01*
X136892534Y-90801695D02*
X136959200Y-90839790D01*
X136959200Y-90839790D02*
X136992534Y-90877885D01*
X136992534Y-90877885D02*
X137025867Y-90954076D01*
X137025867Y-90954076D02*
X137025867Y-91030266D01*
X137025867Y-91030266D02*
X136992534Y-91144552D01*
X136992534Y-91144552D02*
X136592534Y-91601695D01*
X136592534Y-91601695D02*
X137025867Y-91601695D01*
X137325867Y-91068361D02*
X137325867Y-91868361D01*
X137325867Y-91106457D02*
X137392534Y-91068361D01*
X137392534Y-91068361D02*
X137525867Y-91068361D01*
X137525867Y-91068361D02*
X137592534Y-91106457D01*
X137592534Y-91106457D02*
X137625867Y-91144552D01*
X137625867Y-91144552D02*
X137659201Y-91220742D01*
X137659201Y-91220742D02*
X137659201Y-91449314D01*
X137659201Y-91449314D02*
X137625867Y-91525504D01*
X137625867Y-91525504D02*
X137592534Y-91563600D01*
X137592534Y-91563600D02*
X137525867Y-91601695D01*
X137525867Y-91601695D02*
X137392534Y-91601695D01*
X137392534Y-91601695D02*
X137325867Y-91563600D01*
X138192534Y-91182647D02*
X137959200Y-91182647D01*
X137959200Y-91601695D02*
X137959200Y-90801695D01*
X137959200Y-90801695D02*
X138292534Y-90801695D01*
%TO.C,U2*%
X109626466Y-81784695D02*
X109626466Y-82432314D01*
X109626466Y-82432314D02*
X109659800Y-82508504D01*
X109659800Y-82508504D02*
X109693133Y-82546600D01*
X109693133Y-82546600D02*
X109759800Y-82584695D01*
X109759800Y-82584695D02*
X109893133Y-82584695D01*
X109893133Y-82584695D02*
X109959800Y-82546600D01*
X109959800Y-82546600D02*
X109993133Y-82508504D01*
X109993133Y-82508504D02*
X110026466Y-82432314D01*
X110026466Y-82432314D02*
X110026466Y-81784695D01*
X110326466Y-81860885D02*
X110359799Y-81822790D01*
X110359799Y-81822790D02*
X110426466Y-81784695D01*
X110426466Y-81784695D02*
X110593133Y-81784695D01*
X110593133Y-81784695D02*
X110659799Y-81822790D01*
X110659799Y-81822790D02*
X110693133Y-81860885D01*
X110693133Y-81860885D02*
X110726466Y-81937076D01*
X110726466Y-81937076D02*
X110726466Y-82013266D01*
X110726466Y-82013266D02*
X110693133Y-82127552D01*
X110693133Y-82127552D02*
X110293133Y-82584695D01*
X110293133Y-82584695D02*
X110726466Y-82584695D01*
X111392799Y-89290295D02*
X111392799Y-88490295D01*
X111392799Y-88490295D02*
X111559466Y-88490295D01*
X111559466Y-88490295D02*
X111659466Y-88528390D01*
X111659466Y-88528390D02*
X111726133Y-88604580D01*
X111726133Y-88604580D02*
X111759466Y-88680771D01*
X111759466Y-88680771D02*
X111792799Y-88833152D01*
X111792799Y-88833152D02*
X111792799Y-88947438D01*
X111792799Y-88947438D02*
X111759466Y-89099819D01*
X111759466Y-89099819D02*
X111726133Y-89176009D01*
X111726133Y-89176009D02*
X111659466Y-89252200D01*
X111659466Y-89252200D02*
X111559466Y-89290295D01*
X111559466Y-89290295D02*
X111392799Y-89290295D01*
X112059466Y-89252200D02*
X112159466Y-89290295D01*
X112159466Y-89290295D02*
X112326133Y-89290295D01*
X112326133Y-89290295D02*
X112392799Y-89252200D01*
X112392799Y-89252200D02*
X112426133Y-89214104D01*
X112426133Y-89214104D02*
X112459466Y-89137914D01*
X112459466Y-89137914D02*
X112459466Y-89061723D01*
X112459466Y-89061723D02*
X112426133Y-88985533D01*
X112426133Y-88985533D02*
X112392799Y-88947438D01*
X112392799Y-88947438D02*
X112326133Y-88909342D01*
X112326133Y-88909342D02*
X112192799Y-88871247D01*
X112192799Y-88871247D02*
X112126133Y-88833152D01*
X112126133Y-88833152D02*
X112092799Y-88795057D01*
X112092799Y-88795057D02*
X112059466Y-88718866D01*
X112059466Y-88718866D02*
X112059466Y-88642676D01*
X112059466Y-88642676D02*
X112092799Y-88566485D01*
X112092799Y-88566485D02*
X112126133Y-88528390D01*
X112126133Y-88528390D02*
X112192799Y-88490295D01*
X112192799Y-88490295D02*
X112359466Y-88490295D01*
X112359466Y-88490295D02*
X112459466Y-88528390D01*
X113126133Y-89290295D02*
X112726133Y-89290295D01*
X112926133Y-89290295D02*
X112926133Y-88490295D01*
X112926133Y-88490295D02*
X112859466Y-88604580D01*
X112859466Y-88604580D02*
X112792800Y-88680771D01*
X112792800Y-88680771D02*
X112726133Y-88718866D01*
X113359467Y-88490295D02*
X113792800Y-88490295D01*
X113792800Y-88490295D02*
X113559467Y-88795057D01*
X113559467Y-88795057D02*
X113659467Y-88795057D01*
X113659467Y-88795057D02*
X113726133Y-88833152D01*
X113726133Y-88833152D02*
X113759467Y-88871247D01*
X113759467Y-88871247D02*
X113792800Y-88947438D01*
X113792800Y-88947438D02*
X113792800Y-89137914D01*
X113792800Y-89137914D02*
X113759467Y-89214104D01*
X113759467Y-89214104D02*
X113726133Y-89252200D01*
X113726133Y-89252200D02*
X113659467Y-89290295D01*
X113659467Y-89290295D02*
X113459467Y-89290295D01*
X113459467Y-89290295D02*
X113392800Y-89252200D01*
X113392800Y-89252200D02*
X113359467Y-89214104D01*
X114026134Y-88490295D02*
X114459467Y-88490295D01*
X114459467Y-88490295D02*
X114226134Y-88795057D01*
X114226134Y-88795057D02*
X114326134Y-88795057D01*
X114326134Y-88795057D02*
X114392800Y-88833152D01*
X114392800Y-88833152D02*
X114426134Y-88871247D01*
X114426134Y-88871247D02*
X114459467Y-88947438D01*
X114459467Y-88947438D02*
X114459467Y-89137914D01*
X114459467Y-89137914D02*
X114426134Y-89214104D01*
X114426134Y-89214104D02*
X114392800Y-89252200D01*
X114392800Y-89252200D02*
X114326134Y-89290295D01*
X114326134Y-89290295D02*
X114126134Y-89290295D01*
X114126134Y-89290295D02*
X114059467Y-89252200D01*
X114059467Y-89252200D02*
X114026134Y-89214104D01*
X114692801Y-88490295D02*
X115159467Y-88490295D01*
X115159467Y-88490295D02*
X114859467Y-89290295D01*
X115392801Y-89252200D02*
X115492801Y-89290295D01*
X115492801Y-89290295D02*
X115659468Y-89290295D01*
X115659468Y-89290295D02*
X115726134Y-89252200D01*
X115726134Y-89252200D02*
X115759468Y-89214104D01*
X115759468Y-89214104D02*
X115792801Y-89137914D01*
X115792801Y-89137914D02*
X115792801Y-89061723D01*
X115792801Y-89061723D02*
X115759468Y-88985533D01*
X115759468Y-88985533D02*
X115726134Y-88947438D01*
X115726134Y-88947438D02*
X115659468Y-88909342D01*
X115659468Y-88909342D02*
X115526134Y-88871247D01*
X115526134Y-88871247D02*
X115459468Y-88833152D01*
X115459468Y-88833152D02*
X115426134Y-88795057D01*
X115426134Y-88795057D02*
X115392801Y-88718866D01*
X115392801Y-88718866D02*
X115392801Y-88642676D01*
X115392801Y-88642676D02*
X115426134Y-88566485D01*
X115426134Y-88566485D02*
X115459468Y-88528390D01*
X115459468Y-88528390D02*
X115526134Y-88490295D01*
X115526134Y-88490295D02*
X115692801Y-88490295D01*
X115692801Y-88490295D02*
X115792801Y-88528390D01*
X115926135Y-89366485D02*
X116459468Y-89366485D01*
%TO.C,R7*%
X142546833Y-76993295D02*
X142313500Y-76612342D01*
X142146833Y-76993295D02*
X142146833Y-76193295D01*
X142146833Y-76193295D02*
X142413500Y-76193295D01*
X142413500Y-76193295D02*
X142480167Y-76231390D01*
X142480167Y-76231390D02*
X142513500Y-76269485D01*
X142513500Y-76269485D02*
X142546833Y-76345676D01*
X142546833Y-76345676D02*
X142546833Y-76459961D01*
X142546833Y-76459961D02*
X142513500Y-76536152D01*
X142513500Y-76536152D02*
X142480167Y-76574247D01*
X142480167Y-76574247D02*
X142413500Y-76612342D01*
X142413500Y-76612342D02*
X142146833Y-76612342D01*
X142780167Y-76193295D02*
X143246833Y-76193295D01*
X143246833Y-76193295D02*
X142946833Y-76993295D01*
X141187600Y-79473295D02*
X141620933Y-79473295D01*
X141620933Y-79473295D02*
X141387600Y-79778057D01*
X141387600Y-79778057D02*
X141487600Y-79778057D01*
X141487600Y-79778057D02*
X141554266Y-79816152D01*
X141554266Y-79816152D02*
X141587600Y-79854247D01*
X141587600Y-79854247D02*
X141620933Y-79930438D01*
X141620933Y-79930438D02*
X141620933Y-80120914D01*
X141620933Y-80120914D02*
X141587600Y-80197104D01*
X141587600Y-80197104D02*
X141554266Y-80235200D01*
X141554266Y-80235200D02*
X141487600Y-80273295D01*
X141487600Y-80273295D02*
X141287600Y-80273295D01*
X141287600Y-80273295D02*
X141220933Y-80235200D01*
X141220933Y-80235200D02*
X141187600Y-80197104D01*
X141854267Y-79473295D02*
X142287600Y-79473295D01*
X142287600Y-79473295D02*
X142054267Y-79778057D01*
X142054267Y-79778057D02*
X142154267Y-79778057D01*
X142154267Y-79778057D02*
X142220933Y-79816152D01*
X142220933Y-79816152D02*
X142254267Y-79854247D01*
X142254267Y-79854247D02*
X142287600Y-79930438D01*
X142287600Y-79930438D02*
X142287600Y-80120914D01*
X142287600Y-80120914D02*
X142254267Y-80197104D01*
X142254267Y-80197104D02*
X142220933Y-80235200D01*
X142220933Y-80235200D02*
X142154267Y-80273295D01*
X142154267Y-80273295D02*
X141954267Y-80273295D01*
X141954267Y-80273295D02*
X141887600Y-80235200D01*
X141887600Y-80235200D02*
X141854267Y-80197104D01*
X142720934Y-79473295D02*
X142787600Y-79473295D01*
X142787600Y-79473295D02*
X142854267Y-79511390D01*
X142854267Y-79511390D02*
X142887600Y-79549485D01*
X142887600Y-79549485D02*
X142920934Y-79625676D01*
X142920934Y-79625676D02*
X142954267Y-79778057D01*
X142954267Y-79778057D02*
X142954267Y-79968533D01*
X142954267Y-79968533D02*
X142920934Y-80120914D01*
X142920934Y-80120914D02*
X142887600Y-80197104D01*
X142887600Y-80197104D02*
X142854267Y-80235200D01*
X142854267Y-80235200D02*
X142787600Y-80273295D01*
X142787600Y-80273295D02*
X142720934Y-80273295D01*
X142720934Y-80273295D02*
X142654267Y-80235200D01*
X142654267Y-80235200D02*
X142620934Y-80197104D01*
X142620934Y-80197104D02*
X142587600Y-80120914D01*
X142587600Y-80120914D02*
X142554267Y-79968533D01*
X142554267Y-79968533D02*
X142554267Y-79778057D01*
X142554267Y-79778057D02*
X142587600Y-79625676D01*
X142587600Y-79625676D02*
X142620934Y-79549485D01*
X142620934Y-79549485D02*
X142654267Y-79511390D01*
X142654267Y-79511390D02*
X142720934Y-79473295D01*
%TO.C,J1*%
X151404666Y-81606895D02*
X151404666Y-82178323D01*
X151404666Y-82178323D02*
X151371333Y-82292609D01*
X151371333Y-82292609D02*
X151304666Y-82368800D01*
X151304666Y-82368800D02*
X151204666Y-82406895D01*
X151204666Y-82406895D02*
X151138000Y-82406895D01*
X152104666Y-82406895D02*
X151704666Y-82406895D01*
X151904666Y-82406895D02*
X151904666Y-81606895D01*
X151904666Y-81606895D02*
X151837999Y-81721180D01*
X151837999Y-81721180D02*
X151771333Y-81797371D01*
X151771333Y-81797371D02*
X151704666Y-81835466D01*
%TO.C,J2*%
X107013695Y-95102333D02*
X107585123Y-95102333D01*
X107585123Y-95102333D02*
X107699409Y-95135666D01*
X107699409Y-95135666D02*
X107775600Y-95202333D01*
X107775600Y-95202333D02*
X107813695Y-95302333D01*
X107813695Y-95302333D02*
X107813695Y-95369000D01*
X107089885Y-94802333D02*
X107051790Y-94769000D01*
X107051790Y-94769000D02*
X107013695Y-94702333D01*
X107013695Y-94702333D02*
X107013695Y-94535667D01*
X107013695Y-94535667D02*
X107051790Y-94469000D01*
X107051790Y-94469000D02*
X107089885Y-94435667D01*
X107089885Y-94435667D02*
X107166076Y-94402333D01*
X107166076Y-94402333D02*
X107242266Y-94402333D01*
X107242266Y-94402333D02*
X107356552Y-94435667D01*
X107356552Y-94435667D02*
X107813695Y-94835667D01*
X107813695Y-94835667D02*
X107813695Y-94402333D01*
%TO.C,H1*%
X104419466Y-65846495D02*
X104419466Y-65046495D01*
X104419466Y-65427447D02*
X104819466Y-65427447D01*
X104819466Y-65846495D02*
X104819466Y-65046495D01*
X105519466Y-65846495D02*
X105119466Y-65846495D01*
X105319466Y-65846495D02*
X105319466Y-65046495D01*
X105319466Y-65046495D02*
X105252799Y-65160780D01*
X105252799Y-65160780D02*
X105186133Y-65236971D01*
X105186133Y-65236971D02*
X105119466Y-65275066D01*
%TO.C,J3*%
X134039295Y-95076933D02*
X134610723Y-95076933D01*
X134610723Y-95076933D02*
X134725009Y-95110266D01*
X134725009Y-95110266D02*
X134801200Y-95176933D01*
X134801200Y-95176933D02*
X134839295Y-95276933D01*
X134839295Y-95276933D02*
X134839295Y-95343600D01*
X134039295Y-94810267D02*
X134039295Y-94376933D01*
X134039295Y-94376933D02*
X134344057Y-94610267D01*
X134344057Y-94610267D02*
X134344057Y-94510267D01*
X134344057Y-94510267D02*
X134382152Y-94443600D01*
X134382152Y-94443600D02*
X134420247Y-94410267D01*
X134420247Y-94410267D02*
X134496438Y-94376933D01*
X134496438Y-94376933D02*
X134686914Y-94376933D01*
X134686914Y-94376933D02*
X134763104Y-94410267D01*
X134763104Y-94410267D02*
X134801200Y-94443600D01*
X134801200Y-94443600D02*
X134839295Y-94510267D01*
X134839295Y-94510267D02*
X134839295Y-94710267D01*
X134839295Y-94710267D02*
X134801200Y-94776933D01*
X134801200Y-94776933D02*
X134763104Y-94810267D01*
%TO.C,J4*%
X151430066Y-70989695D02*
X151430066Y-71561123D01*
X151430066Y-71561123D02*
X151396733Y-71675409D01*
X151396733Y-71675409D02*
X151330066Y-71751600D01*
X151330066Y-71751600D02*
X151230066Y-71789695D01*
X151230066Y-71789695D02*
X151163400Y-71789695D01*
X152063399Y-71256361D02*
X152063399Y-71789695D01*
X151896733Y-70951600D02*
X151730066Y-71523028D01*
X151730066Y-71523028D02*
X152163399Y-71523028D01*
%TO.C,C1*%
X130509133Y-67285904D02*
X130475800Y-67324000D01*
X130475800Y-67324000D02*
X130375800Y-67362095D01*
X130375800Y-67362095D02*
X130309133Y-67362095D01*
X130309133Y-67362095D02*
X130209133Y-67324000D01*
X130209133Y-67324000D02*
X130142467Y-67247809D01*
X130142467Y-67247809D02*
X130109133Y-67171619D01*
X130109133Y-67171619D02*
X130075800Y-67019238D01*
X130075800Y-67019238D02*
X130075800Y-66904952D01*
X130075800Y-66904952D02*
X130109133Y-66752571D01*
X130109133Y-66752571D02*
X130142467Y-66676380D01*
X130142467Y-66676380D02*
X130209133Y-66600190D01*
X130209133Y-66600190D02*
X130309133Y-66562095D01*
X130309133Y-66562095D02*
X130375800Y-66562095D01*
X130375800Y-66562095D02*
X130475800Y-66600190D01*
X130475800Y-66600190D02*
X130509133Y-66638285D01*
X131175800Y-67362095D02*
X130775800Y-67362095D01*
X130975800Y-67362095D02*
X130975800Y-66562095D01*
X130975800Y-66562095D02*
X130909133Y-66676380D01*
X130909133Y-66676380D02*
X130842467Y-66752571D01*
X130842467Y-66752571D02*
X130775800Y-66790666D01*
X129475800Y-69922095D02*
X129542466Y-69922095D01*
X129542466Y-69922095D02*
X129609133Y-69960190D01*
X129609133Y-69960190D02*
X129642466Y-69998285D01*
X129642466Y-69998285D02*
X129675800Y-70074476D01*
X129675800Y-70074476D02*
X129709133Y-70226857D01*
X129709133Y-70226857D02*
X129709133Y-70417333D01*
X129709133Y-70417333D02*
X129675800Y-70569714D01*
X129675800Y-70569714D02*
X129642466Y-70645904D01*
X129642466Y-70645904D02*
X129609133Y-70684000D01*
X129609133Y-70684000D02*
X129542466Y-70722095D01*
X129542466Y-70722095D02*
X129475800Y-70722095D01*
X129475800Y-70722095D02*
X129409133Y-70684000D01*
X129409133Y-70684000D02*
X129375800Y-70645904D01*
X129375800Y-70645904D02*
X129342466Y-70569714D01*
X129342466Y-70569714D02*
X129309133Y-70417333D01*
X129309133Y-70417333D02*
X129309133Y-70226857D01*
X129309133Y-70226857D02*
X129342466Y-70074476D01*
X129342466Y-70074476D02*
X129375800Y-69998285D01*
X129375800Y-69998285D02*
X129409133Y-69960190D01*
X129409133Y-69960190D02*
X129475800Y-69922095D01*
X130009133Y-70645904D02*
X130042467Y-70684000D01*
X130042467Y-70684000D02*
X130009133Y-70722095D01*
X130009133Y-70722095D02*
X129975800Y-70684000D01*
X129975800Y-70684000D02*
X130009133Y-70645904D01*
X130009133Y-70645904D02*
X130009133Y-70722095D01*
X130709133Y-70722095D02*
X130309133Y-70722095D01*
X130509133Y-70722095D02*
X130509133Y-69922095D01*
X130509133Y-69922095D02*
X130442466Y-70036380D01*
X130442466Y-70036380D02*
X130375800Y-70112571D01*
X130375800Y-70112571D02*
X130309133Y-70150666D01*
X131309133Y-70188761D02*
X131309133Y-70722095D01*
X131009133Y-70188761D02*
X131009133Y-70607809D01*
X131009133Y-70607809D02*
X131042467Y-70684000D01*
X131042467Y-70684000D02*
X131109133Y-70722095D01*
X131109133Y-70722095D02*
X131209133Y-70722095D01*
X131209133Y-70722095D02*
X131275800Y-70684000D01*
X131275800Y-70684000D02*
X131309133Y-70645904D01*
X131875800Y-70303047D02*
X131642466Y-70303047D01*
X131642466Y-70722095D02*
X131642466Y-69922095D01*
X131642466Y-69922095D02*
X131975800Y-69922095D01*
%TO.C,BT1*%
X105647400Y-73023447D02*
X105747400Y-73061542D01*
X105747400Y-73061542D02*
X105780733Y-73099638D01*
X105780733Y-73099638D02*
X105814066Y-73175828D01*
X105814066Y-73175828D02*
X105814066Y-73290114D01*
X105814066Y-73290114D02*
X105780733Y-73366304D01*
X105780733Y-73366304D02*
X105747400Y-73404400D01*
X105747400Y-73404400D02*
X105680733Y-73442495D01*
X105680733Y-73442495D02*
X105414066Y-73442495D01*
X105414066Y-73442495D02*
X105414066Y-72642495D01*
X105414066Y-72642495D02*
X105647400Y-72642495D01*
X105647400Y-72642495D02*
X105714066Y-72680590D01*
X105714066Y-72680590D02*
X105747400Y-72718685D01*
X105747400Y-72718685D02*
X105780733Y-72794876D01*
X105780733Y-72794876D02*
X105780733Y-72871066D01*
X105780733Y-72871066D02*
X105747400Y-72947257D01*
X105747400Y-72947257D02*
X105714066Y-72985352D01*
X105714066Y-72985352D02*
X105647400Y-73023447D01*
X105647400Y-73023447D02*
X105414066Y-73023447D01*
X106014066Y-72642495D02*
X106414066Y-72642495D01*
X106214066Y-73442495D02*
X106214066Y-72642495D01*
X107014066Y-73442495D02*
X106614066Y-73442495D01*
X106814066Y-73442495D02*
X106814066Y-72642495D01*
X106814066Y-72642495D02*
X106747399Y-72756780D01*
X106747399Y-72756780D02*
X106680733Y-72832971D01*
X106680733Y-72832971D02*
X106614066Y-72871066D01*
X104747401Y-80223447D02*
X104847401Y-80261542D01*
X104847401Y-80261542D02*
X104880734Y-80299638D01*
X104880734Y-80299638D02*
X104914067Y-80375828D01*
X104914067Y-80375828D02*
X104914067Y-80490114D01*
X104914067Y-80490114D02*
X104880734Y-80566304D01*
X104880734Y-80566304D02*
X104847401Y-80604400D01*
X104847401Y-80604400D02*
X104780734Y-80642495D01*
X104780734Y-80642495D02*
X104514067Y-80642495D01*
X104514067Y-80642495D02*
X104514067Y-79842495D01*
X104514067Y-79842495D02*
X104747401Y-79842495D01*
X104747401Y-79842495D02*
X104814067Y-79880590D01*
X104814067Y-79880590D02*
X104847401Y-79918685D01*
X104847401Y-79918685D02*
X104880734Y-79994876D01*
X104880734Y-79994876D02*
X104880734Y-80071066D01*
X104880734Y-80071066D02*
X104847401Y-80147257D01*
X104847401Y-80147257D02*
X104814067Y-80185352D01*
X104814067Y-80185352D02*
X104747401Y-80223447D01*
X104747401Y-80223447D02*
X104514067Y-80223447D01*
X105514067Y-80642495D02*
X105514067Y-80223447D01*
X105514067Y-80223447D02*
X105480734Y-80147257D01*
X105480734Y-80147257D02*
X105414067Y-80109161D01*
X105414067Y-80109161D02*
X105280734Y-80109161D01*
X105280734Y-80109161D02*
X105214067Y-80147257D01*
X105514067Y-80604400D02*
X105447401Y-80642495D01*
X105447401Y-80642495D02*
X105280734Y-80642495D01*
X105280734Y-80642495D02*
X105214067Y-80604400D01*
X105214067Y-80604400D02*
X105180734Y-80528209D01*
X105180734Y-80528209D02*
X105180734Y-80452019D01*
X105180734Y-80452019D02*
X105214067Y-80375828D01*
X105214067Y-80375828D02*
X105280734Y-80337733D01*
X105280734Y-80337733D02*
X105447401Y-80337733D01*
X105447401Y-80337733D02*
X105514067Y-80299638D01*
X105747400Y-80109161D02*
X106014067Y-80109161D01*
X105847400Y-79842495D02*
X105847400Y-80528209D01*
X105847400Y-80528209D02*
X105880734Y-80604400D01*
X105880734Y-80604400D02*
X105947400Y-80642495D01*
X105947400Y-80642495D02*
X106014067Y-80642495D01*
X106147400Y-80109161D02*
X106414067Y-80109161D01*
X106247400Y-79842495D02*
X106247400Y-80528209D01*
X106247400Y-80528209D02*
X106280734Y-80604400D01*
X106280734Y-80604400D02*
X106347400Y-80642495D01*
X106347400Y-80642495D02*
X106414067Y-80642495D01*
X106914067Y-80604400D02*
X106847400Y-80642495D01*
X106847400Y-80642495D02*
X106714067Y-80642495D01*
X106714067Y-80642495D02*
X106647400Y-80604400D01*
X106647400Y-80604400D02*
X106614067Y-80528209D01*
X106614067Y-80528209D02*
X106614067Y-80223447D01*
X106614067Y-80223447D02*
X106647400Y-80147257D01*
X106647400Y-80147257D02*
X106714067Y-80109161D01*
X106714067Y-80109161D02*
X106847400Y-80109161D01*
X106847400Y-80109161D02*
X106914067Y-80147257D01*
X106914067Y-80147257D02*
X106947400Y-80223447D01*
X106947400Y-80223447D02*
X106947400Y-80299638D01*
X106947400Y-80299638D02*
X106614067Y-80375828D01*
X107247400Y-80642495D02*
X107247400Y-80109161D01*
X107247400Y-80261542D02*
X107280734Y-80185352D01*
X107280734Y-80185352D02*
X107314067Y-80147257D01*
X107314067Y-80147257D02*
X107380734Y-80109161D01*
X107380734Y-80109161D02*
X107447400Y-80109161D01*
X107614067Y-80109161D02*
X107780733Y-80642495D01*
X107947400Y-80109161D02*
X107780733Y-80642495D01*
X107780733Y-80642495D02*
X107714067Y-80832971D01*
X107714067Y-80832971D02*
X107680733Y-80871066D01*
X107680733Y-80871066D02*
X107614067Y-80909161D01*
%TO.C,H3*%
X149377466Y-65871895D02*
X149377466Y-65071895D01*
X149377466Y-65452847D02*
X149777466Y-65452847D01*
X149777466Y-65871895D02*
X149777466Y-65071895D01*
X150044133Y-65071895D02*
X150477466Y-65071895D01*
X150477466Y-65071895D02*
X150244133Y-65376657D01*
X150244133Y-65376657D02*
X150344133Y-65376657D01*
X150344133Y-65376657D02*
X150410799Y-65414752D01*
X150410799Y-65414752D02*
X150444133Y-65452847D01*
X150444133Y-65452847D02*
X150477466Y-65529038D01*
X150477466Y-65529038D02*
X150477466Y-65719514D01*
X150477466Y-65719514D02*
X150444133Y-65795704D01*
X150444133Y-65795704D02*
X150410799Y-65833800D01*
X150410799Y-65833800D02*
X150344133Y-65871895D01*
X150344133Y-65871895D02*
X150144133Y-65871895D01*
X150144133Y-65871895D02*
X150077466Y-65833800D01*
X150077466Y-65833800D02*
X150044133Y-65795704D01*
%TO.C,R1*%
X134477933Y-74202695D02*
X134244600Y-73821742D01*
X134077933Y-74202695D02*
X134077933Y-73402695D01*
X134077933Y-73402695D02*
X134344600Y-73402695D01*
X134344600Y-73402695D02*
X134411267Y-73440790D01*
X134411267Y-73440790D02*
X134444600Y-73478885D01*
X134444600Y-73478885D02*
X134477933Y-73555076D01*
X134477933Y-73555076D02*
X134477933Y-73669361D01*
X134477933Y-73669361D02*
X134444600Y-73745552D01*
X134444600Y-73745552D02*
X134411267Y-73783647D01*
X134411267Y-73783647D02*
X134344600Y-73821742D01*
X134344600Y-73821742D02*
X134077933Y-73821742D01*
X135144600Y-74202695D02*
X134744600Y-74202695D01*
X134944600Y-74202695D02*
X134944600Y-73402695D01*
X134944600Y-73402695D02*
X134877933Y-73516980D01*
X134877933Y-73516980D02*
X134811267Y-73593171D01*
X134811267Y-73593171D02*
X134744600Y-73631266D01*
X136360733Y-75086361D02*
X136360733Y-75619695D01*
X136194067Y-74781600D02*
X136027400Y-75353028D01*
X136027400Y-75353028D02*
X136460733Y-75353028D01*
X136727400Y-75543504D02*
X136760734Y-75581600D01*
X136760734Y-75581600D02*
X136727400Y-75619695D01*
X136727400Y-75619695D02*
X136694067Y-75581600D01*
X136694067Y-75581600D02*
X136727400Y-75543504D01*
X136727400Y-75543504D02*
X136727400Y-75619695D01*
X136994067Y-74819695D02*
X137460733Y-74819695D01*
X137460733Y-74819695D02*
X137160733Y-75619695D01*
X137727400Y-75619695D02*
X137727400Y-74819695D01*
X138127400Y-75619695D02*
X137827400Y-75162552D01*
X138127400Y-74819695D02*
X137727400Y-75276838D01*
%TO.C,C4*%
X126064133Y-67336704D02*
X126030800Y-67374800D01*
X126030800Y-67374800D02*
X125930800Y-67412895D01*
X125930800Y-67412895D02*
X125864133Y-67412895D01*
X125864133Y-67412895D02*
X125764133Y-67374800D01*
X125764133Y-67374800D02*
X125697467Y-67298609D01*
X125697467Y-67298609D02*
X125664133Y-67222419D01*
X125664133Y-67222419D02*
X125630800Y-67070038D01*
X125630800Y-67070038D02*
X125630800Y-66955752D01*
X125630800Y-66955752D02*
X125664133Y-66803371D01*
X125664133Y-66803371D02*
X125697467Y-66727180D01*
X125697467Y-66727180D02*
X125764133Y-66650990D01*
X125764133Y-66650990D02*
X125864133Y-66612895D01*
X125864133Y-66612895D02*
X125930800Y-66612895D01*
X125930800Y-66612895D02*
X126030800Y-66650990D01*
X126030800Y-66650990D02*
X126064133Y-66689085D01*
X126664133Y-66879561D02*
X126664133Y-67412895D01*
X126497467Y-66574800D02*
X126330800Y-67146228D01*
X126330800Y-67146228D02*
X126764133Y-67146228D01*
X125030800Y-69972895D02*
X125097466Y-69972895D01*
X125097466Y-69972895D02*
X125164133Y-70010990D01*
X125164133Y-70010990D02*
X125197466Y-70049085D01*
X125197466Y-70049085D02*
X125230800Y-70125276D01*
X125230800Y-70125276D02*
X125264133Y-70277657D01*
X125264133Y-70277657D02*
X125264133Y-70468133D01*
X125264133Y-70468133D02*
X125230800Y-70620514D01*
X125230800Y-70620514D02*
X125197466Y-70696704D01*
X125197466Y-70696704D02*
X125164133Y-70734800D01*
X125164133Y-70734800D02*
X125097466Y-70772895D01*
X125097466Y-70772895D02*
X125030800Y-70772895D01*
X125030800Y-70772895D02*
X124964133Y-70734800D01*
X124964133Y-70734800D02*
X124930800Y-70696704D01*
X124930800Y-70696704D02*
X124897466Y-70620514D01*
X124897466Y-70620514D02*
X124864133Y-70468133D01*
X124864133Y-70468133D02*
X124864133Y-70277657D01*
X124864133Y-70277657D02*
X124897466Y-70125276D01*
X124897466Y-70125276D02*
X124930800Y-70049085D01*
X124930800Y-70049085D02*
X124964133Y-70010990D01*
X124964133Y-70010990D02*
X125030800Y-69972895D01*
X125564133Y-70696704D02*
X125597467Y-70734800D01*
X125597467Y-70734800D02*
X125564133Y-70772895D01*
X125564133Y-70772895D02*
X125530800Y-70734800D01*
X125530800Y-70734800D02*
X125564133Y-70696704D01*
X125564133Y-70696704D02*
X125564133Y-70772895D01*
X126264133Y-70772895D02*
X125864133Y-70772895D01*
X126064133Y-70772895D02*
X126064133Y-69972895D01*
X126064133Y-69972895D02*
X125997466Y-70087180D01*
X125997466Y-70087180D02*
X125930800Y-70163371D01*
X125930800Y-70163371D02*
X125864133Y-70201466D01*
X126864133Y-70239561D02*
X126864133Y-70772895D01*
X126564133Y-70239561D02*
X126564133Y-70658609D01*
X126564133Y-70658609D02*
X126597467Y-70734800D01*
X126597467Y-70734800D02*
X126664133Y-70772895D01*
X126664133Y-70772895D02*
X126764133Y-70772895D01*
X126764133Y-70772895D02*
X126830800Y-70734800D01*
X126830800Y-70734800D02*
X126864133Y-70696704D01*
X127430800Y-70353847D02*
X127197466Y-70353847D01*
X127197466Y-70772895D02*
X127197466Y-69972895D01*
X127197466Y-69972895D02*
X127530800Y-69972895D01*
%TO.C,Y1*%
X103051142Y-86921933D02*
X103432095Y-86921933D01*
X102632095Y-87155266D02*
X103051142Y-86921933D01*
X103051142Y-86921933D02*
X102632095Y-86688599D01*
X103432095Y-86088599D02*
X103432095Y-86488599D01*
X103432095Y-86288599D02*
X102632095Y-86288599D01*
X102632095Y-86288599D02*
X102746380Y-86355266D01*
X102746380Y-86355266D02*
X102822571Y-86421933D01*
X102822571Y-86421933D02*
X102860666Y-86488599D01*
X107972095Y-87988400D02*
X107972095Y-87555066D01*
X107972095Y-87555066D02*
X108276857Y-87788400D01*
X108276857Y-87788400D02*
X108276857Y-87688400D01*
X108276857Y-87688400D02*
X108314952Y-87621733D01*
X108314952Y-87621733D02*
X108353047Y-87588400D01*
X108353047Y-87588400D02*
X108429238Y-87555066D01*
X108429238Y-87555066D02*
X108619714Y-87555066D01*
X108619714Y-87555066D02*
X108695904Y-87588400D01*
X108695904Y-87588400D02*
X108734000Y-87621733D01*
X108734000Y-87621733D02*
X108772095Y-87688400D01*
X108772095Y-87688400D02*
X108772095Y-87888400D01*
X108772095Y-87888400D02*
X108734000Y-87955066D01*
X108734000Y-87955066D02*
X108695904Y-87988400D01*
X108048285Y-87288399D02*
X108010190Y-87255066D01*
X108010190Y-87255066D02*
X107972095Y-87188399D01*
X107972095Y-87188399D02*
X107972095Y-87021733D01*
X107972095Y-87021733D02*
X108010190Y-86955066D01*
X108010190Y-86955066D02*
X108048285Y-86921733D01*
X108048285Y-86921733D02*
X108124476Y-86888399D01*
X108124476Y-86888399D02*
X108200666Y-86888399D01*
X108200666Y-86888399D02*
X108314952Y-86921733D01*
X108314952Y-86921733D02*
X108772095Y-87321733D01*
X108772095Y-87321733D02*
X108772095Y-86888399D01*
X108695904Y-86588399D02*
X108734000Y-86555066D01*
X108734000Y-86555066D02*
X108772095Y-86588399D01*
X108772095Y-86588399D02*
X108734000Y-86621732D01*
X108734000Y-86621732D02*
X108695904Y-86588399D01*
X108695904Y-86588399D02*
X108772095Y-86588399D01*
X107972095Y-86321733D02*
X107972095Y-85855066D01*
X107972095Y-85855066D02*
X108772095Y-86155066D01*
X107972095Y-85288399D02*
X107972095Y-85421732D01*
X107972095Y-85421732D02*
X108010190Y-85488399D01*
X108010190Y-85488399D02*
X108048285Y-85521732D01*
X108048285Y-85521732D02*
X108162571Y-85588399D01*
X108162571Y-85588399D02*
X108314952Y-85621732D01*
X108314952Y-85621732D02*
X108619714Y-85621732D01*
X108619714Y-85621732D02*
X108695904Y-85588399D01*
X108695904Y-85588399D02*
X108734000Y-85555066D01*
X108734000Y-85555066D02*
X108772095Y-85488399D01*
X108772095Y-85488399D02*
X108772095Y-85355066D01*
X108772095Y-85355066D02*
X108734000Y-85288399D01*
X108734000Y-85288399D02*
X108695904Y-85255066D01*
X108695904Y-85255066D02*
X108619714Y-85221732D01*
X108619714Y-85221732D02*
X108429238Y-85221732D01*
X108429238Y-85221732D02*
X108353047Y-85255066D01*
X108353047Y-85255066D02*
X108314952Y-85288399D01*
X108314952Y-85288399D02*
X108276857Y-85355066D01*
X108276857Y-85355066D02*
X108276857Y-85488399D01*
X108276857Y-85488399D02*
X108314952Y-85555066D01*
X108314952Y-85555066D02*
X108353047Y-85588399D01*
X108353047Y-85588399D02*
X108429238Y-85621732D01*
X108314952Y-84821732D02*
X108276857Y-84888399D01*
X108276857Y-84888399D02*
X108238761Y-84921732D01*
X108238761Y-84921732D02*
X108162571Y-84955065D01*
X108162571Y-84955065D02*
X108124476Y-84955065D01*
X108124476Y-84955065D02*
X108048285Y-84921732D01*
X108048285Y-84921732D02*
X108010190Y-84888399D01*
X108010190Y-84888399D02*
X107972095Y-84821732D01*
X107972095Y-84821732D02*
X107972095Y-84688399D01*
X107972095Y-84688399D02*
X108010190Y-84621732D01*
X108010190Y-84621732D02*
X108048285Y-84588399D01*
X108048285Y-84588399D02*
X108124476Y-84555065D01*
X108124476Y-84555065D02*
X108162571Y-84555065D01*
X108162571Y-84555065D02*
X108238761Y-84588399D01*
X108238761Y-84588399D02*
X108276857Y-84621732D01*
X108276857Y-84621732D02*
X108314952Y-84688399D01*
X108314952Y-84688399D02*
X108314952Y-84821732D01*
X108314952Y-84821732D02*
X108353047Y-84888399D01*
X108353047Y-84888399D02*
X108391142Y-84921732D01*
X108391142Y-84921732D02*
X108467333Y-84955065D01*
X108467333Y-84955065D02*
X108619714Y-84955065D01*
X108619714Y-84955065D02*
X108695904Y-84921732D01*
X108695904Y-84921732D02*
X108734000Y-84888399D01*
X108734000Y-84888399D02*
X108772095Y-84821732D01*
X108772095Y-84821732D02*
X108772095Y-84688399D01*
X108772095Y-84688399D02*
X108734000Y-84621732D01*
X108734000Y-84621732D02*
X108695904Y-84588399D01*
X108695904Y-84588399D02*
X108619714Y-84555065D01*
X108619714Y-84555065D02*
X108467333Y-84555065D01*
X108467333Y-84555065D02*
X108391142Y-84588399D01*
X108391142Y-84588399D02*
X108353047Y-84621732D01*
X108353047Y-84621732D02*
X108314952Y-84688399D01*
X108772095Y-83721732D02*
X107972095Y-83721732D01*
X108772095Y-83321732D02*
X108314952Y-83621732D01*
X107972095Y-83321732D02*
X108429238Y-83721732D01*
X108772095Y-83021732D02*
X107972095Y-83021732D01*
X108353047Y-83021732D02*
X108353047Y-82621732D01*
X108772095Y-82621732D02*
X107972095Y-82621732D01*
X108238761Y-82355066D02*
X108238761Y-81988399D01*
X108238761Y-81988399D02*
X108772095Y-82355066D01*
X108772095Y-82355066D02*
X108772095Y-81988399D01*
%TO.C,R2*%
X142546833Y-72243495D02*
X142313500Y-71862542D01*
X142146833Y-72243495D02*
X142146833Y-71443495D01*
X142146833Y-71443495D02*
X142413500Y-71443495D01*
X142413500Y-71443495D02*
X142480167Y-71481590D01*
X142480167Y-71481590D02*
X142513500Y-71519685D01*
X142513500Y-71519685D02*
X142546833Y-71595876D01*
X142546833Y-71595876D02*
X142546833Y-71710161D01*
X142546833Y-71710161D02*
X142513500Y-71786352D01*
X142513500Y-71786352D02*
X142480167Y-71824447D01*
X142480167Y-71824447D02*
X142413500Y-71862542D01*
X142413500Y-71862542D02*
X142146833Y-71862542D01*
X142813500Y-71519685D02*
X142846833Y-71481590D01*
X142846833Y-71481590D02*
X142913500Y-71443495D01*
X142913500Y-71443495D02*
X143080167Y-71443495D01*
X143080167Y-71443495D02*
X143146833Y-71481590D01*
X143146833Y-71481590D02*
X143180167Y-71519685D01*
X143180167Y-71519685D02*
X143213500Y-71595876D01*
X143213500Y-71595876D02*
X143213500Y-71672066D01*
X143213500Y-71672066D02*
X143180167Y-71786352D01*
X143180167Y-71786352D02*
X142780167Y-72243495D01*
X142780167Y-72243495D02*
X143213500Y-72243495D01*
X141946833Y-75010161D02*
X141946833Y-75543495D01*
X141780167Y-74705400D02*
X141613500Y-75276828D01*
X141613500Y-75276828D02*
X142046833Y-75276828D01*
X142313500Y-75467304D02*
X142346834Y-75505400D01*
X142346834Y-75505400D02*
X142313500Y-75543495D01*
X142313500Y-75543495D02*
X142280167Y-75505400D01*
X142280167Y-75505400D02*
X142313500Y-75467304D01*
X142313500Y-75467304D02*
X142313500Y-75543495D01*
X142580167Y-74743495D02*
X143046833Y-74743495D01*
X143046833Y-74743495D02*
X142746833Y-75543495D01*
X143313500Y-75543495D02*
X143313500Y-74743495D01*
X143713500Y-75543495D02*
X143413500Y-75086352D01*
X143713500Y-74743495D02*
X143313500Y-75200638D01*
%TO.C,D1*%
X142166833Y-67747695D02*
X142166833Y-66947695D01*
X142166833Y-66947695D02*
X142333500Y-66947695D01*
X142333500Y-66947695D02*
X142433500Y-66985790D01*
X142433500Y-66985790D02*
X142500167Y-67061980D01*
X142500167Y-67061980D02*
X142533500Y-67138171D01*
X142533500Y-67138171D02*
X142566833Y-67290552D01*
X142566833Y-67290552D02*
X142566833Y-67404838D01*
X142566833Y-67404838D02*
X142533500Y-67557219D01*
X142533500Y-67557219D02*
X142500167Y-67633409D01*
X142500167Y-67633409D02*
X142433500Y-67709600D01*
X142433500Y-67709600D02*
X142333500Y-67747695D01*
X142333500Y-67747695D02*
X142166833Y-67747695D01*
X143233500Y-67747695D02*
X142833500Y-67747695D01*
X143033500Y-67747695D02*
X143033500Y-66947695D01*
X143033500Y-66947695D02*
X142966833Y-67061980D01*
X142966833Y-67061980D02*
X142900167Y-67138171D01*
X142900167Y-67138171D02*
X142833500Y-67176266D01*
X142233500Y-71047695D02*
X141900166Y-71047695D01*
X141900166Y-71047695D02*
X141900166Y-70247695D01*
X142466833Y-70628647D02*
X142700167Y-70628647D01*
X142800167Y-71047695D02*
X142466833Y-71047695D01*
X142466833Y-71047695D02*
X142466833Y-70247695D01*
X142466833Y-70247695D02*
X142800167Y-70247695D01*
X143100166Y-71047695D02*
X143100166Y-70247695D01*
X143100166Y-70247695D02*
X143266833Y-70247695D01*
X143266833Y-70247695D02*
X143366833Y-70285790D01*
X143366833Y-70285790D02*
X143433500Y-70361980D01*
X143433500Y-70361980D02*
X143466833Y-70438171D01*
X143466833Y-70438171D02*
X143500166Y-70590552D01*
X143500166Y-70590552D02*
X143500166Y-70704838D01*
X143500166Y-70704838D02*
X143466833Y-70857219D01*
X143466833Y-70857219D02*
X143433500Y-70933409D01*
X143433500Y-70933409D02*
X143366833Y-71009600D01*
X143366833Y-71009600D02*
X143266833Y-71047695D01*
X143266833Y-71047695D02*
X143100166Y-71047695D01*
%TO.C,R6*%
X134350933Y-78723895D02*
X134117600Y-78342942D01*
X133950933Y-78723895D02*
X133950933Y-77923895D01*
X133950933Y-77923895D02*
X134217600Y-77923895D01*
X134217600Y-77923895D02*
X134284267Y-77961990D01*
X134284267Y-77961990D02*
X134317600Y-78000085D01*
X134317600Y-78000085D02*
X134350933Y-78076276D01*
X134350933Y-78076276D02*
X134350933Y-78190561D01*
X134350933Y-78190561D02*
X134317600Y-78266752D01*
X134317600Y-78266752D02*
X134284267Y-78304847D01*
X134284267Y-78304847D02*
X134217600Y-78342942D01*
X134217600Y-78342942D02*
X133950933Y-78342942D01*
X134950933Y-77923895D02*
X134817600Y-77923895D01*
X134817600Y-77923895D02*
X134750933Y-77961990D01*
X134750933Y-77961990D02*
X134717600Y-78000085D01*
X134717600Y-78000085D02*
X134650933Y-78114371D01*
X134650933Y-78114371D02*
X134617600Y-78266752D01*
X134617600Y-78266752D02*
X134617600Y-78571514D01*
X134617600Y-78571514D02*
X134650933Y-78647704D01*
X134650933Y-78647704D02*
X134684267Y-78685800D01*
X134684267Y-78685800D02*
X134750933Y-78723895D01*
X134750933Y-78723895D02*
X134884267Y-78723895D01*
X134884267Y-78723895D02*
X134950933Y-78685800D01*
X134950933Y-78685800D02*
X134984267Y-78647704D01*
X134984267Y-78647704D02*
X135017600Y-78571514D01*
X135017600Y-78571514D02*
X135017600Y-78381038D01*
X135017600Y-78381038D02*
X134984267Y-78304847D01*
X134984267Y-78304847D02*
X134950933Y-78266752D01*
X134950933Y-78266752D02*
X134884267Y-78228657D01*
X134884267Y-78228657D02*
X134750933Y-78228657D01*
X134750933Y-78228657D02*
X134684267Y-78266752D01*
X134684267Y-78266752D02*
X134650933Y-78304847D01*
X134650933Y-78304847D02*
X134617600Y-78381038D01*
X136594066Y-80293295D02*
X136194066Y-80293295D01*
X136394066Y-80293295D02*
X136394066Y-79493295D01*
X136394066Y-79493295D02*
X136327399Y-79607580D01*
X136327399Y-79607580D02*
X136260733Y-79683771D01*
X136260733Y-79683771D02*
X136194066Y-79721866D01*
X137027400Y-79493295D02*
X137094066Y-79493295D01*
X137094066Y-79493295D02*
X137160733Y-79531390D01*
X137160733Y-79531390D02*
X137194066Y-79569485D01*
X137194066Y-79569485D02*
X137227400Y-79645676D01*
X137227400Y-79645676D02*
X137260733Y-79798057D01*
X137260733Y-79798057D02*
X137260733Y-79988533D01*
X137260733Y-79988533D02*
X137227400Y-80140914D01*
X137227400Y-80140914D02*
X137194066Y-80217104D01*
X137194066Y-80217104D02*
X137160733Y-80255200D01*
X137160733Y-80255200D02*
X137094066Y-80293295D01*
X137094066Y-80293295D02*
X137027400Y-80293295D01*
X137027400Y-80293295D02*
X136960733Y-80255200D01*
X136960733Y-80255200D02*
X136927400Y-80217104D01*
X136927400Y-80217104D02*
X136894066Y-80140914D01*
X136894066Y-80140914D02*
X136860733Y-79988533D01*
X136860733Y-79988533D02*
X136860733Y-79798057D01*
X136860733Y-79798057D02*
X136894066Y-79645676D01*
X136894066Y-79645676D02*
X136927400Y-79569485D01*
X136927400Y-79569485D02*
X136960733Y-79531390D01*
X136960733Y-79531390D02*
X137027400Y-79493295D01*
X137560733Y-80293295D02*
X137560733Y-79493295D01*
X137960733Y-80293295D02*
X137660733Y-79836152D01*
X137960733Y-79493295D02*
X137560733Y-79950438D01*
%TO.C,C2*%
X134401733Y-85810504D02*
X134368400Y-85848600D01*
X134368400Y-85848600D02*
X134268400Y-85886695D01*
X134268400Y-85886695D02*
X134201733Y-85886695D01*
X134201733Y-85886695D02*
X134101733Y-85848600D01*
X134101733Y-85848600D02*
X134035067Y-85772409D01*
X134035067Y-85772409D02*
X134001733Y-85696219D01*
X134001733Y-85696219D02*
X133968400Y-85543838D01*
X133968400Y-85543838D02*
X133968400Y-85429552D01*
X133968400Y-85429552D02*
X134001733Y-85277171D01*
X134001733Y-85277171D02*
X134035067Y-85200980D01*
X134035067Y-85200980D02*
X134101733Y-85124790D01*
X134101733Y-85124790D02*
X134201733Y-85086695D01*
X134201733Y-85086695D02*
X134268400Y-85086695D01*
X134268400Y-85086695D02*
X134368400Y-85124790D01*
X134368400Y-85124790D02*
X134401733Y-85162885D01*
X134668400Y-85162885D02*
X134701733Y-85124790D01*
X134701733Y-85124790D02*
X134768400Y-85086695D01*
X134768400Y-85086695D02*
X134935067Y-85086695D01*
X134935067Y-85086695D02*
X135001733Y-85124790D01*
X135001733Y-85124790D02*
X135035067Y-85162885D01*
X135035067Y-85162885D02*
X135068400Y-85239076D01*
X135068400Y-85239076D02*
X135068400Y-85315266D01*
X135068400Y-85315266D02*
X135035067Y-85429552D01*
X135035067Y-85429552D02*
X134635067Y-85886695D01*
X134635067Y-85886695D02*
X135068400Y-85886695D01*
X135927400Y-86863885D02*
X135960733Y-86825790D01*
X135960733Y-86825790D02*
X136027400Y-86787695D01*
X136027400Y-86787695D02*
X136194067Y-86787695D01*
X136194067Y-86787695D02*
X136260733Y-86825790D01*
X136260733Y-86825790D02*
X136294067Y-86863885D01*
X136294067Y-86863885D02*
X136327400Y-86940076D01*
X136327400Y-86940076D02*
X136327400Y-87016266D01*
X136327400Y-87016266D02*
X136294067Y-87130552D01*
X136294067Y-87130552D02*
X135894067Y-87587695D01*
X135894067Y-87587695D02*
X136327400Y-87587695D01*
X136594067Y-86863885D02*
X136627400Y-86825790D01*
X136627400Y-86825790D02*
X136694067Y-86787695D01*
X136694067Y-86787695D02*
X136860734Y-86787695D01*
X136860734Y-86787695D02*
X136927400Y-86825790D01*
X136927400Y-86825790D02*
X136960734Y-86863885D01*
X136960734Y-86863885D02*
X136994067Y-86940076D01*
X136994067Y-86940076D02*
X136994067Y-87016266D01*
X136994067Y-87016266D02*
X136960734Y-87130552D01*
X136960734Y-87130552D02*
X136560734Y-87587695D01*
X136560734Y-87587695D02*
X136994067Y-87587695D01*
X137294067Y-87054361D02*
X137294067Y-87854361D01*
X137294067Y-87092457D02*
X137360734Y-87054361D01*
X137360734Y-87054361D02*
X137494067Y-87054361D01*
X137494067Y-87054361D02*
X137560734Y-87092457D01*
X137560734Y-87092457D02*
X137594067Y-87130552D01*
X137594067Y-87130552D02*
X137627401Y-87206742D01*
X137627401Y-87206742D02*
X137627401Y-87435314D01*
X137627401Y-87435314D02*
X137594067Y-87511504D01*
X137594067Y-87511504D02*
X137560734Y-87549600D01*
X137560734Y-87549600D02*
X137494067Y-87587695D01*
X137494067Y-87587695D02*
X137360734Y-87587695D01*
X137360734Y-87587695D02*
X137294067Y-87549600D01*
X138160734Y-87168647D02*
X137927400Y-87168647D01*
X137927400Y-87587695D02*
X137927400Y-86787695D01*
X137927400Y-86787695D02*
X138260734Y-86787695D01*
%TO.C,U1*%
X113164866Y-74367095D02*
X113164866Y-75014714D01*
X113164866Y-75014714D02*
X113198200Y-75090904D01*
X113198200Y-75090904D02*
X113231533Y-75129000D01*
X113231533Y-75129000D02*
X113298200Y-75167095D01*
X113298200Y-75167095D02*
X113431533Y-75167095D01*
X113431533Y-75167095D02*
X113498200Y-75129000D01*
X113498200Y-75129000D02*
X113531533Y-75090904D01*
X113531533Y-75090904D02*
X113564866Y-75014714D01*
X113564866Y-75014714D02*
X113564866Y-74367095D01*
X114264866Y-75167095D02*
X113864866Y-75167095D01*
X114064866Y-75167095D02*
X114064866Y-74367095D01*
X114064866Y-74367095D02*
X113998199Y-74481380D01*
X113998199Y-74481380D02*
X113931533Y-74557571D01*
X113931533Y-74557571D02*
X113864866Y-74595666D01*
X111198199Y-81243285D02*
X111231532Y-81205190D01*
X111231532Y-81205190D02*
X111298199Y-81167095D01*
X111298199Y-81167095D02*
X111464866Y-81167095D01*
X111464866Y-81167095D02*
X111531532Y-81205190D01*
X111531532Y-81205190D02*
X111564866Y-81243285D01*
X111564866Y-81243285D02*
X111598199Y-81319476D01*
X111598199Y-81319476D02*
X111598199Y-81395666D01*
X111598199Y-81395666D02*
X111564866Y-81509952D01*
X111564866Y-81509952D02*
X111164866Y-81967095D01*
X111164866Y-81967095D02*
X111598199Y-81967095D01*
X112198199Y-81433761D02*
X112198199Y-81967095D01*
X112031533Y-81129000D02*
X111864866Y-81700428D01*
X111864866Y-81700428D02*
X112298199Y-81700428D01*
X112898200Y-81967095D02*
X112564866Y-81967095D01*
X112564866Y-81967095D02*
X112564866Y-81167095D01*
X113531533Y-81890904D02*
X113498200Y-81929000D01*
X113498200Y-81929000D02*
X113398200Y-81967095D01*
X113398200Y-81967095D02*
X113331533Y-81967095D01*
X113331533Y-81967095D02*
X113231533Y-81929000D01*
X113231533Y-81929000D02*
X113164867Y-81852809D01*
X113164867Y-81852809D02*
X113131533Y-81776619D01*
X113131533Y-81776619D02*
X113098200Y-81624238D01*
X113098200Y-81624238D02*
X113098200Y-81509952D01*
X113098200Y-81509952D02*
X113131533Y-81357571D01*
X113131533Y-81357571D02*
X113164867Y-81281380D01*
X113164867Y-81281380D02*
X113231533Y-81205190D01*
X113231533Y-81205190D02*
X113331533Y-81167095D01*
X113331533Y-81167095D02*
X113398200Y-81167095D01*
X113398200Y-81167095D02*
X113498200Y-81205190D01*
X113498200Y-81205190D02*
X113531533Y-81243285D01*
X114198200Y-81967095D02*
X113798200Y-81967095D01*
X113998200Y-81967095D02*
X113998200Y-81167095D01*
X113998200Y-81167095D02*
X113931533Y-81281380D01*
X113931533Y-81281380D02*
X113864867Y-81357571D01*
X113864867Y-81357571D02*
X113798200Y-81395666D01*
X114631534Y-81167095D02*
X114698200Y-81167095D01*
X114698200Y-81167095D02*
X114764867Y-81205190D01*
X114764867Y-81205190D02*
X114798200Y-81243285D01*
X114798200Y-81243285D02*
X114831534Y-81319476D01*
X114831534Y-81319476D02*
X114864867Y-81471857D01*
X114864867Y-81471857D02*
X114864867Y-81662333D01*
X114864867Y-81662333D02*
X114831534Y-81814714D01*
X114831534Y-81814714D02*
X114798200Y-81890904D01*
X114798200Y-81890904D02*
X114764867Y-81929000D01*
X114764867Y-81929000D02*
X114698200Y-81967095D01*
X114698200Y-81967095D02*
X114631534Y-81967095D01*
X114631534Y-81967095D02*
X114564867Y-81929000D01*
X114564867Y-81929000D02*
X114531534Y-81890904D01*
X114531534Y-81890904D02*
X114498200Y-81814714D01*
X114498200Y-81814714D02*
X114464867Y-81662333D01*
X114464867Y-81662333D02*
X114464867Y-81471857D01*
X114464867Y-81471857D02*
X114498200Y-81319476D01*
X114498200Y-81319476D02*
X114531534Y-81243285D01*
X114531534Y-81243285D02*
X114564867Y-81205190D01*
X114564867Y-81205190D02*
X114631534Y-81167095D01*
X115131534Y-81243285D02*
X115164867Y-81205190D01*
X115164867Y-81205190D02*
X115231534Y-81167095D01*
X115231534Y-81167095D02*
X115398201Y-81167095D01*
X115398201Y-81167095D02*
X115464867Y-81205190D01*
X115464867Y-81205190D02*
X115498201Y-81243285D01*
X115498201Y-81243285D02*
X115531534Y-81319476D01*
X115531534Y-81319476D02*
X115531534Y-81395666D01*
X115531534Y-81395666D02*
X115498201Y-81509952D01*
X115498201Y-81509952D02*
X115098201Y-81967095D01*
X115098201Y-81967095D02*
X115531534Y-81967095D01*
X116164868Y-81167095D02*
X115831534Y-81167095D01*
X115831534Y-81167095D02*
X115798201Y-81548047D01*
X115798201Y-81548047D02*
X115831534Y-81509952D01*
X115831534Y-81509952D02*
X115898201Y-81471857D01*
X115898201Y-81471857D02*
X116064868Y-81471857D01*
X116064868Y-81471857D02*
X116131534Y-81509952D01*
X116131534Y-81509952D02*
X116164868Y-81548047D01*
X116164868Y-81548047D02*
X116198201Y-81624238D01*
X116198201Y-81624238D02*
X116198201Y-81814714D01*
X116198201Y-81814714D02*
X116164868Y-81890904D01*
X116164868Y-81890904D02*
X116131534Y-81929000D01*
X116131534Y-81929000D02*
X116064868Y-81967095D01*
X116064868Y-81967095D02*
X115898201Y-81967095D01*
X115898201Y-81967095D02*
X115831534Y-81929000D01*
X115831534Y-81929000D02*
X115798201Y-81890904D01*
%TO.C,H2*%
X104241666Y-99374095D02*
X104241666Y-98574095D01*
X104241666Y-98955047D02*
X104641666Y-98955047D01*
X104641666Y-99374095D02*
X104641666Y-98574095D01*
X104941666Y-98650285D02*
X104974999Y-98612190D01*
X104974999Y-98612190D02*
X105041666Y-98574095D01*
X105041666Y-98574095D02*
X105208333Y-98574095D01*
X105208333Y-98574095D02*
X105274999Y-98612190D01*
X105274999Y-98612190D02*
X105308333Y-98650285D01*
X105308333Y-98650285D02*
X105341666Y-98726476D01*
X105341666Y-98726476D02*
X105341666Y-98802666D01*
X105341666Y-98802666D02*
X105308333Y-98916952D01*
X105308333Y-98916952D02*
X104908333Y-99374095D01*
X104908333Y-99374095D02*
X105341666Y-99374095D01*
%TO.C,D2*%
X136580733Y-67747695D02*
X136580733Y-66947695D01*
X136580733Y-66947695D02*
X136747400Y-66947695D01*
X136747400Y-66947695D02*
X136847400Y-66985790D01*
X136847400Y-66985790D02*
X136914067Y-67061980D01*
X136914067Y-67061980D02*
X136947400Y-67138171D01*
X136947400Y-67138171D02*
X136980733Y-67290552D01*
X136980733Y-67290552D02*
X136980733Y-67404838D01*
X136980733Y-67404838D02*
X136947400Y-67557219D01*
X136947400Y-67557219D02*
X136914067Y-67633409D01*
X136914067Y-67633409D02*
X136847400Y-67709600D01*
X136847400Y-67709600D02*
X136747400Y-67747695D01*
X136747400Y-67747695D02*
X136580733Y-67747695D01*
X137247400Y-67023885D02*
X137280733Y-66985790D01*
X137280733Y-66985790D02*
X137347400Y-66947695D01*
X137347400Y-66947695D02*
X137514067Y-66947695D01*
X137514067Y-66947695D02*
X137580733Y-66985790D01*
X137580733Y-66985790D02*
X137614067Y-67023885D01*
X137614067Y-67023885D02*
X137647400Y-67100076D01*
X137647400Y-67100076D02*
X137647400Y-67176266D01*
X137647400Y-67176266D02*
X137614067Y-67290552D01*
X137614067Y-67290552D02*
X137214067Y-67747695D01*
X137214067Y-67747695D02*
X137647400Y-67747695D01*
X136647400Y-71047695D02*
X136314066Y-71047695D01*
X136314066Y-71047695D02*
X136314066Y-70247695D01*
X136880733Y-70628647D02*
X137114067Y-70628647D01*
X137214067Y-71047695D02*
X136880733Y-71047695D01*
X136880733Y-71047695D02*
X136880733Y-70247695D01*
X136880733Y-70247695D02*
X137214067Y-70247695D01*
X137514066Y-71047695D02*
X137514066Y-70247695D01*
X137514066Y-70247695D02*
X137680733Y-70247695D01*
X137680733Y-70247695D02*
X137780733Y-70285790D01*
X137780733Y-70285790D02*
X137847400Y-70361980D01*
X137847400Y-70361980D02*
X137880733Y-70438171D01*
X137880733Y-70438171D02*
X137914066Y-70590552D01*
X137914066Y-70590552D02*
X137914066Y-70704838D01*
X137914066Y-70704838D02*
X137880733Y-70857219D01*
X137880733Y-70857219D02*
X137847400Y-70933409D01*
X137847400Y-70933409D02*
X137780733Y-71009600D01*
X137780733Y-71009600D02*
X137680733Y-71047695D01*
X137680733Y-71047695D02*
X137514066Y-71047695D01*
%TO.C,R5*%
X134427133Y-82584695D02*
X134193800Y-82203742D01*
X134027133Y-82584695D02*
X134027133Y-81784695D01*
X134027133Y-81784695D02*
X134293800Y-81784695D01*
X134293800Y-81784695D02*
X134360467Y-81822790D01*
X134360467Y-81822790D02*
X134393800Y-81860885D01*
X134393800Y-81860885D02*
X134427133Y-81937076D01*
X134427133Y-81937076D02*
X134427133Y-82051361D01*
X134427133Y-82051361D02*
X134393800Y-82127552D01*
X134393800Y-82127552D02*
X134360467Y-82165647D01*
X134360467Y-82165647D02*
X134293800Y-82203742D01*
X134293800Y-82203742D02*
X134027133Y-82203742D01*
X135060467Y-81784695D02*
X134727133Y-81784695D01*
X134727133Y-81784695D02*
X134693800Y-82165647D01*
X134693800Y-82165647D02*
X134727133Y-82127552D01*
X134727133Y-82127552D02*
X134793800Y-82089457D01*
X134793800Y-82089457D02*
X134960467Y-82089457D01*
X134960467Y-82089457D02*
X135027133Y-82127552D01*
X135027133Y-82127552D02*
X135060467Y-82165647D01*
X135060467Y-82165647D02*
X135093800Y-82241838D01*
X135093800Y-82241838D02*
X135093800Y-82432314D01*
X135093800Y-82432314D02*
X135060467Y-82508504D01*
X135060467Y-82508504D02*
X135027133Y-82546600D01*
X135027133Y-82546600D02*
X134960467Y-82584695D01*
X134960467Y-82584695D02*
X134793800Y-82584695D01*
X134793800Y-82584695D02*
X134727133Y-82546600D01*
X134727133Y-82546600D02*
X134693800Y-82508504D01*
X136177400Y-83100095D02*
X136610733Y-83100095D01*
X136610733Y-83100095D02*
X136377400Y-83404857D01*
X136377400Y-83404857D02*
X136477400Y-83404857D01*
X136477400Y-83404857D02*
X136544066Y-83442952D01*
X136544066Y-83442952D02*
X136577400Y-83481047D01*
X136577400Y-83481047D02*
X136610733Y-83557238D01*
X136610733Y-83557238D02*
X136610733Y-83747714D01*
X136610733Y-83747714D02*
X136577400Y-83823904D01*
X136577400Y-83823904D02*
X136544066Y-83862000D01*
X136544066Y-83862000D02*
X136477400Y-83900095D01*
X136477400Y-83900095D02*
X136277400Y-83900095D01*
X136277400Y-83900095D02*
X136210733Y-83862000D01*
X136210733Y-83862000D02*
X136177400Y-83823904D01*
X136844067Y-83100095D02*
X137277400Y-83100095D01*
X137277400Y-83100095D02*
X137044067Y-83404857D01*
X137044067Y-83404857D02*
X137144067Y-83404857D01*
X137144067Y-83404857D02*
X137210733Y-83442952D01*
X137210733Y-83442952D02*
X137244067Y-83481047D01*
X137244067Y-83481047D02*
X137277400Y-83557238D01*
X137277400Y-83557238D02*
X137277400Y-83747714D01*
X137277400Y-83747714D02*
X137244067Y-83823904D01*
X137244067Y-83823904D02*
X137210733Y-83862000D01*
X137210733Y-83862000D02*
X137144067Y-83900095D01*
X137144067Y-83900095D02*
X136944067Y-83900095D01*
X136944067Y-83900095D02*
X136877400Y-83862000D01*
X136877400Y-83862000D02*
X136844067Y-83823904D01*
X137710734Y-83100095D02*
X137777400Y-83100095D01*
X137777400Y-83100095D02*
X137844067Y-83138190D01*
X137844067Y-83138190D02*
X137877400Y-83176285D01*
X137877400Y-83176285D02*
X137910734Y-83252476D01*
X137910734Y-83252476D02*
X137944067Y-83404857D01*
X137944067Y-83404857D02*
X137944067Y-83595333D01*
X137944067Y-83595333D02*
X137910734Y-83747714D01*
X137910734Y-83747714D02*
X137877400Y-83823904D01*
X137877400Y-83823904D02*
X137844067Y-83862000D01*
X137844067Y-83862000D02*
X137777400Y-83900095D01*
X137777400Y-83900095D02*
X137710734Y-83900095D01*
X137710734Y-83900095D02*
X137644067Y-83862000D01*
X137644067Y-83862000D02*
X137610734Y-83823904D01*
X137610734Y-83823904D02*
X137577400Y-83747714D01*
X137577400Y-83747714D02*
X137544067Y-83595333D01*
X137544067Y-83595333D02*
X137544067Y-83404857D01*
X137544067Y-83404857D02*
X137577400Y-83252476D01*
X137577400Y-83252476D02*
X137610734Y-83176285D01*
X137610734Y-83176285D02*
X137644067Y-83138190D01*
X137644067Y-83138190D02*
X137710734Y-83100095D01*
%TO.C,C5*%
X121466733Y-67285904D02*
X121433400Y-67324000D01*
X121433400Y-67324000D02*
X121333400Y-67362095D01*
X121333400Y-67362095D02*
X121266733Y-67362095D01*
X121266733Y-67362095D02*
X121166733Y-67324000D01*
X121166733Y-67324000D02*
X121100067Y-67247809D01*
X121100067Y-67247809D02*
X121066733Y-67171619D01*
X121066733Y-67171619D02*
X121033400Y-67019238D01*
X121033400Y-67019238D02*
X121033400Y-66904952D01*
X121033400Y-66904952D02*
X121066733Y-66752571D01*
X121066733Y-66752571D02*
X121100067Y-66676380D01*
X121100067Y-66676380D02*
X121166733Y-66600190D01*
X121166733Y-66600190D02*
X121266733Y-66562095D01*
X121266733Y-66562095D02*
X121333400Y-66562095D01*
X121333400Y-66562095D02*
X121433400Y-66600190D01*
X121433400Y-66600190D02*
X121466733Y-66638285D01*
X122100067Y-66562095D02*
X121766733Y-66562095D01*
X121766733Y-66562095D02*
X121733400Y-66943047D01*
X121733400Y-66943047D02*
X121766733Y-66904952D01*
X121766733Y-66904952D02*
X121833400Y-66866857D01*
X121833400Y-66866857D02*
X122000067Y-66866857D01*
X122000067Y-66866857D02*
X122066733Y-66904952D01*
X122066733Y-66904952D02*
X122100067Y-66943047D01*
X122100067Y-66943047D02*
X122133400Y-67019238D01*
X122133400Y-67019238D02*
X122133400Y-67209714D01*
X122133400Y-67209714D02*
X122100067Y-67285904D01*
X122100067Y-67285904D02*
X122066733Y-67324000D01*
X122066733Y-67324000D02*
X122000067Y-67362095D01*
X122000067Y-67362095D02*
X121833400Y-67362095D01*
X121833400Y-67362095D02*
X121766733Y-67324000D01*
X121766733Y-67324000D02*
X121733400Y-67285904D01*
X120500066Y-70722095D02*
X120100066Y-70722095D01*
X120300066Y-70722095D02*
X120300066Y-69922095D01*
X120300066Y-69922095D02*
X120233399Y-70036380D01*
X120233399Y-70036380D02*
X120166733Y-70112571D01*
X120166733Y-70112571D02*
X120100066Y-70150666D01*
X120933400Y-69922095D02*
X121000066Y-69922095D01*
X121000066Y-69922095D02*
X121066733Y-69960190D01*
X121066733Y-69960190D02*
X121100066Y-69998285D01*
X121100066Y-69998285D02*
X121133400Y-70074476D01*
X121133400Y-70074476D02*
X121166733Y-70226857D01*
X121166733Y-70226857D02*
X121166733Y-70417333D01*
X121166733Y-70417333D02*
X121133400Y-70569714D01*
X121133400Y-70569714D02*
X121100066Y-70645904D01*
X121100066Y-70645904D02*
X121066733Y-70684000D01*
X121066733Y-70684000D02*
X121000066Y-70722095D01*
X121000066Y-70722095D02*
X120933400Y-70722095D01*
X120933400Y-70722095D02*
X120866733Y-70684000D01*
X120866733Y-70684000D02*
X120833400Y-70645904D01*
X120833400Y-70645904D02*
X120800066Y-70569714D01*
X120800066Y-70569714D02*
X120766733Y-70417333D01*
X120766733Y-70417333D02*
X120766733Y-70226857D01*
X120766733Y-70226857D02*
X120800066Y-70074476D01*
X120800066Y-70074476D02*
X120833400Y-69998285D01*
X120833400Y-69998285D02*
X120866733Y-69960190D01*
X120866733Y-69960190D02*
X120933400Y-69922095D01*
X121600067Y-69922095D02*
X121666733Y-69922095D01*
X121666733Y-69922095D02*
X121733400Y-69960190D01*
X121733400Y-69960190D02*
X121766733Y-69998285D01*
X121766733Y-69998285D02*
X121800067Y-70074476D01*
X121800067Y-70074476D02*
X121833400Y-70226857D01*
X121833400Y-70226857D02*
X121833400Y-70417333D01*
X121833400Y-70417333D02*
X121800067Y-70569714D01*
X121800067Y-70569714D02*
X121766733Y-70645904D01*
X121766733Y-70645904D02*
X121733400Y-70684000D01*
X121733400Y-70684000D02*
X121666733Y-70722095D01*
X121666733Y-70722095D02*
X121600067Y-70722095D01*
X121600067Y-70722095D02*
X121533400Y-70684000D01*
X121533400Y-70684000D02*
X121500067Y-70645904D01*
X121500067Y-70645904D02*
X121466733Y-70569714D01*
X121466733Y-70569714D02*
X121433400Y-70417333D01*
X121433400Y-70417333D02*
X121433400Y-70226857D01*
X121433400Y-70226857D02*
X121466733Y-70074476D01*
X121466733Y-70074476D02*
X121500067Y-69998285D01*
X121500067Y-69998285D02*
X121533400Y-69960190D01*
X121533400Y-69960190D02*
X121600067Y-69922095D01*
X122133400Y-70188761D02*
X122133400Y-70722095D01*
X122133400Y-70264952D02*
X122166734Y-70226857D01*
X122166734Y-70226857D02*
X122233400Y-70188761D01*
X122233400Y-70188761D02*
X122333400Y-70188761D01*
X122333400Y-70188761D02*
X122400067Y-70226857D01*
X122400067Y-70226857D02*
X122433400Y-70303047D01*
X122433400Y-70303047D02*
X122433400Y-70722095D01*
X123000067Y-70303047D02*
X122766733Y-70303047D01*
X122766733Y-70722095D02*
X122766733Y-69922095D01*
X122766733Y-69922095D02*
X123100067Y-69922095D01*
D12*
%TO.C,R3*%
X111120136Y-90040200D02*
X111574264Y-90040200D01*
X111120136Y-91510200D02*
X111574264Y-91510200D01*
%TO.C,U3*%
X113698200Y-67717400D02*
X110248200Y-67717400D01*
X113698200Y-67717400D02*
X115648200Y-67717400D01*
X113698200Y-72837400D02*
X111748200Y-72837400D01*
X113698200Y-72837400D02*
X115648200Y-72837400D01*
%TO.C,Y2*%
X121977200Y-86562200D02*
X121977200Y-90162200D01*
X121977200Y-90162200D02*
X129227200Y-90162200D01*
X129227200Y-86562200D02*
X121977200Y-86562200D01*
%TO.C,R4*%
X115438136Y-89887800D02*
X115892264Y-89887800D01*
X115438136Y-91357800D02*
X115892264Y-91357800D01*
D13*
%TO.C,U4*%
X123138000Y-73838600D02*
X123138000Y-73943600D01*
X123138000Y-73838600D02*
X123243000Y-73838600D01*
X123138000Y-80838600D02*
X123138000Y-80733600D01*
X123138000Y-80838600D02*
X123243000Y-80838600D01*
X130138000Y-73838600D02*
X130033000Y-73838600D01*
X130138000Y-73838600D02*
X130138000Y-73943600D01*
X130138000Y-80838600D02*
X130033000Y-80838600D01*
X130138000Y-80838600D02*
X130138000Y-80733600D01*
D14*
X120898000Y-74538600D02*
G75*
G03*
X120898000Y-74538600I-100000J0D01*
G01*
D12*
%TO.C,C3*%
X136816148Y-88973400D02*
X137338652Y-88973400D01*
X136816148Y-90443400D02*
X137338652Y-90443400D01*
D13*
%TO.C,U2*%
X111709400Y-83124400D02*
X115709400Y-83124400D01*
X111709400Y-88164400D02*
X115709400Y-88164400D01*
D14*
X109364400Y-83149400D02*
G75*
G03*
X109364400Y-83149400I-100000J0D01*
G01*
D12*
%TO.C,R7*%
X142436436Y-77543400D02*
X142890564Y-77543400D01*
X142436436Y-79013400D02*
X142890564Y-79013400D01*
%TO.C,J1*%
X147996600Y-81118400D02*
X149326600Y-81118400D01*
X147996600Y-82448400D02*
X147996600Y-81118400D01*
X147996600Y-83718400D02*
X147996600Y-91398400D01*
X147996600Y-83718400D02*
X150656600Y-83718400D01*
X147996600Y-91398400D02*
X150656600Y-91398400D01*
X150656600Y-83718400D02*
X150656600Y-91398400D01*
%TO.C,J2*%
X108448800Y-96199000D02*
X108448800Y-94869000D01*
X109778800Y-96199000D02*
X108448800Y-96199000D01*
X111048800Y-96199000D02*
X131428800Y-96199000D01*
X111048800Y-96199000D02*
X111048800Y-93539000D01*
X131428800Y-96199000D02*
X131428800Y-93539000D01*
X111048800Y-93539000D02*
X131428800Y-93539000D01*
%TO.C,J3*%
X135474400Y-96173600D02*
X135474400Y-94843600D01*
X136804400Y-96173600D02*
X135474400Y-96173600D01*
X138074400Y-96173600D02*
X145754400Y-96173600D01*
X138074400Y-96173600D02*
X138074400Y-93513600D01*
X145754400Y-96173600D02*
X145754400Y-93513600D01*
X138074400Y-93513600D02*
X145754400Y-93513600D01*
%TO.C,J4*%
X145609000Y-72355400D02*
X146939000Y-72355400D01*
X145609000Y-73685400D02*
X145609000Y-72355400D01*
X145609000Y-74955400D02*
X145609000Y-80095400D01*
X145609000Y-74955400D02*
X148209000Y-74955400D01*
X145609000Y-80095400D02*
X150809000Y-80095400D01*
X148209000Y-72355400D02*
X150809000Y-72355400D01*
X148209000Y-74955400D02*
X148209000Y-72355400D01*
X150809000Y-72355400D02*
X150809000Y-80095400D01*
%TO.C,C1*%
X130364548Y-67942200D02*
X130887052Y-67942200D01*
X130364548Y-69412200D02*
X130887052Y-69412200D01*
%TO.C,BT1*%
X104867400Y-74077600D02*
X106197400Y-74077600D01*
X104867400Y-75407600D02*
X104867400Y-74077600D01*
X104867400Y-76677600D02*
X104867400Y-79277600D01*
X104867400Y-76677600D02*
X107527400Y-76677600D01*
X104867400Y-79277600D02*
X107527400Y-79277600D01*
X107527400Y-76677600D02*
X107527400Y-79277600D01*
%TO.C,R1*%
X136850336Y-72869800D02*
X137304464Y-72869800D01*
X136850336Y-74339800D02*
X137304464Y-74339800D01*
%TO.C,C4*%
X125919548Y-67993000D02*
X126442052Y-67993000D01*
X125919548Y-69463000D02*
X126442052Y-69463000D01*
%TO.C,Y1*%
X104067200Y-91138600D02*
X107667200Y-91138600D01*
X107667200Y-91138600D02*
X107667200Y-83888600D01*
X104067200Y-83888600D02*
X104067200Y-91138600D01*
%TO.C,R2*%
X142436436Y-72793600D02*
X142890564Y-72793600D01*
X142436436Y-74263600D02*
X142890564Y-74263600D01*
%TO.C,D1*%
X140998500Y-68072800D02*
X140998500Y-69992800D01*
X140998500Y-69992800D02*
X143683500Y-69992800D01*
X143683500Y-68072800D02*
X140998500Y-68072800D01*
%TO.C,R6*%
X136850336Y-77543400D02*
X137304464Y-77543400D01*
X136850336Y-79013400D02*
X137304464Y-79013400D01*
%TO.C,C2*%
X136816148Y-84807800D02*
X137338652Y-84807800D01*
X136816148Y-86277800D02*
X137338652Y-86277800D01*
%TO.C,U1*%
X113698200Y-75642200D02*
X110248200Y-75642200D01*
X113698200Y-75642200D02*
X115648200Y-75642200D01*
X113698200Y-80762200D02*
X111748200Y-80762200D01*
X113698200Y-80762200D02*
X115648200Y-80762200D01*
%TO.C,D2*%
X135412400Y-68072800D02*
X135412400Y-69992800D01*
X135412400Y-69992800D02*
X138097400Y-69992800D01*
X138097400Y-68072800D02*
X135412400Y-68072800D01*
%TO.C,R5*%
X136850336Y-81150200D02*
X137304464Y-81150200D01*
X136850336Y-82620200D02*
X137304464Y-82620200D01*
%TO.C,C5*%
X121322148Y-67942200D02*
X121844652Y-67942200D01*
X121322148Y-69412200D02*
X121844652Y-69412200D01*
%TD*%
M02*
