%TF.GenerationSoftware,KiCad,Pcbnew,7.0.5*%
%TF.CreationDate,2024-03-10T01:27:25+05:30*%
%TF.ProjectId,mcu datalogger,6d637520-6461-4746-916c-6f676765722e,1*%
%TF.SameCoordinates,Original*%
%TF.FileFunction,Copper,L4,Bot*%
%TF.FilePolarity,Positive*%
%FSLAX46Y46*%
G04 Gerber Fmt 4.6, Leading zero omitted, Abs format (unit mm)*
G04 Created by KiCad (PCBNEW 7.0.5) date 2024-03-10 01:27:25*
%MOMM*%
%LPD*%
G01*
G04 APERTURE LIST*
%TA.AperFunction,ComponentPad*%
%ADD10R,1.700000X1.700000*%
%TD*%
%TA.AperFunction,ComponentPad*%
%ADD11O,1.700000X1.700000*%
%TD*%
%TA.AperFunction,ViaPad*%
%ADD12C,0.800000*%
%TD*%
G04 APERTURE END LIST*
D10*
%TO.P,J1,1,Pin_1*%
%TO.N,GND*%
X149326600Y-82448400D03*
D11*
%TO.P,J1,2,Pin_2*%
%TO.N,/Vcc*%
X149326600Y-84988400D03*
%TO.P,J1,3,Pin_3*%
%TO.N,/SDA*%
X149326600Y-87528400D03*
%TO.P,J1,4,Pin_4*%
%TO.N,/SCL*%
X149326600Y-90068400D03*
%TD*%
D10*
%TO.P,J2,1,Pin_1*%
%TO.N,/D2*%
X109778800Y-94869000D03*
D11*
%TO.P,J2,2,Pin_2*%
%TO.N,/D3*%
X112318800Y-94869000D03*
%TO.P,J2,3,Pin_3*%
%TO.N,/D4*%
X114858800Y-94869000D03*
%TO.P,J2,4,Pin_4*%
%TO.N,/D5*%
X117398800Y-94869000D03*
%TO.P,J2,5,Pin_5*%
%TO.N,/D6*%
X119938800Y-94869000D03*
%TO.P,J2,6,Pin_6*%
%TO.N,/D7*%
X122478800Y-94869000D03*
%TO.P,J2,7,Pin_7*%
%TO.N,/D8*%
X125018800Y-94869000D03*
%TO.P,J2,8,Pin_8*%
%TO.N,GND*%
X127558800Y-94869000D03*
%TO.P,J2,9,Pin_9*%
%TO.N,/Vcc*%
X130098800Y-94869000D03*
%TD*%
D10*
%TO.P,J3,1,Pin_1*%
%TO.N,GND*%
X136804400Y-94843600D03*
D11*
%TO.P,J3,2,Pin_2*%
%TO.N,/Vcc*%
X139344400Y-94843600D03*
%TO.P,J3,3,Pin_3*%
%TO.N,/RX*%
X141884400Y-94843600D03*
%TO.P,J3,4,Pin_4*%
%TO.N,/TX*%
X144424400Y-94843600D03*
%TD*%
D10*
%TO.P,J4,1,Pin_1*%
%TO.N,/MISO*%
X146939000Y-73685400D03*
D11*
%TO.P,J4,2,Pin_2*%
%TO.N,/Vcc*%
X149479000Y-73685400D03*
%TO.P,J4,3,Pin_3*%
%TO.N,/SCK*%
X146939000Y-76225400D03*
%TO.P,J4,4,Pin_4*%
%TO.N,/MOSI*%
X149479000Y-76225400D03*
%TO.P,J4,5,Pin_5*%
%TO.N,/RST*%
X146939000Y-78765400D03*
%TO.P,J4,6,Pin_6*%
%TO.N,GND*%
X149479000Y-78765400D03*
%TD*%
D10*
%TO.P,BT1,1,+*%
%TO.N,/Vcc*%
X106197400Y-75407600D03*
D11*
%TO.P,BT1,2,-*%
%TO.N,GND*%
X106197400Y-77947600D03*
%TD*%
D12*
%TO.N,/SCL*%
X113805500Y-76663000D03*
X114313500Y-72065600D03*
%TO.N,/Vcc*%
X128867700Y-70160600D03*
X109309700Y-68154000D03*
X140500900Y-72954600D03*
X116015300Y-89286800D03*
X108827100Y-89794800D03*
X117488500Y-82327200D03*
X138900700Y-70287600D03*
X138621300Y-74910400D03*
X138621300Y-79711000D03*
%TO.N,GND*%
X124295700Y-77907600D03*
%TO.N,/Vcc*%
X124702100Y-76866200D03*
X116472500Y-74656400D03*
X113145100Y-77552000D03*
%TO.N,GND*%
X144107700Y-80142800D03*
X124524300Y-75799400D03*
X132576100Y-77933000D03*
X134989100Y-86315000D03*
X134735100Y-89871000D03*
X140373900Y-68789000D03*
X133312700Y-69474800D03*
X109817700Y-81006400D03*
X109335100Y-88067600D03*
%TO.N,/SCL*%
X114516700Y-84892600D03*
X114262700Y-79482400D03*
X120688900Y-73005400D03*
X127318300Y-74859600D03*
%TO.N,/SDA*%
X118250500Y-72141800D03*
%TO.N,/SCL*%
X146469900Y-90201200D03*
X134887500Y-72421200D03*
%TO.N,/SDA*%
X129223300Y-74707200D03*
X141059700Y-71583000D03*
X144514100Y-74986600D03*
X146292100Y-86289600D03*
%TO.N,Net-(D1-A)*%
X143320300Y-70770200D03*
X134912900Y-81387400D03*
%TO.N,/MISO*%
X131102900Y-82987600D03*
X141389900Y-76358200D03*
%TO.N,/MOSI*%
X128994700Y-83521000D03*
X141237500Y-83673400D03*
%TO.N,/SCK*%
X139053100Y-83267000D03*
X141364500Y-81285800D03*
%TO.N,Net-(U4-PB6)*%
X128105700Y-85908600D03*
X124371900Y-79355400D03*
%TO.N,Net-(U4-AREF)*%
X127800900Y-77653600D03*
X127292900Y-69982800D03*
%TO.N,/RST*%
X136944900Y-79838000D03*
X143269500Y-82174800D03*
X126187200Y-75209400D03*
X136194800Y-76809600D03*
%TO.N,Net-(U4-PB7)*%
X124155200Y-91236800D03*
X134289800Y-91490800D03*
%TD*%
%TA.AperFunction,Conductor*%
%TO.N,GND*%
G36*
X148002848Y-66807290D02*
G01*
X148060884Y-66846194D01*
X148088674Y-66910300D01*
X148077395Y-66979253D01*
X148062639Y-67002789D01*
X147308099Y-67950800D01*
X147358900Y-69373200D01*
X148070098Y-70617798D01*
X148070099Y-70617798D01*
X148070100Y-70617800D01*
X149695700Y-71278200D01*
X150940300Y-71100400D01*
X151493695Y-70583897D01*
X151556133Y-70552547D01*
X151625612Y-70559931D01*
X151680069Y-70603705D01*
X151702215Y-70669972D01*
X151702300Y-70674550D01*
X151702300Y-93057796D01*
X151682615Y-93124835D01*
X151629811Y-93170590D01*
X151560653Y-93180534D01*
X151515430Y-93164676D01*
X151270502Y-93020601D01*
X151270493Y-93020597D01*
X150330700Y-92690400D01*
X149213100Y-92741199D01*
X149213099Y-92741199D01*
X148273301Y-93198398D01*
X148273297Y-93198401D01*
X147968493Y-93554008D01*
X147968491Y-93554010D01*
X147384301Y-94392197D01*
X147384300Y-94392200D01*
X147308099Y-95636799D01*
X147308099Y-95636800D01*
X147819472Y-96837414D01*
X147827632Y-96906806D01*
X147796981Y-96969593D01*
X147737250Y-97005842D01*
X147706457Y-97010000D01*
X106854338Y-97361740D01*
X106787131Y-97342634D01*
X106740923Y-97290226D01*
X106730385Y-97221155D01*
X106756804Y-97159832D01*
X107125300Y-96703600D01*
X107337390Y-95766870D01*
X108428300Y-95766870D01*
X108428301Y-95766876D01*
X108434708Y-95826483D01*
X108485002Y-95961328D01*
X108485006Y-95961335D01*
X108571252Y-96076544D01*
X108571255Y-96076547D01*
X108686464Y-96162793D01*
X108686471Y-96162797D01*
X108821317Y-96213091D01*
X108821316Y-96213091D01*
X108828244Y-96213835D01*
X108880927Y-96219500D01*
X110676672Y-96219499D01*
X110736283Y-96213091D01*
X110871131Y-96162796D01*
X110986346Y-96076546D01*
X111072596Y-95961331D01*
X111121610Y-95829916D01*
X111163481Y-95773984D01*
X111228945Y-95749566D01*
X111297218Y-95764417D01*
X111325472Y-95785568D01*
X111447399Y-95907495D01*
X111544184Y-95975264D01*
X111640965Y-96043032D01*
X111640967Y-96043033D01*
X111640970Y-96043035D01*
X111855137Y-96142903D01*
X112083392Y-96204063D01*
X112259834Y-96219500D01*
X112318799Y-96224659D01*
X112318800Y-96224659D01*
X112318801Y-96224659D01*
X112377766Y-96219500D01*
X112554208Y-96204063D01*
X112782463Y-96142903D01*
X112996630Y-96043035D01*
X113190201Y-95907495D01*
X113357295Y-95740401D01*
X113487224Y-95554842D01*
X113541802Y-95511217D01*
X113611300Y-95504023D01*
X113673655Y-95535546D01*
X113690375Y-95554842D01*
X113820300Y-95740395D01*
X113820305Y-95740401D01*
X113987399Y-95907495D01*
X114084184Y-95975264D01*
X114180965Y-96043032D01*
X114180967Y-96043033D01*
X114180970Y-96043035D01*
X114395137Y-96142903D01*
X114623392Y-96204063D01*
X114799834Y-96219500D01*
X114858799Y-96224659D01*
X114858800Y-96224659D01*
X114858801Y-96224659D01*
X114917766Y-96219500D01*
X115094208Y-96204063D01*
X115322463Y-96142903D01*
X115536630Y-96043035D01*
X115730201Y-95907495D01*
X115897295Y-95740401D01*
X116027224Y-95554842D01*
X116081802Y-95511217D01*
X116151300Y-95504023D01*
X116213655Y-95535546D01*
X116230375Y-95554842D01*
X116360300Y-95740395D01*
X116360305Y-95740401D01*
X116527399Y-95907495D01*
X116624184Y-95975264D01*
X116720965Y-96043032D01*
X116720967Y-96043033D01*
X116720970Y-96043035D01*
X116935137Y-96142903D01*
X117163392Y-96204063D01*
X117339834Y-96219500D01*
X117398799Y-96224659D01*
X117398800Y-96224659D01*
X117398801Y-96224659D01*
X117457766Y-96219500D01*
X117634208Y-96204063D01*
X117862463Y-96142903D01*
X118076630Y-96043035D01*
X118270201Y-95907495D01*
X118437295Y-95740401D01*
X118567224Y-95554842D01*
X118621802Y-95511217D01*
X118691300Y-95504023D01*
X118753655Y-95535546D01*
X118770375Y-95554842D01*
X118900300Y-95740395D01*
X118900305Y-95740401D01*
X119067399Y-95907495D01*
X119164184Y-95975264D01*
X119260965Y-96043032D01*
X119260967Y-96043033D01*
X119260970Y-96043035D01*
X119475137Y-96142903D01*
X119703392Y-96204063D01*
X119879834Y-96219500D01*
X119938799Y-96224659D01*
X119938800Y-96224659D01*
X119938801Y-96224659D01*
X119997766Y-96219500D01*
X120174208Y-96204063D01*
X120402463Y-96142903D01*
X120616630Y-96043035D01*
X120810201Y-95907495D01*
X120977295Y-95740401D01*
X121107224Y-95554842D01*
X121161802Y-95511217D01*
X121231300Y-95504023D01*
X121293655Y-95535546D01*
X121310375Y-95554842D01*
X121440300Y-95740395D01*
X121440305Y-95740401D01*
X121607399Y-95907495D01*
X121704184Y-95975265D01*
X121800965Y-96043032D01*
X121800967Y-96043033D01*
X121800970Y-96043035D01*
X122015137Y-96142903D01*
X122243392Y-96204063D01*
X122419834Y-96219500D01*
X122478799Y-96224659D01*
X122478800Y-96224659D01*
X122478801Y-96224659D01*
X122537766Y-96219500D01*
X122714208Y-96204063D01*
X122942463Y-96142903D01*
X123156630Y-96043035D01*
X123350201Y-95907495D01*
X123517295Y-95740401D01*
X123647224Y-95554842D01*
X123701802Y-95511217D01*
X123771300Y-95504023D01*
X123833655Y-95535546D01*
X123850375Y-95554842D01*
X123980300Y-95740395D01*
X123980305Y-95740401D01*
X124147399Y-95907495D01*
X124244184Y-95975265D01*
X124340965Y-96043032D01*
X124340967Y-96043033D01*
X124340970Y-96043035D01*
X124555137Y-96142903D01*
X124783392Y-96204063D01*
X124959834Y-96219500D01*
X125018799Y-96224659D01*
X125018800Y-96224659D01*
X125018801Y-96224659D01*
X125077766Y-96219500D01*
X125254208Y-96204063D01*
X125482463Y-96142903D01*
X125696630Y-96043035D01*
X125890201Y-95907495D01*
X126057295Y-95740401D01*
X126187530Y-95554405D01*
X126242107Y-95510781D01*
X126311605Y-95503587D01*
X126373960Y-95535110D01*
X126390679Y-95554405D01*
X126520690Y-95740078D01*
X126687717Y-95907105D01*
X126881221Y-96042600D01*
X127095307Y-96142429D01*
X127095316Y-96142433D01*
X127308800Y-96199634D01*
X127308800Y-95304501D01*
X127416485Y-95353680D01*
X127523037Y-95369000D01*
X127594563Y-95369000D01*
X127701115Y-95353680D01*
X127808799Y-95304501D01*
X127808799Y-96199633D01*
X128022283Y-96142433D01*
X128022292Y-96142429D01*
X128236378Y-96042600D01*
X128429882Y-95907105D01*
X128596905Y-95740082D01*
X128726919Y-95554405D01*
X128781496Y-95510781D01*
X128850995Y-95503588D01*
X128913349Y-95535110D01*
X128930069Y-95554405D01*
X129060305Y-95740401D01*
X129227399Y-95907495D01*
X129324184Y-95975265D01*
X129420965Y-96043032D01*
X129420967Y-96043033D01*
X129420970Y-96043035D01*
X129635137Y-96142903D01*
X129863392Y-96204063D01*
X130039834Y-96219500D01*
X130098799Y-96224659D01*
X130098800Y-96224659D01*
X130098801Y-96224659D01*
X130157766Y-96219500D01*
X130334208Y-96204063D01*
X130562463Y-96142903D01*
X130776630Y-96043035D01*
X130970201Y-95907495D01*
X131137295Y-95740401D01*
X131272835Y-95546830D01*
X131372703Y-95332663D01*
X131433863Y-95104408D01*
X131454459Y-94869000D01*
X131433863Y-94633592D01*
X131411349Y-94549569D01*
X133360515Y-94549569D01*
X133360515Y-96009478D01*
X134482305Y-95999819D01*
X134481927Y-95998217D01*
X134481155Y-95994424D01*
X134472596Y-95944430D01*
X134472062Y-95940594D01*
X134460600Y-95833990D01*
X134460444Y-95832334D01*
X134458698Y-95810628D01*
X134458587Y-95808971D01*
X134457069Y-95780627D01*
X134457002Y-95778969D01*
X134456422Y-95757263D01*
X134456400Y-95755606D01*
X134456400Y-95741444D01*
X135454400Y-95741444D01*
X135460801Y-95800972D01*
X135460803Y-95800979D01*
X135511045Y-95935686D01*
X135511049Y-95935693D01*
X135597209Y-96050787D01*
X135597212Y-96050790D01*
X135712306Y-96136950D01*
X135712313Y-96136954D01*
X135847020Y-96187196D01*
X135847027Y-96187198D01*
X135906555Y-96193599D01*
X135906572Y-96193600D01*
X136554400Y-96193600D01*
X136554400Y-95279101D01*
X136662085Y-95328280D01*
X136768637Y-95343600D01*
X136840163Y-95343600D01*
X136946715Y-95328280D01*
X137054400Y-95279101D01*
X137054400Y-96193600D01*
X137702228Y-96193600D01*
X137702244Y-96193599D01*
X137761772Y-96187198D01*
X137761779Y-96187196D01*
X137896486Y-96136954D01*
X137896493Y-96136950D01*
X138011587Y-96050790D01*
X138011590Y-96050787D01*
X138097750Y-95935693D01*
X138097754Y-95935686D01*
X138146822Y-95804129D01*
X138188693Y-95748195D01*
X138254157Y-95723778D01*
X138322430Y-95738630D01*
X138350685Y-95759781D01*
X138472999Y-95882095D01*
X138549535Y-95935686D01*
X138666565Y-96017632D01*
X138666567Y-96017633D01*
X138666570Y-96017635D01*
X138880737Y-96117503D01*
X139108992Y-96178663D01*
X139279719Y-96193600D01*
X139344399Y-96199259D01*
X139344400Y-96199259D01*
X139344401Y-96199259D01*
X139409081Y-96193600D01*
X139579808Y-96178663D01*
X139808063Y-96117503D01*
X140022230Y-96017635D01*
X140215801Y-95882095D01*
X140382895Y-95715001D01*
X140512824Y-95529442D01*
X140567402Y-95485817D01*
X140636900Y-95478623D01*
X140699255Y-95510146D01*
X140715975Y-95529442D01*
X140845900Y-95714995D01*
X140845905Y-95715001D01*
X141012999Y-95882095D01*
X141089535Y-95935686D01*
X141206565Y-96017632D01*
X141206567Y-96017633D01*
X141206570Y-96017635D01*
X141420737Y-96117503D01*
X141648992Y-96178663D01*
X141819719Y-96193600D01*
X141884399Y-96199259D01*
X141884400Y-96199259D01*
X141884401Y-96199259D01*
X141949081Y-96193600D01*
X142119808Y-96178663D01*
X142348063Y-96117503D01*
X142562230Y-96017635D01*
X142755801Y-95882095D01*
X142922895Y-95715001D01*
X143052824Y-95529442D01*
X143107402Y-95485817D01*
X143176900Y-95478623D01*
X143239255Y-95510146D01*
X143255975Y-95529442D01*
X143385900Y-95714995D01*
X143385905Y-95715001D01*
X143552999Y-95882095D01*
X143629535Y-95935686D01*
X143746565Y-96017632D01*
X143746567Y-96017633D01*
X143746570Y-96017635D01*
X143960737Y-96117503D01*
X144188992Y-96178663D01*
X144359719Y-96193600D01*
X144424399Y-96199259D01*
X144424400Y-96199259D01*
X144424401Y-96199259D01*
X144489081Y-96193600D01*
X144659808Y-96178663D01*
X144888063Y-96117503D01*
X145102230Y-96017635D01*
X145295801Y-95882095D01*
X145462895Y-95715001D01*
X145598435Y-95521430D01*
X145698303Y-95307263D01*
X145759463Y-95079008D01*
X145780059Y-94843600D01*
X145759463Y-94608192D01*
X145701588Y-94392197D01*
X145698305Y-94379944D01*
X145698304Y-94379943D01*
X145698303Y-94379937D01*
X145598435Y-94165771D01*
X145592825Y-94157758D01*
X145462894Y-93972197D01*
X145295802Y-93805106D01*
X145295795Y-93805101D01*
X145102234Y-93669567D01*
X145102230Y-93669565D01*
X145031127Y-93636409D01*
X144888063Y-93569697D01*
X144888059Y-93569696D01*
X144888055Y-93569694D01*
X144659813Y-93508538D01*
X144659803Y-93508536D01*
X144424401Y-93487941D01*
X144424399Y-93487941D01*
X144188996Y-93508536D01*
X144188986Y-93508538D01*
X143960744Y-93569694D01*
X143960735Y-93569698D01*
X143746571Y-93669564D01*
X143746569Y-93669565D01*
X143552997Y-93805105D01*
X143385905Y-93972197D01*
X143255975Y-94157758D01*
X143201398Y-94201383D01*
X143131900Y-94208577D01*
X143069545Y-94177054D01*
X143052825Y-94157758D01*
X142922894Y-93972197D01*
X142755802Y-93805106D01*
X142755795Y-93805101D01*
X142562234Y-93669567D01*
X142562230Y-93669565D01*
X142491127Y-93636409D01*
X142348063Y-93569697D01*
X142348059Y-93569696D01*
X142348055Y-93569694D01*
X142119813Y-93508538D01*
X142119803Y-93508536D01*
X141884401Y-93487941D01*
X141884399Y-93487941D01*
X141648996Y-93508536D01*
X141648986Y-93508538D01*
X141420744Y-93569694D01*
X141420735Y-93569698D01*
X141206571Y-93669564D01*
X141206569Y-93669565D01*
X141012997Y-93805105D01*
X140845905Y-93972197D01*
X140715975Y-94157758D01*
X140661398Y-94201383D01*
X140591900Y-94208577D01*
X140529545Y-94177054D01*
X140512825Y-94157758D01*
X140382894Y-93972197D01*
X140215802Y-93805106D01*
X140215795Y-93805101D01*
X140022234Y-93669567D01*
X140022230Y-93669565D01*
X139951127Y-93636409D01*
X139808063Y-93569697D01*
X139808059Y-93569696D01*
X139808055Y-93569694D01*
X139579813Y-93508538D01*
X139579803Y-93508536D01*
X139344401Y-93487941D01*
X139344399Y-93487941D01*
X139108996Y-93508536D01*
X139108986Y-93508538D01*
X138880744Y-93569694D01*
X138880735Y-93569698D01*
X138666571Y-93669564D01*
X138666569Y-93669565D01*
X138473000Y-93805103D01*
X138350684Y-93927419D01*
X138289361Y-93960903D01*
X138219669Y-93955919D01*
X138163736Y-93914047D01*
X138146821Y-93883070D01*
X138097754Y-93751513D01*
X138097750Y-93751506D01*
X138011590Y-93636412D01*
X138011587Y-93636409D01*
X137896493Y-93550249D01*
X137896486Y-93550245D01*
X137761779Y-93500003D01*
X137761772Y-93500001D01*
X137702244Y-93493600D01*
X137054400Y-93493600D01*
X137054400Y-94408098D01*
X136946715Y-94358920D01*
X136840163Y-94343600D01*
X136768637Y-94343600D01*
X136662085Y-94358920D01*
X136554400Y-94408098D01*
X136554400Y-93493600D01*
X135906555Y-93493600D01*
X135847027Y-93500001D01*
X135847020Y-93500003D01*
X135712313Y-93550245D01*
X135712306Y-93550249D01*
X135597212Y-93636409D01*
X135597209Y-93636412D01*
X135511049Y-93751506D01*
X135511045Y-93751513D01*
X135460803Y-93886220D01*
X135460801Y-93886227D01*
X135454400Y-93945755D01*
X135454400Y-94593600D01*
X136370714Y-94593600D01*
X136344907Y-94633756D01*
X136304400Y-94771711D01*
X136304400Y-94915489D01*
X136344907Y-95053444D01*
X136370714Y-95093600D01*
X135454400Y-95093600D01*
X135454400Y-95741444D01*
X134456400Y-95741444D01*
X134456400Y-94893054D01*
X134465839Y-94845602D01*
X134466668Y-94843600D01*
X134465839Y-94841598D01*
X134456400Y-94794146D01*
X134456400Y-94549569D01*
X133360515Y-94549569D01*
X131411349Y-94549569D01*
X131372703Y-94405337D01*
X131272835Y-94191171D01*
X131267531Y-94183595D01*
X131137294Y-93997597D01*
X130970202Y-93830506D01*
X130970195Y-93830501D01*
X130933927Y-93805106D01*
X130893318Y-93776671D01*
X130776634Y-93694967D01*
X130776630Y-93694965D01*
X130722164Y-93669567D01*
X130562463Y-93595097D01*
X130562459Y-93595096D01*
X130562455Y-93595094D01*
X130334213Y-93533938D01*
X130334203Y-93533936D01*
X130098801Y-93513341D01*
X130098799Y-93513341D01*
X129863396Y-93533936D01*
X129863386Y-93533938D01*
X129635144Y-93595094D01*
X129635135Y-93595098D01*
X129420971Y-93694964D01*
X129420969Y-93694965D01*
X129227397Y-93830505D01*
X129060308Y-93997594D01*
X128930069Y-94183595D01*
X128875492Y-94227219D01*
X128805993Y-94234412D01*
X128743639Y-94202890D01*
X128726919Y-94183594D01*
X128596913Y-93997926D01*
X128596908Y-93997920D01*
X128429882Y-93830894D01*
X128236378Y-93695399D01*
X128022292Y-93595570D01*
X128022286Y-93595567D01*
X127808799Y-93538364D01*
X127808799Y-94433498D01*
X127701115Y-94384320D01*
X127594563Y-94369000D01*
X127523037Y-94369000D01*
X127416485Y-94384320D01*
X127308800Y-94433498D01*
X127308800Y-93538364D01*
X127308799Y-93538364D01*
X127095313Y-93595567D01*
X127095307Y-93595570D01*
X126881222Y-93695399D01*
X126881220Y-93695400D01*
X126687726Y-93830886D01*
X126687720Y-93830891D01*
X126520691Y-93997920D01*
X126520690Y-93997922D01*
X126390680Y-94183595D01*
X126336103Y-94227219D01*
X126266604Y-94234412D01*
X126204250Y-94202890D01*
X126187530Y-94183594D01*
X126057294Y-93997597D01*
X125890202Y-93830506D01*
X125890195Y-93830501D01*
X125853927Y-93805106D01*
X125813318Y-93776671D01*
X125696634Y-93694967D01*
X125696630Y-93694965D01*
X125642164Y-93669567D01*
X125482463Y-93595097D01*
X125482459Y-93595096D01*
X125482455Y-93595094D01*
X125254213Y-93533938D01*
X125254203Y-93533936D01*
X125018801Y-93513341D01*
X125018799Y-93513341D01*
X124783396Y-93533936D01*
X124783386Y-93533938D01*
X124555144Y-93595094D01*
X124555135Y-93595098D01*
X124340971Y-93694964D01*
X124340969Y-93694965D01*
X124147397Y-93830505D01*
X123980305Y-93997597D01*
X123850375Y-94183158D01*
X123795798Y-94226783D01*
X123726300Y-94233977D01*
X123663945Y-94202454D01*
X123647225Y-94183158D01*
X123517294Y-93997597D01*
X123350202Y-93830506D01*
X123350195Y-93830501D01*
X123313927Y-93805106D01*
X123273318Y-93776671D01*
X123156634Y-93694967D01*
X123156630Y-93694965D01*
X123102164Y-93669567D01*
X122942463Y-93595097D01*
X122942459Y-93595096D01*
X122942455Y-93595094D01*
X122714213Y-93533938D01*
X122714203Y-93533936D01*
X122478801Y-93513341D01*
X122478799Y-93513341D01*
X122243396Y-93533936D01*
X122243386Y-93533938D01*
X122015144Y-93595094D01*
X122015135Y-93595098D01*
X121800971Y-93694964D01*
X121800969Y-93694965D01*
X121607397Y-93830505D01*
X121440305Y-93997597D01*
X121310375Y-94183158D01*
X121255798Y-94226783D01*
X121186300Y-94233977D01*
X121123945Y-94202454D01*
X121107225Y-94183158D01*
X120977294Y-93997597D01*
X120810202Y-93830506D01*
X120810195Y-93830501D01*
X120773927Y-93805106D01*
X120733318Y-93776671D01*
X120616634Y-93694967D01*
X120616630Y-93694965D01*
X120562164Y-93669567D01*
X120402463Y-93595097D01*
X120402459Y-93595096D01*
X120402455Y-93595094D01*
X120174213Y-93533938D01*
X120174203Y-93533936D01*
X119938801Y-93513341D01*
X119938799Y-93513341D01*
X119703396Y-93533936D01*
X119703386Y-93533938D01*
X119475144Y-93595094D01*
X119475135Y-93595098D01*
X119260971Y-93694964D01*
X119260969Y-93694965D01*
X119067397Y-93830505D01*
X118900305Y-93997597D01*
X118770375Y-94183158D01*
X118715798Y-94226783D01*
X118646300Y-94233977D01*
X118583945Y-94202454D01*
X118567225Y-94183158D01*
X118437294Y-93997597D01*
X118270202Y-93830506D01*
X118270195Y-93830501D01*
X118233927Y-93805106D01*
X118193318Y-93776671D01*
X118076634Y-93694967D01*
X118076630Y-93694965D01*
X118022164Y-93669567D01*
X117862463Y-93595097D01*
X117862459Y-93595096D01*
X117862455Y-93595094D01*
X117634213Y-93533938D01*
X117634203Y-93533936D01*
X117398801Y-93513341D01*
X117398799Y-93513341D01*
X117163396Y-93533936D01*
X117163386Y-93533938D01*
X116935144Y-93595094D01*
X116935135Y-93595098D01*
X116720971Y-93694964D01*
X116720969Y-93694965D01*
X116527397Y-93830505D01*
X116360308Y-93997594D01*
X116230374Y-94183160D01*
X116175797Y-94226784D01*
X116106298Y-94233977D01*
X116043944Y-94202455D01*
X116027229Y-94183164D01*
X115897295Y-93997599D01*
X115897293Y-93997596D01*
X115730202Y-93830506D01*
X115730195Y-93830501D01*
X115693927Y-93805106D01*
X115653318Y-93776671D01*
X115536634Y-93694967D01*
X115536630Y-93694965D01*
X115482164Y-93669567D01*
X115322463Y-93595097D01*
X115322459Y-93595096D01*
X115322455Y-93595094D01*
X115094213Y-93533938D01*
X115094203Y-93533936D01*
X114858801Y-93513341D01*
X114858799Y-93513341D01*
X114623396Y-93533936D01*
X114623386Y-93533938D01*
X114395144Y-93595094D01*
X114395135Y-93595098D01*
X114180971Y-93694964D01*
X114180969Y-93694965D01*
X113987397Y-93830505D01*
X113820305Y-93997597D01*
X113690375Y-94183158D01*
X113635798Y-94226783D01*
X113566300Y-94233977D01*
X113503945Y-94202454D01*
X113487225Y-94183158D01*
X113357294Y-93997597D01*
X113190202Y-93830506D01*
X113190195Y-93830501D01*
X113153927Y-93805106D01*
X113113318Y-93776671D01*
X112996634Y-93694967D01*
X112996630Y-93694965D01*
X112942164Y-93669567D01*
X112782463Y-93595097D01*
X112782459Y-93595096D01*
X112782455Y-93595094D01*
X112554213Y-93533938D01*
X112554203Y-93533936D01*
X112318801Y-93513341D01*
X112318799Y-93513341D01*
X112083396Y-93533936D01*
X112083386Y-93533938D01*
X111855144Y-93595094D01*
X111855135Y-93595098D01*
X111640971Y-93694964D01*
X111640969Y-93694965D01*
X111447400Y-93830503D01*
X111325473Y-93952430D01*
X111264150Y-93985914D01*
X111194458Y-93980930D01*
X111138525Y-93939058D01*
X111121610Y-93908081D01*
X111072597Y-93776671D01*
X111072593Y-93776664D01*
X110986347Y-93661455D01*
X110986344Y-93661452D01*
X110871135Y-93575206D01*
X110871128Y-93575202D01*
X110736282Y-93524908D01*
X110736283Y-93524908D01*
X110676683Y-93518501D01*
X110676681Y-93518500D01*
X110676673Y-93518500D01*
X110676664Y-93518500D01*
X108880929Y-93518500D01*
X108880923Y-93518501D01*
X108821316Y-93524908D01*
X108686471Y-93575202D01*
X108686464Y-93575206D01*
X108571255Y-93661452D01*
X108571252Y-93661455D01*
X108485006Y-93776664D01*
X108485002Y-93776671D01*
X108434708Y-93911517D01*
X108428301Y-93971116D01*
X108428300Y-93971135D01*
X108428300Y-95766870D01*
X107337390Y-95766870D01*
X107430100Y-95357400D01*
X107430099Y-95357399D01*
X107430100Y-95357398D01*
X107078380Y-94191171D01*
X106947500Y-93757200D01*
X105906100Y-92969800D01*
X105012025Y-92763475D01*
X113360514Y-92763475D01*
X113439363Y-92800243D01*
X113441788Y-92801440D01*
X113473208Y-92817795D01*
X113475578Y-92819096D01*
X113515645Y-92842226D01*
X113517960Y-92843631D01*
X113547857Y-92862677D01*
X113550107Y-92864181D01*
X113588799Y-92891274D01*
X113627489Y-92864184D01*
X113629739Y-92862680D01*
X113659619Y-92843645D01*
X113661931Y-92842243D01*
X113701994Y-92819112D01*
X113704365Y-92817810D01*
X113735801Y-92801445D01*
X113738228Y-92800248D01*
X113994318Y-92680830D01*
X113996794Y-92679741D01*
X114029513Y-92666188D01*
X114032031Y-92665209D01*
X114075504Y-92649383D01*
X114078069Y-92648512D01*
X114111886Y-92637849D01*
X114114485Y-92637091D01*
X114387441Y-92563955D01*
X114390068Y-92563312D01*
X114424667Y-92555641D01*
X114427322Y-92555114D01*
X114472881Y-92547081D01*
X114475555Y-92546669D01*
X114510679Y-92542045D01*
X114513368Y-92541751D01*
X114794860Y-92517123D01*
X114797559Y-92516946D01*
X114832962Y-92515400D01*
X114835667Y-92515341D01*
X114862515Y-92515341D01*
X114862515Y-92049569D01*
X115860515Y-92049569D01*
X115860515Y-92744823D01*
X115979363Y-92800243D01*
X115981788Y-92801440D01*
X116013208Y-92817795D01*
X116015578Y-92819096D01*
X116055645Y-92842226D01*
X116057960Y-92843631D01*
X116087857Y-92862677D01*
X116090107Y-92864181D01*
X116128799Y-92891274D01*
X116167489Y-92864184D01*
X116169739Y-92862680D01*
X116199619Y-92843645D01*
X116201931Y-92842243D01*
X116241994Y-92819112D01*
X116244365Y-92817810D01*
X116275801Y-92801445D01*
X116278228Y-92800248D01*
X116534318Y-92680830D01*
X116536794Y-92679741D01*
X116569513Y-92666188D01*
X116572031Y-92665209D01*
X116615504Y-92649383D01*
X116618069Y-92648512D01*
X116651886Y-92637849D01*
X116654485Y-92637091D01*
X116927441Y-92563955D01*
X116930068Y-92563312D01*
X116964667Y-92555641D01*
X116967322Y-92555114D01*
X117012881Y-92547081D01*
X117015555Y-92546669D01*
X117050679Y-92542045D01*
X117053368Y-92541751D01*
X117334860Y-92517123D01*
X117337559Y-92516946D01*
X117362515Y-92515856D01*
X117362515Y-92049569D01*
X118360515Y-92049569D01*
X118360515Y-92726170D01*
X118519363Y-92800244D01*
X118521788Y-92801440D01*
X118553208Y-92817795D01*
X118555578Y-92819096D01*
X118595645Y-92842226D01*
X118597960Y-92843631D01*
X118627857Y-92862677D01*
X118630107Y-92864181D01*
X118668799Y-92891274D01*
X118707489Y-92864184D01*
X118709739Y-92862680D01*
X118739619Y-92843645D01*
X118741931Y-92842243D01*
X118781994Y-92819112D01*
X118784365Y-92817810D01*
X118815801Y-92801445D01*
X118818228Y-92800248D01*
X119017088Y-92707517D01*
X120860514Y-92707517D01*
X121059363Y-92800243D01*
X121061788Y-92801440D01*
X121093208Y-92817795D01*
X121095578Y-92819096D01*
X121135645Y-92842226D01*
X121137960Y-92843631D01*
X121167857Y-92862677D01*
X121170107Y-92864181D01*
X121208799Y-92891274D01*
X121247489Y-92864184D01*
X121249739Y-92862680D01*
X121279619Y-92843645D01*
X121281931Y-92842243D01*
X121321994Y-92819112D01*
X121324365Y-92817810D01*
X121355801Y-92801445D01*
X121358228Y-92800248D01*
X121614318Y-92680830D01*
X121616794Y-92679741D01*
X121649513Y-92666188D01*
X121652031Y-92665209D01*
X121695504Y-92649383D01*
X121698069Y-92648512D01*
X121731886Y-92637849D01*
X121734485Y-92637091D01*
X122007441Y-92563955D01*
X122010068Y-92563312D01*
X122044667Y-92555641D01*
X122047322Y-92555114D01*
X122092881Y-92547081D01*
X122095555Y-92546669D01*
X122130679Y-92542045D01*
X122133368Y-92541751D01*
X122362514Y-92521702D01*
X122362515Y-92049569D01*
X120860515Y-92049569D01*
X120860514Y-92707517D01*
X119017088Y-92707517D01*
X119074318Y-92680830D01*
X119076794Y-92679741D01*
X119109513Y-92666188D01*
X119112031Y-92665209D01*
X119155504Y-92649383D01*
X119158069Y-92648512D01*
X119191886Y-92637849D01*
X119194485Y-92637091D01*
X119467441Y-92563955D01*
X119470068Y-92563312D01*
X119504667Y-92555641D01*
X119507322Y-92555114D01*
X119552881Y-92547081D01*
X119555555Y-92546669D01*
X119590679Y-92542045D01*
X119593368Y-92541751D01*
X119862515Y-92518203D01*
X119862515Y-92049569D01*
X118360515Y-92049569D01*
X117362515Y-92049569D01*
X115860515Y-92049569D01*
X114862515Y-92049569D01*
X113360515Y-92049569D01*
X113360514Y-92763475D01*
X105012025Y-92763475D01*
X104585300Y-92665000D01*
X104585299Y-92665000D01*
X104585298Y-92665000D01*
X103283927Y-93203499D01*
X103214455Y-93210943D01*
X103151987Y-93179646D01*
X103116356Y-93119544D01*
X103112515Y-93088644D01*
X103114834Y-92049569D01*
X108360515Y-92049569D01*
X108360515Y-92631619D01*
X108503597Y-92578254D01*
X108507267Y-92577014D01*
X108555825Y-92562285D01*
X108559564Y-92561277D01*
X108624049Y-92546038D01*
X108627845Y-92545265D01*
X108677869Y-92536701D01*
X108681707Y-92536166D01*
X108788381Y-92524699D01*
X108790036Y-92524544D01*
X108811728Y-92522799D01*
X108813385Y-92522688D01*
X108841724Y-92521170D01*
X108843384Y-92521103D01*
X108865093Y-92520523D01*
X108866749Y-92520501D01*
X109862515Y-92520500D01*
X109862515Y-92049569D01*
X110860515Y-92049569D01*
X110860515Y-92534514D01*
X110875900Y-92536169D01*
X110879735Y-92536702D01*
X110929738Y-92545263D01*
X110933534Y-92546036D01*
X110998015Y-92561271D01*
X111001755Y-92562279D01*
X111050326Y-92577012D01*
X111053996Y-92578252D01*
X111255376Y-92653361D01*
X111259467Y-92655055D01*
X111312232Y-92679153D01*
X111316191Y-92681134D01*
X111379514Y-92715711D01*
X111454318Y-92680830D01*
X111456794Y-92679741D01*
X111489513Y-92666188D01*
X111492031Y-92665209D01*
X111535504Y-92649383D01*
X111538069Y-92648512D01*
X111571886Y-92637849D01*
X111574485Y-92637091D01*
X111847441Y-92563955D01*
X111850068Y-92563312D01*
X111884667Y-92555641D01*
X111887322Y-92555114D01*
X111932881Y-92547081D01*
X111935555Y-92546669D01*
X111970679Y-92542045D01*
X111973368Y-92541751D01*
X112254860Y-92517123D01*
X112257559Y-92516946D01*
X112292962Y-92515400D01*
X112295667Y-92515341D01*
X112341933Y-92515341D01*
X112344638Y-92515400D01*
X112362515Y-92516180D01*
X112362515Y-92049569D01*
X110860515Y-92049569D01*
X109862515Y-92049569D01*
X108360515Y-92049569D01*
X103114834Y-92049569D01*
X103116648Y-91236800D01*
X123249740Y-91236800D01*
X123269526Y-91425056D01*
X123269527Y-91425059D01*
X123328018Y-91605077D01*
X123328021Y-91605084D01*
X123422667Y-91769016D01*
X123503759Y-91859077D01*
X123549329Y-91909688D01*
X123702465Y-92020948D01*
X123702470Y-92020951D01*
X123875392Y-92097942D01*
X123875397Y-92097944D01*
X124060554Y-92137300D01*
X124060555Y-92137300D01*
X124249844Y-92137300D01*
X124249846Y-92137300D01*
X124435003Y-92097944D01*
X124475070Y-92080105D01*
X125860514Y-92080105D01*
X125860515Y-92671335D01*
X125880806Y-92679741D01*
X125883282Y-92680830D01*
X126139363Y-92800243D01*
X126141788Y-92801440D01*
X126173208Y-92817795D01*
X126175578Y-92819096D01*
X126215645Y-92842226D01*
X126217960Y-92843631D01*
X126247857Y-92862677D01*
X126250106Y-92864180D01*
X126289236Y-92891579D01*
X126327739Y-92864620D01*
X126329987Y-92863118D01*
X126359867Y-92844082D01*
X126362179Y-92842679D01*
X126402245Y-92819545D01*
X126404619Y-92818243D01*
X126436057Y-92801878D01*
X126438482Y-92800682D01*
X126694491Y-92681302D01*
X126696966Y-92680213D01*
X126729684Y-92666660D01*
X126732204Y-92665681D01*
X126775676Y-92649855D01*
X126778239Y-92648985D01*
X126812053Y-92638322D01*
X126814653Y-92637565D01*
X127278482Y-92513281D01*
X127334767Y-92511439D01*
X127362515Y-92516958D01*
X127362515Y-92049569D01*
X128360515Y-92049569D01*
X128360515Y-92656623D01*
X128385396Y-92665681D01*
X128387916Y-92666660D01*
X128420634Y-92680213D01*
X128423109Y-92681302D01*
X128679111Y-92800678D01*
X128681537Y-92801875D01*
X128712957Y-92818231D01*
X128715329Y-92819531D01*
X128755395Y-92842663D01*
X128757707Y-92844066D01*
X128787605Y-92863112D01*
X128789857Y-92864616D01*
X128828364Y-92891579D01*
X128867490Y-92864184D01*
X128869739Y-92862680D01*
X128899619Y-92843645D01*
X128901931Y-92842243D01*
X128941994Y-92819112D01*
X128944365Y-92817810D01*
X128975801Y-92801445D01*
X128978228Y-92800248D01*
X129234318Y-92680830D01*
X129236794Y-92679741D01*
X129269513Y-92666188D01*
X129272031Y-92665209D01*
X129315504Y-92649383D01*
X129318069Y-92648512D01*
X129351886Y-92637849D01*
X129354485Y-92637091D01*
X129627441Y-92563955D01*
X129630068Y-92563312D01*
X129664667Y-92555641D01*
X129667322Y-92555114D01*
X129712881Y-92547081D01*
X129715555Y-92546669D01*
X129750679Y-92542045D01*
X129753368Y-92541751D01*
X129862515Y-92532201D01*
X129862515Y-92049569D01*
X130860515Y-92049569D01*
X130860515Y-92642515D01*
X130879531Y-92648512D01*
X130882096Y-92649383D01*
X130925569Y-92665209D01*
X130928087Y-92666188D01*
X130960806Y-92679741D01*
X130963282Y-92680830D01*
X131219363Y-92800243D01*
X131221788Y-92801440D01*
X131253208Y-92817795D01*
X131255578Y-92819096D01*
X131295645Y-92842226D01*
X131297960Y-92843631D01*
X131327857Y-92862677D01*
X131330106Y-92864180D01*
X131561586Y-93026264D01*
X131563769Y-93027865D01*
X131591896Y-93049448D01*
X131594006Y-93051142D01*
X131629446Y-93080882D01*
X131631480Y-93082666D01*
X131657590Y-93106593D01*
X131659542Y-93108462D01*
X131859346Y-93308265D01*
X131861217Y-93310219D01*
X131885164Y-93336352D01*
X131886950Y-93338388D01*
X131916687Y-93373830D01*
X131918380Y-93375939D01*
X131939946Y-93404046D01*
X131941545Y-93406227D01*
X132043314Y-93551569D01*
X132362515Y-93551569D01*
X132362515Y-92495600D01*
X135901878Y-92495600D01*
X136754946Y-92495600D01*
X136802398Y-92505039D01*
X136804400Y-92505868D01*
X136806402Y-92505039D01*
X136853854Y-92495600D01*
X137362515Y-92495600D01*
X137362515Y-92049569D01*
X138360515Y-92049569D01*
X138360515Y-92666533D01*
X138404546Y-92690576D01*
X138479919Y-92655430D01*
X138482395Y-92654341D01*
X138515113Y-92640788D01*
X138517631Y-92639809D01*
X138561104Y-92623983D01*
X138563669Y-92623112D01*
X138597486Y-92612449D01*
X138600085Y-92611691D01*
X138873041Y-92538555D01*
X138875668Y-92537912D01*
X138910267Y-92530241D01*
X138912922Y-92529714D01*
X138958481Y-92521681D01*
X138961155Y-92521269D01*
X138996279Y-92516645D01*
X138998968Y-92516351D01*
X139280460Y-92491723D01*
X139283159Y-92491546D01*
X139318562Y-92490000D01*
X139321267Y-92489941D01*
X139367533Y-92489941D01*
X139370238Y-92490000D01*
X139405641Y-92491546D01*
X139408340Y-92491723D01*
X139689832Y-92516351D01*
X139692521Y-92516645D01*
X139727645Y-92521269D01*
X139730319Y-92521681D01*
X139775878Y-92529714D01*
X139778533Y-92530241D01*
X139813132Y-92537912D01*
X139815759Y-92538555D01*
X139862515Y-92551082D01*
X139862515Y-92049569D01*
X140860515Y-92049569D01*
X140860515Y-92729761D01*
X141019918Y-92655430D01*
X141022394Y-92654341D01*
X141055113Y-92640788D01*
X141057631Y-92639809D01*
X141101104Y-92623983D01*
X141103669Y-92623112D01*
X141137486Y-92612449D01*
X141140085Y-92611691D01*
X141413041Y-92538555D01*
X141415668Y-92537912D01*
X141450267Y-92530241D01*
X141452922Y-92529714D01*
X141498481Y-92521681D01*
X141501155Y-92521269D01*
X141536279Y-92516645D01*
X141538968Y-92516351D01*
X141820460Y-92491723D01*
X141823159Y-92491546D01*
X141858562Y-92490000D01*
X141861267Y-92489941D01*
X141907533Y-92489941D01*
X141910238Y-92490000D01*
X141945641Y-92491546D01*
X141948340Y-92491723D01*
X142229832Y-92516351D01*
X142232521Y-92516645D01*
X142267645Y-92521269D01*
X142270319Y-92521681D01*
X142315878Y-92529714D01*
X142318533Y-92530241D01*
X142353132Y-92537912D01*
X142355759Y-92538555D01*
X142362515Y-92540365D01*
X142362515Y-92049569D01*
X143360515Y-92049569D01*
X143360515Y-92748414D01*
X143559918Y-92655430D01*
X143562394Y-92654341D01*
X143595113Y-92640788D01*
X143597631Y-92639809D01*
X143641104Y-92623983D01*
X143643669Y-92623112D01*
X143677486Y-92612449D01*
X143680085Y-92611691D01*
X143953041Y-92538555D01*
X143955668Y-92537912D01*
X143990267Y-92530241D01*
X143992922Y-92529714D01*
X144038481Y-92521681D01*
X144041155Y-92521269D01*
X144076279Y-92516645D01*
X144078968Y-92516351D01*
X144360460Y-92491723D01*
X144363159Y-92491546D01*
X144398562Y-92490000D01*
X144401267Y-92489941D01*
X144447533Y-92489941D01*
X144450238Y-92490000D01*
X144485641Y-92491546D01*
X144488340Y-92491723D01*
X144769832Y-92516351D01*
X144772521Y-92516645D01*
X144807645Y-92521269D01*
X144810319Y-92521681D01*
X144855878Y-92529714D01*
X144858533Y-92530241D01*
X144862515Y-92531123D01*
X144862515Y-92049569D01*
X145860515Y-92049569D01*
X145860515Y-92982189D01*
X145887186Y-93000865D01*
X145889369Y-93002465D01*
X145917496Y-93024048D01*
X145919606Y-93025742D01*
X145955046Y-93055482D01*
X145957080Y-93057266D01*
X145983190Y-93081193D01*
X145985142Y-93083062D01*
X146184946Y-93282865D01*
X146186817Y-93284819D01*
X146210764Y-93310952D01*
X146212550Y-93312988D01*
X146242287Y-93348430D01*
X146243980Y-93350539D01*
X146265546Y-93378646D01*
X146267145Y-93380827D01*
X146386699Y-93551569D01*
X146600128Y-93551569D01*
X147061547Y-92889533D01*
X147063381Y-92887037D01*
X147095866Y-92845063D01*
X147097824Y-92842660D01*
X147362515Y-92533854D01*
X147362515Y-92049569D01*
X146905287Y-92049569D01*
X146744892Y-92083662D01*
X146741700Y-92084253D01*
X146699716Y-92090903D01*
X146696501Y-92091326D01*
X146641285Y-92097133D01*
X146638046Y-92097388D01*
X146595562Y-92099615D01*
X146592316Y-92099700D01*
X146347484Y-92099700D01*
X146344238Y-92099615D01*
X146301754Y-92097388D01*
X146298515Y-92097133D01*
X146243299Y-92091326D01*
X146240084Y-92090903D01*
X146198100Y-92084253D01*
X146194908Y-92083662D01*
X146034513Y-92049569D01*
X145860515Y-92049569D01*
X144862515Y-92049569D01*
X143360515Y-92049569D01*
X142362515Y-92049569D01*
X140860515Y-92049569D01*
X139862515Y-92049569D01*
X138360515Y-92049569D01*
X137362515Y-92049569D01*
X136104446Y-92049569D01*
X136057551Y-92193897D01*
X136056467Y-92196959D01*
X136041217Y-92236681D01*
X136039974Y-92239681D01*
X136017389Y-92290402D01*
X136015992Y-92293331D01*
X135996696Y-92331198D01*
X135995148Y-92334050D01*
X135901878Y-92495600D01*
X132362515Y-92495600D01*
X132362515Y-92049569D01*
X130860515Y-92049569D01*
X129862515Y-92049569D01*
X128360515Y-92049569D01*
X127362515Y-92049569D01*
X125876175Y-92049569D01*
X125862095Y-92077199D01*
X125860547Y-92080050D01*
X125860514Y-92080105D01*
X124475070Y-92080105D01*
X124607930Y-92020951D01*
X124761071Y-91909688D01*
X124887733Y-91769016D01*
X124982379Y-91605084D01*
X125019512Y-91490800D01*
X133384340Y-91490800D01*
X133404126Y-91679056D01*
X133404127Y-91679059D01*
X133462618Y-91859077D01*
X133462621Y-91859084D01*
X133557267Y-92023016D01*
X133626314Y-92099700D01*
X133683929Y-92163688D01*
X133837065Y-92274948D01*
X133837070Y-92274951D01*
X134009992Y-92351942D01*
X134009997Y-92351944D01*
X134195154Y-92391300D01*
X134195155Y-92391300D01*
X134384444Y-92391300D01*
X134384446Y-92391300D01*
X134569603Y-92351944D01*
X134742530Y-92274951D01*
X134895671Y-92163688D01*
X135022333Y-92023016D01*
X135116979Y-91859084D01*
X135175474Y-91679056D01*
X135195260Y-91490800D01*
X135175474Y-91302544D01*
X135116979Y-91122516D01*
X135022333Y-90958584D01*
X134895671Y-90817912D01*
X134885823Y-90810757D01*
X134742534Y-90706651D01*
X134742529Y-90706648D01*
X134569607Y-90629657D01*
X134569602Y-90629655D01*
X134423800Y-90598665D01*
X134384446Y-90590300D01*
X134195154Y-90590300D01*
X134162697Y-90597198D01*
X134009997Y-90629655D01*
X134009992Y-90629657D01*
X133837070Y-90706648D01*
X133837065Y-90706651D01*
X133683929Y-90817911D01*
X133557266Y-90958585D01*
X133462621Y-91122515D01*
X133462618Y-91122522D01*
X133404127Y-91302540D01*
X133404126Y-91302544D01*
X133384340Y-91490800D01*
X125019512Y-91490800D01*
X125040874Y-91425056D01*
X125060660Y-91236800D01*
X125040874Y-91048544D01*
X124982379Y-90868516D01*
X124887733Y-90704584D01*
X124761071Y-90563912D01*
X124761070Y-90563911D01*
X124607934Y-90452651D01*
X124607929Y-90452648D01*
X124435007Y-90375657D01*
X124435002Y-90375655D01*
X124289201Y-90344665D01*
X124249846Y-90336300D01*
X124060554Y-90336300D01*
X124028097Y-90343198D01*
X123875397Y-90375655D01*
X123875392Y-90375657D01*
X123702470Y-90452648D01*
X123702465Y-90452651D01*
X123549329Y-90563911D01*
X123422666Y-90704585D01*
X123328021Y-90868515D01*
X123328018Y-90868522D01*
X123270856Y-91044450D01*
X123269526Y-91048544D01*
X123249740Y-91236800D01*
X103116648Y-91236800D01*
X103117062Y-91051569D01*
X104241065Y-91051569D01*
X104862515Y-91051569D01*
X104862515Y-89549569D01*
X105860515Y-89549569D01*
X105860515Y-91051569D01*
X107362515Y-91051569D01*
X107362515Y-91005476D01*
X107334338Y-90974183D01*
X107332230Y-90971715D01*
X107305473Y-90938674D01*
X107303497Y-90936099D01*
X107270860Y-90891181D01*
X107269020Y-90888504D01*
X107245852Y-90852829D01*
X107244155Y-90850061D01*
X107121752Y-90638050D01*
X107120204Y-90635198D01*
X107100908Y-90597331D01*
X107099511Y-90594402D01*
X107076926Y-90543681D01*
X107075683Y-90540681D01*
X107060433Y-90500959D01*
X107059349Y-90497897D01*
X106983691Y-90265047D01*
X106982769Y-90261933D01*
X106971759Y-90220843D01*
X106971001Y-90217685D01*
X106959459Y-90163374D01*
X106958868Y-90160184D01*
X106952219Y-90118195D01*
X106951795Y-90114977D01*
X106926206Y-89871509D01*
X106925951Y-89868273D01*
X106923725Y-89825806D01*
X106923640Y-89822560D01*
X106923640Y-89794800D01*
X107921640Y-89794800D01*
X107941426Y-89983056D01*
X107941427Y-89983059D01*
X107999918Y-90163077D01*
X107999921Y-90163084D01*
X108094567Y-90327016D01*
X108193776Y-90437198D01*
X108221229Y-90467688D01*
X108374365Y-90578948D01*
X108374370Y-90578951D01*
X108547292Y-90655942D01*
X108547297Y-90655944D01*
X108732454Y-90695300D01*
X108732455Y-90695300D01*
X108921744Y-90695300D01*
X108921746Y-90695300D01*
X109106903Y-90655944D01*
X109279830Y-90578951D01*
X109432971Y-90467688D01*
X109559633Y-90327016D01*
X109654279Y-90163084D01*
X109712774Y-89983056D01*
X109732560Y-89794800D01*
X109712774Y-89606544D01*
X109694262Y-89549569D01*
X110860515Y-89549569D01*
X110860515Y-91051569D01*
X112362515Y-91051569D01*
X112362515Y-89549569D01*
X113360515Y-89549569D01*
X113360515Y-91051569D01*
X114862515Y-91051569D01*
X114862515Y-90795927D01*
X114800360Y-90750770D01*
X114797783Y-90748793D01*
X114764738Y-90722032D01*
X114762271Y-90719925D01*
X114721010Y-90682775D01*
X114718655Y-90680539D01*
X114688583Y-90650467D01*
X114686348Y-90648113D01*
X114522537Y-90466182D01*
X114520430Y-90463715D01*
X114493673Y-90430674D01*
X114491697Y-90428099D01*
X114459060Y-90383181D01*
X114457220Y-90380504D01*
X114434052Y-90344829D01*
X114432355Y-90342061D01*
X114309952Y-90130050D01*
X114308404Y-90127198D01*
X114289108Y-90089331D01*
X114287711Y-90086402D01*
X114265126Y-90035681D01*
X114263883Y-90032681D01*
X114248633Y-89992959D01*
X114247549Y-89989897D01*
X114171891Y-89757047D01*
X114170969Y-89753933D01*
X114159959Y-89712843D01*
X114159201Y-89709685D01*
X114147659Y-89655374D01*
X114147068Y-89652184D01*
X114140419Y-89610195D01*
X114139995Y-89606977D01*
X114133961Y-89549569D01*
X113360515Y-89549569D01*
X112362515Y-89549569D01*
X110860515Y-89549569D01*
X109694262Y-89549569D01*
X109654279Y-89426516D01*
X109573614Y-89286800D01*
X115109840Y-89286800D01*
X115129626Y-89475056D01*
X115129627Y-89475059D01*
X115188118Y-89655077D01*
X115188121Y-89655084D01*
X115282767Y-89819016D01*
X115409429Y-89959688D01*
X115562565Y-90070948D01*
X115562570Y-90070951D01*
X115735492Y-90147942D01*
X115735497Y-90147944D01*
X115920654Y-90187300D01*
X115920655Y-90187300D01*
X116109944Y-90187300D01*
X116109946Y-90187300D01*
X116295103Y-90147944D01*
X116468030Y-90070951D01*
X116621171Y-89959688D01*
X116747833Y-89819016D01*
X116842479Y-89655084D01*
X116876763Y-89549569D01*
X118360515Y-89549569D01*
X118360515Y-91051569D01*
X119862515Y-91051569D01*
X119862515Y-89549569D01*
X120860515Y-89549569D01*
X120860515Y-91051569D01*
X122265712Y-91051569D01*
X122279895Y-90916623D01*
X122280319Y-90913405D01*
X122286968Y-90871416D01*
X122287559Y-90868226D01*
X122299101Y-90813915D01*
X122299859Y-90810757D01*
X122310869Y-90769667D01*
X122311791Y-90766553D01*
X122362515Y-90610441D01*
X122362515Y-89549569D01*
X125860515Y-89549569D01*
X125860515Y-90393493D01*
X125860548Y-90393551D01*
X125862096Y-90396402D01*
X125881392Y-90434269D01*
X125882789Y-90437198D01*
X125905374Y-90487919D01*
X125906617Y-90490919D01*
X125921867Y-90530641D01*
X125922951Y-90533703D01*
X125998609Y-90766553D01*
X125999531Y-90769667D01*
X126010541Y-90810757D01*
X126011299Y-90813915D01*
X126022841Y-90868226D01*
X126023432Y-90871416D01*
X126030081Y-90913405D01*
X126030505Y-90916623D01*
X126044688Y-91051569D01*
X127362515Y-91051569D01*
X127362515Y-89549569D01*
X128360515Y-89549569D01*
X128360515Y-91051569D01*
X129862515Y-91051569D01*
X129862515Y-89549569D01*
X130860515Y-89549569D01*
X130860515Y-91051569D01*
X132362515Y-91051569D01*
X132362515Y-90491624D01*
X135905125Y-90491624D01*
X135995148Y-90647550D01*
X135996696Y-90650402D01*
X136015992Y-90688269D01*
X136017389Y-90691198D01*
X136039974Y-90741919D01*
X136041217Y-90744919D01*
X136056467Y-90784641D01*
X136057551Y-90787703D01*
X136133209Y-91020553D01*
X136134131Y-91023667D01*
X136141607Y-91051569D01*
X137362515Y-91051569D01*
X137362515Y-89549569D01*
X138360515Y-89549569D01*
X138360515Y-91051569D01*
X139862515Y-91051569D01*
X139862515Y-89549569D01*
X140860515Y-89549569D01*
X140860515Y-91051569D01*
X142362515Y-91051569D01*
X142362515Y-89549569D01*
X143360515Y-89549569D01*
X143360515Y-91051569D01*
X144768662Y-91051569D01*
X144764552Y-91044450D01*
X144763004Y-91041599D01*
X144743708Y-91003731D01*
X144742311Y-91000802D01*
X144719726Y-90950081D01*
X144718483Y-90947081D01*
X144703233Y-90907359D01*
X144702149Y-90904297D01*
X144626491Y-90671447D01*
X144625569Y-90668333D01*
X144614559Y-90627243D01*
X144613801Y-90624085D01*
X144602259Y-90569774D01*
X144601668Y-90566584D01*
X144595019Y-90524595D01*
X144594595Y-90521377D01*
X144569006Y-90277909D01*
X144568751Y-90274673D01*
X144566525Y-90232206D01*
X144566440Y-90228960D01*
X144566440Y-90201200D01*
X145564440Y-90201200D01*
X145584226Y-90389456D01*
X145584227Y-90389459D01*
X145642718Y-90569477D01*
X145642721Y-90569484D01*
X145737367Y-90733416D01*
X145809849Y-90813915D01*
X145864029Y-90874088D01*
X146017165Y-90985348D01*
X146017170Y-90985351D01*
X146190092Y-91062342D01*
X146190097Y-91062344D01*
X146375254Y-91101700D01*
X146375255Y-91101700D01*
X146564544Y-91101700D01*
X146564546Y-91101700D01*
X146749703Y-91062344D01*
X146922630Y-90985351D01*
X147075771Y-90874088D01*
X147202433Y-90733416D01*
X147297079Y-90569484D01*
X147355574Y-90389456D01*
X147375360Y-90201200D01*
X147361403Y-90068400D01*
X147970941Y-90068400D01*
X147991536Y-90303803D01*
X147991538Y-90303813D01*
X148052694Y-90532055D01*
X148052696Y-90532059D01*
X148052697Y-90532063D01*
X148125537Y-90688269D01*
X148152565Y-90746230D01*
X148152567Y-90746234D01*
X148238195Y-90868522D01*
X148288105Y-90939801D01*
X148455199Y-91106895D01*
X148477517Y-91122522D01*
X148648765Y-91242432D01*
X148648767Y-91242433D01*
X148648770Y-91242435D01*
X148862937Y-91342303D01*
X149091192Y-91403463D01*
X149279518Y-91419939D01*
X149326599Y-91424059D01*
X149326600Y-91424059D01*
X149326601Y-91424059D01*
X149365834Y-91420626D01*
X149562008Y-91403463D01*
X149790263Y-91342303D01*
X150004430Y-91242435D01*
X150198001Y-91106895D01*
X150365095Y-90939801D01*
X150500635Y-90746230D01*
X150600503Y-90532063D01*
X150661663Y-90303808D01*
X150682259Y-90068400D01*
X150661663Y-89832992D01*
X150613216Y-89652184D01*
X150600505Y-89604744D01*
X150600504Y-89604743D01*
X150600503Y-89604737D01*
X150500635Y-89390571D01*
X150465265Y-89340056D01*
X150365094Y-89196997D01*
X150198002Y-89029906D01*
X150197996Y-89029901D01*
X150012442Y-88899975D01*
X149968817Y-88845398D01*
X149961623Y-88775900D01*
X149993146Y-88713545D01*
X150012442Y-88696825D01*
X150034626Y-88681291D01*
X150198001Y-88566895D01*
X150365095Y-88399801D01*
X150500635Y-88206230D01*
X150600503Y-87992063D01*
X150661663Y-87763808D01*
X150682259Y-87528400D01*
X150681376Y-87518313D01*
X150673954Y-87433474D01*
X150661663Y-87292992D01*
X150602918Y-87073751D01*
X150600505Y-87064744D01*
X150600504Y-87064743D01*
X150600503Y-87064737D01*
X150500635Y-86850571D01*
X150480500Y-86821814D01*
X150365094Y-86656997D01*
X150198002Y-86489906D01*
X150197996Y-86489901D01*
X150012442Y-86359975D01*
X149968817Y-86305398D01*
X149961623Y-86235900D01*
X149993146Y-86173545D01*
X150012442Y-86156825D01*
X150091677Y-86101344D01*
X150198001Y-86026895D01*
X150365095Y-85859801D01*
X150500635Y-85666230D01*
X150600503Y-85452063D01*
X150661663Y-85223808D01*
X150682259Y-84988400D01*
X150661663Y-84752992D01*
X150600503Y-84524737D01*
X150500635Y-84310571D01*
X150437014Y-84219711D01*
X150365096Y-84117000D01*
X150356544Y-84108448D01*
X150242779Y-83994683D01*
X150209296Y-83933363D01*
X150214280Y-83863671D01*
X150256151Y-83807737D01*
X150287129Y-83790822D01*
X150418686Y-83741754D01*
X150418693Y-83741750D01*
X150533787Y-83655590D01*
X150533790Y-83655587D01*
X150619950Y-83540493D01*
X150619954Y-83540486D01*
X150670196Y-83405779D01*
X150670198Y-83405772D01*
X150676599Y-83346244D01*
X150676600Y-83346227D01*
X150676600Y-82698400D01*
X149760286Y-82698400D01*
X149786093Y-82658244D01*
X149826600Y-82520289D01*
X149826600Y-82376511D01*
X149786093Y-82238556D01*
X149760286Y-82198400D01*
X150676600Y-82198400D01*
X150676600Y-81550572D01*
X150676599Y-81550555D01*
X150670198Y-81491027D01*
X150670196Y-81491020D01*
X150619954Y-81356313D01*
X150619950Y-81356306D01*
X150533790Y-81241212D01*
X150533787Y-81241209D01*
X150418693Y-81155049D01*
X150418686Y-81155045D01*
X150283979Y-81104803D01*
X150283972Y-81104801D01*
X150224444Y-81098400D01*
X149576600Y-81098400D01*
X149576600Y-82012898D01*
X149468915Y-81963720D01*
X149362363Y-81948400D01*
X149290837Y-81948400D01*
X149184285Y-81963720D01*
X149076600Y-82012898D01*
X149076600Y-81098400D01*
X148428755Y-81098400D01*
X148369227Y-81104801D01*
X148369220Y-81104803D01*
X148234513Y-81155045D01*
X148234506Y-81155049D01*
X148119412Y-81241209D01*
X148119409Y-81241212D01*
X148033249Y-81356306D01*
X148033245Y-81356313D01*
X147983003Y-81491020D01*
X147983001Y-81491027D01*
X147976600Y-81550555D01*
X147976600Y-82198400D01*
X148892914Y-82198400D01*
X148867107Y-82238556D01*
X148826600Y-82376511D01*
X148826600Y-82520289D01*
X148867107Y-82658244D01*
X148892914Y-82698400D01*
X147976600Y-82698400D01*
X147976600Y-83346244D01*
X147983001Y-83405772D01*
X147983003Y-83405779D01*
X148033245Y-83540486D01*
X148033249Y-83540493D01*
X148119409Y-83655587D01*
X148119412Y-83655590D01*
X148234506Y-83741750D01*
X148234513Y-83741754D01*
X148366070Y-83790821D01*
X148422003Y-83832692D01*
X148446421Y-83898156D01*
X148431570Y-83966429D01*
X148410419Y-83994684D01*
X148288103Y-84117000D01*
X148152565Y-84310569D01*
X148152564Y-84310571D01*
X148052698Y-84524735D01*
X148052694Y-84524744D01*
X147991538Y-84752986D01*
X147991536Y-84752996D01*
X147970941Y-84988399D01*
X147970941Y-84988400D01*
X147991536Y-85223803D01*
X147991538Y-85223813D01*
X148052694Y-85452055D01*
X148052696Y-85452059D01*
X148052697Y-85452063D01*
X148115388Y-85586503D01*
X148152565Y-85666230D01*
X148152567Y-85666234D01*
X148288101Y-85859795D01*
X148288106Y-85859802D01*
X148455197Y-86026893D01*
X148455203Y-86026898D01*
X148640758Y-86156825D01*
X148684383Y-86211402D01*
X148691577Y-86280900D01*
X148660054Y-86343255D01*
X148640758Y-86359975D01*
X148455197Y-86489905D01*
X148288105Y-86656997D01*
X148152565Y-86850569D01*
X148152564Y-86850571D01*
X148052698Y-87064735D01*
X148052694Y-87064744D01*
X147991538Y-87292986D01*
X147991536Y-87292996D01*
X147970941Y-87528399D01*
X147970941Y-87528400D01*
X147991536Y-87763803D01*
X147991538Y-87763813D01*
X148052694Y-87992055D01*
X148052696Y-87992059D01*
X148052697Y-87992063D01*
X148152565Y-88206229D01*
X148152565Y-88206230D01*
X148152567Y-88206234D01*
X148260881Y-88360921D01*
X148278651Y-88386300D01*
X148288101Y-88399795D01*
X148288106Y-88399802D01*
X148455197Y-88566893D01*
X148455203Y-88566898D01*
X148640758Y-88696825D01*
X148684383Y-88751402D01*
X148691577Y-88820900D01*
X148660054Y-88883255D01*
X148640758Y-88899975D01*
X148455197Y-89029905D01*
X148288105Y-89196997D01*
X148152565Y-89390569D01*
X148152564Y-89390571D01*
X148052698Y-89604735D01*
X148052694Y-89604744D01*
X147991538Y-89832986D01*
X147991536Y-89832996D01*
X147970941Y-90068399D01*
X147970941Y-90068400D01*
X147361403Y-90068400D01*
X147355574Y-90012944D01*
X147297079Y-89832916D01*
X147202433Y-89668984D01*
X147075771Y-89528312D01*
X147075770Y-89528311D01*
X146922634Y-89417051D01*
X146922629Y-89417048D01*
X146749707Y-89340057D01*
X146749702Y-89340055D01*
X146603901Y-89309065D01*
X146564546Y-89300700D01*
X146375254Y-89300700D01*
X146342797Y-89307598D01*
X146190097Y-89340055D01*
X146190092Y-89340057D01*
X146017170Y-89417048D01*
X146017165Y-89417051D01*
X145864029Y-89528311D01*
X145737366Y-89668985D01*
X145642721Y-89832915D01*
X145642718Y-89832922D01*
X145584227Y-90012940D01*
X145584226Y-90012944D01*
X145564440Y-90201200D01*
X144566440Y-90201200D01*
X144566440Y-90173440D01*
X144566525Y-90170194D01*
X144568751Y-90127727D01*
X144569006Y-90124491D01*
X144594595Y-89881023D01*
X144595019Y-89877805D01*
X144601668Y-89835816D01*
X144602259Y-89832626D01*
X144613801Y-89778315D01*
X144614559Y-89775157D01*
X144625569Y-89734067D01*
X144626491Y-89730953D01*
X144685427Y-89549569D01*
X143360515Y-89549569D01*
X142362515Y-89549569D01*
X140860515Y-89549569D01*
X139862515Y-89549569D01*
X138360515Y-89549569D01*
X137362515Y-89549569D01*
X136020194Y-89549569D01*
X136038987Y-89615622D01*
X136043192Y-89638115D01*
X136063712Y-89859559D01*
X136063712Y-89882441D01*
X136043192Y-90103885D01*
X136038987Y-90126378D01*
X135978127Y-90340281D01*
X135969861Y-90361619D01*
X135905125Y-90491624D01*
X132362515Y-90491624D01*
X132362515Y-89549569D01*
X130860515Y-89549569D01*
X129862515Y-89549569D01*
X128360515Y-89549569D01*
X127362515Y-89549569D01*
X125860515Y-89549569D01*
X122362515Y-89549569D01*
X120860515Y-89549569D01*
X119862515Y-89549569D01*
X118360515Y-89549569D01*
X116876763Y-89549569D01*
X116900974Y-89475056D01*
X116920760Y-89286800D01*
X116900974Y-89098544D01*
X116842479Y-88918516D01*
X116747833Y-88754584D01*
X116621171Y-88613912D01*
X116556462Y-88566898D01*
X116468034Y-88502651D01*
X116468029Y-88502648D01*
X116295107Y-88425657D01*
X116295102Y-88425655D01*
X116149300Y-88394665D01*
X116109946Y-88386300D01*
X115920654Y-88386300D01*
X115888197Y-88393198D01*
X115735497Y-88425655D01*
X115735492Y-88425657D01*
X115562570Y-88502648D01*
X115562565Y-88502651D01*
X115409429Y-88613911D01*
X115282766Y-88754585D01*
X115188121Y-88918515D01*
X115188118Y-88918522D01*
X115129627Y-89098540D01*
X115129626Y-89098544D01*
X115109840Y-89286800D01*
X109573614Y-89286800D01*
X109559633Y-89262584D01*
X109432971Y-89121912D01*
X109400808Y-89098544D01*
X109279834Y-89010651D01*
X109279829Y-89010648D01*
X109106907Y-88933657D01*
X109106902Y-88933655D01*
X108948445Y-88899975D01*
X108921746Y-88894300D01*
X108732454Y-88894300D01*
X108705755Y-88899975D01*
X108547297Y-88933655D01*
X108547292Y-88933657D01*
X108374370Y-89010648D01*
X108374365Y-89010651D01*
X108221229Y-89121911D01*
X108094566Y-89262585D01*
X107999921Y-89426515D01*
X107999918Y-89426522D01*
X107942013Y-89604737D01*
X107941426Y-89606544D01*
X107928023Y-89734067D01*
X107923705Y-89775157D01*
X107921640Y-89794800D01*
X106923640Y-89794800D01*
X106923640Y-89767040D01*
X106923725Y-89763794D01*
X106925951Y-89721327D01*
X106926206Y-89718091D01*
X106943918Y-89549569D01*
X105860515Y-89549569D01*
X104862515Y-89549569D01*
X104244418Y-89549569D01*
X104241065Y-91051569D01*
X103117062Y-91051569D01*
X103122642Y-88551569D01*
X104246645Y-88551569D01*
X104862515Y-88551569D01*
X104862515Y-87049569D01*
X105860515Y-87049569D01*
X105860515Y-88551569D01*
X107362515Y-88551569D01*
X107362515Y-87049569D01*
X110860515Y-87049569D01*
X110860515Y-88551569D01*
X112362515Y-88551569D01*
X112362515Y-87049569D01*
X113360515Y-87049569D01*
X113360515Y-88551569D01*
X114259794Y-88551569D01*
X114263883Y-88540919D01*
X114265126Y-88537919D01*
X114287711Y-88487198D01*
X114289108Y-88484269D01*
X114308404Y-88446402D01*
X114309952Y-88443550D01*
X114432355Y-88231539D01*
X114434052Y-88228771D01*
X114457220Y-88193096D01*
X114459060Y-88190419D01*
X114491697Y-88145501D01*
X114493673Y-88142926D01*
X114520430Y-88109885D01*
X114522537Y-88107418D01*
X114686348Y-87925487D01*
X114688583Y-87923133D01*
X114718655Y-87893061D01*
X114721010Y-87890825D01*
X114762271Y-87853675D01*
X114764738Y-87851568D01*
X114797783Y-87824807D01*
X114800360Y-87822830D01*
X114862515Y-87777672D01*
X114862515Y-87049569D01*
X115860515Y-87049569D01*
X115860515Y-87389911D01*
X115889638Y-87388385D01*
X115892884Y-87388300D01*
X116137716Y-87388300D01*
X116140962Y-87388385D01*
X116183446Y-87390612D01*
X116186685Y-87390867D01*
X116241901Y-87396674D01*
X116245116Y-87397097D01*
X116287100Y-87403747D01*
X116290292Y-87404338D01*
X116529747Y-87455235D01*
X116532904Y-87455993D01*
X116573972Y-87466997D01*
X116577083Y-87467918D01*
X116629891Y-87485075D01*
X116632954Y-87486159D01*
X116672667Y-87501404D01*
X116675667Y-87502647D01*
X116899310Y-87602221D01*
X116902238Y-87603618D01*
X116940110Y-87622913D01*
X116942964Y-87624462D01*
X116991048Y-87652222D01*
X116993816Y-87653918D01*
X117029496Y-87677087D01*
X117032173Y-87678927D01*
X117230240Y-87822830D01*
X117232817Y-87824807D01*
X117265862Y-87851568D01*
X117268329Y-87853675D01*
X117309590Y-87890825D01*
X117311945Y-87893061D01*
X117342017Y-87923133D01*
X117344252Y-87925487D01*
X117362515Y-87945770D01*
X117362515Y-87049569D01*
X118360515Y-87049569D01*
X118360515Y-88551569D01*
X119862515Y-88551569D01*
X119862515Y-87049569D01*
X120860515Y-87049569D01*
X120860515Y-88551569D01*
X122362515Y-88551569D01*
X122362515Y-87049569D01*
X123360515Y-87049569D01*
X123360515Y-88551569D01*
X124862515Y-88551569D01*
X124862515Y-87049569D01*
X125860515Y-87049569D01*
X125860515Y-88551569D01*
X127362515Y-88551569D01*
X128360515Y-88551569D01*
X129862515Y-88551569D01*
X129862515Y-87049569D01*
X130860515Y-87049569D01*
X130860515Y-88551569D01*
X132362515Y-88551569D01*
X132362515Y-87049569D01*
X133360515Y-87049569D01*
X133360515Y-88551569D01*
X134587970Y-88551569D01*
X135860515Y-88551569D01*
X137362515Y-88551569D01*
X137362515Y-87049569D01*
X138360515Y-87049569D01*
X138360515Y-88551569D01*
X139862515Y-88551569D01*
X139862515Y-87049569D01*
X140860515Y-87049569D01*
X140860515Y-88551569D01*
X142362515Y-88551569D01*
X142362515Y-87049569D01*
X143360515Y-87049569D01*
X143360515Y-88551569D01*
X144862515Y-88551569D01*
X144862515Y-87539147D01*
X144799338Y-87468983D01*
X144797230Y-87466515D01*
X144770473Y-87433474D01*
X144768497Y-87430899D01*
X144735860Y-87385981D01*
X144734020Y-87383304D01*
X144710852Y-87347629D01*
X144709155Y-87344861D01*
X144586752Y-87132850D01*
X144585204Y-87129998D01*
X144565908Y-87092131D01*
X144564511Y-87089202D01*
X144546863Y-87049569D01*
X143360515Y-87049569D01*
X142362515Y-87049569D01*
X140860515Y-87049569D01*
X139862515Y-87049569D01*
X138360515Y-87049569D01*
X137362515Y-87049569D01*
X136093492Y-87049569D01*
X135978664Y-87201625D01*
X135963248Y-87218535D01*
X135860515Y-87312188D01*
X135860515Y-88551569D01*
X134587970Y-88551569D01*
X134601119Y-88549111D01*
X134623904Y-88547000D01*
X134846296Y-88547000D01*
X134862515Y-88548502D01*
X134862515Y-87637574D01*
X134855119Y-87636889D01*
X134636513Y-87596025D01*
X134614504Y-87589763D01*
X134407128Y-87509425D01*
X134386644Y-87499225D01*
X134197562Y-87382150D01*
X134179302Y-87368360D01*
X134014952Y-87218535D01*
X133999536Y-87201625D01*
X133884708Y-87049569D01*
X133360515Y-87049569D01*
X132362515Y-87049569D01*
X130860515Y-87049569D01*
X129862515Y-87049569D01*
X129629543Y-87049569D01*
X129629303Y-87049899D01*
X129627327Y-87052474D01*
X129600570Y-87085515D01*
X129598463Y-87087982D01*
X129434652Y-87269913D01*
X129432417Y-87272267D01*
X129402345Y-87302339D01*
X129399990Y-87304575D01*
X129358729Y-87341725D01*
X129356262Y-87343832D01*
X129323217Y-87370593D01*
X129320640Y-87372570D01*
X129122573Y-87516473D01*
X129119896Y-87518313D01*
X129084216Y-87541482D01*
X129081448Y-87543178D01*
X129033364Y-87570938D01*
X129030510Y-87572487D01*
X128992638Y-87591782D01*
X128989710Y-87593179D01*
X128766067Y-87692753D01*
X128763067Y-87693996D01*
X128723354Y-87709241D01*
X128720291Y-87710325D01*
X128667483Y-87727482D01*
X128664372Y-87728403D01*
X128623304Y-87739407D01*
X128620147Y-87740165D01*
X128380692Y-87791062D01*
X128377500Y-87791653D01*
X128360515Y-87794343D01*
X128360515Y-88551569D01*
X127362515Y-88551569D01*
X127362514Y-87655878D01*
X127221690Y-87593179D01*
X127218763Y-87591782D01*
X127180890Y-87572487D01*
X127178036Y-87570938D01*
X127129952Y-87543178D01*
X127127184Y-87541482D01*
X127091504Y-87518313D01*
X127088827Y-87516473D01*
X126890760Y-87372570D01*
X126888183Y-87370593D01*
X126855138Y-87343832D01*
X126852671Y-87341725D01*
X126811410Y-87304575D01*
X126809055Y-87302339D01*
X126778983Y-87272267D01*
X126776748Y-87269913D01*
X126612937Y-87087982D01*
X126610830Y-87085515D01*
X126584073Y-87052474D01*
X126582097Y-87049899D01*
X126581857Y-87049569D01*
X125860515Y-87049569D01*
X124862515Y-87049569D01*
X123360515Y-87049569D01*
X122362515Y-87049569D01*
X120860515Y-87049569D01*
X119862515Y-87049569D01*
X118360515Y-87049569D01*
X117362515Y-87049569D01*
X115860515Y-87049569D01*
X114862515Y-87049569D01*
X113360515Y-87049569D01*
X112362515Y-87049569D01*
X110860515Y-87049569D01*
X107362515Y-87049569D01*
X105860515Y-87049569D01*
X104862515Y-87049569D01*
X104249998Y-87049569D01*
X104246645Y-88551569D01*
X103122642Y-88551569D01*
X103128222Y-86051569D01*
X104252226Y-86051569D01*
X104862515Y-86051569D01*
X104862515Y-84549569D01*
X105860515Y-84549569D01*
X105860515Y-86051569D01*
X107362515Y-86051569D01*
X107362515Y-84549569D01*
X108360515Y-84549569D01*
X108360515Y-86051569D01*
X109862515Y-86051569D01*
X109862515Y-84549569D01*
X110860515Y-84549569D01*
X110860515Y-86051569D01*
X112362515Y-86051569D01*
X116026103Y-86051569D01*
X117362515Y-86051569D01*
X117362515Y-84549569D01*
X118360515Y-84549569D01*
X118360515Y-86051569D01*
X119862515Y-86051569D01*
X119862515Y-84549569D01*
X120860515Y-84549569D01*
X120860515Y-86051569D01*
X122362515Y-86051569D01*
X122362515Y-84549569D01*
X123360515Y-84549569D01*
X123360515Y-86051569D01*
X124862515Y-86051569D01*
X124862515Y-84549569D01*
X125860515Y-84549569D01*
X125860515Y-86051569D01*
X126211770Y-86051569D01*
X126204806Y-85985310D01*
X126204551Y-85982073D01*
X126202325Y-85939606D01*
X126202240Y-85936360D01*
X126202240Y-85908600D01*
X127200240Y-85908600D01*
X127220026Y-86096856D01*
X127220027Y-86096859D01*
X127278518Y-86276877D01*
X127278521Y-86276884D01*
X127373167Y-86440816D01*
X127417368Y-86489906D01*
X127499829Y-86581488D01*
X127652965Y-86692748D01*
X127652970Y-86692751D01*
X127825892Y-86769742D01*
X127825897Y-86769744D01*
X128011054Y-86809100D01*
X128011055Y-86809100D01*
X128200344Y-86809100D01*
X128200346Y-86809100D01*
X128385503Y-86769744D01*
X128558430Y-86692751D01*
X128711571Y-86581488D01*
X128838233Y-86440816D01*
X128925537Y-86289600D01*
X145386640Y-86289600D01*
X145406426Y-86477856D01*
X145406427Y-86477859D01*
X145464918Y-86657877D01*
X145464921Y-86657884D01*
X145559567Y-86821816D01*
X145686229Y-86962488D01*
X145839365Y-87073748D01*
X145839370Y-87073751D01*
X146012292Y-87150742D01*
X146012297Y-87150744D01*
X146197454Y-87190100D01*
X146197455Y-87190100D01*
X146386744Y-87190100D01*
X146386746Y-87190100D01*
X146571903Y-87150744D01*
X146744830Y-87073751D01*
X146897971Y-86962488D01*
X147024633Y-86821816D01*
X147119279Y-86657884D01*
X147177774Y-86477856D01*
X147197560Y-86289600D01*
X147177774Y-86101344D01*
X147119279Y-85921316D01*
X147024633Y-85757384D01*
X146897971Y-85616712D01*
X146873261Y-85598759D01*
X146744834Y-85505451D01*
X146744829Y-85505448D01*
X146571907Y-85428457D01*
X146571902Y-85428455D01*
X146426100Y-85397465D01*
X146386746Y-85389100D01*
X146197454Y-85389100D01*
X146164997Y-85395998D01*
X146012297Y-85428455D01*
X146012292Y-85428457D01*
X145839370Y-85505448D01*
X145839365Y-85505451D01*
X145686229Y-85616711D01*
X145559566Y-85757385D01*
X145464921Y-85921315D01*
X145464918Y-85921322D01*
X145407884Y-86096856D01*
X145406426Y-86101344D01*
X145386640Y-86289600D01*
X128925537Y-86289600D01*
X128932879Y-86276884D01*
X128991374Y-86096856D01*
X128996134Y-86051569D01*
X130860515Y-86051569D01*
X132362515Y-86051569D01*
X132362515Y-84549569D01*
X133360515Y-84549569D01*
X133360515Y-86051569D01*
X133687504Y-86051569D01*
X133746073Y-85845719D01*
X133754339Y-85824381D01*
X133853468Y-85625303D01*
X133865514Y-85605848D01*
X133999536Y-85428375D01*
X134014952Y-85411465D01*
X134179302Y-85261640D01*
X134197562Y-85247850D01*
X134386644Y-85130775D01*
X134407128Y-85120575D01*
X134614504Y-85040237D01*
X134636513Y-85033975D01*
X134855119Y-84993111D01*
X134862515Y-84992425D01*
X134862515Y-84549569D01*
X135860515Y-84549569D01*
X135860515Y-85317811D01*
X135963248Y-85411465D01*
X135978664Y-85428375D01*
X136112686Y-85605848D01*
X136124732Y-85625303D01*
X136223861Y-85824381D01*
X136232127Y-85845719D01*
X136290696Y-86051569D01*
X137362515Y-86051569D01*
X138360515Y-86051569D01*
X139862515Y-86051569D01*
X140860515Y-86051569D01*
X142362515Y-86051569D01*
X142362515Y-85202703D01*
X142254373Y-85281273D01*
X142251696Y-85283113D01*
X142216016Y-85306282D01*
X142213248Y-85307978D01*
X142165164Y-85335738D01*
X142162310Y-85337287D01*
X142124438Y-85356582D01*
X142121510Y-85357979D01*
X141897867Y-85457553D01*
X141894867Y-85458796D01*
X141855154Y-85474041D01*
X141852091Y-85475125D01*
X141799283Y-85492282D01*
X141796172Y-85493203D01*
X141755104Y-85504207D01*
X141751947Y-85504965D01*
X141512492Y-85555862D01*
X141509300Y-85556453D01*
X141467316Y-85563103D01*
X141464101Y-85563526D01*
X141408885Y-85569333D01*
X141405646Y-85569588D01*
X141363162Y-85571815D01*
X141359916Y-85571900D01*
X141115084Y-85571900D01*
X141111838Y-85571815D01*
X141069354Y-85569588D01*
X141066115Y-85569333D01*
X141010899Y-85563526D01*
X141007684Y-85563103D01*
X140965700Y-85556453D01*
X140962508Y-85555862D01*
X140860515Y-85534182D01*
X140860515Y-86051569D01*
X139862515Y-86051569D01*
X139862515Y-84984791D01*
X139713467Y-85051153D01*
X139710467Y-85052396D01*
X139670754Y-85067641D01*
X139667691Y-85068725D01*
X139614883Y-85085882D01*
X139611772Y-85086803D01*
X139570704Y-85097807D01*
X139567547Y-85098565D01*
X139328092Y-85149462D01*
X139324900Y-85150053D01*
X139282916Y-85156703D01*
X139279701Y-85157126D01*
X139224485Y-85162933D01*
X139221246Y-85163188D01*
X139178762Y-85165415D01*
X139175516Y-85165500D01*
X138930684Y-85165500D01*
X138927438Y-85165415D01*
X138884954Y-85163188D01*
X138881715Y-85162933D01*
X138826499Y-85157126D01*
X138823284Y-85156703D01*
X138781300Y-85150053D01*
X138778108Y-85149462D01*
X138538653Y-85098565D01*
X138535496Y-85097807D01*
X138494428Y-85086803D01*
X138491317Y-85085882D01*
X138438509Y-85068725D01*
X138435446Y-85067641D01*
X138395733Y-85052396D01*
X138392733Y-85051153D01*
X138360515Y-85036808D01*
X138360515Y-86051569D01*
X137362515Y-86051569D01*
X137362515Y-84549569D01*
X135860515Y-84549569D01*
X134862515Y-84549569D01*
X133360515Y-84549569D01*
X132362515Y-84549569D01*
X132182954Y-84549569D01*
X132119773Y-84595473D01*
X132117096Y-84597313D01*
X132081416Y-84620482D01*
X132078648Y-84622178D01*
X132030564Y-84649938D01*
X132027710Y-84651487D01*
X131989838Y-84670782D01*
X131986910Y-84672179D01*
X131763267Y-84771753D01*
X131760267Y-84772996D01*
X131720554Y-84788241D01*
X131717491Y-84789325D01*
X131664683Y-84806482D01*
X131661572Y-84807403D01*
X131620504Y-84818407D01*
X131617347Y-84819165D01*
X131377892Y-84870062D01*
X131374700Y-84870653D01*
X131332716Y-84877303D01*
X131329501Y-84877726D01*
X131274285Y-84883533D01*
X131271046Y-84883788D01*
X131228562Y-84886015D01*
X131225316Y-84886100D01*
X130980484Y-84886100D01*
X130977238Y-84886015D01*
X130934754Y-84883788D01*
X130931515Y-84883533D01*
X130876299Y-84877726D01*
X130873084Y-84877303D01*
X130860515Y-84875312D01*
X130860515Y-86051569D01*
X128996134Y-86051569D01*
X129011160Y-85908600D01*
X128991374Y-85720344D01*
X128932879Y-85540316D01*
X128838233Y-85376384D01*
X128711571Y-85235712D01*
X128711570Y-85235711D01*
X128558434Y-85124451D01*
X128558429Y-85124448D01*
X128385507Y-85047457D01*
X128385502Y-85047455D01*
X128239701Y-85016465D01*
X128200346Y-85008100D01*
X128011054Y-85008100D01*
X127978597Y-85014998D01*
X127825897Y-85047455D01*
X127825892Y-85047457D01*
X127652970Y-85124448D01*
X127652965Y-85124451D01*
X127499829Y-85235711D01*
X127373166Y-85376385D01*
X127278521Y-85540315D01*
X127278518Y-85540322D01*
X127234191Y-85676748D01*
X127220026Y-85720344D01*
X127200240Y-85908600D01*
X126202240Y-85908600D01*
X126202240Y-85880840D01*
X126202325Y-85877594D01*
X126204551Y-85835127D01*
X126204806Y-85831891D01*
X126230395Y-85588423D01*
X126230819Y-85585205D01*
X126237468Y-85543216D01*
X126238059Y-85540026D01*
X126249601Y-85485715D01*
X126250359Y-85482557D01*
X126261369Y-85441467D01*
X126262291Y-85438353D01*
X126337949Y-85205503D01*
X126339033Y-85202441D01*
X126354283Y-85162719D01*
X126355526Y-85159719D01*
X126378111Y-85108998D01*
X126379508Y-85106069D01*
X126398804Y-85068202D01*
X126400352Y-85065350D01*
X126522755Y-84853339D01*
X126524452Y-84850571D01*
X126547620Y-84814896D01*
X126549460Y-84812219D01*
X126582097Y-84767301D01*
X126584073Y-84764726D01*
X126610830Y-84731685D01*
X126612937Y-84729218D01*
X126774693Y-84549569D01*
X125860515Y-84549569D01*
X124862515Y-84549569D01*
X123360515Y-84549569D01*
X122362515Y-84549569D01*
X120860515Y-84549569D01*
X119862515Y-84549569D01*
X118360515Y-84549569D01*
X117362515Y-84549569D01*
X116388472Y-84549569D01*
X116391581Y-84569205D01*
X116392005Y-84572423D01*
X116417594Y-84815891D01*
X116417849Y-84819127D01*
X116420075Y-84861594D01*
X116420160Y-84864840D01*
X116420160Y-84920360D01*
X116420075Y-84923606D01*
X116417849Y-84966073D01*
X116417594Y-84969309D01*
X116392005Y-85212777D01*
X116391581Y-85215995D01*
X116384932Y-85257984D01*
X116384341Y-85261174D01*
X116372799Y-85315485D01*
X116372041Y-85318643D01*
X116361031Y-85359733D01*
X116360109Y-85362847D01*
X116284451Y-85595697D01*
X116283367Y-85598759D01*
X116268117Y-85638481D01*
X116266874Y-85641481D01*
X116244289Y-85692202D01*
X116242892Y-85695131D01*
X116223596Y-85732998D01*
X116222048Y-85735850D01*
X116099645Y-85947861D01*
X116097948Y-85950629D01*
X116074780Y-85986304D01*
X116072940Y-85988981D01*
X116040303Y-86033899D01*
X116038327Y-86036474D01*
X116026103Y-86051569D01*
X112362515Y-86051569D01*
X112362515Y-84892600D01*
X113611240Y-84892600D01*
X113631026Y-85080856D01*
X113631027Y-85080859D01*
X113689518Y-85260877D01*
X113689521Y-85260884D01*
X113784167Y-85424816D01*
X113888527Y-85540719D01*
X113910829Y-85565488D01*
X114063965Y-85676748D01*
X114063970Y-85676751D01*
X114236892Y-85753742D01*
X114236897Y-85753744D01*
X114422054Y-85793100D01*
X114422055Y-85793100D01*
X114611344Y-85793100D01*
X114611346Y-85793100D01*
X114796503Y-85753744D01*
X114969430Y-85676751D01*
X115122571Y-85565488D01*
X115249233Y-85424816D01*
X115343879Y-85260884D01*
X115402374Y-85080856D01*
X115422160Y-84892600D01*
X115402374Y-84704344D01*
X115343879Y-84524316D01*
X115249233Y-84360384D01*
X115122571Y-84219712D01*
X115122570Y-84219711D01*
X114969434Y-84108451D01*
X114969429Y-84108448D01*
X114796507Y-84031457D01*
X114796502Y-84031455D01*
X114623512Y-83994686D01*
X114611346Y-83992100D01*
X114422054Y-83992100D01*
X114409888Y-83994686D01*
X114236897Y-84031455D01*
X114236892Y-84031457D01*
X114063970Y-84108448D01*
X114063965Y-84108451D01*
X113910829Y-84219711D01*
X113784166Y-84360385D01*
X113689521Y-84524315D01*
X113689518Y-84524322D01*
X113648200Y-84651487D01*
X113631026Y-84704344D01*
X113611240Y-84892600D01*
X112362515Y-84892600D01*
X112362515Y-84549569D01*
X110860515Y-84549569D01*
X109862515Y-84549569D01*
X108360515Y-84549569D01*
X107362515Y-84549569D01*
X105860515Y-84549569D01*
X104862515Y-84549569D01*
X104255579Y-84549569D01*
X104252226Y-86051569D01*
X103128222Y-86051569D01*
X103133802Y-83551569D01*
X104257806Y-83551569D01*
X104862515Y-83551569D01*
X104862515Y-82049569D01*
X105860515Y-82049569D01*
X105860515Y-83551569D01*
X107362515Y-83551569D01*
X107362515Y-82049569D01*
X108360515Y-82049569D01*
X108360515Y-83551569D01*
X109862515Y-83551569D01*
X109862515Y-82330400D01*
X109706504Y-82330400D01*
X109683719Y-82328289D01*
X109465113Y-82287425D01*
X109443104Y-82281163D01*
X109235728Y-82200825D01*
X109215244Y-82190625D01*
X109026162Y-82073550D01*
X109007901Y-82059760D01*
X108996722Y-82049569D01*
X110860515Y-82049569D01*
X110860515Y-83551569D01*
X112362515Y-83551569D01*
X118940757Y-83551569D01*
X119862515Y-83551569D01*
X119862515Y-82049569D01*
X120860515Y-82049569D01*
X120860515Y-83551569D01*
X122362515Y-83551569D01*
X122362515Y-82049569D01*
X123360515Y-82049569D01*
X123360515Y-83551569D01*
X124862515Y-83551569D01*
X124862515Y-82049569D01*
X125860515Y-82049569D01*
X125860515Y-83551569D01*
X127091314Y-83551569D01*
X127091240Y-83548760D01*
X127091240Y-83521000D01*
X128089240Y-83521000D01*
X128109026Y-83709256D01*
X128109027Y-83709259D01*
X128167518Y-83889277D01*
X128167521Y-83889284D01*
X128262167Y-84053216D01*
X128311901Y-84108451D01*
X128388829Y-84193888D01*
X128541965Y-84305148D01*
X128541970Y-84305151D01*
X128714892Y-84382142D01*
X128714897Y-84382144D01*
X128900054Y-84421500D01*
X128900055Y-84421500D01*
X129089344Y-84421500D01*
X129089346Y-84421500D01*
X129274503Y-84382144D01*
X129447430Y-84305151D01*
X129600571Y-84193888D01*
X129727233Y-84053216D01*
X129821879Y-83889284D01*
X129880374Y-83709256D01*
X129900160Y-83521000D01*
X129880374Y-83332744D01*
X129821879Y-83152716D01*
X129727233Y-82988784D01*
X129726167Y-82987600D01*
X130197440Y-82987600D01*
X130217226Y-83175856D01*
X130217227Y-83175859D01*
X130275718Y-83355877D01*
X130275721Y-83355884D01*
X130370367Y-83519816D01*
X130474329Y-83635277D01*
X130497029Y-83660488D01*
X130650165Y-83771748D01*
X130650170Y-83771751D01*
X130823092Y-83848742D01*
X130823097Y-83848744D01*
X131008254Y-83888100D01*
X131008255Y-83888100D01*
X131197544Y-83888100D01*
X131197546Y-83888100D01*
X131382703Y-83848744D01*
X131555630Y-83771751D01*
X131708771Y-83660488D01*
X131835433Y-83519816D01*
X131930079Y-83355884D01*
X131988574Y-83175856D01*
X132008360Y-82987600D01*
X131988574Y-82799344D01*
X131930079Y-82619316D01*
X131854891Y-82489086D01*
X133360515Y-82489086D01*
X133360515Y-83551569D01*
X134862515Y-83551569D01*
X135860515Y-83551569D01*
X137174053Y-83551569D01*
X137152206Y-83343709D01*
X137151951Y-83340473D01*
X137149725Y-83298006D01*
X137149640Y-83294760D01*
X137149640Y-83267000D01*
X138147640Y-83267000D01*
X138167426Y-83455256D01*
X138167427Y-83455259D01*
X138225918Y-83635277D01*
X138225921Y-83635284D01*
X138320567Y-83799216D01*
X138378603Y-83863671D01*
X138447229Y-83939888D01*
X138600365Y-84051148D01*
X138600370Y-84051151D01*
X138773292Y-84128142D01*
X138773297Y-84128144D01*
X138958454Y-84167500D01*
X138958455Y-84167500D01*
X139147744Y-84167500D01*
X139147746Y-84167500D01*
X139332903Y-84128144D01*
X139505830Y-84051151D01*
X139658971Y-83939888D01*
X139785633Y-83799216D01*
X139858273Y-83673400D01*
X140332040Y-83673400D01*
X140351826Y-83861656D01*
X140351827Y-83861659D01*
X140410318Y-84041677D01*
X140410321Y-84041684D01*
X140504967Y-84205616D01*
X140599469Y-84310571D01*
X140631629Y-84346288D01*
X140784765Y-84457548D01*
X140784770Y-84457551D01*
X140957692Y-84534542D01*
X140957697Y-84534544D01*
X141142854Y-84573900D01*
X141142855Y-84573900D01*
X141332144Y-84573900D01*
X141332146Y-84573900D01*
X141446615Y-84549569D01*
X143360515Y-84549569D01*
X143360515Y-86051569D01*
X144408161Y-86051569D01*
X144416795Y-85969423D01*
X144417219Y-85966205D01*
X144423868Y-85924216D01*
X144424459Y-85921026D01*
X144436001Y-85866715D01*
X144436759Y-85863557D01*
X144447769Y-85822467D01*
X144448691Y-85819353D01*
X144524349Y-85586503D01*
X144525433Y-85583441D01*
X144540683Y-85543719D01*
X144541926Y-85540719D01*
X144564511Y-85489998D01*
X144565908Y-85487069D01*
X144585204Y-85449202D01*
X144586752Y-85446350D01*
X144709155Y-85234339D01*
X144710852Y-85231571D01*
X144734020Y-85195896D01*
X144735860Y-85193219D01*
X144768497Y-85148301D01*
X144770473Y-85145726D01*
X144797230Y-85112685D01*
X144799337Y-85110218D01*
X144862515Y-85040051D01*
X144862515Y-84549569D01*
X143360515Y-84549569D01*
X141446615Y-84549569D01*
X141517303Y-84534544D01*
X141690230Y-84457551D01*
X141843371Y-84346288D01*
X141970033Y-84205616D01*
X142064679Y-84041684D01*
X142123174Y-83861656D01*
X142142960Y-83673400D01*
X142123174Y-83485144D01*
X142064679Y-83305116D01*
X141970033Y-83141184D01*
X141843371Y-83000512D01*
X141843370Y-83000511D01*
X141690234Y-82889251D01*
X141690229Y-82889248D01*
X141517307Y-82812257D01*
X141517302Y-82812255D01*
X141361776Y-82779198D01*
X141332146Y-82772900D01*
X141142854Y-82772900D01*
X141113224Y-82779198D01*
X140957697Y-82812255D01*
X140957692Y-82812257D01*
X140784770Y-82889248D01*
X140784765Y-82889251D01*
X140631629Y-83000511D01*
X140504966Y-83141185D01*
X140410321Y-83305115D01*
X140410318Y-83305122D01*
X140351827Y-83485140D01*
X140351826Y-83485144D01*
X140332040Y-83673400D01*
X139858273Y-83673400D01*
X139880279Y-83635284D01*
X139938774Y-83455256D01*
X139958560Y-83267000D01*
X139938774Y-83078744D01*
X139880279Y-82898716D01*
X139785633Y-82734784D01*
X139658971Y-82594112D01*
X139658970Y-82594111D01*
X139505834Y-82482851D01*
X139505829Y-82482848D01*
X139332907Y-82405857D01*
X139332902Y-82405855D01*
X139187100Y-82374865D01*
X139147746Y-82366500D01*
X138958454Y-82366500D01*
X138925997Y-82373398D01*
X138773297Y-82405855D01*
X138773292Y-82405857D01*
X138600370Y-82482848D01*
X138600365Y-82482851D01*
X138447229Y-82594111D01*
X138320566Y-82734785D01*
X138225921Y-82898715D01*
X138225918Y-82898722D01*
X138170078Y-83070582D01*
X138167426Y-83078744D01*
X138147640Y-83267000D01*
X137149640Y-83267000D01*
X137149640Y-83239240D01*
X137149725Y-83235994D01*
X137151951Y-83193527D01*
X137152206Y-83190291D01*
X137177795Y-82946823D01*
X137178219Y-82943605D01*
X137184868Y-82901616D01*
X137185459Y-82898426D01*
X137197001Y-82844115D01*
X137197759Y-82840957D01*
X137208769Y-82799867D01*
X137209691Y-82796753D01*
X137285349Y-82563903D01*
X137286433Y-82560841D01*
X137301683Y-82521119D01*
X137302926Y-82518119D01*
X137325511Y-82467398D01*
X137326908Y-82464469D01*
X137346204Y-82426602D01*
X137347752Y-82423751D01*
X137362515Y-82398179D01*
X137362515Y-82049569D01*
X136693949Y-82049569D01*
X136680651Y-82090497D01*
X136679567Y-82093559D01*
X136664317Y-82133281D01*
X136663074Y-82136281D01*
X136640489Y-82187002D01*
X136639092Y-82189931D01*
X136619796Y-82227798D01*
X136618248Y-82230650D01*
X136495845Y-82442661D01*
X136494148Y-82445429D01*
X136470980Y-82481104D01*
X136469140Y-82483781D01*
X136436503Y-82528699D01*
X136434527Y-82531274D01*
X136407770Y-82564315D01*
X136405663Y-82566782D01*
X136241852Y-82748713D01*
X136239617Y-82751067D01*
X136209545Y-82781139D01*
X136207190Y-82783375D01*
X136165929Y-82820525D01*
X136163462Y-82822632D01*
X136130417Y-82849393D01*
X136127840Y-82851370D01*
X135929773Y-82995273D01*
X135927096Y-82997113D01*
X135891416Y-83020282D01*
X135888648Y-83021978D01*
X135860515Y-83038219D01*
X135860515Y-83551569D01*
X134862515Y-83551569D01*
X134862515Y-83285900D01*
X134790484Y-83285900D01*
X134787238Y-83285815D01*
X134744754Y-83283588D01*
X134741515Y-83283333D01*
X134686299Y-83277526D01*
X134683084Y-83277103D01*
X134641100Y-83270453D01*
X134637908Y-83269862D01*
X134398453Y-83218965D01*
X134395296Y-83218207D01*
X134354228Y-83207203D01*
X134351117Y-83206282D01*
X134298309Y-83189125D01*
X134295246Y-83188041D01*
X134255533Y-83172796D01*
X134252533Y-83171553D01*
X134028890Y-83071979D01*
X134025962Y-83070582D01*
X133988090Y-83051287D01*
X133985236Y-83049738D01*
X133937152Y-83021978D01*
X133934384Y-83020282D01*
X133898704Y-82997113D01*
X133896027Y-82995273D01*
X133697960Y-82851370D01*
X133695383Y-82849393D01*
X133662338Y-82822632D01*
X133659871Y-82820525D01*
X133618610Y-82783375D01*
X133616255Y-82781139D01*
X133586183Y-82751067D01*
X133583948Y-82748713D01*
X133420137Y-82566782D01*
X133418030Y-82564315D01*
X133391273Y-82531274D01*
X133389297Y-82528699D01*
X133360515Y-82489086D01*
X131854891Y-82489086D01*
X131835433Y-82455384D01*
X131708771Y-82314712D01*
X131687751Y-82299440D01*
X131555634Y-82203451D01*
X131555629Y-82203448D01*
X131382707Y-82126457D01*
X131382702Y-82126455D01*
X131227933Y-82093559D01*
X131197546Y-82087100D01*
X131008254Y-82087100D01*
X130977867Y-82093559D01*
X130823097Y-82126455D01*
X130823092Y-82126457D01*
X130650170Y-82203448D01*
X130650165Y-82203451D01*
X130497029Y-82314711D01*
X130370366Y-82455385D01*
X130275721Y-82619315D01*
X130275718Y-82619322D01*
X130218854Y-82794333D01*
X130217226Y-82799344D01*
X130197440Y-82987600D01*
X129726167Y-82987600D01*
X129600571Y-82848112D01*
X129600570Y-82848111D01*
X129447434Y-82736851D01*
X129447429Y-82736848D01*
X129274507Y-82659857D01*
X129274502Y-82659855D01*
X129128700Y-82628865D01*
X129089346Y-82620500D01*
X128900054Y-82620500D01*
X128867597Y-82627398D01*
X128714897Y-82659855D01*
X128714892Y-82659857D01*
X128541970Y-82736848D01*
X128541965Y-82736851D01*
X128388829Y-82848111D01*
X128262166Y-82988785D01*
X128167521Y-83152715D01*
X128167518Y-83152722D01*
X128120313Y-83298006D01*
X128109026Y-83332744D01*
X128089240Y-83521000D01*
X127091240Y-83521000D01*
X127091240Y-83493240D01*
X127091325Y-83489994D01*
X127093551Y-83447527D01*
X127093806Y-83444291D01*
X127119395Y-83200823D01*
X127119819Y-83197605D01*
X127126468Y-83155616D01*
X127127059Y-83152426D01*
X127138601Y-83098115D01*
X127139359Y-83094957D01*
X127150369Y-83053867D01*
X127151291Y-83050753D01*
X127226949Y-82817903D01*
X127228033Y-82814841D01*
X127243283Y-82775119D01*
X127244526Y-82772119D01*
X127267111Y-82721398D01*
X127268508Y-82718469D01*
X127287804Y-82680602D01*
X127289352Y-82677751D01*
X127362515Y-82551026D01*
X127362515Y-82049569D01*
X125860515Y-82049569D01*
X124862515Y-82049569D01*
X123360515Y-82049569D01*
X122362515Y-82049569D01*
X120860515Y-82049569D01*
X119862515Y-82049569D01*
X119368277Y-82049569D01*
X119389394Y-82250491D01*
X119389649Y-82253727D01*
X119391875Y-82296194D01*
X119391960Y-82299440D01*
X119391960Y-82354960D01*
X119391875Y-82358206D01*
X119389649Y-82400673D01*
X119389394Y-82403909D01*
X119363805Y-82647377D01*
X119363381Y-82650595D01*
X119356732Y-82692584D01*
X119356141Y-82695774D01*
X119344599Y-82750085D01*
X119343841Y-82753243D01*
X119332831Y-82794333D01*
X119331909Y-82797447D01*
X119256251Y-83030297D01*
X119255167Y-83033359D01*
X119239917Y-83073081D01*
X119238674Y-83076081D01*
X119216089Y-83126802D01*
X119214692Y-83129731D01*
X119195396Y-83167598D01*
X119193848Y-83170450D01*
X119071445Y-83382461D01*
X119069748Y-83385229D01*
X119046580Y-83420904D01*
X119044740Y-83423581D01*
X119012103Y-83468499D01*
X119010127Y-83471074D01*
X118983370Y-83504115D01*
X118981263Y-83506582D01*
X118940757Y-83551569D01*
X112362515Y-83551569D01*
X112362515Y-82049569D01*
X113360515Y-82049569D01*
X113360515Y-83385942D01*
X113499827Y-83284727D01*
X113502504Y-83282887D01*
X113538184Y-83259718D01*
X113540952Y-83258022D01*
X113589036Y-83230262D01*
X113591890Y-83228713D01*
X113629762Y-83209418D01*
X113632690Y-83208021D01*
X113856333Y-83108447D01*
X113859333Y-83107204D01*
X113899046Y-83091959D01*
X113902109Y-83090875D01*
X113954917Y-83073718D01*
X113958028Y-83072797D01*
X113999096Y-83061793D01*
X114002253Y-83061035D01*
X114241708Y-83010138D01*
X114244900Y-83009547D01*
X114286884Y-83002897D01*
X114290099Y-83002474D01*
X114345315Y-82996667D01*
X114348554Y-82996412D01*
X114391038Y-82994185D01*
X114394284Y-82994100D01*
X114639116Y-82994100D01*
X114642362Y-82994185D01*
X114684846Y-82996412D01*
X114688085Y-82996667D01*
X114743301Y-83002474D01*
X114746516Y-83002897D01*
X114788500Y-83009547D01*
X114791692Y-83010138D01*
X114862515Y-83025191D01*
X114862515Y-82327200D01*
X116583040Y-82327200D01*
X116602826Y-82515456D01*
X116602827Y-82515459D01*
X116661318Y-82695477D01*
X116661321Y-82695484D01*
X116755967Y-82859416D01*
X116845589Y-82958951D01*
X116882629Y-83000088D01*
X117035765Y-83111348D01*
X117035770Y-83111351D01*
X117208692Y-83188342D01*
X117208697Y-83188344D01*
X117393854Y-83227700D01*
X117393855Y-83227700D01*
X117583144Y-83227700D01*
X117583146Y-83227700D01*
X117768303Y-83188344D01*
X117941230Y-83111351D01*
X118094371Y-83000088D01*
X118221033Y-82859416D01*
X118315679Y-82695484D01*
X118374174Y-82515456D01*
X118393960Y-82327200D01*
X118374174Y-82138944D01*
X118315679Y-81958916D01*
X118221033Y-81794984D01*
X118094371Y-81654312D01*
X118094370Y-81654311D01*
X117941234Y-81543051D01*
X117941229Y-81543048D01*
X117768307Y-81466057D01*
X117768302Y-81466055D01*
X117622501Y-81435065D01*
X117583146Y-81426700D01*
X117393854Y-81426700D01*
X117361397Y-81433598D01*
X117208697Y-81466055D01*
X117208692Y-81466057D01*
X117035770Y-81543048D01*
X117035765Y-81543051D01*
X116882629Y-81654311D01*
X116755966Y-81794985D01*
X116661321Y-81958915D01*
X116661318Y-81958922D01*
X116606883Y-82126457D01*
X116602826Y-82138944D01*
X116583040Y-82327200D01*
X114862515Y-82327200D01*
X114862515Y-82049569D01*
X113360515Y-82049569D01*
X112362515Y-82049569D01*
X110860515Y-82049569D01*
X108996722Y-82049569D01*
X108360515Y-82049569D01*
X107362515Y-82049569D01*
X105860515Y-82049569D01*
X104862515Y-82049569D01*
X104261159Y-82049569D01*
X104257806Y-83551569D01*
X103133802Y-83551569D01*
X103138632Y-81387400D01*
X134007440Y-81387400D01*
X134027226Y-81575656D01*
X134027227Y-81575659D01*
X134085718Y-81755677D01*
X134085721Y-81755684D01*
X134180367Y-81919616D01*
X134273858Y-82023448D01*
X134307029Y-82060288D01*
X134460165Y-82171548D01*
X134460170Y-82171551D01*
X134633092Y-82248542D01*
X134633097Y-82248544D01*
X134818254Y-82287900D01*
X134818255Y-82287900D01*
X135007544Y-82287900D01*
X135007546Y-82287900D01*
X135192703Y-82248544D01*
X135365630Y-82171551D01*
X135518771Y-82060288D01*
X135645433Y-81919616D01*
X135740079Y-81755684D01*
X135798574Y-81575656D01*
X135818360Y-81387400D01*
X135807682Y-81285800D01*
X140459040Y-81285800D01*
X140478826Y-81474056D01*
X140478827Y-81474059D01*
X140537318Y-81654077D01*
X140537321Y-81654084D01*
X140631967Y-81818016D01*
X140749366Y-81948400D01*
X140758629Y-81958688D01*
X140911765Y-82069948D01*
X140911770Y-82069951D01*
X141084692Y-82146942D01*
X141084697Y-82146944D01*
X141269854Y-82186300D01*
X141269855Y-82186300D01*
X141459144Y-82186300D01*
X141459146Y-82186300D01*
X141513250Y-82174800D01*
X142364040Y-82174800D01*
X142383826Y-82363056D01*
X142383827Y-82363059D01*
X142442318Y-82543077D01*
X142442321Y-82543084D01*
X142536967Y-82707016D01*
X142657568Y-82840957D01*
X142663629Y-82847688D01*
X142816765Y-82958948D01*
X142816770Y-82958951D01*
X142989692Y-83035942D01*
X142989697Y-83035944D01*
X143174854Y-83075300D01*
X143174855Y-83075300D01*
X143364144Y-83075300D01*
X143364146Y-83075300D01*
X143549303Y-83035944D01*
X143722230Y-82958951D01*
X143875371Y-82847688D01*
X144002033Y-82707016D01*
X144096679Y-82543084D01*
X144155174Y-82363056D01*
X144174960Y-82174800D01*
X144161798Y-82049569D01*
X145860515Y-82049569D01*
X145860515Y-83551569D01*
X146995196Y-83551569D01*
X146994796Y-83549230D01*
X146994262Y-83545394D01*
X146982800Y-83438790D01*
X146982644Y-83437134D01*
X146980898Y-83415428D01*
X146980787Y-83413771D01*
X146979269Y-83385427D01*
X146979202Y-83383769D01*
X146978622Y-83362063D01*
X146978600Y-83360406D01*
X146978600Y-82497854D01*
X146988039Y-82450402D01*
X146988868Y-82448400D01*
X146988039Y-82446398D01*
X146978600Y-82398946D01*
X146978600Y-82049569D01*
X145860515Y-82049569D01*
X144161798Y-82049569D01*
X144155174Y-81986544D01*
X144096679Y-81806516D01*
X144002033Y-81642584D01*
X143875371Y-81501912D01*
X143860389Y-81491027D01*
X143722234Y-81390651D01*
X143722229Y-81390648D01*
X143549307Y-81313657D01*
X143549302Y-81313655D01*
X143403501Y-81282665D01*
X143364146Y-81274300D01*
X143174854Y-81274300D01*
X143142397Y-81281198D01*
X142989697Y-81313655D01*
X142989692Y-81313657D01*
X142816770Y-81390648D01*
X142816765Y-81390651D01*
X142663629Y-81501911D01*
X142536966Y-81642585D01*
X142442321Y-81806515D01*
X142442318Y-81806522D01*
X142392877Y-81958688D01*
X142383826Y-81986544D01*
X142364040Y-82174800D01*
X141513250Y-82174800D01*
X141644303Y-82146944D01*
X141817230Y-82069951D01*
X141970371Y-81958688D01*
X142097033Y-81818016D01*
X142191679Y-81654084D01*
X142250174Y-81474056D01*
X142269960Y-81285800D01*
X142250174Y-81097544D01*
X142191679Y-80917516D01*
X142097033Y-80753584D01*
X141970371Y-80612912D01*
X141957070Y-80603248D01*
X141817234Y-80501651D01*
X141817229Y-80501648D01*
X141644307Y-80424657D01*
X141644302Y-80424655D01*
X141498501Y-80393665D01*
X141459146Y-80385300D01*
X141269854Y-80385300D01*
X141237397Y-80392198D01*
X141084697Y-80424655D01*
X141084692Y-80424657D01*
X140911770Y-80501648D01*
X140911765Y-80501651D01*
X140758629Y-80612911D01*
X140631966Y-80753585D01*
X140537321Y-80917515D01*
X140537318Y-80917522D01*
X140493764Y-81051569D01*
X140478826Y-81097544D01*
X140459040Y-81285800D01*
X135807682Y-81285800D01*
X135798574Y-81199144D01*
X135740079Y-81019116D01*
X135645433Y-80855184D01*
X135518771Y-80714512D01*
X135497616Y-80699142D01*
X135365634Y-80603251D01*
X135365629Y-80603248D01*
X135192707Y-80526257D01*
X135192702Y-80526255D01*
X135046350Y-80495148D01*
X135007546Y-80486900D01*
X134818254Y-80486900D01*
X134785797Y-80493798D01*
X134633097Y-80526255D01*
X134633092Y-80526257D01*
X134460170Y-80603248D01*
X134460165Y-80603251D01*
X134307029Y-80714511D01*
X134180366Y-80855185D01*
X134085721Y-81019115D01*
X134085718Y-81019122D01*
X134041553Y-81155049D01*
X134027226Y-81199144D01*
X134007440Y-81387400D01*
X103138632Y-81387400D01*
X103139382Y-81051569D01*
X104263386Y-81051569D01*
X104862515Y-81051569D01*
X105860515Y-81051569D01*
X107362515Y-81051569D01*
X107362515Y-79992111D01*
X107353929Y-79997069D01*
X107351557Y-79998369D01*
X107320137Y-80014725D01*
X107317711Y-80015922D01*
X107061709Y-80135298D01*
X107059234Y-80136387D01*
X107026516Y-80149939D01*
X107023998Y-80150919D01*
X106980523Y-80166745D01*
X106977958Y-80167616D01*
X106944140Y-80178279D01*
X106941542Y-80179037D01*
X106477715Y-80303316D01*
X106421431Y-80305158D01*
X106197399Y-80260594D01*
X105973369Y-80305158D01*
X105917085Y-80303316D01*
X105860515Y-80288158D01*
X105860515Y-81051569D01*
X104862515Y-81051569D01*
X104862515Y-79879281D01*
X104734947Y-79789956D01*
X104732766Y-79788358D01*
X104704662Y-79766793D01*
X104702552Y-79765100D01*
X104667112Y-79735364D01*
X104665077Y-79733579D01*
X104638944Y-79709633D01*
X104636989Y-79707762D01*
X104478797Y-79549569D01*
X108360515Y-79549569D01*
X108360515Y-81051569D01*
X108492213Y-81051569D01*
X108489088Y-81017841D01*
X108489088Y-80994959D01*
X108509608Y-80773515D01*
X108513813Y-80751022D01*
X108574673Y-80537119D01*
X108582939Y-80515781D01*
X108682068Y-80316703D01*
X108694114Y-80297248D01*
X108828136Y-80119775D01*
X108843552Y-80102865D01*
X109007902Y-79953040D01*
X109026162Y-79939250D01*
X109215244Y-79822175D01*
X109235728Y-79811975D01*
X109443104Y-79731637D01*
X109465113Y-79725375D01*
X109683719Y-79684511D01*
X109706504Y-79682400D01*
X109862515Y-79682400D01*
X109862515Y-79549569D01*
X110860515Y-79549569D01*
X110860515Y-80190290D01*
X110941286Y-80297248D01*
X110953332Y-80316703D01*
X111052461Y-80515781D01*
X111060727Y-80537119D01*
X111121587Y-80751022D01*
X111125792Y-80773515D01*
X111146312Y-80994959D01*
X111146312Y-81017841D01*
X111143187Y-81051569D01*
X112362515Y-81051569D01*
X115860515Y-81051569D01*
X116082400Y-81051569D01*
X116159548Y-80965887D01*
X116161783Y-80963533D01*
X116191855Y-80933461D01*
X116194210Y-80931225D01*
X116235471Y-80894075D01*
X116237938Y-80891968D01*
X116270983Y-80865207D01*
X116273560Y-80863230D01*
X116471627Y-80719327D01*
X116474304Y-80717487D01*
X116509984Y-80694318D01*
X116512752Y-80692622D01*
X116560836Y-80664862D01*
X116563690Y-80663313D01*
X116601562Y-80644018D01*
X116604490Y-80642621D01*
X116828133Y-80543047D01*
X116831133Y-80541804D01*
X116870846Y-80526559D01*
X116873909Y-80525475D01*
X116926717Y-80508318D01*
X116929828Y-80507397D01*
X116970896Y-80496393D01*
X116974053Y-80495635D01*
X117213508Y-80444738D01*
X117216700Y-80444147D01*
X117258684Y-80437497D01*
X117261899Y-80437074D01*
X117317115Y-80431267D01*
X117320354Y-80431012D01*
X117362514Y-80428801D01*
X117362515Y-79549569D01*
X118360515Y-79549569D01*
X118360515Y-80637281D01*
X118372510Y-80642622D01*
X118375438Y-80644018D01*
X118413310Y-80663313D01*
X118416164Y-80664862D01*
X118464248Y-80692622D01*
X118467016Y-80694318D01*
X118502696Y-80717487D01*
X118505373Y-80719327D01*
X118703440Y-80863230D01*
X118706017Y-80865207D01*
X118739062Y-80891968D01*
X118741529Y-80894075D01*
X118782790Y-80931225D01*
X118785145Y-80933461D01*
X118815217Y-80963533D01*
X118817452Y-80965887D01*
X118894600Y-81051569D01*
X119862515Y-81051569D01*
X119862515Y-79549569D01*
X120860515Y-79549569D01*
X120860515Y-81051569D01*
X122362515Y-81051569D01*
X125860515Y-81051569D01*
X127362515Y-81051569D01*
X127362515Y-79549569D01*
X128360515Y-79549569D01*
X128360515Y-81051569D01*
X129862515Y-81051569D01*
X129862515Y-79549569D01*
X130860515Y-79549569D01*
X130860515Y-81051569D01*
X132362515Y-81051569D01*
X132362515Y-79838000D01*
X136039440Y-79838000D01*
X136059226Y-80026256D01*
X136059227Y-80026259D01*
X136117718Y-80206277D01*
X136117721Y-80206284D01*
X136212367Y-80370216D01*
X136285809Y-80451781D01*
X136339029Y-80510888D01*
X136492165Y-80622148D01*
X136492170Y-80622151D01*
X136665092Y-80699142D01*
X136665097Y-80699144D01*
X136850254Y-80738500D01*
X136850255Y-80738500D01*
X137039544Y-80738500D01*
X137039546Y-80738500D01*
X137224703Y-80699144D01*
X137397630Y-80622151D01*
X137550771Y-80510888D01*
X137677433Y-80370216D01*
X137719341Y-80297628D01*
X137769907Y-80249414D01*
X137838514Y-80236190D01*
X137903379Y-80262158D01*
X137918874Y-80276654D01*
X137944540Y-80305158D01*
X138015429Y-80383888D01*
X138168565Y-80495148D01*
X138168570Y-80495151D01*
X138341492Y-80572142D01*
X138341497Y-80572144D01*
X138526654Y-80611500D01*
X138526655Y-80611500D01*
X138715944Y-80611500D01*
X138715946Y-80611500D01*
X138901103Y-80572144D01*
X139074030Y-80495151D01*
X139227171Y-80383888D01*
X139353833Y-80243216D01*
X139448479Y-80079284D01*
X139506974Y-79899256D01*
X139526760Y-79711000D01*
X139506974Y-79522744D01*
X139448479Y-79342716D01*
X139353833Y-79178784D01*
X139227171Y-79038112D01*
X139227170Y-79038111D01*
X139074034Y-78926851D01*
X139074029Y-78926848D01*
X138901107Y-78849857D01*
X138901102Y-78849855D01*
X138754440Y-78818682D01*
X138715946Y-78810500D01*
X138526654Y-78810500D01*
X138494197Y-78817398D01*
X138341497Y-78849855D01*
X138341492Y-78849857D01*
X138168570Y-78926848D01*
X138168565Y-78926851D01*
X138015429Y-79038111D01*
X137888765Y-79178785D01*
X137846859Y-79251370D01*
X137796292Y-79299586D01*
X137727685Y-79312809D01*
X137662820Y-79286840D01*
X137647325Y-79272345D01*
X137550771Y-79165112D01*
X137550767Y-79165109D01*
X137397634Y-79053851D01*
X137397629Y-79053848D01*
X137224707Y-78976857D01*
X137224702Y-78976855D01*
X137078901Y-78945865D01*
X137039546Y-78937500D01*
X136850254Y-78937500D01*
X136817797Y-78944398D01*
X136665097Y-78976855D01*
X136665092Y-78976857D01*
X136492170Y-79053848D01*
X136492165Y-79053851D01*
X136339029Y-79165111D01*
X136212366Y-79305785D01*
X136117721Y-79469715D01*
X136117718Y-79469722D01*
X136088675Y-79559109D01*
X136059226Y-79649744D01*
X136039440Y-79838000D01*
X132362515Y-79838000D01*
X132362515Y-79549569D01*
X130860515Y-79549569D01*
X129862515Y-79549569D01*
X128360515Y-79549569D01*
X127362515Y-79549569D01*
X126260449Y-79549569D01*
X126247205Y-79675577D01*
X126246781Y-79678795D01*
X126240132Y-79720784D01*
X126239541Y-79723974D01*
X126227999Y-79778285D01*
X126227241Y-79781443D01*
X126216231Y-79822533D01*
X126215309Y-79825647D01*
X126139651Y-80058497D01*
X126138567Y-80061559D01*
X126123317Y-80101281D01*
X126122074Y-80104281D01*
X126099489Y-80155002D01*
X126098092Y-80157931D01*
X126078796Y-80195798D01*
X126077248Y-80198650D01*
X125954845Y-80410661D01*
X125953148Y-80413429D01*
X125929980Y-80449104D01*
X125928140Y-80451781D01*
X125895503Y-80496699D01*
X125893527Y-80499274D01*
X125866770Y-80532315D01*
X125864662Y-80534783D01*
X125860515Y-80539388D01*
X125860515Y-81051569D01*
X122362515Y-81051569D01*
X122362515Y-79549569D01*
X120860515Y-79549569D01*
X119862515Y-79549569D01*
X118360515Y-79549569D01*
X117362515Y-79549569D01*
X116164179Y-79549569D01*
X116163849Y-79555873D01*
X116163594Y-79559109D01*
X116138005Y-79802577D01*
X116137581Y-79805795D01*
X116130932Y-79847784D01*
X116130341Y-79850974D01*
X116118799Y-79905285D01*
X116118041Y-79908443D01*
X116107031Y-79949533D01*
X116106109Y-79952647D01*
X116030451Y-80185497D01*
X116029367Y-80188559D01*
X116014117Y-80228281D01*
X116012874Y-80231281D01*
X115990289Y-80282002D01*
X115988892Y-80284931D01*
X115969596Y-80322798D01*
X115968048Y-80325650D01*
X115860515Y-80511903D01*
X115860515Y-81051569D01*
X112362515Y-81051569D01*
X112362515Y-79565858D01*
X112361806Y-79559109D01*
X112361551Y-79555873D01*
X112361221Y-79549569D01*
X110860515Y-79549569D01*
X109862515Y-79549569D01*
X108360515Y-79549569D01*
X104478797Y-79549569D01*
X104266739Y-79549569D01*
X104263386Y-81051569D01*
X103139382Y-81051569D01*
X103142885Y-79482400D01*
X113357240Y-79482400D01*
X113377026Y-79670656D01*
X113377027Y-79670659D01*
X113435518Y-79850677D01*
X113435521Y-79850684D01*
X113530167Y-80014616D01*
X113642657Y-80139548D01*
X113656829Y-80155288D01*
X113809965Y-80266548D01*
X113809970Y-80266551D01*
X113982892Y-80343542D01*
X113982897Y-80343544D01*
X114168054Y-80382900D01*
X114168055Y-80382900D01*
X114357344Y-80382900D01*
X114357346Y-80382900D01*
X114542503Y-80343544D01*
X114715430Y-80266551D01*
X114868571Y-80155288D01*
X114995233Y-80014616D01*
X115089879Y-79850684D01*
X115148374Y-79670656D01*
X115168160Y-79482400D01*
X115154812Y-79355400D01*
X123466440Y-79355400D01*
X123486226Y-79543656D01*
X123486227Y-79543659D01*
X123544718Y-79723677D01*
X123544721Y-79723684D01*
X123639367Y-79887616D01*
X123733455Y-79992111D01*
X123766029Y-80028288D01*
X123919165Y-80139548D01*
X123919170Y-80139551D01*
X124092092Y-80216542D01*
X124092097Y-80216544D01*
X124277254Y-80255900D01*
X124277255Y-80255900D01*
X124466544Y-80255900D01*
X124466546Y-80255900D01*
X124651703Y-80216544D01*
X124824630Y-80139551D01*
X124977771Y-80028288D01*
X125104433Y-79887616D01*
X125199079Y-79723684D01*
X125257574Y-79543656D01*
X125277360Y-79355400D01*
X125257574Y-79167144D01*
X125199079Y-78987116D01*
X125104433Y-78823184D01*
X124977771Y-78682512D01*
X124977770Y-78682511D01*
X124824634Y-78571251D01*
X124824629Y-78571248D01*
X124651707Y-78494257D01*
X124651702Y-78494255D01*
X124505900Y-78463265D01*
X124466546Y-78454900D01*
X124277254Y-78454900D01*
X124244797Y-78461798D01*
X124092097Y-78494255D01*
X124092092Y-78494257D01*
X123919170Y-78571248D01*
X123919165Y-78571251D01*
X123766029Y-78682511D01*
X123639366Y-78823185D01*
X123544721Y-78987115D01*
X123544718Y-78987122D01*
X123486886Y-79165112D01*
X123486226Y-79167144D01*
X123466440Y-79355400D01*
X115154812Y-79355400D01*
X115148374Y-79294144D01*
X115089879Y-79114116D01*
X114995233Y-78950184D01*
X114868571Y-78809512D01*
X114868570Y-78809511D01*
X114715434Y-78698251D01*
X114715429Y-78698248D01*
X114542507Y-78621257D01*
X114542502Y-78621255D01*
X114396701Y-78590265D01*
X114357346Y-78581900D01*
X114168054Y-78581900D01*
X114135597Y-78588798D01*
X113982897Y-78621255D01*
X113982892Y-78621257D01*
X113809970Y-78698248D01*
X113809965Y-78698251D01*
X113656829Y-78809511D01*
X113530166Y-78950185D01*
X113435521Y-79114115D01*
X113435518Y-79114122D01*
X113379399Y-79286840D01*
X113377026Y-79294144D01*
X113357240Y-79482400D01*
X103142885Y-79482400D01*
X103149977Y-76305470D01*
X104846900Y-76305470D01*
X104846901Y-76305476D01*
X104853308Y-76365083D01*
X104903602Y-76499928D01*
X104903606Y-76499935D01*
X104989852Y-76615144D01*
X104989855Y-76615147D01*
X105105064Y-76701393D01*
X105105071Y-76701397D01*
X105105074Y-76701398D01*
X105236998Y-76750602D01*
X105292931Y-76792473D01*
X105317349Y-76857937D01*
X105302498Y-76926210D01*
X105281347Y-76954465D01*
X105159286Y-77076526D01*
X105023800Y-77270020D01*
X105023799Y-77270022D01*
X104923970Y-77484107D01*
X104923967Y-77484113D01*
X104866764Y-77697599D01*
X104866764Y-77697600D01*
X105763714Y-77697600D01*
X105737907Y-77737756D01*
X105697400Y-77875711D01*
X105697400Y-78019489D01*
X105737907Y-78157444D01*
X105763714Y-78197600D01*
X104866764Y-78197600D01*
X104923967Y-78411086D01*
X104923970Y-78411092D01*
X105023799Y-78625178D01*
X105159294Y-78818682D01*
X105326317Y-78985705D01*
X105519821Y-79121200D01*
X105733907Y-79221029D01*
X105733916Y-79221033D01*
X105947400Y-79278234D01*
X105947400Y-78383101D01*
X106055085Y-78432280D01*
X106161637Y-78447600D01*
X106233163Y-78447600D01*
X106339715Y-78432280D01*
X106447400Y-78383101D01*
X106447400Y-79278233D01*
X106660883Y-79221033D01*
X106660892Y-79221029D01*
X106874978Y-79121200D01*
X107068482Y-78985705D01*
X107235505Y-78818682D01*
X107371000Y-78625178D01*
X107470829Y-78411092D01*
X107470832Y-78411086D01*
X107528036Y-78197600D01*
X106631086Y-78197600D01*
X106656893Y-78157444D01*
X106697400Y-78019489D01*
X106697400Y-77875711D01*
X106656893Y-77737756D01*
X106631086Y-77697600D01*
X107528036Y-77697600D01*
X107528035Y-77697599D01*
X107470832Y-77484113D01*
X107470829Y-77484107D01*
X107371000Y-77270022D01*
X107370999Y-77270020D01*
X107235513Y-77076526D01*
X107235508Y-77076520D01*
X107208557Y-77049569D01*
X108369373Y-77049569D01*
X108385098Y-77083291D01*
X108386187Y-77085766D01*
X108399740Y-77118484D01*
X108400719Y-77121004D01*
X108416545Y-77164476D01*
X108417415Y-77167039D01*
X108428078Y-77200853D01*
X108428835Y-77203453D01*
X108553119Y-77667282D01*
X108554961Y-77723568D01*
X108510397Y-77947600D01*
X108554961Y-78171632D01*
X108553119Y-78227918D01*
X108466396Y-78551569D01*
X109862515Y-78551569D01*
X109862515Y-77049569D01*
X110860515Y-77049569D01*
X110860515Y-78551569D01*
X111530002Y-78551569D01*
X111439752Y-78395250D01*
X111438204Y-78392398D01*
X111418908Y-78354531D01*
X111417511Y-78351602D01*
X111394926Y-78300881D01*
X111393683Y-78297881D01*
X111378433Y-78258159D01*
X111377349Y-78255097D01*
X111301691Y-78022247D01*
X111300769Y-78019133D01*
X111289759Y-77978043D01*
X111289001Y-77974885D01*
X111277459Y-77920574D01*
X111276868Y-77917384D01*
X111270219Y-77875395D01*
X111269795Y-77872177D01*
X111244206Y-77628709D01*
X111243951Y-77625473D01*
X111241725Y-77583006D01*
X111241640Y-77579760D01*
X111241640Y-77552000D01*
X112239640Y-77552000D01*
X112259426Y-77740256D01*
X112259427Y-77740259D01*
X112317918Y-77920277D01*
X112317921Y-77920284D01*
X112412567Y-78084216D01*
X112504079Y-78185850D01*
X112539229Y-78224888D01*
X112692365Y-78336148D01*
X112692370Y-78336151D01*
X112865292Y-78413142D01*
X112865297Y-78413144D01*
X113050454Y-78452500D01*
X113050455Y-78452500D01*
X113239744Y-78452500D01*
X113239746Y-78452500D01*
X113424903Y-78413144D01*
X113597830Y-78336151D01*
X113750971Y-78224888D01*
X113877633Y-78084216D01*
X113972279Y-77920284D01*
X114030774Y-77740256D01*
X114044442Y-77610201D01*
X114071026Y-77545589D01*
X114117327Y-77509886D01*
X114195027Y-77475291D01*
X114258230Y-77447151D01*
X114411371Y-77335888D01*
X114538033Y-77195216D01*
X114622122Y-77049569D01*
X115860515Y-77049569D01*
X115860515Y-78452895D01*
X115917483Y-78551569D01*
X117362515Y-78551569D01*
X117362515Y-77049569D01*
X118360515Y-77049569D01*
X118360515Y-78551569D01*
X119862515Y-78551569D01*
X119862515Y-77049569D01*
X120860515Y-77049569D01*
X120860515Y-78551569D01*
X122362515Y-78551569D01*
X122362515Y-77049569D01*
X120860515Y-77049569D01*
X119862515Y-77049569D01*
X118360515Y-77049569D01*
X117362515Y-77049569D01*
X115860515Y-77049569D01*
X114622122Y-77049569D01*
X114632679Y-77031284D01*
X114686318Y-76866200D01*
X123796640Y-76866200D01*
X123816426Y-77054456D01*
X123816427Y-77054459D01*
X123874918Y-77234477D01*
X123874921Y-77234484D01*
X123969567Y-77398416D01*
X124077151Y-77517900D01*
X124096229Y-77539088D01*
X124249365Y-77650348D01*
X124249370Y-77650351D01*
X124422292Y-77727342D01*
X124422297Y-77727344D01*
X124607454Y-77766700D01*
X124607455Y-77766700D01*
X124796744Y-77766700D01*
X124796746Y-77766700D01*
X124981903Y-77727344D01*
X125147533Y-77653600D01*
X126895440Y-77653600D01*
X126915226Y-77841856D01*
X126915227Y-77841859D01*
X126973718Y-78021877D01*
X126973721Y-78021884D01*
X127068367Y-78185816D01*
X127153819Y-78280720D01*
X127195029Y-78326488D01*
X127348165Y-78437748D01*
X127348170Y-78437751D01*
X127521092Y-78514742D01*
X127521097Y-78514744D01*
X127706254Y-78554100D01*
X127706255Y-78554100D01*
X127895544Y-78554100D01*
X127895546Y-78554100D01*
X128080703Y-78514744D01*
X128253630Y-78437751D01*
X128406771Y-78326488D01*
X128533433Y-78185816D01*
X128628079Y-78021884D01*
X128686574Y-77841856D01*
X128706360Y-77653600D01*
X128686574Y-77465344D01*
X128628079Y-77285316D01*
X128533433Y-77121384D01*
X128468770Y-77049569D01*
X130860515Y-77049569D01*
X130860515Y-78551569D01*
X131405050Y-78551569D01*
X131341339Y-78423619D01*
X131333073Y-78402281D01*
X131272213Y-78188378D01*
X131268008Y-78165885D01*
X131247488Y-77944441D01*
X131247488Y-77921559D01*
X131268008Y-77700115D01*
X131272213Y-77677622D01*
X131333073Y-77463719D01*
X131341339Y-77442381D01*
X131440468Y-77243303D01*
X131452514Y-77223848D01*
X131584124Y-77049569D01*
X133568076Y-77049569D01*
X133699686Y-77223848D01*
X133711732Y-77243303D01*
X133810861Y-77442381D01*
X133819127Y-77463719D01*
X133879987Y-77677622D01*
X133884192Y-77700115D01*
X133904712Y-77921559D01*
X133904712Y-77944441D01*
X133884192Y-78165885D01*
X133879987Y-78188378D01*
X133819127Y-78402281D01*
X133810861Y-78423619D01*
X133747150Y-78551569D01*
X134862515Y-78551569D01*
X140860515Y-78551569D01*
X142362515Y-78551569D01*
X142362515Y-77994586D01*
X142317564Y-78020538D01*
X142314710Y-78022087D01*
X142276838Y-78041382D01*
X142273910Y-78042779D01*
X142050267Y-78142353D01*
X142047267Y-78143596D01*
X142007554Y-78158841D01*
X142004491Y-78159925D01*
X141951683Y-78177082D01*
X141948572Y-78178003D01*
X141907504Y-78189007D01*
X141904347Y-78189765D01*
X141664892Y-78240662D01*
X141661700Y-78241253D01*
X141619716Y-78247903D01*
X141616501Y-78248326D01*
X141561285Y-78254133D01*
X141558046Y-78254388D01*
X141515562Y-78256615D01*
X141512316Y-78256700D01*
X141267484Y-78256700D01*
X141264238Y-78256615D01*
X141221754Y-78254388D01*
X141218515Y-78254133D01*
X141163299Y-78248326D01*
X141160084Y-78247903D01*
X141118100Y-78241253D01*
X141114908Y-78240662D01*
X140875453Y-78189765D01*
X140872296Y-78189007D01*
X140860515Y-78185850D01*
X140860515Y-78551569D01*
X134862515Y-78551569D01*
X134862515Y-78167211D01*
X134702037Y-77988982D01*
X134699930Y-77986515D01*
X134673173Y-77953474D01*
X134671197Y-77950899D01*
X134638560Y-77905981D01*
X134636720Y-77903304D01*
X134613552Y-77867629D01*
X134611855Y-77864861D01*
X134489452Y-77652850D01*
X134487904Y-77649998D01*
X134468608Y-77612131D01*
X134467211Y-77609202D01*
X134444626Y-77558481D01*
X134443383Y-77555481D01*
X134428133Y-77515759D01*
X134427049Y-77512697D01*
X134351391Y-77279847D01*
X134350469Y-77276733D01*
X134339459Y-77235643D01*
X134338701Y-77232485D01*
X134327159Y-77178174D01*
X134326568Y-77174984D01*
X134319919Y-77132995D01*
X134319495Y-77129777D01*
X134311065Y-77049569D01*
X133568076Y-77049569D01*
X131584124Y-77049569D01*
X130860515Y-77049569D01*
X128468770Y-77049569D01*
X128406771Y-76980712D01*
X128406770Y-76980711D01*
X128253634Y-76869451D01*
X128253629Y-76869448D01*
X128119210Y-76809600D01*
X135289340Y-76809600D01*
X135309126Y-76997856D01*
X135309127Y-76997859D01*
X135367618Y-77177877D01*
X135367621Y-77177884D01*
X135462267Y-77341816D01*
X135588928Y-77482488D01*
X135588929Y-77482488D01*
X135742065Y-77593748D01*
X135742070Y-77593751D01*
X135914992Y-77670742D01*
X135914997Y-77670744D01*
X136100154Y-77710100D01*
X136100155Y-77710100D01*
X136289444Y-77710100D01*
X136289446Y-77710100D01*
X136474603Y-77670744D01*
X136647530Y-77593751D01*
X136800671Y-77482488D01*
X136927333Y-77341816D01*
X137021979Y-77177884D01*
X137063671Y-77049569D01*
X138360515Y-77049569D01*
X138360515Y-77826202D01*
X138391484Y-77821297D01*
X138394699Y-77820874D01*
X138449915Y-77815067D01*
X138453154Y-77814812D01*
X138495638Y-77812585D01*
X138498884Y-77812500D01*
X138743716Y-77812500D01*
X138746962Y-77812585D01*
X138789446Y-77814812D01*
X138792685Y-77815067D01*
X138847901Y-77820874D01*
X138851116Y-77821297D01*
X138893100Y-77827947D01*
X138896292Y-77828538D01*
X139135747Y-77879435D01*
X139138904Y-77880193D01*
X139179972Y-77891197D01*
X139183083Y-77892118D01*
X139235891Y-77909275D01*
X139238954Y-77910359D01*
X139278667Y-77925604D01*
X139281667Y-77926847D01*
X139505310Y-78026421D01*
X139508238Y-78027818D01*
X139546110Y-78047113D01*
X139548964Y-78048662D01*
X139597048Y-78076422D01*
X139599816Y-78078118D01*
X139635496Y-78101287D01*
X139638173Y-78103127D01*
X139836240Y-78247030D01*
X139838817Y-78249007D01*
X139862515Y-78268198D01*
X139862515Y-77494294D01*
X139833660Y-77454581D01*
X139831820Y-77451904D01*
X139808652Y-77416229D01*
X139806955Y-77413461D01*
X139684552Y-77201450D01*
X139683004Y-77198598D01*
X139663708Y-77160731D01*
X139662311Y-77157802D01*
X139639726Y-77107081D01*
X139638483Y-77104081D01*
X139623233Y-77064359D01*
X139622149Y-77061297D01*
X139618338Y-77049569D01*
X138360515Y-77049569D01*
X137063671Y-77049569D01*
X137080474Y-76997856D01*
X137100260Y-76809600D01*
X137080474Y-76621344D01*
X137021979Y-76441316D01*
X136973992Y-76358200D01*
X140484440Y-76358200D01*
X140504226Y-76546456D01*
X140504227Y-76546459D01*
X140562718Y-76726477D01*
X140562721Y-76726484D01*
X140657367Y-76890416D01*
X140773851Y-77019784D01*
X140784029Y-77031088D01*
X140937165Y-77142348D01*
X140937170Y-77142351D01*
X141110092Y-77219342D01*
X141110097Y-77219344D01*
X141295254Y-77258700D01*
X141295255Y-77258700D01*
X141484544Y-77258700D01*
X141484546Y-77258700D01*
X141669703Y-77219344D01*
X141842630Y-77142351D01*
X141970334Y-77049569D01*
X143360515Y-77049569D01*
X143360515Y-78551569D01*
X144600237Y-78551569D01*
X144611751Y-78419968D01*
X144612045Y-78417279D01*
X144616669Y-78382155D01*
X144617081Y-78379481D01*
X144625114Y-78333922D01*
X144625641Y-78331267D01*
X144633312Y-78296668D01*
X144633955Y-78294041D01*
X144707091Y-78021085D01*
X144707849Y-78018486D01*
X144718512Y-77984669D01*
X144719383Y-77982104D01*
X144735209Y-77938631D01*
X144736188Y-77936113D01*
X144749741Y-77903394D01*
X144750830Y-77900918D01*
X144862515Y-77661412D01*
X144862515Y-77329389D01*
X144750830Y-77089882D01*
X144749741Y-77087406D01*
X144736188Y-77054687D01*
X144735209Y-77052169D01*
X144734262Y-77049569D01*
X143360515Y-77049569D01*
X141970334Y-77049569D01*
X141995771Y-77031088D01*
X142122433Y-76890416D01*
X142217079Y-76726484D01*
X142275574Y-76546456D01*
X142295360Y-76358200D01*
X142275574Y-76169944D01*
X142217079Y-75989916D01*
X142122433Y-75825984D01*
X141995771Y-75685312D01*
X141972575Y-75668459D01*
X141842634Y-75574051D01*
X141842629Y-75574048D01*
X141669707Y-75497057D01*
X141669702Y-75497055D01*
X141523901Y-75466065D01*
X141484546Y-75457700D01*
X141295254Y-75457700D01*
X141262797Y-75464598D01*
X141110097Y-75497055D01*
X141110092Y-75497057D01*
X140937170Y-75574048D01*
X140937165Y-75574051D01*
X140784029Y-75685311D01*
X140657366Y-75825985D01*
X140562721Y-75989915D01*
X140562718Y-75989922D01*
X140504227Y-76169940D01*
X140504226Y-76169944D01*
X140484440Y-76358200D01*
X136973992Y-76358200D01*
X136927333Y-76277384D01*
X136800671Y-76136712D01*
X136800670Y-76136711D01*
X136647534Y-76025451D01*
X136647529Y-76025448D01*
X136474607Y-75948457D01*
X136474602Y-75948455D01*
X136327173Y-75917119D01*
X136289446Y-75909100D01*
X136100154Y-75909100D01*
X136067697Y-75915998D01*
X135914997Y-75948455D01*
X135914992Y-75948457D01*
X135742070Y-76025448D01*
X135742065Y-76025451D01*
X135588929Y-76136711D01*
X135462266Y-76277385D01*
X135367621Y-76441315D01*
X135367618Y-76441322D01*
X135309127Y-76621340D01*
X135309126Y-76621344D01*
X135289340Y-76809600D01*
X128119210Y-76809600D01*
X128080707Y-76792457D01*
X128080702Y-76792455D01*
X127919069Y-76758100D01*
X127895546Y-76753100D01*
X127706254Y-76753100D01*
X127682731Y-76758100D01*
X127521097Y-76792455D01*
X127521092Y-76792457D01*
X127348170Y-76869448D01*
X127348165Y-76869451D01*
X127195029Y-76980711D01*
X127068366Y-77121385D01*
X126973721Y-77285315D01*
X126973718Y-77285322D01*
X126915754Y-77463719D01*
X126915226Y-77465344D01*
X126895440Y-77653600D01*
X125147533Y-77653600D01*
X125154830Y-77650351D01*
X125307971Y-77539088D01*
X125434633Y-77398416D01*
X125529279Y-77234484D01*
X125587774Y-77054456D01*
X125607560Y-76866200D01*
X125587774Y-76677944D01*
X125529279Y-76497916D01*
X125434633Y-76333984D01*
X125307971Y-76193312D01*
X125275808Y-76169944D01*
X125154834Y-76082051D01*
X125154829Y-76082048D01*
X124981907Y-76005057D01*
X124981902Y-76005055D01*
X124836100Y-75974065D01*
X124796746Y-75965700D01*
X124607454Y-75965700D01*
X124574997Y-75972598D01*
X124422297Y-76005055D01*
X124422292Y-76005057D01*
X124249370Y-76082048D01*
X124249365Y-76082051D01*
X124096229Y-76193311D01*
X123969566Y-76333985D01*
X123874921Y-76497915D01*
X123874918Y-76497922D01*
X123819198Y-76669412D01*
X123816426Y-76677944D01*
X123796640Y-76866200D01*
X114686318Y-76866200D01*
X114691174Y-76851256D01*
X114710960Y-76663000D01*
X114691174Y-76474744D01*
X114632679Y-76294716D01*
X114538033Y-76130784D01*
X114411371Y-75990112D01*
X114411370Y-75990111D01*
X114258234Y-75878851D01*
X114258229Y-75878848D01*
X114085307Y-75801857D01*
X114085302Y-75801855D01*
X113938950Y-75770748D01*
X113900146Y-75762500D01*
X113710854Y-75762500D01*
X113678397Y-75769398D01*
X113525697Y-75801855D01*
X113525692Y-75801857D01*
X113352770Y-75878848D01*
X113352765Y-75878851D01*
X113199629Y-75990111D01*
X113072966Y-76130785D01*
X112978321Y-76294715D01*
X112978318Y-76294722D01*
X112924354Y-76460808D01*
X112919826Y-76474744D01*
X112912289Y-76546456D01*
X112906157Y-76604797D01*
X112879572Y-76669412D01*
X112833272Y-76705114D01*
X112692370Y-76767848D01*
X112692365Y-76767851D01*
X112539229Y-76879111D01*
X112412566Y-77019785D01*
X112317921Y-77183715D01*
X112317918Y-77183722D01*
X112259427Y-77363740D01*
X112259426Y-77363744D01*
X112239640Y-77552000D01*
X111241640Y-77552000D01*
X111241640Y-77524240D01*
X111241725Y-77520994D01*
X111243951Y-77478527D01*
X111244206Y-77475291D01*
X111269795Y-77231823D01*
X111270219Y-77228605D01*
X111276868Y-77186616D01*
X111277459Y-77183426D01*
X111289001Y-77129115D01*
X111289759Y-77125957D01*
X111300769Y-77084867D01*
X111301691Y-77081753D01*
X111312148Y-77049569D01*
X110860515Y-77049569D01*
X109862515Y-77049569D01*
X108369373Y-77049569D01*
X107208557Y-77049569D01*
X107113453Y-76954465D01*
X107079968Y-76893142D01*
X107084952Y-76823450D01*
X107126824Y-76767517D01*
X107157800Y-76750602D01*
X107289731Y-76701396D01*
X107404946Y-76615146D01*
X107491196Y-76499931D01*
X107541491Y-76365083D01*
X107547900Y-76305473D01*
X107547899Y-74549569D01*
X108545899Y-74549569D01*
X108545900Y-76051569D01*
X109862515Y-76051569D01*
X109862515Y-74549569D01*
X110860515Y-74549569D01*
X110860515Y-76051569D01*
X111980344Y-76051569D01*
X112016499Y-76025300D01*
X112037749Y-75959903D01*
X112038833Y-75956841D01*
X112054083Y-75917119D01*
X112055326Y-75914119D01*
X112077911Y-75863398D01*
X112079308Y-75860469D01*
X112098604Y-75822602D01*
X112100152Y-75819750D01*
X112222555Y-75607739D01*
X112224252Y-75604971D01*
X112247420Y-75569296D01*
X112249260Y-75566619D01*
X112281897Y-75521701D01*
X112283873Y-75519126D01*
X112310630Y-75486085D01*
X112312737Y-75483618D01*
X112362514Y-75428333D01*
X112362515Y-74656400D01*
X115567040Y-74656400D01*
X115586826Y-74844656D01*
X115586827Y-74844659D01*
X115645318Y-75024677D01*
X115645321Y-75024684D01*
X115739967Y-75188616D01*
X115779097Y-75232074D01*
X115866629Y-75329288D01*
X116019765Y-75440548D01*
X116019770Y-75440551D01*
X116192692Y-75517542D01*
X116192697Y-75517544D01*
X116377854Y-75556900D01*
X116377855Y-75556900D01*
X116567144Y-75556900D01*
X116567146Y-75556900D01*
X116752303Y-75517544D01*
X116925230Y-75440551D01*
X117078371Y-75329288D01*
X117205033Y-75188616D01*
X117299679Y-75024684D01*
X117354601Y-74855652D01*
X118360514Y-74855652D01*
X118360515Y-76051569D01*
X119862515Y-76051569D01*
X119862514Y-74901308D01*
X120860514Y-74901308D01*
X120860515Y-76051569D01*
X122362515Y-76051569D01*
X122362515Y-75209400D01*
X125281740Y-75209400D01*
X125301526Y-75397656D01*
X125301527Y-75397659D01*
X125360018Y-75577677D01*
X125360021Y-75577684D01*
X125454667Y-75741616D01*
X125561683Y-75860469D01*
X125581329Y-75882288D01*
X125734465Y-75993548D01*
X125734470Y-75993551D01*
X125907392Y-76070542D01*
X125907397Y-76070544D01*
X126092554Y-76109900D01*
X126092555Y-76109900D01*
X126281844Y-76109900D01*
X126281846Y-76109900D01*
X126467003Y-76070544D01*
X126509621Y-76051569D01*
X130860515Y-76051569D01*
X132362515Y-76051569D01*
X132362515Y-74549569D01*
X133360515Y-74549569D01*
X133360515Y-76051569D01*
X134448700Y-76051569D01*
X134467211Y-76009998D01*
X134468608Y-76007069D01*
X134487904Y-75969202D01*
X134489452Y-75966350D01*
X134611855Y-75754339D01*
X134613552Y-75751571D01*
X134636720Y-75715896D01*
X134638560Y-75713219D01*
X134671197Y-75668301D01*
X134673173Y-75665726D01*
X134699930Y-75632685D01*
X134702037Y-75630218D01*
X134862515Y-75451988D01*
X134862515Y-74910400D01*
X137715840Y-74910400D01*
X137735626Y-75098656D01*
X137735627Y-75098659D01*
X137794118Y-75278677D01*
X137794121Y-75278684D01*
X137888767Y-75442616D01*
X138000420Y-75566619D01*
X138015429Y-75583288D01*
X138168565Y-75694548D01*
X138168570Y-75694551D01*
X138341492Y-75771542D01*
X138341497Y-75771544D01*
X138526654Y-75810900D01*
X138526655Y-75810900D01*
X138715944Y-75810900D01*
X138715946Y-75810900D01*
X138901103Y-75771544D01*
X139074030Y-75694551D01*
X139227171Y-75583288D01*
X139353833Y-75442616D01*
X139448479Y-75278684D01*
X139506974Y-75098656D01*
X139518751Y-74986600D01*
X143608640Y-74986600D01*
X143628426Y-75174856D01*
X143628427Y-75174859D01*
X143686918Y-75354877D01*
X143686921Y-75354884D01*
X143781567Y-75518816D01*
X143894057Y-75643748D01*
X143908229Y-75659488D01*
X144061365Y-75770748D01*
X144061370Y-75770751D01*
X144234292Y-75847742D01*
X144234297Y-75847744D01*
X144419454Y-75887100D01*
X144419455Y-75887100D01*
X144608744Y-75887100D01*
X144608746Y-75887100D01*
X144793903Y-75847744D01*
X144966830Y-75770751D01*
X145119971Y-75659488D01*
X145246633Y-75518816D01*
X145341279Y-75354884D01*
X145399774Y-75174856D01*
X145419560Y-74986600D01*
X145402669Y-74825894D01*
X145415238Y-74757168D01*
X145450251Y-74719739D01*
X145394791Y-74701274D01*
X145387795Y-74692591D01*
X145541339Y-74692591D01*
X145596952Y-74711248D01*
X145640664Y-74765756D01*
X145642172Y-74769603D01*
X145645202Y-74777728D01*
X145645206Y-74777735D01*
X145731452Y-74892944D01*
X145731455Y-74892947D01*
X145846664Y-74979193D01*
X145846671Y-74979197D01*
X145978081Y-75028210D01*
X146034015Y-75070081D01*
X146058432Y-75135545D01*
X146043580Y-75203818D01*
X146022430Y-75232073D01*
X145900503Y-75354000D01*
X145764965Y-75547569D01*
X145764964Y-75547571D01*
X145665098Y-75761735D01*
X145665094Y-75761744D01*
X145603938Y-75989986D01*
X145603936Y-75989996D01*
X145583341Y-76225399D01*
X145583341Y-76225400D01*
X145603936Y-76460803D01*
X145603938Y-76460813D01*
X145665094Y-76689055D01*
X145665096Y-76689059D01*
X145665097Y-76689063D01*
X145745004Y-76860423D01*
X145764965Y-76903230D01*
X145764967Y-76903234D01*
X145854629Y-77031284D01*
X145900501Y-77096796D01*
X145900506Y-77096802D01*
X146067597Y-77263893D01*
X146067603Y-77263898D01*
X146253158Y-77393825D01*
X146296783Y-77448402D01*
X146303977Y-77517900D01*
X146272454Y-77580255D01*
X146253158Y-77596975D01*
X146067597Y-77726905D01*
X145900505Y-77893997D01*
X145764965Y-78087569D01*
X145764964Y-78087571D01*
X145665098Y-78301735D01*
X145665094Y-78301744D01*
X145603938Y-78529986D01*
X145603936Y-78529996D01*
X145583341Y-78765399D01*
X145583341Y-78765400D01*
X145603936Y-79000803D01*
X145603938Y-79000813D01*
X145665094Y-79229055D01*
X145665096Y-79229059D01*
X145665097Y-79229063D01*
X145748155Y-79407181D01*
X145764965Y-79443230D01*
X145764967Y-79443234D01*
X145846104Y-79559109D01*
X145900505Y-79636801D01*
X146067599Y-79803895D01*
X146116305Y-79837999D01*
X146261165Y-79939432D01*
X146261167Y-79939433D01*
X146261170Y-79939435D01*
X146475337Y-80039303D01*
X146703592Y-80100463D01*
X146891918Y-80116939D01*
X146938999Y-80121059D01*
X146939000Y-80121059D01*
X146939001Y-80121059D01*
X146978234Y-80117626D01*
X147174408Y-80100463D01*
X147402663Y-80039303D01*
X147616830Y-79939435D01*
X147810401Y-79803895D01*
X147977495Y-79636801D01*
X148107730Y-79450805D01*
X148162307Y-79407181D01*
X148231805Y-79399987D01*
X148294160Y-79431510D01*
X148310879Y-79450805D01*
X148440890Y-79636478D01*
X148607917Y-79803505D01*
X148801421Y-79939000D01*
X149015507Y-80038829D01*
X149015516Y-80038833D01*
X149229000Y-80096034D01*
X149229000Y-79200901D01*
X149336685Y-79250080D01*
X149443237Y-79265400D01*
X149514763Y-79265400D01*
X149621315Y-79250080D01*
X149729000Y-79200901D01*
X149729000Y-80096033D01*
X149942483Y-80038833D01*
X149942492Y-80038829D01*
X150156578Y-79939000D01*
X150350082Y-79803505D01*
X150517105Y-79636482D01*
X150652600Y-79442978D01*
X150752429Y-79228892D01*
X150752432Y-79228886D01*
X150809636Y-79015400D01*
X149912686Y-79015400D01*
X149938493Y-78975244D01*
X149979000Y-78837289D01*
X149979000Y-78693511D01*
X149938493Y-78555556D01*
X149912686Y-78515400D01*
X150809636Y-78515400D01*
X150809635Y-78515399D01*
X150752432Y-78301913D01*
X150752429Y-78301907D01*
X150652600Y-78087822D01*
X150652599Y-78087820D01*
X150517113Y-77894326D01*
X150517108Y-77894320D01*
X150350078Y-77727290D01*
X150164405Y-77597279D01*
X150120780Y-77542702D01*
X150113588Y-77473204D01*
X150145110Y-77410849D01*
X150164406Y-77394130D01*
X150207802Y-77363744D01*
X150350401Y-77263895D01*
X150517495Y-77096801D01*
X150653035Y-76903230D01*
X150752903Y-76689063D01*
X150814063Y-76460808D01*
X150834659Y-76225400D01*
X150814063Y-75989992D01*
X150755318Y-75770751D01*
X150752905Y-75761744D01*
X150752904Y-75761743D01*
X150752903Y-75761737D01*
X150653035Y-75547571D01*
X150647425Y-75539558D01*
X150517494Y-75353997D01*
X150350402Y-75186906D01*
X150350396Y-75186901D01*
X150164842Y-75056975D01*
X150121217Y-75002398D01*
X150114023Y-74932900D01*
X150145546Y-74870545D01*
X150164842Y-74853825D01*
X150244077Y-74798344D01*
X150350401Y-74723895D01*
X150517495Y-74556801D01*
X150653035Y-74363230D01*
X150752903Y-74149063D01*
X150814063Y-73920808D01*
X150834659Y-73685400D01*
X150814063Y-73449992D01*
X150762698Y-73258293D01*
X150752905Y-73221744D01*
X150752904Y-73221743D01*
X150752903Y-73221737D01*
X150653035Y-73007571D01*
X150649796Y-73002944D01*
X150517494Y-72813997D01*
X150350402Y-72646906D01*
X150350395Y-72646901D01*
X150156834Y-72511367D01*
X150156830Y-72511365D01*
X150154068Y-72510077D01*
X149942663Y-72411497D01*
X149942659Y-72411496D01*
X149942655Y-72411494D01*
X149714413Y-72350338D01*
X149714403Y-72350336D01*
X149479001Y-72329741D01*
X149478999Y-72329741D01*
X149243596Y-72350336D01*
X149243586Y-72350338D01*
X149015344Y-72411494D01*
X149015335Y-72411498D01*
X148801171Y-72511364D01*
X148801169Y-72511365D01*
X148607600Y-72646903D01*
X148485673Y-72768830D01*
X148424350Y-72802314D01*
X148354658Y-72797330D01*
X148298725Y-72755458D01*
X148281810Y-72724481D01*
X148232797Y-72593071D01*
X148232793Y-72593064D01*
X148146547Y-72477855D01*
X148146544Y-72477852D01*
X148031335Y-72391606D01*
X148031328Y-72391602D01*
X147896482Y-72341308D01*
X147896483Y-72341308D01*
X147836883Y-72334901D01*
X147836881Y-72334900D01*
X147836873Y-72334900D01*
X147836864Y-72334900D01*
X146041129Y-72334900D01*
X146041123Y-72334901D01*
X145981516Y-72341308D01*
X145846671Y-72391602D01*
X145846664Y-72391606D01*
X145731455Y-72477852D01*
X145731452Y-72477855D01*
X145645206Y-72593064D01*
X145645202Y-72593071D01*
X145594908Y-72727917D01*
X145588501Y-72787516D01*
X145588500Y-72787535D01*
X145588500Y-74583270D01*
X145588501Y-74583285D01*
X145588813Y-74586183D01*
X145576400Y-74654941D01*
X145541339Y-74692591D01*
X145387795Y-74692591D01*
X145350956Y-74646865D01*
X145347595Y-74637754D01*
X145341279Y-74618316D01*
X145246633Y-74454384D01*
X145119971Y-74313712D01*
X145113348Y-74308900D01*
X144966834Y-74202451D01*
X144966829Y-74202448D01*
X144793907Y-74125457D01*
X144793902Y-74125455D01*
X144648101Y-74094465D01*
X144608746Y-74086100D01*
X144419454Y-74086100D01*
X144386997Y-74092998D01*
X144234297Y-74125455D01*
X144234292Y-74125457D01*
X144061370Y-74202448D01*
X144061365Y-74202451D01*
X143908229Y-74313711D01*
X143781566Y-74454385D01*
X143686921Y-74618315D01*
X143686918Y-74618322D01*
X143628427Y-74798340D01*
X143628426Y-74798344D01*
X143608640Y-74986600D01*
X139518751Y-74986600D01*
X139526760Y-74910400D01*
X139506974Y-74722144D01*
X139448479Y-74542116D01*
X139353833Y-74378184D01*
X139227171Y-74237512D01*
X139227170Y-74237511D01*
X139074034Y-74126251D01*
X139074029Y-74126248D01*
X138901107Y-74049257D01*
X138901102Y-74049255D01*
X138755301Y-74018265D01*
X138715946Y-74009900D01*
X138526654Y-74009900D01*
X138494197Y-74016798D01*
X138341497Y-74049255D01*
X138341492Y-74049257D01*
X138168570Y-74126248D01*
X138168565Y-74126251D01*
X138015429Y-74237511D01*
X137888766Y-74378185D01*
X137794121Y-74542115D01*
X137794118Y-74542122D01*
X137739166Y-74711248D01*
X137735626Y-74722144D01*
X137715840Y-74910400D01*
X134862515Y-74910400D01*
X134862515Y-74549569D01*
X133360515Y-74549569D01*
X132362515Y-74549569D01*
X131115689Y-74549569D01*
X131124194Y-74630490D01*
X131124449Y-74633727D01*
X131126675Y-74676194D01*
X131126760Y-74679440D01*
X131126760Y-74734960D01*
X131126675Y-74738206D01*
X131124449Y-74780673D01*
X131124194Y-74783909D01*
X131098605Y-75027377D01*
X131098181Y-75030595D01*
X131091532Y-75072584D01*
X131090941Y-75075774D01*
X131079399Y-75130085D01*
X131078641Y-75133243D01*
X131067631Y-75174333D01*
X131066709Y-75177447D01*
X130991051Y-75410297D01*
X130989967Y-75413359D01*
X130974717Y-75453081D01*
X130973474Y-75456081D01*
X130950889Y-75506802D01*
X130949492Y-75509731D01*
X130930196Y-75547599D01*
X130928647Y-75550450D01*
X130860515Y-75668459D01*
X130860515Y-76051569D01*
X126509621Y-76051569D01*
X126639930Y-75993551D01*
X126793071Y-75882288D01*
X126907273Y-75755454D01*
X126966756Y-75718807D01*
X127032000Y-75720049D01*
X127032140Y-75719393D01*
X127035544Y-75720116D01*
X127036613Y-75720137D01*
X127037744Y-75720499D01*
X127038494Y-75720742D01*
X127038497Y-75720744D01*
X127038499Y-75720744D01*
X127038501Y-75720745D01*
X127115039Y-75737013D01*
X127223654Y-75760100D01*
X127223655Y-75760100D01*
X127412944Y-75760100D01*
X127412946Y-75760100D01*
X127598103Y-75720744D01*
X127771030Y-75643751D01*
X127924171Y-75532488D01*
X128050833Y-75391816D01*
X128145479Y-75227884D01*
X128181360Y-75117451D01*
X128220797Y-75059777D01*
X128285155Y-75032578D01*
X128354002Y-75044492D01*
X128405478Y-75091736D01*
X128406678Y-75093770D01*
X128490765Y-75239414D01*
X128617429Y-75380088D01*
X128770565Y-75491348D01*
X128770570Y-75491351D01*
X128943492Y-75568342D01*
X128943497Y-75568344D01*
X129128654Y-75607700D01*
X129128655Y-75607700D01*
X129317944Y-75607700D01*
X129317946Y-75607700D01*
X129503103Y-75568344D01*
X129676030Y-75491351D01*
X129829171Y-75380088D01*
X129955833Y-75239416D01*
X130050479Y-75075484D01*
X130108974Y-74895456D01*
X130128760Y-74707200D01*
X130108974Y-74518944D01*
X130050479Y-74338916D01*
X129955833Y-74174984D01*
X129829171Y-74034312D01*
X129779821Y-73998457D01*
X129676034Y-73923051D01*
X129676029Y-73923048D01*
X129503107Y-73846057D01*
X129503102Y-73846055D01*
X129357300Y-73815065D01*
X129317946Y-73806700D01*
X129128654Y-73806700D01*
X129096197Y-73813598D01*
X128943497Y-73846055D01*
X128943492Y-73846057D01*
X128770570Y-73923048D01*
X128770565Y-73923051D01*
X128617429Y-74034311D01*
X128490766Y-74174985D01*
X128396121Y-74338915D01*
X128396119Y-74338919D01*
X128360239Y-74449348D01*
X128320801Y-74507023D01*
X128256442Y-74534221D01*
X128187596Y-74522306D01*
X128136120Y-74475062D01*
X128134921Y-74473029D01*
X128107335Y-74425249D01*
X128050833Y-74327384D01*
X127924171Y-74186712D01*
X127924167Y-74186709D01*
X127771034Y-74075451D01*
X127771029Y-74075448D01*
X127598107Y-73998457D01*
X127598102Y-73998455D01*
X127452300Y-73967465D01*
X127412946Y-73959100D01*
X127223654Y-73959100D01*
X127191197Y-73965998D01*
X127038497Y-73998455D01*
X127038492Y-73998457D01*
X126865570Y-74075448D01*
X126865565Y-74075451D01*
X126712432Y-74186709D01*
X126712429Y-74186711D01*
X126712429Y-74186712D01*
X126621125Y-74288116D01*
X126598229Y-74313544D01*
X126538742Y-74350192D01*
X126473498Y-74348948D01*
X126473359Y-74349607D01*
X126469944Y-74348881D01*
X126468885Y-74348861D01*
X126467770Y-74348505D01*
X126467004Y-74348256D01*
X126311819Y-74315271D01*
X126281846Y-74308900D01*
X126092554Y-74308900D01*
X126062590Y-74315269D01*
X125907397Y-74348255D01*
X125907392Y-74348257D01*
X125734470Y-74425248D01*
X125734465Y-74425251D01*
X125581329Y-74536511D01*
X125454666Y-74677185D01*
X125360021Y-74841115D01*
X125360018Y-74841122D01*
X125315155Y-74979197D01*
X125301526Y-75021144D01*
X125281740Y-75209400D01*
X122362515Y-75209400D01*
X122362515Y-74549569D01*
X121793454Y-74549569D01*
X121705773Y-74613273D01*
X121703096Y-74615113D01*
X121667416Y-74638282D01*
X121664648Y-74639978D01*
X121616564Y-74667738D01*
X121613710Y-74669287D01*
X121575838Y-74688582D01*
X121572910Y-74689979D01*
X121349267Y-74789553D01*
X121346267Y-74790796D01*
X121306554Y-74806041D01*
X121303491Y-74807125D01*
X121250683Y-74824282D01*
X121247572Y-74825203D01*
X121206504Y-74836207D01*
X121203347Y-74836965D01*
X120963892Y-74887862D01*
X120960700Y-74888453D01*
X120918716Y-74895103D01*
X120915501Y-74895526D01*
X120860514Y-74901308D01*
X119862514Y-74901308D01*
X119862514Y-74715635D01*
X119804890Y-74689979D01*
X119801963Y-74688582D01*
X119764090Y-74669287D01*
X119761236Y-74667738D01*
X119713152Y-74639978D01*
X119710384Y-74638282D01*
X119674704Y-74615113D01*
X119672027Y-74613273D01*
X119584346Y-74549569D01*
X118370228Y-74549569D01*
X118373394Y-74579690D01*
X118373649Y-74582926D01*
X118375875Y-74625394D01*
X118375960Y-74628640D01*
X118375960Y-74684160D01*
X118375875Y-74687406D01*
X118373649Y-74729874D01*
X118373394Y-74733110D01*
X118360514Y-74855652D01*
X117354601Y-74855652D01*
X117358174Y-74844656D01*
X117377960Y-74656400D01*
X117358174Y-74468144D01*
X117299679Y-74288116D01*
X117205033Y-74124184D01*
X117078371Y-73983512D01*
X117044771Y-73959100D01*
X116925234Y-73872251D01*
X116925229Y-73872248D01*
X116752307Y-73795257D01*
X116752302Y-73795255D01*
X116606501Y-73764265D01*
X116567146Y-73755900D01*
X116377854Y-73755900D01*
X116345397Y-73762798D01*
X116192697Y-73795255D01*
X116192692Y-73795257D01*
X116019770Y-73872248D01*
X116019765Y-73872251D01*
X115866629Y-73983511D01*
X115739966Y-74124185D01*
X115645321Y-74288115D01*
X115645318Y-74288122D01*
X115586827Y-74468140D01*
X115586826Y-74468144D01*
X115567040Y-74656400D01*
X112362515Y-74656400D01*
X112362515Y-74549569D01*
X110860515Y-74549569D01*
X109862515Y-74549569D01*
X108545899Y-74549569D01*
X107547899Y-74549569D01*
X107547899Y-74509728D01*
X107541491Y-74450117D01*
X107541204Y-74449348D01*
X107491197Y-74315271D01*
X107491193Y-74315264D01*
X107404947Y-74200055D01*
X107404944Y-74200052D01*
X107289735Y-74113806D01*
X107289728Y-74113802D01*
X107154882Y-74063508D01*
X107154883Y-74063508D01*
X107095283Y-74057101D01*
X107095281Y-74057100D01*
X107095273Y-74057100D01*
X107095264Y-74057100D01*
X105299529Y-74057100D01*
X105299523Y-74057101D01*
X105239916Y-74063508D01*
X105105071Y-74113802D01*
X105105064Y-74113806D01*
X104989855Y-74200052D01*
X104989852Y-74200055D01*
X104903606Y-74315264D01*
X104903602Y-74315271D01*
X104853308Y-74450117D01*
X104848879Y-74491316D01*
X104846901Y-74509723D01*
X104846900Y-74509735D01*
X104846900Y-76305470D01*
X103149977Y-76305470D01*
X103156243Y-73498275D01*
X104280246Y-73498275D01*
X104310937Y-73467585D01*
X104314178Y-73464568D01*
X104358008Y-73426589D01*
X104361455Y-73423812D01*
X104537297Y-73292175D01*
X104540934Y-73289650D01*
X104589725Y-73258293D01*
X104593533Y-73256033D01*
X104660009Y-73219734D01*
X104663968Y-73217753D01*
X104716733Y-73193655D01*
X104720824Y-73191961D01*
X104862514Y-73139113D01*
X104862514Y-73059100D01*
X105860514Y-73059100D01*
X107109479Y-73059100D01*
X107111141Y-73059122D01*
X107132903Y-73059706D01*
X107134564Y-73059773D01*
X107162908Y-73061294D01*
X107164563Y-73061405D01*
X107186209Y-73063148D01*
X107187860Y-73063303D01*
X107294500Y-73074769D01*
X107298335Y-73075302D01*
X107348338Y-73083863D01*
X107352134Y-73084636D01*
X107362515Y-73087088D01*
X107362515Y-72049569D01*
X108360515Y-72049569D01*
X108360515Y-73551569D01*
X109862515Y-73551569D01*
X109862515Y-72049569D01*
X110860515Y-72049569D01*
X110860515Y-73551569D01*
X112362515Y-73551569D01*
X112362515Y-72065600D01*
X113408040Y-72065600D01*
X113427826Y-72253856D01*
X113427827Y-72253859D01*
X113486318Y-72433877D01*
X113486321Y-72433884D01*
X113580967Y-72597816D01*
X113649578Y-72674016D01*
X113707629Y-72738488D01*
X113860765Y-72849748D01*
X113860770Y-72849751D01*
X114033692Y-72926742D01*
X114033697Y-72926744D01*
X114218854Y-72966100D01*
X114218855Y-72966100D01*
X114408144Y-72966100D01*
X114408146Y-72966100D01*
X114593303Y-72926744D01*
X114766230Y-72849751D01*
X114919371Y-72738488D01*
X115046033Y-72597816D01*
X115140679Y-72433884D01*
X115199174Y-72253856D01*
X115210951Y-72141800D01*
X117345040Y-72141800D01*
X117364826Y-72330056D01*
X117364827Y-72330059D01*
X117423318Y-72510077D01*
X117423321Y-72510084D01*
X117517967Y-72674016D01*
X117607382Y-72773321D01*
X117644629Y-72814688D01*
X117797765Y-72925948D01*
X117797770Y-72925951D01*
X117970692Y-73002942D01*
X117970697Y-73002944D01*
X118155854Y-73042300D01*
X118155855Y-73042300D01*
X118345144Y-73042300D01*
X118345146Y-73042300D01*
X118518748Y-73005400D01*
X119783440Y-73005400D01*
X119803226Y-73193656D01*
X119803227Y-73193659D01*
X119861718Y-73373677D01*
X119861721Y-73373684D01*
X119956367Y-73537616D01*
X120083029Y-73678288D01*
X120236165Y-73789548D01*
X120236170Y-73789551D01*
X120409092Y-73866542D01*
X120409097Y-73866544D01*
X120594254Y-73905900D01*
X120594255Y-73905900D01*
X120783544Y-73905900D01*
X120783546Y-73905900D01*
X120968703Y-73866544D01*
X121141630Y-73789551D01*
X121294771Y-73678288D01*
X121421433Y-73537616D01*
X121516079Y-73373684D01*
X121574574Y-73193656D01*
X121594360Y-73005400D01*
X121574574Y-72817144D01*
X121516079Y-72637116D01*
X121421433Y-72473184D01*
X121294771Y-72332512D01*
X121224851Y-72281712D01*
X121141634Y-72221251D01*
X121141629Y-72221248D01*
X120968707Y-72144257D01*
X120968702Y-72144255D01*
X120822901Y-72113265D01*
X120783546Y-72104900D01*
X120594254Y-72104900D01*
X120561797Y-72111798D01*
X120409097Y-72144255D01*
X120409092Y-72144257D01*
X120236170Y-72221248D01*
X120236165Y-72221251D01*
X120083029Y-72332511D01*
X119956366Y-72473185D01*
X119861721Y-72637115D01*
X119861718Y-72637122D01*
X119803227Y-72817140D01*
X119803226Y-72817144D01*
X119783440Y-73005400D01*
X118518748Y-73005400D01*
X118530303Y-73002944D01*
X118703230Y-72925951D01*
X118856371Y-72814688D01*
X118983033Y-72674016D01*
X119077679Y-72510084D01*
X119136174Y-72330056D01*
X119155960Y-72141800D01*
X119146266Y-72049569D01*
X123360515Y-72049569D01*
X123360515Y-73551569D01*
X124862515Y-73551569D01*
X124862515Y-72049569D01*
X125860515Y-72049569D01*
X125860515Y-73337925D01*
X125912208Y-73326938D01*
X125915400Y-73326347D01*
X125957384Y-73319697D01*
X125960599Y-73319274D01*
X126015815Y-73313467D01*
X126019054Y-73313212D01*
X126061538Y-73310985D01*
X126064784Y-73310900D01*
X126219982Y-73310900D01*
X126301427Y-73251727D01*
X126304104Y-73249887D01*
X126339784Y-73226718D01*
X126342552Y-73225022D01*
X126390636Y-73197262D01*
X126393490Y-73195713D01*
X126431362Y-73176418D01*
X126434290Y-73175021D01*
X126657933Y-73075447D01*
X126660933Y-73074204D01*
X126700646Y-73058959D01*
X126703709Y-73057875D01*
X126756517Y-73040718D01*
X126759628Y-73039797D01*
X126800696Y-73028793D01*
X126803853Y-73028035D01*
X126873788Y-73013170D01*
X128360514Y-73013170D01*
X128562933Y-72923047D01*
X128565933Y-72921804D01*
X128605646Y-72906559D01*
X128608709Y-72905475D01*
X128661517Y-72888318D01*
X128664628Y-72887397D01*
X128705696Y-72876393D01*
X128708853Y-72875635D01*
X128948308Y-72824738D01*
X128951500Y-72824147D01*
X128993484Y-72817497D01*
X128996699Y-72817074D01*
X129051915Y-72811267D01*
X129055154Y-72811012D01*
X129097638Y-72808785D01*
X129100884Y-72808700D01*
X129345716Y-72808700D01*
X129348962Y-72808785D01*
X129391446Y-72811012D01*
X129394685Y-72811267D01*
X129449901Y-72817074D01*
X129453116Y-72817497D01*
X129495100Y-72824147D01*
X129498292Y-72824738D01*
X129737747Y-72875635D01*
X129740904Y-72876393D01*
X129781972Y-72887397D01*
X129785083Y-72888318D01*
X129837891Y-72905475D01*
X129840954Y-72906559D01*
X129862515Y-72914835D01*
X129862515Y-72049569D01*
X130860515Y-72049569D01*
X130860515Y-73551569D01*
X132362515Y-73551569D01*
X136419045Y-73551569D01*
X137290113Y-73551569D01*
X137292348Y-73549087D01*
X137294583Y-73546733D01*
X137324655Y-73516661D01*
X137327010Y-73514425D01*
X137362515Y-73482457D01*
X137362515Y-72954600D01*
X139595440Y-72954600D01*
X139615226Y-73142856D01*
X139615227Y-73142859D01*
X139673718Y-73322877D01*
X139673721Y-73322884D01*
X139768367Y-73486816D01*
X139826671Y-73551569D01*
X139895029Y-73627488D01*
X140048165Y-73738748D01*
X140048170Y-73738751D01*
X140221092Y-73815742D01*
X140221097Y-73815744D01*
X140406254Y-73855100D01*
X140406255Y-73855100D01*
X140595544Y-73855100D01*
X140595546Y-73855100D01*
X140780703Y-73815744D01*
X140953630Y-73738751D01*
X141106771Y-73627488D01*
X141233433Y-73486816D01*
X141238492Y-73478053D01*
X143360515Y-73478053D01*
X143497227Y-73378727D01*
X143499904Y-73376887D01*
X143535584Y-73353718D01*
X143538352Y-73352022D01*
X143586436Y-73324262D01*
X143589290Y-73322713D01*
X143627162Y-73303418D01*
X143630090Y-73302021D01*
X143853733Y-73202447D01*
X143856733Y-73201204D01*
X143896446Y-73185959D01*
X143899509Y-73184875D01*
X143952317Y-73167718D01*
X143955428Y-73166797D01*
X143996496Y-73155793D01*
X143999653Y-73155035D01*
X144239108Y-73104138D01*
X144242300Y-73103547D01*
X144284284Y-73096897D01*
X144287499Y-73096474D01*
X144342715Y-73090667D01*
X144345954Y-73090412D01*
X144388438Y-73088185D01*
X144391684Y-73088100D01*
X144590500Y-73088100D01*
X144590500Y-72773321D01*
X144590522Y-72771659D01*
X144591106Y-72749897D01*
X144591173Y-72748236D01*
X144592694Y-72719892D01*
X144592805Y-72718237D01*
X144594548Y-72696591D01*
X144594703Y-72694940D01*
X144606169Y-72588300D01*
X144606702Y-72584465D01*
X144615263Y-72534462D01*
X144616036Y-72530666D01*
X144631271Y-72466185D01*
X144632279Y-72462445D01*
X144647012Y-72413874D01*
X144648252Y-72410204D01*
X144723361Y-72208824D01*
X144725055Y-72204733D01*
X144749153Y-72151968D01*
X144751134Y-72148009D01*
X144787433Y-72081533D01*
X144789693Y-72077725D01*
X144807788Y-72049569D01*
X144723034Y-72049569D01*
X144649252Y-72131513D01*
X144647017Y-72133867D01*
X144616945Y-72163939D01*
X144614590Y-72166175D01*
X144573329Y-72203325D01*
X144570862Y-72205432D01*
X144537817Y-72232193D01*
X144535240Y-72234170D01*
X144337173Y-72378073D01*
X144334496Y-72379913D01*
X144298816Y-72403082D01*
X144296048Y-72404778D01*
X144247964Y-72432538D01*
X144245110Y-72434087D01*
X144207238Y-72453382D01*
X144204310Y-72454779D01*
X143980667Y-72554353D01*
X143977667Y-72555596D01*
X143937954Y-72570841D01*
X143934891Y-72571925D01*
X143882083Y-72589082D01*
X143878972Y-72590003D01*
X143837904Y-72601007D01*
X143834747Y-72601765D01*
X143595292Y-72652662D01*
X143592100Y-72653253D01*
X143550116Y-72659903D01*
X143546901Y-72660326D01*
X143491685Y-72666133D01*
X143488446Y-72666388D01*
X143445962Y-72668615D01*
X143442716Y-72668700D01*
X143360515Y-72668700D01*
X143360515Y-73478053D01*
X141238492Y-73478053D01*
X141328079Y-73322884D01*
X141386574Y-73142856D01*
X141406360Y-72954600D01*
X141386574Y-72766344D01*
X141333099Y-72601765D01*
X141328080Y-72586318D01*
X141327582Y-72585200D01*
X141327487Y-72584493D01*
X141326071Y-72580135D01*
X141326867Y-72579876D01*
X141318290Y-72515951D01*
X141347912Y-72452672D01*
X141390420Y-72421474D01*
X141412835Y-72411494D01*
X141512430Y-72367151D01*
X141665571Y-72255888D01*
X141792233Y-72115216D01*
X141886879Y-71951284D01*
X141945374Y-71771256D01*
X141965160Y-71583000D01*
X141945374Y-71394744D01*
X141886879Y-71214716D01*
X141792233Y-71050784D01*
X141665571Y-70910112D01*
X141665570Y-70910111D01*
X141512434Y-70798851D01*
X141512429Y-70798848D01*
X141448086Y-70770200D01*
X142414840Y-70770200D01*
X142434626Y-70958456D01*
X142434627Y-70958459D01*
X142493118Y-71138477D01*
X142493121Y-71138484D01*
X142587767Y-71302416D01*
X142669070Y-71392712D01*
X142714429Y-71443088D01*
X142867565Y-71554348D01*
X142867570Y-71554351D01*
X143040492Y-71631342D01*
X143040497Y-71631344D01*
X143225654Y-71670700D01*
X143225655Y-71670700D01*
X143414944Y-71670700D01*
X143414946Y-71670700D01*
X143600103Y-71631344D01*
X143773030Y-71554351D01*
X143926171Y-71443088D01*
X144052833Y-71302416D01*
X144147479Y-71138484D01*
X144205974Y-70958456D01*
X144225760Y-70770200D01*
X144205974Y-70581944D01*
X144147479Y-70401916D01*
X144052833Y-70237984D01*
X143926171Y-70097312D01*
X143926170Y-70097311D01*
X143773034Y-69986051D01*
X143773029Y-69986048D01*
X143600107Y-69909057D01*
X143600102Y-69909055D01*
X143454300Y-69878065D01*
X143414946Y-69869700D01*
X143225654Y-69869700D01*
X143193197Y-69876598D01*
X143040497Y-69909055D01*
X143040492Y-69909057D01*
X142867570Y-69986048D01*
X142867565Y-69986051D01*
X142714429Y-70097311D01*
X142587766Y-70237985D01*
X142493121Y-70401915D01*
X142493118Y-70401922D01*
X142434627Y-70581940D01*
X142434626Y-70581944D01*
X142414840Y-70770200D01*
X141448086Y-70770200D01*
X141339507Y-70721857D01*
X141339502Y-70721855D01*
X141193700Y-70690865D01*
X141154346Y-70682500D01*
X140965054Y-70682500D01*
X140932597Y-70689398D01*
X140779897Y-70721855D01*
X140779892Y-70721857D01*
X140606970Y-70798848D01*
X140606965Y-70798851D01*
X140453829Y-70910111D01*
X140327166Y-71050785D01*
X140232521Y-71214715D01*
X140232518Y-71214722D01*
X140174686Y-71392712D01*
X140174026Y-71394744D01*
X140154240Y-71583000D01*
X140174026Y-71771256D01*
X140174027Y-71771259D01*
X140232518Y-71951277D01*
X140233021Y-71952406D01*
X140233116Y-71953117D01*
X140234529Y-71957465D01*
X140233734Y-71957723D01*
X140242308Y-72021656D01*
X140212682Y-72084933D01*
X140170180Y-72116125D01*
X140048167Y-72170450D01*
X140048165Y-72170451D01*
X139895029Y-72281711D01*
X139768366Y-72422385D01*
X139673721Y-72586315D01*
X139673718Y-72586322D01*
X139620570Y-72749897D01*
X139615226Y-72766344D01*
X139595440Y-72954600D01*
X137362515Y-72954600D01*
X137362515Y-72049569D01*
X136754491Y-72049569D01*
X136755141Y-72052626D01*
X136755732Y-72055816D01*
X136762381Y-72097805D01*
X136762805Y-72101023D01*
X136788394Y-72344491D01*
X136788649Y-72347727D01*
X136790875Y-72390194D01*
X136790960Y-72393440D01*
X136790960Y-72448960D01*
X136790875Y-72452206D01*
X136788649Y-72494673D01*
X136788394Y-72497909D01*
X136762805Y-72741377D01*
X136762381Y-72744595D01*
X136755732Y-72786584D01*
X136755141Y-72789774D01*
X136743599Y-72844085D01*
X136742841Y-72847243D01*
X136731831Y-72888333D01*
X136730909Y-72891447D01*
X136655251Y-73124297D01*
X136654167Y-73127359D01*
X136638917Y-73167081D01*
X136637674Y-73170081D01*
X136615089Y-73220802D01*
X136613692Y-73223731D01*
X136594396Y-73261598D01*
X136592848Y-73264450D01*
X136470445Y-73476461D01*
X136468748Y-73479229D01*
X136445580Y-73514904D01*
X136443740Y-73517581D01*
X136419045Y-73551569D01*
X132362515Y-73551569D01*
X132362515Y-72421200D01*
X133982040Y-72421200D01*
X134001826Y-72609456D01*
X134001827Y-72609459D01*
X134060318Y-72789477D01*
X134060321Y-72789484D01*
X134154967Y-72953416D01*
X134253910Y-73063303D01*
X134281629Y-73094088D01*
X134434765Y-73205348D01*
X134434770Y-73205351D01*
X134607692Y-73282342D01*
X134607697Y-73282344D01*
X134792854Y-73321700D01*
X134792855Y-73321700D01*
X134982144Y-73321700D01*
X134982146Y-73321700D01*
X135167303Y-73282344D01*
X135340230Y-73205351D01*
X135493371Y-73094088D01*
X135620033Y-72953416D01*
X135714679Y-72789484D01*
X135773174Y-72609456D01*
X135792960Y-72421200D01*
X135773174Y-72232944D01*
X135714679Y-72052916D01*
X135620033Y-71888984D01*
X135493371Y-71748312D01*
X135493370Y-71748311D01*
X135340234Y-71637051D01*
X135340229Y-71637048D01*
X135167307Y-71560057D01*
X135167302Y-71560055D01*
X135021501Y-71529065D01*
X134982146Y-71520700D01*
X134792854Y-71520700D01*
X134760397Y-71527598D01*
X134607697Y-71560055D01*
X134607692Y-71560057D01*
X134434770Y-71637048D01*
X134434765Y-71637051D01*
X134281629Y-71748311D01*
X134154966Y-71888985D01*
X134060321Y-72052915D01*
X134060318Y-72052922D01*
X134010992Y-72204733D01*
X134001826Y-72232944D01*
X133982040Y-72421200D01*
X132362515Y-72421200D01*
X132362515Y-72049569D01*
X130860515Y-72049569D01*
X129862515Y-72049569D01*
X129102150Y-72049569D01*
X129097516Y-72050303D01*
X129094301Y-72050726D01*
X129039085Y-72056533D01*
X129035846Y-72056788D01*
X128993362Y-72059015D01*
X128990116Y-72059100D01*
X128745284Y-72059100D01*
X128742038Y-72059015D01*
X128699554Y-72056788D01*
X128696315Y-72056533D01*
X128641099Y-72050726D01*
X128637884Y-72050303D01*
X128633250Y-72049569D01*
X128360515Y-72049569D01*
X128360514Y-73013170D01*
X126873788Y-73013170D01*
X127043308Y-72977138D01*
X127046500Y-72976547D01*
X127088484Y-72969897D01*
X127091699Y-72969474D01*
X127146915Y-72963667D01*
X127150154Y-72963412D01*
X127192638Y-72961185D01*
X127195884Y-72961100D01*
X127362515Y-72961100D01*
X127362515Y-72049569D01*
X125860515Y-72049569D01*
X124862515Y-72049569D01*
X123360515Y-72049569D01*
X119146266Y-72049569D01*
X119136174Y-71953544D01*
X119077679Y-71773516D01*
X118983033Y-71609584D01*
X118856371Y-71468912D01*
X118856370Y-71468911D01*
X118703234Y-71357651D01*
X118703229Y-71357648D01*
X118530307Y-71280657D01*
X118530302Y-71280655D01*
X118384501Y-71249665D01*
X118345146Y-71241300D01*
X118155854Y-71241300D01*
X118123397Y-71248198D01*
X117970697Y-71280655D01*
X117970692Y-71280657D01*
X117797770Y-71357648D01*
X117797765Y-71357651D01*
X117644629Y-71468911D01*
X117517966Y-71609585D01*
X117423321Y-71773515D01*
X117423318Y-71773522D01*
X117364827Y-71953540D01*
X117364826Y-71953544D01*
X117345040Y-72141800D01*
X115210951Y-72141800D01*
X115218960Y-72065600D01*
X115199174Y-71877344D01*
X115140679Y-71697316D01*
X115046033Y-71533384D01*
X114919371Y-71392712D01*
X114919370Y-71392711D01*
X114766234Y-71281451D01*
X114766229Y-71281448D01*
X114593307Y-71204457D01*
X114593302Y-71204455D01*
X114447500Y-71173465D01*
X114408146Y-71165100D01*
X114218854Y-71165100D01*
X114186397Y-71171998D01*
X114033697Y-71204455D01*
X114033692Y-71204457D01*
X113860770Y-71281448D01*
X113860765Y-71281451D01*
X113707629Y-71392711D01*
X113580966Y-71533385D01*
X113486321Y-71697315D01*
X113486318Y-71697322D01*
X113427827Y-71877340D01*
X113427826Y-71877344D01*
X113408040Y-72065600D01*
X112362515Y-72065600D01*
X112362515Y-72049569D01*
X110860515Y-72049569D01*
X109862515Y-72049569D01*
X108360515Y-72049569D01*
X107362515Y-72049569D01*
X106625179Y-72049569D01*
X106541319Y-72114493D01*
X106506203Y-72133541D01*
X106197930Y-72240933D01*
X106158578Y-72247827D01*
X105860514Y-72251292D01*
X105860514Y-73059100D01*
X104862514Y-73059100D01*
X104862515Y-72262896D01*
X104282989Y-72269635D01*
X104280246Y-73498275D01*
X103156243Y-73498275D01*
X103162233Y-70814614D01*
X103182067Y-70747623D01*
X103234973Y-70701986D01*
X103304154Y-70692197D01*
X103367645Y-70721364D01*
X103373914Y-70727214D01*
X103797899Y-71151199D01*
X103797900Y-71151200D01*
X105982300Y-71125800D01*
X106078182Y-71051569D01*
X108360515Y-71051569D01*
X109862515Y-71051569D01*
X109862515Y-69975372D01*
X109827304Y-69984807D01*
X109824147Y-69985565D01*
X109584692Y-70036462D01*
X109581500Y-70037053D01*
X109539516Y-70043703D01*
X109536301Y-70044126D01*
X109481085Y-70049933D01*
X109477846Y-70050188D01*
X109435362Y-70052415D01*
X109432116Y-70052500D01*
X109187284Y-70052500D01*
X109184038Y-70052415D01*
X109141554Y-70050188D01*
X109138315Y-70049933D01*
X109083099Y-70044126D01*
X109079884Y-70043703D01*
X109037900Y-70037053D01*
X109034708Y-70036462D01*
X108795253Y-69985565D01*
X108792096Y-69984807D01*
X108751028Y-69973803D01*
X108747917Y-69972882D01*
X108695109Y-69955725D01*
X108692046Y-69954641D01*
X108652333Y-69939396D01*
X108649333Y-69938153D01*
X108454622Y-69851460D01*
X108360515Y-70013715D01*
X108360515Y-71051569D01*
X106078182Y-71051569D01*
X106769700Y-70516200D01*
X107330346Y-69549569D01*
X110860515Y-69549569D01*
X110860515Y-71051569D01*
X112362515Y-71051569D01*
X112362515Y-70417880D01*
X113360514Y-70417880D01*
X113385836Y-70403262D01*
X113388690Y-70401713D01*
X113426562Y-70382418D01*
X113429490Y-70381021D01*
X113653133Y-70281447D01*
X113656133Y-70280204D01*
X113695846Y-70264959D01*
X113698909Y-70263875D01*
X113751717Y-70246718D01*
X113754828Y-70245797D01*
X113795896Y-70234793D01*
X113799053Y-70234035D01*
X114038508Y-70183138D01*
X114041700Y-70182547D01*
X114083684Y-70175897D01*
X114086899Y-70175474D01*
X114142115Y-70169667D01*
X114145354Y-70169412D01*
X114187838Y-70167185D01*
X114191084Y-70167100D01*
X114435916Y-70167100D01*
X114439162Y-70167185D01*
X114481646Y-70169412D01*
X114484885Y-70169667D01*
X114540101Y-70175474D01*
X114543316Y-70175897D01*
X114585300Y-70182547D01*
X114588492Y-70183138D01*
X114827947Y-70234035D01*
X114831104Y-70234793D01*
X114862515Y-70243209D01*
X114862515Y-69549569D01*
X115860515Y-69549569D01*
X115860515Y-70956522D01*
X115869740Y-70969219D01*
X115871580Y-70971896D01*
X115894748Y-71007571D01*
X115896445Y-71010340D01*
X115920248Y-71051569D01*
X116690165Y-71051569D01*
X116692420Y-71048096D01*
X116694260Y-71045419D01*
X116726897Y-71000501D01*
X116728873Y-70997926D01*
X116755630Y-70964885D01*
X116757737Y-70962418D01*
X116921548Y-70780487D01*
X116923783Y-70778133D01*
X116953855Y-70748061D01*
X116956210Y-70745825D01*
X116997471Y-70708675D01*
X116999938Y-70706568D01*
X117032983Y-70679807D01*
X117035560Y-70677830D01*
X117233627Y-70533927D01*
X117236304Y-70532087D01*
X117271984Y-70508918D01*
X117274752Y-70507222D01*
X117322836Y-70479462D01*
X117325690Y-70477913D01*
X117362515Y-70459151D01*
X117362515Y-69549569D01*
X118360515Y-69549569D01*
X118360515Y-70243300D01*
X118372916Y-70243300D01*
X118376162Y-70243385D01*
X118418646Y-70245612D01*
X118421885Y-70245867D01*
X118477101Y-70251674D01*
X118480316Y-70252097D01*
X118522300Y-70258747D01*
X118525492Y-70259338D01*
X118764947Y-70310235D01*
X118768104Y-70310993D01*
X118809172Y-70321997D01*
X118812283Y-70322918D01*
X118865091Y-70340075D01*
X118868154Y-70341159D01*
X118907867Y-70356404D01*
X118910867Y-70357647D01*
X119134510Y-70457221D01*
X119137438Y-70458618D01*
X119175310Y-70477913D01*
X119178164Y-70479462D01*
X119226248Y-70507222D01*
X119229016Y-70508918D01*
X119264696Y-70532087D01*
X119267373Y-70533927D01*
X119465440Y-70677830D01*
X119468017Y-70679807D01*
X119501062Y-70706568D01*
X119503529Y-70708675D01*
X119544790Y-70745825D01*
X119547145Y-70748061D01*
X119577217Y-70778133D01*
X119579452Y-70780487D01*
X119743263Y-70962418D01*
X119745370Y-70964885D01*
X119772127Y-70997926D01*
X119774103Y-71000501D01*
X119806740Y-71045419D01*
X119808580Y-71048096D01*
X119810835Y-71051569D01*
X119862515Y-71051569D01*
X119862515Y-69549569D01*
X120860515Y-69549569D01*
X120860515Y-71051569D01*
X122362515Y-71051569D01*
X122362515Y-69549569D01*
X123360515Y-69549569D01*
X123360515Y-71051569D01*
X124862515Y-71051569D01*
X124862515Y-69982800D01*
X126387440Y-69982800D01*
X126407226Y-70171056D01*
X126407227Y-70171059D01*
X126465718Y-70351077D01*
X126465721Y-70351084D01*
X126560367Y-70515016D01*
X126684594Y-70652984D01*
X126687029Y-70655688D01*
X126840165Y-70766948D01*
X126840170Y-70766951D01*
X127013092Y-70843942D01*
X127013097Y-70843944D01*
X127198254Y-70883300D01*
X127198255Y-70883300D01*
X127387544Y-70883300D01*
X127387546Y-70883300D01*
X127572703Y-70843944D01*
X127745630Y-70766951D01*
X127898771Y-70655688D01*
X127915545Y-70637057D01*
X127975028Y-70600409D01*
X128044885Y-70601737D01*
X128102934Y-70640622D01*
X128115082Y-70658028D01*
X128135167Y-70692816D01*
X128261829Y-70833488D01*
X128414965Y-70944748D01*
X128414970Y-70944751D01*
X128587892Y-71021742D01*
X128587897Y-71021744D01*
X128773054Y-71061100D01*
X128773055Y-71061100D01*
X128962344Y-71061100D01*
X128962346Y-71061100D01*
X129147503Y-71021744D01*
X129320430Y-70944751D01*
X129473571Y-70833488D01*
X129600233Y-70692816D01*
X129694879Y-70528884D01*
X129753374Y-70348856D01*
X129773160Y-70160600D01*
X129753374Y-69972344D01*
X129694879Y-69792316D01*
X129600233Y-69628384D01*
X129529267Y-69549569D01*
X130860515Y-69549569D01*
X130860515Y-71051569D01*
X132362515Y-71051569D01*
X133360515Y-71051569D01*
X133566747Y-71051569D01*
X133590855Y-71027461D01*
X133593210Y-71025225D01*
X133634471Y-70988075D01*
X133636938Y-70985968D01*
X133669983Y-70959207D01*
X133672560Y-70957230D01*
X133870627Y-70813327D01*
X133873304Y-70811487D01*
X133908984Y-70788318D01*
X133911752Y-70786622D01*
X133959836Y-70758862D01*
X133962690Y-70757313D01*
X134000562Y-70738018D01*
X134003490Y-70736621D01*
X134227133Y-70637047D01*
X134230133Y-70635804D01*
X134269846Y-70620559D01*
X134272909Y-70619475D01*
X134325717Y-70602318D01*
X134328828Y-70601397D01*
X134369896Y-70590393D01*
X134373053Y-70589635D01*
X134612508Y-70538738D01*
X134615700Y-70538147D01*
X134657684Y-70531497D01*
X134660899Y-70531074D01*
X134716115Y-70525267D01*
X134719354Y-70525012D01*
X134761838Y-70522785D01*
X134765084Y-70522700D01*
X134862515Y-70522700D01*
X134862515Y-69549569D01*
X135860515Y-69549569D01*
X135860515Y-70785044D01*
X135863248Y-70786622D01*
X135866016Y-70788318D01*
X135901696Y-70811487D01*
X135904373Y-70813327D01*
X136102440Y-70957230D01*
X136105017Y-70959207D01*
X136138062Y-70985968D01*
X136140529Y-70988075D01*
X136181790Y-71025225D01*
X136184145Y-71027461D01*
X136208253Y-71051569D01*
X137157244Y-71051569D01*
X137150526Y-71036481D01*
X137149283Y-71033481D01*
X137134033Y-70993759D01*
X137132949Y-70990697D01*
X137057291Y-70757847D01*
X137056369Y-70754733D01*
X137045359Y-70713643D01*
X137044601Y-70710485D01*
X137033059Y-70656174D01*
X137032468Y-70652984D01*
X137025819Y-70610995D01*
X137025395Y-70607777D01*
X136999806Y-70364309D01*
X136999551Y-70361073D01*
X136997325Y-70318606D01*
X136997240Y-70315360D01*
X136997240Y-70287600D01*
X137995240Y-70287600D01*
X138015026Y-70475856D01*
X138015027Y-70475859D01*
X138073518Y-70655877D01*
X138073521Y-70655884D01*
X138168167Y-70819816D01*
X138249470Y-70910112D01*
X138294829Y-70960488D01*
X138447965Y-71071748D01*
X138447970Y-71071751D01*
X138620892Y-71148742D01*
X138620897Y-71148744D01*
X138806054Y-71188100D01*
X138806055Y-71188100D01*
X138995344Y-71188100D01*
X138995346Y-71188100D01*
X139180503Y-71148744D01*
X139353430Y-71071751D01*
X139506571Y-70960488D01*
X139633233Y-70819816D01*
X139727879Y-70655884D01*
X139786374Y-70475856D01*
X139806160Y-70287600D01*
X139786374Y-70099344D01*
X139727879Y-69919316D01*
X139633233Y-69755384D01*
X139506571Y-69614712D01*
X139506570Y-69614711D01*
X139416910Y-69549569D01*
X145860515Y-69549569D01*
X145860515Y-71051569D01*
X147023400Y-71051569D01*
X146322737Y-69825409D01*
X146311140Y-69797849D01*
X146244613Y-69564229D01*
X146242299Y-69549569D01*
X145860515Y-69549569D01*
X139416910Y-69549569D01*
X139353434Y-69503451D01*
X139353429Y-69503448D01*
X139180507Y-69426457D01*
X139180502Y-69426455D01*
X139034701Y-69395465D01*
X138995346Y-69387100D01*
X138806054Y-69387100D01*
X138773597Y-69393998D01*
X138620897Y-69426455D01*
X138620892Y-69426457D01*
X138447970Y-69503448D01*
X138447965Y-69503451D01*
X138294829Y-69614711D01*
X138168166Y-69755385D01*
X138073521Y-69919315D01*
X138073518Y-69919322D01*
X138015686Y-70097312D01*
X138015026Y-70099344D01*
X137995240Y-70287600D01*
X136997240Y-70287600D01*
X136997240Y-70259840D01*
X136997325Y-70256594D01*
X136999551Y-70214127D01*
X136999806Y-70210891D01*
X137025395Y-69967423D01*
X137025819Y-69964205D01*
X137032468Y-69922216D01*
X137033059Y-69919026D01*
X137044601Y-69864715D01*
X137045359Y-69861557D01*
X137056369Y-69820467D01*
X137057291Y-69817353D01*
X137132949Y-69584503D01*
X137134033Y-69581441D01*
X137146269Y-69549569D01*
X135860515Y-69549569D01*
X134862515Y-69549569D01*
X134635444Y-69549569D01*
X134620792Y-69707685D01*
X134616587Y-69730178D01*
X134555727Y-69944081D01*
X134547461Y-69965419D01*
X134448332Y-70164497D01*
X134436286Y-70183952D01*
X134302264Y-70361425D01*
X134286848Y-70378335D01*
X134122498Y-70528160D01*
X134104238Y-70541950D01*
X133915156Y-70659025D01*
X133894672Y-70669225D01*
X133687296Y-70749563D01*
X133665287Y-70755825D01*
X133446681Y-70796689D01*
X133423896Y-70798800D01*
X133360515Y-70798800D01*
X133360515Y-71051569D01*
X132362515Y-71051569D01*
X132362515Y-70400180D01*
X132338552Y-70378335D01*
X132323136Y-70361425D01*
X132189114Y-70183952D01*
X132177068Y-70164497D01*
X132077939Y-69965419D01*
X132069673Y-69944081D01*
X132008813Y-69730178D01*
X132004608Y-69707685D01*
X131989956Y-69549569D01*
X130860515Y-69549569D01*
X129529267Y-69549569D01*
X129473571Y-69487712D01*
X129470348Y-69485370D01*
X129320434Y-69376451D01*
X129320429Y-69376448D01*
X129147507Y-69299457D01*
X129147502Y-69299455D01*
X129001701Y-69268465D01*
X128962346Y-69260100D01*
X128773054Y-69260100D01*
X128740597Y-69266998D01*
X128587897Y-69299455D01*
X128587892Y-69299457D01*
X128414970Y-69376448D01*
X128414965Y-69376451D01*
X128261829Y-69487711D01*
X128261828Y-69487712D01*
X128245053Y-69506343D01*
X128185566Y-69542991D01*
X128115709Y-69541660D01*
X128057661Y-69502773D01*
X128045517Y-69485370D01*
X128025434Y-69450585D01*
X127898770Y-69309911D01*
X127745634Y-69198651D01*
X127745629Y-69198648D01*
X127572707Y-69121657D01*
X127572702Y-69121655D01*
X127426901Y-69090665D01*
X127387546Y-69082300D01*
X127198254Y-69082300D01*
X127165797Y-69089198D01*
X127013097Y-69121655D01*
X127013092Y-69121657D01*
X126840170Y-69198648D01*
X126840165Y-69198651D01*
X126687029Y-69309911D01*
X126560366Y-69450585D01*
X126465721Y-69614515D01*
X126465718Y-69614522D01*
X126407950Y-69792315D01*
X126407226Y-69794544D01*
X126392002Y-69939396D01*
X126387514Y-69982100D01*
X126387440Y-69982800D01*
X124862515Y-69982800D01*
X124862515Y-69549569D01*
X123360515Y-69549569D01*
X122362515Y-69549569D01*
X120860515Y-69549569D01*
X119862515Y-69549569D01*
X118360515Y-69549569D01*
X117362515Y-69549569D01*
X115860515Y-69549569D01*
X114862515Y-69549569D01*
X113360515Y-69549569D01*
X113360514Y-70417880D01*
X112362515Y-70417880D01*
X112362515Y-69549569D01*
X110860515Y-69549569D01*
X107330346Y-69549569D01*
X107506300Y-69246200D01*
X107502613Y-69054500D01*
X107489236Y-68358875D01*
X107485296Y-68154000D01*
X108404240Y-68154000D01*
X108424026Y-68342256D01*
X108424027Y-68342259D01*
X108482518Y-68522277D01*
X108482521Y-68522284D01*
X108577167Y-68686216D01*
X108703829Y-68826888D01*
X108856965Y-68938148D01*
X108856970Y-68938151D01*
X109029892Y-69015142D01*
X109029897Y-69015144D01*
X109215054Y-69054500D01*
X109215055Y-69054500D01*
X109404344Y-69054500D01*
X109404346Y-69054500D01*
X109589503Y-69015144D01*
X109762430Y-68938151D01*
X109915571Y-68826888D01*
X110042233Y-68686216D01*
X110119971Y-68551569D01*
X111171179Y-68551569D01*
X112362515Y-68551569D01*
X112362515Y-67999158D01*
X113360515Y-67999158D01*
X113360515Y-68551569D01*
X114862515Y-68551569D01*
X114862514Y-68005535D01*
X115860515Y-68005535D01*
X115860515Y-68551569D01*
X117362515Y-68551569D01*
X117362514Y-68011913D01*
X118360515Y-68011913D01*
X118360515Y-68551569D01*
X119862515Y-68551569D01*
X119862514Y-68018290D01*
X120860514Y-68018290D01*
X120860515Y-68551569D01*
X122362515Y-68551569D01*
X122362515Y-68024668D01*
X123360515Y-68024668D01*
X123360515Y-68551569D01*
X124862515Y-68551569D01*
X124862515Y-68037423D01*
X128360515Y-68037423D01*
X128360515Y-68327491D01*
X128592708Y-68278138D01*
X128595900Y-68277547D01*
X128637884Y-68270897D01*
X128641099Y-68270474D01*
X128696315Y-68264667D01*
X128699554Y-68264412D01*
X128742038Y-68262185D01*
X128745284Y-68262100D01*
X128990116Y-68262100D01*
X128993362Y-68262185D01*
X129035846Y-68264412D01*
X129039085Y-68264667D01*
X129094301Y-68270474D01*
X129097516Y-68270897D01*
X129139500Y-68277547D01*
X129142692Y-68278138D01*
X129382147Y-68329035D01*
X129385304Y-68329793D01*
X129426372Y-68340797D01*
X129429483Y-68341718D01*
X129482291Y-68358875D01*
X129485354Y-68359959D01*
X129525067Y-68375204D01*
X129528067Y-68376447D01*
X129751710Y-68476021D01*
X129754638Y-68477418D01*
X129792510Y-68496713D01*
X129795364Y-68498262D01*
X129843448Y-68526022D01*
X129846216Y-68527718D01*
X129862515Y-68538301D01*
X129862515Y-68043800D01*
X130860515Y-68043800D01*
X130860515Y-68551569D01*
X132360156Y-68551569D01*
X132362514Y-68549419D01*
X132362514Y-68050178D01*
X133360515Y-68050178D01*
X133360515Y-68150800D01*
X133423896Y-68150800D01*
X133446681Y-68152911D01*
X133665287Y-68193775D01*
X133687296Y-68200037D01*
X133894672Y-68280375D01*
X133915156Y-68290575D01*
X134104238Y-68407650D01*
X134122498Y-68421440D01*
X134265243Y-68551569D01*
X134862515Y-68551569D01*
X134862515Y-68056555D01*
X135860515Y-68056555D01*
X135860515Y-68551569D01*
X137362515Y-68551569D01*
X137362515Y-68075688D01*
X143360515Y-68075688D01*
X143360515Y-68551569D01*
X144862515Y-68551569D01*
X144862515Y-68079519D01*
X143360515Y-68075688D01*
X137362515Y-68075688D01*
X137362515Y-68060386D01*
X135860515Y-68056555D01*
X134862515Y-68056555D01*
X134862515Y-68054009D01*
X133360515Y-68050178D01*
X132362514Y-68050178D01*
X132362514Y-68047631D01*
X130860515Y-68043800D01*
X129862515Y-68043800D01*
X129862515Y-68041254D01*
X128360515Y-68037423D01*
X124862515Y-68037423D01*
X124862515Y-68028499D01*
X123360515Y-68024668D01*
X122362515Y-68024668D01*
X122362515Y-68022121D01*
X120860514Y-68018290D01*
X119862514Y-68018290D01*
X119862514Y-68015744D01*
X118360515Y-68011913D01*
X117362514Y-68011913D01*
X117362514Y-68009366D01*
X115860515Y-68005535D01*
X114862514Y-68005535D01*
X114862514Y-68002989D01*
X113360515Y-67999158D01*
X112362515Y-67999158D01*
X112362515Y-67996611D01*
X111201803Y-67993651D01*
X111210594Y-68077290D01*
X111210849Y-68080527D01*
X111213075Y-68122994D01*
X111213160Y-68126240D01*
X111213160Y-68181760D01*
X111213075Y-68185006D01*
X111210849Y-68227473D01*
X111210594Y-68230709D01*
X111185005Y-68474177D01*
X111184581Y-68477395D01*
X111177932Y-68519384D01*
X111177341Y-68522574D01*
X111171179Y-68551569D01*
X110119971Y-68551569D01*
X110136879Y-68522284D01*
X110195374Y-68342256D01*
X110215160Y-68154000D01*
X110195374Y-67965744D01*
X110136879Y-67785716D01*
X110042233Y-67621784D01*
X109915571Y-67481112D01*
X109914400Y-67480261D01*
X109762434Y-67369851D01*
X109762429Y-67369848D01*
X109589507Y-67292857D01*
X109589502Y-67292855D01*
X109443700Y-67261865D01*
X109404346Y-67253500D01*
X109215054Y-67253500D01*
X109182597Y-67260398D01*
X109029897Y-67292855D01*
X109029892Y-67292857D01*
X108856970Y-67369848D01*
X108856965Y-67369851D01*
X108703829Y-67481111D01*
X108577166Y-67621785D01*
X108482521Y-67785715D01*
X108482518Y-67785722D01*
X108424027Y-67965740D01*
X108424026Y-67965744D01*
X108404240Y-68154000D01*
X107485296Y-68154000D01*
X107480900Y-67925400D01*
X106977623Y-67044667D01*
X106961454Y-66976694D01*
X106984600Y-66910770D01*
X107039713Y-66867824D01*
X107085598Y-66859146D01*
X146698500Y-66960200D01*
X147435091Y-66884000D01*
X147470949Y-66881012D01*
X147739900Y-66858600D01*
X147932993Y-66805938D01*
X148002848Y-66807290D01*
G37*
%TD.AperFunction*%
%TD*%
M02*
