%TF.GenerationSoftware,KiCad,Pcbnew,7.0.5*%
%TF.CreationDate,2024-03-10T11:39:13+05:30*%
%TF.ProjectId,mcu datalogger,6d637520-6461-4746-916c-6f676765722e,1*%
%TF.SameCoordinates,Original*%
%TF.FileFunction,Copper,L2,Inr*%
%TF.FilePolarity,Positive*%
%FSLAX46Y46*%
G04 Gerber Fmt 4.6, Leading zero omitted, Abs format (unit mm)*
G04 Created by KiCad (PCBNEW 7.0.5) date 2024-03-10 11:39:13*
%MOMM*%
%LPD*%
G01*
G04 APERTURE LIST*
%TA.AperFunction,ComponentPad*%
%ADD10R,1.700000X1.700000*%
%TD*%
%TA.AperFunction,ComponentPad*%
%ADD11O,1.700000X1.700000*%
%TD*%
%TA.AperFunction,ViaPad*%
%ADD12C,0.800000*%
%TD*%
%TA.AperFunction,Conductor*%
%ADD13C,0.250000*%
%TD*%
G04 APERTURE END LIST*
D10*
%TO.N,GND*%
%TO.C,J1*%
X116232500Y-100772000D03*
D11*
%TO.N,/Vcc*%
X116232500Y-103312000D03*
%TO.N,/SDA*%
X116232500Y-105852000D03*
%TO.N,/SCL*%
X116232500Y-108392000D03*
%TD*%
D10*
%TO.N,/D2*%
%TO.C,J2*%
X76684700Y-113192600D03*
D11*
%TO.N,/D3*%
X79224700Y-113192600D03*
%TO.N,/D4*%
X81764700Y-113192600D03*
%TO.N,/D5*%
X84304700Y-113192600D03*
%TO.N,/D6*%
X86844700Y-113192600D03*
%TO.N,/D7*%
X89384700Y-113192600D03*
%TO.N,/D8*%
X91924700Y-113192600D03*
%TO.N,GND*%
X94464700Y-113192600D03*
%TO.N,/Vcc*%
X97004700Y-113192600D03*
%TD*%
D10*
%TO.N,GND*%
%TO.C,J3*%
X103710300Y-113167200D03*
D11*
%TO.N,/Vcc*%
X106250300Y-113167200D03*
%TO.N,/RX*%
X108790300Y-113167200D03*
%TO.N,/TX*%
X111330300Y-113167200D03*
%TD*%
D10*
%TO.N,/MISO*%
%TO.C,J4*%
X113844900Y-92009000D03*
D11*
%TO.N,/Vcc*%
X116384900Y-92009000D03*
%TO.N,/SCK*%
X113844900Y-94549000D03*
%TO.N,/MOSI*%
X116384900Y-94549000D03*
%TO.N,/RST*%
X113844900Y-97089000D03*
%TO.N,GND*%
X116384900Y-97089000D03*
%TD*%
D10*
%TO.N,/Vcc*%
%TO.C,BT1*%
X73103300Y-93731200D03*
D11*
%TO.N,GND*%
X73103300Y-96271200D03*
%TD*%
D12*
%TO.N,Net-(U4-PB7)*%
X91021700Y-103993400D03*
X89370700Y-99446800D03*
%TO.N,GND*%
X107279800Y-87112600D03*
X91430200Y-94123000D03*
X76723600Y-99330000D03*
X100218600Y-87798400D03*
X76241000Y-106391200D03*
X91201600Y-96231200D03*
X101641000Y-108194600D03*
X111013600Y-98466400D03*
X101895000Y-104638600D03*
X99482000Y-96256600D03*
%TO.N,/Vcc*%
X75733000Y-108118400D03*
X91608000Y-95189800D03*
X95773600Y-88484200D03*
X76215600Y-86477600D03*
X105527200Y-93234000D03*
X105806600Y-88611200D03*
X84394400Y-100650800D03*
X107406800Y-91278200D03*
X80051000Y-95875600D03*
X105527200Y-98034600D03*
X82921200Y-107610400D03*
X83378400Y-92980000D03*
%TO.N,Net-(U4-PB6)*%
X91277800Y-97679000D03*
X95011600Y-104232200D03*
%TO.N,Net-(U4-PB7)*%
X101195700Y-109814400D03*
X91061100Y-109560400D03*
%TO.N,Net-(U4-AREF)*%
X94706800Y-95977200D03*
X94198800Y-88306400D03*
%TO.N,Net-(D1-A)*%
X101818800Y-99711000D03*
X110226200Y-89093800D03*
%TO.N,/SDA*%
X107965600Y-89906600D03*
X111420000Y-93310200D03*
X85156400Y-90465400D03*
X96129200Y-93030800D03*
X113198000Y-104613200D03*
%TO.N,/SCL*%
X101793400Y-90744800D03*
X94224200Y-93183200D03*
X80711400Y-94986600D03*
X81168600Y-97806000D03*
X87594800Y-91329000D03*
X81422600Y-103216200D03*
X113375800Y-108524800D03*
X81219400Y-90389200D03*
%TO.N,/MISO*%
X108295800Y-94681800D03*
X98008800Y-101311200D03*
%TO.N,/MOSI*%
X95900600Y-101844600D03*
X108143400Y-101997000D03*
%TO.N,/RST*%
X103850800Y-98161600D03*
X103100700Y-95133200D03*
X110175400Y-100498400D03*
X93093100Y-93533000D03*
%TO.N,/SCK*%
X108270400Y-99609400D03*
X105959000Y-101590600D03*
%TD*%
D13*
%TO.N,Net-(U4-PB7)*%
X91021700Y-104018800D02*
X90996300Y-103993400D01*
X91021700Y-103993400D02*
X91021700Y-104018800D01*
X90996300Y-103993400D02*
X91021700Y-103993400D01*
X89370700Y-102367800D02*
X90996300Y-103993400D01*
X89370700Y-99446800D02*
X89370700Y-102367800D01*
%TO.N,Net-(U4-PB6)*%
X91277800Y-97679000D02*
X91277800Y-100498400D01*
X91277800Y-100498400D02*
X95011600Y-104232200D01*
%TO.N,Net-(U4-PB7)*%
X101195700Y-109814400D02*
X91315100Y-109814400D01*
X91315100Y-109814400D02*
X91061100Y-109560400D01*
%TO.N,Net-(U4-AREF)*%
X94511995Y-95977200D02*
X94706800Y-95977200D01*
X92368100Y-93833305D02*
X94511995Y-95977200D01*
X92368100Y-90137100D02*
X92368100Y-93833305D01*
X94198800Y-88306400D02*
X92368100Y-90137100D01*
%TO.N,/SCL*%
X81168600Y-97806000D02*
X81422600Y-103216200D01*
X80711400Y-90897200D02*
X81219400Y-90389200D01*
X80711400Y-94986600D02*
X80711400Y-90897200D01*
X96662600Y-90744800D02*
X101793400Y-90744800D01*
X94224200Y-93183200D02*
X96662600Y-90744800D01*
%TO.N,/MISO*%
X107119400Y-95858200D02*
X103461800Y-95858200D01*
X108295800Y-94681800D02*
X107119400Y-95858200D01*
X103461800Y-95858200D02*
X98008800Y-101311200D01*
%TO.N,/MOSI*%
X107824800Y-102315600D02*
X96371600Y-102315600D01*
X96371600Y-102315600D02*
X95900600Y-101844600D01*
X108143400Y-101997000D02*
X107824800Y-102315600D01*
%TO.N,/RST*%
X110175400Y-100498400D02*
X110175400Y-100489095D01*
X108570705Y-98884400D02*
X107970095Y-98884400D01*
X94693300Y-95133200D02*
X93093100Y-93533000D01*
X103100700Y-95133200D02*
X94693300Y-95133200D01*
X104790600Y-99101400D02*
X103850800Y-98161600D01*
X107970095Y-98884400D02*
X107753095Y-99101400D01*
X110175400Y-100489095D02*
X108570705Y-98884400D01*
X107753095Y-99101400D02*
X104790600Y-99101400D01*
%TO.N,/SCK*%
X106289200Y-101590600D02*
X105959000Y-101590600D01*
X108270400Y-99609400D02*
X106289200Y-101590600D01*
X105959000Y-101590600D02*
X106060600Y-101590600D01*
%TD*%
M02*
