%TF.GenerationSoftware,KiCad,Pcbnew,7.0.5*%
%TF.CreationDate,2024-01-17T23:55:01+05:30*%
%TF.ProjectId,mcu datalogger,6d637520-6461-4746-916c-6f676765722e,1*%
%TF.SameCoordinates,Original*%
%TF.FileFunction,Copper,L1,Top*%
%TF.FilePolarity,Positive*%
%FSLAX46Y46*%
G04 Gerber Fmt 4.6, Leading zero omitted, Abs format (unit mm)*
G04 Created by KiCad (PCBNEW 7.0.5) date 2024-01-17 23:55:01*
%MOMM*%
%LPD*%
G01*
G04 APERTURE LIST*
G04 Aperture macros list*
%AMRoundRect*
0 Rectangle with rounded corners*
0 $1 Rounding radius*
0 $2 $3 $4 $5 $6 $7 $8 $9 X,Y pos of 4 corners*
0 Add a 4 corners polygon primitive as box body*
4,1,4,$2,$3,$4,$5,$6,$7,$8,$9,$2,$3,0*
0 Add four circle primitives for the rounded corners*
1,1,$1+$1,$2,$3*
1,1,$1+$1,$4,$5*
1,1,$1+$1,$6,$7*
1,1,$1+$1,$8,$9*
0 Add four rect primitives between the rounded corners*
20,1,$1+$1,$2,$3,$4,$5,0*
20,1,$1+$1,$4,$5,$6,$7,0*
20,1,$1+$1,$6,$7,$8,$9,0*
20,1,$1+$1,$8,$9,$2,$3,0*%
G04 Aperture macros list end*
%TA.AperFunction,SMDPad,CuDef*%
%ADD10RoundRect,0.250000X-0.262500X-0.450000X0.262500X-0.450000X0.262500X0.450000X-0.262500X0.450000X0*%
%TD*%
%TA.AperFunction,SMDPad,CuDef*%
%ADD11RoundRect,0.150000X-0.825000X-0.150000X0.825000X-0.150000X0.825000X0.150000X-0.825000X0.150000X0*%
%TD*%
%TA.AperFunction,SMDPad,CuDef*%
%ADD12R,3.500000X2.400000*%
%TD*%
%TA.AperFunction,SMDPad,CuDef*%
%ADD13RoundRect,0.038500X-0.696500X-0.236500X0.696500X-0.236500X0.696500X0.236500X-0.696500X0.236500X0*%
%TD*%
%TA.AperFunction,SMDPad,CuDef*%
%ADD14RoundRect,0.099000X-0.176000X-0.636000X0.176000X-0.636000X0.176000X0.636000X-0.176000X0.636000X0*%
%TD*%
%TA.AperFunction,SMDPad,CuDef*%
%ADD15RoundRect,0.250000X-0.250000X-0.475000X0.250000X-0.475000X0.250000X0.475000X-0.250000X0.475000X0*%
%TD*%
%TA.AperFunction,SMDPad,CuDef*%
%ADD16RoundRect,0.041300X-0.943700X-0.253700X0.943700X-0.253700X0.943700X0.253700X-0.943700X0.253700X0*%
%TD*%
%TA.AperFunction,ComponentPad*%
%ADD17R,1.700000X1.700000*%
%TD*%
%TA.AperFunction,ComponentPad*%
%ADD18O,1.700000X1.700000*%
%TD*%
%TA.AperFunction,SMDPad,CuDef*%
%ADD19R,2.400000X3.500000*%
%TD*%
%TA.AperFunction,SMDPad,CuDef*%
%ADD20RoundRect,0.243750X-0.243750X-0.456250X0.243750X-0.456250X0.243750X0.456250X-0.243750X0.456250X0*%
%TD*%
%TA.AperFunction,ViaPad*%
%ADD21C,0.800000*%
%TD*%
%TA.AperFunction,Conductor*%
%ADD22C,0.350000*%
%TD*%
%TA.AperFunction,Conductor*%
%ADD23C,0.250000*%
%TD*%
G04 APERTURE END LIST*
D10*
%TO.P,R3,1*%
%TO.N,/Vcc*%
X110434700Y-90775200D03*
%TO.P,R3,2*%
%TO.N,Net-(U2-~{INTA})*%
X112259700Y-90775200D03*
%TD*%
D11*
%TO.P,U3,1,A0*%
%TO.N,/Vcc*%
X111223200Y-68372400D03*
%TO.P,U3,2,A1*%
%TO.N,GND*%
X111223200Y-69642400D03*
%TO.P,U3,3,A2*%
%TO.N,/Vcc*%
X111223200Y-70912400D03*
%TO.P,U3,4,GND*%
%TO.N,GND*%
X111223200Y-72182400D03*
%TO.P,U3,5,SDA*%
%TO.N,/SDA*%
X116173200Y-72182400D03*
%TO.P,U3,6,SCL*%
%TO.N,/SCL*%
X116173200Y-70912400D03*
%TO.P,U3,7,WP*%
%TO.N,GND*%
X116173200Y-69642400D03*
%TO.P,U3,8,VCC*%
%TO.N,/Vcc*%
X116173200Y-68372400D03*
%TD*%
D12*
%TO.P,Y2,1,1*%
%TO.N,Net-(U4-PB7)*%
X123927200Y-88362200D03*
%TO.P,Y2,2,2*%
%TO.N,Net-(U4-PB6)*%
X129127200Y-88362200D03*
%TD*%
D10*
%TO.P,R4,1*%
%TO.N,/Vcc*%
X114752700Y-90622800D03*
%TO.P,R4,2*%
%TO.N,Net-(U2-SQW{slash}~INT)*%
X116577700Y-90622800D03*
%TD*%
D13*
%TO.P,U4,1,PD3*%
%TO.N,/D3*%
X122468000Y-74538600D03*
%TO.P,U4,2,PD4*%
%TO.N,/D4*%
X122468000Y-75338600D03*
%TO.P,U4,3,GND*%
%TO.N,GND*%
X122468000Y-76138600D03*
%TO.P,U4,4,VCC*%
%TO.N,/Vcc*%
X122468000Y-76938600D03*
%TO.P,U4,5,GND*%
%TO.N,GND*%
X122468000Y-77738600D03*
%TO.P,U4,6,VCC*%
%TO.N,unconnected-(U4-VCC-Pad6)*%
X122468000Y-78538600D03*
%TO.P,U4,7,PB6*%
%TO.N,Net-(U4-PB6)*%
X122468000Y-79338600D03*
%TO.P,U4,8,PB7*%
%TO.N,Net-(U4-PB7)*%
X122468000Y-80138600D03*
D14*
%TO.P,U4,9,PD5*%
%TO.N,/D5*%
X123838000Y-81508600D03*
%TO.P,U4,10,PD6*%
%TO.N,/D6*%
X124638000Y-81508600D03*
%TO.P,U4,11,PD7*%
%TO.N,/D7*%
X125438000Y-81508600D03*
%TO.P,U4,12,PB0*%
%TO.N,/D8*%
X126238000Y-81508600D03*
%TO.P,U4,13,PB1*%
%TO.N,unconnected-(U4-PB1-Pad13)*%
X127038000Y-81508600D03*
%TO.P,U4,14,PB2*%
%TO.N,unconnected-(U4-PB2-Pad14)*%
X127838000Y-81508600D03*
%TO.P,U4,15,PB3*%
%TO.N,/MOSI*%
X128638000Y-81508600D03*
%TO.P,U4,16,PB4*%
%TO.N,/MISO*%
X129438000Y-81508600D03*
D13*
%TO.P,U4,17,PB5*%
%TO.N,/SCL*%
X130808000Y-80138600D03*
%TO.P,U4,18,AVCC*%
%TO.N,/Vcc*%
X130808000Y-79338600D03*
%TO.P,U4,19,ADC6*%
%TO.N,unconnected-(U4-ADC6-Pad19)*%
X130808000Y-78538600D03*
%TO.P,U4,20,AREF*%
%TO.N,Net-(U4-AREF)*%
X130808000Y-77738600D03*
%TO.P,U4,21,GND*%
%TO.N,GND*%
X130808000Y-76938600D03*
%TO.P,U4,22,ADC7*%
%TO.N,unconnected-(U4-ADC7-Pad22)*%
X130808000Y-76138600D03*
%TO.P,U4,23,PC0*%
%TO.N,unconnected-(U4-PC0-Pad23)*%
X130808000Y-75338600D03*
%TO.P,U4,24,PC1*%
%TO.N,unconnected-(U4-PC1-Pad24)*%
X130808000Y-74538600D03*
D14*
%TO.P,U4,25,PC2*%
%TO.N,unconnected-(U4-PC2-Pad25)*%
X129438000Y-73168600D03*
%TO.P,U4,26,PC3*%
%TO.N,unconnected-(U4-PC3-Pad26)*%
X128638000Y-73168600D03*
%TO.P,U4,27,PC4*%
%TO.N,/SDA*%
X127838000Y-73168600D03*
%TO.P,U4,28,PC5*%
%TO.N,/SCL*%
X127038000Y-73168600D03*
%TO.P,U4,29,PC6/~{RESET}*%
%TO.N,/RST*%
X126238000Y-73168600D03*
%TO.P,U4,30,PD0*%
%TO.N,/RX*%
X125438000Y-73168600D03*
%TO.P,U4,31,PD1*%
%TO.N,/TX*%
X124638000Y-73168600D03*
%TO.P,U4,32,PD2*%
%TO.N,/D2*%
X123838000Y-73168600D03*
%TD*%
D15*
%TO.P,C3,1*%
%TO.N,GND*%
X136127400Y-89708400D03*
%TO.P,C3,2*%
%TO.N,Net-(U4-PB7)*%
X138027400Y-89708400D03*
%TD*%
D16*
%TO.P,U2,1,X1*%
%TO.N,Net-(U2-X1)*%
X111234400Y-83739400D03*
%TO.P,U2,2,X2*%
%TO.N,Net-(U2-X2)*%
X111234400Y-85009400D03*
%TO.P,U2,3,~{INTA}*%
%TO.N,Net-(U2-~{INTA})*%
X111234400Y-86279400D03*
%TO.P,U2,4,GND*%
%TO.N,GND*%
X111234400Y-87549400D03*
%TO.P,U2,5,SDA*%
%TO.N,/SDA*%
X116184400Y-87549400D03*
%TO.P,U2,6,SCL*%
%TO.N,/SCL*%
X116184400Y-86279400D03*
%TO.P,U2,7,SQW/~INT*%
%TO.N,Net-(U2-SQW{slash}~INT)*%
X116184400Y-85009400D03*
%TO.P,U2,8,VCC*%
%TO.N,/Vcc*%
X116184400Y-83739400D03*
%TD*%
D10*
%TO.P,R7,1*%
%TO.N,Net-(D2-K)*%
X141751000Y-78278400D03*
%TO.P,R7,2*%
%TO.N,GND*%
X143576000Y-78278400D03*
%TD*%
D17*
%TO.P,J1,1,Pin_1*%
%TO.N,GND*%
X149326600Y-82448400D03*
D18*
%TO.P,J1,2,Pin_2*%
%TO.N,/Vcc*%
X149326600Y-84988400D03*
%TO.P,J1,3,Pin_3*%
%TO.N,/SDA*%
X149326600Y-87528400D03*
%TO.P,J1,4,Pin_4*%
%TO.N,/SCL*%
X149326600Y-90068400D03*
%TD*%
D17*
%TO.P,J2,1,Pin_1*%
%TO.N,/D2*%
X109778800Y-94869000D03*
D18*
%TO.P,J2,2,Pin_2*%
%TO.N,/D3*%
X112318800Y-94869000D03*
%TO.P,J2,3,Pin_3*%
%TO.N,/D4*%
X114858800Y-94869000D03*
%TO.P,J2,4,Pin_4*%
%TO.N,/D5*%
X117398800Y-94869000D03*
%TO.P,J2,5,Pin_5*%
%TO.N,/D6*%
X119938800Y-94869000D03*
%TO.P,J2,6,Pin_6*%
%TO.N,/D7*%
X122478800Y-94869000D03*
%TO.P,J2,7,Pin_7*%
%TO.N,/D8*%
X125018800Y-94869000D03*
%TO.P,J2,8,Pin_8*%
%TO.N,GND*%
X127558800Y-94869000D03*
%TO.P,J2,9,Pin_9*%
%TO.N,/Vcc*%
X130098800Y-94869000D03*
%TD*%
D17*
%TO.P,J3,1,Pin_1*%
%TO.N,GND*%
X136804400Y-94843600D03*
D18*
%TO.P,J3,2,Pin_2*%
%TO.N,/Vcc*%
X139344400Y-94843600D03*
%TO.P,J3,3,Pin_3*%
%TO.N,/RX*%
X141884400Y-94843600D03*
%TO.P,J3,4,Pin_4*%
%TO.N,/TX*%
X144424400Y-94843600D03*
%TD*%
D17*
%TO.P,J4,1,Pin_1*%
%TO.N,/MISO*%
X146939000Y-73685400D03*
D18*
%TO.P,J4,2,Pin_2*%
%TO.N,/Vcc*%
X149479000Y-73685400D03*
%TO.P,J4,3,Pin_3*%
%TO.N,/SCL*%
X146939000Y-76225400D03*
%TO.P,J4,4,Pin_4*%
%TO.N,/MOSI*%
X149479000Y-76225400D03*
%TO.P,J4,5,Pin_5*%
%TO.N,/RST*%
X146939000Y-78765400D03*
%TO.P,J4,6,Pin_6*%
%TO.N,GND*%
X149479000Y-78765400D03*
%TD*%
D15*
%TO.P,C1,1*%
%TO.N,/Vcc*%
X129675800Y-68677200D03*
%TO.P,C1,2*%
%TO.N,GND*%
X131575800Y-68677200D03*
%TD*%
D17*
%TO.P,BT1,1,+*%
%TO.N,/Vcc*%
X106197400Y-75407600D03*
D18*
%TO.P,BT1,2,-*%
%TO.N,GND*%
X106197400Y-77947600D03*
%TD*%
D10*
%TO.P,R1,1*%
%TO.N,/Vcc*%
X136164900Y-73604800D03*
%TO.P,R1,2*%
%TO.N,/SCL*%
X137989900Y-73604800D03*
%TD*%
D15*
%TO.P,C4,1*%
%TO.N,GND*%
X125230800Y-68728000D03*
%TO.P,C4,2*%
%TO.N,Net-(U4-AREF)*%
X127130800Y-68728000D03*
%TD*%
D19*
%TO.P,Y1,1,1*%
%TO.N,Net-(U2-X2)*%
X105867200Y-89188600D03*
%TO.P,Y1,2,2*%
%TO.N,Net-(U2-X1)*%
X105867200Y-83988600D03*
%TD*%
D10*
%TO.P,R2,1*%
%TO.N,/Vcc*%
X141751000Y-73528600D03*
%TO.P,R2,2*%
%TO.N,/SDA*%
X143576000Y-73528600D03*
%TD*%
D20*
%TO.P,D1,1,K*%
%TO.N,GND*%
X141746000Y-69032800D03*
%TO.P,D1,2,A*%
%TO.N,Net-(D1-A)*%
X143621000Y-69032800D03*
%TD*%
D10*
%TO.P,R6,1*%
%TO.N,/RST*%
X136164900Y-78278400D03*
%TO.P,R6,2*%
%TO.N,/Vcc*%
X137989900Y-78278400D03*
%TD*%
D15*
%TO.P,C2,1*%
%TO.N,GND*%
X136127400Y-85542800D03*
%TO.P,C2,2*%
%TO.N,Net-(U4-PB6)*%
X138027400Y-85542800D03*
%TD*%
D11*
%TO.P,U1,1,A0*%
%TO.N,/Vcc*%
X111223200Y-76297200D03*
%TO.P,U1,2,A1*%
X111223200Y-77567200D03*
%TO.P,U1,3,A2*%
X111223200Y-78837200D03*
%TO.P,U1,4,GND*%
%TO.N,GND*%
X111223200Y-80107200D03*
%TO.P,U1,5,SDA*%
%TO.N,/SDA*%
X116173200Y-80107200D03*
%TO.P,U1,6,SCL*%
%TO.N,/SCL*%
X116173200Y-78837200D03*
%TO.P,U1,7,WP*%
%TO.N,GND*%
X116173200Y-77567200D03*
%TO.P,U1,8,VCC*%
%TO.N,/Vcc*%
X116173200Y-76297200D03*
%TD*%
D20*
%TO.P,D2,1,K*%
%TO.N,Net-(D2-K)*%
X136159900Y-69032800D03*
%TO.P,D2,2,A*%
%TO.N,/Vcc*%
X138034900Y-69032800D03*
%TD*%
D10*
%TO.P,R5,1*%
%TO.N,Net-(D1-A)*%
X136164900Y-81885200D03*
%TO.P,R5,2*%
%TO.N,/SCL*%
X137989900Y-81885200D03*
%TD*%
D15*
%TO.P,C5,1*%
%TO.N,/Vcc*%
X120633400Y-68677200D03*
%TO.P,C5,2*%
%TO.N,GND*%
X122533400Y-68677200D03*
%TD*%
D21*
%TO.N,GND*%
X114376200Y-76098400D03*
X113004600Y-78562200D03*
X140614400Y-83134200D03*
X140995400Y-77012800D03*
X141198600Y-91186000D03*
X117703600Y-77597000D03*
X143916400Y-79705200D03*
X137414000Y-96843100D03*
X140690600Y-70662800D03*
X107569000Y-81000600D03*
X112953800Y-86918800D03*
X118414800Y-69088000D03*
X119278400Y-79273400D03*
X123344309Y-66886409D03*
%TO.N,/Vcc*%
X145161000Y-68935600D03*
X120827800Y-88315800D03*
X108889800Y-73609200D03*
X111074200Y-74879200D03*
X119380000Y-66903600D03*
X114858800Y-73812400D03*
X137261600Y-70967600D03*
X122453400Y-72444100D03*
X138709400Y-70485000D03*
X118592600Y-92354400D03*
X133096000Y-78790800D03*
X134899400Y-70561200D03*
X120815700Y-76987400D03*
X134856993Y-97332800D03*
%TO.N,Net-(U4-PB7)*%
X122377200Y-81991200D03*
X120726200Y-83820000D03*
%TO.N,Net-(U4-AREF)*%
X133629400Y-73152000D03*
X133121400Y-76708000D03*
%TO.N,Net-(D1-A)*%
X134721600Y-81330800D03*
X140182600Y-74041000D03*
%TO.N,/SDA*%
X117906800Y-87782400D03*
X116535200Y-81457800D03*
X127838200Y-71856600D03*
X122144250Y-70733400D03*
X143840200Y-75234800D03*
%TO.N,/SCL*%
X114350800Y-82016600D03*
X119888000Y-71457900D03*
X114579400Y-86918800D03*
X132334000Y-70561200D03*
X126796800Y-71729600D03*
X128320800Y-75158600D03*
%TO.N,/D2*%
X119913400Y-74498200D03*
%TO.N,/D3*%
X119112700Y-86410800D03*
%TO.N,/D4*%
X124150901Y-75840101D03*
%TO.N,/D5*%
X123367800Y-83997800D03*
%TO.N,/D6*%
X124434600Y-83870800D03*
%TO.N,/D7*%
X125526800Y-83947000D03*
%TO.N,/D8*%
X126542800Y-83997800D03*
%TO.N,/RX*%
X126441200Y-75742800D03*
%TO.N,/TX*%
X125298200Y-75717400D03*
%TO.N,/MISO*%
X138480800Y-83464400D03*
X145821400Y-71221600D03*
%TO.N,/MOSI*%
X143992600Y-82651600D03*
X130657600Y-83972400D03*
%TD*%
D22*
%TO.N,GND*%
X111223200Y-80107200D02*
X111741373Y-80107200D01*
X142259600Y-76962000D02*
X141020800Y-76962000D01*
X135204200Y-96443800D02*
X136804400Y-94843600D01*
X122533400Y-68677200D02*
X125180000Y-68677200D01*
X126431600Y-67527200D02*
X130425800Y-67527200D01*
X149479000Y-78765400D02*
X150754000Y-77490400D01*
X140614400Y-84635394D02*
X138556994Y-86692800D01*
X125230800Y-68728000D02*
X126431600Y-67527200D01*
X122468000Y-76138600D02*
X120497773Y-76138600D01*
X115655027Y-77567200D02*
X114376200Y-76288373D01*
X133374800Y-66878200D02*
X139591400Y-66878200D01*
X140690600Y-70088200D02*
X141746000Y-69032800D01*
X140690600Y-70662800D02*
X140690600Y-70088200D01*
X143576000Y-79212400D02*
X143992600Y-79629000D01*
X128382400Y-77738600D02*
X129182400Y-76938600D01*
X123344309Y-66886409D02*
X123344309Y-67866291D01*
X119990700Y-77699700D02*
X120630414Y-78339414D01*
X142935400Y-67843400D02*
X141746000Y-69032800D01*
X111223200Y-72921800D02*
X106197400Y-77947600D01*
X123344309Y-67866291D02*
X122533400Y-68677200D01*
X117860400Y-69642400D02*
X118414800Y-69088000D01*
X106197400Y-77947600D02*
X106197400Y-79476600D01*
X111741373Y-80107200D02*
X113004600Y-78843973D01*
X139700000Y-88061800D02*
X141198600Y-89560400D01*
X112903000Y-87096600D02*
X112450200Y-87549400D01*
X138556994Y-86692800D02*
X137277400Y-86692800D01*
X130425800Y-67527200D02*
X131575800Y-68677200D01*
X114376200Y-76288373D02*
X114376200Y-76098400D01*
X110705027Y-69642400D02*
X109804200Y-70543227D01*
X150007123Y-72410400D02*
X149448600Y-72410400D01*
X121231227Y-77738600D02*
X122468000Y-77738600D01*
X113004600Y-78843973D02*
X113004600Y-78562200D01*
X122468000Y-77738600D02*
X128382400Y-77738600D01*
X116173200Y-77567200D02*
X115655027Y-77567200D01*
X120497773Y-76138600D02*
X119990700Y-76645673D01*
X120630414Y-78339414D02*
X121231227Y-77738600D01*
X129133600Y-96443800D02*
X135204200Y-96443800D01*
X150754000Y-73157277D02*
X150007123Y-72410400D01*
X116173200Y-69642400D02*
X117860400Y-69642400D01*
X116173200Y-69642400D02*
X114281373Y-69642400D01*
X145235527Y-67843400D02*
X142935400Y-67843400D01*
X107721400Y-81000600D02*
X107569000Y-80848200D01*
X145986000Y-68593873D02*
X145235527Y-67843400D01*
X137414000Y-95453200D02*
X136804400Y-94843600D01*
X137277400Y-86692800D02*
X136127400Y-85542800D01*
X143576000Y-78278400D02*
X142259600Y-76962000D01*
X137774000Y-88061800D02*
X139700000Y-88061800D01*
X116173200Y-77567200D02*
X117673800Y-77567200D01*
X119990700Y-76645673D02*
X119990700Y-77699700D01*
X149448600Y-72410400D02*
X145986000Y-68947800D01*
X119696427Y-79273400D02*
X120630414Y-78339414D01*
X107569000Y-80848200D02*
X107569000Y-81000600D01*
X141198600Y-89560400D02*
X141198600Y-91186000D01*
X150754000Y-77490400D02*
X150754000Y-73157277D01*
X127558800Y-94869000D02*
X129133600Y-96443800D01*
X110705027Y-72182400D02*
X111223200Y-72182400D01*
X131575800Y-68677200D02*
X133374800Y-66878200D01*
X111741373Y-72182400D02*
X111223200Y-72182400D01*
X114281373Y-69642400D02*
X111741373Y-72182400D01*
X107569000Y-81000600D02*
X107721400Y-81000600D01*
X111223200Y-80107200D02*
X108357000Y-80107200D01*
X111223200Y-69642400D02*
X110705027Y-69642400D01*
X129182400Y-76938600D02*
X130808000Y-76938600D01*
X112450200Y-87549400D02*
X111234400Y-87549400D01*
X137414000Y-96843100D02*
X137414000Y-95453200D01*
X109804200Y-70543227D02*
X109804200Y-71281573D01*
X136127400Y-89708400D02*
X136127400Y-85542800D01*
X109804200Y-71281573D02*
X110705027Y-72182400D01*
X139591400Y-66878200D02*
X141746000Y-69032800D01*
X125180000Y-68677200D02*
X125230800Y-68728000D01*
X143576000Y-78278400D02*
X143576000Y-79212400D01*
X108357000Y-80107200D02*
X106197400Y-77947600D01*
X149326600Y-82448400D02*
X149326600Y-78917800D01*
X111223200Y-72182400D02*
X111223200Y-72921800D01*
X119278400Y-79273400D02*
X119696427Y-79273400D01*
X136127400Y-89708400D02*
X137774000Y-88061800D01*
X141020800Y-76962000D02*
X140970000Y-77012800D01*
X106197400Y-79476600D02*
X107569000Y-80848200D01*
X117673800Y-77567200D02*
X117703600Y-77597000D01*
X140614400Y-83134200D02*
X140614400Y-84635394D01*
X145986000Y-68947800D02*
X145986000Y-68593873D01*
%TO.N,/Vcc*%
X114752700Y-90622800D02*
X114910606Y-90622800D01*
X119832200Y-93594000D02*
X118592600Y-92354400D01*
D23*
X130808000Y-79338600D02*
X132573600Y-79338600D01*
D22*
X131990600Y-71386200D02*
X129675800Y-69071400D01*
X109707000Y-76297200D02*
X111223200Y-76297200D01*
X116173200Y-75126800D02*
X114858800Y-73812400D01*
X117594400Y-86059227D02*
X117594400Y-84562552D01*
X111223200Y-68372400D02*
X110705027Y-68372400D01*
X113838760Y-79429840D02*
X113838760Y-78229633D01*
X113475300Y-91900200D02*
X114752700Y-90622800D01*
X120827800Y-88315800D02*
X119850973Y-88315800D01*
X129675800Y-69071400D02*
X129675800Y-68677200D01*
D23*
X122453400Y-72444100D02*
X123127600Y-71769900D01*
X137261600Y-69806100D02*
X138034900Y-69032800D01*
D22*
X134899400Y-70561200D02*
X134823200Y-70840600D01*
X117594400Y-84562552D02*
X116771248Y-83739400D01*
X114249200Y-68372400D02*
X111223200Y-68372400D01*
X146163127Y-70295000D02*
X144984600Y-70295000D01*
D23*
X138709400Y-69707300D02*
X138034900Y-69032800D01*
D22*
X145161000Y-68935600D02*
X145161000Y-69138555D01*
X111074200Y-76148200D02*
X111223200Y-76297200D01*
X151765000Y-91795600D02*
X151765000Y-87426800D01*
X116173200Y-76297200D02*
X116173200Y-75126800D01*
X116173200Y-68372400D02*
X114249200Y-68372400D01*
X113176327Y-77567200D02*
X111223200Y-77567200D01*
X136762373Y-97358200D02*
X137072273Y-97668100D01*
X137916900Y-97668100D02*
X139344400Y-96240600D01*
D23*
X122468000Y-76938600D02*
X120864500Y-76938600D01*
D22*
X108051600Y-73553400D02*
X108051600Y-69138800D01*
X133946300Y-71386200D02*
X131990600Y-71386200D01*
X116642206Y-92354400D02*
X118592600Y-92354400D01*
X114906873Y-83739400D02*
X113525800Y-82358327D01*
X111223200Y-77567200D02*
X109503800Y-77567200D01*
D23*
X132573600Y-79338600D02*
X133096000Y-78816200D01*
D22*
X144984600Y-70295000D02*
X141751000Y-73528600D01*
X134946893Y-97358200D02*
X136762373Y-97358200D01*
X111559700Y-91900200D02*
X113475300Y-91900200D01*
X113838760Y-78229633D02*
X113176327Y-77567200D01*
X110434700Y-90775200D02*
X111559700Y-91900200D01*
X128823800Y-93594000D02*
X119832200Y-93594000D01*
X114249200Y-68427600D02*
X114249200Y-68372400D01*
X134823200Y-71043800D02*
X134899400Y-70561200D01*
X110705027Y-68372400D02*
X108788200Y-70289227D01*
X111223200Y-78837200D02*
X111066400Y-78994000D01*
X136164900Y-73604800D02*
X136164900Y-72385500D01*
X108635800Y-77368400D02*
X109707000Y-76297200D01*
D23*
X123127600Y-70201395D02*
X122703405Y-69777200D01*
D22*
X119850973Y-88315800D02*
X117594400Y-86059227D01*
X139344400Y-96240600D02*
X139344400Y-94843600D01*
X149672617Y-92227400D02*
X151333200Y-92227400D01*
D23*
X122703405Y-69777200D02*
X121733400Y-69777200D01*
D22*
X111074200Y-74879200D02*
X111074200Y-76148200D01*
X114910606Y-90622800D02*
X116642206Y-92354400D01*
D23*
X138709400Y-70485000D02*
X138709400Y-69707300D01*
D22*
X108818000Y-68372400D02*
X111223200Y-68372400D01*
X136164900Y-76453400D02*
X136164900Y-73604800D01*
X137989900Y-78278400D02*
X136164900Y-76453400D01*
X111066400Y-78994000D02*
X109194600Y-78994000D01*
D23*
X121733400Y-69777200D02*
X120633400Y-68677200D01*
D22*
X149479000Y-73610873D02*
X146163127Y-70295000D01*
X136164900Y-73604800D02*
X133946300Y-71386200D01*
X108051600Y-69138800D02*
X108818000Y-68372400D01*
D23*
X120633400Y-67547400D02*
X119380000Y-66903600D01*
D22*
X106197400Y-75407600D02*
X108051600Y-73553400D01*
D23*
X120633400Y-68677200D02*
X120633400Y-67547400D01*
D22*
X141751000Y-72548555D02*
X141751000Y-73528600D01*
X151333200Y-92227400D02*
X151765000Y-91795600D01*
X116771248Y-83739400D02*
X116184400Y-83739400D01*
X111223200Y-70912400D02*
X111764400Y-70912400D01*
X109503800Y-77567200D02*
X108635800Y-78435200D01*
X130098800Y-94869000D02*
X128823800Y-93594000D01*
X137072273Y-97668100D02*
X137916900Y-97668100D01*
X113525800Y-79742800D02*
X113838760Y-79429840D01*
X136164900Y-72385500D02*
X134823200Y-71043800D01*
X145161000Y-69138555D02*
X141751000Y-72548555D01*
X113525800Y-82358327D02*
X113525800Y-79742800D01*
X141664600Y-92523400D02*
X149376617Y-92523400D01*
D23*
X123127600Y-71769900D02*
X123127600Y-70201395D01*
D22*
X116184400Y-83739400D02*
X114906873Y-83739400D01*
X139344400Y-94843600D02*
X141664600Y-92523400D01*
X108635800Y-78435200D02*
X108635800Y-77368400D01*
X111764400Y-70912400D02*
X114249200Y-68427600D01*
X149376617Y-92523400D02*
X149672617Y-92227400D01*
X151765000Y-87426800D02*
X149326600Y-84988400D01*
X149479000Y-73685400D02*
X149479000Y-73610873D01*
X109194600Y-78994000D02*
X108635800Y-78435200D01*
X108788200Y-70289227D02*
X108889800Y-73609200D01*
X108889800Y-73609200D02*
X108788200Y-73380600D01*
D23*
X137261600Y-70967600D02*
X137261600Y-69806100D01*
%TO.N,Net-(U4-PB6)*%
X121820933Y-79338600D02*
X122468000Y-79338600D01*
X133364600Y-84124800D02*
X129127200Y-88362200D01*
X136609400Y-84124800D02*
X133364600Y-84124800D01*
X120980200Y-80179333D02*
X121820933Y-79338600D01*
X126002200Y-88080000D02*
X126002200Y-86837200D01*
X121451200Y-83519695D02*
X121026505Y-83095000D01*
X120980200Y-83058000D02*
X120980200Y-80179333D01*
X138027400Y-85542800D02*
X136609400Y-84124800D01*
X126284400Y-88362200D02*
X126002200Y-88080000D01*
X124759400Y-86837200D02*
X121451200Y-83529000D01*
X129127200Y-88362200D02*
X126284400Y-88362200D01*
X121451200Y-83529000D02*
X121451200Y-83519695D01*
X121026505Y-83095000D02*
X121017200Y-83095000D01*
X126002200Y-86837200D02*
X124759400Y-86837200D01*
X121017200Y-83095000D02*
X120980200Y-83058000D01*
%TO.N,Net-(U4-PB7)*%
X127088400Y-91523400D02*
X123927200Y-88362200D01*
X136212400Y-91523400D02*
X127088400Y-91523400D01*
X123927200Y-88362200D02*
X120726200Y-85161200D01*
X122377200Y-81965800D02*
X122377200Y-80229400D01*
X122377200Y-80229400D02*
X122468000Y-80138600D01*
X138027400Y-89708400D02*
X136212400Y-91523400D01*
X120726200Y-85161200D02*
X120726200Y-83820000D01*
%TO.N,Net-(U4-AREF)*%
X133426200Y-73177400D02*
X133400800Y-73177400D01*
X129565400Y-70281800D02*
X132461000Y-73177400D01*
X132461000Y-73177400D02*
X133375400Y-73177400D01*
X133375400Y-73177400D02*
X133629400Y-73152000D01*
X132090800Y-77738600D02*
X130808000Y-77738600D01*
X133121400Y-76708000D02*
X132090800Y-77738600D01*
X128684600Y-70281800D02*
X129565400Y-70281800D01*
X133629400Y-73152000D02*
X133426200Y-73177400D01*
X127130800Y-68728000D02*
X128684600Y-70281800D01*
%TO.N,Net-(D1-A)*%
X143621000Y-69032800D02*
X140208000Y-72445800D01*
X134721600Y-81330800D02*
X135610500Y-81330800D01*
X140208000Y-72445800D02*
X140208000Y-74015600D01*
X135610500Y-81330800D02*
X136164900Y-81885200D01*
%TO.N,Net-(D2-K)*%
X137109200Y-74370483D02*
X137109200Y-72161400D01*
X137109200Y-72161400D02*
X136159900Y-71212100D01*
X141017117Y-78278400D02*
X137109200Y-74370483D01*
X136159900Y-71212100D02*
X136159900Y-69032800D01*
X141751000Y-78278400D02*
X141017117Y-78278400D01*
%TO.N,/SDA*%
X116173200Y-80107200D02*
X116549951Y-80107200D01*
X127838000Y-71856800D02*
X127838200Y-71856600D01*
X149326600Y-87528400D02*
X149656800Y-87528400D01*
X149148800Y-91973400D02*
X120608400Y-91973400D01*
X117015226Y-87934800D02*
X117906800Y-87782400D01*
X116535200Y-80469200D02*
X116173200Y-80107200D01*
X116549951Y-80107200D02*
X118719600Y-77937551D01*
X116535200Y-81457800D02*
X116535200Y-80469200D01*
X150501600Y-90620600D02*
X149148800Y-91973400D01*
X149656800Y-87528400D02*
X150501600Y-88373200D01*
X116228400Y-72237600D02*
X116173200Y-72182400D01*
X118719600Y-74728800D02*
X116173200Y-72182400D01*
X116184400Y-87549400D02*
X116629826Y-87549400D01*
X120640050Y-72237600D02*
X116228400Y-72237600D01*
X143576000Y-73528600D02*
X143576000Y-74818200D01*
X122144250Y-70733400D02*
X120640050Y-72237600D01*
X118719600Y-77937551D02*
X118719600Y-74728800D01*
X116629826Y-87549400D02*
X117015226Y-87934800D01*
X143576000Y-74818200D02*
X143865600Y-75234800D01*
X120608400Y-91973400D02*
X116184400Y-87549400D01*
X127838000Y-73168600D02*
X127838000Y-71856800D01*
X150501600Y-88373200D02*
X150501600Y-90620600D01*
%TO.N,/SCL*%
X138552600Y-73604800D02*
X137989900Y-73604800D01*
X137989900Y-81885200D02*
X140461416Y-81885200D01*
X139039600Y-67487800D02*
X135382000Y-67487800D01*
X146939000Y-76225400D02*
X141173200Y-76225400D01*
X128320800Y-75158600D02*
X127038000Y-73875800D01*
X115725738Y-78837200D02*
X116173200Y-78837200D01*
X137989900Y-73604800D02*
X139852400Y-71742300D01*
X139852400Y-71742300D02*
X139852400Y-68300600D01*
X115796449Y-78837200D02*
X116173200Y-78837200D01*
X116173200Y-70912400D02*
X115796449Y-70912400D01*
X113563400Y-73145449D02*
X113563400Y-76674862D01*
X132308600Y-70561200D02*
X132334000Y-70535800D01*
X137989900Y-81885200D02*
X136243300Y-80138600D01*
X143281400Y-90068400D02*
X149326600Y-90068400D01*
X139852400Y-68300600D02*
X139039600Y-67487800D01*
X141389400Y-88176400D02*
X143281400Y-90068400D01*
X141173200Y-76225400D02*
X138552600Y-73604800D01*
X132334000Y-70535800D02*
X132334000Y-70561200D01*
X136243300Y-80138600D02*
X130808000Y-80138600D01*
X140461416Y-81885200D02*
X141389400Y-82813184D01*
X135382000Y-67487800D02*
X132334000Y-70535800D01*
X127038000Y-73168600D02*
X127038000Y-72097800D01*
X114350800Y-82016600D02*
X114350800Y-80282849D01*
X126796800Y-71856600D02*
X126796800Y-71729600D01*
X126796800Y-71729600D02*
X126669800Y-71729600D01*
X126669800Y-71729600D02*
X126771400Y-71831200D01*
X115796449Y-70912400D02*
X113563400Y-73145449D01*
X113563400Y-76674862D02*
X115725738Y-78837200D01*
X115218800Y-86279400D02*
X114579400Y-86918800D01*
X116184400Y-86279400D02*
X115218800Y-86279400D01*
X119888000Y-71457900D02*
X116718700Y-71457900D01*
X116718700Y-71457900D02*
X116173200Y-70912400D01*
X141389400Y-82813184D02*
X141389400Y-88176400D01*
X132334000Y-70561200D02*
X132308600Y-70561200D01*
X114350800Y-80282849D02*
X115796449Y-78837200D01*
X127038000Y-72097800D02*
X126796800Y-71856600D01*
%TO.N,/D2*%
X119913400Y-74498200D02*
X120954800Y-73456800D01*
X120954800Y-73456800D02*
X123549800Y-73456800D01*
X123549800Y-73456800D02*
X123838000Y-73168600D01*
%TO.N,/D3*%
X119347400Y-86176100D02*
X119347400Y-82645004D01*
X120939800Y-74538600D02*
X122468000Y-74538600D01*
X118440200Y-78853347D02*
X119169600Y-78123947D01*
X119347400Y-82645004D02*
X118440200Y-81737804D01*
X119169600Y-78123947D02*
X119169600Y-76308800D01*
X119169600Y-76308800D02*
X120939800Y-74538600D01*
X118440200Y-81737804D02*
X118440200Y-78853347D01*
%TO.N,/D4*%
X124150901Y-75840101D02*
X123719101Y-75840101D01*
X123217600Y-75338600D02*
X122468000Y-75338600D01*
X123719101Y-75840101D02*
X123217600Y-75338600D01*
%TO.N,/D5*%
X123367800Y-83997800D02*
X123367800Y-81978800D01*
X123367800Y-81978800D02*
X123838000Y-81508600D01*
%TO.N,/D6*%
X124638000Y-83667400D02*
X124638000Y-81508600D01*
X124434600Y-83870800D02*
X124638000Y-83667400D01*
%TO.N,/D7*%
X125526800Y-81597400D02*
X125438000Y-81508600D01*
X125526800Y-83947000D02*
X125526800Y-81597400D01*
%TO.N,/D8*%
X126542800Y-83997800D02*
X126238000Y-83693000D01*
X126238000Y-83693000D02*
X126238000Y-81508600D01*
%TO.N,/RX*%
X126441200Y-75742800D02*
X125436800Y-74738400D01*
X125436800Y-74738400D02*
X125436800Y-73169800D01*
X125436800Y-73169800D02*
X125438000Y-73168600D01*
%TO.N,/TX*%
X125298200Y-75717400D02*
X124638000Y-75057200D01*
X124638000Y-75057200D02*
X124638000Y-73168600D01*
%TO.N,/MISO*%
X138404600Y-83489800D02*
X131444600Y-83515200D01*
X146939000Y-73685400D02*
X146939000Y-72110600D01*
X131444600Y-83515200D02*
X129438000Y-81508600D01*
X146939000Y-72110600D02*
X145821400Y-71120000D01*
%TO.N,/MOSI*%
X148254000Y-77450400D02*
X148254000Y-79177600D01*
X128638000Y-82120227D02*
X128638000Y-81508600D01*
X144881600Y-82550000D02*
X144043400Y-82499200D01*
X149479000Y-76225400D02*
X148254000Y-77450400D01*
X130657600Y-83972400D02*
X130657600Y-84139827D01*
X130490173Y-83972400D02*
X130657600Y-83972400D01*
X130540973Y-84023200D02*
X130490173Y-83972400D01*
X148254000Y-79177600D02*
X144881600Y-82550000D01*
X130657600Y-84139827D02*
X128638000Y-82120227D01*
%TO.N,/RST*%
X129050200Y-70731800D02*
X136164900Y-77846500D01*
X125806200Y-72125173D02*
X125806200Y-71450200D01*
X126238000Y-72556973D02*
X125806200Y-72125173D01*
X146939000Y-78765400D02*
X145186400Y-80518000D01*
X136164900Y-77846500D02*
X136164900Y-78278400D01*
X126524600Y-70731800D02*
X129050200Y-70731800D01*
X125806200Y-71450200D02*
X126524600Y-70731800D01*
X126238000Y-73168600D02*
X126238000Y-72556973D01*
X145186400Y-80518000D02*
X138404500Y-80518000D01*
X138404500Y-80518000D02*
X136164900Y-78278400D01*
%TO.N,Net-(U2-~{INTA})*%
X109626400Y-87371263D02*
X110718263Y-86279400D01*
X109626400Y-88516968D02*
X109626400Y-87371263D01*
X110718263Y-86279400D02*
X111234400Y-86279400D01*
X111184700Y-89700200D02*
X110809632Y-89700200D01*
X112259700Y-90775200D02*
X111184700Y-89700200D01*
X110809632Y-89700200D02*
X109626400Y-88516968D01*
%TO.N,Net-(U2-SQW{slash}~INT)*%
X116556200Y-90622800D02*
X113741200Y-87807800D01*
X116577700Y-90622800D02*
X116556200Y-90622800D01*
X113741200Y-86182200D02*
X114914000Y-85009400D01*
X114914000Y-85009400D02*
X116184400Y-85009400D01*
X113741200Y-87807800D02*
X113741200Y-86182200D01*
%TO.N,Net-(U2-X1)*%
X110985200Y-83988600D02*
X111234400Y-83739400D01*
X105867200Y-83988600D02*
X110985200Y-83988600D01*
%TO.N,Net-(U2-X2)*%
X105867200Y-89188600D02*
X106609774Y-89188600D01*
X106609774Y-89188600D02*
X110788974Y-85009400D01*
X110788974Y-85009400D02*
X111234400Y-85009400D01*
%TD*%
%TA.AperFunction,Conductor*%
%TO.N,/Vcc*%
G36*
X122473126Y-66357848D02*
G01*
X122518969Y-66410575D01*
X122529028Y-66479717D01*
X122519540Y-66512712D01*
X122517129Y-66518126D01*
X122516483Y-66520115D01*
X122458635Y-66698153D01*
X122438849Y-66886409D01*
X122458635Y-67074665D01*
X122458636Y-67074668D01*
X122517127Y-67254686D01*
X122517129Y-67254690D01*
X122517130Y-67254693D01*
X122523486Y-67265702D01*
X122539957Y-67333601D01*
X122517105Y-67399628D01*
X122462183Y-67442818D01*
X122416099Y-67451700D01*
X122233399Y-67451700D01*
X122233380Y-67451701D01*
X122130603Y-67462200D01*
X122130600Y-67462201D01*
X121964068Y-67517385D01*
X121964063Y-67517387D01*
X121814742Y-67609489D01*
X121690688Y-67733543D01*
X121690683Y-67733549D01*
X121688641Y-67736861D01*
X121686647Y-67738653D01*
X121686207Y-67739211D01*
X121686111Y-67739135D01*
X121636691Y-67783583D01*
X121567728Y-67794802D01*
X121503647Y-67766955D01*
X121477568Y-67736856D01*
X121475719Y-67733859D01*
X121475716Y-67733855D01*
X121351745Y-67609884D01*
X121202524Y-67517843D01*
X121202519Y-67517841D01*
X121036097Y-67462694D01*
X121036090Y-67462693D01*
X120933386Y-67452200D01*
X120883400Y-67452200D01*
X120883400Y-69902199D01*
X120933372Y-69902199D01*
X120933386Y-69902198D01*
X121036097Y-69891705D01*
X121202519Y-69836558D01*
X121202524Y-69836556D01*
X121351745Y-69744515D01*
X121475718Y-69620542D01*
X121477565Y-69617548D01*
X121479369Y-69615924D01*
X121480198Y-69614877D01*
X121480376Y-69615018D01*
X121529510Y-69570821D01*
X121598473Y-69559596D01*
X121662556Y-69587436D01*
X121688643Y-69617541D01*
X121690688Y-69620856D01*
X121690689Y-69620857D01*
X121790592Y-69720760D01*
X121824077Y-69782083D01*
X121819093Y-69851775D01*
X121777221Y-69907708D01*
X121753349Y-69921719D01*
X121691522Y-69949247D01*
X121691515Y-69949251D01*
X121538379Y-70060511D01*
X121411716Y-70201185D01*
X121317071Y-70365115D01*
X121317068Y-70365122D01*
X121258577Y-70545140D01*
X121258576Y-70545144D01*
X121242647Y-70696706D01*
X121240929Y-70713049D01*
X121214344Y-70777663D01*
X121205289Y-70787768D01*
X120898356Y-71094701D01*
X120837033Y-71128186D01*
X120767341Y-71123202D01*
X120711408Y-71081330D01*
X120703288Y-71069020D01*
X120684062Y-71035719D01*
X120620533Y-70925684D01*
X120493871Y-70785012D01*
X120493870Y-70785011D01*
X120340734Y-70673751D01*
X120340729Y-70673748D01*
X120167807Y-70596757D01*
X120167802Y-70596755D01*
X120003158Y-70561760D01*
X119982646Y-70557400D01*
X119793354Y-70557400D01*
X119772842Y-70561760D01*
X119608197Y-70596755D01*
X119608192Y-70596757D01*
X119435270Y-70673748D01*
X119435265Y-70673751D01*
X119282130Y-70785010D01*
X119282126Y-70785014D01*
X119276400Y-70791374D01*
X119216913Y-70828021D01*
X119184252Y-70832400D01*
X117772700Y-70832400D01*
X117705661Y-70812715D01*
X117659906Y-70759911D01*
X117648700Y-70708400D01*
X117648700Y-70696713D01*
X117648699Y-70696698D01*
X117648123Y-70689384D01*
X117645798Y-70659831D01*
X117617305Y-70561760D01*
X117599945Y-70502006D01*
X117599944Y-70502002D01*
X117599941Y-70501997D01*
X117596847Y-70494846D01*
X117598920Y-70493948D01*
X117584546Y-70437302D01*
X117606703Y-70371039D01*
X117661167Y-70327273D01*
X117708461Y-70317900D01*
X117838122Y-70317900D01*
X117841866Y-70318013D01*
X117901482Y-70321619D01*
X117901482Y-70321618D01*
X117901485Y-70321619D01*
X117937727Y-70314977D01*
X117960236Y-70310853D01*
X117963940Y-70310289D01*
X117985288Y-70307696D01*
X118023245Y-70303088D01*
X118032005Y-70299765D01*
X118053621Y-70293738D01*
X118062839Y-70292050D01*
X118106929Y-70272207D01*
X118117316Y-70267532D01*
X118120758Y-70266105D01*
X118176626Y-70244918D01*
X118184333Y-70239597D01*
X118203880Y-70228572D01*
X118212428Y-70224726D01*
X118259466Y-70187872D01*
X118262459Y-70185669D01*
X118311629Y-70151732D01*
X118351259Y-70106997D01*
X118353778Y-70104321D01*
X118433873Y-70024227D01*
X118495196Y-69990744D01*
X118508592Y-69988589D01*
X118509432Y-69988500D01*
X118509446Y-69988500D01*
X118694603Y-69949144D01*
X118867530Y-69872151D01*
X119020671Y-69760888D01*
X119147333Y-69620216D01*
X119241979Y-69456284D01*
X119300474Y-69276256D01*
X119320260Y-69088000D01*
X119303360Y-68927200D01*
X119633401Y-68927200D01*
X119633401Y-69202186D01*
X119643894Y-69304897D01*
X119699041Y-69471319D01*
X119699043Y-69471324D01*
X119791084Y-69620545D01*
X119915054Y-69744515D01*
X120064275Y-69836556D01*
X120064280Y-69836558D01*
X120230702Y-69891705D01*
X120230709Y-69891706D01*
X120333419Y-69902199D01*
X120383399Y-69902198D01*
X120383400Y-69902198D01*
X120383400Y-68927200D01*
X119633401Y-68927200D01*
X119303360Y-68927200D01*
X119300474Y-68899744D01*
X119241979Y-68719716D01*
X119147333Y-68555784D01*
X119031555Y-68427200D01*
X119633400Y-68427200D01*
X120383400Y-68427200D01*
X120383400Y-67452200D01*
X120383399Y-67452199D01*
X120333429Y-67452200D01*
X120333411Y-67452201D01*
X120230702Y-67462694D01*
X120064280Y-67517841D01*
X120064275Y-67517843D01*
X119915054Y-67609884D01*
X119791084Y-67733854D01*
X119699043Y-67883075D01*
X119699041Y-67883080D01*
X119643894Y-68049502D01*
X119643893Y-68049509D01*
X119633400Y-68152213D01*
X119633400Y-68427200D01*
X119031555Y-68427200D01*
X119020671Y-68415112D01*
X118988080Y-68391433D01*
X118867534Y-68303851D01*
X118867529Y-68303848D01*
X118694607Y-68226857D01*
X118694602Y-68226855D01*
X118548800Y-68195865D01*
X118509446Y-68187500D01*
X118320154Y-68187500D01*
X118292660Y-68193344D01*
X118134997Y-68226855D01*
X118134992Y-68226857D01*
X117962070Y-68303848D01*
X117962065Y-68303851D01*
X117808929Y-68415111D01*
X117682267Y-68555783D01*
X117679604Y-68560397D01*
X117629038Y-68608614D01*
X117572215Y-68622400D01*
X114700905Y-68622400D01*
X114700904Y-68622401D01*
X114701099Y-68624886D01*
X114746919Y-68782600D01*
X114750015Y-68789754D01*
X114748002Y-68790624D01*
X114762433Y-68847505D01*
X114740273Y-68913767D01*
X114685806Y-68957529D01*
X114638519Y-68966900D01*
X114303645Y-68966900D01*
X114299900Y-68966787D01*
X114240290Y-68963181D01*
X114240282Y-68963181D01*
X114181544Y-68973945D01*
X114177843Y-68974508D01*
X114118526Y-68981712D01*
X114109748Y-68985040D01*
X114088156Y-68991059D01*
X114078935Y-68992749D01*
X114024463Y-69017264D01*
X114021005Y-69018696D01*
X113965145Y-69039882D01*
X113965142Y-69039884D01*
X113957424Y-69045211D01*
X113937887Y-69056230D01*
X113929346Y-69060074D01*
X113929341Y-69060077D01*
X113882319Y-69096915D01*
X113879304Y-69099133D01*
X113830150Y-69133062D01*
X113830142Y-69133069D01*
X113790545Y-69177764D01*
X113787978Y-69180491D01*
X112882624Y-70085845D01*
X112821301Y-70119330D01*
X112751609Y-70114346D01*
X112695676Y-70072474D01*
X112671259Y-70007010D01*
X112675866Y-69963573D01*
X112695798Y-69894969D01*
X112698700Y-69858094D01*
X112698700Y-69426706D01*
X112695798Y-69389831D01*
X112693014Y-69380250D01*
X112649945Y-69232006D01*
X112649944Y-69232003D01*
X112649944Y-69232002D01*
X112566281Y-69090535D01*
X112566278Y-69090532D01*
X112561498Y-69084369D01*
X112563835Y-69082555D01*
X112536998Y-69033450D01*
X112541956Y-68963756D01*
X112562754Y-68931398D01*
X112561103Y-68930117D01*
X112565886Y-68923950D01*
X112649481Y-68782598D01*
X112695300Y-68624886D01*
X112695495Y-68622401D01*
X112695495Y-68622400D01*
X109750905Y-68622400D01*
X109750904Y-68622401D01*
X109751099Y-68624886D01*
X109796918Y-68782598D01*
X109880514Y-68923952D01*
X109885300Y-68930122D01*
X109882840Y-68932029D01*
X109909410Y-68980688D01*
X109904426Y-69050380D01*
X109883362Y-69083181D01*
X109884899Y-69084374D01*
X109880115Y-69090540D01*
X109796455Y-69232003D01*
X109796454Y-69232006D01*
X109750602Y-69389826D01*
X109750601Y-69389832D01*
X109747700Y-69426698D01*
X109747700Y-69593063D01*
X109728015Y-69660102D01*
X109711381Y-69680744D01*
X109342300Y-70049824D01*
X109339573Y-70052391D01*
X109294870Y-70091996D01*
X109294867Y-70091999D01*
X109260936Y-70141155D01*
X109258717Y-70144170D01*
X109221874Y-70191197D01*
X109218024Y-70199752D01*
X109207008Y-70219283D01*
X109201684Y-70226997D01*
X109201681Y-70227001D01*
X109180501Y-70282845D01*
X109179069Y-70286302D01*
X109154550Y-70340787D01*
X109152861Y-70350004D01*
X109146839Y-70371608D01*
X109143511Y-70380383D01*
X109136308Y-70439697D01*
X109135745Y-70443398D01*
X109124981Y-70502136D01*
X109124981Y-70502142D01*
X109128587Y-70561760D01*
X109128700Y-70565504D01*
X109128700Y-71259295D01*
X109128587Y-71263039D01*
X109124981Y-71322655D01*
X109124981Y-71322658D01*
X109135745Y-71381401D01*
X109136308Y-71385102D01*
X109143511Y-71444418D01*
X109146837Y-71453187D01*
X109152861Y-71474796D01*
X109154550Y-71484013D01*
X109179063Y-71538480D01*
X109180496Y-71541939D01*
X109201681Y-71597797D01*
X109201681Y-71597798D01*
X109207005Y-71605511D01*
X109218024Y-71625049D01*
X109221871Y-71633596D01*
X109221872Y-71633598D01*
X109221873Y-71633599D01*
X109221874Y-71633601D01*
X109249094Y-71668344D01*
X109258715Y-71680624D01*
X109260930Y-71683634D01*
X109294868Y-71732802D01*
X109339592Y-71772424D01*
X109342284Y-71774958D01*
X109528613Y-71961287D01*
X109711381Y-72144055D01*
X109744866Y-72205378D01*
X109747700Y-72231736D01*
X109747700Y-72398101D01*
X109750601Y-72434967D01*
X109750602Y-72434973D01*
X109796454Y-72592793D01*
X109796455Y-72592796D01*
X109796456Y-72592798D01*
X109827120Y-72644648D01*
X109880117Y-72734262D01*
X109880123Y-72734270D01*
X109996329Y-72850476D01*
X109996338Y-72850483D01*
X110074196Y-72896528D01*
X110121880Y-72947597D01*
X110134383Y-73016339D01*
X110107738Y-73080928D01*
X110098756Y-73090941D01*
X107568417Y-75621281D01*
X107507094Y-75654766D01*
X107480736Y-75657600D01*
X106631086Y-75657600D01*
X106656893Y-75617444D01*
X106697400Y-75479489D01*
X106697400Y-75335711D01*
X106656893Y-75197756D01*
X106631086Y-75157600D01*
X107547400Y-75157600D01*
X107547400Y-74509772D01*
X107547399Y-74509755D01*
X107540998Y-74450227D01*
X107540996Y-74450220D01*
X107490754Y-74315513D01*
X107490750Y-74315506D01*
X107404590Y-74200412D01*
X107404587Y-74200409D01*
X107289493Y-74114249D01*
X107289486Y-74114245D01*
X107154779Y-74064003D01*
X107154772Y-74064001D01*
X107095244Y-74057600D01*
X106447400Y-74057600D01*
X106447400Y-74972098D01*
X106339715Y-74922920D01*
X106233163Y-74907600D01*
X106161637Y-74907600D01*
X106055085Y-74922920D01*
X105947400Y-74972098D01*
X105947400Y-74057600D01*
X105299555Y-74057600D01*
X105240027Y-74064001D01*
X105240020Y-74064003D01*
X105105313Y-74114245D01*
X105105306Y-74114249D01*
X104990212Y-74200409D01*
X104990209Y-74200412D01*
X104904049Y-74315506D01*
X104904045Y-74315513D01*
X104853803Y-74450220D01*
X104853801Y-74450227D01*
X104847400Y-74509755D01*
X104847400Y-75157600D01*
X105763714Y-75157600D01*
X105737907Y-75197756D01*
X105697400Y-75335711D01*
X105697400Y-75479489D01*
X105737907Y-75617444D01*
X105763714Y-75657600D01*
X104847400Y-75657600D01*
X104847400Y-76305444D01*
X104853801Y-76364972D01*
X104853803Y-76364979D01*
X104904045Y-76499686D01*
X104904049Y-76499693D01*
X104990209Y-76614787D01*
X104990212Y-76614790D01*
X105105306Y-76700950D01*
X105105313Y-76700954D01*
X105236870Y-76750021D01*
X105292803Y-76791892D01*
X105317221Y-76857356D01*
X105302370Y-76925629D01*
X105281219Y-76953884D01*
X105158903Y-77076200D01*
X105023365Y-77269769D01*
X105023364Y-77269771D01*
X104923498Y-77483935D01*
X104923494Y-77483944D01*
X104862338Y-77712186D01*
X104862336Y-77712196D01*
X104841741Y-77947599D01*
X104841741Y-77947600D01*
X104862336Y-78183003D01*
X104862338Y-78183013D01*
X104923494Y-78411255D01*
X104923496Y-78411259D01*
X104923497Y-78411263D01*
X104982642Y-78538100D01*
X105023365Y-78625430D01*
X105023367Y-78625434D01*
X105110909Y-78750456D01*
X105157710Y-78817295D01*
X105158901Y-78818995D01*
X105158906Y-78819002D01*
X105325997Y-78986093D01*
X105326003Y-78986098D01*
X105469022Y-79086241D01*
X105512647Y-79140818D01*
X105521899Y-79187816D01*
X105521899Y-79454324D01*
X105521786Y-79458067D01*
X105518180Y-79517681D01*
X105518181Y-79517686D01*
X105528945Y-79576428D01*
X105529508Y-79580129D01*
X105536711Y-79639445D01*
X105540037Y-79648214D01*
X105546061Y-79669823D01*
X105547750Y-79679040D01*
X105572263Y-79733507D01*
X105573696Y-79736966D01*
X105594881Y-79792824D01*
X105594881Y-79792825D01*
X105600205Y-79800538D01*
X105611224Y-79820076D01*
X105615071Y-79828623D01*
X105615072Y-79828625D01*
X105615073Y-79828626D01*
X105615074Y-79828628D01*
X105651634Y-79875292D01*
X105651915Y-79875651D01*
X105654130Y-79878661D01*
X105688068Y-79927829D01*
X105732792Y-79967451D01*
X105735484Y-79969985D01*
X106424557Y-80659059D01*
X106631471Y-80865973D01*
X106664956Y-80927296D01*
X106667111Y-80966611D01*
X106664475Y-80991702D01*
X106663540Y-81000600D01*
X106683326Y-81188856D01*
X106683327Y-81188859D01*
X106741818Y-81368877D01*
X106741821Y-81368884D01*
X106836466Y-81532815D01*
X106840285Y-81538071D01*
X106838797Y-81539151D01*
X106865177Y-81594123D01*
X106856550Y-81663458D01*
X106811807Y-81717122D01*
X106745154Y-81738078D01*
X106742797Y-81738100D01*
X104619329Y-81738100D01*
X104619323Y-81738101D01*
X104559716Y-81744508D01*
X104424871Y-81794802D01*
X104424864Y-81794806D01*
X104309655Y-81881052D01*
X104309652Y-81881055D01*
X104223406Y-81996264D01*
X104223402Y-81996271D01*
X104173108Y-82131117D01*
X104167877Y-82179780D01*
X104166701Y-82190723D01*
X104166700Y-82190735D01*
X104166700Y-85786470D01*
X104166701Y-85786476D01*
X104173108Y-85846083D01*
X104223402Y-85980928D01*
X104223406Y-85980935D01*
X104309652Y-86096144D01*
X104309655Y-86096147D01*
X104424864Y-86182393D01*
X104424871Y-86182397D01*
X104559717Y-86232691D01*
X104559716Y-86232691D01*
X104566644Y-86233435D01*
X104619327Y-86239100D01*
X107115072Y-86239099D01*
X107174683Y-86232691D01*
X107309531Y-86182396D01*
X107424746Y-86096146D01*
X107510996Y-85980931D01*
X107561291Y-85846083D01*
X107567700Y-85786473D01*
X107567700Y-84738099D01*
X107587385Y-84671061D01*
X107640189Y-84625306D01*
X107691700Y-84614100D01*
X109624900Y-84614100D01*
X109691939Y-84633785D01*
X109737694Y-84686589D01*
X109748900Y-84738100D01*
X109748900Y-85113520D01*
X109729215Y-85180559D01*
X109712581Y-85201201D01*
X107700597Y-87213184D01*
X107639274Y-87246669D01*
X107569582Y-87241685D01*
X107513649Y-87199814D01*
X107510996Y-87196271D01*
X107510996Y-87196269D01*
X107424746Y-87081054D01*
X107401909Y-87063958D01*
X107309535Y-86994806D01*
X107309528Y-86994802D01*
X107174682Y-86944508D01*
X107174683Y-86944508D01*
X107115083Y-86938101D01*
X107115081Y-86938100D01*
X107115073Y-86938100D01*
X107115064Y-86938100D01*
X104619329Y-86938100D01*
X104619323Y-86938101D01*
X104559716Y-86944508D01*
X104424871Y-86994802D01*
X104424864Y-86994806D01*
X104309655Y-87081052D01*
X104309652Y-87081055D01*
X104223406Y-87196264D01*
X104223402Y-87196271D01*
X104173108Y-87331117D01*
X104166701Y-87390716D01*
X104166700Y-87390735D01*
X104166700Y-90986470D01*
X104166701Y-90986476D01*
X104173108Y-91046083D01*
X104223402Y-91180928D01*
X104223406Y-91180935D01*
X104309652Y-91296144D01*
X104309655Y-91296147D01*
X104424864Y-91382393D01*
X104424871Y-91382397D01*
X104559717Y-91432691D01*
X104559716Y-91432691D01*
X104566644Y-91433435D01*
X104619327Y-91439100D01*
X107115072Y-91439099D01*
X107174683Y-91432691D01*
X107309531Y-91382396D01*
X107424746Y-91296146D01*
X107510996Y-91180931D01*
X107561291Y-91046083D01*
X107563536Y-91025200D01*
X109422201Y-91025200D01*
X109422201Y-91275186D01*
X109432694Y-91377897D01*
X109487841Y-91544319D01*
X109487843Y-91544324D01*
X109579884Y-91693545D01*
X109703854Y-91817515D01*
X109853075Y-91909556D01*
X109853080Y-91909558D01*
X110019502Y-91964705D01*
X110019509Y-91964706D01*
X110122219Y-91975199D01*
X110184699Y-91975198D01*
X110184700Y-91975198D01*
X110184700Y-91025200D01*
X109422201Y-91025200D01*
X107563536Y-91025200D01*
X107567700Y-90986473D01*
X107567699Y-89166624D01*
X107587384Y-89099586D01*
X107604013Y-89078949D01*
X108789220Y-87893742D01*
X108850542Y-87860259D01*
X108920234Y-87865243D01*
X108976167Y-87907115D01*
X109000584Y-87972579D01*
X109000900Y-87981425D01*
X109000900Y-88434223D01*
X108999175Y-88449840D01*
X108999461Y-88449867D01*
X108998726Y-88457634D01*
X109000869Y-88525814D01*
X109000900Y-88527761D01*
X109000900Y-88556311D01*
X109000901Y-88556328D01*
X109001768Y-88563199D01*
X109002226Y-88569018D01*
X109003690Y-88615592D01*
X109003691Y-88615595D01*
X109009280Y-88634835D01*
X109013224Y-88653879D01*
X109015736Y-88673759D01*
X109032890Y-88717087D01*
X109034782Y-88722615D01*
X109047022Y-88764744D01*
X109047782Y-88767358D01*
X109055758Y-88780846D01*
X109057980Y-88784602D01*
X109066538Y-88802071D01*
X109073914Y-88820700D01*
X109101298Y-88858391D01*
X109104506Y-88863275D01*
X109128227Y-88903384D01*
X109128233Y-88903392D01*
X109142390Y-88917548D01*
X109155028Y-88932344D01*
X109166805Y-88948554D01*
X109166806Y-88948555D01*
X109202709Y-88978256D01*
X109207020Y-88982178D01*
X109479993Y-89255151D01*
X109749983Y-89525141D01*
X109783468Y-89586464D01*
X109778484Y-89656156D01*
X109736612Y-89712089D01*
X109727402Y-89718359D01*
X109703855Y-89732883D01*
X109579884Y-89856854D01*
X109487843Y-90006075D01*
X109487841Y-90006080D01*
X109432694Y-90172502D01*
X109432693Y-90172509D01*
X109422200Y-90275213D01*
X109422200Y-90525200D01*
X110560700Y-90525200D01*
X110627739Y-90544885D01*
X110673494Y-90597689D01*
X110684700Y-90649200D01*
X110684699Y-91975198D01*
X110684700Y-91975199D01*
X110747172Y-91975199D01*
X110747186Y-91975198D01*
X110849897Y-91964705D01*
X111016319Y-91909558D01*
X111016324Y-91909556D01*
X111165542Y-91817517D01*
X111259164Y-91723895D01*
X111320487Y-91690410D01*
X111390179Y-91695394D01*
X111434527Y-91723895D01*
X111528544Y-91817912D01*
X111677866Y-91910014D01*
X111844403Y-91965199D01*
X111947191Y-91975700D01*
X112572208Y-91975699D01*
X112572216Y-91975698D01*
X112572219Y-91975698D01*
X112628502Y-91969948D01*
X112674997Y-91965199D01*
X112841534Y-91910014D01*
X112990856Y-91817912D01*
X113114912Y-91693856D01*
X113207014Y-91544534D01*
X113262199Y-91377997D01*
X113272700Y-91275209D01*
X113272700Y-90872800D01*
X113740201Y-90872800D01*
X113740201Y-91122786D01*
X113750694Y-91225497D01*
X113805841Y-91391919D01*
X113805843Y-91391924D01*
X113897884Y-91541145D01*
X114021854Y-91665115D01*
X114171075Y-91757156D01*
X114171080Y-91757158D01*
X114337502Y-91812305D01*
X114337509Y-91812306D01*
X114440219Y-91822799D01*
X114502699Y-91822798D01*
X114502700Y-91822798D01*
X114502700Y-90872800D01*
X113740201Y-90872800D01*
X113272700Y-90872800D01*
X113272699Y-90275192D01*
X113262199Y-90172403D01*
X113207014Y-90005866D01*
X113114912Y-89856544D01*
X112990856Y-89732488D01*
X112869545Y-89657663D01*
X112841536Y-89640387D01*
X112841531Y-89640385D01*
X112840062Y-89639898D01*
X112674997Y-89585201D01*
X112674995Y-89585200D01*
X112572216Y-89574700D01*
X111995153Y-89574700D01*
X111928114Y-89555015D01*
X111907472Y-89538381D01*
X111685503Y-89316412D01*
X111675680Y-89304150D01*
X111675459Y-89304334D01*
X111670486Y-89298322D01*
X111620766Y-89251632D01*
X111619366Y-89250275D01*
X111599176Y-89230084D01*
X111593686Y-89225825D01*
X111589261Y-89222047D01*
X111555282Y-89190138D01*
X111555280Y-89190136D01*
X111555277Y-89190135D01*
X111537729Y-89180488D01*
X111521463Y-89169804D01*
X111505633Y-89157525D01*
X111462868Y-89139018D01*
X111457622Y-89136448D01*
X111416793Y-89114003D01*
X111416792Y-89114002D01*
X111397393Y-89109022D01*
X111378981Y-89102718D01*
X111360598Y-89094762D01*
X111360592Y-89094760D01*
X111314574Y-89087472D01*
X111308852Y-89086287D01*
X111263721Y-89074700D01*
X111263719Y-89074700D01*
X111243684Y-89074700D01*
X111224286Y-89073173D01*
X111216862Y-89071997D01*
X111204505Y-89070040D01*
X111204504Y-89070040D01*
X111158116Y-89074425D01*
X111152278Y-89074700D01*
X111120084Y-89074700D01*
X111053045Y-89055015D01*
X111032403Y-89038381D01*
X110550604Y-88556581D01*
X110517119Y-88495258D01*
X110522103Y-88425566D01*
X110563975Y-88369633D01*
X110629439Y-88345216D01*
X110638285Y-88344900D01*
X112220519Y-88344900D01*
X112242284Y-88342286D01*
X112307585Y-88334444D01*
X112446138Y-88279806D01*
X112497074Y-88241178D01*
X112557052Y-88216886D01*
X112613045Y-88210088D01*
X112621805Y-88206765D01*
X112643421Y-88200738D01*
X112652639Y-88199050D01*
X112707116Y-88174532D01*
X112710558Y-88173105D01*
X112766426Y-88151918D01*
X112774133Y-88146597D01*
X112793680Y-88135572D01*
X112802228Y-88131726D01*
X112849266Y-88094872D01*
X112852259Y-88092669D01*
X112901429Y-88058732D01*
X112941052Y-88014005D01*
X112943586Y-88011313D01*
X112954469Y-88000430D01*
X113015790Y-87966947D01*
X113085482Y-87971931D01*
X113141415Y-88013803D01*
X113161224Y-88053518D01*
X113162580Y-88058187D01*
X113172780Y-88075434D01*
X113181336Y-88092900D01*
X113188714Y-88111532D01*
X113209539Y-88140196D01*
X113216098Y-88149223D01*
X113219306Y-88154107D01*
X113243027Y-88194216D01*
X113243033Y-88194224D01*
X113257190Y-88208380D01*
X113269828Y-88223176D01*
X113281605Y-88239386D01*
X113281606Y-88239387D01*
X113317509Y-88269088D01*
X113321820Y-88273010D01*
X113813552Y-88764742D01*
X114303961Y-89255151D01*
X114337446Y-89316474D01*
X114332462Y-89386166D01*
X114290590Y-89442099D01*
X114255285Y-89460537D01*
X114171086Y-89488438D01*
X114171075Y-89488443D01*
X114021854Y-89580484D01*
X113897884Y-89704454D01*
X113805843Y-89853675D01*
X113805841Y-89853680D01*
X113750694Y-90020102D01*
X113750693Y-90020109D01*
X113740200Y-90122813D01*
X113740200Y-90372800D01*
X114878700Y-90372800D01*
X114945739Y-90392485D01*
X114991494Y-90445289D01*
X115002700Y-90496800D01*
X115002700Y-91822799D01*
X115065172Y-91822799D01*
X115065186Y-91822798D01*
X115167897Y-91812305D01*
X115334319Y-91757158D01*
X115334324Y-91757156D01*
X115483542Y-91665117D01*
X115577164Y-91571495D01*
X115638487Y-91538010D01*
X115708179Y-91542994D01*
X115752527Y-91571495D01*
X115846544Y-91665512D01*
X115995866Y-91757614D01*
X116162403Y-91812799D01*
X116265191Y-91823300D01*
X116890208Y-91823299D01*
X116890216Y-91823298D01*
X116890219Y-91823298D01*
X116946830Y-91817515D01*
X116992997Y-91812799D01*
X117159534Y-91757614D01*
X117308856Y-91665512D01*
X117432912Y-91541456D01*
X117525014Y-91392134D01*
X117580199Y-91225597D01*
X117590700Y-91122809D01*
X117590699Y-90139650D01*
X117610383Y-90072612D01*
X117663187Y-90026857D01*
X117732346Y-90016913D01*
X117795902Y-90045938D01*
X117802380Y-90051970D01*
X120107594Y-92357184D01*
X120117419Y-92369448D01*
X120117640Y-92369266D01*
X120122610Y-92375274D01*
X120172349Y-92421982D01*
X120173716Y-92423306D01*
X120193928Y-92443518D01*
X120193929Y-92443519D01*
X120199404Y-92447766D01*
X120203846Y-92451560D01*
X120237815Y-92483460D01*
X120237817Y-92483461D01*
X120237818Y-92483462D01*
X120255376Y-92493114D01*
X120271637Y-92503796D01*
X120287464Y-92516073D01*
X120330223Y-92534576D01*
X120335473Y-92537148D01*
X120376304Y-92559595D01*
X120376308Y-92559597D01*
X120376312Y-92559598D01*
X120395711Y-92564579D01*
X120414122Y-92570883D01*
X120432497Y-92578835D01*
X120432500Y-92578835D01*
X120432505Y-92578838D01*
X120478549Y-92586129D01*
X120484232Y-92587306D01*
X120529381Y-92598900D01*
X120549416Y-92598900D01*
X120568813Y-92600426D01*
X120588596Y-92603560D01*
X120634983Y-92599175D01*
X120640822Y-92598900D01*
X149066057Y-92598900D01*
X149081677Y-92600624D01*
X149081704Y-92600339D01*
X149089466Y-92601073D01*
X149089466Y-92601072D01*
X149089467Y-92601073D01*
X149092799Y-92600968D01*
X149157647Y-92598931D01*
X149159594Y-92598900D01*
X149188147Y-92598900D01*
X149188150Y-92598900D01*
X149195028Y-92598030D01*
X149200841Y-92597572D01*
X149247427Y-92596109D01*
X149266669Y-92590517D01*
X149285712Y-92586574D01*
X149305592Y-92584064D01*
X149348922Y-92566907D01*
X149354446Y-92565017D01*
X149358196Y-92563927D01*
X149399190Y-92552018D01*
X149416429Y-92541822D01*
X149433903Y-92533262D01*
X149452527Y-92525888D01*
X149452527Y-92525887D01*
X149452532Y-92525886D01*
X149490249Y-92498482D01*
X149495105Y-92495292D01*
X149535220Y-92471570D01*
X149549389Y-92457399D01*
X149564179Y-92444768D01*
X149580387Y-92432994D01*
X149610099Y-92397076D01*
X149614012Y-92392776D01*
X150885387Y-91121402D01*
X150897642Y-91111586D01*
X150897459Y-91111364D01*
X150903468Y-91106391D01*
X150903477Y-91106386D01*
X150950207Y-91056622D01*
X150951446Y-91055343D01*
X150971720Y-91035071D01*
X150975979Y-91029578D01*
X150979752Y-91025161D01*
X151011662Y-90991182D01*
X151021313Y-90973624D01*
X151031996Y-90957361D01*
X151044273Y-90941536D01*
X151062785Y-90898753D01*
X151065338Y-90893541D01*
X151087797Y-90852692D01*
X151092780Y-90833280D01*
X151099081Y-90814880D01*
X151107037Y-90796496D01*
X151114329Y-90750452D01*
X151115506Y-90744771D01*
X151127100Y-90699619D01*
X151127100Y-90679582D01*
X151128627Y-90660182D01*
X151128723Y-90659577D01*
X151131760Y-90640404D01*
X151127375Y-90594015D01*
X151127100Y-90588177D01*
X151127100Y-88455942D01*
X151128824Y-88440322D01*
X151128539Y-88440295D01*
X151129273Y-88432533D01*
X151127131Y-88364339D01*
X151127100Y-88362392D01*
X151127100Y-88333856D01*
X151127100Y-88333850D01*
X151126231Y-88326979D01*
X151125773Y-88321152D01*
X151124474Y-88279806D01*
X151124310Y-88274573D01*
X151118719Y-88255330D01*
X151114773Y-88236278D01*
X151112264Y-88216408D01*
X151095104Y-88173067D01*
X151093224Y-88167579D01*
X151080218Y-88122810D01*
X151070022Y-88105570D01*
X151061461Y-88088094D01*
X151054087Y-88069470D01*
X151054086Y-88069468D01*
X151026679Y-88031745D01*
X151023488Y-88026886D01*
X151015882Y-88014025D01*
X150999770Y-87986780D01*
X150999768Y-87986778D01*
X150999765Y-87986774D01*
X150985606Y-87972615D01*
X150972968Y-87957819D01*
X150969923Y-87953628D01*
X150961194Y-87941613D01*
X150956918Y-87938076D01*
X150925288Y-87911909D01*
X150920976Y-87907986D01*
X150711811Y-87698821D01*
X150678327Y-87637499D01*
X150675965Y-87600332D01*
X150676242Y-87597173D01*
X150682259Y-87528400D01*
X150661663Y-87292992D01*
X150613790Y-87114327D01*
X150600505Y-87064744D01*
X150600504Y-87064743D01*
X150600503Y-87064737D01*
X150500635Y-86850571D01*
X150477512Y-86817547D01*
X150365094Y-86656997D01*
X150198002Y-86489906D01*
X150198001Y-86489905D01*
X150030444Y-86372580D01*
X150012005Y-86359669D01*
X149968381Y-86305092D01*
X149961188Y-86235593D01*
X149992710Y-86173239D01*
X150012005Y-86156519D01*
X150197682Y-86026505D01*
X150364705Y-85859482D01*
X150500200Y-85665978D01*
X150600029Y-85451892D01*
X150600032Y-85451886D01*
X150657236Y-85238400D01*
X149760286Y-85238400D01*
X149786093Y-85198244D01*
X149826600Y-85060289D01*
X149826600Y-84916511D01*
X149786093Y-84778556D01*
X149760286Y-84738400D01*
X150657236Y-84738400D01*
X150657235Y-84738399D01*
X150600032Y-84524913D01*
X150600029Y-84524907D01*
X150500200Y-84310822D01*
X150500199Y-84310820D01*
X150364713Y-84117326D01*
X150364708Y-84117320D01*
X150242653Y-83995265D01*
X150209168Y-83933942D01*
X150214152Y-83864250D01*
X150256024Y-83808317D01*
X150287000Y-83791402D01*
X150418931Y-83742196D01*
X150534146Y-83655946D01*
X150620396Y-83540731D01*
X150670691Y-83405883D01*
X150677100Y-83346273D01*
X150677099Y-81550528D01*
X150670691Y-81490917D01*
X150668254Y-81484384D01*
X150620397Y-81356071D01*
X150620393Y-81356064D01*
X150534147Y-81240855D01*
X150534144Y-81240852D01*
X150418935Y-81154606D01*
X150418928Y-81154602D01*
X150284082Y-81104308D01*
X150284083Y-81104308D01*
X150224483Y-81097901D01*
X150224481Y-81097900D01*
X150224473Y-81097900D01*
X150224465Y-81097900D01*
X150126100Y-81097900D01*
X150059061Y-81078215D01*
X150013306Y-81025411D01*
X150002100Y-80973900D01*
X150002100Y-80090582D01*
X150021785Y-80023543D01*
X150073694Y-79978201D01*
X150156830Y-79939435D01*
X150350401Y-79803895D01*
X150517495Y-79636801D01*
X150653035Y-79443230D01*
X150752903Y-79229063D01*
X150814063Y-79000808D01*
X150834659Y-78765400D01*
X150833553Y-78752764D01*
X150828292Y-78692628D01*
X150814063Y-78529992D01*
X150802085Y-78485293D01*
X150803749Y-78415443D01*
X150834178Y-78365521D01*
X151215922Y-77983778D01*
X151218614Y-77981244D01*
X151263332Y-77941629D01*
X151297272Y-77892455D01*
X151299462Y-77889479D01*
X151336326Y-77842428D01*
X151340172Y-77833880D01*
X151351197Y-77814335D01*
X151356517Y-77806627D01*
X151356516Y-77806627D01*
X151356518Y-77806626D01*
X151377705Y-77750758D01*
X151379132Y-77747316D01*
X151403647Y-77692846D01*
X151403647Y-77692845D01*
X151403650Y-77692839D01*
X151405338Y-77683621D01*
X151411366Y-77662003D01*
X151411481Y-77661700D01*
X151414688Y-77653245D01*
X151421889Y-77593940D01*
X151422453Y-77590236D01*
X151426981Y-77565524D01*
X151433219Y-77531485D01*
X151431036Y-77495400D01*
X151429613Y-77471866D01*
X151429500Y-77468122D01*
X151429500Y-73179554D01*
X151429613Y-73175810D01*
X151433219Y-73116192D01*
X151429041Y-73093394D01*
X151422451Y-73057435D01*
X151421889Y-73053740D01*
X151418835Y-73028591D01*
X151414688Y-72994432D01*
X151411363Y-72985666D01*
X151405338Y-72964053D01*
X151403650Y-72954838D01*
X151379126Y-72900347D01*
X151377703Y-72896911D01*
X151370600Y-72878182D01*
X151356518Y-72841051D01*
X151352811Y-72835680D01*
X151351198Y-72833343D01*
X151340171Y-72813792D01*
X151337868Y-72808675D01*
X151336326Y-72805249D01*
X151322442Y-72787528D01*
X151299486Y-72758226D01*
X151297265Y-72755209D01*
X151263333Y-72706049D01*
X151218624Y-72666440D01*
X151215912Y-72663888D01*
X150500508Y-71948484D01*
X150497974Y-71945792D01*
X150458352Y-71901068D01*
X150409184Y-71867130D01*
X150406174Y-71864915D01*
X150359151Y-71828074D01*
X150359149Y-71828073D01*
X150359148Y-71828072D01*
X150359146Y-71828071D01*
X150350599Y-71824224D01*
X150331061Y-71813205D01*
X150328578Y-71811491D01*
X150323349Y-71807882D01*
X150323347Y-71807881D01*
X150267489Y-71786696D01*
X150264030Y-71785263D01*
X150209563Y-71760750D01*
X150209564Y-71760750D01*
X150202210Y-71759402D01*
X150200345Y-71759060D01*
X150178737Y-71753037D01*
X150169968Y-71749711D01*
X150110652Y-71742508D01*
X150106951Y-71741945D01*
X150048212Y-71731181D01*
X150048205Y-71731181D01*
X149988589Y-71734787D01*
X149984845Y-71734900D01*
X149779763Y-71734900D01*
X149712724Y-71715215D01*
X149692082Y-71698581D01*
X149297765Y-71304264D01*
X149264280Y-71242941D01*
X149269264Y-71173249D01*
X149311136Y-71117316D01*
X149376600Y-71092899D01*
X149401678Y-71093650D01*
X149849265Y-71152766D01*
X150140051Y-71191172D01*
X150140051Y-71191171D01*
X150140053Y-71191172D01*
X151003653Y-70886372D01*
X151699257Y-70371608D01*
X152062330Y-70102925D01*
X152127928Y-70078869D01*
X152136092Y-70078600D01*
X152276003Y-70078600D01*
X152343042Y-70098285D01*
X152388797Y-70151089D01*
X152400003Y-70202597D01*
X152400639Y-94237068D01*
X152380956Y-94304108D01*
X152328153Y-94349864D01*
X152258995Y-94359809D01*
X152195439Y-94330786D01*
X152165730Y-94292525D01*
X151892653Y-93746372D01*
X150978253Y-93111372D01*
X150978251Y-93111371D01*
X149968831Y-92925968D01*
X149733653Y-92882772D01*
X149733652Y-92882772D01*
X148412852Y-93390772D01*
X147701652Y-94482971D01*
X147523852Y-95600571D01*
X147955653Y-96819773D01*
X148445725Y-97226173D01*
X148997053Y-97683372D01*
X149147007Y-97712827D01*
X149208995Y-97745064D01*
X149243715Y-97805697D01*
X149240142Y-97875475D01*
X149199412Y-97932245D01*
X149134455Y-97957982D01*
X149122699Y-97958501D01*
X137789519Y-97921180D01*
X137722544Y-97901275D01*
X137676964Y-97848321D01*
X137667248Y-97779130D01*
X137696482Y-97715670D01*
X137739491Y-97683902D01*
X137866730Y-97627251D01*
X138019871Y-97515988D01*
X138146533Y-97375316D01*
X138241179Y-97211384D01*
X138299674Y-97031356D01*
X138319460Y-96843100D01*
X138299674Y-96654844D01*
X138241179Y-96474816D01*
X138186494Y-96380099D01*
X138146534Y-96310885D01*
X138146529Y-96310878D01*
X138121350Y-96282914D01*
X138091120Y-96219922D01*
X138089500Y-96199942D01*
X138089500Y-95981616D01*
X138097318Y-95938283D01*
X138098194Y-95935933D01*
X138098196Y-95935931D01*
X138147403Y-95803999D01*
X138189273Y-95748067D01*
X138254737Y-95723650D01*
X138323010Y-95738502D01*
X138351265Y-95759653D01*
X138473317Y-95881705D01*
X138666821Y-96017200D01*
X138880907Y-96117029D01*
X138880916Y-96117033D01*
X139094400Y-96174234D01*
X139094400Y-95279101D01*
X139202085Y-95328280D01*
X139308637Y-95343600D01*
X139380163Y-95343600D01*
X139486715Y-95328280D01*
X139594400Y-95279101D01*
X139594400Y-96174233D01*
X139807883Y-96117033D01*
X139807892Y-96117029D01*
X140021978Y-96017200D01*
X140215482Y-95881705D01*
X140382505Y-95714682D01*
X140512519Y-95529005D01*
X140567096Y-95485381D01*
X140636595Y-95478188D01*
X140698949Y-95509710D01*
X140715669Y-95529005D01*
X140845905Y-95715001D01*
X141012999Y-95882095D01*
X141089885Y-95935931D01*
X141206565Y-96017632D01*
X141206567Y-96017633D01*
X141206570Y-96017635D01*
X141420737Y-96117503D01*
X141648992Y-96178663D01*
X141837318Y-96195139D01*
X141884399Y-96199259D01*
X141884400Y-96199259D01*
X141884401Y-96199259D01*
X141923634Y-96195826D01*
X142119808Y-96178663D01*
X142348063Y-96117503D01*
X142562230Y-96017635D01*
X142755801Y-95882095D01*
X142922895Y-95715001D01*
X143052824Y-95529442D01*
X143107402Y-95485817D01*
X143176900Y-95478623D01*
X143239255Y-95510146D01*
X143255975Y-95529442D01*
X143385900Y-95714995D01*
X143385905Y-95715001D01*
X143552999Y-95882095D01*
X143629885Y-95935931D01*
X143746565Y-96017632D01*
X143746567Y-96017633D01*
X143746570Y-96017635D01*
X143960737Y-96117503D01*
X144188992Y-96178663D01*
X144377318Y-96195139D01*
X144424399Y-96199259D01*
X144424400Y-96199259D01*
X144424401Y-96199259D01*
X144463634Y-96195826D01*
X144659808Y-96178663D01*
X144888063Y-96117503D01*
X145102230Y-96017635D01*
X145295801Y-95882095D01*
X145462895Y-95715001D01*
X145598435Y-95521430D01*
X145698303Y-95307263D01*
X145759463Y-95079008D01*
X145780059Y-94843600D01*
X145759463Y-94608192D01*
X145702866Y-94396967D01*
X145698305Y-94379944D01*
X145698304Y-94379943D01*
X145698303Y-94379937D01*
X145598435Y-94165771D01*
X145593131Y-94158195D01*
X145462894Y-93972197D01*
X145295802Y-93805106D01*
X145295795Y-93805101D01*
X145102234Y-93669567D01*
X145102230Y-93669565D01*
X145084832Y-93661452D01*
X144888063Y-93569697D01*
X144888059Y-93569696D01*
X144888055Y-93569694D01*
X144659813Y-93508538D01*
X144659803Y-93508536D01*
X144424401Y-93487941D01*
X144424399Y-93487941D01*
X144188996Y-93508536D01*
X144188986Y-93508538D01*
X143960744Y-93569694D01*
X143960735Y-93569698D01*
X143746571Y-93669564D01*
X143746569Y-93669565D01*
X143552997Y-93805105D01*
X143385905Y-93972197D01*
X143255975Y-94157758D01*
X143201398Y-94201383D01*
X143131900Y-94208577D01*
X143069545Y-94177054D01*
X143052825Y-94157758D01*
X142922894Y-93972197D01*
X142755802Y-93805106D01*
X142755795Y-93805101D01*
X142562234Y-93669567D01*
X142562230Y-93669565D01*
X142544832Y-93661452D01*
X142348063Y-93569697D01*
X142348059Y-93569696D01*
X142348055Y-93569694D01*
X142119813Y-93508538D01*
X142119803Y-93508536D01*
X141884401Y-93487941D01*
X141884399Y-93487941D01*
X141648996Y-93508536D01*
X141648986Y-93508538D01*
X141420744Y-93569694D01*
X141420735Y-93569698D01*
X141206571Y-93669564D01*
X141206569Y-93669565D01*
X141012997Y-93805105D01*
X140845908Y-93972194D01*
X140715669Y-94158195D01*
X140661092Y-94201819D01*
X140591593Y-94209012D01*
X140529239Y-94177490D01*
X140512519Y-94158194D01*
X140382513Y-93972526D01*
X140382508Y-93972520D01*
X140215482Y-93805494D01*
X140021978Y-93669999D01*
X139807892Y-93570170D01*
X139807886Y-93570167D01*
X139594400Y-93512964D01*
X139594400Y-94408098D01*
X139486715Y-94358920D01*
X139380163Y-94343600D01*
X139308637Y-94343600D01*
X139202085Y-94358920D01*
X139094400Y-94408098D01*
X139094400Y-93512964D01*
X139094399Y-93512964D01*
X138880913Y-93570167D01*
X138880907Y-93570170D01*
X138666822Y-93669999D01*
X138666820Y-93670000D01*
X138473326Y-93805486D01*
X138351265Y-93927547D01*
X138289942Y-93961031D01*
X138220250Y-93956047D01*
X138164317Y-93914175D01*
X138147402Y-93883198D01*
X138098197Y-93751271D01*
X138098193Y-93751264D01*
X138011947Y-93636055D01*
X138011944Y-93636052D01*
X137896735Y-93549806D01*
X137896728Y-93549802D01*
X137761882Y-93499508D01*
X137761883Y-93499508D01*
X137702283Y-93493101D01*
X137702281Y-93493100D01*
X137702273Y-93493100D01*
X137702264Y-93493100D01*
X135906529Y-93493100D01*
X135906523Y-93493101D01*
X135846916Y-93499508D01*
X135712071Y-93549802D01*
X135712064Y-93549806D01*
X135596855Y-93636052D01*
X135596852Y-93636055D01*
X135510606Y-93751264D01*
X135510602Y-93751271D01*
X135460308Y-93886117D01*
X135453901Y-93945716D01*
X135453900Y-93945735D01*
X135453900Y-95187436D01*
X135434215Y-95254475D01*
X135417581Y-95275117D01*
X134960718Y-95731981D01*
X134899395Y-95765466D01*
X134873037Y-95768300D01*
X131355351Y-95768300D01*
X131288312Y-95748615D01*
X131242557Y-95695811D01*
X131232613Y-95626653D01*
X131253776Y-95573176D01*
X131272400Y-95546578D01*
X131372229Y-95332492D01*
X131372232Y-95332486D01*
X131429436Y-95119000D01*
X130532486Y-95119000D01*
X130558293Y-95078844D01*
X130598800Y-94940889D01*
X130598800Y-94797111D01*
X130558293Y-94659156D01*
X130532486Y-94619000D01*
X131429436Y-94619000D01*
X131429435Y-94618999D01*
X131372232Y-94405513D01*
X131372229Y-94405507D01*
X131272400Y-94191422D01*
X131272399Y-94191420D01*
X131167888Y-94042163D01*
X132764677Y-94042163D01*
X132764677Y-94770300D01*
X134266677Y-94770300D01*
X134266677Y-94042163D01*
X132764677Y-94042163D01*
X131167888Y-94042163D01*
X131136913Y-93997926D01*
X131136908Y-93997920D01*
X130969882Y-93830894D01*
X130776378Y-93695399D01*
X130562292Y-93595570D01*
X130562286Y-93595567D01*
X130348800Y-93538364D01*
X130348800Y-94433498D01*
X130241115Y-94384320D01*
X130134563Y-94369000D01*
X130063037Y-94369000D01*
X129956485Y-94384320D01*
X129848800Y-94433498D01*
X129848800Y-93538364D01*
X129848799Y-93538364D01*
X129635313Y-93595567D01*
X129635307Y-93595570D01*
X129421222Y-93695399D01*
X129421220Y-93695400D01*
X129227726Y-93830886D01*
X129227720Y-93830891D01*
X129060691Y-93997920D01*
X129060690Y-93997922D01*
X128930680Y-94183595D01*
X128876103Y-94227219D01*
X128806604Y-94234412D01*
X128744250Y-94202890D01*
X128727530Y-94183594D01*
X128597294Y-93997597D01*
X128430202Y-93830506D01*
X128430195Y-93830501D01*
X128393927Y-93805106D01*
X128353318Y-93776671D01*
X128236634Y-93694967D01*
X128236630Y-93694965D01*
X128236629Y-93694964D01*
X128022463Y-93595097D01*
X128022459Y-93595096D01*
X128022455Y-93595094D01*
X127794213Y-93533938D01*
X127794203Y-93533936D01*
X127558801Y-93513341D01*
X127558799Y-93513341D01*
X127323396Y-93533936D01*
X127323386Y-93533938D01*
X127095144Y-93595094D01*
X127095135Y-93595098D01*
X126880971Y-93694964D01*
X126880969Y-93694965D01*
X126687397Y-93830505D01*
X126520308Y-93997594D01*
X126390374Y-94183160D01*
X126335797Y-94226784D01*
X126266298Y-94233977D01*
X126203944Y-94202455D01*
X126187229Y-94183164D01*
X126057295Y-93997599D01*
X126057293Y-93997596D01*
X125890202Y-93830506D01*
X125890195Y-93830501D01*
X125853927Y-93805106D01*
X125813318Y-93776671D01*
X125696634Y-93694967D01*
X125696630Y-93694965D01*
X125696630Y-93694964D01*
X125482463Y-93595097D01*
X125482459Y-93595096D01*
X125482455Y-93595094D01*
X125254213Y-93533938D01*
X125254203Y-93533936D01*
X125018801Y-93513341D01*
X125018799Y-93513341D01*
X124783396Y-93533936D01*
X124783386Y-93533938D01*
X124555144Y-93595094D01*
X124555135Y-93595098D01*
X124340971Y-93694964D01*
X124340969Y-93694965D01*
X124147397Y-93830505D01*
X123980305Y-93997597D01*
X123850375Y-94183158D01*
X123795798Y-94226783D01*
X123726300Y-94233977D01*
X123663945Y-94202454D01*
X123647225Y-94183158D01*
X123517294Y-93997597D01*
X123350202Y-93830506D01*
X123350195Y-93830501D01*
X123313927Y-93805106D01*
X123273318Y-93776671D01*
X123156634Y-93694967D01*
X123156630Y-93694965D01*
X123156629Y-93694964D01*
X122942463Y-93595097D01*
X122942459Y-93595096D01*
X122942455Y-93595094D01*
X122714213Y-93533938D01*
X122714203Y-93533936D01*
X122478801Y-93513341D01*
X122478799Y-93513341D01*
X122243396Y-93533936D01*
X122243386Y-93533938D01*
X122015144Y-93595094D01*
X122015135Y-93595098D01*
X121800971Y-93694964D01*
X121800969Y-93694965D01*
X121607397Y-93830505D01*
X121440305Y-93997597D01*
X121310375Y-94183158D01*
X121255798Y-94226783D01*
X121186300Y-94233977D01*
X121123945Y-94202454D01*
X121107225Y-94183158D01*
X120977294Y-93997597D01*
X120810202Y-93830506D01*
X120810195Y-93830501D01*
X120773927Y-93805106D01*
X120733318Y-93776671D01*
X120616634Y-93694967D01*
X120616630Y-93694965D01*
X120616629Y-93694964D01*
X120402463Y-93595097D01*
X120402459Y-93595096D01*
X120402455Y-93595094D01*
X120174213Y-93533938D01*
X120174203Y-93533936D01*
X119938801Y-93513341D01*
X119938799Y-93513341D01*
X119703396Y-93533936D01*
X119703386Y-93533938D01*
X119475144Y-93595094D01*
X119475135Y-93595098D01*
X119260971Y-93694964D01*
X119260969Y-93694965D01*
X119067397Y-93830505D01*
X118900305Y-93997597D01*
X118770375Y-94183158D01*
X118715798Y-94226783D01*
X118646300Y-94233977D01*
X118583945Y-94202454D01*
X118567225Y-94183158D01*
X118437294Y-93997597D01*
X118270202Y-93830506D01*
X118270195Y-93830501D01*
X118233927Y-93805106D01*
X118193318Y-93776671D01*
X118076634Y-93694967D01*
X118076630Y-93694965D01*
X118076630Y-93694964D01*
X117862463Y-93595097D01*
X117862459Y-93595096D01*
X117862455Y-93595094D01*
X117634213Y-93533938D01*
X117634203Y-93533936D01*
X117398801Y-93513341D01*
X117398799Y-93513341D01*
X117163396Y-93533936D01*
X117163386Y-93533938D01*
X116935144Y-93595094D01*
X116935135Y-93595098D01*
X116720971Y-93694964D01*
X116720969Y-93694965D01*
X116527397Y-93830505D01*
X116360308Y-93997594D01*
X116230374Y-94183160D01*
X116175797Y-94226784D01*
X116106298Y-94233977D01*
X116043944Y-94202455D01*
X116027229Y-94183164D01*
X115897295Y-93997599D01*
X115897293Y-93997596D01*
X115730202Y-93830506D01*
X115730195Y-93830501D01*
X115693927Y-93805106D01*
X115653318Y-93776671D01*
X115536634Y-93694967D01*
X115536630Y-93694965D01*
X115536629Y-93694964D01*
X115322463Y-93595097D01*
X115322459Y-93595096D01*
X115322455Y-93595094D01*
X115094213Y-93533938D01*
X115094203Y-93533936D01*
X114858801Y-93513341D01*
X114858799Y-93513341D01*
X114623396Y-93533936D01*
X114623386Y-93533938D01*
X114395144Y-93595094D01*
X114395135Y-93595098D01*
X114180971Y-93694964D01*
X114180969Y-93694965D01*
X113987397Y-93830505D01*
X113820305Y-93997597D01*
X113690375Y-94183158D01*
X113635798Y-94226783D01*
X113566300Y-94233977D01*
X113503945Y-94202454D01*
X113487225Y-94183158D01*
X113357294Y-93997597D01*
X113190202Y-93830506D01*
X113190195Y-93830501D01*
X113153927Y-93805106D01*
X113113318Y-93776671D01*
X112996634Y-93694967D01*
X112996630Y-93694965D01*
X112996629Y-93694964D01*
X112782463Y-93595097D01*
X112782459Y-93595096D01*
X112782455Y-93595094D01*
X112554213Y-93533938D01*
X112554203Y-93533936D01*
X112318801Y-93513341D01*
X112318799Y-93513341D01*
X112083396Y-93533936D01*
X112083386Y-93533938D01*
X111855144Y-93595094D01*
X111855135Y-93595098D01*
X111640971Y-93694964D01*
X111640969Y-93694965D01*
X111447400Y-93830503D01*
X111325473Y-93952430D01*
X111264150Y-93985914D01*
X111194458Y-93980930D01*
X111138525Y-93939058D01*
X111121610Y-93908081D01*
X111072597Y-93776671D01*
X111072593Y-93776664D01*
X110986347Y-93661455D01*
X110986344Y-93661452D01*
X110871135Y-93575206D01*
X110871128Y-93575202D01*
X110736282Y-93524908D01*
X110736283Y-93524908D01*
X110676683Y-93518501D01*
X110676681Y-93518500D01*
X110676673Y-93518500D01*
X110676664Y-93518500D01*
X108880929Y-93518500D01*
X108880923Y-93518501D01*
X108821316Y-93524908D01*
X108686471Y-93575202D01*
X108686464Y-93575206D01*
X108571255Y-93661452D01*
X108571252Y-93661455D01*
X108485006Y-93776664D01*
X108485002Y-93776671D01*
X108434708Y-93911517D01*
X108428301Y-93971116D01*
X108428300Y-93971135D01*
X108428300Y-95766870D01*
X108428301Y-95766876D01*
X108434708Y-95826483D01*
X108485002Y-95961328D01*
X108485006Y-95961335D01*
X108571252Y-96076544D01*
X108571255Y-96076547D01*
X108686464Y-96162793D01*
X108686471Y-96162797D01*
X108821317Y-96213091D01*
X108821316Y-96213091D01*
X108827763Y-96213784D01*
X108880927Y-96219500D01*
X110676672Y-96219499D01*
X110736283Y-96213091D01*
X110871131Y-96162796D01*
X110986346Y-96076546D01*
X111072596Y-95961331D01*
X111121610Y-95829916D01*
X111163481Y-95773984D01*
X111228945Y-95749566D01*
X111297218Y-95764417D01*
X111325472Y-95785568D01*
X111447399Y-95907495D01*
X111544184Y-95975264D01*
X111640965Y-96043032D01*
X111640967Y-96043033D01*
X111640970Y-96043035D01*
X111855137Y-96142903D01*
X112083392Y-96204063D01*
X112259834Y-96219500D01*
X112318799Y-96224659D01*
X112318800Y-96224659D01*
X112318801Y-96224659D01*
X112377766Y-96219500D01*
X112554208Y-96204063D01*
X112782463Y-96142903D01*
X112996630Y-96043035D01*
X113190201Y-95907495D01*
X113357295Y-95740401D01*
X113487224Y-95554842D01*
X113541802Y-95511217D01*
X113611300Y-95504023D01*
X113673655Y-95535546D01*
X113690375Y-95554842D01*
X113808575Y-95723650D01*
X113820305Y-95740401D01*
X113987399Y-95907495D01*
X114084184Y-95975264D01*
X114180965Y-96043032D01*
X114180967Y-96043033D01*
X114180970Y-96043035D01*
X114395137Y-96142903D01*
X114623392Y-96204063D01*
X114799834Y-96219500D01*
X114858799Y-96224659D01*
X114858800Y-96224659D01*
X114858801Y-96224659D01*
X114917766Y-96219500D01*
X115094208Y-96204063D01*
X115322463Y-96142903D01*
X115536630Y-96043035D01*
X115730201Y-95907495D01*
X115897295Y-95740401D01*
X116027224Y-95554842D01*
X116081802Y-95511217D01*
X116151300Y-95504023D01*
X116213655Y-95535546D01*
X116230375Y-95554842D01*
X116348575Y-95723650D01*
X116360305Y-95740401D01*
X116527399Y-95907495D01*
X116624184Y-95975264D01*
X116720965Y-96043032D01*
X116720967Y-96043033D01*
X116720970Y-96043035D01*
X116935137Y-96142903D01*
X117163392Y-96204063D01*
X117339834Y-96219500D01*
X117398799Y-96224659D01*
X117398800Y-96224659D01*
X117398801Y-96224659D01*
X117457766Y-96219500D01*
X117634208Y-96204063D01*
X117862463Y-96142903D01*
X118076630Y-96043035D01*
X118270201Y-95907495D01*
X118437295Y-95740401D01*
X118567224Y-95554842D01*
X118621802Y-95511217D01*
X118691300Y-95504023D01*
X118753655Y-95535546D01*
X118770375Y-95554842D01*
X118888575Y-95723650D01*
X118900305Y-95740401D01*
X119067399Y-95907495D01*
X119164184Y-95975264D01*
X119260965Y-96043032D01*
X119260967Y-96043033D01*
X119260970Y-96043035D01*
X119475137Y-96142903D01*
X119703392Y-96204063D01*
X119879834Y-96219500D01*
X119938799Y-96224659D01*
X119938800Y-96224659D01*
X119938801Y-96224659D01*
X119997766Y-96219500D01*
X120174208Y-96204063D01*
X120402463Y-96142903D01*
X120616630Y-96043035D01*
X120810201Y-95907495D01*
X120977295Y-95740401D01*
X121107224Y-95554842D01*
X121161802Y-95511217D01*
X121231300Y-95504023D01*
X121293655Y-95535546D01*
X121310375Y-95554842D01*
X121428575Y-95723650D01*
X121440305Y-95740401D01*
X121607399Y-95907495D01*
X121704184Y-95975265D01*
X121800965Y-96043032D01*
X121800967Y-96043033D01*
X121800970Y-96043035D01*
X122015137Y-96142903D01*
X122243392Y-96204063D01*
X122419834Y-96219500D01*
X122478799Y-96224659D01*
X122478800Y-96224659D01*
X122478801Y-96224659D01*
X122537766Y-96219500D01*
X122714208Y-96204063D01*
X122942463Y-96142903D01*
X123156630Y-96043035D01*
X123350201Y-95907495D01*
X123517295Y-95740401D01*
X123647224Y-95554842D01*
X123701802Y-95511217D01*
X123771300Y-95504023D01*
X123833655Y-95535546D01*
X123850375Y-95554842D01*
X123968575Y-95723650D01*
X123980305Y-95740401D01*
X124147399Y-95907495D01*
X124244184Y-95975265D01*
X124340965Y-96043032D01*
X124340967Y-96043033D01*
X124340970Y-96043035D01*
X124555137Y-96142903D01*
X124783392Y-96204063D01*
X124959834Y-96219500D01*
X125018799Y-96224659D01*
X125018800Y-96224659D01*
X125018801Y-96224659D01*
X125077766Y-96219500D01*
X125254208Y-96204063D01*
X125482463Y-96142903D01*
X125696630Y-96043035D01*
X125890201Y-95907495D01*
X126057295Y-95740401D01*
X126187224Y-95554842D01*
X126241802Y-95511217D01*
X126311300Y-95504023D01*
X126373655Y-95535546D01*
X126390375Y-95554842D01*
X126508575Y-95723650D01*
X126520305Y-95740401D01*
X126687399Y-95907495D01*
X126784184Y-95975265D01*
X126880965Y-96043032D01*
X126880967Y-96043033D01*
X126880970Y-96043035D01*
X127095137Y-96142903D01*
X127323392Y-96204063D01*
X127499834Y-96219500D01*
X127558799Y-96224659D01*
X127558800Y-96224659D01*
X127558801Y-96224659D01*
X127577739Y-96223001D01*
X127794208Y-96204063D01*
X127831394Y-96194099D01*
X127838903Y-96192087D01*
X127908753Y-96193748D01*
X127958679Y-96224180D01*
X128640211Y-96905712D01*
X128642763Y-96908424D01*
X128682372Y-96953133D01*
X128731532Y-96987065D01*
X128734549Y-96989286D01*
X128773427Y-97019744D01*
X128781572Y-97026126D01*
X128790108Y-97029968D01*
X128790115Y-97029971D01*
X128809667Y-97040998D01*
X128817374Y-97046318D01*
X128873239Y-97067505D01*
X128876670Y-97068926D01*
X128931161Y-97093450D01*
X128931164Y-97093450D01*
X128931165Y-97093451D01*
X128934269Y-97094019D01*
X128940365Y-97095136D01*
X128961996Y-97101165D01*
X128970755Y-97104488D01*
X129030044Y-97111686D01*
X129033747Y-97112250D01*
X129072217Y-97119300D01*
X129092515Y-97123020D01*
X129092515Y-97123019D01*
X129092516Y-97123020D01*
X129152144Y-97119413D01*
X129155889Y-97119300D01*
X135181922Y-97119300D01*
X135185666Y-97119413D01*
X135245282Y-97123019D01*
X135245282Y-97123018D01*
X135245285Y-97123019D01*
X135281527Y-97116377D01*
X135304036Y-97112253D01*
X135307740Y-97111689D01*
X135329088Y-97109096D01*
X135367045Y-97104488D01*
X135375805Y-97101165D01*
X135397421Y-97095138D01*
X135406639Y-97093450D01*
X135461116Y-97068932D01*
X135464558Y-97067505D01*
X135520426Y-97046318D01*
X135524964Y-97043185D01*
X135528135Y-97040997D01*
X135547680Y-97029972D01*
X135556228Y-97026126D01*
X135603266Y-96989272D01*
X135606259Y-96987069D01*
X135655429Y-96953132D01*
X135695052Y-96908405D01*
X135697586Y-96905713D01*
X136372882Y-96230417D01*
X136434205Y-96196933D01*
X136460563Y-96194099D01*
X136534119Y-96194099D01*
X136601158Y-96213784D01*
X136646913Y-96266588D01*
X136656857Y-96335746D01*
X136641506Y-96380099D01*
X136586821Y-96474815D01*
X136586818Y-96474822D01*
X136528327Y-96654840D01*
X136528326Y-96654844D01*
X136508540Y-96843100D01*
X136528326Y-97031356D01*
X136528327Y-97031359D01*
X136586818Y-97211377D01*
X136586821Y-97211384D01*
X136681467Y-97375316D01*
X136808129Y-97515988D01*
X136961265Y-97627248D01*
X136961270Y-97627251D01*
X137082906Y-97681408D01*
X137136143Y-97726658D01*
X137156464Y-97793508D01*
X137137418Y-97860731D01*
X137085052Y-97906986D01*
X137032062Y-97918686D01*
X106101690Y-97816829D01*
X106034715Y-97796924D01*
X105989135Y-97743970D01*
X105979419Y-97674779D01*
X106008653Y-97611319D01*
X106035523Y-97588217D01*
X106604453Y-97226172D01*
X107010853Y-96667372D01*
X107341053Y-96032372D01*
X107315653Y-95016372D01*
X106909253Y-94051172D01*
X106909252Y-94051171D01*
X106909252Y-94051170D01*
X106274254Y-93441572D01*
X105409305Y-93044163D01*
X107764677Y-93044163D01*
X107786696Y-93044163D01*
X107795012Y-93033055D01*
X107797789Y-93029609D01*
X107835768Y-92985778D01*
X107838785Y-92982537D01*
X107892337Y-92928985D01*
X107895578Y-92925968D01*
X107939408Y-92887989D01*
X107942855Y-92885212D01*
X108118697Y-92753575D01*
X108122334Y-92751050D01*
X108171125Y-92719693D01*
X108174933Y-92717433D01*
X108241409Y-92681134D01*
X108245368Y-92679153D01*
X108298133Y-92655055D01*
X108302224Y-92653361D01*
X108503597Y-92578254D01*
X108507267Y-92577014D01*
X108555825Y-92562285D01*
X108559564Y-92561277D01*
X108624049Y-92546038D01*
X108627845Y-92545265D01*
X108677869Y-92536701D01*
X108681707Y-92536166D01*
X108788381Y-92524699D01*
X108790036Y-92524544D01*
X108811728Y-92522799D01*
X108813385Y-92522688D01*
X108841724Y-92521170D01*
X108843384Y-92521103D01*
X108865093Y-92520523D01*
X108866749Y-92520501D01*
X108995455Y-92520500D01*
X108852381Y-92377426D01*
X108849906Y-92374804D01*
X108818497Y-92339511D01*
X108816178Y-92336748D01*
X108777911Y-92288352D01*
X108775757Y-92285458D01*
X108748647Y-92246743D01*
X108746664Y-92243728D01*
X108622229Y-92041986D01*
X108620425Y-92038862D01*
X108597995Y-91997261D01*
X108596376Y-91994037D01*
X108570304Y-91938122D01*
X108568875Y-91934810D01*
X108551434Y-91890907D01*
X108550201Y-91887519D01*
X108476252Y-91664359D01*
X108475276Y-91661119D01*
X108463653Y-91618360D01*
X108462855Y-91615073D01*
X108450748Y-91558513D01*
X108450130Y-91555187D01*
X108448077Y-91542163D01*
X108441422Y-91542163D01*
X108432839Y-91565176D01*
X108431145Y-91569267D01*
X108407047Y-91622032D01*
X108405066Y-91625991D01*
X108368767Y-91692467D01*
X108366507Y-91696275D01*
X108335150Y-91745066D01*
X108332625Y-91748703D01*
X108200988Y-91924545D01*
X108198211Y-91927992D01*
X108160232Y-91971822D01*
X108157215Y-91975063D01*
X108103663Y-92028615D01*
X108100422Y-92031632D01*
X108056592Y-92069611D01*
X108053145Y-92072388D01*
X107877303Y-92204025D01*
X107873666Y-92206550D01*
X107824875Y-92237907D01*
X107821067Y-92240167D01*
X107764677Y-92270958D01*
X107764677Y-93044163D01*
X105409305Y-93044163D01*
X105334454Y-93009772D01*
X105334453Y-93009772D01*
X105218999Y-93021317D01*
X104064453Y-93136771D01*
X104064452Y-93136772D01*
X102997653Y-93873371D01*
X102752152Y-94377294D01*
X102705094Y-94428941D01*
X102637585Y-94446947D01*
X102571057Y-94425597D01*
X102526633Y-94371669D01*
X102516678Y-94322617D01*
X102558055Y-80544163D01*
X103682059Y-80544163D01*
X104266677Y-80544163D01*
X104266677Y-79284727D01*
X104192580Y-79178907D01*
X104191077Y-79176657D01*
X104172031Y-79146760D01*
X104170626Y-79144445D01*
X104147496Y-79104378D01*
X104146195Y-79102008D01*
X104129840Y-79070588D01*
X104128644Y-79068163D01*
X104116520Y-79042163D01*
X103686570Y-79042163D01*
X103682059Y-80544163D01*
X102558055Y-80544163D01*
X102580577Y-73044163D01*
X105264677Y-73044163D01*
X106766677Y-73044163D01*
X106766677Y-71865840D01*
X105588288Y-72284823D01*
X105563532Y-72290847D01*
X105358865Y-72318808D01*
X105333399Y-72319645D01*
X105264677Y-72314822D01*
X105264677Y-73044163D01*
X102580577Y-73044163D01*
X102585088Y-71542163D01*
X107764677Y-71542163D01*
X107764677Y-72902530D01*
X107766214Y-72900048D01*
X107900236Y-72722575D01*
X107915652Y-72705665D01*
X108080002Y-72555840D01*
X108098262Y-72542050D01*
X108287344Y-72424975D01*
X108307828Y-72414775D01*
X108502098Y-72339514D01*
X108493944Y-72329106D01*
X108491723Y-72326089D01*
X108455658Y-72273838D01*
X108416523Y-72223887D01*
X108414305Y-72220872D01*
X108386443Y-72180511D01*
X108384410Y-72177368D01*
X108351264Y-72122547D01*
X108349423Y-72119285D01*
X108342443Y-72105989D01*
X108334710Y-72093194D01*
X108332871Y-72089933D01*
X108303104Y-72033215D01*
X108301465Y-72029849D01*
X108281332Y-71985117D01*
X108279899Y-71981655D01*
X108257381Y-71922285D01*
X108231321Y-71864381D01*
X108229888Y-71860919D01*
X108212486Y-71815033D01*
X108211264Y-71811491D01*
X108192208Y-71750333D01*
X108191203Y-71746727D01*
X108187632Y-71732241D01*
X108183185Y-71717969D01*
X108182180Y-71714363D01*
X108166849Y-71652167D01*
X108166062Y-71648505D01*
X108157216Y-71600240D01*
X108156652Y-71596537D01*
X108150049Y-71542163D01*
X107764677Y-71542163D01*
X102585088Y-71542163D01*
X102589536Y-70060898D01*
X102609421Y-69993921D01*
X102662362Y-69948324D01*
X102731551Y-69938589D01*
X102795019Y-69967804D01*
X102818087Y-69994604D01*
X102819848Y-69997367D01*
X103066398Y-70282845D01*
X103302453Y-70556172D01*
X103302456Y-70556174D01*
X103302457Y-70556176D01*
X103861252Y-71089572D01*
X103861251Y-71089572D01*
X103934341Y-71094701D01*
X105309053Y-71191172D01*
X106452053Y-70784772D01*
X107112453Y-69794172D01*
X107366453Y-69235372D01*
X107417253Y-68219372D01*
X107380175Y-68122398D01*
X109750904Y-68122398D01*
X109750905Y-68122400D01*
X110973199Y-68122400D01*
X110973200Y-67572400D01*
X111473200Y-67572400D01*
X111473200Y-68122400D01*
X112695495Y-68122400D01*
X112695495Y-68122398D01*
X114700904Y-68122398D01*
X114700905Y-68122400D01*
X115923200Y-68122400D01*
X115923200Y-67572400D01*
X116423200Y-67572400D01*
X116423200Y-68122400D01*
X117645495Y-68122400D01*
X117645495Y-68122398D01*
X117645300Y-68119913D01*
X117599481Y-67962201D01*
X117515885Y-67820847D01*
X117515878Y-67820838D01*
X117399761Y-67704721D01*
X117399752Y-67704714D01*
X117258396Y-67621117D01*
X117258393Y-67621116D01*
X117100695Y-67575300D01*
X117100689Y-67575299D01*
X117063849Y-67572400D01*
X116423200Y-67572400D01*
X115923200Y-67572400D01*
X115282550Y-67572400D01*
X115245710Y-67575299D01*
X115245704Y-67575300D01*
X115088006Y-67621116D01*
X115088003Y-67621117D01*
X114946647Y-67704714D01*
X114946638Y-67704721D01*
X114830521Y-67820838D01*
X114830514Y-67820847D01*
X114746918Y-67962201D01*
X114701099Y-68119913D01*
X114700904Y-68122398D01*
X112695495Y-68122398D01*
X112695300Y-68119913D01*
X112649481Y-67962201D01*
X112565885Y-67820847D01*
X112565878Y-67820838D01*
X112449761Y-67704721D01*
X112449752Y-67704714D01*
X112308396Y-67621117D01*
X112308393Y-67621116D01*
X112150695Y-67575300D01*
X112150689Y-67575299D01*
X112113849Y-67572400D01*
X111473200Y-67572400D01*
X110973200Y-67572400D01*
X110332550Y-67572400D01*
X110295710Y-67575299D01*
X110295704Y-67575300D01*
X110138006Y-67621116D01*
X110138003Y-67621117D01*
X109996647Y-67704714D01*
X109996638Y-67704721D01*
X109880521Y-67820838D01*
X109880514Y-67820847D01*
X109796918Y-67962201D01*
X109751099Y-68119913D01*
X109750904Y-68122398D01*
X107380175Y-68122398D01*
X107190448Y-67626189D01*
X107087055Y-67355776D01*
X107087051Y-67355769D01*
X106440210Y-66567432D01*
X106412903Y-66503120D01*
X106424701Y-66434253D01*
X106471859Y-66382698D01*
X106535862Y-66364777D01*
X122406057Y-66338275D01*
X122473126Y-66357848D01*
G37*
%TD.AperFunction*%
%TA.AperFunction,Conductor*%
G36*
X120178102Y-85476453D02*
G01*
X120197227Y-85497295D01*
X120201105Y-85502633D01*
X120204308Y-85507510D01*
X120228028Y-85547617D01*
X120228033Y-85547624D01*
X120242190Y-85561780D01*
X120254827Y-85576575D01*
X120266606Y-85592787D01*
X120302049Y-85622108D01*
X120302509Y-85622488D01*
X120306820Y-85626410D01*
X120985286Y-86304876D01*
X121646208Y-86965798D01*
X121679693Y-87027121D01*
X121681817Y-87066732D01*
X121676702Y-87114316D01*
X121676700Y-87114330D01*
X121676700Y-89610070D01*
X121676701Y-89610076D01*
X121683108Y-89669683D01*
X121733402Y-89804528D01*
X121733406Y-89804535D01*
X121819652Y-89919744D01*
X121819655Y-89919747D01*
X121934864Y-90005993D01*
X121934871Y-90005997D01*
X122069717Y-90056291D01*
X122069716Y-90056291D01*
X122076644Y-90057035D01*
X122129327Y-90062700D01*
X124691746Y-90062699D01*
X124758785Y-90082384D01*
X124779427Y-90099018D01*
X125816628Y-91136219D01*
X125850113Y-91197542D01*
X125845129Y-91267234D01*
X125803257Y-91323167D01*
X125737793Y-91347584D01*
X125728947Y-91347900D01*
X120918852Y-91347900D01*
X120851813Y-91328215D01*
X120831171Y-91311581D01*
X118297940Y-88778349D01*
X118264455Y-88717026D01*
X118269439Y-88647334D01*
X118311311Y-88591401D01*
X118335178Y-88577392D01*
X118359530Y-88566551D01*
X118512671Y-88455288D01*
X118639333Y-88314616D01*
X118733979Y-88150684D01*
X118792474Y-87970656D01*
X118812260Y-87782400D01*
X118792474Y-87594144D01*
X118749816Y-87462857D01*
X118743388Y-87443073D01*
X118741393Y-87373232D01*
X118777473Y-87313399D01*
X118840174Y-87282571D01*
X118887099Y-87283464D01*
X119018054Y-87311300D01*
X119018055Y-87311300D01*
X119207344Y-87311300D01*
X119207346Y-87311300D01*
X119392503Y-87271944D01*
X119565430Y-87194951D01*
X119718571Y-87083688D01*
X119845233Y-86943016D01*
X119939879Y-86779084D01*
X119998374Y-86599056D01*
X120018160Y-86410800D01*
X119998374Y-86222544D01*
X119982353Y-86173239D01*
X119978968Y-86162820D01*
X119972899Y-86124501D01*
X119972899Y-85570166D01*
X119992584Y-85503127D01*
X120045388Y-85457372D01*
X120114546Y-85447428D01*
X120178102Y-85476453D01*
G37*
%TD.AperFunction*%
%TA.AperFunction,Conductor*%
G36*
X148570434Y-79848269D02*
G01*
X148626367Y-79890141D01*
X148650784Y-79955605D01*
X148651100Y-79964451D01*
X148651100Y-80973900D01*
X148631415Y-81040939D01*
X148578611Y-81086694D01*
X148527101Y-81097900D01*
X148428730Y-81097900D01*
X148428723Y-81097901D01*
X148369116Y-81104308D01*
X148234271Y-81154602D01*
X148234264Y-81154606D01*
X148119055Y-81240852D01*
X148119052Y-81240855D01*
X148032806Y-81356064D01*
X148032802Y-81356071D01*
X147982508Y-81490917D01*
X147978004Y-81532814D01*
X147976101Y-81550523D01*
X147976100Y-81550535D01*
X147976100Y-83346270D01*
X147976101Y-83346276D01*
X147982508Y-83405883D01*
X148032802Y-83540728D01*
X148032806Y-83540735D01*
X148119052Y-83655944D01*
X148119055Y-83655947D01*
X148234264Y-83742193D01*
X148234271Y-83742197D01*
X148234274Y-83742198D01*
X148366198Y-83791402D01*
X148422131Y-83833273D01*
X148446549Y-83898737D01*
X148431698Y-83967010D01*
X148410547Y-83995265D01*
X148288486Y-84117326D01*
X148153000Y-84310820D01*
X148152999Y-84310822D01*
X148053170Y-84524907D01*
X148053167Y-84524913D01*
X147995964Y-84738399D01*
X147995964Y-84738400D01*
X148892914Y-84738400D01*
X148867107Y-84778556D01*
X148826600Y-84916511D01*
X148826600Y-85060289D01*
X148867107Y-85198244D01*
X148892914Y-85238400D01*
X147995964Y-85238400D01*
X148053167Y-85451886D01*
X148053170Y-85451892D01*
X148152999Y-85665978D01*
X148288494Y-85859482D01*
X148455517Y-86026505D01*
X148641195Y-86156519D01*
X148684819Y-86211096D01*
X148692012Y-86280595D01*
X148660490Y-86342949D01*
X148641195Y-86359669D01*
X148455194Y-86489908D01*
X148288105Y-86656997D01*
X148152565Y-86850569D01*
X148152564Y-86850571D01*
X148052698Y-87064735D01*
X148052694Y-87064744D01*
X147991538Y-87292986D01*
X147991536Y-87292996D01*
X147970941Y-87528399D01*
X147970941Y-87528400D01*
X147991536Y-87763803D01*
X147991538Y-87763813D01*
X148052694Y-87992055D01*
X148052696Y-87992059D01*
X148052697Y-87992063D01*
X148149216Y-88199047D01*
X148152565Y-88206230D01*
X148152567Y-88206234D01*
X148288101Y-88399795D01*
X148288106Y-88399802D01*
X148455197Y-88566893D01*
X148455203Y-88566898D01*
X148640758Y-88696825D01*
X148684383Y-88751402D01*
X148691577Y-88820900D01*
X148660054Y-88883255D01*
X148640758Y-88899975D01*
X148455197Y-89029905D01*
X148288105Y-89196997D01*
X148152948Y-89390023D01*
X148098371Y-89433648D01*
X148051373Y-89442900D01*
X143591852Y-89442900D01*
X143524813Y-89423215D01*
X143504171Y-89406581D01*
X142051219Y-87953628D01*
X142017734Y-87892305D01*
X142014900Y-87865947D01*
X142014900Y-86542163D01*
X143012900Y-86542163D01*
X143012900Y-87503925D01*
X143553137Y-88044163D01*
X144266677Y-88044163D01*
X144266677Y-86542163D01*
X145264677Y-86542163D01*
X145264677Y-88044163D01*
X146766677Y-88044163D01*
X146766677Y-86542163D01*
X145264677Y-86542163D01*
X144266677Y-86542163D01*
X143012900Y-86542163D01*
X142014900Y-86542163D01*
X142014900Y-84283713D01*
X143012900Y-84283713D01*
X143012900Y-85544163D01*
X144266677Y-85544163D01*
X145264677Y-85544163D01*
X146766677Y-85544163D01*
X146766677Y-84042163D01*
X145533829Y-84042163D01*
X145497789Y-84057761D01*
X145494163Y-84059197D01*
X145446126Y-84076491D01*
X145442419Y-84077696D01*
X145360828Y-84101397D01*
X145280093Y-84127839D01*
X145276353Y-84128935D01*
X145264677Y-84131961D01*
X145264677Y-85544163D01*
X144266677Y-85544163D01*
X144266677Y-84534231D01*
X144264400Y-84534653D01*
X144222416Y-84541303D01*
X144219201Y-84541726D01*
X144163985Y-84547533D01*
X144160746Y-84547788D01*
X144118262Y-84550015D01*
X144115016Y-84550100D01*
X143870184Y-84550100D01*
X143866938Y-84550015D01*
X143824454Y-84547788D01*
X143821215Y-84547533D01*
X143765999Y-84541726D01*
X143762784Y-84541303D01*
X143720800Y-84534653D01*
X143717608Y-84534062D01*
X143478153Y-84483165D01*
X143474996Y-84482407D01*
X143433928Y-84471403D01*
X143430817Y-84470482D01*
X143378009Y-84453325D01*
X143374946Y-84452241D01*
X143335233Y-84436996D01*
X143332233Y-84435753D01*
X143108590Y-84336179D01*
X143105662Y-84334782D01*
X143067790Y-84315487D01*
X143064936Y-84313938D01*
X143016852Y-84286178D01*
X143014084Y-84284482D01*
X143012900Y-84283713D01*
X142014900Y-84283713D01*
X142014900Y-82895926D01*
X142016624Y-82880306D01*
X142016339Y-82880279D01*
X142017073Y-82872517D01*
X142014931Y-82804323D01*
X142014900Y-82802376D01*
X142014900Y-82773840D01*
X142014900Y-82773834D01*
X142014031Y-82766963D01*
X142013573Y-82761136D01*
X142013038Y-82744099D01*
X142012110Y-82714557D01*
X142006519Y-82695314D01*
X142002573Y-82676262D01*
X142000064Y-82656392D01*
X141982904Y-82613051D01*
X141981024Y-82607563D01*
X141968018Y-82562794D01*
X141957822Y-82545554D01*
X141949261Y-82528078D01*
X141941887Y-82509454D01*
X141940884Y-82508073D01*
X141914479Y-82471729D01*
X141911288Y-82466870D01*
X141909200Y-82463340D01*
X141887570Y-82426764D01*
X141887568Y-82426762D01*
X141887565Y-82426758D01*
X141873406Y-82412599D01*
X141860768Y-82397803D01*
X141858448Y-82394610D01*
X141848994Y-82381597D01*
X141843890Y-82377375D01*
X141813088Y-82351893D01*
X141808776Y-82347970D01*
X140962219Y-81501412D01*
X140952396Y-81489150D01*
X140952175Y-81489334D01*
X140947202Y-81483322D01*
X140897482Y-81436632D01*
X140896082Y-81435275D01*
X140875892Y-81415084D01*
X140870402Y-81410825D01*
X140865977Y-81407047D01*
X140831998Y-81375138D01*
X140831996Y-81375136D01*
X140825687Y-81370553D01*
X140826783Y-81369043D01*
X140784597Y-81326615D01*
X140769941Y-81258299D01*
X140794545Y-81192905D01*
X140850599Y-81151194D01*
X140893599Y-81143500D01*
X145103657Y-81143500D01*
X145130653Y-81146474D01*
X145131052Y-81146563D01*
X145192198Y-81180371D01*
X145225359Y-81241869D01*
X145220008Y-81311534D01*
X145191737Y-81355270D01*
X144677864Y-81869143D01*
X144616541Y-81902628D01*
X144582682Y-81905235D01*
X144525686Y-81901781D01*
X144460302Y-81878327D01*
X144455340Y-81874722D01*
X144445330Y-81867449D01*
X144445329Y-81867448D01*
X144445327Y-81867447D01*
X144272407Y-81790457D01*
X144272402Y-81790455D01*
X144126601Y-81759465D01*
X144087246Y-81751100D01*
X143897954Y-81751100D01*
X143865497Y-81757998D01*
X143712797Y-81790455D01*
X143712792Y-81790457D01*
X143539870Y-81867448D01*
X143539865Y-81867451D01*
X143386729Y-81978711D01*
X143260066Y-82119385D01*
X143165421Y-82283315D01*
X143165418Y-82283322D01*
X143113806Y-82442169D01*
X143106926Y-82463344D01*
X143087140Y-82651600D01*
X143106926Y-82839856D01*
X143106927Y-82839859D01*
X143165418Y-83019877D01*
X143165421Y-83019884D01*
X143260067Y-83183816D01*
X143356226Y-83290611D01*
X143386729Y-83324488D01*
X143539865Y-83435748D01*
X143539870Y-83435751D01*
X143712792Y-83512742D01*
X143712797Y-83512744D01*
X143897954Y-83552100D01*
X143897955Y-83552100D01*
X144087244Y-83552100D01*
X144087246Y-83552100D01*
X144272403Y-83512744D01*
X144445330Y-83435751D01*
X144598471Y-83324488D01*
X144697529Y-83214473D01*
X144757012Y-83177826D01*
X144816729Y-83176435D01*
X144822267Y-83177673D01*
X144855914Y-83176615D01*
X144869626Y-83176185D01*
X144875330Y-83176268D01*
X144883037Y-83176735D01*
X144883037Y-83176734D01*
X144883038Y-83176735D01*
X144910773Y-83174925D01*
X144912820Y-83174826D01*
X144980227Y-83172709D01*
X144980232Y-83172707D01*
X144987931Y-83171489D01*
X144987959Y-83171665D01*
X144993538Y-83170685D01*
X144993505Y-83170510D01*
X145001158Y-83169031D01*
X145001163Y-83169031D01*
X145065254Y-83148042D01*
X145067227Y-83147432D01*
X145131990Y-83128618D01*
X145131993Y-83128615D01*
X145139155Y-83125517D01*
X145139226Y-83125683D01*
X145144376Y-83123350D01*
X145144299Y-83123186D01*
X145151345Y-83119850D01*
X145151353Y-83119848D01*
X145208195Y-83083591D01*
X145209928Y-83082525D01*
X145268020Y-83048170D01*
X145268020Y-83048169D01*
X145274183Y-83043389D01*
X145274293Y-83043531D01*
X145278708Y-83039985D01*
X145278593Y-83039847D01*
X145284583Y-83034867D01*
X145284593Y-83034861D01*
X145330655Y-82985581D01*
X145332045Y-82984143D01*
X148439421Y-79876768D01*
X148500742Y-79843285D01*
X148570434Y-79848269D01*
G37*
%TD.AperFunction*%
%TA.AperFunction,Conductor*%
G36*
X113995590Y-77991691D02*
G01*
X113997701Y-77993753D01*
X114661381Y-78657433D01*
X114694866Y-78718756D01*
X114697700Y-78745114D01*
X114697700Y-78999995D01*
X114678015Y-79067034D01*
X114661381Y-79087676D01*
X113967008Y-79782048D01*
X113954751Y-79791869D01*
X113954934Y-79792090D01*
X113948922Y-79797063D01*
X113902232Y-79846781D01*
X113900879Y-79848178D01*
X113880689Y-79868368D01*
X113880677Y-79868381D01*
X113876421Y-79873866D01*
X113872637Y-79878296D01*
X113840737Y-79912267D01*
X113840736Y-79912269D01*
X113831084Y-79929825D01*
X113820410Y-79946075D01*
X113808129Y-79961910D01*
X113808124Y-79961917D01*
X113789615Y-80004687D01*
X113787045Y-80009933D01*
X113764603Y-80050755D01*
X113759622Y-80070156D01*
X113753321Y-80088559D01*
X113745362Y-80106951D01*
X113745361Y-80106955D01*
X113738071Y-80152976D01*
X113736887Y-80158695D01*
X113725299Y-80203832D01*
X113725299Y-80223868D01*
X113723773Y-80243256D01*
X113720822Y-80261894D01*
X113720640Y-80263045D01*
X113723833Y-80296834D01*
X113725024Y-80309429D01*
X113725299Y-80315266D01*
X113725299Y-81317913D01*
X113705614Y-81384952D01*
X113693449Y-81400885D01*
X113618266Y-81484384D01*
X113523621Y-81648315D01*
X113523618Y-81648322D01*
X113465860Y-81826084D01*
X113465126Y-81828344D01*
X113453028Y-81943451D01*
X113445631Y-82013836D01*
X113445340Y-82016600D01*
X113465126Y-82204856D01*
X113465127Y-82204859D01*
X113523618Y-82384877D01*
X113523621Y-82384884D01*
X113618267Y-82548816D01*
X113713456Y-82654534D01*
X113744929Y-82689488D01*
X113898065Y-82800748D01*
X113898070Y-82800751D01*
X114070992Y-82877742D01*
X114070997Y-82877744D01*
X114256154Y-82917100D01*
X114256155Y-82917100D01*
X114445444Y-82917100D01*
X114445446Y-82917100D01*
X114630603Y-82877744D01*
X114803530Y-82800751D01*
X114956671Y-82689488D01*
X115083333Y-82548816D01*
X115177979Y-82384884D01*
X115236474Y-82204856D01*
X115256260Y-82016600D01*
X115236474Y-81828344D01*
X115177979Y-81648316D01*
X115083333Y-81484384D01*
X115040337Y-81436632D01*
X115008150Y-81400884D01*
X114977920Y-81337892D01*
X114976300Y-81317912D01*
X114976300Y-80991702D01*
X114995985Y-80924663D01*
X115048789Y-80878908D01*
X115117947Y-80868964D01*
X115134893Y-80872625D01*
X115245631Y-80904798D01*
X115282506Y-80907700D01*
X115598219Y-80907700D01*
X115665258Y-80927385D01*
X115711013Y-80980189D01*
X115720957Y-81049347D01*
X115709311Y-81082984D01*
X115710662Y-81083586D01*
X115708018Y-81089522D01*
X115649527Y-81269540D01*
X115649526Y-81269544D01*
X115629740Y-81457800D01*
X115649526Y-81646056D01*
X115649527Y-81646059D01*
X115708018Y-81826077D01*
X115708021Y-81826084D01*
X115802667Y-81990016D01*
X115882993Y-82079227D01*
X115929329Y-82130688D01*
X116082465Y-82241948D01*
X116082470Y-82241951D01*
X116255392Y-82318942D01*
X116255397Y-82318944D01*
X116440554Y-82358300D01*
X116440555Y-82358300D01*
X116629844Y-82358300D01*
X116629846Y-82358300D01*
X116815003Y-82318944D01*
X116987930Y-82241951D01*
X117141071Y-82130688D01*
X117267733Y-81990016D01*
X117362379Y-81826084D01*
X117420874Y-81646056D01*
X117440660Y-81457800D01*
X117420874Y-81269544D01*
X117362379Y-81089516D01*
X117298079Y-80978146D01*
X117281607Y-80910247D01*
X117304460Y-80844220D01*
X117342343Y-80809417D01*
X117400065Y-80775281D01*
X117516281Y-80659065D01*
X117583968Y-80544611D01*
X117635036Y-80496928D01*
X117703778Y-80484424D01*
X117768368Y-80511069D01*
X117808298Y-80568404D01*
X117814700Y-80607732D01*
X117814700Y-81655059D01*
X117812975Y-81670676D01*
X117813261Y-81670703D01*
X117812526Y-81678470D01*
X117814669Y-81746650D01*
X117814700Y-81748597D01*
X117814700Y-81777147D01*
X117814701Y-81777164D01*
X117815568Y-81784035D01*
X117816026Y-81789854D01*
X117817490Y-81836428D01*
X117817491Y-81836431D01*
X117823080Y-81855671D01*
X117827024Y-81874715D01*
X117829536Y-81894596D01*
X117832111Y-81901100D01*
X117846690Y-81937923D01*
X117848582Y-81943451D01*
X117858826Y-81978711D01*
X117861582Y-81988194D01*
X117867819Y-81998741D01*
X117871780Y-82005438D01*
X117880338Y-82022907D01*
X117887714Y-82041536D01*
X117915098Y-82079227D01*
X117918306Y-82084111D01*
X117942027Y-82124220D01*
X117942033Y-82124228D01*
X117956190Y-82138384D01*
X117968827Y-82153179D01*
X117980606Y-82169391D01*
X118014109Y-82197107D01*
X118016509Y-82199092D01*
X118020820Y-82203014D01*
X118354957Y-82537151D01*
X118685581Y-82867775D01*
X118719066Y-82929098D01*
X118721900Y-82955456D01*
X118721900Y-85519302D01*
X118702215Y-85586341D01*
X118664703Y-85622108D01*
X118665227Y-85622829D01*
X118506829Y-85737911D01*
X118380166Y-85878585D01*
X118285521Y-86042515D01*
X118285518Y-86042522D01*
X118230589Y-86211578D01*
X118227026Y-86222544D01*
X118207240Y-86410800D01*
X118227026Y-86599056D01*
X118227027Y-86599059D01*
X118276111Y-86750126D01*
X118278106Y-86819968D01*
X118242025Y-86879800D01*
X118179324Y-86910628D01*
X118132400Y-86909735D01*
X118001446Y-86881900D01*
X117812154Y-86881900D01*
X117792631Y-86886049D01*
X117776905Y-86889392D01*
X117707238Y-86884074D01*
X117651506Y-86841936D01*
X117627402Y-86776355D01*
X117635773Y-86722611D01*
X117659442Y-86662590D01*
X117659441Y-86662590D01*
X117659444Y-86662585D01*
X117669900Y-86575518D01*
X117669900Y-85983282D01*
X117659444Y-85896215D01*
X117604806Y-85757662D01*
X117596596Y-85746835D01*
X117575735Y-85719326D01*
X117550911Y-85654014D01*
X117565339Y-85585651D01*
X117575735Y-85569474D01*
X117604804Y-85531140D01*
X117604806Y-85531138D01*
X117659444Y-85392585D01*
X117669900Y-85305518D01*
X117669900Y-84713282D01*
X117659444Y-84626215D01*
X117604806Y-84487662D01*
X117603562Y-84486022D01*
X117575421Y-84448912D01*
X117550597Y-84383601D01*
X117565025Y-84315237D01*
X117575422Y-84299058D01*
X117604365Y-84260892D01*
X117658954Y-84122463D01*
X117669400Y-84035471D01*
X117669400Y-83989400D01*
X114699400Y-83989400D01*
X114699400Y-84035471D01*
X114709846Y-84122464D01*
X114764255Y-84260438D01*
X114770536Y-84330024D01*
X114738199Y-84391960D01*
X114683500Y-84425002D01*
X114663613Y-84430780D01*
X114663610Y-84430781D01*
X114646366Y-84440979D01*
X114628905Y-84449533D01*
X114610274Y-84456910D01*
X114610262Y-84456917D01*
X114572570Y-84484302D01*
X114567687Y-84487509D01*
X114527580Y-84511229D01*
X114513414Y-84525395D01*
X114498624Y-84538027D01*
X114482414Y-84549804D01*
X114482411Y-84549807D01*
X114452710Y-84585709D01*
X114448777Y-84590031D01*
X113357408Y-85681399D01*
X113345151Y-85691220D01*
X113345334Y-85691441D01*
X113339322Y-85696414D01*
X113292632Y-85746132D01*
X113291279Y-85747529D01*
X113271089Y-85767719D01*
X113271077Y-85767732D01*
X113266821Y-85773217D01*
X113263037Y-85777647D01*
X113231137Y-85811618D01*
X113231136Y-85811620D01*
X113221484Y-85829176D01*
X113210810Y-85845426D01*
X113198529Y-85861261D01*
X113198524Y-85861268D01*
X113180015Y-85904038D01*
X113177445Y-85909284D01*
X113152844Y-85954035D01*
X113103299Y-86003300D01*
X113044181Y-86018300D01*
X112859154Y-86018300D01*
X112852696Y-86018979D01*
X112852540Y-86017499D01*
X112790511Y-86012763D01*
X112734779Y-85970623D01*
X112711288Y-85911576D01*
X112709444Y-85896215D01*
X112654806Y-85757662D01*
X112646596Y-85746835D01*
X112625735Y-85719326D01*
X112600911Y-85654014D01*
X112615339Y-85585651D01*
X112625735Y-85569474D01*
X112654804Y-85531140D01*
X112654806Y-85531138D01*
X112709444Y-85392585D01*
X112719900Y-85305518D01*
X112719900Y-84713282D01*
X112709444Y-84626215D01*
X112654806Y-84487662D01*
X112654690Y-84487509D01*
X112625734Y-84449324D01*
X112600911Y-84384012D01*
X112615339Y-84315648D01*
X112625728Y-84299482D01*
X112654806Y-84261138D01*
X112709444Y-84122585D01*
X112719900Y-84035518D01*
X112719900Y-83489400D01*
X114699400Y-83489400D01*
X115934400Y-83489400D01*
X115934400Y-82944400D01*
X116434400Y-82944400D01*
X116434400Y-83489400D01*
X117669400Y-83489400D01*
X117669400Y-83443328D01*
X117658954Y-83356336D01*
X117604365Y-83217908D01*
X117514454Y-83099345D01*
X117395891Y-83009434D01*
X117257463Y-82954845D01*
X117170472Y-82944400D01*
X116434400Y-82944400D01*
X115934400Y-82944400D01*
X115198328Y-82944400D01*
X115111336Y-82954845D01*
X114972908Y-83009434D01*
X114854345Y-83099345D01*
X114764434Y-83217908D01*
X114709845Y-83356336D01*
X114699400Y-83443328D01*
X114699400Y-83489400D01*
X112719900Y-83489400D01*
X112719900Y-83443282D01*
X112709444Y-83356215D01*
X112654806Y-83217662D01*
X112564812Y-83098988D01*
X112446138Y-83008994D01*
X112307585Y-82954356D01*
X112307584Y-82954355D01*
X112307582Y-82954355D01*
X112220519Y-82943900D01*
X112220518Y-82943900D01*
X110248282Y-82943900D01*
X110248281Y-82943900D01*
X110161217Y-82954355D01*
X110161216Y-82954355D01*
X110022661Y-83008994D01*
X109903988Y-83098988D01*
X109813993Y-83217662D01*
X109796173Y-83262851D01*
X109790934Y-83276140D01*
X109787602Y-83284589D01*
X109744696Y-83339734D01*
X109678788Y-83362927D01*
X109672247Y-83363100D01*
X107691699Y-83363100D01*
X107624660Y-83343415D01*
X107578905Y-83290611D01*
X107567699Y-83239100D01*
X107567699Y-82190729D01*
X107567698Y-82190723D01*
X107561291Y-82131117D01*
X107556434Y-82118095D01*
X107537912Y-82068432D01*
X107532928Y-81998741D01*
X107566414Y-81937418D01*
X107627737Y-81903934D01*
X107654094Y-81901100D01*
X107663644Y-81901100D01*
X107663646Y-81901100D01*
X107848803Y-81861744D01*
X108021730Y-81784751D01*
X108174871Y-81673488D01*
X108301533Y-81532816D01*
X108396179Y-81368884D01*
X108454674Y-81188856D01*
X108474460Y-81000600D01*
X108465953Y-80919660D01*
X108478523Y-80850931D01*
X108526255Y-80799908D01*
X108589274Y-80782700D01*
X109974958Y-80782700D01*
X110038078Y-80799967D01*
X110137802Y-80858944D01*
X110161996Y-80865973D01*
X110295626Y-80904797D01*
X110295629Y-80904797D01*
X110295631Y-80904798D01*
X110332506Y-80907700D01*
X110332514Y-80907700D01*
X112113886Y-80907700D01*
X112113894Y-80907700D01*
X112150769Y-80904798D01*
X112150771Y-80904797D01*
X112150773Y-80904797D01*
X112192391Y-80892705D01*
X112308598Y-80858944D01*
X112450065Y-80775281D01*
X112566281Y-80659065D01*
X112649944Y-80517598D01*
X112695798Y-80359769D01*
X112698700Y-80322894D01*
X112698699Y-80156535D01*
X112718385Y-80089496D01*
X112735015Y-80068858D01*
X113451139Y-79352733D01*
X113465922Y-79340107D01*
X113610471Y-79235088D01*
X113737133Y-79094416D01*
X113831779Y-78930484D01*
X113890274Y-78750456D01*
X113910060Y-78562200D01*
X113890274Y-78373944D01*
X113831779Y-78193916D01*
X113802632Y-78143433D01*
X113786160Y-78075534D01*
X113809013Y-78009507D01*
X113863934Y-77966316D01*
X113933487Y-77959675D01*
X113995590Y-77991691D01*
G37*
%TD.AperFunction*%
%TA.AperFunction,Conductor*%
G36*
X135091234Y-68765669D02*
G01*
X135147167Y-68807541D01*
X135171584Y-68873005D01*
X135171900Y-68881851D01*
X135171900Y-69538655D01*
X135182313Y-69640576D01*
X135237037Y-69805722D01*
X135237042Y-69805733D01*
X135328371Y-69953799D01*
X135328374Y-69953803D01*
X135451397Y-70076826D01*
X135475496Y-70091691D01*
X135522221Y-70143637D01*
X135534400Y-70197229D01*
X135534400Y-71129355D01*
X135532675Y-71144972D01*
X135532961Y-71144999D01*
X135532226Y-71152766D01*
X135534369Y-71220946D01*
X135534400Y-71222893D01*
X135534400Y-71251443D01*
X135534401Y-71251460D01*
X135535268Y-71258331D01*
X135535726Y-71264150D01*
X135537190Y-71310724D01*
X135537191Y-71310727D01*
X135542780Y-71329967D01*
X135546724Y-71349011D01*
X135549236Y-71368892D01*
X135564042Y-71406288D01*
X135566390Y-71412219D01*
X135568282Y-71417747D01*
X135576686Y-71446674D01*
X135581282Y-71462490D01*
X135588559Y-71474796D01*
X135591480Y-71479734D01*
X135600036Y-71497200D01*
X135607414Y-71515832D01*
X135626544Y-71542163D01*
X135634798Y-71553523D01*
X135638006Y-71558407D01*
X135661727Y-71598516D01*
X135661733Y-71598524D01*
X135675890Y-71612680D01*
X135688528Y-71627476D01*
X135700305Y-71643686D01*
X135700306Y-71643687D01*
X135736209Y-71673388D01*
X135740520Y-71677310D01*
X136378582Y-72315372D01*
X136412066Y-72376693D01*
X136414900Y-72403051D01*
X136414900Y-74804799D01*
X136477372Y-74804799D01*
X136477386Y-74804798D01*
X136581969Y-74794114D01*
X136650662Y-74806883D01*
X136673612Y-74821929D01*
X136685510Y-74831772D01*
X136689832Y-74835705D01*
X140516314Y-78662188D01*
X140526139Y-78674451D01*
X140526360Y-78674269D01*
X140531328Y-78680274D01*
X140581049Y-78726966D01*
X140582449Y-78728323D01*
X140602640Y-78748515D01*
X140602644Y-78748518D01*
X140602646Y-78748520D01*
X140608128Y-78752773D01*
X140612560Y-78756557D01*
X140646535Y-78788462D01*
X140664093Y-78798114D01*
X140680352Y-78808795D01*
X140696181Y-78821073D01*
X140696186Y-78821075D01*
X140696496Y-78821259D01*
X140696693Y-78821470D01*
X140702347Y-78825856D01*
X140701639Y-78826767D01*
X140744180Y-78872328D01*
X140751082Y-78888987D01*
X140775674Y-78963200D01*
X140803616Y-79047524D01*
X140803686Y-79047733D01*
X140803687Y-79047736D01*
X140833550Y-79096151D01*
X140895788Y-79197056D01*
X141019844Y-79321112D01*
X141169166Y-79413214D01*
X141335703Y-79468399D01*
X141438491Y-79478900D01*
X142063508Y-79478899D01*
X142063516Y-79478898D01*
X142063519Y-79478898D01*
X142119802Y-79473148D01*
X142166297Y-79468399D01*
X142332834Y-79413214D01*
X142482156Y-79321112D01*
X142575819Y-79227448D01*
X142637142Y-79193964D01*
X142706834Y-79198948D01*
X142751181Y-79227449D01*
X142844844Y-79321112D01*
X142870439Y-79336899D01*
X142917164Y-79388847D01*
X142923360Y-79407918D01*
X142924120Y-79407682D01*
X142926350Y-79414840D01*
X142950863Y-79469307D01*
X142952296Y-79472766D01*
X142973481Y-79528624D01*
X142973481Y-79528625D01*
X142978805Y-79536338D01*
X142989824Y-79555876D01*
X142993671Y-79564423D01*
X142997551Y-79570840D01*
X142995418Y-79572129D01*
X143016835Y-79625905D01*
X143016696Y-79650429D01*
X143010940Y-79705199D01*
X143010940Y-79705200D01*
X143014450Y-79738600D01*
X143016231Y-79755539D01*
X143003661Y-79824268D01*
X142955929Y-79875292D01*
X142892910Y-79892500D01*
X138714952Y-79892500D01*
X138647913Y-79872815D01*
X138627271Y-79856181D01*
X138422489Y-79651399D01*
X138389004Y-79590076D01*
X138393988Y-79520384D01*
X138435860Y-79464451D01*
X138471166Y-79446012D01*
X138571519Y-79412758D01*
X138571524Y-79412756D01*
X138720745Y-79320715D01*
X138844715Y-79196745D01*
X138936756Y-79047524D01*
X138936758Y-79047519D01*
X138991905Y-78881097D01*
X138991906Y-78881090D01*
X139002399Y-78778386D01*
X139002400Y-78778373D01*
X139002400Y-78528400D01*
X137863900Y-78528400D01*
X137796861Y-78508715D01*
X137751106Y-78455911D01*
X137739900Y-78404400D01*
X137739900Y-77078400D01*
X138239900Y-77078400D01*
X138239900Y-78028400D01*
X139002399Y-78028400D01*
X139002399Y-77778428D01*
X139002398Y-77778413D01*
X138991905Y-77675702D01*
X138936758Y-77509280D01*
X138936756Y-77509275D01*
X138844715Y-77360054D01*
X138720745Y-77236084D01*
X138571524Y-77144043D01*
X138571519Y-77144041D01*
X138405097Y-77088894D01*
X138405090Y-77088893D01*
X138302386Y-77078400D01*
X138239900Y-77078400D01*
X137739900Y-77078400D01*
X137739899Y-77078399D01*
X137677428Y-77078400D01*
X137677411Y-77078401D01*
X137574702Y-77088894D01*
X137408280Y-77144041D01*
X137408275Y-77144043D01*
X137259057Y-77236082D01*
X137165434Y-77329705D01*
X137104110Y-77363189D01*
X137034419Y-77358205D01*
X136990072Y-77329704D01*
X136896057Y-77235689D01*
X136896056Y-77235688D01*
X136783221Y-77166091D01*
X136746736Y-77143587D01*
X136746731Y-77143585D01*
X136729919Y-77138014D01*
X136580197Y-77088401D01*
X136580195Y-77088400D01*
X136477416Y-77077900D01*
X136477409Y-77077900D01*
X136332253Y-77077900D01*
X136265214Y-77058215D01*
X136244572Y-77041581D01*
X133467172Y-74264181D01*
X133433687Y-74202858D01*
X133438671Y-74133166D01*
X133480543Y-74077233D01*
X133546007Y-74052816D01*
X133554853Y-74052500D01*
X133724044Y-74052500D01*
X133724046Y-74052500D01*
X133909203Y-74013144D01*
X134082130Y-73936151D01*
X134194100Y-73854800D01*
X135152401Y-73854800D01*
X135152401Y-74104786D01*
X135162894Y-74207497D01*
X135218041Y-74373919D01*
X135218043Y-74373924D01*
X135310084Y-74523145D01*
X135434054Y-74647115D01*
X135583275Y-74739156D01*
X135583280Y-74739158D01*
X135749702Y-74794305D01*
X135749709Y-74794306D01*
X135852419Y-74804799D01*
X135914899Y-74804798D01*
X135914900Y-74804798D01*
X135914900Y-73854800D01*
X135152401Y-73854800D01*
X134194100Y-73854800D01*
X134235271Y-73824888D01*
X134361933Y-73684216D01*
X134456579Y-73520284D01*
X134510348Y-73354800D01*
X135152400Y-73354800D01*
X135914900Y-73354800D01*
X135914900Y-72404800D01*
X135914899Y-72404799D01*
X135852428Y-72404800D01*
X135852411Y-72404801D01*
X135749702Y-72415294D01*
X135583280Y-72470441D01*
X135583275Y-72470443D01*
X135434054Y-72562484D01*
X135310084Y-72686454D01*
X135218043Y-72835675D01*
X135218041Y-72835680D01*
X135162894Y-73002102D01*
X135162893Y-73002109D01*
X135152400Y-73104813D01*
X135152400Y-73354800D01*
X134510348Y-73354800D01*
X134515074Y-73340256D01*
X134534860Y-73152000D01*
X134515074Y-72963744D01*
X134456579Y-72783716D01*
X134361933Y-72619784D01*
X134235271Y-72479112D01*
X134233537Y-72477852D01*
X134082134Y-72367851D01*
X134082129Y-72367848D01*
X133909207Y-72290857D01*
X133909202Y-72290855D01*
X133763401Y-72259865D01*
X133724046Y-72251500D01*
X133534754Y-72251500D01*
X133502297Y-72258398D01*
X133349597Y-72290855D01*
X133349592Y-72290857D01*
X133176670Y-72367848D01*
X133176665Y-72367851D01*
X133023535Y-72479106D01*
X133023529Y-72479111D01*
X132994932Y-72510872D01*
X132935445Y-72547521D01*
X132902782Y-72551900D01*
X132771452Y-72551900D01*
X132704413Y-72532215D01*
X132683771Y-72515581D01*
X131650627Y-71482436D01*
X131617142Y-71421113D01*
X131622126Y-71351421D01*
X131663998Y-71295488D01*
X131729462Y-71271071D01*
X131797735Y-71285923D01*
X131811183Y-71294430D01*
X131872987Y-71339333D01*
X131881270Y-71345351D01*
X132054192Y-71422342D01*
X132054197Y-71422344D01*
X132239354Y-71461700D01*
X132239355Y-71461700D01*
X132428644Y-71461700D01*
X132428646Y-71461700D01*
X132613803Y-71422344D01*
X132786730Y-71345351D01*
X132939871Y-71234088D01*
X133066533Y-71093416D01*
X133161179Y-70929484D01*
X133219674Y-70749456D01*
X133239460Y-70561200D01*
X133239459Y-70561198D01*
X133240139Y-70554737D01*
X133242771Y-70555013D01*
X133259145Y-70499252D01*
X133275779Y-70478610D01*
X134194793Y-69559596D01*
X134960220Y-68794168D01*
X135021542Y-68760685D01*
X135091234Y-68765669D01*
G37*
%TD.AperFunction*%
%TA.AperFunction,Conductor*%
G36*
X134221619Y-76787810D02*
G01*
X135115861Y-77682052D01*
X135149346Y-77743375D01*
X135152020Y-77776035D01*
X135151900Y-77778392D01*
X135151900Y-78778401D01*
X135151901Y-78778419D01*
X135162400Y-78881196D01*
X135162401Y-78881199D01*
X135217585Y-79047731D01*
X135217587Y-79047736D01*
X135247450Y-79096151D01*
X135309496Y-79196745D01*
X135309689Y-79197057D01*
X135414051Y-79301419D01*
X135447536Y-79362742D01*
X135442552Y-79432434D01*
X135400680Y-79488367D01*
X135335216Y-79512784D01*
X135326370Y-79513100D01*
X131925259Y-79513100D01*
X131858220Y-79493415D01*
X131850333Y-79487903D01*
X131783740Y-79437403D01*
X131742217Y-79381210D01*
X131737666Y-79311489D01*
X131771532Y-79250375D01*
X131783740Y-79239797D01*
X131808466Y-79221046D01*
X131889213Y-79159813D01*
X131906001Y-79137673D01*
X131962196Y-79096151D01*
X132004806Y-79088600D01*
X132043000Y-79088600D01*
X132043000Y-79059939D01*
X132032608Y-78973406D01*
X132031752Y-78970019D01*
X132031752Y-78966276D01*
X132031660Y-78965510D01*
X132031752Y-78965498D01*
X132031752Y-78909238D01*
X132033096Y-78903920D01*
X132033098Y-78903916D01*
X132043500Y-78817295D01*
X132043499Y-78486058D01*
X132063183Y-78419020D01*
X132115987Y-78373265D01*
X132163605Y-78362120D01*
X132189427Y-78361309D01*
X132208669Y-78355717D01*
X132227712Y-78351774D01*
X132247592Y-78349264D01*
X132290922Y-78332107D01*
X132296446Y-78330217D01*
X132300196Y-78329127D01*
X132341190Y-78317218D01*
X132358429Y-78307022D01*
X132375903Y-78298462D01*
X132394527Y-78291088D01*
X132394527Y-78291087D01*
X132394532Y-78291086D01*
X132432249Y-78263682D01*
X132437105Y-78260492D01*
X132477220Y-78236770D01*
X132491389Y-78222599D01*
X132506179Y-78209968D01*
X132522387Y-78198194D01*
X132552099Y-78162276D01*
X132556012Y-78157976D01*
X133069171Y-77644819D01*
X133130495Y-77611334D01*
X133156853Y-77608500D01*
X133216044Y-77608500D01*
X133216046Y-77608500D01*
X133401203Y-77569144D01*
X133574130Y-77492151D01*
X133727271Y-77380888D01*
X133853933Y-77240216D01*
X133948579Y-77076284D01*
X134007074Y-76896256D01*
X134010618Y-76862528D01*
X134037200Y-76797917D01*
X134094496Y-76757931D01*
X134164315Y-76755269D01*
X134221619Y-76787810D01*
G37*
%TD.AperFunction*%
%TA.AperFunction,Conductor*%
G36*
X114704978Y-70337585D02*
G01*
X114750733Y-70390389D01*
X114760677Y-70459547D01*
X114748423Y-70494357D01*
X114749553Y-70494846D01*
X114746454Y-70502006D01*
X114700602Y-70659826D01*
X114700601Y-70659832D01*
X114697700Y-70696698D01*
X114697700Y-71075195D01*
X114678015Y-71142234D01*
X114661381Y-71162876D01*
X113179608Y-72644648D01*
X113167351Y-72654469D01*
X113167534Y-72654690D01*
X113161522Y-72659663D01*
X113114832Y-72709381D01*
X113113479Y-72710778D01*
X113093289Y-72730968D01*
X113093277Y-72730981D01*
X113089021Y-72736466D01*
X113085237Y-72740896D01*
X113053337Y-72774867D01*
X113053336Y-72774869D01*
X113043684Y-72792425D01*
X113033010Y-72808675D01*
X113020729Y-72824510D01*
X113020724Y-72824517D01*
X113002215Y-72867287D01*
X112999645Y-72872533D01*
X112977203Y-72913355D01*
X112972222Y-72932756D01*
X112965921Y-72951159D01*
X112957962Y-72969551D01*
X112957961Y-72969555D01*
X112950671Y-73015576D01*
X112949487Y-73021295D01*
X112937899Y-73066432D01*
X112937899Y-73086468D01*
X112936373Y-73105856D01*
X112933240Y-73125641D01*
X112933240Y-73125644D01*
X112937625Y-73172032D01*
X112937900Y-73177870D01*
X112937900Y-76008474D01*
X112918215Y-76075513D01*
X112865411Y-76121268D01*
X112796253Y-76131212D01*
X112732697Y-76102187D01*
X112694923Y-76043409D01*
X112694824Y-76043069D01*
X112649483Y-75887006D01*
X112649482Y-75887003D01*
X112565885Y-75745647D01*
X112565878Y-75745638D01*
X112449761Y-75629521D01*
X112449752Y-75629514D01*
X112308396Y-75545917D01*
X112308393Y-75545916D01*
X112150695Y-75500100D01*
X112150689Y-75500099D01*
X112113849Y-75497200D01*
X111473200Y-75497200D01*
X111473200Y-77317200D01*
X112695495Y-77317200D01*
X112695495Y-77317198D01*
X112695300Y-77314713D01*
X112649481Y-77157001D01*
X112565885Y-77015647D01*
X112561100Y-77009478D01*
X112563452Y-77007653D01*
X112536645Y-76958605D01*
X112541602Y-76888912D01*
X112562665Y-76856136D01*
X112561100Y-76854922D01*
X112565885Y-76848752D01*
X112649481Y-76707398D01*
X112694823Y-76551330D01*
X112732430Y-76492445D01*
X112795902Y-76463238D01*
X112865089Y-76472984D01*
X112918023Y-76518588D01*
X112937899Y-76585570D01*
X112937900Y-76585925D01*
X112937900Y-76592117D01*
X112936175Y-76607734D01*
X112936461Y-76607761D01*
X112935726Y-76615528D01*
X112937869Y-76683708D01*
X112937900Y-76685655D01*
X112937900Y-76714205D01*
X112937901Y-76714222D01*
X112938768Y-76721093D01*
X112939226Y-76726912D01*
X112940690Y-76773486D01*
X112940691Y-76773489D01*
X112946280Y-76792729D01*
X112950224Y-76811773D01*
X112952736Y-76831654D01*
X112969890Y-76874981D01*
X112971782Y-76880509D01*
X112984781Y-76925250D01*
X112994980Y-76942496D01*
X113003536Y-76959962D01*
X113010914Y-76978594D01*
X113032026Y-77007653D01*
X113038298Y-77016285D01*
X113041506Y-77021169D01*
X113065227Y-77061278D01*
X113065233Y-77061286D01*
X113079390Y-77075442D01*
X113092027Y-77090237D01*
X113103806Y-77106449D01*
X113139625Y-77136081D01*
X113139709Y-77136150D01*
X113144020Y-77140072D01*
X113362153Y-77358205D01*
X113569472Y-77565524D01*
X113602957Y-77626847D01*
X113597973Y-77696539D01*
X113556101Y-77752472D01*
X113490637Y-77776889D01*
X113431355Y-77766484D01*
X113284407Y-77701057D01*
X113284402Y-77701055D01*
X113126500Y-77667493D01*
X113099246Y-77661700D01*
X112909954Y-77661700D01*
X112882700Y-77667493D01*
X112724797Y-77701055D01*
X112724792Y-77701057D01*
X112551870Y-77778048D01*
X112551865Y-77778051D01*
X112530578Y-77793518D01*
X112464772Y-77816998D01*
X112457693Y-77817200D01*
X111473200Y-77817200D01*
X111473200Y-78963200D01*
X111453515Y-79030239D01*
X111400711Y-79075994D01*
X111349200Y-79087200D01*
X109750905Y-79087200D01*
X109750904Y-79087201D01*
X109751099Y-79089686D01*
X109796919Y-79247400D01*
X109800015Y-79254554D01*
X109798002Y-79255424D01*
X109812433Y-79312305D01*
X109790273Y-79378567D01*
X109735806Y-79422329D01*
X109688519Y-79431700D01*
X108688163Y-79431700D01*
X108621124Y-79412015D01*
X108600482Y-79395381D01*
X107792299Y-78587198D01*
X109750904Y-78587198D01*
X109750905Y-78587200D01*
X110973200Y-78587200D01*
X110973200Y-77817200D01*
X109750905Y-77817200D01*
X109750904Y-77817201D01*
X109751099Y-77819686D01*
X109796918Y-77977398D01*
X109880513Y-78118750D01*
X109885297Y-78124917D01*
X109882957Y-78126731D01*
X109909775Y-78175889D01*
X109904763Y-78245579D01*
X109883746Y-78278280D01*
X109885297Y-78279483D01*
X109880513Y-78285649D01*
X109796918Y-78427001D01*
X109751099Y-78584713D01*
X109750904Y-78587198D01*
X107792299Y-78587198D01*
X107552580Y-78347479D01*
X107519095Y-78286156D01*
X107520487Y-78227703D01*
X107532461Y-78183015D01*
X107532460Y-78183015D01*
X107532463Y-78183008D01*
X107553059Y-77947600D01*
X107532463Y-77712192D01*
X107523955Y-77680443D01*
X107520486Y-77667493D01*
X107522149Y-77597643D01*
X107552578Y-77547721D01*
X107783101Y-77317198D01*
X109750904Y-77317198D01*
X109750905Y-77317200D01*
X110973200Y-77317200D01*
X110973200Y-76547200D01*
X109750905Y-76547200D01*
X109750904Y-76547201D01*
X109751099Y-76549686D01*
X109796918Y-76707398D01*
X109880514Y-76848752D01*
X109885300Y-76854922D01*
X109882953Y-76856742D01*
X109909764Y-76905842D01*
X109904780Y-76975534D01*
X109883741Y-77008269D01*
X109885300Y-77009478D01*
X109880514Y-77015647D01*
X109796918Y-77157001D01*
X109751099Y-77314713D01*
X109750904Y-77317198D01*
X107783101Y-77317198D01*
X109053101Y-76047198D01*
X109750904Y-76047198D01*
X109750905Y-76047200D01*
X110973199Y-76047200D01*
X110973200Y-75497200D01*
X110332550Y-75497200D01*
X110295710Y-75500099D01*
X110295704Y-75500100D01*
X110138006Y-75545916D01*
X110138003Y-75545917D01*
X109996647Y-75629514D01*
X109996638Y-75629521D01*
X109880521Y-75745638D01*
X109880514Y-75745647D01*
X109796918Y-75887001D01*
X109751099Y-76044713D01*
X109750904Y-76047198D01*
X109053101Y-76047198D01*
X111685113Y-73415186D01*
X111687805Y-73412652D01*
X111732532Y-73373029D01*
X111766469Y-73323859D01*
X111768672Y-73320866D01*
X111805526Y-73273828D01*
X111809372Y-73265280D01*
X111820397Y-73245735D01*
X111825717Y-73238027D01*
X111825716Y-73238027D01*
X111825718Y-73238026D01*
X111846905Y-73182158D01*
X111848332Y-73178715D01*
X111872850Y-73124239D01*
X111874536Y-73115032D01*
X111880569Y-73093394D01*
X111883888Y-73084645D01*
X111883888Y-73084639D01*
X111885684Y-73077360D01*
X111888902Y-73078153D01*
X111910761Y-73027609D01*
X111968763Y-72988654D01*
X112006097Y-72982900D01*
X112113886Y-72982900D01*
X112113894Y-72982900D01*
X112150769Y-72979998D01*
X112150771Y-72979997D01*
X112150773Y-72979997D01*
X112198062Y-72966258D01*
X112308598Y-72934144D01*
X112450065Y-72850481D01*
X112566281Y-72734265D01*
X112649944Y-72592798D01*
X112695798Y-72434969D01*
X112698700Y-72398094D01*
X112698699Y-72231736D01*
X112718385Y-72164697D01*
X112735019Y-72144055D01*
X114524856Y-70354219D01*
X114586179Y-70320734D01*
X114612537Y-70317900D01*
X114637939Y-70317900D01*
X114704978Y-70337585D01*
G37*
%TD.AperFunction*%
%TA.AperFunction,Conductor*%
G36*
X121198623Y-76824255D02*
G01*
X121211159Y-76817231D01*
X121238846Y-76814100D01*
X121416674Y-76814100D01*
X121483713Y-76833785D01*
X121491624Y-76839315D01*
X121492283Y-76839815D01*
X121533792Y-76896018D01*
X121538326Y-76965741D01*
X121504446Y-77026846D01*
X121492283Y-77037385D01*
X121491624Y-77037885D01*
X121426319Y-77062724D01*
X121416674Y-77063100D01*
X121253505Y-77063100D01*
X121249761Y-77062987D01*
X121231359Y-77061874D01*
X121205829Y-77052669D01*
X121198972Y-77057077D01*
X121186385Y-77060069D01*
X121131397Y-77070145D01*
X121127697Y-77070708D01*
X121068383Y-77077911D01*
X121059608Y-77081239D01*
X121038005Y-77087260D01*
X121033486Y-77088088D01*
X121028787Y-77088950D01*
X120974302Y-77113469D01*
X120970845Y-77114901D01*
X120915001Y-77136081D01*
X120914997Y-77136084D01*
X120907283Y-77141408D01*
X120887752Y-77152424D01*
X120879198Y-77156274D01*
X120879194Y-77156277D01*
X120866666Y-77166091D01*
X120801753Y-77191937D01*
X120733171Y-77178584D01*
X120682695Y-77130273D01*
X120666199Y-77068478D01*
X120666199Y-76976833D01*
X120685884Y-76909797D01*
X120702514Y-76889159D01*
X120741255Y-76850418D01*
X120802579Y-76816933D01*
X120828936Y-76814100D01*
X121164037Y-76814100D01*
X121198623Y-76824255D01*
G37*
%TD.AperFunction*%
%TA.AperFunction,Conductor*%
G36*
X114887979Y-72807972D02*
G01*
X114932326Y-72836473D01*
X114946329Y-72850476D01*
X114946333Y-72850479D01*
X114946335Y-72850481D01*
X115087802Y-72934144D01*
X115092776Y-72935589D01*
X115245626Y-72979997D01*
X115245629Y-72979997D01*
X115245631Y-72979998D01*
X115282506Y-72982900D01*
X116037748Y-72982900D01*
X116104787Y-73002585D01*
X116125429Y-73019219D01*
X118057782Y-74951572D01*
X118091266Y-75012893D01*
X118094100Y-75039251D01*
X118094100Y-76606258D01*
X118074415Y-76673297D01*
X118021611Y-76719052D01*
X117952453Y-76728996D01*
X117944320Y-76727548D01*
X117798247Y-76696500D01*
X117798246Y-76696500D01*
X117767185Y-76696500D01*
X117700146Y-76676815D01*
X117654391Y-76624011D01*
X117644447Y-76554853D01*
X117645204Y-76550213D01*
X117645300Y-76549684D01*
X117645495Y-76547201D01*
X117645495Y-76547200D01*
X116047200Y-76547200D01*
X115980161Y-76527515D01*
X115934406Y-76474711D01*
X115923200Y-76423200D01*
X115923200Y-75497200D01*
X116423200Y-75497200D01*
X116423200Y-76047200D01*
X117645495Y-76047200D01*
X117645495Y-76047198D01*
X117645300Y-76044713D01*
X117599481Y-75887001D01*
X117515885Y-75745647D01*
X117515878Y-75745638D01*
X117399761Y-75629521D01*
X117399752Y-75629514D01*
X117258396Y-75545917D01*
X117258393Y-75545916D01*
X117100695Y-75500100D01*
X117100689Y-75500099D01*
X117063849Y-75497200D01*
X116423200Y-75497200D01*
X115923200Y-75497200D01*
X115282550Y-75497200D01*
X115245715Y-75500099D01*
X115245709Y-75500100D01*
X115164666Y-75523645D01*
X115094797Y-75523445D01*
X115037922Y-75487540D01*
X114982076Y-75425516D01*
X114982069Y-75425510D01*
X114828934Y-75314251D01*
X114828929Y-75314248D01*
X114656007Y-75237257D01*
X114656002Y-75237255D01*
X114498688Y-75203818D01*
X114470846Y-75197900D01*
X114312899Y-75197900D01*
X114245860Y-75178215D01*
X114200105Y-75125411D01*
X114188899Y-75073900D01*
X114188899Y-74311150D01*
X114188899Y-73455896D01*
X114208584Y-73388861D01*
X114225209Y-73368229D01*
X114756966Y-72836471D01*
X114818287Y-72802988D01*
X114887979Y-72807972D01*
G37*
%TD.AperFunction*%
%TA.AperFunction,Conductor*%
G36*
X144971403Y-68538585D02*
G01*
X144992045Y-68555219D01*
X145274101Y-68837275D01*
X145307586Y-68898598D01*
X145310194Y-68932441D01*
X145306780Y-68988880D01*
X145306781Y-68988885D01*
X145317545Y-69047628D01*
X145318108Y-69051329D01*
X145325311Y-69110645D01*
X145328637Y-69119414D01*
X145334661Y-69141023D01*
X145336350Y-69150240D01*
X145360863Y-69204707D01*
X145362296Y-69208166D01*
X145383481Y-69264024D01*
X145383481Y-69264025D01*
X145388805Y-69271738D01*
X145399824Y-69291276D01*
X145403671Y-69299823D01*
X145403672Y-69299825D01*
X145403673Y-69299826D01*
X145403674Y-69299828D01*
X145407724Y-69304997D01*
X145440515Y-69346851D01*
X145442730Y-69349861D01*
X145476668Y-69399029D01*
X145521392Y-69438651D01*
X145524084Y-69441185D01*
X145888408Y-69805509D01*
X146244861Y-70161962D01*
X146278346Y-70223285D01*
X146273362Y-70292977D01*
X146231490Y-70348910D01*
X146166026Y-70373327D01*
X146106747Y-70362924D01*
X146101202Y-70360455D01*
X145945088Y-70327273D01*
X145916046Y-70321100D01*
X145726754Y-70321100D01*
X145697712Y-70327273D01*
X145541597Y-70360455D01*
X145541592Y-70360457D01*
X145368670Y-70437448D01*
X145368665Y-70437451D01*
X145215529Y-70548711D01*
X145088866Y-70689385D01*
X144994221Y-70853315D01*
X144994218Y-70853322D01*
X144945984Y-71001772D01*
X144935726Y-71033344D01*
X144915940Y-71221600D01*
X144935726Y-71409856D01*
X144935727Y-71409859D01*
X144994218Y-71589877D01*
X144994221Y-71589884D01*
X145088867Y-71753816D01*
X145188901Y-71864915D01*
X145215529Y-71894488D01*
X145368665Y-72005748D01*
X145368670Y-72005751D01*
X145541592Y-72082742D01*
X145541597Y-72082744D01*
X145726754Y-72122100D01*
X145726755Y-72122100D01*
X145881952Y-72122100D01*
X145948991Y-72141785D01*
X145994746Y-72194589D01*
X146004690Y-72263747D01*
X145975665Y-72327303D01*
X145925285Y-72362282D01*
X145846671Y-72391602D01*
X145846664Y-72391606D01*
X145731455Y-72477852D01*
X145731452Y-72477855D01*
X145645206Y-72593064D01*
X145645202Y-72593071D01*
X145594909Y-72727916D01*
X145594908Y-72727916D01*
X145588501Y-72787516D01*
X145588500Y-72787535D01*
X145588500Y-74583270D01*
X145588501Y-74583276D01*
X145594908Y-74642883D01*
X145645202Y-74777728D01*
X145645206Y-74777735D01*
X145731452Y-74892944D01*
X145731455Y-74892947D01*
X145846664Y-74979193D01*
X145846671Y-74979197D01*
X145978081Y-75028210D01*
X146034015Y-75070081D01*
X146058432Y-75135545D01*
X146043580Y-75203818D01*
X146022430Y-75232073D01*
X145900503Y-75354000D01*
X145765348Y-75547023D01*
X145710771Y-75590648D01*
X145663773Y-75599900D01*
X144839085Y-75599900D01*
X144772046Y-75580215D01*
X144726291Y-75527411D01*
X144716347Y-75458253D01*
X144721154Y-75437582D01*
X144725874Y-75423056D01*
X144745660Y-75234800D01*
X144725874Y-75046544D01*
X144667379Y-74866516D01*
X144572733Y-74702584D01*
X144471243Y-74589868D01*
X144457429Y-74574526D01*
X144427199Y-74511535D01*
X144435824Y-74442199D01*
X144444035Y-74426465D01*
X144523314Y-74297934D01*
X144578499Y-74131397D01*
X144589000Y-74028609D01*
X144588999Y-73028592D01*
X144587747Y-73016339D01*
X144578499Y-72925803D01*
X144578498Y-72925800D01*
X144559995Y-72869963D01*
X144523314Y-72759266D01*
X144431212Y-72609944D01*
X144307156Y-72485888D01*
X144191863Y-72414775D01*
X144157836Y-72393787D01*
X144157831Y-72393785D01*
X144151243Y-72391602D01*
X143991297Y-72338601D01*
X143991295Y-72338600D01*
X143888510Y-72328100D01*
X143263498Y-72328100D01*
X143263480Y-72328101D01*
X143160703Y-72338600D01*
X143160700Y-72338601D01*
X142994168Y-72393785D01*
X142994163Y-72393787D01*
X142844845Y-72485887D01*
X142750827Y-72579905D01*
X142689503Y-72613389D01*
X142619812Y-72608405D01*
X142575465Y-72579904D01*
X142481845Y-72486284D01*
X142332624Y-72394243D01*
X142332619Y-72394241D01*
X142166197Y-72339094D01*
X142166190Y-72339093D01*
X142063486Y-72328600D01*
X142001000Y-72328600D01*
X142001000Y-74728599D01*
X142063472Y-74728599D01*
X142063486Y-74728598D01*
X142166197Y-74718105D01*
X142332619Y-74662958D01*
X142332624Y-74662956D01*
X142481842Y-74570917D01*
X142575464Y-74477295D01*
X142636787Y-74443810D01*
X142706479Y-74448794D01*
X142750827Y-74477295D01*
X142844844Y-74571312D01*
X142891596Y-74600148D01*
X142938320Y-74652094D01*
X142950500Y-74705687D01*
X142950500Y-74763199D01*
X142949171Y-74781302D01*
X142945666Y-74805051D01*
X142945666Y-74805057D01*
X142950159Y-74847762D01*
X142950500Y-74854254D01*
X142950500Y-74857558D01*
X142954539Y-74889535D01*
X142954687Y-74890815D01*
X142962199Y-74962223D01*
X142962561Y-74963763D01*
X142962504Y-74965117D01*
X142963016Y-74969981D01*
X142962297Y-74970056D01*
X142959771Y-75030402D01*
X142954526Y-75046542D01*
X142954526Y-75046543D01*
X142934740Y-75234800D01*
X142954526Y-75423056D01*
X142954527Y-75423059D01*
X142959246Y-75437582D01*
X142961241Y-75507424D01*
X142925160Y-75567256D01*
X142862459Y-75598084D01*
X142841315Y-75599900D01*
X141483652Y-75599900D01*
X141416613Y-75580215D01*
X141395971Y-75563581D01*
X140750856Y-74918466D01*
X140717371Y-74857143D01*
X140722355Y-74787451D01*
X140764227Y-74731518D01*
X140765653Y-74730466D01*
X140775234Y-74723505D01*
X140788471Y-74713888D01*
X140884754Y-74606954D01*
X140944238Y-74570307D01*
X141014095Y-74571637D01*
X141041999Y-74584390D01*
X141169369Y-74662953D01*
X141169380Y-74662958D01*
X141335802Y-74718105D01*
X141335809Y-74718106D01*
X141438519Y-74728599D01*
X141500999Y-74728598D01*
X141501000Y-74728598D01*
X141501000Y-72328600D01*
X141497609Y-72325209D01*
X141442112Y-72308914D01*
X141396357Y-72256110D01*
X141386413Y-72186952D01*
X141415438Y-72123396D01*
X141421442Y-72116947D01*
X143268770Y-70269619D01*
X143330094Y-70236134D01*
X143356452Y-70233300D01*
X143914343Y-70233300D01*
X143914348Y-70233300D01*
X144016275Y-70222887D01*
X144181425Y-70168162D01*
X144329503Y-70076826D01*
X144452526Y-69953803D01*
X144543862Y-69805725D01*
X144598587Y-69640575D01*
X144609000Y-69538648D01*
X144609000Y-68642900D01*
X144628685Y-68575861D01*
X144681489Y-68530106D01*
X144733000Y-68518900D01*
X144904364Y-68518900D01*
X144971403Y-68538585D01*
G37*
%TD.AperFunction*%
%TA.AperFunction,Conductor*%
G36*
X124217273Y-69372385D02*
G01*
X124263028Y-69425189D01*
X124267938Y-69437690D01*
X124295986Y-69522334D01*
X124388088Y-69671656D01*
X124512144Y-69795712D01*
X124661466Y-69887814D01*
X124828003Y-69942999D01*
X124930791Y-69953500D01*
X125530808Y-69953499D01*
X125530816Y-69953498D01*
X125530819Y-69953498D01*
X125587102Y-69947748D01*
X125633597Y-69942999D01*
X125800134Y-69887814D01*
X125949456Y-69795712D01*
X126073512Y-69671656D01*
X126075261Y-69668819D01*
X126076969Y-69667283D01*
X126077993Y-69665989D01*
X126078214Y-69666163D01*
X126127206Y-69622096D01*
X126196168Y-69610872D01*
X126260251Y-69638713D01*
X126286337Y-69668817D01*
X126288088Y-69671656D01*
X126412144Y-69795712D01*
X126536242Y-69872256D01*
X126543814Y-69876926D01*
X126590539Y-69928874D01*
X126601762Y-69997836D01*
X126573919Y-70061918D01*
X126515850Y-70100775D01*
X126489096Y-70105741D01*
X126489106Y-70105813D01*
X126487868Y-70105969D01*
X126486523Y-70106219D01*
X126485258Y-70106298D01*
X126478366Y-70107169D01*
X126472549Y-70107626D01*
X126425973Y-70109090D01*
X126406729Y-70114681D01*
X126387679Y-70118625D01*
X126367811Y-70121134D01*
X126324484Y-70138288D01*
X126318958Y-70140179D01*
X126274214Y-70153179D01*
X126274210Y-70153181D01*
X126256966Y-70163379D01*
X126239505Y-70171933D01*
X126220874Y-70179310D01*
X126220862Y-70179317D01*
X126183170Y-70206702D01*
X126178287Y-70209909D01*
X126138180Y-70233629D01*
X126124014Y-70247795D01*
X126109224Y-70260427D01*
X126093014Y-70272204D01*
X126093011Y-70272207D01*
X126063310Y-70308109D01*
X126059377Y-70312431D01*
X125422408Y-70949399D01*
X125410151Y-70959220D01*
X125410334Y-70959441D01*
X125404322Y-70964414D01*
X125357632Y-71014132D01*
X125356279Y-71015529D01*
X125336089Y-71035719D01*
X125336077Y-71035732D01*
X125331821Y-71041217D01*
X125328037Y-71045647D01*
X125296137Y-71079618D01*
X125296136Y-71079620D01*
X125286484Y-71097176D01*
X125275810Y-71113426D01*
X125263529Y-71129261D01*
X125263524Y-71129268D01*
X125245015Y-71172038D01*
X125242445Y-71177284D01*
X125220003Y-71218106D01*
X125215022Y-71237507D01*
X125208721Y-71255910D01*
X125200762Y-71274302D01*
X125200761Y-71274305D01*
X125193471Y-71320327D01*
X125192287Y-71326046D01*
X125180701Y-71371172D01*
X125180700Y-71371182D01*
X125180700Y-71391216D01*
X125179173Y-71410615D01*
X125176040Y-71430394D01*
X125176040Y-71430395D01*
X125180425Y-71476783D01*
X125180700Y-71482621D01*
X125180700Y-71834527D01*
X125161015Y-71901566D01*
X125108211Y-71947321D01*
X125104149Y-71949090D01*
X125085449Y-71956835D01*
X125015979Y-71964301D01*
X124990551Y-71956835D01*
X124970502Y-71948531D01*
X124853299Y-71933100D01*
X124853292Y-71933100D01*
X124422708Y-71933100D01*
X124422700Y-71933100D01*
X124305497Y-71948531D01*
X124285449Y-71956835D01*
X124215979Y-71964301D01*
X124190551Y-71956835D01*
X124170502Y-71948531D01*
X124053299Y-71933100D01*
X124053292Y-71933100D01*
X123622708Y-71933100D01*
X123622700Y-71933100D01*
X123505499Y-71948531D01*
X123505495Y-71948532D01*
X123359665Y-72008936D01*
X123234432Y-72105032D01*
X123138336Y-72230265D01*
X123077932Y-72376095D01*
X123077931Y-72376099D01*
X123062500Y-72493300D01*
X123062500Y-72707300D01*
X123042815Y-72774339D01*
X122990011Y-72820094D01*
X122938500Y-72831300D01*
X121230301Y-72831300D01*
X121163262Y-72811615D01*
X121117507Y-72758811D01*
X121107563Y-72689653D01*
X121136588Y-72626097D01*
X121142620Y-72619619D01*
X121360774Y-72401466D01*
X121853070Y-71909170D01*
X122092022Y-71670219D01*
X122153345Y-71636734D01*
X122179703Y-71633900D01*
X122238894Y-71633900D01*
X122238896Y-71633900D01*
X122424053Y-71594544D01*
X122596980Y-71517551D01*
X122750121Y-71406288D01*
X122876783Y-71265616D01*
X122971429Y-71101684D01*
X123029924Y-70921656D01*
X123049710Y-70733400D01*
X123029924Y-70545144D01*
X122974097Y-70373327D01*
X122971431Y-70365122D01*
X122971430Y-70365121D01*
X122971429Y-70365116D01*
X122876783Y-70201184D01*
X122790440Y-70105291D01*
X122760211Y-70042301D01*
X122768836Y-69972966D01*
X122813577Y-69919300D01*
X122869989Y-69898962D01*
X122936197Y-69892199D01*
X123102734Y-69837014D01*
X123252056Y-69744912D01*
X123376112Y-69620856D01*
X123468214Y-69471534D01*
X123479428Y-69437694D01*
X123519201Y-69380250D01*
X123583717Y-69353428D01*
X123597133Y-69352700D01*
X124150234Y-69352700D01*
X124217273Y-69372385D01*
G37*
%TD.AperFunction*%
%TA.AperFunction,Conductor*%
G36*
X146835944Y-70765918D02*
G01*
X146875356Y-70792457D01*
X148581374Y-72498475D01*
X148614859Y-72559798D01*
X148609875Y-72629490D01*
X148581374Y-72673837D01*
X148485865Y-72769346D01*
X148424542Y-72802831D01*
X148354850Y-72797847D01*
X148298917Y-72755975D01*
X148282002Y-72724998D01*
X148281098Y-72722575D01*
X148245115Y-72626097D01*
X148232797Y-72593071D01*
X148232793Y-72593064D01*
X148146547Y-72477855D01*
X148146544Y-72477852D01*
X148031335Y-72391606D01*
X148031328Y-72391602D01*
X147896482Y-72341308D01*
X147896483Y-72341308D01*
X147836883Y-72334901D01*
X147836881Y-72334900D01*
X147836873Y-72334900D01*
X147836865Y-72334900D01*
X147688500Y-72334900D01*
X147621461Y-72315215D01*
X147575706Y-72262411D01*
X147564500Y-72210900D01*
X147564500Y-72170587D01*
X147566079Y-72150862D01*
X147569105Y-72132082D01*
X147568307Y-72123396D01*
X147566588Y-72104685D01*
X147564759Y-72084767D01*
X147564500Y-72079100D01*
X147564500Y-72071252D01*
X147564500Y-72071250D01*
X147561030Y-72043786D01*
X147560813Y-72041794D01*
X147554652Y-71974707D01*
X147554651Y-71974704D01*
X147552971Y-71967093D01*
X147553130Y-71967057D01*
X147551762Y-71961327D01*
X147551605Y-71961368D01*
X147549664Y-71953813D01*
X147549664Y-71953808D01*
X147524889Y-71891234D01*
X147524145Y-71889257D01*
X147501516Y-71825874D01*
X147497993Y-71818914D01*
X147498136Y-71818841D01*
X147495382Y-71813623D01*
X147495242Y-71813701D01*
X147491487Y-71806872D01*
X147491486Y-71806868D01*
X147486385Y-71799847D01*
X147451923Y-71752413D01*
X147450710Y-71750683D01*
X147413031Y-71694920D01*
X147407888Y-71689055D01*
X147408008Y-71688949D01*
X147404048Y-71684585D01*
X147403930Y-71684696D01*
X147398590Y-71679009D01*
X147346755Y-71636127D01*
X147345150Y-71634753D01*
X147018641Y-71345348D01*
X146747012Y-71104586D01*
X146709901Y-71045390D01*
X146707972Y-71037570D01*
X146707074Y-71033346D01*
X146707074Y-71033344D01*
X146669743Y-70918454D01*
X146667749Y-70848615D01*
X146703829Y-70788782D01*
X146766530Y-70757954D01*
X146835944Y-70765918D01*
G37*
%TD.AperFunction*%
%TA.AperFunction,Conductor*%
G36*
X138227939Y-68802485D02*
G01*
X138273694Y-68855289D01*
X138284900Y-68906800D01*
X138284900Y-70232800D01*
X138328203Y-70232800D01*
X138328215Y-70232799D01*
X138430073Y-70222392D01*
X138595109Y-70167705D01*
X138595114Y-70167703D01*
X138743091Y-70076429D01*
X138866029Y-69953491D01*
X138957303Y-69805514D01*
X138957305Y-69805509D01*
X138985194Y-69721347D01*
X139024966Y-69663902D01*
X139089482Y-69637079D01*
X139158258Y-69649394D01*
X139209458Y-69696937D01*
X139226900Y-69760351D01*
X139226900Y-71431847D01*
X139207215Y-71498886D01*
X139190581Y-71519528D01*
X138342128Y-72367981D01*
X138280805Y-72401466D01*
X138254447Y-72404300D01*
X137858700Y-72404300D01*
X137791661Y-72384615D01*
X137745906Y-72331811D01*
X137734700Y-72280300D01*
X137734700Y-72244142D01*
X137736424Y-72228522D01*
X137736139Y-72228496D01*
X137736873Y-72220733D01*
X137734731Y-72152552D01*
X137734700Y-72150605D01*
X137734700Y-72122054D01*
X137734700Y-72122050D01*
X137733831Y-72115172D01*
X137733372Y-72109343D01*
X137731909Y-72062772D01*
X137726322Y-72043544D01*
X137722374Y-72024484D01*
X137719864Y-72004608D01*
X137719863Y-72004606D01*
X137719863Y-72004604D01*
X137702712Y-71961287D01*
X137700819Y-71955758D01*
X137687818Y-71911009D01*
X137687816Y-71911006D01*
X137677623Y-71893771D01*
X137669061Y-71876294D01*
X137661687Y-71857670D01*
X137660910Y-71856600D01*
X137634279Y-71819945D01*
X137631088Y-71815086D01*
X137607372Y-71774983D01*
X137607365Y-71774974D01*
X137593206Y-71760815D01*
X137580568Y-71746019D01*
X137578017Y-71742508D01*
X137568794Y-71729813D01*
X137532888Y-71700109D01*
X137528576Y-71696186D01*
X136821719Y-70989328D01*
X136788234Y-70928005D01*
X136785400Y-70901647D01*
X136785400Y-70197229D01*
X136805085Y-70130190D01*
X136844302Y-70091691D01*
X136868403Y-70076826D01*
X136991426Y-69953803D01*
X136992155Y-69952621D01*
X136992866Y-69951981D01*
X136995907Y-69948136D01*
X136996563Y-69948655D01*
X137044101Y-69905897D01*
X137113064Y-69894673D01*
X137177146Y-69922515D01*
X137199161Y-69947923D01*
X137199288Y-69947823D01*
X137201513Y-69950638D01*
X137203233Y-69952622D01*
X137203765Y-69953485D01*
X137203769Y-69953490D01*
X137326708Y-70076429D01*
X137474685Y-70167703D01*
X137474690Y-70167705D01*
X137639726Y-70222392D01*
X137741584Y-70232799D01*
X137741597Y-70232800D01*
X137784900Y-70232800D01*
X137784900Y-68906800D01*
X137804585Y-68839761D01*
X137857389Y-68794006D01*
X137908900Y-68782800D01*
X138160900Y-68782800D01*
X138227939Y-68802485D01*
G37*
%TD.AperFunction*%
%TA.AperFunction,Conductor*%
G36*
X130704956Y-69587436D02*
G01*
X130731043Y-69617541D01*
X130733088Y-69620856D01*
X130857144Y-69744912D01*
X131006466Y-69837014D01*
X131173003Y-69892199D01*
X131275791Y-69902700D01*
X131459603Y-69902699D01*
X131526642Y-69922383D01*
X131572397Y-69975187D01*
X131582341Y-70044345D01*
X131566991Y-70088698D01*
X131558777Y-70102925D01*
X131507814Y-70191197D01*
X131506820Y-70192918D01*
X131506818Y-70192922D01*
X131448945Y-70371039D01*
X131448326Y-70372944D01*
X131428540Y-70561200D01*
X131448326Y-70749456D01*
X131448327Y-70749459D01*
X131506818Y-70929477D01*
X131506820Y-70929481D01*
X131506821Y-70929484D01*
X131556098Y-71014835D01*
X131594789Y-71081850D01*
X131611261Y-71149750D01*
X131588408Y-71215777D01*
X131533486Y-71258967D01*
X131463933Y-71265608D01*
X131401831Y-71233591D01*
X131399720Y-71231530D01*
X131386298Y-71218108D01*
X130206349Y-70038158D01*
X130172864Y-69976835D01*
X130177848Y-69907143D01*
X130219720Y-69851210D01*
X130241629Y-69838093D01*
X130244921Y-69836557D01*
X130394145Y-69744515D01*
X130518118Y-69620542D01*
X130519965Y-69617548D01*
X130521769Y-69615924D01*
X130522598Y-69614877D01*
X130522776Y-69615018D01*
X130571910Y-69570821D01*
X130640873Y-69559596D01*
X130704956Y-69587436D01*
G37*
%TD.AperFunction*%
%TA.AperFunction,Conductor*%
G36*
X128618839Y-68222385D02*
G01*
X128664594Y-68275189D01*
X128675800Y-68326700D01*
X128675800Y-68427200D01*
X129801800Y-68427200D01*
X129868839Y-68446885D01*
X129914594Y-68499689D01*
X129925800Y-68551200D01*
X129925800Y-68803200D01*
X129906115Y-68870239D01*
X129853311Y-68915994D01*
X129801800Y-68927200D01*
X128675801Y-68927200D01*
X128675801Y-69089048D01*
X128656116Y-69156087D01*
X128603312Y-69201842D01*
X128534154Y-69211786D01*
X128470598Y-69182761D01*
X128464120Y-69176729D01*
X128167618Y-68880227D01*
X128134133Y-68818904D01*
X128131299Y-68792546D01*
X128131299Y-68326700D01*
X128150984Y-68259661D01*
X128203788Y-68213906D01*
X128255299Y-68202700D01*
X128551800Y-68202700D01*
X128618839Y-68222385D01*
G37*
%TD.AperFunction*%
%TD*%
M02*
