%TF.GenerationSoftware,KiCad,Pcbnew,7.0.5*%
%TF.CreationDate,2024-01-17T23:55:02+05:30*%
%TF.ProjectId,mcu datalogger,6d637520-6461-4746-916c-6f676765722e,1*%
%TF.SameCoordinates,Original*%
%TF.FileFunction,Paste,Top*%
%TF.FilePolarity,Positive*%
%FSLAX46Y46*%
G04 Gerber Fmt 4.6, Leading zero omitted, Abs format (unit mm)*
G04 Created by KiCad (PCBNEW 7.0.5) date 2024-01-17 23:55:02*
%MOMM*%
%LPD*%
G01*
G04 APERTURE LIST*
G04 Aperture macros list*
%AMRoundRect*
0 Rectangle with rounded corners*
0 $1 Rounding radius*
0 $2 $3 $4 $5 $6 $7 $8 $9 X,Y pos of 4 corners*
0 Add a 4 corners polygon primitive as box body*
4,1,4,$2,$3,$4,$5,$6,$7,$8,$9,$2,$3,0*
0 Add four circle primitives for the rounded corners*
1,1,$1+$1,$2,$3*
1,1,$1+$1,$4,$5*
1,1,$1+$1,$6,$7*
1,1,$1+$1,$8,$9*
0 Add four rect primitives between the rounded corners*
20,1,$1+$1,$2,$3,$4,$5,0*
20,1,$1+$1,$4,$5,$6,$7,0*
20,1,$1+$1,$6,$7,$8,$9,0*
20,1,$1+$1,$8,$9,$2,$3,0*%
G04 Aperture macros list end*
%ADD10RoundRect,0.250000X-0.262500X-0.450000X0.262500X-0.450000X0.262500X0.450000X-0.262500X0.450000X0*%
%ADD11RoundRect,0.150000X-0.825000X-0.150000X0.825000X-0.150000X0.825000X0.150000X-0.825000X0.150000X0*%
%ADD12R,3.500000X2.400000*%
%ADD13RoundRect,0.038500X-0.696500X-0.236500X0.696500X-0.236500X0.696500X0.236500X-0.696500X0.236500X0*%
%ADD14RoundRect,0.099000X-0.176000X-0.636000X0.176000X-0.636000X0.176000X0.636000X-0.176000X0.636000X0*%
%ADD15RoundRect,0.250000X-0.250000X-0.475000X0.250000X-0.475000X0.250000X0.475000X-0.250000X0.475000X0*%
%ADD16RoundRect,0.041300X-0.943700X-0.253700X0.943700X-0.253700X0.943700X0.253700X-0.943700X0.253700X0*%
%ADD17R,2.400000X3.500000*%
%ADD18RoundRect,0.243750X-0.243750X-0.456250X0.243750X-0.456250X0.243750X0.456250X-0.243750X0.456250X0*%
G04 APERTURE END LIST*
D10*
%TO.C,R3*%
X110434700Y-90775200D03*
X112259700Y-90775200D03*
%TD*%
D11*
%TO.C,U3*%
X111223200Y-68372400D03*
X111223200Y-69642400D03*
X111223200Y-70912400D03*
X111223200Y-72182400D03*
X116173200Y-72182400D03*
X116173200Y-70912400D03*
X116173200Y-69642400D03*
X116173200Y-68372400D03*
%TD*%
D12*
%TO.C,Y2*%
X123927200Y-88362200D03*
X129127200Y-88362200D03*
%TD*%
D10*
%TO.C,R4*%
X114752700Y-90622800D03*
X116577700Y-90622800D03*
%TD*%
D13*
%TO.C,U4*%
X122468000Y-74538600D03*
X122468000Y-75338600D03*
X122468000Y-76138600D03*
X122468000Y-76938600D03*
X122468000Y-77738600D03*
X122468000Y-78538600D03*
X122468000Y-79338600D03*
X122468000Y-80138600D03*
D14*
X123838000Y-81508600D03*
X124638000Y-81508600D03*
X125438000Y-81508600D03*
X126238000Y-81508600D03*
X127038000Y-81508600D03*
X127838000Y-81508600D03*
X128638000Y-81508600D03*
X129438000Y-81508600D03*
D13*
X130808000Y-80138600D03*
X130808000Y-79338600D03*
X130808000Y-78538600D03*
X130808000Y-77738600D03*
X130808000Y-76938600D03*
X130808000Y-76138600D03*
X130808000Y-75338600D03*
X130808000Y-74538600D03*
D14*
X129438000Y-73168600D03*
X128638000Y-73168600D03*
X127838000Y-73168600D03*
X127038000Y-73168600D03*
X126238000Y-73168600D03*
X125438000Y-73168600D03*
X124638000Y-73168600D03*
X123838000Y-73168600D03*
%TD*%
D15*
%TO.C,C3*%
X136127400Y-89708400D03*
X138027400Y-89708400D03*
%TD*%
D16*
%TO.C,U2*%
X111234400Y-83739400D03*
X111234400Y-85009400D03*
X111234400Y-86279400D03*
X111234400Y-87549400D03*
X116184400Y-87549400D03*
X116184400Y-86279400D03*
X116184400Y-85009400D03*
X116184400Y-83739400D03*
%TD*%
D10*
%TO.C,R7*%
X141751000Y-78278400D03*
X143576000Y-78278400D03*
%TD*%
D15*
%TO.C,C1*%
X129675800Y-68677200D03*
X131575800Y-68677200D03*
%TD*%
D10*
%TO.C,R1*%
X136164900Y-73604800D03*
X137989900Y-73604800D03*
%TD*%
D15*
%TO.C,C4*%
X125230800Y-68728000D03*
X127130800Y-68728000D03*
%TD*%
D17*
%TO.C,Y1*%
X105867200Y-89188600D03*
X105867200Y-83988600D03*
%TD*%
D10*
%TO.C,R2*%
X141751000Y-73528600D03*
X143576000Y-73528600D03*
%TD*%
D18*
%TO.C,D1*%
X141746000Y-69032800D03*
X143621000Y-69032800D03*
%TD*%
D10*
%TO.C,R6*%
X136164900Y-78278400D03*
X137989900Y-78278400D03*
%TD*%
D15*
%TO.C,C2*%
X136127400Y-85542800D03*
X138027400Y-85542800D03*
%TD*%
D11*
%TO.C,U1*%
X111223200Y-76297200D03*
X111223200Y-77567200D03*
X111223200Y-78837200D03*
X111223200Y-80107200D03*
X116173200Y-80107200D03*
X116173200Y-78837200D03*
X116173200Y-77567200D03*
X116173200Y-76297200D03*
%TD*%
D18*
%TO.C,D2*%
X136159900Y-69032800D03*
X138034900Y-69032800D03*
%TD*%
D10*
%TO.C,R5*%
X136164900Y-81885200D03*
X137989900Y-81885200D03*
%TD*%
D15*
%TO.C,C5*%
X120633400Y-68677200D03*
X122533400Y-68677200D03*
%TD*%
M02*
