%TF.GenerationSoftware,KiCad,Pcbnew,8.0.3-8.0.3-0~ubuntu22.04.1*%
%TF.CreationDate,2024-07-09T12:22:33+05:30*%
%TF.ProjectId,CSI,4353492e-6b69-4636-9164-5f7063625858,rev?*%
%TF.SameCoordinates,Original*%
%TF.FileFunction,Legend,Top*%
%TF.FilePolarity,Positive*%
%FSLAX46Y46*%
G04 Gerber Fmt 4.6, Leading zero omitted, Abs format (unit mm)*
G04 Created by KiCad (PCBNEW 8.0.3-8.0.3-0~ubuntu22.04.1) date 2024-07-09 12:22:33*
%MOMM*%
%LPD*%
G01*
G04 APERTURE LIST*
%ADD10C,0.100000*%
%ADD11C,0.150000*%
%ADD12C,0.152400*%
%ADD13C,0.120000*%
G04 APERTURE END LIST*
D10*
X160723747Y-86376609D02*
X160438033Y-86376609D01*
X160580890Y-86376609D02*
X160580890Y-85876609D01*
X160580890Y-85876609D02*
X160533271Y-85948038D01*
X160533271Y-85948038D02*
X160485652Y-85995657D01*
X160485652Y-85995657D02*
X160438033Y-86019466D01*
X152553014Y-95012782D02*
X152553014Y-95441353D01*
X152553014Y-95227068D02*
X151803014Y-95227068D01*
X151803014Y-95227068D02*
X151910157Y-95298496D01*
X151910157Y-95298496D02*
X151981585Y-95369925D01*
X151981585Y-95369925D02*
X152017300Y-95441353D01*
X152428014Y-110462782D02*
X152428014Y-110891353D01*
X152428014Y-110677068D02*
X151678014Y-110677068D01*
X151678014Y-110677068D02*
X151785157Y-110748496D01*
X151785157Y-110748496D02*
X151856585Y-110819925D01*
X151856585Y-110819925D02*
X151892300Y-110891353D01*
X151678014Y-109784210D02*
X151678014Y-110141353D01*
X151678014Y-110141353D02*
X152035157Y-110177067D01*
X152035157Y-110177067D02*
X151999442Y-110141353D01*
X151999442Y-110141353D02*
X151963728Y-110069925D01*
X151963728Y-110069925D02*
X151963728Y-109891353D01*
X151963728Y-109891353D02*
X151999442Y-109819925D01*
X151999442Y-109819925D02*
X152035157Y-109784210D01*
X152035157Y-109784210D02*
X152106585Y-109748496D01*
X152106585Y-109748496D02*
X152285157Y-109748496D01*
X152285157Y-109748496D02*
X152356585Y-109784210D01*
X152356585Y-109784210D02*
X152392300Y-109819925D01*
X152392300Y-109819925D02*
X152428014Y-109891353D01*
X152428014Y-109891353D02*
X152428014Y-110069925D01*
X152428014Y-110069925D02*
X152392300Y-110141353D01*
X152392300Y-110141353D02*
X152356585Y-110177067D01*
X167746741Y-87383609D02*
X167461027Y-87383609D01*
X167603884Y-87383609D02*
X167603884Y-86883609D01*
X167603884Y-86883609D02*
X167556265Y-86955038D01*
X167556265Y-86955038D02*
X167508646Y-87002657D01*
X167508646Y-87002657D02*
X167461027Y-87026466D01*
X168175312Y-86883609D02*
X168080074Y-86883609D01*
X168080074Y-86883609D02*
X168032455Y-86907419D01*
X168032455Y-86907419D02*
X168008645Y-86931228D01*
X168008645Y-86931228D02*
X167961026Y-87002657D01*
X167961026Y-87002657D02*
X167937217Y-87097895D01*
X167937217Y-87097895D02*
X167937217Y-87288371D01*
X167937217Y-87288371D02*
X167961026Y-87335990D01*
X167961026Y-87335990D02*
X167984836Y-87359800D01*
X167984836Y-87359800D02*
X168032455Y-87383609D01*
X168032455Y-87383609D02*
X168127693Y-87383609D01*
X168127693Y-87383609D02*
X168175312Y-87359800D01*
X168175312Y-87359800D02*
X168199121Y-87335990D01*
X168199121Y-87335990D02*
X168222931Y-87288371D01*
X168222931Y-87288371D02*
X168222931Y-87169323D01*
X168222931Y-87169323D02*
X168199121Y-87121704D01*
X168199121Y-87121704D02*
X168175312Y-87097895D01*
X168175312Y-87097895D02*
X168127693Y-87074085D01*
X168127693Y-87074085D02*
X168032455Y-87074085D01*
X168032455Y-87074085D02*
X167984836Y-87097895D01*
X167984836Y-87097895D02*
X167961026Y-87121704D01*
X167961026Y-87121704D02*
X167937217Y-87169323D01*
D11*
X173015419Y-87561904D02*
X172967800Y-87514285D01*
X172967800Y-87514285D02*
X172920180Y-87371428D01*
X172920180Y-87371428D02*
X172920180Y-87276190D01*
X172920180Y-87276190D02*
X172967800Y-87133333D01*
X172967800Y-87133333D02*
X173063038Y-87038095D01*
X173063038Y-87038095D02*
X173158276Y-86990476D01*
X173158276Y-86990476D02*
X173348752Y-86942857D01*
X173348752Y-86942857D02*
X173491609Y-86942857D01*
X173491609Y-86942857D02*
X173682085Y-86990476D01*
X173682085Y-86990476D02*
X173777323Y-87038095D01*
X173777323Y-87038095D02*
X173872561Y-87133333D01*
X173872561Y-87133333D02*
X173920180Y-87276190D01*
X173920180Y-87276190D02*
X173920180Y-87371428D01*
X173920180Y-87371428D02*
X173872561Y-87514285D01*
X173872561Y-87514285D02*
X173824942Y-87561904D01*
X172920180Y-88133333D02*
X172967800Y-88038095D01*
X172967800Y-88038095D02*
X173015419Y-87990476D01*
X173015419Y-87990476D02*
X173110657Y-87942857D01*
X173110657Y-87942857D02*
X173396371Y-87942857D01*
X173396371Y-87942857D02*
X173491609Y-87990476D01*
X173491609Y-87990476D02*
X173539228Y-88038095D01*
X173539228Y-88038095D02*
X173586847Y-88133333D01*
X173586847Y-88133333D02*
X173586847Y-88276190D01*
X173586847Y-88276190D02*
X173539228Y-88371428D01*
X173539228Y-88371428D02*
X173491609Y-88419047D01*
X173491609Y-88419047D02*
X173396371Y-88466666D01*
X173396371Y-88466666D02*
X173110657Y-88466666D01*
X173110657Y-88466666D02*
X173015419Y-88419047D01*
X173015419Y-88419047D02*
X172967800Y-88371428D01*
X172967800Y-88371428D02*
X172920180Y-88276190D01*
X172920180Y-88276190D02*
X172920180Y-88133333D01*
X173586847Y-88895238D02*
X172920180Y-88895238D01*
X173491609Y-88895238D02*
X173539228Y-88942857D01*
X173539228Y-88942857D02*
X173586847Y-89038095D01*
X173586847Y-89038095D02*
X173586847Y-89180952D01*
X173586847Y-89180952D02*
X173539228Y-89276190D01*
X173539228Y-89276190D02*
X173443990Y-89323809D01*
X173443990Y-89323809D02*
X172920180Y-89323809D01*
X173586847Y-89800000D02*
X172920180Y-89800000D01*
X173491609Y-89800000D02*
X173539228Y-89847619D01*
X173539228Y-89847619D02*
X173586847Y-89942857D01*
X173586847Y-89942857D02*
X173586847Y-90085714D01*
X173586847Y-90085714D02*
X173539228Y-90180952D01*
X173539228Y-90180952D02*
X173443990Y-90228571D01*
X173443990Y-90228571D02*
X172920180Y-90228571D01*
X172824942Y-90466667D02*
X172824942Y-91228571D01*
X173920180Y-91657143D02*
X173920180Y-91752381D01*
X173920180Y-91752381D02*
X173872561Y-91847619D01*
X173872561Y-91847619D02*
X173824942Y-91895238D01*
X173824942Y-91895238D02*
X173729704Y-91942857D01*
X173729704Y-91942857D02*
X173539228Y-91990476D01*
X173539228Y-91990476D02*
X173301133Y-91990476D01*
X173301133Y-91990476D02*
X173110657Y-91942857D01*
X173110657Y-91942857D02*
X173015419Y-91895238D01*
X173015419Y-91895238D02*
X172967800Y-91847619D01*
X172967800Y-91847619D02*
X172920180Y-91752381D01*
X172920180Y-91752381D02*
X172920180Y-91657143D01*
X172920180Y-91657143D02*
X172967800Y-91561905D01*
X172967800Y-91561905D02*
X173015419Y-91514286D01*
X173015419Y-91514286D02*
X173110657Y-91466667D01*
X173110657Y-91466667D02*
X173301133Y-91419048D01*
X173301133Y-91419048D02*
X173539228Y-91419048D01*
X173539228Y-91419048D02*
X173729704Y-91466667D01*
X173729704Y-91466667D02*
X173824942Y-91514286D01*
X173824942Y-91514286D02*
X173872561Y-91561905D01*
X173872561Y-91561905D02*
X173920180Y-91657143D01*
X172920180Y-92942857D02*
X172920180Y-92371429D01*
X172920180Y-92657143D02*
X173920180Y-92657143D01*
X173920180Y-92657143D02*
X173777323Y-92561905D01*
X173777323Y-92561905D02*
X173682085Y-92466667D01*
X173682085Y-92466667D02*
X173634466Y-92371429D01*
X172920180Y-93276191D02*
X173586847Y-93800000D01*
X173586847Y-93276191D02*
X172920180Y-93800000D01*
X172920180Y-94704762D02*
X172920180Y-94133334D01*
X172920180Y-94419048D02*
X173920180Y-94419048D01*
X173920180Y-94419048D02*
X173777323Y-94323810D01*
X173777323Y-94323810D02*
X173682085Y-94228572D01*
X173682085Y-94228572D02*
X173634466Y-94133334D01*
X173920180Y-95561905D02*
X173920180Y-95371429D01*
X173920180Y-95371429D02*
X173872561Y-95276191D01*
X173872561Y-95276191D02*
X173824942Y-95228572D01*
X173824942Y-95228572D02*
X173682085Y-95133334D01*
X173682085Y-95133334D02*
X173491609Y-95085715D01*
X173491609Y-95085715D02*
X173110657Y-95085715D01*
X173110657Y-95085715D02*
X173015419Y-95133334D01*
X173015419Y-95133334D02*
X172967800Y-95180953D01*
X172967800Y-95180953D02*
X172920180Y-95276191D01*
X172920180Y-95276191D02*
X172920180Y-95466667D01*
X172920180Y-95466667D02*
X172967800Y-95561905D01*
X172967800Y-95561905D02*
X173015419Y-95609524D01*
X173015419Y-95609524D02*
X173110657Y-95657143D01*
X173110657Y-95657143D02*
X173348752Y-95657143D01*
X173348752Y-95657143D02*
X173443990Y-95609524D01*
X173443990Y-95609524D02*
X173491609Y-95561905D01*
X173491609Y-95561905D02*
X173539228Y-95466667D01*
X173539228Y-95466667D02*
X173539228Y-95276191D01*
X173539228Y-95276191D02*
X173491609Y-95180953D01*
X173491609Y-95180953D02*
X173443990Y-95133334D01*
X173443990Y-95133334D02*
X173348752Y-95085715D01*
X169041666Y-95129819D02*
X169041666Y-95844104D01*
X169041666Y-95844104D02*
X168994047Y-95986961D01*
X168994047Y-95986961D02*
X168898809Y-96082200D01*
X168898809Y-96082200D02*
X168755952Y-96129819D01*
X168755952Y-96129819D02*
X168660714Y-96129819D01*
X170041666Y-96129819D02*
X169470238Y-96129819D01*
X169755952Y-96129819D02*
X169755952Y-95129819D01*
X169755952Y-95129819D02*
X169660714Y-95272676D01*
X169660714Y-95272676D02*
X169565476Y-95367914D01*
X169565476Y-95367914D02*
X169470238Y-95415533D01*
D10*
X151816764Y-102674999D02*
X152352478Y-102674999D01*
X152352478Y-102674999D02*
X152459621Y-102710714D01*
X152459621Y-102710714D02*
X152531050Y-102782142D01*
X152531050Y-102782142D02*
X152566764Y-102889285D01*
X152566764Y-102889285D02*
X152566764Y-102960714D01*
X151888192Y-102353570D02*
X151852478Y-102317856D01*
X151852478Y-102317856D02*
X151816764Y-102246428D01*
X151816764Y-102246428D02*
X151816764Y-102067856D01*
X151816764Y-102067856D02*
X151852478Y-101996428D01*
X151852478Y-101996428D02*
X151888192Y-101960713D01*
X151888192Y-101960713D02*
X151959621Y-101924999D01*
X151959621Y-101924999D02*
X152031050Y-101924999D01*
X152031050Y-101924999D02*
X152138192Y-101960713D01*
X152138192Y-101960713D02*
X152566764Y-102389285D01*
X152566764Y-102389285D02*
X152566764Y-101924999D01*
D11*
X140884580Y-106163095D02*
X140932200Y-106210714D01*
X140932200Y-106210714D02*
X140979819Y-106353571D01*
X140979819Y-106353571D02*
X140979819Y-106448809D01*
X140979819Y-106448809D02*
X140932200Y-106591666D01*
X140932200Y-106591666D02*
X140836961Y-106686904D01*
X140836961Y-106686904D02*
X140741723Y-106734523D01*
X140741723Y-106734523D02*
X140551247Y-106782142D01*
X140551247Y-106782142D02*
X140408390Y-106782142D01*
X140408390Y-106782142D02*
X140217914Y-106734523D01*
X140217914Y-106734523D02*
X140122676Y-106686904D01*
X140122676Y-106686904D02*
X140027438Y-106591666D01*
X140027438Y-106591666D02*
X139979819Y-106448809D01*
X139979819Y-106448809D02*
X139979819Y-106353571D01*
X139979819Y-106353571D02*
X140027438Y-106210714D01*
X140027438Y-106210714D02*
X140075057Y-106163095D01*
X140979819Y-105591666D02*
X140932200Y-105686904D01*
X140932200Y-105686904D02*
X140884580Y-105734523D01*
X140884580Y-105734523D02*
X140789342Y-105782142D01*
X140789342Y-105782142D02*
X140503628Y-105782142D01*
X140503628Y-105782142D02*
X140408390Y-105734523D01*
X140408390Y-105734523D02*
X140360771Y-105686904D01*
X140360771Y-105686904D02*
X140313152Y-105591666D01*
X140313152Y-105591666D02*
X140313152Y-105448809D01*
X140313152Y-105448809D02*
X140360771Y-105353571D01*
X140360771Y-105353571D02*
X140408390Y-105305952D01*
X140408390Y-105305952D02*
X140503628Y-105258333D01*
X140503628Y-105258333D02*
X140789342Y-105258333D01*
X140789342Y-105258333D02*
X140884580Y-105305952D01*
X140884580Y-105305952D02*
X140932200Y-105353571D01*
X140932200Y-105353571D02*
X140979819Y-105448809D01*
X140979819Y-105448809D02*
X140979819Y-105591666D01*
X140313152Y-104829761D02*
X140979819Y-104829761D01*
X140408390Y-104829761D02*
X140360771Y-104782142D01*
X140360771Y-104782142D02*
X140313152Y-104686904D01*
X140313152Y-104686904D02*
X140313152Y-104544047D01*
X140313152Y-104544047D02*
X140360771Y-104448809D01*
X140360771Y-104448809D02*
X140456009Y-104401190D01*
X140456009Y-104401190D02*
X140979819Y-104401190D01*
X140313152Y-103924999D02*
X140979819Y-103924999D01*
X140408390Y-103924999D02*
X140360771Y-103877380D01*
X140360771Y-103877380D02*
X140313152Y-103782142D01*
X140313152Y-103782142D02*
X140313152Y-103639285D01*
X140313152Y-103639285D02*
X140360771Y-103544047D01*
X140360771Y-103544047D02*
X140456009Y-103496428D01*
X140456009Y-103496428D02*
X140979819Y-103496428D01*
X141075057Y-103258333D02*
X141075057Y-102496428D01*
X139979819Y-102067856D02*
X139979819Y-101972618D01*
X139979819Y-101972618D02*
X140027438Y-101877380D01*
X140027438Y-101877380D02*
X140075057Y-101829761D01*
X140075057Y-101829761D02*
X140170295Y-101782142D01*
X140170295Y-101782142D02*
X140360771Y-101734523D01*
X140360771Y-101734523D02*
X140598866Y-101734523D01*
X140598866Y-101734523D02*
X140789342Y-101782142D01*
X140789342Y-101782142D02*
X140884580Y-101829761D01*
X140884580Y-101829761D02*
X140932200Y-101877380D01*
X140932200Y-101877380D02*
X140979819Y-101972618D01*
X140979819Y-101972618D02*
X140979819Y-102067856D01*
X140979819Y-102067856D02*
X140932200Y-102163094D01*
X140932200Y-102163094D02*
X140884580Y-102210713D01*
X140884580Y-102210713D02*
X140789342Y-102258332D01*
X140789342Y-102258332D02*
X140598866Y-102305951D01*
X140598866Y-102305951D02*
X140360771Y-102305951D01*
X140360771Y-102305951D02*
X140170295Y-102258332D01*
X140170295Y-102258332D02*
X140075057Y-102210713D01*
X140075057Y-102210713D02*
X140027438Y-102163094D01*
X140027438Y-102163094D02*
X139979819Y-102067856D01*
X140979819Y-100782142D02*
X140979819Y-101353570D01*
X140979819Y-101067856D02*
X139979819Y-101067856D01*
X139979819Y-101067856D02*
X140122676Y-101163094D01*
X140122676Y-101163094D02*
X140217914Y-101258332D01*
X140217914Y-101258332D02*
X140265533Y-101353570D01*
X140979819Y-100448808D02*
X140313152Y-99924999D01*
X140313152Y-100448808D02*
X140979819Y-99924999D01*
X140979819Y-99020237D02*
X140979819Y-99591665D01*
X140979819Y-99305951D02*
X139979819Y-99305951D01*
X139979819Y-99305951D02*
X140122676Y-99401189D01*
X140122676Y-99401189D02*
X140217914Y-99496427D01*
X140217914Y-99496427D02*
X140265533Y-99591665D01*
X139979819Y-98115475D02*
X139979819Y-98591665D01*
X139979819Y-98591665D02*
X140456009Y-98639284D01*
X140456009Y-98639284D02*
X140408390Y-98591665D01*
X140408390Y-98591665D02*
X140360771Y-98496427D01*
X140360771Y-98496427D02*
X140360771Y-98258332D01*
X140360771Y-98258332D02*
X140408390Y-98163094D01*
X140408390Y-98163094D02*
X140456009Y-98115475D01*
X140456009Y-98115475D02*
X140551247Y-98067856D01*
X140551247Y-98067856D02*
X140789342Y-98067856D01*
X140789342Y-98067856D02*
X140884580Y-98115475D01*
X140884580Y-98115475D02*
X140932200Y-98163094D01*
X140932200Y-98163094D02*
X140979819Y-98258332D01*
X140979819Y-98258332D02*
X140979819Y-98496427D01*
X140979819Y-98496427D02*
X140932200Y-98591665D01*
X140932200Y-98591665D02*
X140884580Y-98639284D01*
X145016666Y-88404819D02*
X145016666Y-89119104D01*
X145016666Y-89119104D02*
X144969047Y-89261961D01*
X144969047Y-89261961D02*
X144873809Y-89357200D01*
X144873809Y-89357200D02*
X144730952Y-89404819D01*
X144730952Y-89404819D02*
X144635714Y-89404819D01*
X145445238Y-88500057D02*
X145492857Y-88452438D01*
X145492857Y-88452438D02*
X145588095Y-88404819D01*
X145588095Y-88404819D02*
X145826190Y-88404819D01*
X145826190Y-88404819D02*
X145921428Y-88452438D01*
X145921428Y-88452438D02*
X145969047Y-88500057D01*
X145969047Y-88500057D02*
X146016666Y-88595295D01*
X146016666Y-88595295D02*
X146016666Y-88690533D01*
X146016666Y-88690533D02*
X145969047Y-88833390D01*
X145969047Y-88833390D02*
X145397619Y-89404819D01*
X145397619Y-89404819D02*
X146016666Y-89404819D01*
D12*
%TO.C,J1*%
X156975006Y-91392500D02*
X156975006Y-93375000D01*
X156975006Y-93375000D02*
X171074978Y-93375000D01*
X159261006Y-86443000D02*
X160277006Y-87636800D01*
X159261006Y-86443000D02*
X161293006Y-86443000D01*
X159807500Y-88375000D02*
X156975006Y-88375000D01*
X161293006Y-86443000D02*
X160277006Y-87636800D01*
X171074978Y-88375000D02*
X168242500Y-88375000D01*
X171074978Y-93375000D02*
X171074978Y-91392500D01*
D13*
%TO.C,J2*%
X143515000Y-90855000D02*
X144625000Y-90855000D01*
X143515000Y-113995000D02*
X143515000Y-90855000D01*
X144625000Y-90855000D02*
X144625000Y-91880000D01*
X144625000Y-91880000D02*
X145165000Y-91880000D01*
X144625000Y-112970000D02*
X144625000Y-113995000D01*
X144625000Y-113995000D02*
X143515000Y-113995000D01*
X145165000Y-112970000D02*
X144625000Y-112970000D01*
X149135000Y-94035000D02*
X149135000Y-94860000D01*
X149135000Y-94860000D02*
X150935000Y-94860000D01*
X149135000Y-109990000D02*
X149135000Y-110815000D01*
%TD*%
M02*
